  0
SECTION
  2
HEADER
  9
$ACADVER
  1
AC1015
  9
$ACADMAINTVER
  70
6
  9
$DWGCODEPAGE
  3

  9
$INSBASE
  10
0
  20
0
  30
0
  9
$EXTMIN
  10
6894.1613845237216
  20
-23467.713978226235
  30
-1052.4531846974483
  9
$EXTMAX
  10
6972.1082196460247
  20
-23426.354936627482
  30
-1052.4531846974483
  9
$LIMMIN
  10
0
  20
0
  9
$LIMMAX
  10
10
  20
10
  9
$ORTHOMODE
  70
0
  9
$REGENMODE
  70
1
  9
$FILLMODE
  70
1
  9
$QTEXTMODE
  70
0
  9
$MIRRTEXT
  70
1
  9
$LTSCALE
  40
1
  9
$ATTMODE
  70
1
  9
$TEXTSIZE
  40
0.2
  9
$TRACEWID
  40
0.05
  9
$TEXTSTYLE
  7
STANDARD
  9
$CLAYER
  8
0
  9
$CELTYPE
  6
BYLAYER
  9
$CECOLOR
  62
256
  9
$CELTSCALE
  40
1
  9
$DISPSILH
  70
0
  9
$DIMSCALE
  40
1
  9
$DIMASZ
  40
0.2
  9
$DIMEXO
  40
0.2
  9
$DIMRND
  40
0
  9
$DIMDLE
  40
0
  9
$DIMEXE
  40
0.05
  9
$DIMTP
  40
1
  9
$DIMTM
  40
1
  9
$DIMTXT
  40
1
  9
$DIMTSZ
  40
0.0
  9
$DIMTOL
  70
0
  9
$DIMLIM
  70
0
  9
$DIMTIH
  70
0
  9
$DIMTOH
  70
1
  9
$DIMSE1
  70
0
  9
$DIMSE2
  70
0
  9
$DIMTAD
  70
0
  9
$DIMZIN
  70
1
  9
$DIMBLK
  1
VDDIM_DEFAULT
  9
$DIMASO
  70
1
  9
$DIMSHO
  70
1
  9
$DIMPOST
  1

  9
$DIMAPOST
  1

  9
$DIMALT
  70
0
  9
$DIMBLK1
  1

  9
$DIMBLK2
  1

  9
$DIMSTYLE
  2
STANDARD
  9
$DIMCLRD
  70
0
  9
$DIMCLRE
  70
0
  9
$DIMCLRT
  70
0
  9
$DIMTFAC
  40
1
  9
$DIMSD1
  70
0
  9
$DIMSD2
  70
0
  9
$DIMTOLJ
  70
1
  9
$DIMTXSTY
  7
STANDARD
  9
$DIMAUNIT
  70
1
  9
$DIMADEC
  70
4
  9
$DIMAZIN
  70
0
  9
$DIMLUNIT
  70
2
  9
$LUNITS
  70
2
  9
$LUPREC
  70
4
  9
$FILLETRAD
  40
0
  9
$AUNITS
  70
1
  9
$AUPREC
  70
4
  9
$MENU
  1

  9
$ELEVATION
  40
0
  9
$PELEVATION
  40
0
  9
$THICKNESS
  40
0
  9
$ANGBASE
  50
0
  9
$ANGDIR
  70
0
  9
$PDMODE
  70
2
  9
$PDSIZE
  40
1
  9
$PLINEWID
  40
0
  9
$SPLFRAME
  70
0
  9
$SPLINETYPE
  70
6
  9
$SPLINESEGS
  70
8
  9
$HANDSEED
  5
              246
  9
$SURFTAB1
  70
6
  9
$SURFTAB2
  70
6
  9
$SURFTYPE
  70
6
  9
$SURFU
  70
6
  9
$SURFV
  70
6
  9
$UCSBASE
  2

  9
$UCSNAME
  2

  9
$UCSORG
  10
0
  20
0
  30
0
  9
$UCSXDIR
  10
1
  20
0
  30
0
  9
$UCSYDIR
  10
0
  20
1
  30
0
  9
$UCSORGTOP
  10
0
  20
0
  30
0
  9
$UCSORGBOTTOM
  10
0
  20
0
  30
0
  9
$UCSORGLEFT
  10
0
  20
0
  30
0
  9
$UCSORGRIGHT
  10
0
  20
0
  30
0
  9
$UCSORGFRONT
  10
0
  20
0
  30
0
  9
$UCSORGBACK
  10
0
  20
0
  30
0
  9
$PUCSBASE
  2

  9
$PUCSNAME
  2

  9
$PUCSXDIR
  10
1
  20
0
  30
0
  9
$PUCSYDIR
  10
0
  20
1
  30
0
  9
$PUCSORGTOP
  10
0
  20
0
  30
0
  9
$PUCSORGBOTTOM
  10
0
  20
0
  30
0
  9
$PUCSORGLEFT
  10
0
  20
0
  30
0
  9
$PUCSORGRIGHT
  10
0
  20
0
  30
0
  9
$PUCSORGFRONT
  10
0
  20
0
  30
0
  9
$PUCSORGBACK
  10
0
  20
0
  30
0
  9
$USERI1
  70
0
  9
$USERI2
  70
0
  9
$USERI3
  70
0
  9
$USERI4
  70
0
  9
$USERI5
  70
0
  9
$USERR1
  40
0
  9
$USERR2
  40
0
  9
$USERR3
  40
0
  9
$USERR4
  40
0
  9
$USERR5
  40
0
  9
$TILEMODE
  70
1
  9
$PINSBASE
  10
0
  20
0
  30
0
  9
$LWDISPLAY
  290
1
  9
$INSUNITS
  70
0
  9
$MEASUREMENT
  70
1
  0
ENDSEC
  0
SECTION
  2
CLASSES
  0
CLASS
  1
ACDBDICTIONARYWDFLT
  2
AcDbDictionaryWithDefault
  3
ObjectDBX Classes
  90
0
  280
0
  281
0
  0
CLASS
  1
IMAGEDEF
  2
AcDbRasterImageDef
  3
ISM
  90
0
  280
0
  281
0
  0
CLASS
  1
IMAGE
  2
AcDbRasterImage
  3
ISM
  90
127
  280
0
  281
1
  0
CLASS
  1
IMAGEDEF_REACTOR
  2
AcDbRasterImageDefReactor
  3
ObjectDBX Classes
  90
1
  280
0
  281
0
  0
CLASS
  1
ACDBPLACEHOLDER
  2
AcDbPlaceHolder
  3
ObjectDBX Classes
  90
0
  280
0
  281
0
  0
CLASS
  1
LAYOUT
  2
AcDbLayout
  3
ObjectDBX Classes
  90
0
  280
0
  281
0
  0
CLASS
  1
ARCALIGNEDTEXT
  2
AcDbArcAlignedText
  3
ATEXT|AutoCAD Express Tool|expresstools@autodesk.com
  90
0
  280
0
  281
1
  0
ENDSEC
  0
SECTION
  2
TABLES
  0
TABLE
  2
VPORT
  5
D2
  330
0
  100
AcDbSymbolTable
  70
2
  0
VPORT
  5
D3
  330
D2
  100
AcDbSymbolTableRecord
  100
AcDbViewportTableRecord
  2
*Active
  70
0
  10
0
  20
0
  11
1
  21
1
  12
-20.810267490310949
  22
-20.667168416809698
  13
0
  23
0
  14
1
  24
1
  15
1
  25
1
  16
0
  26
0
  36
1
  17
0
  27
0
  37
0
  40
130.32425653030609
  41
1
  42
50
  43
0
  44
0
  50
0
  51
0
  71
0
  72
100
  73
1
  74
3
  75
0
  76
0
  77
0
  78
0
  281
0
  65
1
  110
0
  120
0
  130
0
  111
1
  121
0
  131
0
  112
0
  122
1
  132
0
  79
0
  146
0
  0
ENDTAB
  0
TABLE
  2
LTYPE
  5
D4
  330
0
  100
AcDbSymbolTable
  70
8
  0
LTYPE
  5
1C
  330
D4
  100
AcDbSymbolTableRecord
  100
AcDbLinetypeTableRecord
  2
BYLAYER
  70
0
  3
BYLAYER________________________________________
  72
65
  73
0
  40
0
  0
LTYPE
  5
1D
  330
D4
  100
AcDbSymbolTableRecord
  100
AcDbLinetypeTableRecord
  2
BYBLOCK
  70
0
  3
BYBLOCK________________________________________
  72
65
  73
0
  40
0
  0
LTYPE
  5
1E
  330
D4
  100
AcDbSymbolTableRecord
  100
AcDbLinetypeTableRecord
  2
DASHED0
  70
0
  3
Dashed0 __ __ __ __ __ __ __ __ __ __ __ __ __ _
  72
65
  73
2
  40
1
  49
0.5
  74
0
  49
-0.5
  74
0
  0
LTYPE
  5
1F
  330
D4
  100
AcDbSymbolTableRecord
  100
AcDbLinetypeTableRecord
  2
DOT0
  70
0
  3
Dot0 ........................................
  72
65
  73
8
  40
1
  49
0
  74
0
  49
-0.25
  74
0
  49
0
  74
0
  49
-0.25
  74
0
  49
0
  74
0
  49
-0.25
  74
0
  49
0
  74
0
  49
-0.25
  74
0
  0
LTYPE
  5
20
  330
D4
  100
AcDbSymbolTableRecord
  100
AcDbLinetypeTableRecord
  2
DASHDOT0
  70
0
  3
Dashdot __ . __ . __ . __ . __ . __ . __ . __
  72
65
  73
4
  40
1
  49
0.4
  74
0
  49
-0.3
  74
0
  49
0
  74
0
  49
-0.3
  74
0
  0
LTYPE
  5
21
  330
D4
  100
AcDbSymbolTableRecord
  100
AcDbLinetypeTableRecord
  2
DASHDOTDOT0
  70
0
  3
Dashdot __ . . __ . . __ . . __ . . __ . . __ . . __ . . __
  72
65
  73
6
  40
1
  49
0.3
  74
0
  49
-0.23
  74
0
  49
0
  74
0
  49
-0.24
  74
0
  49
0
  74
0
  49
-0.23
  74
0
  0
LTYPE
  5
22
  330
D4
  100
AcDbSymbolTableRecord
  100
AcDbLinetypeTableRecord
  2
INVISIBLE
  70
0
  3
Invisible(                        )
  72
65
  73
2
  40
2
  49
-1
  74
0
  49
-1
  74
0
  0
ENDTAB
  0
TABLE
  2
LAYER
  5
D6
  102
{ACAD_XDICTIONARY
  360
D7
  102
}
  330
0
  100
AcDbSymbolTable
  70
7
  0
LAYER
  5
62
  330
D6
  100
AcDbSymbolTableRecord
  100
AcDbLayerTableRecord
  2
0
  70
0
  62
7
  6
Continuous
  370
-3
  390
D5
  0
LAYER
  5
6C
  330
D6
  100
AcDbSymbolTableRecord
  100
AcDbLayerTableRecord
  2
100 4W CUT3 LHP 07W BLAST 2 _R1A-R3_DXF_RINGDESIGN_100 04W CUT03 LHP 07W_SURVEYEXPORT
  70
0
  62
7
  6
Continuous
  370
25
  390
D5
  0
LAYER
  5
6D
  330
D6
  100
AcDbSymbolTableRecord
  100
AcDbLayerTableRecord
  2
100 4W CUT3 LHP 07W BLAST 2 _R1A-R3_DXF_RINGDESIGN_100 04W CUT03 LHP 07W_SURVEYEXPORT_R4
  70
0
  62
7
  6
Continuous
  370
25
  390
D5
  0
LAYER
  5
6E
  330
D6
  100
AcDbSymbolTableRecord
  100
AcDbLayerTableRecord
  2
100 4W CUT3 LHP 07W BLAST 2 _R1A-R3_DXF_RINGDESIGN_100 04W CUT03 LHP 07W_SURVEYEXPORT_R3
  70
0
  62
7
  6
Continuous
  370
25
  390
D5
  0
LAYER
  5
6F
  330
D6
  100
AcDbSymbolTableRecord
  100
AcDbLayerTableRecord
  2
100 4W CUT3 LHP 07W BLAST 2 _R1A-R3_DXF_RINGDESIGN_100 04W CUT03 LHP 07W_SURVEYEXPORT_R2
  70
0
  62
7
  6
Continuous
  370
25
  390
D5
  0
LAYER
  5
70
  330
D6
  100
AcDbSymbolTableRecord
  100
AcDbLayerTableRecord
  2
100 4W CUT3 LHP 07W BLAST 2 _R1A-R3_DXF_RINGDESIGN_100 04W CUT03 LHP 07W_SURVEYEXPORT_R1
  70
0
  62
7
  6
Continuous
  370
25
  390
D5
  0
LAYER
  5
71
  330
D6
  100
AcDbSymbolTableRecord
  100
AcDbLayerTableRecord
  2
100 4W CUT3 LHP 07W BLAST 2 _R1A-R3_DXF_RINGDESIGN_100 04W CUT03 LHP 07W_SURVEYEXPORT_R1A
  70
0
  62
7
  6
Continuous
  370
25
  390
D5
  0
ENDTAB
  0
TABLE
  2
STYLE
  5
D8
  330
0
  100
AcDbSymbolTable
  70
1
  0
STYLE
  5
64
  330
D8
  100
AcDbSymbolTableRecord
  100
AcDbTextStyleTableRecord
  2
STANDARD
  70
0
  40
1
  41
1
  50
0
  71
0
  42
0.2
  3
Arial
  4

  0
ENDTAB
  0
TABLE
  2
VIEW
  5
D9
  330
0
  100
AcDbSymbolTable
  70
0
  0
ENDTAB
  0
TABLE
  2
UCS
  5
DA
  330
0
  100
AcDbSymbolTable
  70
0
  0
ENDTAB
  0
TABLE
  2
APPID
  5
DB
  330
0
  100
AcDbSymbolTable
  70
6
  0
APPID
  5
DC
  330
DB
  100
AcDbSymbolTableRecord
  100
AcDbRegAppTableRecord
  2
AcAecLayerStandard
  70
0
  0
APPID
  5
DD
  330
DB
  100
AcDbSymbolTableRecord
  100
AcDbRegAppTableRecord
  2
VDEXTRAPARAM
  70
0
  0
APPID
  5
DE
  330
DB
  100
AcDbSymbolTableRecord
  100
AcDbRegAppTableRecord
  2
VDEXTRASOLID2D
  70
0
  0
APPID
  5
DF
  330
DB
  100
AcDbSymbolTableRecord
  100
AcDbRegAppTableRecord
  2
VD_TEMPHATCH
  70
0
  0
APPID
  5
E0
  330
DB
  100
AcDbSymbolTableRecord
  100
AcDbRegAppTableRecord
  2
ACAD
  70
0
  0
APPID
  5
E1
  330
DB
  100
AcDbSymbolTableRecord
  100
AcDbRegAppTableRecord
  2
PE_URL
  70
0
  0
ENDTAB
  0
TABLE
  2
BLOCK_RECORD
  5
E2
  330
0
  100
AcDbSymbolTable
  70
4
  0
BLOCK_RECORD
  5
E3
  330
E2
  100
AcDbSymbolTableRecord
  100
AcDbBlockTableRecord
  2
*Model_Space
  340
1
  0
BLOCK_RECORD
  5
E4
  330
E2
  100
AcDbSymbolTableRecord
  100
AcDbBlockTableRecord
  2
*Paper_Space
  340
D1
  0
BLOCK_RECORD
  5
E5
  330
E2
  100
AcDbSymbolTableRecord
  100
AcDbBlockTableRecord
  2
VDDIM_DEFAULT
  340
0
  0
BLOCK_RECORD
  5
E6
  330
E2
  100
AcDbSymbolTableRecord
  100
AcDbBlockTableRecord
  2
VDDIM_NONE
  340
0
  0
ENDTAB
  0
TABLE
  2
DIMSTYLE
  5
E7
  330
0
  100
AcDbSymbolTable
  70
1
  100
AcDbDimStyleTable
  71
1
  340
69
  0
DIMSTYLE
  105
69
  330
E7
  100
AcDbSymbolTableRecord
  100
AcDbDimStyleTableRecord
  2
STANDARD
  70
0
  41
0.2
  3

  177
0
  42
0.05
  44
0.2
  75
0
  76
0
  40
1
  172
1
  281
0
  282
0
  275
1
  277
2
  179
4
  71
0
  47
1
  48
1
  78
1
  176
0
  178
0
  140
1
  147
0.09
  280
0
  77
1
  73
0
  271
4
  173
1
  340
64
  0
ENDTAB
  0
ENDSEC
  0
SECTION
  2
BLOCKS
  0
BLOCK
  5
E8
  330
E3
  100
AcDbEntity
  8
0
  100
AcDbBlockBegin
  2
*Model_Space
  70
0
  71
0
  10
0
  20
0
  30
0
  3
*Model_Space
  1

  0
ENDBLK
  5
E9
  330
E3
  100
AcDbEntity
  67
1
  8
0
  100
AcDbBlockEnd
  0
BLOCK
  5
EA
  330
E4
  100
AcDbEntity
  8
0
  100
AcDbBlockBegin
  2
*Paper_Space
  70
0
  71
0
  10
0
  20
0
  30
0
  3
*Paper_Space
  1

  0
ENDBLK
  5
EB
  330
E4
  100
AcDbEntity
  67
1
  8
0
  100
AcDbBlockEnd
  0
BLOCK
  5
65
  330
E5
  100
AcDbEntity
  8
0
  100
AcDbBlockBegin
  2
VDDIM_DEFAULT
  70
0
  71
0
  10
0
  20
0
  30
0
  3
VDDIM_DEFAULT
  1

  0
HATCH
  5
66
  330
E5
  100
AcDbEntity
  8
0
  62
0
  370
-2
  100
AcDbHatch
  10
0
  20
0
  30
0
  210
0
  220
0
  230
-1
  2
SOLID
  70
1
  71
0
  91
1
  92
2
  72
0
  73
1
  93
3
  10
0
  20
0
  10
1
  20
-0.1665
  10
1
  20
0.1665
  97
0
  75
0
  76
1
  98
1
  10
0
  20
0
  0
ENDBLK
  5
EC
  330
E5
  100
AcDbEntity
  8
0
  100
AcDbBlockEnd
  0
BLOCK
  5
68
  330
E6
  100
AcDbEntity
  8
0
  100
AcDbBlockBegin
  2
VDDIM_NONE
  70
0
  71
0
  10
0
  20
0
  30
0
  3
VDDIM_NONE
  1

  0
ENDBLK
  5
ED
  330
E6
  100
AcDbEntity
  8
0
  100
AcDbBlockEnd
  0
ENDSEC
  0
SECTION
  2
ENTITIES
  0
LWPOLYLINE
  5
EE
  330
E3
  100
AcDbEntity
  8
100 4W CUT3 LHP 07W BLAST 2 _R1A-R3_DXF_RINGDESIGN_100 04W CUT03 LHP 07W_SURVEYEXPORT
  62
7
  100
AcDbPolyline
  90
4
  43
0
  38
-1049.7916723628996
  10
6972.1082196460247
  20
-23467.713978226235
  10
6940.3811159027755
  20
-23449.957245267051
  10
6920.9270481754338
  20
-23441.992828278002
  10
6894.1613845237216
  20
-23427.369636429263
  0
LWPOLYLINE
  5
EF
  330
E3
  100
AcDbEntity
  8
100 4W CUT3 LHP 07W BLAST 2 _R1A-R3_DXF_RINGDESIGN_100 04W CUT03 LHP 07W_SURVEYEXPORT
  62
7
  100
AcDbPolyline
  90
2
  43
0
  38
-1049.7916723628996
  10
6911.4068747478723
  20
-23451.035470455165
  10
6923.3931717246542
  20
-23429.096266167304
  0
LWPOLYLINE
  5
F0
  330
E3
  100
AcDbEntity
  8
100 4W CUT3 LHP 07W BLAST 2 _R1A-R3_DXF_RINGDESIGN_100 04W CUT03 LHP 07W_SURVEYEXPORT
  62
1
  100
AcDbPolyline
  90
2
  43
0
  38
-1049.7916723628996
  10
6914.1975415332881
  20
-23452.56012743061
  10
6926.18383851007
  20
-23430.620923142749
  0
POLYLINE
  5
F1
  330
E3
  100
AcDbEntity
  8
100 4W CUT3 LHP 07W BLAST 2 _R1A-R3_DXF_RINGDESIGN_100 04W CUT03 LHP 07W_SURVEYEXPORT_R4
  62
7
  100
AcDb3dPolyline
  10
0
  20
0
  30
0
  70
8
  0
VERTEX
  5
F2
  330

  100
AcDbEntity
  8
100 4W CUT3 LHP 07W BLAST 2 _R1A-R3_DXF_RINGDESIGN_100 04W CUT03 LHP 07W_SURVEYEXPORT_R4
  6
BYLAYER
  62
7
  100
AcDbVertex
  100
AcDb3dPolylineVertex
  10
6915.7939769762625
  20
-23443.005506554986
  30
-1050.9917779516013
  70
32
  0
VERTEX
  5
F3
  330

  100
AcDbEntity
  8
100 4W CUT3 LHP 07W BLAST 2 _R1A-R3_DXF_RINGDESIGN_100 04W CUT03 LHP 07W_SURVEYEXPORT_R4
  6
BYLAYER
  62
7
  100
AcDbVertex
  100
AcDb3dPolylineVertex
  10
6914.8909371180334
  20
-23444.65839200978
  30
-1051.6644507455974
  70
32
  0
SEQEND
  5
F4
  330

  100
AcDbEntity
  8
100 4W CUT3 LHP 07W BLAST 2 _R1A-R3_DXF_RINGDESIGN_100 04W CUT03 LHP 07W_SURVEYEXPORT_R4
  0
POLYLINE
  5
F5
  330
E3
  100
AcDbEntity
  8
100 4W CUT3 LHP 07W BLAST 2 _R1A-R3_DXF_RINGDESIGN_100 04W CUT03 LHP 07W_SURVEYEXPORT_R4
  62
7
  100
AcDb3dPolyline
  10
0
  20
0
  30
0
  70
8
  0
VERTEX
  5
F6
  330

  100
AcDbEntity
  8
100 4W CUT3 LHP 07W BLAST 2 _R1A-R3_DXF_RINGDESIGN_100 04W CUT03 LHP 07W_SURVEYEXPORT_R4
  6
BYLAYER
  62
7
  100
AcDbVertex
  100
AcDb3dPolylineVertex
  10
6915.7725245835654
  20
-23443.044772095189
  30
-1050.3541946873304
  70
32
  0
VERTEX
  5
F7
  330

  100
AcDbEntity
  8
100 4W CUT3 LHP 07W BLAST 2 _R1A-R3_DXF_RINGDESIGN_100 04W CUT03 LHP 07W_SURVEYEXPORT_R4
  6
BYLAYER
  62
7
  100
AcDbVertex
  100
AcDb3dPolylineVertex
  10
6912.9027201723165
  20
-23448.297539097919
  30
-1051.356006651029
  70
32
  0
SEQEND
  5
F8
  330

  100
AcDbEntity
  8
100 4W CUT3 LHP 07W BLAST 2 _R1A-R3_DXF_RINGDESIGN_100 04W CUT03 LHP 07W_SURVEYEXPORT_R4
  0
POLYLINE
  5
F9
  330
E3
  100
AcDbEntity
  8
100 4W CUT3 LHP 07W BLAST 2 _R1A-R3_DXF_RINGDESIGN_100 04W CUT03 LHP 07W_SURVEYEXPORT_R4
  62
7
  100
AcDb3dPolyline
  10
0
  20
0
  30
0
  70
8
  0
VERTEX
  5
FA
  330

  100
AcDbEntity
  8
100 4W CUT3 LHP 07W BLAST 2 _R1A-R3_DXF_RINGDESIGN_100 04W CUT03 LHP 07W_SURVEYEXPORT_R4
  6
BYLAYER
  62
7
  100
AcDbVertex
  100
AcDb3dPolylineVertex
  10
6915.7503110328144
  20
-23443.085430826475
  30
-1049.6939891615878
  70
32
  0
VERTEX
  5
FB
  330

  100
AcDbEntity
  8
100 4W CUT3 LHP 07W BLAST 2 _R1A-R3_DXF_RINGDESIGN_100 04W CUT03 LHP 07W_SURVEYEXPORT_R4
  6
BYLAYER
  62
7
  100
AcDbVertex
  100
AcDb3dPolylineVertex
  10
6912.9745901681772
  20
-23448.165991337639
  30
-1049.5144740365529
  70
32
  0
SEQEND
  5
FC
  330

  100
AcDbEntity
  8
100 4W CUT3 LHP 07W BLAST 2 _R1A-R3_DXF_RINGDESIGN_100 04W CUT03 LHP 07W_SURVEYEXPORT_R4
  0
POLYLINE
  5
FD
  330
E3
  100
AcDbEntity
  8
100 4W CUT3 LHP 07W BLAST 2 _R1A-R3_DXF_RINGDESIGN_100 04W CUT03 LHP 07W_SURVEYEXPORT_R4
  62
7
  100
AcDb3dPolyline
  10
0
  20
0
  30
0
  70
8
  0
VERTEX
  5
FE
  330

  100
AcDbEntity
  8
100 4W CUT3 LHP 07W BLAST 2 _R1A-R3_DXF_RINGDESIGN_100 04W CUT03 LHP 07W_SURVEYEXPORT_R4
  6
BYLAYER
  62
7
  100
AcDbVertex
  100
AcDb3dPolylineVertex
  10
6915.6613406615334
  20
-23443.248278381052
  30
-1048.7936191620015
  70
32
  0
VERTEX
  5
FF
  330

  100
AcDbEntity
  8
100 4W CUT3 LHP 07W BLAST 2 _R1A-R3_DXF_RINGDESIGN_100 04W CUT03 LHP 07W_SURVEYEXPORT_R4
  6
BYLAYER
  62
7
  100
AcDbVertex
  100
AcDb3dPolylineVertex
  10
6912.9631589318942
  20
-23448.18691458262
  30
-1047.2256130870692
  70
32
  0
SEQEND
  5
100
  330

  100
AcDbEntity
  8
100 4W CUT3 LHP 07W BLAST 2 _R1A-R3_DXF_RINGDESIGN_100 04W CUT03 LHP 07W_SURVEYEXPORT_R4
  0
POLYLINE
  5
101
  330
E3
  100
AcDbEntity
  8
100 4W CUT3 LHP 07W BLAST 2 _R1A-R3_DXF_RINGDESIGN_100 04W CUT03 LHP 07W_SURVEYEXPORT_R4
  62
7
  100
AcDb3dPolyline
  10
0
  20
0
  30
0
  70
8
  0
VERTEX
  5
102
  330

  100
AcDbEntity
  8
100 4W CUT3 LHP 07W BLAST 2 _R1A-R3_DXF_RINGDESIGN_100 04W CUT03 LHP 07W_SURVEYEXPORT_R4
  6
BYLAYER
  62
7
  100
AcDbVertex
  100
AcDb3dPolylineVertex
  10
6915.6475496247658
  20
-23443.273520903706
  30
-1048.0535357026761
  70
32
  0
VERTEX
  5
103
  330

  100
AcDbEntity
  8
100 4W CUT3 LHP 07W BLAST 2 _R1A-R3_DXF_RINGDESIGN_100 04W CUT03 LHP 07W_SURVEYEXPORT_R4
  6
BYLAYER
  62
7
  100
AcDbVertex
  100
AcDb3dPolylineVertex
  10
6912.9504873472006
  20
-23448.210108108178
  30
-1044.688398857189
  70
32
  0
SEQEND
  5
104
  330

  100
AcDbEntity
  8
100 4W CUT3 LHP 07W BLAST 2 _R1A-R3_DXF_RINGDESIGN_100 04W CUT03 LHP 07W_SURVEYEXPORT_R4
  0
POLYLINE
  5
105
  330
E3
  100
AcDbEntity
  8
100 4W CUT3 LHP 07W BLAST 2 _R1A-R3_DXF_RINGDESIGN_100 04W CUT03 LHP 07W_SURVEYEXPORT_R4
  62
7
  100
AcDb3dPolyline
  10
0
  20
0
  30
0
  70
8
  0
VERTEX
  5
106
  330

  100
AcDbEntity
  8
100 4W CUT3 LHP 07W BLAST 2 _R1A-R3_DXF_RINGDESIGN_100 04W CUT03 LHP 07W_SURVEYEXPORT_R4
  6
BYLAYER
  62
7
  100
AcDbVertex
  100
AcDb3dPolylineVertex
  10
6915.7256726789738
  20
-23443.130527813417
  30
-1047.4860880716171
  70
32
  0
VERTEX
  5
107
  330

  100
AcDbEntity
  8
100 4W CUT3 LHP 07W BLAST 2 _R1A-R3_DXF_RINGDESIGN_100 04W CUT03 LHP 07W_SURVEYEXPORT_R4
  6
BYLAYER
  62
7
  100
AcDbVertex
  100
AcDb3dPolylineVertex
  10
6912.9480364699757
  20
-23448.214594088815
  30
-1042.2286798123348
  70
32
  0
SEQEND
  5
108
  330

  100
AcDbEntity
  8
100 4W CUT3 LHP 07W BLAST 2 _R1A-R3_DXF_RINGDESIGN_100 04W CUT03 LHP 07W_SURVEYEXPORT_R4
  0
POLYLINE
  5
109
  330
E3
  100
AcDbEntity
  8
100 4W CUT3 LHP 07W BLAST 2 _R1A-R3_DXF_RINGDESIGN_100 04W CUT03 LHP 07W_SURVEYEXPORT_R4
  62
7
  100
AcDb3dPolyline
  10
0
  20
0
  30
0
  70
8
  0
VERTEX
  5
10A
  330

  100
AcDbEntity
  8
100 4W CUT3 LHP 07W BLAST 2 _R1A-R3_DXF_RINGDESIGN_100 04W CUT03 LHP 07W_SURVEYEXPORT_R4
  6
BYLAYER
  62
7
  100
AcDbVertex
  100
AcDb3dPolylineVertex
  10
6916.0066350741909
  20
-23442.616266286455
  30
-1047.3757274732895
  70
32
  0
VERTEX
  5
10B
  330

  100
AcDbEntity
  8
100 4W CUT3 LHP 07W BLAST 2 _R1A-R3_DXF_RINGDESIGN_100 04W CUT03 LHP 07W_SURVEYEXPORT_R4
  6
BYLAYER
  62
7
  100
AcDbVertex
  100
AcDb3dPolylineVertex
  10
6912.9558121545087
  20
-23448.200361809089
  30
-1039.1905336167001
  70
32
  0
SEQEND
  5
10C
  330

  100
AcDbEntity
  8
100 4W CUT3 LHP 07W BLAST 2 _R1A-R3_DXF_RINGDESIGN_100 04W CUT03 LHP 07W_SURVEYEXPORT_R4
  0
POLYLINE
  5
10D
  330
E3
  100
AcDbEntity
  8
100 4W CUT3 LHP 07W BLAST 2 _R1A-R3_DXF_RINGDESIGN_100 04W CUT03 LHP 07W_SURVEYEXPORT_R4
  62
7
  100
AcDb3dPolyline
  10
0
  20
0
  30
0
  70
8
  0
VERTEX
  5
10E
  330

  100
AcDbEntity
  8
100 4W CUT3 LHP 07W BLAST 2 _R1A-R3_DXF_RINGDESIGN_100 04W CUT03 LHP 07W_SURVEYEXPORT_R4
  6
BYLAYER
  62
7
  100
AcDbVertex
  100
AcDb3dPolylineVertex
  10
6916.2622101164316
  20
-23442.148472682355
  30
-1047.3012770982166
  70
32
  0
VERTEX
  5
10F
  330

  100
AcDbEntity
  8
100 4W CUT3 LHP 07W BLAST 2 _R1A-R3_DXF_RINGDESIGN_100 04W CUT03 LHP 07W_SURVEYEXPORT_R4
  6
BYLAYER
  62
7
  100
AcDbVertex
  100
AcDb3dPolylineVertex
  10
6913.6186009257108
  20
-23446.987221647512
  30
-1037.4572400445854
  70
32
  0
SEQEND
  5
110
  330

  100
AcDbEntity
  8
100 4W CUT3 LHP 07W BLAST 2 _R1A-R3_DXF_RINGDESIGN_100 04W CUT03 LHP 07W_SURVEYEXPORT_R4
  0
POLYLINE
  5
111
  330
E3
  100
AcDbEntity
  8
100 4W CUT3 LHP 07W BLAST 2 _R1A-R3_DXF_RINGDESIGN_100 04W CUT03 LHP 07W_SURVEYEXPORT_R4
  62
7
  100
AcDb3dPolyline
  10
0
  20
0
  30
0
  70
8
  0
VERTEX
  5
112
  330

  100
AcDbEntity
  8
100 4W CUT3 LHP 07W BLAST 2 _R1A-R3_DXF_RINGDESIGN_100 04W CUT03 LHP 07W_SURVEYEXPORT_R4
  6
BYLAYER
  62
7
  100
AcDbVertex
  100
AcDb3dPolylineVertex
  10
6916.5007541878458
  20
-23441.711851837357
  30
-1047.2317879359241
  70
32
  0
VERTEX
  5
113
  330

  100
AcDbEntity
  8
100 4W CUT3 LHP 07W BLAST 2 _R1A-R3_DXF_RINGDESIGN_100 04W CUT03 LHP 07W_SURVEYEXPORT_R4
  6
BYLAYER
  62
7
  100
AcDbVertex
  100
AcDb3dPolylineVertex
  10
6914.7439517839866
  20
-23444.927427665847
  30
-1037.0961677718005
  70
32
  0
SEQEND
  5
114
  330

  100
AcDbEntity
  8
100 4W CUT3 LHP 07W BLAST 2 _R1A-R3_DXF_RINGDESIGN_100 04W CUT03 LHP 07W_SURVEYEXPORT_R4
  0
POLYLINE
  5
115
  330
E3
  100
AcDbEntity
  8
100 4W CUT3 LHP 07W BLAST 2 _R1A-R3_DXF_RINGDESIGN_100 04W CUT03 LHP 07W_SURVEYEXPORT_R4
  62
7
  100
AcDb3dPolyline
  10
0
  20
0
  30
0
  70
8
  0
VERTEX
  5
116
  330

  100
AcDbEntity
  8
100 4W CUT3 LHP 07W BLAST 2 _R1A-R3_DXF_RINGDESIGN_100 04W CUT03 LHP 07W_SURVEYEXPORT_R4
  6
BYLAYER
  62
7
  100
AcDbVertex
  100
AcDb3dPolylineVertex
  10
6916.6637183799794
  20
-23441.413569164255
  30
-1047.1546894799533
  70
32
  0
VERTEX
  5
117
  330

  100
AcDbEntity
  8
100 4W CUT3 LHP 07W BLAST 2 _R1A-R3_DXF_RINGDESIGN_100 04W CUT03 LHP 07W_SURVEYEXPORT_R4
  6
BYLAYER
  62
7
  100
AcDbVertex
  100
AcDb3dPolylineVertex
  10
6915.9273232418691
  20
-23442.76143526526
  30
-1036.9539259197959
  70
32
  0
SEQEND
  5
118
  330

  100
AcDbEntity
  8
100 4W CUT3 LHP 07W BLAST 2 _R1A-R3_DXF_RINGDESIGN_100 04W CUT03 LHP 07W_SURVEYEXPORT_R4
  0
POLYLINE
  5
119
  330
E3
  100
AcDbEntity
  8
100 4W CUT3 LHP 07W BLAST 2 _R1A-R3_DXF_RINGDESIGN_100 04W CUT03 LHP 07W_SURVEYEXPORT_R4
  62
7
  100
AcDb3dPolyline
  10
0
  20
0
  30
0
  70
8
  0
VERTEX
  5
11A
  330

  100
AcDbEntity
  8
100 4W CUT3 LHP 07W BLAST 2 _R1A-R3_DXF_RINGDESIGN_100 04W CUT03 LHP 07W_SURVEYEXPORT_R4
  6
BYLAYER
  62
7
  100
AcDbVertex
  100
AcDb3dPolylineVertex
  10
6916.9747849444975
  20
-23440.844206255984
  30
-1046.9284780430946
  70
32
  0
VERTEX
  5
11B
  330

  100
AcDbEntity
  8
100 4W CUT3 LHP 07W BLAST 2 _R1A-R3_DXF_RINGDESIGN_100 04W CUT03 LHP 07W_SURVEYEXPORT_R4
  6
BYLAYER
  62
7
  100
AcDbVertex
  100
AcDb3dPolylineVertex
  10
6917.02999791838
  20
-23440.743146794863
  30
-1036.3626828614176
  70
32
  0
SEQEND
  5
11C
  330

  100
AcDbEntity
  8
100 4W CUT3 LHP 07W BLAST 2 _R1A-R3_DXF_RINGDESIGN_100 04W CUT03 LHP 07W_SURVEYEXPORT_R4
  0
POLYLINE
  5
11D
  330
E3
  100
AcDbEntity
  8
100 4W CUT3 LHP 07W BLAST 2 _R1A-R3_DXF_RINGDESIGN_100 04W CUT03 LHP 07W_SURVEYEXPORT_R4
  62
7
  100
AcDb3dPolyline
  10
0
  20
0
  30
0
  70
8
  0
VERTEX
  5
11E
  330

  100
AcDbEntity
  8
100 4W CUT3 LHP 07W BLAST 2 _R1A-R3_DXF_RINGDESIGN_100 04W CUT03 LHP 07W_SURVEYEXPORT_R4
  6
BYLAYER
  62
7
  100
AcDbVertex
  100
AcDb3dPolylineVertex
  10
6917.92483220113
  20
-23439.105280473756
  30
-1046.8057999164187
  70
32
  0
VERTEX
  5
11F
  330

  100
AcDbEntity
  8
100 4W CUT3 LHP 07W BLAST 2 _R1A-R3_DXF_RINGDESIGN_100 04W CUT03 LHP 07W_SURVEYEXPORT_R4
  6
BYLAYER
  62
7
  100
AcDbVertex
  100
AcDb3dPolylineVertex
  10
6918.1405745386646
  20
-23438.710394945236
  30
-1036.0063509481874
  70
32
  0
SEQEND
  5
120
  330

  100
AcDbEntity
  8
100 4W CUT3 LHP 07W BLAST 2 _R1A-R3_DXF_RINGDESIGN_100 04W CUT03 LHP 07W_SURVEYEXPORT_R4
  0
POLYLINE
  5
121
  330
E3
  100
AcDbEntity
  8
100 4W CUT3 LHP 07W BLAST 2 _R1A-R3_DXF_RINGDESIGN_100 04W CUT03 LHP 07W_SURVEYEXPORT_R4
  62
7
  100
AcDb3dPolyline
  10
0
  20
0
  30
0
  70
8
  0
VERTEX
  5
122
  330

  100
AcDbEntity
  8
100 4W CUT3 LHP 07W BLAST 2 _R1A-R3_DXF_RINGDESIGN_100 04W CUT03 LHP 07W_SURVEYEXPORT_R4
  6
BYLAYER
  62
7
  100
AcDbVertex
  100
AcDb3dPolylineVertex
  10
6918.2055970810252
  20
-23438.591380470374
  30
-1046.799199692688
  70
32
  0
VERTEX
  5
123
  330

  100
AcDbEntity
  8
100 4W CUT3 LHP 07W BLAST 2 _R1A-R3_DXF_RINGDESIGN_100 04W CUT03 LHP 07W_SURVEYEXPORT_R4
  6
BYLAYER
  62
7
  100
AcDbVertex
  100
AcDb3dPolylineVertex
  10
6919.2924772445695
  20
-23436.602001599604
  30
-1035.6367594336934
  70
32
  0
SEQEND
  5
124
  330

  100
AcDbEntity
  8
100 4W CUT3 LHP 07W BLAST 2 _R1A-R3_DXF_RINGDESIGN_100 04W CUT03 LHP 07W_SURVEYEXPORT_R4
  0
POLYLINE
  5
125
  330
E3
  100
AcDbEntity
  8
100 4W CUT3 LHP 07W BLAST 2 _R1A-R3_DXF_RINGDESIGN_100 04W CUT03 LHP 07W_SURVEYEXPORT_R4
  62
7
  100
AcDb3dPolyline
  10
0
  20
0
  30
0
  70
8
  0
VERTEX
  5
126
  330

  100
AcDbEntity
  8
100 4W CUT3 LHP 07W BLAST 2 _R1A-R3_DXF_RINGDESIGN_100 04W CUT03 LHP 07W_SURVEYEXPORT_R4
  6
BYLAYER
  62
7
  100
AcDbVertex
  100
AcDb3dPolylineVertex
  10
6918.39279101606
  20
-23438.248748714286
  30
-1046.9379517143645
  70
32
  0
VERTEX
  5
127
  330

  100
AcDbEntity
  8
100 4W CUT3 LHP 07W BLAST 2 _R1A-R3_DXF_RINGDESIGN_100 04W CUT03 LHP 07W_SURVEYEXPORT_R4
  6
BYLAYER
  62
7
  100
AcDbVertex
  100
AcDb3dPolylineVertex
  10
6920.408174196069
  20
-23434.559877715161
  30
-1035.9747300811266
  70
32
  0
SEQEND
  5
128
  330

  100
AcDbEntity
  8
100 4W CUT3 LHP 07W BLAST 2 _R1A-R3_DXF_RINGDESIGN_100 04W CUT03 LHP 07W_SURVEYEXPORT_R4
  0
POLYLINE
  5
129
  330
E3
  100
AcDbEntity
  8
100 4W CUT3 LHP 07W BLAST 2 _R1A-R3_DXF_RINGDESIGN_100 04W CUT03 LHP 07W_SURVEYEXPORT_R4
  62
7
  100
AcDb3dPolyline
  10
0
  20
0
  30
0
  70
8
  0
VERTEX
  5
12A
  330

  100
AcDbEntity
  8
100 4W CUT3 LHP 07W BLAST 2 _R1A-R3_DXF_RINGDESIGN_100 04W CUT03 LHP 07W_SURVEYEXPORT_R4
  6
BYLAYER
  62
7
  100
AcDbVertex
  100
AcDb3dPolylineVertex
  10
6918.5275331987805
  20
-23438.0021223977
  30
-1047.0336038925502
  70
32
  0
VERTEX
  5
12B
  330

  100
AcDbEntity
  8
100 4W CUT3 LHP 07W BLAST 2 _R1A-R3_DXF_RINGDESIGN_100 04W CUT03 LHP 07W_SURVEYEXPORT_R4
  6
BYLAYER
  62
7
  100
AcDbVertex
  100
AcDb3dPolylineVertex
  10
6920.7721708054169
  20
-23433.893633921271
  30
-1037.9992375440816
  70
32
  0
SEQEND
  5
12C
  330

  100
AcDbEntity
  8
100 4W CUT3 LHP 07W BLAST 2 _R1A-R3_DXF_RINGDESIGN_100 04W CUT03 LHP 07W_SURVEYEXPORT_R4
  0
POLYLINE
  5
12D
  330
E3
  100
AcDbEntity
  8
100 4W CUT3 LHP 07W BLAST 2 _R1A-R3_DXF_RINGDESIGN_100 04W CUT03 LHP 07W_SURVEYEXPORT_R4
  62
7
  100
AcDb3dPolyline
  10
0
  20
0
  30
0
  70
8
  0
VERTEX
  5
12E
  330

  100
AcDbEntity
  8
100 4W CUT3 LHP 07W BLAST 2 _R1A-R3_DXF_RINGDESIGN_100 04W CUT03 LHP 07W_SURVEYEXPORT_R4
  6
BYLAYER
  62
7
  100
AcDbVertex
  100
AcDb3dPolylineVertex
  10
6918.5356566952487
  20
-23437.987253497911
  30
-1047.7379813012815
  70
32
  0
VERTEX
  5
12F
  330

  100
AcDbEntity
  8
100 4W CUT3 LHP 07W BLAST 2 _R1A-R3_DXF_RINGDESIGN_100 04W CUT03 LHP 07W_SURVEYEXPORT_R4
  6
BYLAYER
  62
7
  100
AcDbVertex
  100
AcDb3dPolylineVertex
  10
6920.8101001495379
  20
-23433.824209675331
  30
-1042.7404590240985
  70
32
  0
SEQEND
  5
130
  330

  100
AcDbEntity
  8
100 4W CUT3 LHP 07W BLAST 2 _R1A-R3_DXF_RINGDESIGN_100 04W CUT03 LHP 07W_SURVEYEXPORT_R4
  0
POLYLINE
  5
131
  330
E3
  100
AcDbEntity
  8
100 4W CUT3 LHP 07W BLAST 2 _R1A-R3_DXF_RINGDESIGN_100 04W CUT03 LHP 07W_SURVEYEXPORT_R4
  62
7
  100
AcDb3dPolyline
  10
0
  20
0
  30
0
  70
8
  0
VERTEX
  5
132
  330

  100
AcDbEntity
  8
100 4W CUT3 LHP 07W BLAST 2 _R1A-R3_DXF_RINGDESIGN_100 04W CUT03 LHP 07W_SURVEYEXPORT_R4
  6
BYLAYER
  62
7
  100
AcDbVertex
  100
AcDb3dPolylineVertex
  10
6918.5356566952487
  20
-23437.987253497911
  30
-1048.576083477039
  70
32
  0
VERTEX
  5
133
  330

  100
AcDbEntity
  8
100 4W CUT3 LHP 07W BLAST 2 _R1A-R3_DXF_RINGDESIGN_100 04W CUT03 LHP 07W_SURVEYEXPORT_R4
  6
BYLAYER
  62
7
  100
AcDbVertex
  100
AcDb3dPolylineVertex
  10
6920.7529156479513
  20
-23433.928877736267
  30
-1046.0203998527718
  70
32
  0
SEQEND
  5
134
  330

  100
AcDbEntity
  8
100 4W CUT3 LHP 07W BLAST 2 _R1A-R3_DXF_RINGDESIGN_100 04W CUT03 LHP 07W_SURVEYEXPORT_R4
  0
POLYLINE
  5
135
  330
E3
  100
AcDbEntity
  8
100 4W CUT3 LHP 07W BLAST 2 _R1A-R3_DXF_RINGDESIGN_100 04W CUT03 LHP 07W_SURVEYEXPORT_R4
  62
7
  100
AcDb3dPolyline
  10
0
  20
0
  30
0
  70
8
  0
VERTEX
  5
136
  330

  100
AcDbEntity
  8
100 4W CUT3 LHP 07W BLAST 2 _R1A-R3_DXF_RINGDESIGN_100 04W CUT03 LHP 07W_SURVEYEXPORT_R4
  6
BYLAYER
  62
7
  100
AcDbVertex
  100
AcDb3dPolylineVertex
  10
6918.4810470811753
  20
-23438.0872085951
  30
-1049.2082209422042
  70
32
  0
VERTEX
  5
137
  330

  100
AcDbEntity
  8
100 4W CUT3 LHP 07W BLAST 2 _R1A-R3_DXF_RINGDESIGN_100 04W CUT03 LHP 07W_SURVEYEXPORT_R4
  6
BYLAYER
  62
7
  100
AcDbVertex
  100
AcDb3dPolylineVertex
  10
6920.7120494336723
  20
-23434.003677503475
  30
-1048.3643700021873
  70
32
  0
SEQEND
  5
138
  330

  100
AcDbEntity
  8
100 4W CUT3 LHP 07W BLAST 2 _R1A-R3_DXF_RINGDESIGN_100 04W CUT03 LHP 07W_SURVEYEXPORT_R4
  0
POLYLINE
  5
139
  330
E3
  100
AcDbEntity
  8
100 4W CUT3 LHP 07W BLAST 2 _R1A-R3_DXF_RINGDESIGN_100 04W CUT03 LHP 07W_SURVEYEXPORT_R4
  62
7
  100
AcDb3dPolyline
  10
0
  20
0
  30
0
  70
8
  0
VERTEX
  5
13A
  330

  100
AcDbEntity
  8
100 4W CUT3 LHP 07W BLAST 2 _R1A-R3_DXF_RINGDESIGN_100 04W CUT03 LHP 07W_SURVEYEXPORT_R4
  6
BYLAYER
  62
7
  100
AcDbVertex
  100
AcDb3dPolylineVertex
  10
6918.4255408375511
  20
-23438.188804844591
  30
-1050.0407597101105
  70
32
  0
VERTEX
  5
13B
  330

  100
AcDbEntity
  8
100 4W CUT3 LHP 07W BLAST 2 _R1A-R3_DXF_RINGDESIGN_100 04W CUT03 LHP 07W_SURVEYEXPORT_R4
  6
BYLAYER
  62
7
  100
AcDbVertex
  100
AcDb3dPolylineVertex
  10
6920.4763695889224
  20
-23434.435055790738
  30
-1050.5186864578216
  70
32
  0
SEQEND
  5
13C
  330

  100
AcDbEntity
  8
100 4W CUT3 LHP 07W BLAST 2 _R1A-R3_DXF_RINGDESIGN_100 04W CUT03 LHP 07W_SURVEYEXPORT_R4
  0
POLYLINE
  5
13D
  330
E3
  100
AcDbEntity
  8
100 4W CUT3 LHP 07W BLAST 2 _R1A-R3_DXF_RINGDESIGN_100 04W CUT03 LHP 07W_SURVEYEXPORT_R4
  62
7
  100
AcDb3dPolyline
  10
0
  20
0
  30
0
  70
8
  0
VERTEX
  5
13E
  330

  100
AcDbEntity
  8
100 4W CUT3 LHP 07W BLAST 2 _R1A-R3_DXF_RINGDESIGN_100 04W CUT03 LHP 07W_SURVEYEXPORT_R4
  6
BYLAYER
  62
7
  100
AcDbVertex
  100
AcDb3dPolylineVertex
  10
6918.39681686681
  20
-23438.241379969608
  30
-1050.592939379251
  70
32
  0
VERTEX
  5
13F
  330

  100
AcDbEntity
  8
100 4W CUT3 LHP 07W BLAST 2 _R1A-R3_DXF_RINGDESIGN_100 04W CUT03 LHP 07W_SURVEYEXPORT_R4
  6
BYLAYER
  62
7
  100
AcDbVertex
  100
AcDb3dPolylineVertex
  10
6920.43302056995
  20
-23434.514399977248
  30
-1052.0807211562187
  70
32
  0
SEQEND
  5
140
  330

  100
AcDbEntity
  8
100 4W CUT3 LHP 07W BLAST 2 _R1A-R3_DXF_RINGDESIGN_100 04W CUT03 LHP 07W_SURVEYEXPORT_R4
  0
POLYLINE
  5
141
  330
E3
  100
AcDbEntity
  8
100 4W CUT3 LHP 07W BLAST 2 _R1A-R3_DXF_RINGDESIGN_100 04W CUT03 LHP 07W_SURVEYEXPORT_R4
  62
7
  100
AcDb3dPolyline
  10
0
  20
0
  30
0
  70
8
  0
VERTEX
  5
142
  330

  100
AcDbEntity
  8
100 4W CUT3 LHP 07W BLAST 2 _R1A-R3_DXF_RINGDESIGN_100 04W CUT03 LHP 07W_SURVEYEXPORT_R4
  6
BYLAYER
  62
7
  100
AcDbVertex
  100
AcDb3dPolylineVertex
  10
6918.3742358031386
  20
-23438.282711380794
  30
-1051.1320830478849
  70
32
  0
VERTEX
  5
143
  330

  100
AcDbEntity
  8
100 4W CUT3 LHP 07W BLAST 2 _R1A-R3_DXF_RINGDESIGN_100 04W CUT03 LHP 07W_SURVEYEXPORT_R4
  6
BYLAYER
  62
7
  100
AcDbVertex
  100
AcDb3dPolylineVertex
  10
6919.3918367456981
  20
-23436.420138227004
  30
-1052.4531846974483
  70
32
  0
SEQEND
  5
144
  330

  100
AcDbEntity
  8
100 4W CUT3 LHP 07W BLAST 2 _R1A-R3_DXF_RINGDESIGN_100 04W CUT03 LHP 07W_SURVEYEXPORT_R4
  0
LWPOLYLINE
  5
145
  330
E3
  100
AcDbEntity
  8
100 4W CUT3 LHP 07W BLAST 2 _R1A-R3_DXF_RINGDESIGN_100 04W CUT03 LHP 07W_SURVEYEXPORT
  62
7
  100
AcDbPolyline
  90
2
  43
0
  38
-1049.7916723628996
  10
6909.6517384048475
  20
-23450.076566697026
  10
6921.6380353816276
  20
-23428.137362409165
  0
LWPOLYLINE
  5
146
  330
E3
  100
AcDbEntity
  8
100 4W CUT3 LHP 07W BLAST 2 _R1A-R3_DXF_RINGDESIGN_100 04W CUT03 LHP 07W_SURVEYEXPORT
  62
1
  100
AcDbPolyline
  90
2
  43
0
  38
-1049.7916723628996
  10
6912.4424051902633
  20
-23451.601223672471
  10
6924.4287021670434
  20
-23429.66201938461
  0
POLYLINE
  5
147
  330
E3
  100
AcDbEntity
  8
100 4W CUT3 LHP 07W BLAST 2 _R1A-R3_DXF_RINGDESIGN_100 04W CUT03 LHP 07W_SURVEYEXPORT_R3
  62
7
  100
AcDb3dPolyline
  10
0
  20
0
  30
0
  70
8
  0
VERTEX
  5
148
  330

  100
AcDbEntity
  8
100 4W CUT3 LHP 07W BLAST 2 _R1A-R3_DXF_RINGDESIGN_100 04W CUT03 LHP 07W_SURVEYEXPORT_R3
  6
BYLAYER
  62
7
  100
AcDbVertex
  100
AcDb3dPolylineVertex
  10
6914.1658950542915
  20
-23441.814047829739
  30
-1050.8685086638784
  70
32
  0
VERTEX
  5
149
  330

  100
AcDbEntity
  8
100 4W CUT3 LHP 07W BLAST 2 _R1A-R3_DXF_RINGDESIGN_100 04W CUT03 LHP 07W_SURVEYEXPORT_R3
  6
BYLAYER
  62
7
  100
AcDbVertex
  100
AcDb3dPolylineVertex
  10
6912.9698945565333
  20
-23444.003155883671
  30
-1051.7594073203616
  70
32
  0
SEQEND
  5
14A
  330

  100
AcDbEntity
  8
100 4W CUT3 LHP 07W BLAST 2 _R1A-R3_DXF_RINGDESIGN_100 04W CUT03 LHP 07W_SURVEYEXPORT_R3
  0
POLYLINE
  5
14B
  330
E3
  100
AcDbEntity
  8
100 4W CUT3 LHP 07W BLAST 2 _R1A-R3_DXF_RINGDESIGN_100 04W CUT03 LHP 07W_SURVEYEXPORT_R3
  62
7
  100
AcDb3dPolyline
  10
0
  20
0
  30
0
  70
8
  0
VERTEX
  5
14C
  330

  100
AcDbEntity
  8
100 4W CUT3 LHP 07W BLAST 2 _R1A-R3_DXF_RINGDESIGN_100 04W CUT03 LHP 07W_SURVEYEXPORT_R3
  6
BYLAYER
  62
7
  100
AcDbVertex
  100
AcDb3dPolylineVertex
  10
6914.1363173642194
  20
-23441.868185566032
  30
-1050.5081370869152
  70
32
  0
VERTEX
  5
14D
  330

  100
AcDbEntity
  8
100 4W CUT3 LHP 07W BLAST 2 _R1A-R3_DXF_RINGDESIGN_100 04W CUT03 LHP 07W_SURVEYEXPORT_R3
  6
BYLAYER
  62
7
  100
AcDbVertex
  100
AcDb3dPolylineVertex
  10
6911.1504531444652
  20
-23447.33338346826
  30
-1051.9762551109911
  70
32
  0
SEQEND
  5
14E
  330

  100
AcDbEntity
  8
100 4W CUT3 LHP 07W BLAST 2 _R1A-R3_DXF_RINGDESIGN_100 04W CUT03 LHP 07W_SURVEYEXPORT_R3
  0
POLYLINE
  5
14F
  330
E3
  100
AcDbEntity
  8
100 4W CUT3 LHP 07W BLAST 2 _R1A-R3_DXF_RINGDESIGN_100 04W CUT03 LHP 07W_SURVEYEXPORT_R3
  62
7
  100
AcDb3dPolyline
  10
0
  20
0
  30
0
  70
8
  0
VERTEX
  5
150
  330

  100
AcDbEntity
  8
100 4W CUT3 LHP 07W BLAST 2 _R1A-R3_DXF_RINGDESIGN_100 04W CUT03 LHP 07W_SURVEYEXPORT_R3
  6
BYLAYER
  62
7
  100
AcDbVertex
  100
AcDb3dPolylineVertex
  10
6914.0823235900625
  20
-23441.967013456229
  30
-1049.6709986975141
  70
32
  0
VERTEX
  5
151
  330

  100
AcDbEntity
  8
100 4W CUT3 LHP 07W BLAST 2 _R1A-R3_DXF_RINGDESIGN_100 04W CUT03 LHP 07W_SURVEYEXPORT_R3
  6
BYLAYER
  62
7
  100
AcDbVertex
  100
AcDb3dPolylineVertex
  10
6911.1677811579129
  20
-23447.301667015076
  30
-1049.4825055187537
  70
32
  0
SEQEND
  5
152
  330

  100
AcDbEntity
  8
100 4W CUT3 LHP 07W BLAST 2 _R1A-R3_DXF_RINGDESIGN_100 04W CUT03 LHP 07W_SURVEYEXPORT_R3
  0
POLYLINE
  5
153
  330
E3
  100
AcDbEntity
  8
100 4W CUT3 LHP 07W BLAST 2 _R1A-R3_DXF_RINGDESIGN_100 04W CUT03 LHP 07W_SURVEYEXPORT_R3
  62
7
  100
AcDb3dPolyline
  10
0
  20
0
  30
0
  70
8
  0
VERTEX
  5
154
  330

  100
AcDbEntity
  8
100 4W CUT3 LHP 07W BLAST 2 _R1A-R3_DXF_RINGDESIGN_100 04W CUT03 LHP 07W_SURVEYEXPORT_R3
  6
BYLAYER
  62
7
  100
AcDbVertex
  100
AcDb3dPolylineVertex
  10
6914.190839240644
  20
-23441.768391060079
  30
-1048.9203337134873
  70
32
  0
VERTEX
  5
155
  330

  100
AcDbEntity
  8
100 4W CUT3 LHP 07W BLAST 2 _R1A-R3_DXF_RINGDESIGN_100 04W CUT03 LHP 07W_SURVEYEXPORT_R3
  6
BYLAYER
  62
7
  100
AcDbVertex
  100
AcDb3dPolylineVertex
  10
6911.1157971175689
  20
-23447.396816374636
  30
-1047.1333211202696
  70
32
  0
SEQEND
  5
156
  330

  100
AcDbEntity
  8
100 4W CUT3 LHP 07W BLAST 2 _R1A-R3_DXF_RINGDESIGN_100 04W CUT03 LHP 07W_SURVEYEXPORT_R3
  0
POLYLINE
  5
157
  330
E3
  100
AcDbEntity
  8
100 4W CUT3 LHP 07W BLAST 2 _R1A-R3_DXF_RINGDESIGN_100 04W CUT03 LHP 07W_SURVEYEXPORT_R3
  62
7
  100
AcDb3dPolyline
  10
0
  20
0
  30
0
  70
8
  0
VERTEX
  5
158
  330

  100
AcDbEntity
  8
100 4W CUT3 LHP 07W BLAST 2 _R1A-R3_DXF_RINGDESIGN_100 04W CUT03 LHP 07W_SURVEYEXPORT_R3
  6
BYLAYER
  62
7
  100
AcDbVertex
  100
AcDb3dPolylineVertex
  10
6914.20900607924
  20
-23441.735139257289
  30
-1048.4199232990231
  70
32
  0
VERTEX
  5
159
  330

  100
AcDbEntity
  8
100 4W CUT3 LHP 07W BLAST 2 _R1A-R3_DXF_RINGDESIGN_100 04W CUT03 LHP 07W_SURVEYEXPORT_R3
  6
BYLAYER
  62
7
  100
AcDbVertex
  100
AcDb3dPolylineVertex
  10
6911.2370932117074
  20
-23447.174801202327
  30
-1044.7118541249088
  70
32
  0
SEQEND
  5
15A
  330

  100
AcDbEntity
  8
100 4W CUT3 LHP 07W BLAST 2 _R1A-R3_DXF_RINGDESIGN_100 04W CUT03 LHP 07W_SURVEYEXPORT_R3
  0
POLYLINE
  5
15B
  330
E3
  100
AcDbEntity
  8
100 4W CUT3 LHP 07W BLAST 2 _R1A-R3_DXF_RINGDESIGN_100 04W CUT03 LHP 07W_SURVEYEXPORT_R3
  62
7
  100
AcDb3dPolyline
  10
0
  20
0
  30
0
  70
8
  0
VERTEX
  5
15C
  330

  100
AcDbEntity
  8
100 4W CUT3 LHP 07W BLAST 2 _R1A-R3_DXF_RINGDESIGN_100 04W CUT03 LHP 07W_SURVEYEXPORT_R3
  6
BYLAYER
  62
7
  100
AcDbVertex
  100
AcDb3dPolylineVertex
  10
6914.242197154952
  20
-23441.674387734784
  30
-1047.971651063162
  70
32
  0
VERTEX
  5
15D
  330

  100
AcDbEntity
  8
100 4W CUT3 LHP 07W BLAST 2 _R1A-R3_DXF_RINGDESIGN_100 04W CUT03 LHP 07W_SURVEYEXPORT_R3
  6
BYLAYER
  62
7
  100
AcDbVertex
  100
AcDb3dPolylineVertex
  10
6911.2024371848138
  20
-23447.2382341087
  30
-1042.2181045326711
  70
32
  0
SEQEND
  5
15E
  330

  100
AcDbEntity
  8
100 4W CUT3 LHP 07W BLAST 2 _R1A-R3_DXF_RINGDESIGN_100 04W CUT03 LHP 07W_SURVEYEXPORT_R3
  0
POLYLINE
  5
15F
  330
E3
  100
AcDbEntity
  8
100 4W CUT3 LHP 07W BLAST 2 _R1A-R3_DXF_RINGDESIGN_100 04W CUT03 LHP 07W_SURVEYEXPORT_R3
  62
7
  100
AcDb3dPolyline
  10
0
  20
0
  30
0
  70
8
  0
VERTEX
  5
160
  330

  100
AcDbEntity
  8
100 4W CUT3 LHP 07W BLAST 2 _R1A-R3_DXF_RINGDESIGN_100 04W CUT03 LHP 07W_SURVEYEXPORT_R3
  6
BYLAYER
  62
7
  100
AcDbVertex
  100
AcDb3dPolylineVertex
  10
6914.3632543542162
  20
-23441.452809825412
  30
-1047.6469351269623
  70
32
  0
VERTEX
  5
161
  330

  100
AcDbEntity
  8
100 4W CUT3 LHP 07W BLAST 2 _R1A-R3_DXF_RINGDESIGN_100 04W CUT03 LHP 07W_SURVEYEXPORT_R3
  6
BYLAYER
  62
7
  100
AcDbVertex
  100
AcDb3dPolylineVertex
  10
6911.2890772520532
  20
-23447.079651842763
  30
-1039.39908325449
  70
32
  0
SEQEND
  5
162
  330

  100
AcDbEntity
  8
100 4W CUT3 LHP 07W BLAST 2 _R1A-R3_DXF_RINGDESIGN_100 04W CUT03 LHP 07W_SURVEYEXPORT_R3
  0
POLYLINE
  5
163
  330
E3
  100
AcDbEntity
  8
100 4W CUT3 LHP 07W BLAST 2 _R1A-R3_DXF_RINGDESIGN_100 04W CUT03 LHP 07W_SURVEYEXPORT_R3
  62
7
  100
AcDb3dPolyline
  10
0
  20
0
  30
0
  70
8
  0
VERTEX
  5
164
  330

  100
AcDbEntity
  8
100 4W CUT3 LHP 07W BLAST 2 _R1A-R3_DXF_RINGDESIGN_100 04W CUT03 LHP 07W_SURVEYEXPORT_R3
  6
BYLAYER
  62
7
  100
AcDbVertex
  100
AcDb3dPolylineVertex
  10
6914.5347548207237
  20
-23441.138902721537
  30
-1047.3757266490222
  70
32
  0
VERTEX
  5
165
  330

  100
AcDbEntity
  8
100 4W CUT3 LHP 07W BLAST 2 _R1A-R3_DXF_RINGDESIGN_100 04W CUT03 LHP 07W_SURVEYEXPORT_R3
  6
BYLAYER
  62
7
  100
AcDbVertex
  100
AcDb3dPolylineVertex
  10
6911.8782297092939
  20
-23446.001292434423
  30
-1037.4835944372655
  70
32
  0
SEQEND
  5
166
  330

  100
AcDbEntity
  8
100 4W CUT3 LHP 07W BLAST 2 _R1A-R3_DXF_RINGDESIGN_100 04W CUT03 LHP 07W_SURVEYEXPORT_R3
  0
POLYLINE
  5
167
  330
E3
  100
AcDbEntity
  8
100 4W CUT3 LHP 07W BLAST 2 _R1A-R3_DXF_RINGDESIGN_100 04W CUT03 LHP 07W_SURVEYEXPORT_R3
  62
7
  100
AcDb3dPolyline
  10
0
  20
0
  30
0
  70
8
  0
VERTEX
  5
168
  330

  100
AcDbEntity
  8
100 4W CUT3 LHP 07W BLAST 2 _R1A-R3_DXF_RINGDESIGN_100 04W CUT03 LHP 07W_SURVEYEXPORT_R3
  6
BYLAYER
  62
7
  100
AcDbVertex
  100
AcDb3dPolylineVertex
  10
6914.7258175701891
  20
-23440.789189653318
  30
-1047.0889264097202
  70
32
  0
VERTEX
  5
169
  330

  100
AcDbEntity
  8
100 4W CUT3 LHP 07W BLAST 2 _R1A-R3_DXF_RINGDESIGN_100 04W CUT03 LHP 07W_SURVEYEXPORT_R3
  6
BYLAYER
  62
7
  100
AcDbVertex
  100
AcDb3dPolylineVertex
  10
6913.00455058343
  20
-23443.9397229773
  30
-1037.1583227513213
  70
32
  0
SEQEND
  5
16A
  330

  100
AcDbEntity
  8
100 4W CUT3 LHP 07W BLAST 2 _R1A-R3_DXF_RINGDESIGN_100 04W CUT03 LHP 07W_SURVEYEXPORT_R3
  0
POLYLINE
  5
16B
  330
E3
  100
AcDbEntity
  8
100 4W CUT3 LHP 07W BLAST 2 _R1A-R3_DXF_RINGDESIGN_100 04W CUT03 LHP 07W_SURVEYEXPORT_R3
  62
7
  100
AcDb3dPolyline
  10
0
  20
0
  30
0
  70
8
  0
VERTEX
  5
16C
  330

  100
AcDbEntity
  8
100 4W CUT3 LHP 07W BLAST 2 _R1A-R3_DXF_RINGDESIGN_100 04W CUT03 LHP 07W_SURVEYEXPORT_R3
  6
BYLAYER
  62
7
  100
AcDbVertex
  100
AcDb3dPolylineVertex
  10
6914.8882946239182
  20
-23440.49179861747
  30
-1046.8450355517609
  70
32
  0
VERTEX
  5
16D
  330

  100
AcDbEntity
  8
100 4W CUT3 LHP 07W BLAST 2 _R1A-R3_DXF_RINGDESIGN_100 04W CUT03 LHP 07W_SURVEYEXPORT_R3
  6
BYLAYER
  62
7
  100
AcDbVertex
  100
AcDb3dPolylineVertex
  10
6914.1655274844643
  20
-23441.814720613791
  30
-1036.833051065377
  70
32
  0
SEQEND
  5
16E
  330

  100
AcDbEntity
  8
100 4W CUT3 LHP 07W BLAST 2 _R1A-R3_DXF_RINGDESIGN_100 04W CUT03 LHP 07W_SURVEYEXPORT_R3
  0
POLYLINE
  5
16F
  330
E3
  100
AcDbEntity
  8
100 4W CUT3 LHP 07W BLAST 2 _R1A-R3_DXF_RINGDESIGN_100 04W CUT03 LHP 07W_SURVEYEXPORT_R3
  62
7
  100
AcDb3dPolyline
  10
0
  20
0
  30
0
  70
8
  0
VERTEX
  5
170
  330

  100
AcDbEntity
  8
100 4W CUT3 LHP 07W BLAST 2 _R1A-R3_DXF_RINGDESIGN_100 04W CUT03 LHP 07W_SURVEYEXPORT_R3
  6
BYLAYER
  62
7
  100
AcDbVertex
  100
AcDb3dPolylineVertex
  10
6915.2221106236821
  20
-23439.8807961179
  30
-1046.428708074118
  70
32
  0
VERTEX
  5
171
  330

  100
AcDbEntity
  8
100 4W CUT3 LHP 07W BLAST 2 _R1A-R3_DXF_RINGDESIGN_100 04W CUT03 LHP 07W_SURVEYEXPORT_R3
  6
BYLAYER
  62
7
  100
AcDbVertex
  100
AcDb3dPolylineVertex
  10
6915.274520345155
  20
-23439.784867609847
  30
-1036.3993554841184
  70
32
  0
SEQEND
  5
172
  330

  100
AcDbEntity
  8
100 4W CUT3 LHP 07W BLAST 2 _R1A-R3_DXF_RINGDESIGN_100 04W CUT03 LHP 07W_SURVEYEXPORT_R3
  0
POLYLINE
  5
173
  330
E3
  100
AcDbEntity
  8
100 4W CUT3 LHP 07W BLAST 2 _R1A-R3_DXF_RINGDESIGN_100 04W CUT03 LHP 07W_SURVEYEXPORT_R3
  62
7
  100
AcDb3dPolyline
  10
0
  20
0
  30
0
  70
8
  0
VERTEX
  5
174
  330

  100
AcDbEntity
  8
100 4W CUT3 LHP 07W BLAST 2 _R1A-R3_DXF_RINGDESIGN_100 04W CUT03 LHP 07W_SURVEYEXPORT_R3
  6
BYLAYER
  62
7
  100
AcDbVertex
  100
AcDb3dPolylineVertex
  10
6916.17708279171
  20
-23438.13285598893
  30
-1046.4074043159173
  70
32
  0
VERTEX
  5
175
  330

  100
AcDbEntity
  8
100 4W CUT3 LHP 07W BLAST 2 _R1A-R3_DXF_RINGDESIGN_100 04W CUT03 LHP 07W_SURVEYEXPORT_R3
  6
BYLAYER
  62
7
  100
AcDbVertex
  100
AcDb3dPolylineVertex
  10
6916.3835132058466
  20
-23437.755014605911
  30
-1036.0740837981743
  70
32
  0
SEQEND
  5
176
  330

  100
AcDbEntity
  8
100 4W CUT3 LHP 07W BLAST 2 _R1A-R3_DXF_RINGDESIGN_100 04W CUT03 LHP 07W_SURVEYEXPORT_R3
  0
POLYLINE
  5
177
  330
E3
  100
AcDbEntity
  8
100 4W CUT3 LHP 07W BLAST 2 _R1A-R3_DXF_RINGDESIGN_100 04W CUT03 LHP 07W_SURVEYEXPORT_R3
  62
7
  100
AcDb3dPolyline
  10
0
  20
0
  30
0
  70
8
  0
VERTEX
  5
178
  330

  100
AcDbEntity
  8
100 4W CUT3 LHP 07W BLAST 2 _R1A-R3_DXF_RINGDESIGN_100 04W CUT03 LHP 07W_SURVEYEXPORT_R3
  6
BYLAYER
  62
7
  100
AcDbVertex
  100
AcDb3dPolylineVertex
  10
6916.4640532685862
  20
-23437.607597526792
  30
-1046.6309754661527
  70
32
  0
VERTEX
  5
179
  330

  100
AcDbEntity
  8
100 4W CUT3 LHP 07W BLAST 2 _R1A-R3_DXF_RINGDESIGN_100 04W CUT03 LHP 07W_SURVEYEXPORT_R3
  6
BYLAYER
  62
7
  100
AcDbVertex
  100
AcDb3dPolylineVertex
  10
6917.5271620934354
  20
-23435.661728695595
  30
-1035.7126708137919
  70
32
  0
SEQEND
  5
17A
  330

  100
AcDbEntity
  8
100 4W CUT3 LHP 07W BLAST 2 _R1A-R3_DXF_RINGDESIGN_100 04W CUT03 LHP 07W_SURVEYEXPORT_R3
  0
POLYLINE
  5
17B
  330
E3
  100
AcDbEntity
  8
100 4W CUT3 LHP 07W BLAST 2 _R1A-R3_DXF_RINGDESIGN_100 04W CUT03 LHP 07W_SURVEYEXPORT_R3
  62
7
  100
AcDb3dPolyline
  10
0
  20
0
  30
0
  70
8
  0
VERTEX
  5
17C
  330

  100
AcDbEntity
  8
100 4W CUT3 LHP 07W BLAST 2 _R1A-R3_DXF_RINGDESIGN_100 04W CUT03 LHP 07W_SURVEYEXPORT_R3
  6
BYLAYER
  62
7
  100
AcDbVertex
  100
AcDb3dPolylineVertex
  10
6916.6613083009242
  20
-23437.246550369386
  30
-1046.7806547370071
  70
32
  0
VERTEX
  5
17D
  330

  100
AcDbEntity
  8
100 4W CUT3 LHP 07W BLAST 2 _R1A-R3_DXF_RINGDESIGN_100 04W CUT03 LHP 07W_SURVEYEXPORT_R3
  6
BYLAYER
  62
7
  100
AcDbVertex
  100
AcDb3dPolylineVertex
  10
6918.6361549541225
  20
-23433.631875691655
  30
-1036.0379424997363
  70
32
  0
SEQEND
  5
17E
  330

  100
AcDbEntity
  8
100 4W CUT3 LHP 07W BLAST 2 _R1A-R3_DXF_RINGDESIGN_100 04W CUT03 LHP 07W_SURVEYEXPORT_R3
  0
POLYLINE
  5
17F
  330
E3
  100
AcDbEntity
  8
100 4W CUT3 LHP 07W BLAST 2 _R1A-R3_DXF_RINGDESIGN_100 04W CUT03 LHP 07W_SURVEYEXPORT_R3
  62
7
  100
AcDb3dPolyline
  10
0
  20
0
  30
0
  70
8
  0
VERTEX
  5
180
  330

  100
AcDbEntity
  8
100 4W CUT3 LHP 07W BLAST 2 _R1A-R3_DXF_RINGDESIGN_100 04W CUT03 LHP 07W_SURVEYEXPORT_R3
  6
BYLAYER
  62
7
  100
AcDbVertex
  100
AcDb3dPolylineVertex
  10
6916.8031201313279
  20
-23436.986984072657
  30
-1046.8813201407374
  70
32
  0
VERTEX
  5
181
  330

  100
AcDbEntity
  8
100 4W CUT3 LHP 07W BLAST 2 _R1A-R3_DXF_RINGDESIGN_100 04W CUT03 LHP 07W_SURVEYEXPORT_R3
  6
BYLAYER
  62
7
  100
AcDbVertex
  100
AcDb3dPolylineVertex
  10
6919.1559953575688
  20
-23432.680382096056
  30
-1037.4113118403875
  70
32
  0
SEQEND
  5
182
  330

  100
AcDbEntity
  8
100 4W CUT3 LHP 07W BLAST 2 _R1A-R3_DXF_RINGDESIGN_100 04W CUT03 LHP 07W_SURVEYEXPORT_R3
  0
POLYLINE
  5
183
  330
E3
  100
AcDbEntity
  8
100 4W CUT3 LHP 07W BLAST 2 _R1A-R3_DXF_RINGDESIGN_100 04W CUT03 LHP 07W_SURVEYEXPORT_R3
  62
7
  100
AcDb3dPolyline
  10
0
  20
0
  30
0
  70
8
  0
VERTEX
  5
184
  330

  100
AcDbEntity
  8
100 4W CUT3 LHP 07W BLAST 2 _R1A-R3_DXF_RINGDESIGN_100 04W CUT03 LHP 07W_SURVEYEXPORT_R3
  6
BYLAYER
  62
7
  100
AcDbVertex
  100
AcDb3dPolylineVertex
  10
6916.9431765276649
  20
-23436.730630847225
  30
-1047.3519582457768
  70
32
  0
VERTEX
  5
185
  330

  100
AcDbEntity
  8
100 4W CUT3 LHP 07W BLAST 2 _R1A-R3_DXF_RINGDESIGN_100 04W CUT03 LHP 07W_SURVEYEXPORT_R3
  6
BYLAYER
  62
7
  100
AcDbVertex
  100
AcDb3dPolylineVertex
  10
6919.0000432365359
  20
-23432.965830174737
  30
-1042.8325066061209
  70
32
  0
SEQEND
  5
186
  330

  100
AcDbEntity
  8
100 4W CUT3 LHP 07W BLAST 2 _R1A-R3_DXF_RINGDESIGN_100 04W CUT03 LHP 07W_SURVEYEXPORT_R3
  0
POLYLINE
  5
187
  330
E3
  100
AcDbEntity
  8
100 4W CUT3 LHP 07W BLAST 2 _R1A-R3_DXF_RINGDESIGN_100 04W CUT03 LHP 07W_SURVEYEXPORT_R3
  62
7
  100
AcDb3dPolyline
  10
0
  20
0
  30
0
  70
8
  0
VERTEX
  5
188
  330

  100
AcDbEntity
  8
100 4W CUT3 LHP 07W BLAST 2 _R1A-R3_DXF_RINGDESIGN_100 04W CUT03 LHP 07W_SURVEYEXPORT_R3
  6
BYLAYER
  62
7
  100
AcDbVertex
  100
AcDb3dPolylineVertex
  10
6916.887664596904
  20
-23436.832237506209
  30
-1048.423958917766
  70
32
  0
VERTEX
  5
189
  330

  100
AcDbEntity
  8
100 4W CUT3 LHP 07W BLAST 2 _R1A-R3_DXF_RINGDESIGN_100 04W CUT03 LHP 07W_SURVEYEXPORT_R3
  6
BYLAYER
  62
7
  100
AcDbVertex
  100
AcDb3dPolylineVertex
  10
6918.9480591961892
  20
-23433.0609795343
  30
-1046.0490821671244
  70
32
  0
SEQEND
  5
18A
  330

  100
AcDbEntity
  8
100 4W CUT3 LHP 07W BLAST 2 _R1A-R3_DXF_RINGDESIGN_100 04W CUT03 LHP 07W_SURVEYEXPORT_R3
  0
POLYLINE
  5
18B
  330
E3
  100
AcDbEntity
  8
100 4W CUT3 LHP 07W BLAST 2 _R1A-R3_DXF_RINGDESIGN_100 04W CUT03 LHP 07W_SURVEYEXPORT_R3
  62
7
  100
AcDb3dPolyline
  10
0
  20
0
  30
0
  70
8
  0
VERTEX
  5
18C
  330

  100
AcDbEntity
  8
100 4W CUT3 LHP 07W BLAST 2 _R1A-R3_DXF_RINGDESIGN_100 04W CUT03 LHP 07W_SURVEYEXPORT_R3
  6
BYLAYER
  62
7
  100
AcDbVertex
  100
AcDb3dPolylineVertex
  10
6916.8034707853349
  20
-23436.9863422506
  30
-1049.1502580737158
  70
32
  0
VERTEX
  5
18D
  330

  100
AcDbEntity
  8
100 4W CUT3 LHP 07W BLAST 2 _R1A-R3_DXF_RINGDESIGN_100 04W CUT03 LHP 07W_SURVEYEXPORT_R3
  6
BYLAYER
  62
7
  100
AcDbVertex
  100
AcDb3dPolylineVertex
  10
6918.9827152230873
  20
-23432.997546627925
  30
-1048.3259839687314
  70
32
  0
SEQEND
  5
18E
  330

  100
AcDbEntity
  8
100 4W CUT3 LHP 07W BLAST 2 _R1A-R3_DXF_RINGDESIGN_100 04W CUT03 LHP 07W_SURVEYEXPORT_R3
  0
POLYLINE
  5
18F
  330
E3
  100
AcDbEntity
  8
100 4W CUT3 LHP 07W BLAST 2 _R1A-R3_DXF_RINGDESIGN_100 04W CUT03 LHP 07W_SURVEYEXPORT_R3
  62
7
  100
AcDb3dPolyline
  10
0
  20
0
  30
0
  70
8
  0
VERTEX
  5
190
  330

  100
AcDbEntity
  8
100 4W CUT3 LHP 07W BLAST 2 _R1A-R3_DXF_RINGDESIGN_100 04W CUT03 LHP 07W_SURVEYEXPORT_R3
  6
BYLAYER
  62
7
  100
AcDbVertex
  100
AcDb3dPolylineVertex
  10
6916.73000001416
  20
-23437.120820001408
  30
-1050.0260212228648
  70
32
  0
VERTEX
  5
191
  330

  100
AcDbEntity
  8
100 4W CUT3 LHP 07W BLAST 2 _R1A-R3_DXF_RINGDESIGN_100 04W CUT03 LHP 07W_SURVEYEXPORT_R3
  6
BYLAYER
  62
7
  100
AcDbVertex
  100
AcDb3dPolylineVertex
  10
6918.7401230348114
  20
-23433.441576972538
  30
-1050.4944618750235
  70
32
  0
SEQEND
  5
192
  330

  100
AcDbEntity
  8
100 4W CUT3 LHP 07W BLAST 2 _R1A-R3_DXF_RINGDESIGN_100 04W CUT03 LHP 07W_SURVEYEXPORT_R3
  0
POLYLINE
  5
193
  330
E3
  100
AcDbEntity
  8
100 4W CUT3 LHP 07W BLAST 2 _R1A-R3_DXF_RINGDESIGN_100 04W CUT03 LHP 07W_SURVEYEXPORT_R3
  62
7
  100
AcDb3dPolyline
  10
0
  20
0
  30
0
  70
8
  0
VERTEX
  5
194
  330

  100
AcDbEntity
  8
100 4W CUT3 LHP 07W BLAST 2 _R1A-R3_DXF_RINGDESIGN_100 04W CUT03 LHP 07W_SURVEYEXPORT_R3
  6
BYLAYER
  62
7
  100
AcDbVertex
  100
AcDb3dPolylineVertex
  10
6916.7098821919735
  20
-23437.157642800947
  30
-1050.5780039450608
  70
32
  0
VERTEX
  5
195
  330

  100
AcDbEntity
  8
100 4W CUT3 LHP 07W BLAST 2 _R1A-R3_DXF_RINGDESIGN_100 04W CUT03 LHP 07W_SURVEYEXPORT_R3
  6
BYLAYER
  62
7
  100
AcDbVertex
  100
AcDb3dPolylineVertex
  10
6918.3762347523971
  20
-23434.107622489457
  30
-1051.7955486187993
  70
32
  0
SEQEND
  5
196
  330

  100
AcDbEntity
  8
100 4W CUT3 LHP 07W BLAST 2 _R1A-R3_DXF_RINGDESIGN_100 04W CUT03 LHP 07W_SURVEYEXPORT_R3
  0
POLYLINE
  5
197
  330
E3
  100
AcDbEntity
  8
100 4W CUT3 LHP 07W BLAST 2 _R1A-R3_DXF_RINGDESIGN_100 04W CUT03 LHP 07W_SURVEYEXPORT_R3
  62
7
  100
AcDb3dPolyline
  10
0
  20
0
  30
0
  70
8
  0
VERTEX
  5
198
  330

  100
AcDbEntity
  8
100 4W CUT3 LHP 07W BLAST 2 _R1A-R3_DXF_RINGDESIGN_100 04W CUT03 LHP 07W_SURVEYEXPORT_R3
  6
BYLAYER
  62
7
  100
AcDbVertex
  100
AcDb3dPolylineVertex
  10
6916.7041235096476
  20
-23437.168183246275
  30
-1051.2138389485376
  70
32
  0
VERTEX
  5
199
  330

  100
AcDbEntity
  8
100 4W CUT3 LHP 07W BLAST 2 _R1A-R3_DXF_RINGDESIGN_100 04W CUT03 LHP 07W_SURVEYEXPORT_R3
  6
BYLAYER
  62
7
  100
AcDbVertex
  100
AcDb3dPolylineVertex
  10
6917.3192259320531
  20
-23436.042326133836
  30
-1052.0123964094298
  70
32
  0
SEQEND
  5
19A
  330

  100
AcDbEntity
  8
100 4W CUT3 LHP 07W BLAST 2 _R1A-R3_DXF_RINGDESIGN_100 04W CUT03 LHP 07W_SURVEYEXPORT_R3
  0
LWPOLYLINE
  5
19B
  330
E3
  100
AcDbEntity
  8
100 4W CUT3 LHP 07W BLAST 2 _R1A-R3_DXF_RINGDESIGN_100 04W CUT03 LHP 07W_SURVEYEXPORT
  62
7
  100
AcDbPolyline
  90
2
  43
0
  38
-1049.7916723628996
  10
6908.3966312587054
  20
-23449.390849622061
  10
6920.3829282354855
  20
-23427.4516453342
  0
LWPOLYLINE
  5
19C
  330
E3
  100
AcDbEntity
  8
100 4W CUT3 LHP 07W BLAST 2 _R1A-R3_DXF_RINGDESIGN_100 04W CUT03 LHP 07W_SURVEYEXPORT
  62
1
  100
AcDbPolyline
  90
2
  43
0
  38
-1049.7916723628996
  10
6911.1872980441212
  20
-23450.915506597506
  10
6923.1735950209013
  20
-23428.976302309646
  0
POLYLINE
  5
19D
  330
E3
  100
AcDbEntity
  8
100 4W CUT3 LHP 07W BLAST 2 _R1A-R3_DXF_RINGDESIGN_100 04W CUT03 LHP 07W_SURVEYEXPORT_R2
  62
7
  100
AcDb3dPolyline
  10
0
  20
0
  30
0
  70
8
  0
VERTEX
  5
19E
  330

  100
AcDbEntity
  8
100 4W CUT3 LHP 07W BLAST 2 _R1A-R3_DXF_RINGDESIGN_100 04W CUT03 LHP 07W_SURVEYEXPORT_R2
  6
BYLAYER
  62
7
  100
AcDbVertex
  100
AcDb3dPolylineVertex
  10
6913.1071335974948
  20
-23440.768948019806
  30
-1050.7502446767892
  70
32
  0
VERTEX
  5
19F
  330

  100
AcDbEntity
  8
100 4W CUT3 LHP 07W BLAST 2 _R1A-R3_DXF_RINGDESIGN_100 04W CUT03 LHP 07W_SURVEYEXPORT_R2
  6
BYLAYER
  62
7
  100
AcDbVertex
  100
AcDb3dPolylineVertex
  10
6911.8627777858828
  20
-23443.046563567845
  30
-1051.7794437770024
  70
32
  0
SEQEND
  5
1A0
  330

  100
AcDbEntity
  8
100 4W CUT3 LHP 07W BLAST 2 _R1A-R3_DXF_RINGDESIGN_100 04W CUT03 LHP 07W_SURVEYEXPORT_R2
  0
POLYLINE
  5
1A1
  330
E3
  100
AcDbEntity
  8
100 4W CUT3 LHP 07W BLAST 2 _R1A-R3_DXF_RINGDESIGN_100 04W CUT03 LHP 07W_SURVEYEXPORT_R2
  62
7
  100
AcDb3dPolyline
  10
0
  20
0
  30
0
  70
8
  0
VERTEX
  5
1A2
  330

  100
AcDbEntity
  8
100 4W CUT3 LHP 07W BLAST 2 _R1A-R3_DXF_RINGDESIGN_100 04W CUT03 LHP 07W_SURVEYEXPORT_R2
  6
BYLAYER
  62
7
  100
AcDbVertex
  100
AcDb3dPolylineVertex
  10
6913.0721985513446
  20
-23440.832891631064
  30
-1050.2665519751072
  70
32
  0
VERTEX
  5
1A3
  330

  100
AcDbEntity
  8
100 4W CUT3 LHP 07W BLAST 2 _R1A-R3_DXF_RINGDESIGN_100 04W CUT03 LHP 07W_SURVEYEXPORT_R2
  6
BYLAYER
  62
7
  100
AcDbVertex
  100
AcDb3dPolylineVertex
  10
6910.0730250368542
  20
-23446.322450295978
  30
-1051.8213676831908
  70
32
  0
SEQEND
  5
1A4
  330

  100
AcDbEntity
  8
100 4W CUT3 LHP 07W BLAST 2 _R1A-R3_DXF_RINGDESIGN_100 04W CUT03 LHP 07W_SURVEYEXPORT_R2
  0
POLYLINE
  5
1A5
  330
E3
  100
AcDbEntity
  8
100 4W CUT3 LHP 07W BLAST 2 _R1A-R3_DXF_RINGDESIGN_100 04W CUT03 LHP 07W_SURVEYEXPORT_R2
  62
7
  100
AcDb3dPolyline
  10
0
  20
0
  30
0
  70
8
  0
VERTEX
  5
1A6
  330

  100
AcDbEntity
  8
100 4W CUT3 LHP 07W BLAST 2 _R1A-R3_DXF_RINGDESIGN_100 04W CUT03 LHP 07W_SURVEYEXPORT_R2
  6
BYLAYER
  62
7
  100
AcDbVertex
  100
AcDb3dPolylineVertex
  10
6913.0326894095861
  20
-23440.905207470889
  30
-1049.5581909666505
  70
32
  0
VERTEX
  5
1A7
  330

  100
AcDbEntity
  8
100 4W CUT3 LHP 07W BLAST 2 _R1A-R3_DXF_RINGDESIGN_100 04W CUT03 LHP 07W_SURVEYEXPORT_R2
  6
BYLAYER
  62
7
  100
AcDbVertex
  100
AcDb3dPolylineVertex
  10
6910.0231203581261
  20
-23446.413793681149
  30
-1049.2712376653894
  70
32
  0
SEQEND
  5
1A8
  330

  100
AcDbEntity
  8
100 4W CUT3 LHP 07W BLAST 2 _R1A-R3_DXF_RINGDESIGN_100 04W CUT03 LHP 07W_SURVEYEXPORT_R2
  0
POLYLINE
  5
1A9
  330
E3
  100
AcDbEntity
  8
100 4W CUT3 LHP 07W BLAST 2 _R1A-R3_DXF_RINGDESIGN_100 04W CUT03 LHP 07W_SURVEYEXPORT_R2
  62
7
  100
AcDb3dPolyline
  10
0
  20
0
  30
0
  70
8
  0
VERTEX
  5
1AA
  330

  100
AcDbEntity
  8
100 4W CUT3 LHP 07W BLAST 2 _R1A-R3_DXF_RINGDESIGN_100 04W CUT03 LHP 07W_SURVEYEXPORT_R2
  6
BYLAYER
  62
7
  100
AcDbVertex
  100
AcDb3dPolylineVertex
  10
6912.9909387050848
  20
-23440.981626171091
  30
-1048.7971632825045
  70
32
  0
VERTEX
  5
1AB
  330

  100
AcDbEntity
  8
100 4W CUT3 LHP 07W BLAST 2 _R1A-R3_DXF_RINGDESIGN_100 04W CUT03 LHP 07W_SURVEYEXPORT_R2
  6
BYLAYER
  62
7
  100
AcDbVertex
  100
AcDb3dPolylineVertex
  10
6909.9482633400294
  20
-23446.550808758915
  30
-1046.8251945870904
  70
32
  0
SEQEND
  5
1AC
  330

  100
AcDbEntity
  8
100 4W CUT3 LHP 07W BLAST 2 _R1A-R3_DXF_RINGDESIGN_100 04W CUT03 LHP 07W_SURVEYEXPORT_R2
  0
POLYLINE
  5
1AD
  330
E3
  100
AcDbEntity
  8
100 4W CUT3 LHP 07W BLAST 2 _R1A-R3_DXF_RINGDESIGN_100 04W CUT03 LHP 07W_SURVEYEXPORT_R2
  62
7
  100
AcDb3dPolyline
  10
0
  20
0
  30
0
  70
8
  0
VERTEX
  5
1AE
  330

  100
AcDbEntity
  8
100 4W CUT3 LHP 07W BLAST 2 _R1A-R3_DXF_RINGDESIGN_100 04W CUT03 LHP 07W_SURVEYEXPORT_R2
  6
BYLAYER
  62
7
  100
AcDbVertex
  100
AcDb3dPolylineVertex
  10
6912.9909683083315
  20
-23440.981571986576
  30
-1048.046771986126
  70
32
  0
VERTEX
  5
1AF
  330

  100
AcDbEntity
  8
100 4W CUT3 LHP 07W BLAST 2 _R1A-R3_DXF_RINGDESIGN_100 04W CUT03 LHP 07W_SURVEYEXPORT_R2
  6
BYLAYER
  62
7
  100
AcDbVertex
  100
AcDb3dPolylineVertex
  10
6909.8983586612958
  20
-23446.642152144097
  30
-1044.1189341600366
  70
32
  0
SEQEND
  5
1B0
  330

  100
AcDbEntity
  8
100 4W CUT3 LHP 07W BLAST 2 _R1A-R3_DXF_RINGDESIGN_100 04W CUT03 LHP 07W_SURVEYEXPORT_R2
  0
POLYLINE
  5
1B1
  330
E3
  100
AcDbEntity
  8
100 4W CUT3 LHP 07W BLAST 2 _R1A-R3_DXF_RINGDESIGN_100 04W CUT03 LHP 07W_SURVEYEXPORT_R2
  62
7
  100
AcDb3dPolyline
  10
0
  20
0
  30
0
  70
8
  0
VERTEX
  5
1B2
  330

  100
AcDbEntity
  8
100 4W CUT3 LHP 07W BLAST 2 _R1A-R3_DXF_RINGDESIGN_100 04W CUT03 LHP 07W_SURVEYEXPORT_R2
  6
BYLAYER
  62
7
  100
AcDbVertex
  100
AcDb3dPolylineVertex
  10
6912.99099951813
  20
-23440.9815148615
  30
-1047.2556573715144
  70
32
  0
VERTEX
  5
1B3
  330

  100
AcDbEntity
  8
100 4W CUT3 LHP 07W BLAST 2 _R1A-R3_DXF_RINGDESIGN_100 04W CUT03 LHP 07W_SURVEYEXPORT_R2
  6
BYLAYER
  62
7
  100
AcDbVertex
  100
AcDb3dPolylineVertex
  10
6909.9981680187566
  20
-23446.459465373748
  30
-1041.4126737329818
  70
32
  0
SEQEND
  5
1B4
  330

  100
AcDbEntity
  8
100 4W CUT3 LHP 07W BLAST 2 _R1A-R3_DXF_RINGDESIGN_100 04W CUT03 LHP 07W_SURVEYEXPORT_R2
  0
POLYLINE
  5
1B5
  330
E3
  100
AcDbEntity
  8
100 4W CUT3 LHP 07W BLAST 2 _R1A-R3_DXF_RINGDESIGN_100 04W CUT03 LHP 07W_SURVEYEXPORT_R2
  62
7
  100
AcDb3dPolyline
  10
0
  20
0
  30
0
  70
8
  0
VERTEX
  5
1B6
  330

  100
AcDbEntity
  8
100 4W CUT3 LHP 07W BLAST 2 _R1A-R3_DXF_RINGDESIGN_100 04W CUT03 LHP 07W_SURVEYEXPORT_R2
  6
BYLAYER
  62
7
  100
AcDbVertex
  100
AcDb3dPolylineVertex
  10
6913.2686830607126
  20
-23440.473254805882
  30
-1046.7909793090773
  70
32
  0
VERTEX
  5
1B7
  330

  100
AcDbEntity
  8
100 4W CUT3 LHP 07W BLAST 2 _R1A-R3_DXF_RINGDESIGN_100 04W CUT03 LHP 07W_SURVEYEXPORT_R2
  6
BYLAYER
  62
7
  100
AcDbVertex
  100
AcDb3dPolylineVertex
  10
6910.27264375178
  20
-23445.957076755269
  30
-1038.4461959571745
  70
32
  0
SEQEND
  5
1B8
  330

  100
AcDbEntity
  8
100 4W CUT3 LHP 07W BLAST 2 _R1A-R3_DXF_RINGDESIGN_100 04W CUT03 LHP 07W_SURVEYEXPORT_R2
  0
POLYLINE
  5
1B9
  330
E3
  100
AcDbEntity
  8
100 4W CUT3 LHP 07W BLAST 2 _R1A-R3_DXF_RINGDESIGN_100 04W CUT03 LHP 07W_SURVEYEXPORT_R2
  62
7
  100
AcDb3dPolyline
  10
0
  20
0
  30
0
  70
8
  0
VERTEX
  5
1BA
  330

  100
AcDbEntity
  8
100 4W CUT3 LHP 07W BLAST 2 _R1A-R3_DXF_RINGDESIGN_100 04W CUT03 LHP 07W_SURVEYEXPORT_R2
  6
BYLAYER
  62
7
  100
AcDbVertex
  100
AcDb3dPolylineVertex
  10
6913.5873925614724
  20
-23439.889902594667
  30
-1046.5795340973928
  70
32
  0
VERTEX
  5
1BB
  330

  100
AcDbEntity
  8
100 4W CUT3 LHP 07W BLAST 2 _R1A-R3_DXF_RINGDESIGN_100 04W CUT03 LHP 07W_SURVEYEXPORT_R2
  6
BYLAYER
  62
7
  100
AcDbVertex
  100
AcDb3dPolylineVertex
  10
6911.2956896657643
  20
-23444.084537359133
  30
-1037.4053265621535
  70
32
  0
SEQEND
  5
1BC
  330

  100
AcDbEntity
  8
100 4W CUT3 LHP 07W BLAST 2 _R1A-R3_DXF_RINGDESIGN_100 04W CUT03 LHP 07W_SURVEYEXPORT_R2
  0
POLYLINE
  5
1BD
  330
E3
  100
AcDbEntity
  8
100 4W CUT3 LHP 07W BLAST 2 _R1A-R3_DXF_RINGDESIGN_100 04W CUT03 LHP 07W_SURVEYEXPORT_R2
  62
7
  100
AcDb3dPolyline
  10
0
  20
0
  30
0
  70
8
  0
VERTEX
  5
1BE
  330

  100
AcDbEntity
  8
100 4W CUT3 LHP 07W BLAST 2 _R1A-R3_DXF_RINGDESIGN_100 04W CUT03 LHP 07W_SURVEYEXPORT_R2
  6
BYLAYER
  62
7
  100
AcDbVertex
  100
AcDb3dPolylineVertex
  10
6913.806986736191
  20
-23439.487966828441
  30
-1046.2863225588367
  70
32
  0
VERTEX
  5
1BF
  330

  100
AcDbEntity
  8
100 4W CUT3 LHP 07W BLAST 2 _R1A-R3_DXF_RINGDESIGN_100 04W CUT03 LHP 07W_SURVEYEXPORT_R2
  6
BYLAYER
  62
7
  100
AcDbVertex
  100
AcDb3dPolylineVertex
  10
6912.4185449372135
  20
-23442.029311192644
  30
-1036.9889788041448
  70
32
  0
SEQEND
  5
1C0
  330

  100
AcDbEntity
  8
100 4W CUT3 LHP 07W BLAST 2 _R1A-R3_DXF_RINGDESIGN_100 04W CUT03 LHP 07W_SURVEYEXPORT_R2
  0
POLYLINE
  5
1C1
  330
E3
  100
AcDbEntity
  8
100 4W CUT3 LHP 07W BLAST 2 _R1A-R3_DXF_RINGDESIGN_100 04W CUT03 LHP 07W_SURVEYEXPORT_R2
  62
7
  100
AcDb3dPolyline
  10
0
  20
0
  30
0
  70
8
  0
VERTEX
  5
1C2
  330

  100
AcDbEntity
  8
100 4W CUT3 LHP 07W BLAST 2 _R1A-R3_DXF_RINGDESIGN_100 04W CUT03 LHP 07W_SURVEYEXPORT_R2
  6
BYLAYER
  62
7
  100
AcDbVertex
  100
AcDb3dPolylineVertex
  10
6914.2017014409976
  20
-23438.765497949109
  30
-1046.0975522360898
  70
32
  0
VERTEX
  5
1C3
  330

  100
AcDbEntity
  8
100 4W CUT3 LHP 07W BLAST 2 _R1A-R3_DXF_RINGDESIGN_100 04W CUT03 LHP 07W_SURVEYEXPORT_R2
  6
BYLAYER
  62
7
  100
AcDbVertex
  100
AcDb3dPolylineVertex
  10
6913.979914468995
  20
-23439.171447317505
  30
-1036.2731401530787
  70
32
  0
SEQEND
  5
1C4
  330

  100
AcDbEntity
  8
100 4W CUT3 LHP 07W BLAST 2 _R1A-R3_DXF_RINGDESIGN_100 04W CUT03 LHP 07W_SURVEYEXPORT_R2
  0
POLYLINE
  5
1C5
  330
E3
  100
AcDbEntity
  8
100 4W CUT3 LHP 07W BLAST 2 _R1A-R3_DXF_RINGDESIGN_100 04W CUT03 LHP 07W_SURVEYEXPORT_R2
  62
7
  100
AcDb3dPolyline
  10
0
  20
0
  30
0
  70
8
  0
VERTEX
  5
1C6
  330

  100
AcDbEntity
  8
100 4W CUT3 LHP 07W BLAST 2 _R1A-R3_DXF_RINGDESIGN_100 04W CUT03 LHP 07W_SURVEYEXPORT_R2
  6
BYLAYER
  62
7
  100
AcDbVertex
  100
AcDb3dPolylineVertex
  10
6915.06628454428
  20
-23437.18300209042
  30
-1046.3486264052917
  70
32
  0
VERTEX
  5
1C7
  330

  100
AcDbEntity
  8
100 4W CUT3 LHP 07W BLAST 2 _R1A-R3_DXF_RINGDESIGN_100 04W CUT03 LHP 07W_SURVEYEXPORT_R2
  6
BYLAYER
  62
7
  100
AcDbVertex
  100
AcDb3dPolylineVertex
  10
6915.07735532072
  20
-23437.162738615687
  30
-1035.9117271686964
  70
32
  0
SEQEND
  5
1C8
  330

  100
AcDbEntity
  8
100 4W CUT3 LHP 07W BLAST 2 _R1A-R3_DXF_RINGDESIGN_100 04W CUT03 LHP 07W_SURVEYEXPORT_R2
  0
POLYLINE
  5
1C9
  330
E3
  100
AcDbEntity
  8
100 4W CUT3 LHP 07W BLAST 2 _R1A-R3_DXF_RINGDESIGN_100 04W CUT03 LHP 07W_SURVEYEXPORT_R2
  62
7
  100
AcDb3dPolyline
  10
0
  20
0
  30
0
  70
8
  0
VERTEX
  5
1CA
  330

  100
AcDbEntity
  8
100 4W CUT3 LHP 07W BLAST 2 _R1A-R3_DXF_RINGDESIGN_100 04W CUT03 LHP 07W_SURVEYEXPORT_R2
  6
BYLAYER
  62
7
  100
AcDbVertex
  100
AcDb3dPolylineVertex
  10
6915.3197371943052
  20
-23436.719093222073
  30
-1046.5592906148013
  70
32
  0
VERTEX
  5
1CB
  330

  100
AcDbEntity
  8
100 4W CUT3 LHP 07W BLAST 2 _R1A-R3_DXF_RINGDESIGN_100 04W CUT03 LHP 07W_SURVEYEXPORT_R2
  6
BYLAYER
  62
7
  100
AcDbVertex
  100
AcDb3dPolylineVertex
  10
6916.20922115916
  20
-23435.091019893545
  30
-1035.7568014693913
  70
32
  0
SEQEND
  5
1CC
  330

  100
AcDbEntity
  8
100 4W CUT3 LHP 07W BLAST 2 _R1A-R3_DXF_RINGDESIGN_100 04W CUT03 LHP 07W_SURVEYEXPORT_R2
  0
POLYLINE
  5
1CD
  330
E3
  100
AcDbEntity
  8
100 4W CUT3 LHP 07W BLAST 2 _R1A-R3_DXF_RINGDESIGN_100 04W CUT03 LHP 07W_SURVEYEXPORT_R2
  62
7
  100
AcDb3dPolyline
  10
0
  20
0
  30
0
  70
8
  0
VERTEX
  5
1CE
  330

  100
AcDbEntity
  8
100 4W CUT3 LHP 07W BLAST 2 _R1A-R3_DXF_RINGDESIGN_100 04W CUT03 LHP 07W_SURVEYEXPORT_R2
  6
BYLAYER
  62
7
  100
AcDbVertex
  100
AcDb3dPolylineVertex
  10
6915.4635718688023
  20
-23436.455824398217
  30
-1046.6788427994013
  70
32
  0
VERTEX
  5
1CF
  330

  100
AcDbEntity
  8
100 4W CUT3 LHP 07W BLAST 2 _R1A-R3_DXF_RINGDESIGN_100 04W CUT03 LHP 07W_SURVEYEXPORT_R2
  6
BYLAYER
  62
7
  100
AcDbVertex
  100
AcDb3dPolylineVertex
  10
6917.2777819884714
  20
-23433.135171947037
  30
-1036.1784499511691
  70
32
  0
SEQEND
  5
1D0
  330

  100
AcDbEntity
  8
100 4W CUT3 LHP 07W BLAST 2 _R1A-R3_DXF_RINGDESIGN_100 04W CUT03 LHP 07W_SURVEYEXPORT_R2
  0
POLYLINE
  5
1D1
  330
E3
  100
AcDbEntity
  8
100 4W CUT3 LHP 07W BLAST 2 _R1A-R3_DXF_RINGDESIGN_100 04W CUT03 LHP 07W_SURVEYEXPORT_R2
  62
7
  100
AcDb3dPolyline
  10
0
  20
0
  30
0
  70
8
  0
VERTEX
  5
1D2
  330

  100
AcDbEntity
  8
100 4W CUT3 LHP 07W BLAST 2 _R1A-R3_DXF_RINGDESIGN_100 04W CUT03 LHP 07W_SURVEYEXPORT_R2
  6
BYLAYER
  62
7
  100
AcDbVertex
  100
AcDb3dPolylineVertex
  10
6915.691971566901
  20
-23436.037771379371
  30
-1046.859018524048
  70
32
  0
VERTEX
  5
1D3
  330

  100
AcDbEntity
  8
100 4W CUT3 LHP 07W BLAST 2 _R1A-R3_DXF_RINGDESIGN_100 04W CUT03 LHP 07W_SURVEYEXPORT_R2
  6
BYLAYER
  62
7
  100
AcDbVertex
  100
AcDb3dPolylineVertex
  10
6917.8698224479513
  20
-23432.051526463161
  30
-1038.3770456061618
  70
32
  0
SEQEND
  5
1D4
  330

  100
AcDbEntity
  8
100 4W CUT3 LHP 07W BLAST 2 _R1A-R3_DXF_RINGDESIGN_100 04W CUT03 LHP 07W_SURVEYEXPORT_R2
  0
POLYLINE
  5
1D5
  330
E3
  100
AcDbEntity
  8
100 4W CUT3 LHP 07W BLAST 2 _R1A-R3_DXF_RINGDESIGN_100 04W CUT03 LHP 07W_SURVEYEXPORT_R2
  62
7
  100
AcDb3dPolyline
  10
0
  20
0
  30
0
  70
8
  0
VERTEX
  5
1D6
  330

  100
AcDbEntity
  8
100 4W CUT3 LHP 07W BLAST 2 _R1A-R3_DXF_RINGDESIGN_100 04W CUT03 LHP 07W_SURVEYEXPORT_R2
  6
BYLAYER
  62
7
  100
AcDbVertex
  100
AcDb3dPolylineVertex
  10
6915.8043856602908
  20
-23435.83201344058
  30
-1047.0755583826763
  70
32
  0
VERTEX
  5
1D7
  330

  100
AcDbEntity
  8
100 4W CUT3 LHP 07W BLAST 2 _R1A-R3_DXF_RINGDESIGN_100 04W CUT03 LHP 07W_SURVEYEXPORT_R2
  6
BYLAYER
  62
7
  100
AcDbVertex
  100
AcDb3dPolylineVertex
  10
6917.73986234709
  20
-23432.289399862064
  30
-1043.3765918901156
  70
32
  0
SEQEND
  5
1D8
  330

  100
AcDbEntity
  8
100 4W CUT3 LHP 07W BLAST 2 _R1A-R3_DXF_RINGDESIGN_100 04W CUT03 LHP 07W_SURVEYEXPORT_R2
  0
POLYLINE
  5
1D9
  330
E3
  100
AcDbEntity
  8
100 4W CUT3 LHP 07W BLAST 2 _R1A-R3_DXF_RINGDESIGN_100 04W CUT03 LHP 07W_SURVEYEXPORT_R2
  62
7
  100
AcDb3dPolyline
  10
0
  20
0
  30
0
  70
8
  0
VERTEX
  5
1DA
  330

  100
AcDbEntity
  8
100 4W CUT3 LHP 07W BLAST 2 _R1A-R3_DXF_RINGDESIGN_100 04W CUT03 LHP 07W_SURVEYEXPORT_R2
  6
BYLAYER
  62
7
  100
AcDbVertex
  100
AcDb3dPolylineVertex
  10
6915.6923784256987
  20
-23436.037026682465
  30
-1048.5055529660087
  70
32
  0
VERTEX
  5
1DB
  330

  100
AcDbEntity
  8
100 4W CUT3 LHP 07W BLAST 2 _R1A-R3_DXF_RINGDESIGN_100 04W CUT03 LHP 07W_SURVEYEXPORT_R2
  6
BYLAYER
  62
7
  100
AcDbVertex
  100
AcDb3dPolylineVertex
  10
6917.6243422574362
  20
-23432.500842883303
  30
-1046.6594264982548
  70
32
  0
SEQEND
  5
1DC
  330

  100
AcDbEntity
  8
100 4W CUT3 LHP 07W BLAST 2 _R1A-R3_DXF_RINGDESIGN_100 04W CUT03 LHP 07W_SURVEYEXPORT_R2
  0
POLYLINE
  5
1DD
  330
E3
  100
AcDbEntity
  8
100 4W CUT3 LHP 07W BLAST 2 _R1A-R3_DXF_RINGDESIGN_100 04W CUT03 LHP 07W_SURVEYEXPORT_R2
  62
7
  100
AcDb3dPolyline
  10
0
  20
0
  30
0
  70
8
  0
VERTEX
  5
1DE
  330

  100
AcDbEntity
  8
100 4W CUT3 LHP 07W BLAST 2 _R1A-R3_DXF_RINGDESIGN_100 04W CUT03 LHP 07W_SURVEYEXPORT_R2
  6
BYLAYER
  62
7
  100
AcDbVertex
  100
AcDb3dPolylineVertex
  10
6915.6516006173888
  20
-23436.111664635177
  30
-1049.4442434977223
  70
32
  0
VERTEX
  5
1DF
  330

  100
AcDbEntity
  8
100 4W CUT3 LHP 07W BLAST 2 _R1A-R3_DXF_RINGDESIGN_100 04W CUT03 LHP 07W_SURVEYEXPORT_R2
  6
BYLAYER
  62
7
  100
AcDbVertex
  100
AcDb3dPolylineVertex
  10
6917.6532222798505
  20
-23432.447982127993
  30
-1049.0086108967382
  70
32
  0
SEQEND
  5
1E0
  330

  100
AcDbEntity
  8
100 4W CUT3 LHP 07W BLAST 2 _R1A-R3_DXF_RINGDESIGN_100 04W CUT03 LHP 07W_SURVEYEXPORT_R2
  0
POLYLINE
  5
1E1
  330
E3
  100
AcDbEntity
  8
100 4W CUT3 LHP 07W BLAST 2 _R1A-R3_DXF_RINGDESIGN_100 04W CUT03 LHP 07W_SURVEYEXPORT_R2
  62
7
  100
AcDb3dPolyline
  10
0
  20
0
  30
0
  70
8
  0
VERTEX
  5
1E2
  330

  100
AcDbEntity
  8
100 4W CUT3 LHP 07W BLAST 2 _R1A-R3_DXF_RINGDESIGN_100 04W CUT03 LHP 07W_SURVEYEXPORT_R2
  6
BYLAYER
  62
7
  100
AcDbVertex
  100
AcDb3dPolylineVertex
  10
6915.6142839401591
  20
-23436.179967481894
  30
-1050.4116717916284
  70
32
  0
VERTEX
  5
1E3
  330

  100
AcDbEntity
  8
100 4W CUT3 LHP 07W BLAST 2 _R1A-R3_DXF_RINGDESIGN_100 04W CUT03 LHP 07W_SURVEYEXPORT_R2
  6
BYLAYER
  62
7
  100
AcDbVertex
  100
AcDb3dPolylineVertex
  10
6917.4510621229538
  20
-23432.818007415171
  30
-1051.6589727822075
  70
32
  0
SEQEND
  5
1E4
  330

  100
AcDbEntity
  8
100 4W CUT3 LHP 07W BLAST 2 _R1A-R3_DXF_RINGDESIGN_100 04W CUT03 LHP 07W_SURVEYEXPORT_R2
  0
POLYLINE
  5
1E5
  330
E3
  100
AcDbEntity
  8
100 4W CUT3 LHP 07W BLAST 2 _R1A-R3_DXF_RINGDESIGN_100 04W CUT03 LHP 07W_SURVEYEXPORT_R2
  62
7
  100
AcDb3dPolyline
  10
0
  20
0
  30
0
  70
8
  0
VERTEX
  5
1E6
  330

  100
AcDbEntity
  8
100 4W CUT3 LHP 07W BLAST 2 _R1A-R3_DXF_RINGDESIGN_100 04W CUT03 LHP 07W_SURVEYEXPORT_R2
  6
BYLAYER
  62
7
  100
AcDbVertex
  100
AcDb3dPolylineVertex
  10
6915.5899367837146
  20
-23436.2245314736
  30
-1050.9003764760866
  70
32
  0
VERTEX
  5
1E7
  330

  100
AcDbEntity
  8
100 4W CUT3 LHP 07W BLAST 2 _R1A-R3_DXF_RINGDESIGN_100 04W CUT03 LHP 07W_SURVEYEXPORT_R2
  6
BYLAYER
  62
7
  100
AcDbVertex
  100
AcDb3dPolylineVertex
  10
6916.3825012936431
  20
-23434.773855361676
  30
-1051.8095615257009
  70
32
  0
SEQEND
  5
1E8
  330

  100
AcDbEntity
  8
100 4W CUT3 LHP 07W BLAST 2 _R1A-R3_DXF_RINGDESIGN_100 04W CUT03 LHP 07W_SURVEYEXPORT_R2
  0
LWPOLYLINE
  5
1E9
  330
E3
  100
AcDbEntity
  8
100 4W CUT3 LHP 07W BLAST 2 _R1A-R3_DXF_RINGDESIGN_100 04W CUT03 LHP 07W_SURVEYEXPORT
  62
7
  100
AcDbPolyline
  90
2
  43
0
  38
-1049.7916723628996
  10
6911.18807625384
  20
-23450.510021543108
  10
6917.6325989451561
  20
-23426.354936627482
  0
LWPOLYLINE
  5
1EA
  330
E3
  100
AcDbEntity
  8
100 4W CUT3 LHP 07W BLAST 2 _R1A-R3_DXF_RINGDESIGN_100 04W CUT03 LHP 07W_SURVEYEXPORT
  62
1
  100
AcDbPolyline
  90
2
  43
0
  38
-1049.7916723628996
  10
6914.2606030551078
  20
-23451.329764829443
  10
6920.7051257464236
  20
-23427.174679913816
  0
POLYLINE
  5
1EB
  330
E3
  100
AcDbEntity
  8
100 4W CUT3 LHP 07W BLAST 2 _R1A-R3_DXF_RINGDESIGN_100 04W CUT03 LHP 07W_SURVEYEXPORT_R1
  62
7
  100
AcDb3dPolyline
  10
0
  20
0
  30
0
  70
8
  0
VERTEX
  5
1EC
  330

  100
AcDbEntity
  8
100 4W CUT3 LHP 07W BLAST 2 _R1A-R3_DXF_RINGDESIGN_100 04W CUT03 LHP 07W_SURVEYEXPORT_R1
  6
BYLAYER
  62
7
  100
AcDbVertex
  100
AcDb3dPolylineVertex
  10
6914.9013316651726
  20
-23436.592156082716
  30
-1046.4747254516226
  70
32
  0
VERTEX
  5
1ED
  330

  100
AcDbEntity
  8
100 4W CUT3 LHP 07W BLAST 2 _R1A-R3_DXF_RINGDESIGN_100 04W CUT03 LHP 07W_SURVEYEXPORT_R1
  6
BYLAYER
  62
7
  100
AcDbVertex
  100
AcDb3dPolylineVertex
  10
6915.19965529342
  20
-23435.473992191026
  30
-1035.7367229702591
  70
32
  0
SEQEND
  5
1EE
  330

  100
AcDbEntity
  8
100 4W CUT3 LHP 07W BLAST 2 _R1A-R3_DXF_RINGDESIGN_100 04W CUT03 LHP 07W_SURVEYEXPORT_R1
  0
POLYLINE
  5
1EF
  330
E3
  100
AcDbEntity
  8
100 4W CUT3 LHP 07W BLAST 2 _R1A-R3_DXF_RINGDESIGN_100 04W CUT03 LHP 07W_SURVEYEXPORT_R1
  62
7
  100
AcDb3dPolyline
  10
0
  20
0
  30
0
  70
8
  0
VERTEX
  5
1F0
  330

  100
AcDbEntity
  8
100 4W CUT3 LHP 07W BLAST 2 _R1A-R3_DXF_RINGDESIGN_100 04W CUT03 LHP 07W_SURVEYEXPORT_R1
  6
BYLAYER
  62
7
  100
AcDbVertex
  100
AcDb3dPolylineVertex
  10
6915.0283224880377
  20
-23436.116174500097
  30
-1046.6520782500688
  70
32
  0
VERTEX
  5
1F1
  330

  100
AcDbEntity
  8
100 4W CUT3 LHP 07W BLAST 2 _R1A-R3_DXF_RINGDESIGN_100 04W CUT03 LHP 07W_SURVEYEXPORT_R1
  6
BYLAYER
  62
7
  100
AcDbVertex
  100
AcDb3dPolylineVertex
  10
6915.8078181067685
  20
-23433.194502288879
  30
-1035.962606085498
  70
32
  0
SEQEND
  5
1F2
  330

  100
AcDbEntity
  8
100 4W CUT3 LHP 07W BLAST 2 _R1A-R3_DXF_RINGDESIGN_100 04W CUT03 LHP 07W_SURVEYEXPORT_R1
  0
POLYLINE
  5
1F3
  330
E3
  100
AcDbEntity
  8
100 4W CUT3 LHP 07W BLAST 2 _R1A-R3_DXF_RINGDESIGN_100 04W CUT03 LHP 07W_SURVEYEXPORT_R1
  62
7
  100
AcDb3dPolyline
  10
0
  20
0
  30
0
  70
8
  0
VERTEX
  5
1F4
  330

  100
AcDbEntity
  8
100 4W CUT3 LHP 07W BLAST 2 _R1A-R3_DXF_RINGDESIGN_100 04W CUT03 LHP 07W_SURVEYEXPORT_R1
  6
BYLAYER
  62
7
  100
AcDbVertex
  100
AcDb3dPolylineVertex
  10
6915.1189230005684
  20
-23435.776589525638
  30
-1046.7786090817854
  70
32
  0
VERTEX
  5
1F5
  330

  100
AcDbEntity
  8
100 4W CUT3 LHP 07W BLAST 2 _R1A-R3_DXF_RINGDESIGN_100 04W CUT03 LHP 07W_SURVEYEXPORT_R1
  6
BYLAYER
  62
7
  100
AcDbVertex
  100
AcDb3dPolylineVertex
  10
6916.2348260395465
  20
-23431.594009378863
  30
-1036.5398629355532
  70
32
  0
SEQEND
  5
1F6
  330

  100
AcDbEntity
  8
100 4W CUT3 LHP 07W BLAST 2 _R1A-R3_DXF_RINGDESIGN_100 04W CUT03 LHP 07W_SURVEYEXPORT_R1
  0
POLYLINE
  5
1F7
  330
E3
  100
AcDbEntity
  8
100 4W CUT3 LHP 07W BLAST 2 _R1A-R3_DXF_RINGDESIGN_100 04W CUT03 LHP 07W_SURVEYEXPORT_R1
  62
7
  100
AcDb3dPolyline
  10
0
  20
0
  30
0
  70
8
  0
VERTEX
  5
1F8
  330

  100
AcDbEntity
  8
100 4W CUT3 LHP 07W BLAST 2 _R1A-R3_DXF_RINGDESIGN_100 04W CUT03 LHP 07W_SURVEYEXPORT_R1
  6
BYLAYER
  62
7
  100
AcDbVertex
  100
AcDb3dPolylineVertex
  10
6915.2193360269066
  20
-23435.400225705685
  30
-1046.9096028705064
  70
32
  0
VERTEX
  5
1F9
  330

  100
AcDbEntity
  8
100 4W CUT3 LHP 07W BLAST 2 _R1A-R3_DXF_RINGDESIGN_100 04W CUT03 LHP 07W_SURVEYEXPORT_R1
  6
BYLAYER
  62
7
  100
AcDbVertex
  100
AcDb3dPolylineVertex
  10
6916.2801147596892
  20
-23431.424260130832
  30
-1040.5304646381046
  70
32
  0
SEQEND
  5
1FA
  330

  100
AcDbEntity
  8
100 4W CUT3 LHP 07W BLAST 2 _R1A-R3_DXF_RINGDESIGN_100 04W CUT03 LHP 07W_SURVEYEXPORT_R1
  0
POLYLINE
  5
1FB
  330
E3
  100
AcDbEntity
  8
100 4W CUT3 LHP 07W BLAST 2 _R1A-R3_DXF_RINGDESIGN_100 04W CUT03 LHP 07W_SURVEYEXPORT_R1
  62
7
  100
AcDb3dPolyline
  10
0
  20
0
  30
0
  70
8
  0
VERTEX
  5
1FC
  330

  100
AcDbEntity
  8
100 4W CUT3 LHP 07W BLAST 2 _R1A-R3_DXF_RINGDESIGN_100 04W CUT03 LHP 07W_SURVEYEXPORT_R1
  6
BYLAYER
  62
7
  100
AcDbVertex
  100
AcDb3dPolylineVertex
  10
6915.1901156862059
  20
-23435.509748139651
  30
-1047.7845675413753
  70
32
  0
VERTEX
  5
1FD
  330

  100
AcDbEntity
  8
100 4W CUT3 LHP 07W BLAST 2 _R1A-R3_DXF_RINGDESIGN_100 04W CUT03 LHP 07W_SURVEYEXPORT_R1
  6
BYLAYER
  62
7
  100
AcDbVertex
  100
AcDb3dPolylineVertex
  10
6916.2154165880565
  20
-23431.666759056596
  30
-1045.123421314629
  70
32
  0
SEQEND
  5
1FE
  330

  100
AcDbEntity
  8
100 4W CUT3 LHP 07W BLAST 2 _R1A-R3_DXF_RINGDESIGN_100 04W CUT03 LHP 07W_SURVEYEXPORT_R1
  0
POLYLINE
  5
1FF
  330
E3
  100
AcDbEntity
  8
100 4W CUT3 LHP 07W BLAST 2 _R1A-R3_DXF_RINGDESIGN_100 04W CUT03 LHP 07W_SURVEYEXPORT_R1
  62
7
  100
AcDb3dPolyline
  10
0
  20
0
  30
0
  70
8
  0
VERTEX
  5
200
  330

  100
AcDbEntity
  8
100 4W CUT3 LHP 07W BLAST 2 _R1A-R3_DXF_RINGDESIGN_100 04W CUT03 LHP 07W_SURVEYEXPORT_R1
  6
BYLAYER
  62
7
  100
AcDbVertex
  100
AcDb3dPolylineVertex
  10
6915.1725407628837
  20
-23435.575621717191
  30
-1048.8058103228857
  70
32
  0
VERTEX
  5
201
  330

  100
AcDbEntity
  8
100 4W CUT3 LHP 07W BLAST 2 _R1A-R3_DXF_RINGDESIGN_100 04W CUT03 LHP 07W_SURVEYEXPORT_R1
  6
BYLAYER
  62
7
  100
AcDbVertex
  100
AcDb3dPolylineVertex
  10
6916.1701278679129
  20
-23431.836508304623
  30
-1047.4826449626808
  70
32
  0
SEQEND
  5
202
  330

  100
AcDbEntity
  8
100 4W CUT3 LHP 07W BLAST 2 _R1A-R3_DXF_RINGDESIGN_100 04W CUT03 LHP 07W_SURVEYEXPORT_R1
  0
POLYLINE
  5
203
  330
E3
  100
AcDbEntity
  8
100 4W CUT3 LHP 07W BLAST 2 _R1A-R3_DXF_RINGDESIGN_100 04W CUT03 LHP 07W_SURVEYEXPORT_R1
  62
7
  100
AcDb3dPolyline
  10
0
  20
0
  30
0
  70
8
  0
VERTEX
  5
204
  330

  100
AcDbEntity
  8
100 4W CUT3 LHP 07W BLAST 2 _R1A-R3_DXF_RINGDESIGN_100 04W CUT03 LHP 07W_SURVEYEXPORT_R1
  6
BYLAYER
  62
7
  100
AcDbVertex
  100
AcDb3dPolylineVertex
  10
6915.1564099566367
  20
-23435.636082516747
  30
-1049.8095515347582
  70
32
  0
VERTEX
  5
205
  330

  100
AcDbEntity
  8
100 4W CUT3 LHP 07W BLAST 2 _R1A-R3_DXF_RINGDESIGN_100 04W CUT03 LHP 07W_SURVEYEXPORT_R1
  6
BYLAYER
  62
7
  100
AcDbVertex
  100
AcDb3dPolylineVertex
  10
6916.1571882335875
  20
-23431.885008089776
  30
-1049.766574238984
  70
32
  0
SEQEND
  5
206
  330

  100
AcDbEntity
  8
100 4W CUT3 LHP 07W BLAST 2 _R1A-R3_DXF_RINGDESIGN_100 04W CUT03 LHP 07W_SURVEYEXPORT_R1
  0
POLYLINE
  5
207
  330
E3
  100
AcDbEntity
  8
100 4W CUT3 LHP 07W BLAST 2 _R1A-R3_DXF_RINGDESIGN_100 04W CUT03 LHP 07W_SURVEYEXPORT_R1
  62
7
  100
AcDb3dPolyline
  10
0
  20
0
  30
0
  70
8
  0
VERTEX
  5
208
  330

  100
AcDbEntity
  8
100 4W CUT3 LHP 07W BLAST 2 _R1A-R3_DXF_RINGDESIGN_100 04W CUT03 LHP 07W_SURVEYEXPORT_R1
  6
BYLAYER
  62
7
  100
AcDbVertex
  100
AcDb3dPolylineVertex
  10
6915.1482179413415
  20
-23435.666787478862
  30
-1050.3193005971675
  70
32
  0
VERTEX
  5
209
  330

  100
AcDbEntity
  8
100 4W CUT3 LHP 07W BLAST 2 _R1A-R3_DXF_RINGDESIGN_100 04W CUT03 LHP 07W_SURVEYEXPORT_R1
  6
BYLAYER
  62
7
  100
AcDbVertex
  100
AcDb3dPolylineVertex
  10
6916.1067236597146
  20
-23432.074157251867
  30
-1051.2574027995609
  70
32
  0
SEQEND
  5
20A
  330

  100
AcDbEntity
  8
100 4W CUT3 LHP 07W BLAST 2 _R1A-R3_DXF_RINGDESIGN_100 04W CUT03 LHP 07W_SURVEYEXPORT_R1
  0
POLYLINE
  5
20B
  330
E3
  100
AcDbEntity
  8
100 4W CUT3 LHP 07W BLAST 2 _R1A-R3_DXF_RINGDESIGN_100 04W CUT03 LHP 07W_SURVEYEXPORT_R1
  62
7
  100
AcDb3dPolyline
  10
0
  20
0
  30
0
  70
8
  0
VERTEX
  5
20C
  330

  100
AcDbEntity
  8
100 4W CUT3 LHP 07W BLAST 2 _R1A-R3_DXF_RINGDESIGN_100 04W CUT03 LHP 07W_SURVEYEXPORT_R1
  6
BYLAYER
  62
7
  100
AcDbVertex
  100
AcDb3dPolylineVertex
  10
6915.116133413866
  20
-23435.787045335455
  30
-1050.9889070782231
  70
32
  0
VERTEX
  5
20D
  330

  100
AcDbEntity
  8
100 4W CUT3 LHP 07W BLAST 2 _R1A-R3_DXF_RINGDESIGN_100 04W CUT03 LHP 07W_SURVEYEXPORT_R1
  6
BYLAYER
  62
7
  100
AcDbVertex
  100
AcDb3dPolylineVertex
  10
6915.5322038956119
  20
-23434.227547712617
  30
-1051.6790512813404
  70
32
  0
SEQEND
  5
20E
  330

  100
AcDbEntity
  8
100 4W CUT3 LHP 07W BLAST 2 _R1A-R3_DXF_RINGDESIGN_100 04W CUT03 LHP 07W_SURVEYEXPORT_R1
  0
LWPOLYLINE
  5
20F
  330
E3
  100
AcDbEntity
  8
100 4W CUT3 LHP 07W BLAST 2 _R1A-R3_DXF_RINGDESIGN_100 04W CUT03 LHP 07W_SURVEYEXPORT
  62
7
  100
AcDbPolyline
  90
2
  43
0
  38
-1049.7916723628996
  10
6905.5331647341054
  20
-23446.989688143112
  10
6924.2240279425123
  20
-23430.386928356718
  0
LWPOLYLINE
  5
210
  330
E3
  100
AcDbEntity
  8
100 4W CUT3 LHP 07W BLAST 2 _R1A-R3_DXF_RINGDESIGN_100 04W CUT03 LHP 07W_SURVEYEXPORT
  62
1
  100
AcDbPolyline
  90
2
  43
0
  38
-1049.7916723628996
  10
6907.6450357789345
  20
-23449.367165943222
  10
6926.3358989873414
  20
-23432.764406156828
  0
POLYLINE
  5
211
  330
E3
  100
AcDbEntity
  8
100 4W CUT3 LHP 07W BLAST 2 _R1A-R3_DXF_RINGDESIGN_100 04W CUT03 LHP 07W_SURVEYEXPORT_R1A
  62
7
  100
AcDb3dPolyline
  10
0
  20
0
  30
0
  70
8
  0
VERTEX
  5
212
  330

  100
AcDbEntity
  8
100 4W CUT3 LHP 07W BLAST 2 _R1A-R3_DXF_RINGDESIGN_100 04W CUT03 LHP 07W_SURVEYEXPORT_R1A
  6
BYLAYER
  62
7
  100
AcDbVertex
  100
AcDb3dPolylineVertex
  10
6912.7967494294962
  20
-23440.537575656865
  30
-1050.6372975915979
  70
32
  0
VERTEX
  5
213
  330

  100
AcDbEntity
  8
100 4W CUT3 LHP 07W BLAST 2 _R1A-R3_DXF_RINGDESIGN_100 04W CUT03 LHP 07W_SURVEYEXPORT_R1A
  6
BYLAYER
  62
7
  100
AcDbVertex
  100
AcDb3dPolylineVertex
  10
6910.7697959386524
  20
-23442.338082221566
  30
-1051.5147670183778
  70
32
  0
SEQEND
  5
214
  330

  100
AcDbEntity
  8
100 4W CUT3 LHP 07W BLAST 2 _R1A-R3_DXF_RINGDESIGN_100 04W CUT03 LHP 07W_SURVEYEXPORT_R1A
  0
POLYLINE
  5
215
  330
E3
  100
AcDbEntity
  8
100 4W CUT3 LHP 07W BLAST 2 _R1A-R3_DXF_RINGDESIGN_100 04W CUT03 LHP 07W_SURVEYEXPORT_R1A
  62
7
  100
AcDb3dPolyline
  10
0
  20
0
  30
0
  70
8
  0
VERTEX
  5
216
  330

  100
AcDbEntity
  8
100 4W CUT3 LHP 07W BLAST 2 _R1A-R3_DXF_RINGDESIGN_100 04W CUT03 LHP 07W_SURVEYEXPORT_R1A
  6
BYLAYER
  62
7
  100
AcDbVertex
  100
AcDb3dPolylineVertex
  10
6912.7509269907177
  20
-23440.578278910391
  30
-1050.1444897403042
  70
32
  0
VERTEX
  5
217
  330

  100
AcDbEntity
  8
100 4W CUT3 LHP 07W BLAST 2 _R1A-R3_DXF_RINGDESIGN_100 04W CUT03 LHP 07W_SURVEYEXPORT_R1A
  6
BYLAYER
  62
7
  100
AcDbVertex
  100
AcDb3dPolylineVertex
  10
6907.8457043597655
  20
-23444.935500518215
  30
-1050.9626082922382
  70
32
  0
SEQEND
  5
218
  330

  100
AcDbEntity
  8
100 4W CUT3 LHP 07W BLAST 2 _R1A-R3_DXF_RINGDESIGN_100 04W CUT03 LHP 07W_SURVEYEXPORT_R1A
  0
POLYLINE
  5
219
  330
E3
  100
AcDbEntity
  8
100 4W CUT3 LHP 07W BLAST 2 _R1A-R3_DXF_RINGDESIGN_100 04W CUT03 LHP 07W_SURVEYEXPORT_R1A
  62
7
  100
AcDb3dPolyline
  10
0
  20
0
  30
0
  70
8
  0
VERTEX
  5
21A
  330

  100
AcDbEntity
  8
100 4W CUT3 LHP 07W BLAST 2 _R1A-R3_DXF_RINGDESIGN_100 04W CUT03 LHP 07W_SURVEYEXPORT_R1A
  6
BYLAYER
  62
7
  100
AcDbVertex
  100
AcDb3dPolylineVertex
  10
6912.647432578613
  20
-23440.670211147237
  30
-1049.42076123551
  70
32
  0
VERTEX
  5
21B
  330

  100
AcDbEntity
  8
100 4W CUT3 LHP 07W BLAST 2 _R1A-R3_DXF_RINGDESIGN_100 04W CUT03 LHP 07W_SURVEYEXPORT_R1A
  6
BYLAYER
  62
7
  100
AcDbVertex
  100
AcDb3dPolylineVertex
  10
6907.70810005017
  20
-23445.057731967463
  30
-1048.684953546913
  70
32
  0
SEQEND
  5
21C
  330

  100
AcDbEntity
  8
100 4W CUT3 LHP 07W BLAST 2 _R1A-R3_DXF_RINGDESIGN_100 04W CUT03 LHP 07W_SURVEYEXPORT_R1A
  0
POLYLINE
  5
21D
  330
E3
  100
AcDbEntity
  8
100 4W CUT3 LHP 07W BLAST 2 _R1A-R3_DXF_RINGDESIGN_100 04W CUT03 LHP 07W_SURVEYEXPORT_R1A
  62
7
  100
AcDb3dPolyline
  10
0
  20
0
  30
0
  70
8
  0
VERTEX
  5
21E
  330

  100
AcDbEntity
  8
100 4W CUT3 LHP 07W BLAST 2 _R1A-R3_DXF_RINGDESIGN_100 04W CUT03 LHP 07W_SURVEYEXPORT_R1A
  6
BYLAYER
  62
7
  100
AcDbVertex
  100
AcDb3dPolylineVertex
  10
6912.6458201987334
  20
-23440.671643395475
  30
-1048.8101341593442
  70
32
  0
VERTEX
  5
21F
  330

  100
AcDbEntity
  8
100 4W CUT3 LHP 07W BLAST 2 _R1A-R3_DXF_RINGDESIGN_100 04W CUT03 LHP 07W_SURVEYEXPORT_R1A
  6
BYLAYER
  62
7
  100
AcDbVertex
  100
AcDb3dPolylineVertex
  10
6907.6908995114718
  20
-23445.073010898624
  30
-1046.3842921879987
  70
32
  0
SEQEND
  5
220
  330

  100
AcDbEntity
  8
100 4W CUT3 LHP 07W BLAST 2 _R1A-R3_DXF_RINGDESIGN_100 04W CUT03 LHP 07W_SURVEYEXPORT_R1A
  0
POLYLINE
  5
221
  330
E3
  100
AcDbEntity
  8
100 4W CUT3 LHP 07W BLAST 2 _R1A-R3_DXF_RINGDESIGN_100 04W CUT03 LHP 07W_SURVEYEXPORT_R1A
  62
7
  100
AcDb3dPolyline
  10
0
  20
0
  30
0
  70
8
  0
VERTEX
  5
222
  330

  100
AcDbEntity
  8
100 4W CUT3 LHP 07W BLAST 2 _R1A-R3_DXF_RINGDESIGN_100 04W CUT03 LHP 07W_SURVEYEXPORT_R1A
  6
BYLAYER
  62
7
  100
AcDbVertex
  100
AcDb3dPolylineVertex
  10
6912.6452116968567
  20
-23440.672183916813
  30
-1048.5796873989805
  70
32
  0
VERTEX
  5
223
  330

  100
AcDbEntity
  8
100 4W CUT3 LHP 07W BLAST 2 _R1A-R3_DXF_RINGDESIGN_100 04W CUT03 LHP 07W_SURVEYEXPORT_R1A
  6
BYLAYER
  62
7
  100
AcDbVertex
  100
AcDb3dPolylineVertex
  10
6907.725300588867
  20
-23445.042453036309
  30
-1044.037617601906
  70
32
  0
SEQEND
  5
224
  330

  100
AcDbEntity
  8
100 4W CUT3 LHP 07W BLAST 2 _R1A-R3_DXF_RINGDESIGN_100 04W CUT03 LHP 07W_SURVEYEXPORT_R1A
  0
POLYLINE
  5
225
  330
E3
  100
AcDbEntity
  8
100 4W CUT3 LHP 07W BLAST 2 _R1A-R3_DXF_RINGDESIGN_100 04W CUT03 LHP 07W_SURVEYEXPORT_R1A
  62
7
  100
AcDb3dPolyline
  10
0
  20
0
  30
0
  70
8
  0
VERTEX
  5
226
  330

  100
AcDbEntity
  8
100 4W CUT3 LHP 07W BLAST 2 _R1A-R3_DXF_RINGDESIGN_100 04W CUT03 LHP 07W_SURVEYEXPORT_R1A
  6
BYLAYER
  62
7
  100
AcDbVertex
  100
AcDb3dPolylineVertex
  10
6912.633317683345
  20
-23440.682749156476
  30
-1048.1036137451033
  70
32
  0
VERTEX
  5
227
  330

  100
AcDbEntity
  8
100 4W CUT3 LHP 07W BLAST 2 _R1A-R3_DXF_RINGDESIGN_100 04W CUT03 LHP 07W_SURVEYEXPORT_R1A
  6
BYLAYER
  62
7
  100
AcDbVertex
  100
AcDb3dPolylineVertex
  10
6907.6736989727724
  20
-23445.088289829779
  30
-1041.8059760837587
  70
32
  0
SEQEND
  5
228
  330

  100
AcDbEntity
  8
100 4W CUT3 LHP 07W BLAST 2 _R1A-R3_DXF_RINGDESIGN_100 04W CUT03 LHP 07W_SURVEYEXPORT_R1A
  0
POLYLINE
  5
229
  330
E3
  100
AcDbEntity
  8
100 4W CUT3 LHP 07W BLAST 2 _R1A-R3_DXF_RINGDESIGN_100 04W CUT03 LHP 07W_SURVEYEXPORT_R1A
  62
7
  100
AcDb3dPolyline
  10
0
  20
0
  30
0
  70
8
  0
VERTEX
  5
22A
  330

  100
AcDbEntity
  8
100 4W CUT3 LHP 07W BLAST 2 _R1A-R3_DXF_RINGDESIGN_100 04W CUT03 LHP 07W_SURVEYEXPORT_R1A
  6
BYLAYER
  62
7
  100
AcDbVertex
  100
AcDb3dPolylineVertex
  10
6912.6175297220834
  20
-23440.696773320342
  30
-1047.6744003051419
  70
32
  0
VERTEX
  5
22B
  330

  100
AcDbEntity
  8
100 4W CUT3 LHP 07W BLAST 2 _R1A-R3_DXF_RINGDESIGN_100 04W CUT03 LHP 07W_SURVEYEXPORT_R1A
  6
BYLAYER
  62
7
  100
AcDbVertex
  100
AcDb3dPolylineVertex
  10
6907.6908995114718
  20
-23445.073010898624
  30
-1038.3779906589759
  70
32
  0
SEQEND
  5
22C
  330

  100
AcDbEntity
  8
100 4W CUT3 LHP 07W BLAST 2 _R1A-R3_DXF_RINGDESIGN_100 04W CUT03 LHP 07W_SURVEYEXPORT_R1A
  0
POLYLINE
  5
22D
  330
E3
  100
AcDbEntity
  8
100 4W CUT3 LHP 07W BLAST 2 _R1A-R3_DXF_RINGDESIGN_100 04W CUT03 LHP 07W_SURVEYEXPORT_R1A
  62
7
  100
AcDb3dPolyline
  10
0
  20
0
  30
0
  70
8
  0
VERTEX
  5
22E
  330

  100
AcDbEntity
  8
100 4W CUT3 LHP 07W BLAST 2 _R1A-R3_DXF_RINGDESIGN_100 04W CUT03 LHP 07W_SURVEYEXPORT_R1A
  6
BYLAYER
  62
7
  100
AcDbVertex
  100
AcDb3dPolylineVertex
  10
6912.7125392969365
  20
-23440.612378012796
  30
-1046.8580211523661
  70
32
  0
VERTEX
  5
22F
  330

  100
AcDbEntity
  8
100 4W CUT3 LHP 07W BLAST 2 _R1A-R3_DXF_RINGDESIGN_100 04W CUT03 LHP 07W_SURVEYEXPORT_R1A
  6
BYLAYER
  62
7
  100
AcDbVertex
  100
AcDb3dPolylineVertex
  10
6909.359351765308
  20
-23443.590954576419
  30
-1037.5957657969452
  70
32
  0
SEQEND
  5
230
  330

  100
AcDbEntity
  8
100 4W CUT3 LHP 07W BLAST 2 _R1A-R3_DXF_RINGDESIGN_100 04W CUT03 LHP 07W_SURVEYEXPORT_R1A
  0
POLYLINE
  5
231
  330
E3
  100
AcDbEntity
  8
100 4W CUT3 LHP 07W BLAST 2 _R1A-R3_DXF_RINGDESIGN_100 04W CUT03 LHP 07W_SURVEYEXPORT_R1A
  62
7
  100
AcDb3dPolyline
  10
0
  20
0
  30
0
  70
8
  0
VERTEX
  5
232
  330

  100
AcDbEntity
  8
100 4W CUT3 LHP 07W BLAST 2 _R1A-R3_DXF_RINGDESIGN_100 04W CUT03 LHP 07W_SURVEYEXPORT_R1A
  6
BYLAYER
  62
7
  100
AcDbVertex
  100
AcDb3dPolylineVertex
  10
6913.1225727711881
  20
-23440.248152604832
  30
-1046.7123100541555
  70
32
  0
VERTEX
  5
233
  330

  100
AcDbEntity
  8
100 4W CUT3 LHP 07W BLAST 2 _R1A-R3_DXF_RINGDESIGN_100 04W CUT03 LHP 07W_SURVEYEXPORT_R1A
  6
BYLAYER
  62
7
  100
AcDbVertex
  100
AcDb3dPolylineVertex
  10
6911.0450045578436
  20
-23442.093619323055
  30
-1036.9515806164493
  70
32
  0
SEQEND
  5
234
  330

  100
AcDbEntity
  8
100 4W CUT3 LHP 07W BLAST 2 _R1A-R3_DXF_RINGDESIGN_100 04W CUT03 LHP 07W_SURVEYEXPORT_R1A
  0
POLYLINE
  5
235
  330
E3
  100
AcDbEntity
  8
100 4W CUT3 LHP 07W BLAST 2 _R1A-R3_DXF_RINGDESIGN_100 04W CUT03 LHP 07W_SURVEYEXPORT_R1A
  62
7
  100
AcDb3dPolyline
  10
0
  20
0
  30
0
  70
8
  0
VERTEX
  5
236
  330

  100
AcDbEntity
  8
100 4W CUT3 LHP 07W BLAST 2 _R1A-R3_DXF_RINGDESIGN_100 04W CUT03 LHP 07W_SURVEYEXPORT_R1A
  6
BYLAYER
  62
7
  100
AcDbVertex
  100
AcDb3dPolylineVertex
  10
6913.5291570023192
  20
-23439.88699109789
  30
-1046.5795283095197
  70
32
  0
VERTEX
  5
237
  330

  100
AcDbEntity
  8
100 4W CUT3 LHP 07W BLAST 2 _R1A-R3_DXF_RINGDESIGN_100 04W CUT03 LHP 07W_SURVEYEXPORT_R1A
  6
BYLAYER
  62
7
  100
AcDbVertex
  100
AcDb3dPolylineVertex
  10
6912.7822589664747
  20
-23440.550447276226
  30
-1036.67550125338
  70
32
  0
SEQEND
  5
238
  330

  100
AcDbEntity
  8
100 4W CUT3 LHP 07W BLAST 2 _R1A-R3_DXF_RINGDESIGN_100 04W CUT03 LHP 07W_SURVEYEXPORT_R1A
  0
VIEWPORT
  5
239
  330
E4
  100
AcDbEntity
  67
1
  8
0
  100
AcDbViewport
  10
105.029
  20
148.463
  40
24.97
  41
312.78718378906251
  68
1
  69
1
  12
105.029
  22
148.463
  13
0
  23
0
  14
1
  24
1
  15
1
  25
1
  16
0
  26
0
  36
1
  17
0
  27
0
  37
0
  42
50
  43
0
  44
0
  45
312.78718378906251
  50
0
  51
0
  72
1000
  90
32800
  1

  281
0
  71
1
  74
0
  110
0
  120
0
  130
0
  111
1
  121
0
  131
0
  112
0
  122
1
  132
0
  79
0
  146
0
  0
ENDSEC
  0
SECTION
  2
OBJECTS
  0
DICTIONARY
  5
23A
  330
0
  100
AcDbDictionary
  281
1
  3
ACAD_GROUP
  350
23B
  3
ACAD_LAYOUT
  350
23C
  3
ACAD_MLINESTYLE
  350
23D
  3
ACAD_PLOTSETTINGS
  350
23E
  3
ACAD_PLOTSTYLENAME
  350
23F
  3
VECTORDRAW_OBJECTS
  350
240
  3
DWGPROPS
  350
241
  0
DICTIONARY
  5
D7
  330
D6
  100
AcDbDictionary
  280
1
  281
1
  3
ACAD_LAYERFILTERS
  360
242
  3
ACAD_LAYERSTATES
  360
243
  3
ACLYDICTIONARY
  360
244
  0
DICTIONARY
  5
242
  102
{ACAD_REACTORS
  330
D7
  102
}
  330
D7
  100
AcDbDictionary
  281
1
  0
DICTIONARY
  5
243
  102
{ACAD_REACTORS
  330
D7
  102
}
  330
D7
  100
AcDbDictionary
  281
1
  0
DICTIONARY
  5
244
  102
{ACAD_REACTORS
  330
D7
  102
}
  330
D7
  100
AcDbDictionary
  281
1
  1001
ACAD
  1000
<All
  0
DICTIONARY
  5
23B
  102
{ACAD_REACTORS
  330
23A
  102
}
  330
23A
  100
AcDbDictionary
  281
1
  0
DICTIONARY
  5
23C
  102
{ACAD_REACTORS
  330
23A
  102
}
  330
23A
  100
AcDbDictionary
  281
1
  3
Layout1
  350
D1
  3
Model
  350
1
  0
DICTIONARY
  5
23D
  102
{ACAD_REACTORS
  330
23A
  102
}
  330
23A
  100
AcDbDictionary
  281
1
  3
Standard
  350
63
  0
DICTIONARY
  5
23E
  102
{ACAD_REACTORS
  330
23A
  102
}
  330
23A
  100
AcDbDictionary
  281
1
  0
ACDBDICTIONARYWDFLT
  5
23F
  102
{ACAD_REACTORS
  330
23A
  102
}
  330
23A
  100
AcDbDictionary
  281
1
  3
Normal
  350
D5
  100
AcDbDictionaryWithDefault
  340
D5
  0
DICTIONARY
  5
240
  102
{ACAD_REACTORS
  330
23A
  102
}
  330
23A
  100
AcDbDictionary
  281
1
  3
SERIALNO
  350
245
  0
LAYOUT
  5
D1
  102
{ACAD_REACTORS
  330
23C
  102
}
  330
23C
  100
AcDbPlotSettings
  1

  2

  4

  6

  40
0
  41
0
  42
0
  43
0
  44
210.058
  45
296.926
  46
0
  47
0
  48
0
  49
0
  140
210.058
  141
296.926
  142
1
  143
1
  70
688
  72
1
  73
0
  74
4
  75
16
  147
1
  148
0
  149
0
  100
AcDbLayout
  1
Layout1
  70
0
  71
1
  10
0
  20
0
  11
12
  21
9
  12
0
  22
0
  32
0
  14
0
  24
0
  34
0
  15
0
  25
0
  35
0
  146
0
  13
0
  23
0
  33
0
  16
1
  26
0
  36
0
  17
0
  27
1
  37
0
  76
0
  330
E4
  0
LAYOUT
  5
1
  102
{ACAD_REACTORS
  330
23C
  102
}
  330
23C
  100
AcDbPlotSettings
  1
VectorDraw Printer Drawing
  2

  4

  6

  40
0
  41
0
  42
0
  43
0
  44
210.058
  45
296.926
  46
0
  47
0
  48
-86.78186318732925
  49
-85.829296681962745
  140
45.161328206707353
  141
44.494959848343342
  142
1
  143
0.62812742858656467
  72
1
  73
0
  74
4
  75
0
  147
1
  148
86.78186318732925
  149
85.829296681962745
  100
AcDbLayout
  1
Model
  70
1
  71
0
  10
10
  20
0
  11
0
  21
10
  12
0
  22
0
  32
0
  14
6972.1082196460247
  24
-23467.713978226235
  34
6894.1613845237216
  15
-23426.354936627482
  25
-1052.4531846974483
  35
-1052.4531846974483
  146
0
  13
0
  23
0
  33
0
  16
1
  26
0
  36
0
  17
0
  27
1
  37
0
  76
0
  330
E3
  0
MLINESTYLE
  5
63
  102
{ACAD_REACTORS
  330
23D
  102
}
  330
23D
  100
AcDbMlineStyle
  2
Standard
  70
0
  3

  62
0
  51
90
  52
90
  71
2
  49
0.5
  62
7
  6
Continuous
  49
-0.5
  62
7
  6
Continuous
  0
ACDBPLACEHOLDER
  5
D5
  102
{ACAD_REACTORS
  330
23F
  102
}
  330
23F
  0
XRECORD
  5
245
  102
{ACAD_REACTORS
  330
240
  102
}
  330
240
  100
AcDbXrecord
  280
1
  1000
udnjVM6OT3ptXXPNDrqErnGX8
  1070
5
  1070
1
  0
XRECORD
  5
241
  102
{ACAD_REACTORS
  330
23A
  102
}
  330
23A
  100
AcDbXrecord
  280
1
  1
DWGPROPS COOKIE
  2

  3

  4

  6

  7

  8

  9

  40
0
  41
0
  42
0
  1

  90
0
  0
ENDSEC
  999
Created By VectorDraw :7.7012.0.1
  0
EOF
