  0
SECTION
  2
HEADER
  9
$ACADVER
  1
AC1015
  9
$ACADMAINTVER
  70
6
  9
$DWGCODEPAGE
  3

  9
$INSBASE
  10
0
  20
0
  30
0
  9
$EXTMIN
  10
7068.237438745522
  20
-23243.904492074693
  30
-998.24689128911825
  9
$EXTMAX
  10
7135.2092572791071
  20
-23214.709672873309
  30
-998.24689128911825
  9
$LIMMIN
  10
0
  20
0
  9
$LIMMAX
  10
10
  20
10
  9
$ORTHOMODE
  70
0
  9
$REGENMODE
  70
1
  9
$FILLMODE
  70
1
  9
$QTEXTMODE
  70
0
  9
$MIRRTEXT
  70
1
  9
$LTSCALE
  40
1
  9
$ATTMODE
  70
1
  9
$TEXTSIZE
  40
0.2
  9
$TRACEWID
  40
0.05
  9
$TEXTSTYLE
  7
STANDARD
  9
$CLAYER
  8
0
  9
$CELTYPE
  6
BYLAYER
  9
$CECOLOR
  62
256
  9
$CELTSCALE
  40
1
  9
$DISPSILH
  70
0
  9
$DIMSCALE
  40
1
  9
$DIMASZ
  40
0.2
  9
$DIMEXO
  40
0.2
  9
$DIMRND
  40
0
  9
$DIMDLE
  40
0
  9
$DIMEXE
  40
0.05
  9
$DIMTP
  40
1
  9
$DIMTM
  40
1
  9
$DIMTXT
  40
1
  9
$DIMTSZ
  40
0.0
  9
$DIMTOL
  70
0
  9
$DIMLIM
  70
0
  9
$DIMTIH
  70
0
  9
$DIMTOH
  70
1
  9
$DIMSE1
  70
0
  9
$DIMSE2
  70
0
  9
$DIMTAD
  70
0
  9
$DIMZIN
  70
1
  9
$DIMBLK
  1
VDDIM_DEFAULT
  9
$DIMASO
  70
1
  9
$DIMSHO
  70
1
  9
$DIMPOST
  1

  9
$DIMAPOST
  1

  9
$DIMALT
  70
0
  9
$DIMBLK1
  1

  9
$DIMBLK2
  1

  9
$DIMSTYLE
  2
STANDARD
  9
$DIMCLRD
  70
0
  9
$DIMCLRE
  70
0
  9
$DIMCLRT
  70
0
  9
$DIMTFAC
  40
1
  9
$DIMSD1
  70
0
  9
$DIMSD2
  70
0
  9
$DIMTOLJ
  70
1
  9
$DIMTXSTY
  7
STANDARD
  9
$DIMAUNIT
  70
1
  9
$DIMADEC
  70
4
  9
$DIMAZIN
  70
0
  9
$DIMLUNIT
  70
2
  9
$LUNITS
  70
2
  9
$LUPREC
  70
4
  9
$FILLETRAD
  40
0
  9
$AUNITS
  70
1
  9
$AUPREC
  70
4
  9
$MENU
  1

  9
$ELEVATION
  40
0
  9
$PELEVATION
  40
0
  9
$THICKNESS
  40
0
  9
$ANGBASE
  50
0
  9
$ANGDIR
  70
0
  9
$PDMODE
  70
2
  9
$PDSIZE
  40
1
  9
$PLINEWID
  40
0
  9
$SPLFRAME
  70
0
  9
$SPLINETYPE
  70
6
  9
$SPLINESEGS
  70
8
  9
$HANDSEED
  5
              4BE
  9
$SURFTAB1
  70
6
  9
$SURFTAB2
  70
6
  9
$SURFTYPE
  70
6
  9
$SURFU
  70
6
  9
$SURFV
  70
6
  9
$UCSBASE
  2

  9
$UCSNAME
  2

  9
$UCSORG
  10
0
  20
0
  30
0
  9
$UCSXDIR
  10
1
  20
0
  30
0
  9
$UCSYDIR
  10
0
  20
1
  30
0
  9
$UCSORGTOP
  10
0
  20
0
  30
0
  9
$UCSORGBOTTOM
  10
0
  20
0
  30
0
  9
$UCSORGLEFT
  10
0
  20
0
  30
0
  9
$UCSORGRIGHT
  10
0
  20
0
  30
0
  9
$UCSORGFRONT
  10
0
  20
0
  30
0
  9
$UCSORGBACK
  10
0
  20
0
  30
0
  9
$PUCSBASE
  2

  9
$PUCSNAME
  2

  9
$PUCSXDIR
  10
1
  20
0
  30
0
  9
$PUCSYDIR
  10
0
  20
1
  30
0
  9
$PUCSORGTOP
  10
0
  20
0
  30
0
  9
$PUCSORGBOTTOM
  10
0
  20
0
  30
0
  9
$PUCSORGLEFT
  10
0
  20
0
  30
0
  9
$PUCSORGRIGHT
  10
0
  20
0
  30
0
  9
$PUCSORGFRONT
  10
0
  20
0
  30
0
  9
$PUCSORGBACK
  10
0
  20
0
  30
0
  9
$USERI1
  70
0
  9
$USERI2
  70
0
  9
$USERI3
  70
0
  9
$USERI4
  70
0
  9
$USERI5
  70
0
  9
$USERR1
  40
0
  9
$USERR2
  40
0
  9
$USERR3
  40
0
  9
$USERR4
  40
0
  9
$USERR5
  40
0
  9
$TILEMODE
  70
1
  9
$PINSBASE
  10
0
  20
0
  30
0
  9
$LWDISPLAY
  290
1
  9
$INSUNITS
  70
0
  9
$MEASUREMENT
  70
1
  0
ENDSEC
  0
SECTION
  2
CLASSES
  0
CLASS
  1
ACDBDICTIONARYWDFLT
  2
AcDbDictionaryWithDefault
  3
ObjectDBX Classes
  90
0
  280
0
  281
0
  0
CLASS
  1
IMAGEDEF
  2
AcDbRasterImageDef
  3
ISM
  90
0
  280
0
  281
0
  0
CLASS
  1
IMAGE
  2
AcDbRasterImage
  3
ISM
  90
127
  280
0
  281
1
  0
CLASS
  1
IMAGEDEF_REACTOR
  2
AcDbRasterImageDefReactor
  3
ObjectDBX Classes
  90
1
  280
0
  281
0
  0
CLASS
  1
ACDBPLACEHOLDER
  2
AcDbPlaceHolder
  3
ObjectDBX Classes
  90
0
  280
0
  281
0
  0
CLASS
  1
LAYOUT
  2
AcDbLayout
  3
ObjectDBX Classes
  90
0
  280
0
  281
0
  0
CLASS
  1
ARCALIGNEDTEXT
  2
AcDbArcAlignedText
  3
ATEXT|AutoCAD Express Tool|expresstools@autodesk.com
  90
0
  280
0
  281
1
  0
ENDSEC
  0
SECTION
  2
TABLES
  0
TABLE
  2
VPORT
  5
18A
  330
0
  100
AcDbSymbolTable
  70
2
  0
VPORT
  5
18B
  330
18A
  100
AcDbSymbolTableRecord
  100
AcDbViewportTableRecord
  2
*Active
  70
0
  10
0
  20
0
  11
1
  21
1
  12
-25.849226451869569
  22
1.6501954679756494
  13
0
  23
0
  14
1
  24
1
  15
1
  25
1
  16
0
  26
0
  36
1
  17
0
  27
0
  37
0
  40
192.88644599735409
  41
1
  42
50
  43
0
  44
0
  50
0
  51
0
  71
0
  72
100
  73
1
  74
3
  75
0
  76
0
  77
0
  78
0
  281
0
  65
1
  110
0
  120
0
  130
0
  111
1
  121
0
  131
0
  112
0
  122
1
  132
0
  79
0
  146
0
  0
ENDTAB
  0
TABLE
  2
LTYPE
  5
18C
  330
0
  100
AcDbSymbolTable
  70
8
  0
LTYPE
  5
1C
  330
18C
  100
AcDbSymbolTableRecord
  100
AcDbLinetypeTableRecord
  2
BYLAYER
  70
0
  3
BYLAYER________________________________________
  72
65
  73
0
  40
0
  0
LTYPE
  5
1D
  330
18C
  100
AcDbSymbolTableRecord
  100
AcDbLinetypeTableRecord
  2
BYBLOCK
  70
0
  3
BYBLOCK________________________________________
  72
65
  73
0
  40
0
  0
LTYPE
  5
1E
  330
18C
  100
AcDbSymbolTableRecord
  100
AcDbLinetypeTableRecord
  2
DASHED0
  70
0
  3
Dashed0 __ __ __ __ __ __ __ __ __ __ __ __ __ _
  72
65
  73
2
  40
1
  49
0.5
  74
0
  49
-0.5
  74
0
  0
LTYPE
  5
1F
  330
18C
  100
AcDbSymbolTableRecord
  100
AcDbLinetypeTableRecord
  2
DOT0
  70
0
  3
Dot0 ........................................
  72
65
  73
8
  40
1
  49
0
  74
0
  49
-0.25
  74
0
  49
0
  74
0
  49
-0.25
  74
0
  49
0
  74
0
  49
-0.25
  74
0
  49
0
  74
0
  49
-0.25
  74
0
  0
LTYPE
  5
20
  330
18C
  100
AcDbSymbolTableRecord
  100
AcDbLinetypeTableRecord
  2
DASHDOT0
  70
0
  3
Dashdot __ . __ . __ . __ . __ . __ . __ . __
  72
65
  73
4
  40
1
  49
0.4
  74
0
  49
-0.3
  74
0
  49
0
  74
0
  49
-0.3
  74
0
  0
LTYPE
  5
21
  330
18C
  100
AcDbSymbolTableRecord
  100
AcDbLinetypeTableRecord
  2
DASHDOTDOT0
  70
0
  3
Dashdot __ . . __ . . __ . . __ . . __ . . __ . . __ . . __
  72
65
  73
6
  40
1
  49
0.3
  74
0
  49
-0.23
  74
0
  49
0
  74
0
  49
-0.24
  74
0
  49
0
  74
0
  49
-0.23
  74
0
  0
LTYPE
  5
22
  330
18C
  100
AcDbSymbolTableRecord
  100
AcDbLinetypeTableRecord
  2
INVISIBLE
  70
0
  3
Invisible(                        )
  72
65
  73
2
  40
2
  49
-1
  74
0
  49
-1
  74
0
  0
ENDTAB
  0
TABLE
  2
LAYER
  5
18E
  102
{ACAD_XDICTIONARY
  360
18F
  102
}
  330
0
  100
AcDbSymbolTable
  70
23
  0
LAYER
  5
62
  330
18E
  100
AcDbSymbolTableRecord
  100
AcDbLayerTableRecord
  2
0
  70
0
  62
7
  6
Continuous
  370
-3
  390
18D
  0
LAYER
  5
6C
  330
18E
  100
AcDbSymbolTableRecord
  100
AcDbLayerTableRecord
  2
95 3W MP2A LH1E_EXTENSION_SLIPE_DXF_RINGDESIGN_095 3W MPR02A LHS 01E EXST_SLIPE_SURVEYEXPORT
  70
0
  62
7
  6
Continuous
  370
25
  390
18D
  0
LAYER
  5
6D
  330
18E
  100
AcDbSymbolTableRecord
  100
AcDbLayerTableRecord
  2
95 3W MP2A LH1E_EXTENSION_SLIPE_DXF_RINGDESIGN_095 3W MPR02A LHS 01E EXST_SLIPE_SURVEYEXPORT_SL1
  70
0
  62
7
  6
Continuous
  370
25
  390
18D
  0
LAYER
  5
6E
  330
18E
  100
AcDbSymbolTableRecord
  100
AcDbLayerTableRecord
  2
95 3W MP2A LH1E_EXTENSION_SLIPE_DXF_RINGDESIGN_095 3W MPR02A LHS 01E EXST_SLIPE_SURVEYEXPORT_SL2
  70
0
  62
7
  6
Continuous
  370
25
  390
18D
  0
LAYER
  5
6F
  330
18E
  100
AcDbSymbolTableRecord
  100
AcDbLayerTableRecord
  2
95 3W MP2A LH1E_EXTENSION_SLIPE_DXF_RINGDESIGN_095 3W MPR02A LHS 01E EXST_SLIPE_SURVEYEXPORT_SL3
  70
0
  62
7
  6
Continuous
  370
25
  390
18D
  0
LAYER
  5
70
  330
18E
  100
AcDbSymbolTableRecord
  100
AcDbLayerTableRecord
  2
95 3W MP2A LH1E_EXTENSION_SLIPE_DXF_RINGDESIGN_095 3W MPR02A LHS 01E EXST_SLIPE_SURVEYEXPORT_SL4
  70
0
  62
7
  6
Continuous
  370
25
  390
18D
  0
LAYER
  5
71
  330
18E
  100
AcDbSymbolTableRecord
  100
AcDbLayerTableRecord
  2
95 3W MP2A LH1E_EXTENSION_SLIPE_DXF_RINGDESIGN_095 3W MPR02A LHS 01E EXST_SLIPE_SURVEYEXPORT_SL5
  70
0
  62
7
  6
Continuous
  370
25
  390
18D
  0
LAYER
  5
72
  330
18E
  100
AcDbSymbolTableRecord
  100
AcDbLayerTableRecord
  2
95 3W MP2A LH1E_EXTENSION_DXF_RINGDESIGN_095 3W MPR02A LHS 01E EXST_SURVEYEXPORT
  70
0
  62
7
  6
Continuous
  370
25
  390
18D
  0
LAYER
  5
73
  330
18E
  100
AcDbSymbolTableRecord
  100
AcDbLayerTableRecord
  2
95 3W MP2A LH1E_EXTENSION_DXF_RINGDESIGN_095 3W MPR02A LHS 01E EXST_SURVEYEXPORT_S1
  70
0
  62
7
  6
Continuous
  370
25
  390
18D
  0
LAYER
  5
74
  330
18E
  100
AcDbSymbolTableRecord
  100
AcDbLayerTableRecord
  2
95 3W MP2A LH1E_EXTENSION_DXF_RINGDESIGN_095 3W MPR02A LHS 01E EXST_SURVEYEXPORT_S2
  70
0
  62
7
  6
Continuous
  370
25
  390
18D
  0
LAYER
  5
75
  330
18E
  100
AcDbSymbolTableRecord
  100
AcDbLayerTableRecord
  2
95 3W MP2A LH1E_EXTENSION_DXF_RINGDESIGN_095 3W MPR02A LHS 01E EXST_SURVEYEXPORT_S3
  70
0
  62
7
  6
Continuous
  370
25
  390
18D
  0
LAYER
  5
76
  330
18E
  100
AcDbSymbolTableRecord
  100
AcDbLayerTableRecord
  2
95 3W MP2A LH1E_EXTENSION_DXF_RINGDESIGN_095 3W MPR02A LHS 01E EXST_SURVEYEXPORT_S4
  70
0
  62
7
  6
Continuous
  370
25
  390
18D
  0
LAYER
  5
77
  330
18E
  100
AcDbSymbolTableRecord
  100
AcDbLayerTableRecord
  2
95 3W MP2A LH1E_EXTENSION_DXF_RINGDESIGN_095 3W MPR02A LHS 01E EXST_SURVEYEXPORT_S5
  70
0
  62
7
  6
Continuous
  370
25
  390
18D
  0
LAYER
  5
78
  330
18E
  100
AcDbSymbolTableRecord
  100
AcDbLayerTableRecord
  2
95 3W MP2A LH1E_EXTENSION_DXF_RINGDESIGN_095 3W MPR02A LHS 01E EXST_SURVEYEXPORT_S6
  70
0
  62
7
  6
Continuous
  370
25
  390
18D
  0
LAYER
  5
79
  330
18E
  100
AcDbSymbolTableRecord
  100
AcDbLayerTableRecord
  2
95 3W MP2A LH1E_EXTENSION_DXF_RINGDESIGN_095 3W MPR02A LHS 01E EXST_SURVEYEXPORT_S7
  70
0
  62
7
  6
Continuous
  370
25
  390
18D
  0
LAYER
  5
7A
  330
18E
  100
AcDbSymbolTableRecord
  100
AcDbLayerTableRecord
  2
95 3W MP2A LH1E_EXTENSION_DXF_RINGDESIGN_095 3W MPR02A LHS 01E EXST_SURVEYEXPORT_R1
  70
0
  62
7
  6
Continuous
  370
25
  390
18D
  0
LAYER
  5
7B
  330
18E
  100
AcDbSymbolTableRecord
  100
AcDbLayerTableRecord
  2
95 3W MP2A LH1E_EXTENSION_DXF_RINGDESIGN_095 3W MPR02A LHS 01E EXST_SURVEYEXPORT_R2
  70
0
  62
7
  6
Continuous
  370
25
  390
18D
  0
LAYER
  5
7C
  330
18E
  100
AcDbSymbolTableRecord
  100
AcDbLayerTableRecord
  2
95 3W MP2A LH1E_EXTENSION_DXF_RINGDESIGN_095 3W MPR02A LHS 01E EXST_SURVEYEXPORT_R3
  70
0
  62
7
  6
Continuous
  370
25
  390
18D
  0
LAYER
  5
7D
  330
18E
  100
AcDbSymbolTableRecord
  100
AcDbLayerTableRecord
  2
95 3W MP2A LH1E_EXTENSION_DXF_RINGDESIGN_095 3W MPR02A LHS 01E EXST_SURVEYEXPORT_R4
  70
0
  62
7
  6
Continuous
  370
25
  390
18D
  0
LAYER
  5
7E
  330
18E
  100
AcDbSymbolTableRecord
  100
AcDbLayerTableRecord
  2
95 3W MP2A LH1E_EXTENSION_DXF_RINGDESIGN_095 3W MPR02A LHS 01E EXST_SURVEYEXPORT_R5
  70
0
  62
7
  6
Continuous
  370
25
  390
18D
  0
LAYER
  5
7F
  330
18E
  100
AcDbSymbolTableRecord
  100
AcDbLayerTableRecord
  2
95 3W MP2A LH1E_EXTENSION_DXF_RINGDESIGN_095 3W MPR02A LHS 01E EXST_SURVEYEXPORT_R6
  70
0
  62
7
  6
Continuous
  370
25
  390
18D
  0
LAYER
  5
80
  330
18E
  100
AcDbSymbolTableRecord
  100
AcDbLayerTableRecord
  2
95 3W MP2A LH1E_EXTENSION_DXF_RINGDESIGN_095 3W MPR02A LHS 01E EXST_SURVEYEXPORT_R7
  70
0
  62
7
  6
Continuous
  370
25
  390
18D
  0
LAYER
  5
81
  330
18E
  100
AcDbSymbolTableRecord
  100
AcDbLayerTableRecord
  2
95 3W MP2A LH1E_EXTENSION_DXF_RINGDESIGN_095 3W MPR02A LHS 01E EXST_SURVEYEXPORT_6A
  70
0
  62
7
  6
Continuous
  370
25
  390
18D
  0
ENDTAB
  0
TABLE
  2
STYLE
  5
190
  330
0
  100
AcDbSymbolTable
  70
1
  0
STYLE
  5
64
  330
190
  100
AcDbSymbolTableRecord
  100
AcDbTextStyleTableRecord
  2
STANDARD
  70
0
  40
1
  41
1
  50
0
  71
0
  42
0.2
  3
Arial
  4

  0
ENDTAB
  0
TABLE
  2
VIEW
  5
191
  330
0
  100
AcDbSymbolTable
  70
0
  0
ENDTAB
  0
TABLE
  2
UCS
  5
192
  330
0
  100
AcDbSymbolTable
  70
0
  0
ENDTAB
  0
TABLE
  2
APPID
  5
193
  330
0
  100
AcDbSymbolTable
  70
6
  0
APPID
  5
194
  330
193
  100
AcDbSymbolTableRecord
  100
AcDbRegAppTableRecord
  2
AcAecLayerStandard
  70
0
  0
APPID
  5
195
  330
193
  100
AcDbSymbolTableRecord
  100
AcDbRegAppTableRecord
  2
VDEXTRAPARAM
  70
0
  0
APPID
  5
196
  330
193
  100
AcDbSymbolTableRecord
  100
AcDbRegAppTableRecord
  2
VDEXTRASOLID2D
  70
0
  0
APPID
  5
197
  330
193
  100
AcDbSymbolTableRecord
  100
AcDbRegAppTableRecord
  2
VD_TEMPHATCH
  70
0
  0
APPID
  5
198
  330
193
  100
AcDbSymbolTableRecord
  100
AcDbRegAppTableRecord
  2
ACAD
  70
0
  0
APPID
  5
199
  330
193
  100
AcDbSymbolTableRecord
  100
AcDbRegAppTableRecord
  2
PE_URL
  70
0
  0
ENDTAB
  0
TABLE
  2
BLOCK_RECORD
  5
19A
  330
0
  100
AcDbSymbolTable
  70
4
  0
BLOCK_RECORD
  5
19B
  330
19A
  100
AcDbSymbolTableRecord
  100
AcDbBlockTableRecord
  2
*Model_Space
  340
1
  0
BLOCK_RECORD
  5
19C
  330
19A
  100
AcDbSymbolTableRecord
  100
AcDbBlockTableRecord
  2
*Paper_Space
  340
189
  0
BLOCK_RECORD
  5
19D
  330
19A
  100
AcDbSymbolTableRecord
  100
AcDbBlockTableRecord
  2
VDDIM_DEFAULT
  340
0
  0
BLOCK_RECORD
  5
19E
  330
19A
  100
AcDbSymbolTableRecord
  100
AcDbBlockTableRecord
  2
VDDIM_NONE
  340
0
  0
ENDTAB
  0
TABLE
  2
DIMSTYLE
  5
19F
  330
0
  100
AcDbSymbolTable
  70
1
  100
AcDbDimStyleTable
  71
1
  340
69
  0
DIMSTYLE
  105
69
  330
19F
  100
AcDbSymbolTableRecord
  100
AcDbDimStyleTableRecord
  2
STANDARD
  70
0
  41
0.2
  3

  177
0
  42
0.05
  44
0.2
  75
0
  76
0
  40
1
  172
1
  281
0
  282
0
  275
1
  277
2
  179
4
  71
0
  47
1
  48
1
  78
1
  176
0
  178
0
  140
1
  147
0.09
  280
0
  77
1
  73
0
  271
4
  173
1
  340
64
  0
ENDTAB
  0
ENDSEC
  0
SECTION
  2
BLOCKS
  0
BLOCK
  5
1A0
  330
19B
  100
AcDbEntity
  8
0
  100
AcDbBlockBegin
  2
*Model_Space
  70
0
  71
0
  10
0
  20
0
  30
0
  3
*Model_Space
  1

  0
ENDBLK
  5
1A1
  330
19B
  100
AcDbEntity
  67
1
  8
0
  100
AcDbBlockEnd
  0
BLOCK
  5
1A2
  330
19C
  100
AcDbEntity
  8
0
  100
AcDbBlockBegin
  2
*Paper_Space
  70
0
  71
0
  10
0
  20
0
  30
0
  3
*Paper_Space
  1

  0
ENDBLK
  5
1A3
  330
19C
  100
AcDbEntity
  67
1
  8
0
  100
AcDbBlockEnd
  0
BLOCK
  5
65
  330
19D
  100
AcDbEntity
  8
0
  100
AcDbBlockBegin
  2
VDDIM_DEFAULT
  70
0
  71
0
  10
0
  20
0
  30
0
  3
VDDIM_DEFAULT
  1

  0
HATCH
  5
66
  330
19D
  100
AcDbEntity
  8
0
  62
0
  370
-2
  100
AcDbHatch
  10
0
  20
0
  30
0
  210
0
  220
0
  230
-1
  2
SOLID
  70
1
  71
0
  91
1
  92
2
  72
0
  73
1
  93
3
  10
0
  20
0
  10
1
  20
-0.1665
  10
1
  20
0.1665
  97
0
  75
0
  76
1
  98
1
  10
0
  20
0
  0
ENDBLK
  5
1A4
  330
19D
  100
AcDbEntity
  8
0
  100
AcDbBlockEnd
  0
BLOCK
  5
68
  330
19E
  100
AcDbEntity
  8
0
  100
AcDbBlockBegin
  2
VDDIM_NONE
  70
0
  71
0
  10
0
  20
0
  30
0
  3
VDDIM_NONE
  1

  0
ENDBLK
  5
1A5
  330
19E
  100
AcDbEntity
  8
0
  100
AcDbBlockEnd
  0
ENDSEC
  0
SECTION
  2
ENTITIES
  0
LWPOLYLINE
  5
1A6
  330
19B
  100
AcDbEntity
  8
95 3W MP2A LH1E_EXTENSION_SLIPE_DXF_RINGDESIGN_095 3W MPR02A LHS 01E EXST_SLIPE_SURVEYEXPORT
  62
7
  100
AcDbPolyline
  90
3
  43
0
  38
-995.63430481104888
  10
7119.9138069205264
  20
-23239.292663425913
  10
7119.8482796754624
  20
-23237.982118524636
  10
7118.7343165093762
  20
-23221.600307258654
  0
LWPOLYLINE
  5
1A7
  330
19B
  100
AcDbEntity
  8
95 3W MP2A LH1E_EXTENSION_SLIPE_DXF_RINGDESIGN_095 3W MPR02A LHS 01E EXST_SLIPE_SURVEYEXPORT
  62
7
  100
AcDbPolyline
  90
2
  43
0
  38
-995.63430481104888
  10
7113.8890608764741
  20
-23223.851988535425
  10
7123.7906238569267
  20
-23222.452327667881
  0
LWPOLYLINE
  5
1A8
  330
19B
  100
AcDbEntity
  8
95 3W MP2A LH1E_EXTENSION_SLIPE_DXF_RINGDESIGN_095 3W MPR02A LHS 01E EXST_SLIPE_SURVEYEXPORT
  62
1
  100
AcDbPolyline
  90
2
  43
0
  38
-995.63430481104888
  10
7114.3341530323542
  20
-23227.000685563209
  10
7124.2357160128067
  20
-23225.601024695665
  0
POLYLINE
  5
1A9
  330
19B
  100
AcDbEntity
  8
95 3W MP2A LH1E_EXTENSION_SLIPE_DXF_RINGDESIGN_095 3W MPR02A LHS 01E EXST_SLIPE_SURVEYEXPORT_SL1
  62
7
  100
AcDb3dPolyline
  10
0
  20
0
  30
0
  70
8
  0
VERTEX
  5
1AA
  330

  100
AcDbEntity
  8
95 3W MP2A LH1E_EXTENSION_SLIPE_DXF_RINGDESIGN_095 3W MPR02A LHS 01E EXST_SLIPE_SURVEYEXPORT_SL1
  6
BYLAYER
  62
7
  100
AcDbVertex
  100
AcDb3dPolylineVertex
  10
7122.1544331801751
  20
-23222.683615603593
  30
-991.89609900547941
  70
32
  0
VERTEX
  5
1AB
  330

  100
AcDbEntity
  8
95 3W MP2A LH1E_EXTENSION_SLIPE_DXF_RINGDESIGN_095 3W MPR02A LHS 01E EXST_SLIPE_SURVEYEXPORT_SL1
  6
BYLAYER
  62
7
  100
AcDbVertex
  100
AcDb3dPolylineVertex
  10
7126.7971354547672
  20
-23222.027334498656
  30
-987.406075022677
  70
32
  0
SEQEND
  5
1AC
  330

  100
AcDbEntity
  8
95 3W MP2A LH1E_EXTENSION_SLIPE_DXF_RINGDESIGN_095 3W MPR02A LHS 01E EXST_SLIPE_SURVEYEXPORT_SL1
  0
POLYLINE
  5
1AD
  330
19B
  100
AcDbEntity
  8
95 3W MP2A LH1E_EXTENSION_SLIPE_DXF_RINGDESIGN_095 3W MPR02A LHS 01E EXST_SLIPE_SURVEYEXPORT_SL1
  62
7
  100
AcDb3dPolyline
  10
0
  20
0
  30
0
  70
8
  0
VERTEX
  5
1AE
  330

  100
AcDbEntity
  8
95 3W MP2A LH1E_EXTENSION_SLIPE_DXF_RINGDESIGN_095 3W MPR02A LHS 01E EXST_SLIPE_SURVEYEXPORT_SL1
  6
BYLAYER
  62
7
  100
AcDbVertex
  100
AcDb3dPolylineVertex
  10
7122.5829860664771
  20
-23222.6230364096
  30
-992.127429663955
  70
32
  0
VERTEX
  5
1AF
  330

  100
AcDbEntity
  8
95 3W MP2A LH1E_EXTENSION_SLIPE_DXF_RINGDESIGN_095 3W MPR02A LHS 01E EXST_SLIPE_SURVEYEXPORT_SL1
  6
BYLAYER
  62
7
  100
AcDbVertex
  100
AcDb3dPolylineVertex
  10
7126.9869072274
  20
-23222.000508822304
  30
-989.24051971613187
  70
32
  0
SEQEND
  5
1B0
  330

  100
AcDbEntity
  8
95 3W MP2A LH1E_EXTENSION_SLIPE_DXF_RINGDESIGN_095 3W MPR02A LHS 01E EXST_SLIPE_SURVEYEXPORT_SL1
  0
POLYLINE
  5
1B1
  330
19B
  100
AcDbEntity
  8
95 3W MP2A LH1E_EXTENSION_SLIPE_DXF_RINGDESIGN_095 3W MPR02A LHS 01E EXST_SLIPE_SURVEYEXPORT_SL1
  62
7
  100
AcDb3dPolyline
  10
0
  20
0
  30
0
  70
8
  0
VERTEX
  5
1B2
  330

  100
AcDbEntity
  8
95 3W MP2A LH1E_EXTENSION_SLIPE_DXF_RINGDESIGN_095 3W MPR02A LHS 01E EXST_SLIPE_SURVEYEXPORT_SL1
  6
BYLAYER
  62
7
  100
AcDbVertex
  100
AcDb3dPolylineVertex
  10
7123.3252034137995
  20
-23222.518118370062
  30
-992.52807479592377
  70
32
  0
VERTEX
  5
1B3
  330

  100
AcDbEntity
  8
95 3W MP2A LH1E_EXTENSION_SLIPE_DXF_RINGDESIGN_095 3W MPR02A LHS 01E EXST_SLIPE_SURVEYEXPORT_SL1
  6
BYLAYER
  62
7
  100
AcDbVertex
  100
AcDb3dPolylineVertex
  10
7127.3664507726689
  20
-23221.946857469589
  30
-991.10234418113112
  70
32
  0
SEQEND
  5
1B4
  330

  100
AcDbEntity
  8
95 3W MP2A LH1E_EXTENSION_SLIPE_DXF_RINGDESIGN_095 3W MPR02A LHS 01E EXST_SLIPE_SURVEYEXPORT_SL1
  0
POLYLINE
  5
1B5
  330
19B
  100
AcDbEntity
  8
95 3W MP2A LH1E_EXTENSION_SLIPE_DXF_RINGDESIGN_095 3W MPR02A LHS 01E EXST_SLIPE_SURVEYEXPORT_SL1
  62
7
  100
AcDb3dPolyline
  10
0
  20
0
  30
0
  70
8
  0
VERTEX
  5
1B6
  330

  100
AcDbEntity
  8
95 3W MP2A LH1E_EXTENSION_SLIPE_DXF_RINGDESIGN_095 3W MPR02A LHS 01E EXST_SLIPE_SURVEYEXPORT_SL1
  6
BYLAYER
  62
7
  100
AcDbVertex
  100
AcDb3dPolylineVertex
  10
7124.0989099508779
  20
-23222.408749095226
  30
-993.25352716397276
  70
32
  0
VERTEX
  5
1B7
  330

  100
AcDbEntity
  8
95 3W MP2A LH1E_EXTENSION_SLIPE_DXF_RINGDESIGN_095 3W MPR02A LHS 01E EXST_SLIPE_SURVEYEXPORT_SL1
  6
BYLAYER
  62
7
  100
AcDbVertex
  100
AcDb3dPolylineVertex
  10
7127.3935610259
  20
-23221.94302523011
  30
-992.99154841767438
  70
32
  0
SEQEND
  5
1B8
  330

  100
AcDbEntity
  8
95 3W MP2A LH1E_EXTENSION_SLIPE_DXF_RINGDESIGN_095 3W MPR02A LHS 01E EXST_SLIPE_SURVEYEXPORT_SL1
  0
POLYLINE
  5
1B9
  330
19B
  100
AcDbEntity
  8
95 3W MP2A LH1E_EXTENSION_SLIPE_DXF_RINGDESIGN_095 3W MPR02A LHS 01E EXST_SLIPE_SURVEYEXPORT_SL1
  62
7
  100
AcDb3dPolyline
  10
0
  20
0
  30
0
  70
8
  0
VERTEX
  5
1BA
  330

  100
AcDbEntity
  8
95 3W MP2A LH1E_EXTENSION_SLIPE_DXF_RINGDESIGN_095 3W MPR02A LHS 01E EXST_SLIPE_SURVEYEXPORT_SL1
  6
BYLAYER
  62
7
  100
AcDbVertex
  100
AcDb3dPolylineVertex
  10
7125.51639059949
  20
-23222.208377477305
  30
-994.90808585078219
  70
32
  0
VERTEX
  5
1BB
  330

  100
AcDbEntity
  8
95 3W MP2A LH1E_EXTENSION_SLIPE_DXF_RINGDESIGN_095 3W MPR02A LHS 01E EXST_SLIPE_SURVEYEXPORT_SL1
  6
BYLAYER
  62
7
  100
AcDbVertex
  100
AcDb3dPolylineVertex
  10
7127.3122302662023
  20
-23221.954521948552
  30
-994.74385379649709
  70
32
  0
SEQEND
  5
1BC
  330

  100
AcDbEntity
  8
95 3W MP2A LH1E_EXTENSION_SLIPE_DXF_RINGDESIGN_095 3W MPR02A LHS 01E EXST_SLIPE_SURVEYEXPORT_SL1
  0
POLYLINE
  5
1BD
  330
19B
  100
AcDbEntity
  8
95 3W MP2A LH1E_EXTENSION_SLIPE_DXF_RINGDESIGN_095 3W MPR02A LHS 01E EXST_SLIPE_SURVEYEXPORT_SL1
  62
7
  100
AcDb3dPolyline
  10
0
  20
0
  30
0
  70
8
  0
VERTEX
  5
1BE
  330

  100
AcDbEntity
  8
95 3W MP2A LH1E_EXTENSION_SLIPE_DXF_RINGDESIGN_095 3W MPR02A LHS 01E EXST_SLIPE_SURVEYEXPORT_SL1
  6
BYLAYER
  62
7
  100
AcDbVertex
  100
AcDb3dPolylineVertex
  10
7125.0922784268123
  20
-23222.268328942821
  30
-996.15591158402185
  70
32
  0
VERTEX
  5
1BF
  330

  100
AcDbEntity
  8
95 3W MP2A LH1E_EXTENSION_SLIPE_DXF_RINGDESIGN_095 3W MPR02A LHS 01E EXST_SLIPE_SURVEYEXPORT_SL1
  6
BYLAYER
  62
7
  100
AcDbVertex
  100
AcDb3dPolylineVertex
  10
7127.3935610259
  20
-23221.943025230117
  30
-996.46877940377578
  70
32
  0
SEQEND
  5
1C0
  330

  100
AcDbEntity
  8
95 3W MP2A LH1E_EXTENSION_SLIPE_DXF_RINGDESIGN_095 3W MPR02A LHS 01E EXST_SLIPE_SURVEYEXPORT_SL1
  0
POLYLINE
  5
1C1
  330
19B
  100
AcDbEntity
  8
95 3W MP2A LH1E_EXTENSION_SLIPE_DXF_RINGDESIGN_095 3W MPR02A LHS 01E EXST_SLIPE_SURVEYEXPORT_SL1
  62
7
  100
AcDb3dPolyline
  10
0
  20
0
  30
0
  70
8
  0
VERTEX
  5
1C2
  330

  100
AcDbEntity
  8
95 3W MP2A LH1E_EXTENSION_SLIPE_DXF_RINGDESIGN_095 3W MPR02A LHS 01E EXST_SLIPE_SURVEYEXPORT_SL1
  6
BYLAYER
  62
7
  100
AcDbVertex
  100
AcDb3dPolylineVertex
  10
7124.60290034867
  20
-23222.337506238033
  30
-996.64183583068723
  70
32
  0
VERTEX
  5
1C3
  330

  100
AcDbEntity
  8
95 3W MP2A LH1E_EXTENSION_SLIPE_DXF_RINGDESIGN_095 3W MPR02A LHS 01E EXST_SLIPE_SURVEYEXPORT_SL1
  6
BYLAYER
  62
7
  100
AcDbVertex
  100
AcDb3dPolylineVertex
  10
7127.040693969815
  20
-23221.992905659172
  30
-997.28743457294433
  70
32
  0
SEQEND
  5
1C4
  330

  100
AcDbEntity
  8
95 3W MP2A LH1E_EXTENSION_SLIPE_DXF_RINGDESIGN_095 3W MPR02A LHS 01E EXST_SLIPE_SURVEYEXPORT_SL1
  0
LWPOLYLINE
  5
1C5
  330
19B
  100
AcDbEntity
  8
95 3W MP2A LH1E_EXTENSION_SLIPE_DXF_RINGDESIGN_095 3W MPR02A LHS 01E EXST_SLIPE_SURVEYEXPORT
  62
7
  100
AcDbPolyline
  90
2
  43
0
  38
-995.63430481104888
  10
7114.1298607547524
  20
-23224.830274073542
  10
7123.5498239786484
  20
-23221.474042129765
  0
LWPOLYLINE
  5
1C6
  330
19B
  100
AcDbEntity
  8
95 3W MP2A LH1E_EXTENSION_SLIPE_DXF_RINGDESIGN_095 3W MPR02A LHS 01E EXST_SLIPE_SURVEYEXPORT
  62
1
  100
AcDbPolyline
  90
2
  43
0
  38
-995.63430481104888
  10
7115.1971425128741
  20
-23227.825822378742
  10
7124.61710573677
  20
-23224.469590434965
  0
POLYLINE
  5
1C7
  330
19B
  100
AcDbEntity
  8
95 3W MP2A LH1E_EXTENSION_SLIPE_DXF_RINGDESIGN_095 3W MPR02A LHS 01E EXST_SLIPE_SURVEYEXPORT_SL2
  62
7
  100
AcDb3dPolyline
  10
0
  20
0
  30
0
  70
8
  0
VERTEX
  5
1C8
  330

  100
AcDbEntity
  8
95 3W MP2A LH1E_EXTENSION_SLIPE_DXF_RINGDESIGN_095 3W MPR02A LHS 01E EXST_SLIPE_SURVEYEXPORT_SL2
  6
BYLAYER
  62
7
  100
AcDbVertex
  100
AcDb3dPolylineVertex
  10
7120.9741949729942
  20
-23222.391711141714
  30
-991.84950389806
  70
32
  0
VERTEX
  5
1C9
  330

  100
AcDbEntity
  8
95 3W MP2A LH1E_EXTENSION_SLIPE_DXF_RINGDESIGN_095 3W MPR02A LHS 01E EXST_SLIPE_SURVEYEXPORT_SL2
  6
BYLAYER
  62
7
  100
AcDbVertex
  100
AcDb3dPolylineVertex
  10
7127.1726069951192
  20
-23220.183283366052
  30
-986.88087137107141
  70
32
  0
SEQEND
  5
1CA
  330

  100
AcDbEntity
  8
95 3W MP2A LH1E_EXTENSION_SLIPE_DXF_RINGDESIGN_095 3W MPR02A LHS 01E EXST_SLIPE_SURVEYEXPORT_SL2
  0
POLYLINE
  5
1CB
  330
19B
  100
AcDbEntity
  8
95 3W MP2A LH1E_EXTENSION_SLIPE_DXF_RINGDESIGN_095 3W MPR02A LHS 01E EXST_SLIPE_SURVEYEXPORT_SL2
  62
7
  100
AcDb3dPolyline
  10
0
  20
0
  30
0
  70
8
  0
VERTEX
  5
1CC
  330

  100
AcDbEntity
  8
95 3W MP2A LH1E_EXTENSION_SLIPE_DXF_RINGDESIGN_095 3W MPR02A LHS 01E EXST_SLIPE_SURVEYEXPORT_SL2
  6
BYLAYER
  62
7
  100
AcDbVertex
  100
AcDb3dPolylineVertex
  10
7121.7413843704162
  20
-23222.11836978131
  30
-992.432426063323
  70
32
  0
VERTEX
  5
1CD
  330

  100
AcDbEntity
  8
95 3W MP2A LH1E_EXTENSION_SLIPE_DXF_RINGDESIGN_095 3W MPR02A LHS 01E EXST_SLIPE_SURVEYEXPORT_SL2
  6
BYLAYER
  62
7
  100
AcDbVertex
  100
AcDb3dPolylineVertex
  10
7127.2860902291695
  20
-23220.142850505945
  30
-988.77828953907817
  70
32
  0
SEQEND
  5
1CE
  330

  100
AcDbEntity
  8
95 3W MP2A LH1E_EXTENSION_SLIPE_DXF_RINGDESIGN_095 3W MPR02A LHS 01E EXST_SLIPE_SURVEYEXPORT_SL2
  0
POLYLINE
  5
1CF
  330
19B
  100
AcDbEntity
  8
95 3W MP2A LH1E_EXTENSION_SLIPE_DXF_RINGDESIGN_095 3W MPR02A LHS 01E EXST_SLIPE_SURVEYEXPORT_SL2
  62
7
  100
AcDb3dPolyline
  10
0
  20
0
  30
0
  70
8
  0
VERTEX
  5
1D0
  330

  100
AcDbEntity
  8
95 3W MP2A LH1E_EXTENSION_SLIPE_DXF_RINGDESIGN_095 3W MPR02A LHS 01E EXST_SLIPE_SURVEYEXPORT_SL2
  6
BYLAYER
  62
7
  100
AcDbVertex
  100
AcDb3dPolylineVertex
  10
7122.4124190128041
  20
-23221.879287329644
  30
-992.84159014364138
  70
32
  0
VERTEX
  5
1D1
  330

  100
AcDbEntity
  8
95 3W MP2A LH1E_EXTENSION_SLIPE_DXF_RINGDESIGN_095 3W MPR02A LHS 01E EXST_SLIPE_SURVEYEXPORT_SL2
  6
BYLAYER
  62
7
  100
AcDbVertex
  100
AcDb3dPolylineVertex
  10
7127.5414275057856
  20
-23220.051876570713
  30
-990.82629645057648
  70
32
  0
SEQEND
  5
1D2
  330

  100
AcDbEntity
  8
95 3W MP2A LH1E_EXTENSION_SLIPE_DXF_RINGDESIGN_095 3W MPR02A LHS 01E EXST_SLIPE_SURVEYEXPORT_SL2
  0
POLYLINE
  5
1D3
  330
19B
  100
AcDbEntity
  8
95 3W MP2A LH1E_EXTENSION_SLIPE_DXF_RINGDESIGN_095 3W MPR02A LHS 01E EXST_SLIPE_SURVEYEXPORT_SL2
  62
7
  100
AcDb3dPolyline
  10
0
  20
0
  30
0
  70
8
  0
VERTEX
  5
1D4
  330

  100
AcDbEntity
  8
95 3W MP2A LH1E_EXTENSION_SLIPE_DXF_RINGDESIGN_095 3W MPR02A LHS 01E EXST_SLIPE_SURVEYEXPORT_SL2
  6
BYLAYER
  62
7
  100
AcDbVertex
  100
AcDb3dPolylineVertex
  10
7122.7614727411619
  20
-23221.75492322701
  30
-993.108779331786
  70
32
  0
VERTEX
  5
1D5
  330

  100
AcDbEntity
  8
95 3W MP2A LH1E_EXTENSION_SLIPE_DXF_RINGDESIGN_095 3W MPR02A LHS 01E EXST_SLIPE_SURVEYEXPORT_SL2
  6
BYLAYER
  62
7
  100
AcDbVertex
  100
AcDb3dPolylineVertex
  10
7127.3995734632217
  20
-23220.102417645841
  30
-992.60324362378935
  70
32
  0
SEQEND
  5
1D6
  330

  100
AcDbEntity
  8
95 3W MP2A LH1E_EXTENSION_SLIPE_DXF_RINGDESIGN_095 3W MPR02A LHS 01E EXST_SLIPE_SURVEYEXPORT_SL2
  0
POLYLINE
  5
1D7
  330
19B
  100
AcDbEntity
  8
95 3W MP2A LH1E_EXTENSION_SLIPE_DXF_RINGDESIGN_095 3W MPR02A LHS 01E EXST_SLIPE_SURVEYEXPORT_SL2
  62
7
  100
AcDb3dPolyline
  10
0
  20
0
  30
0
  70
8
  0
VERTEX
  5
1D8
  330

  100
AcDbEntity
  8
95 3W MP2A LH1E_EXTENSION_SLIPE_DXF_RINGDESIGN_095 3W MPR02A LHS 01E EXST_SLIPE_SURVEYEXPORT_SL2
  6
BYLAYER
  62
7
  100
AcDbVertex
  100
AcDb3dPolylineVertex
  10
7123.5972869808129
  20
-23221.457131570765
  30
-994.48723015640087
  70
32
  0
VERTEX
  5
1D9
  330

  100
AcDbEntity
  8
95 3W MP2A LH1E_EXTENSION_SLIPE_DXF_RINGDESIGN_095 3W MPR02A LHS 01E EXST_SLIPE_SURVEYEXPORT_SL2
  6
BYLAYER
  62
7
  100
AcDbVertex
  100
AcDb3dPolylineVertex
  10
7127.456315080246
  20
-23220.082201215791
  30
-994.50066179179578
  70
32
  0
SEQEND
  5
1DA
  330

  100
AcDbEntity
  8
95 3W MP2A LH1E_EXTENSION_SLIPE_DXF_RINGDESIGN_095 3W MPR02A LHS 01E EXST_SLIPE_SURVEYEXPORT_SL2
  0
POLYLINE
  5
1DB
  330
19B
  100
AcDbEntity
  8
95 3W MP2A LH1E_EXTENSION_SLIPE_DXF_RINGDESIGN_095 3W MPR02A LHS 01E EXST_SLIPE_SURVEYEXPORT_SL2
  62
7
  100
AcDb3dPolyline
  10
0
  20
0
  30
0
  70
8
  0
VERTEX
  5
1DC
  330

  100
AcDbEntity
  8
95 3W MP2A LH1E_EXTENSION_SLIPE_DXF_RINGDESIGN_095 3W MPR02A LHS 01E EXST_SLIPE_SURVEYEXPORT_SL2
  6
BYLAYER
  62
7
  100
AcDbVertex
  100
AcDb3dPolylineVertex
  10
7124.2019394699382
  20
-23221.241700368897
  30
-995.80007325033648
  70
32
  0
VERTEX
  5
1DD
  330

  100
AcDbEntity
  8
95 3W MP2A LH1E_EXTENSION_SLIPE_DXF_RINGDESIGN_095 3W MPR02A LHS 01E EXST_SLIPE_SURVEYEXPORT_SL2
  6
BYLAYER
  62
7
  100
AcDbVertex
  100
AcDb3dPolylineVertex
  10
7127.3712026547082
  20
-23220.11252586087
  30
-995.855960483229
  70
32
  0
SEQEND
  5
1DE
  330

  100
AcDbEntity
  8
95 3W MP2A LH1E_EXTENSION_SLIPE_DXF_RINGDESIGN_095 3W MPR02A LHS 01E EXST_SLIPE_SURVEYEXPORT_SL2
  0
POLYLINE
  5
1DF
  330
19B
  100
AcDbEntity
  8
95 3W MP2A LH1E_EXTENSION_SLIPE_DXF_RINGDESIGN_095 3W MPR02A LHS 01E EXST_SLIPE_SURVEYEXPORT_SL2
  62
7
  100
AcDb3dPolyline
  10
0
  20
0
  30
0
  70
8
  0
VERTEX
  5
1E0
  330

  100
AcDbEntity
  8
95 3W MP2A LH1E_EXTENSION_SLIPE_DXF_RINGDESIGN_095 3W MPR02A LHS 01E EXST_SLIPE_SURVEYEXPORT_SL2
  6
BYLAYER
  62
7
  100
AcDbVertex
  100
AcDb3dPolylineVertex
  10
7123.6767121401426
  20
-23221.428833237689
  30
-996.60500778273865
  70
32
  0
VERTEX
  5
1E1
  330

  100
AcDbEntity
  8
95 3W MP2A LH1E_EXTENSION_SLIPE_DXF_RINGDESIGN_095 3W MPR02A LHS 01E EXST_SLIPE_SURVEYEXPORT_SL2
  6
BYLAYER
  62
7
  100
AcDbVertex
  100
AcDb3dPolylineVertex
  10
7126.8888989099933
  20
-23220.284365516305
  30
-997.24137692336069
  70
32
  0
SEQEND
  5
1E2
  330

  100
AcDbEntity
  8
95 3W MP2A LH1E_EXTENSION_SLIPE_DXF_RINGDESIGN_095 3W MPR02A LHS 01E EXST_SLIPE_SURVEYEXPORT_SL2
  0
LWPOLYLINE
  5
1E3
  330
19B
  100
AcDbEntity
  8
95 3W MP2A LH1E_EXTENSION_SLIPE_DXF_RINGDESIGN_095 3W MPR02A LHS 01E EXST_SLIPE_SURVEYEXPORT
  62
7
  100
AcDbPolyline
  90
2
  43
0
  38
-995.63430481104888
  10
7114.7503122797634
  20
-23226.028917331765
  10
7122.9293724536374
  20
-23220.275398871541
  0
LWPOLYLINE
  5
1E4
  330
19B
  100
AcDbEntity
  8
95 3W MP2A LH1E_EXTENSION_SLIPE_DXF_RINGDESIGN_095 3W MPR02A LHS 01E EXST_SLIPE_SURVEYEXPORT
  62
1
  100
AcDbPolyline
  90
2
  43
0
  38
-995.63430481104888
  10
7116.579931150115
  20
-23228.629858467059
  10
7124.758991323989
  20
-23222.876340006835
  0
POLYLINE
  5
1E5
  330
19B
  100
AcDbEntity
  8
95 3W MP2A LH1E_EXTENSION_SLIPE_DXF_RINGDESIGN_095 3W MPR02A LHS 01E EXST_SLIPE_SURVEYEXPORT_SL3
  62
7
  100
AcDb3dPolyline
  10
0
  20
0
  30
0
  70
8
  0
VERTEX
  5
1E6
  330

  100
AcDbEntity
  8
95 3W MP2A LH1E_EXTENSION_SLIPE_DXF_RINGDESIGN_095 3W MPR02A LHS 01E EXST_SLIPE_SURVEYEXPORT_SL3
  6
BYLAYER
  62
7
  100
AcDbVertex
  100
AcDb3dPolylineVertex
  10
7120.4084064027847
  20
-23222.048759673748
  30
-992.08360139277079
  70
32
  0
VERTEX
  5
1E7
  330

  100
AcDbEntity
  8
95 3W MP2A LH1E_EXTENSION_SLIPE_DXF_RINGDESIGN_095 3W MPR02A LHS 01E EXST_SLIPE_SURVEYEXPORT_SL3
  6
BYLAYER
  62
7
  100
AcDbVertex
  100
AcDb3dPolylineVertex
  10
7126.9628286996194
  20
-23217.438084500896
  30
-986.10186060891829
  70
32
  0
SEQEND
  5
1E8
  330

  100
AcDbEntity
  8
95 3W MP2A LH1E_EXTENSION_SLIPE_DXF_RINGDESIGN_095 3W MPR02A LHS 01E EXST_SLIPE_SURVEYEXPORT_SL3
  0
POLYLINE
  5
1E9
  330
19B
  100
AcDbEntity
  8
95 3W MP2A LH1E_EXTENSION_SLIPE_DXF_RINGDESIGN_095 3W MPR02A LHS 01E EXST_SLIPE_SURVEYEXPORT_SL3
  62
7
  100
AcDb3dPolyline
  10
0
  20
0
  30
0
  70
8
  0
VERTEX
  5
1EA
  330

  100
AcDbEntity
  8
95 3W MP2A LH1E_EXTENSION_SLIPE_DXF_RINGDESIGN_095 3W MPR02A LHS 01E EXST_SLIPE_SURVEYEXPORT_SL3
  6
BYLAYER
  62
7
  100
AcDbVertex
  100
AcDb3dPolylineVertex
  10
7120.8203512614
  20
-23221.758979149061
  30
-992.588943209252
  70
32
  0
VERTEX
  5
1EB
  330

  100
AcDbEntity
  8
95 3W MP2A LH1E_EXTENSION_SLIPE_DXF_RINGDESIGN_095 3W MPR02A LHS 01E EXST_SLIPE_SURVEYEXPORT_SL3
  6
BYLAYER
  62
7
  100
AcDbVertex
  100
AcDb3dPolylineVertex
  10
7127.2541287155109
  20
-23217.233170979871
  30
-988.215893005257
  70
32
  0
SEQEND
  5
1EC
  330

  100
AcDbEntity
  8
95 3W MP2A LH1E_EXTENSION_SLIPE_DXF_RINGDESIGN_095 3W MPR02A LHS 01E EXST_SLIPE_SURVEYEXPORT_SL3
  0
POLYLINE
  5
1ED
  330
19B
  100
AcDbEntity
  8
95 3W MP2A LH1E_EXTENSION_SLIPE_DXF_RINGDESIGN_095 3W MPR02A LHS 01E EXST_SLIPE_SURVEYEXPORT_SL3
  62
7
  100
AcDb3dPolyline
  10
0
  20
0
  30
0
  70
8
  0
VERTEX
  5
1EE
  330

  100
AcDbEntity
  8
95 3W MP2A LH1E_EXTENSION_SLIPE_DXF_RINGDESIGN_095 3W MPR02A LHS 01E EXST_SLIPE_SURVEYEXPORT_SL3
  6
BYLAYER
  62
7
  100
AcDbVertex
  100
AcDb3dPolylineVertex
  10
7121.0912378592375
  20
-23221.568425343594
  30
-992.92620342151486
  70
32
  0
VERTEX
  5
1EF
  330

  100
AcDbEntity
  8
95 3W MP2A LH1E_EXTENSION_SLIPE_DXF_RINGDESIGN_095 3W MPR02A LHS 01E EXST_SLIPE_SURVEYEXPORT_SL3
  6
BYLAYER
  62
7
  100
AcDbVertex
  100
AcDb3dPolylineVertex
  10
7127.2923513910046
  20
-23217.206283432359
  30
-990.37318385394985
  70
32
  0
SEQEND
  5
1F0
  330

  100
AcDbEntity
  8
95 3W MP2A LH1E_EXTENSION_SLIPE_DXF_RINGDESIGN_095 3W MPR02A LHS 01E EXST_SLIPE_SURVEYEXPORT_SL3
  0
POLYLINE
  5
1F1
  330
19B
  100
AcDbEntity
  8
95 3W MP2A LH1E_EXTENSION_SLIPE_DXF_RINGDESIGN_095 3W MPR02A LHS 01E EXST_SLIPE_SURVEYEXPORT_SL3
  62
7
  100
AcDb3dPolyline
  10
0
  20
0
  30
0
  70
8
  0
VERTEX
  5
1F2
  330

  100
AcDbEntity
  8
95 3W MP2A LH1E_EXTENSION_SLIPE_DXF_RINGDESIGN_095 3W MPR02A LHS 01E EXST_SLIPE_SURVEYEXPORT_SL3
  6
BYLAYER
  62
7
  100
AcDbVertex
  100
AcDb3dPolylineVertex
  10
7121.3987171521048
  20
-23221.352130592113
  30
-993.25401079252151
  70
32
  0
VERTEX
  5
1F3
  330

  100
AcDbEntity
  8
95 3W MP2A LH1E_EXTENSION_SLIPE_DXF_RINGDESIGN_095 3W MPR02A LHS 01E EXST_SLIPE_SURVEYEXPORT_SL3
  6
BYLAYER
  62
7
  100
AcDbVertex
  100
AcDb3dPolylineVertex
  10
7127.5084233168645
  20
-23217.054288730309
  30
-992.58315617993685
  70
32
  0
SEQEND
  5
1F4
  330

  100
AcDbEntity
  8
95 3W MP2A LH1E_EXTENSION_SLIPE_DXF_RINGDESIGN_095 3W MPR02A LHS 01E EXST_SLIPE_SURVEYEXPORT_SL3
  0
POLYLINE
  5
1F5
  330
19B
  100
AcDbEntity
  8
95 3W MP2A LH1E_EXTENSION_SLIPE_DXF_RINGDESIGN_095 3W MPR02A LHS 01E EXST_SLIPE_SURVEYEXPORT_SL3
  62
7
  100
AcDb3dPolyline
  10
0
  20
0
  30
0
  70
8
  0
VERTEX
  5
1F6
  330

  100
AcDbEntity
  8
95 3W MP2A LH1E_EXTENSION_SLIPE_DXF_RINGDESIGN_095 3W MPR02A LHS 01E EXST_SLIPE_SURVEYEXPORT_SL3
  6
BYLAYER
  62
7
  100
AcDbVertex
  100
AcDb3dPolylineVertex
  10
7122.1380069959605
  20
-23220.832080895245
  30
-994.50227885066715
  70
32
  0
VERTEX
  5
1F7
  330

  100
AcDbEntity
  8
95 3W MP2A LH1E_EXTENSION_SLIPE_DXF_RINGDESIGN_095 3W MPR02A LHS 01E EXST_SLIPE_SURVEYEXPORT_SL3
  6
BYLAYER
  62
7
  100
AcDbVertex
  100
AcDb3dPolylineVertex
  10
7127.4530324720072
  20
-23217.093253139621
  30
-994.64949027265448
  70
32
  0
SEQEND
  5
1F8
  330

  100
AcDbEntity
  8
95 3W MP2A LH1E_EXTENSION_SLIPE_DXF_RINGDESIGN_095 3W MPR02A LHS 01E EXST_SLIPE_SURVEYEXPORT_SL3
  0
POLYLINE
  5
1F9
  330
19B
  100
AcDbEntity
  8
95 3W MP2A LH1E_EXTENSION_SLIPE_DXF_RINGDESIGN_095 3W MPR02A LHS 01E EXST_SLIPE_SURVEYEXPORT_SL3
  62
7
  100
AcDb3dPolyline
  10
0
  20
0
  30
0
  70
8
  0
VERTEX
  5
1FA
  330

  100
AcDbEntity
  8
95 3W MP2A LH1E_EXTENSION_SLIPE_DXF_RINGDESIGN_095 3W MPR02A LHS 01E EXST_SLIPE_SURVEYEXPORT_SL3
  6
BYLAYER
  62
7
  100
AcDbVertex
  100
AcDb3dPolylineVertex
  10
7122.5492260303135
  20
-23220.542810947962
  30
-995.68925274640276
  70
32
  0
VERTEX
  5
1FB
  330

  100
AcDbEntity
  8
95 3W MP2A LH1E_EXTENSION_SLIPE_DXF_RINGDESIGN_095 3W MPR02A LHS 01E EXST_SLIPE_SURVEYEXPORT_SL3
  6
BYLAYER
  62
7
  100
AcDbVertex
  100
AcDb3dPolylineVertex
  10
7127.4553786003489
  20
-23217.091602767523
  30
-995.82647174950125
  70
32
  0
SEQEND
  5
1FC
  330

  100
AcDbEntity
  8
95 3W MP2A LH1E_EXTENSION_SLIPE_DXF_RINGDESIGN_095 3W MPR02A LHS 01E EXST_SLIPE_SURVEYEXPORT_SL3
  0
POLYLINE
  5
1FD
  330
19B
  100
AcDbEntity
  8
95 3W MP2A LH1E_EXTENSION_SLIPE_DXF_RINGDESIGN_095 3W MPR02A LHS 01E EXST_SLIPE_SURVEYEXPORT_SL3
  62
7
  100
AcDb3dPolyline
  10
0
  20
0
  30
0
  70
8
  0
VERTEX
  5
1FE
  330

  100
AcDbEntity
  8
95 3W MP2A LH1E_EXTENSION_SLIPE_DXF_RINGDESIGN_095 3W MPR02A LHS 01E EXST_SLIPE_SURVEYEXPORT_SL3
  6
BYLAYER
  62
7
  100
AcDbVertex
  100
AcDb3dPolylineVertex
  10
7122.4277131458757
  20
-23220.62828857117
  30
-996.12347606352114
  70
32
  0
VERTEX
  5
1FF
  330

  100
AcDbEntity
  8
95 3W MP2A LH1E_EXTENSION_SLIPE_DXF_RINGDESIGN_095 3W MPR02A LHS 01E EXST_SLIPE_SURVEYEXPORT_SL3
  6
BYLAYER
  62
7
  100
AcDbVertex
  100
AcDb3dPolylineVertex
  10
7127.1613370908317
  20
-23217.298444778353
  30
-997.70617776099164
  70
32
  0
SEQEND
  5
200
  330

  100
AcDbEntity
  8
95 3W MP2A LH1E_EXTENSION_SLIPE_DXF_RINGDESIGN_095 3W MPR02A LHS 01E EXST_SLIPE_SURVEYEXPORT_SL3
  0
POLYLINE
  5
201
  330
19B
  100
AcDbEntity
  8
95 3W MP2A LH1E_EXTENSION_SLIPE_DXF_RINGDESIGN_095 3W MPR02A LHS 01E EXST_SLIPE_SURVEYEXPORT_SL3
  62
7
  100
AcDb3dPolyline
  10
0
  20
0
  30
0
  70
8
  0
VERTEX
  5
202
  330

  100
AcDbEntity
  8
95 3W MP2A LH1E_EXTENSION_SLIPE_DXF_RINGDESIGN_095 3W MPR02A LHS 01E EXST_SLIPE_SURVEYEXPORT_SL3
  6
BYLAYER
  62
7
  100
AcDbVertex
  100
AcDb3dPolylineVertex
  10
7121.9985464039828
  20
-23220.930183742435
  30
-996.89765730230954
  70
32
  0
VERTEX
  5
203
  330

  100
AcDbEntity
  8
95 3W MP2A LH1E_EXTENSION_SLIPE_DXF_RINGDESIGN_095 3W MPR02A LHS 01E EXST_SLIPE_SURVEYEXPORT_SL3
  6
BYLAYER
  62
7
  100
AcDbVertex
  100
AcDb3dPolylineVertex
  10
7123.9253755338514
  20
-23219.574765548568
  30
-997.734419529004
  70
32
  0
SEQEND
  5
204
  330

  100
AcDbEntity
  8
95 3W MP2A LH1E_EXTENSION_SLIPE_DXF_RINGDESIGN_095 3W MPR02A LHS 01E EXST_SLIPE_SURVEYEXPORT_SL3
  0
LWPOLYLINE
  5
205
  330
19B
  100
AcDbEntity
  8
95 3W MP2A LH1E_EXTENSION_SLIPE_DXF_RINGDESIGN_095 3W MPR02A LHS 01E EXST_SLIPE_SURVEYEXPORT
  62
7
  100
AcDbPolyline
  90
2
  43
0
  38
-995.63430481104888
  10
7115.494189334906
  20
-23226.867882229039
  10
7122.1854953984948
  20
-23219.436433974268
  0
LWPOLYLINE
  5
206
  330
19B
  100
AcDbEntity
  8
95 3W MP2A LH1E_EXTENSION_SLIPE_DXF_RINGDESIGN_095 3W MPR02A LHS 01E EXST_SLIPE_SURVEYEXPORT
  62
1
  100
AcDbPolyline
  90
2
  43
0
  38
-995.63430481104888
  10
7117.8573898799241
  20
-23228.99571755726
  10
7124.5486959435129
  20
-23221.564269302489
  0
POLYLINE
  5
207
  330
19B
  100
AcDbEntity
  8
95 3W MP2A LH1E_EXTENSION_SLIPE_DXF_RINGDESIGN_095 3W MPR02A LHS 01E EXST_SLIPE_SURVEYEXPORT_SL4
  62
7
  100
AcDb3dPolyline
  10
0
  20
0
  30
0
  70
8
  0
VERTEX
  5
208
  330

  100
AcDbEntity
  8
95 3W MP2A LH1E_EXTENSION_SLIPE_DXF_RINGDESIGN_095 3W MPR02A LHS 01E EXST_SLIPE_SURVEYEXPORT_SL4
  6
BYLAYER
  62
7
  100
AcDbVertex
  100
AcDb3dPolylineVertex
  10
7120.0294779921987
  20
-23221.8309338879
  30
-992.22963868352565
  70
32
  0
VERTEX
  5
209
  330

  100
AcDbEntity
  8
95 3W MP2A LH1E_EXTENSION_SLIPE_DXF_RINGDESIGN_095 3W MPR02A LHS 01E EXST_SLIPE_SURVEYEXPORT_SL4
  6
BYLAYER
  62
7
  100
AcDbVertex
  100
AcDb3dPolylineVertex
  10
7125.881814486449
  20
-23215.331255736397
  30
-985.96352215041054
  70
32
  0
SEQEND
  5
20A
  330

  100
AcDbEntity
  8
95 3W MP2A LH1E_EXTENSION_SLIPE_DXF_RINGDESIGN_095 3W MPR02A LHS 01E EXST_SLIPE_SURVEYEXPORT_SL4
  0
POLYLINE
  5
20B
  330
19B
  100
AcDbEntity
  8
95 3W MP2A LH1E_EXTENSION_SLIPE_DXF_RINGDESIGN_095 3W MPR02A LHS 01E EXST_SLIPE_SURVEYEXPORT_SL4
  62
7
  100
AcDb3dPolyline
  10
0
  20
0
  30
0
  70
8
  0
VERTEX
  5
20C
  330

  100
AcDbEntity
  8
95 3W MP2A LH1E_EXTENSION_SLIPE_DXF_RINGDESIGN_095 3W MPR02A LHS 01E EXST_SLIPE_SURVEYEXPORT_SL4
  6
BYLAYER
  62
7
  100
AcDbVertex
  100
AcDb3dPolylineVertex
  10
7120.2638165663839
  20
-23221.5706745347
  30
-992.637439667813
  70
32
  0
VERTEX
  5
20D
  330

  100
AcDbEntity
  8
95 3W MP2A LH1E_EXTENSION_SLIPE_DXF_RINGDESIGN_095 3W MPR02A LHS 01E EXST_SLIPE_SURVEYEXPORT_SL4
  6
BYLAYER
  62
7
  100
AcDbVertex
  100
AcDb3dPolylineVertex
  10
7126.0836115976117
  20
-23215.107137339288
  30
-988.02421361959728
  70
32
  0
SEQEND
  5
20E
  330

  100
AcDbEntity
  8
95 3W MP2A LH1E_EXTENSION_SLIPE_DXF_RINGDESIGN_095 3W MPR02A LHS 01E EXST_SLIPE_SURVEYEXPORT_SL4
  0
POLYLINE
  5
20F
  330
19B
  100
AcDbEntity
  8
95 3W MP2A LH1E_EXTENSION_SLIPE_DXF_RINGDESIGN_095 3W MPR02A LHS 01E EXST_SLIPE_SURVEYEXPORT_SL4
  62
7
  100
AcDb3dPolyline
  10
0
  20
0
  30
0
  70
8
  0
VERTEX
  5
210
  330

  100
AcDbEntity
  8
95 3W MP2A LH1E_EXTENSION_SLIPE_DXF_RINGDESIGN_095 3W MPR02A LHS 01E EXST_SLIPE_SURVEYEXPORT_SL4
  6
BYLAYER
  62
7
  100
AcDbVertex
  100
AcDb3dPolylineVertex
  10
7120.576817517087
  20
-23221.223051761692
  30
-993.18213059727327
  70
32
  0
VERTEX
  5
211
  330

  100
AcDbEntity
  8
95 3W MP2A LH1E_EXTENSION_SLIPE_DXF_RINGDESIGN_095 3W MPR02A LHS 01E EXST_SLIPE_SURVEYEXPORT_SL4
  6
BYLAYER
  62
7
  100
AcDbVertex
  100
AcDb3dPolylineVertex
  10
7126.2640952155707
  20
-23214.90668997445
  30
-989.90454441410782
  70
32
  0
SEQEND
  5
212
  330

  100
AcDbEntity
  8
95 3W MP2A LH1E_EXTENSION_SLIPE_DXF_RINGDESIGN_095 3W MPR02A LHS 01E EXST_SLIPE_SURVEYEXPORT_SL4
  0
POLYLINE
  5
213
  330
19B
  100
AcDbEntity
  8
95 3W MP2A LH1E_EXTENSION_SLIPE_DXF_RINGDESIGN_095 3W MPR02A LHS 01E EXST_SLIPE_SURVEYEXPORT_SL4
  62
7
  100
AcDb3dPolyline
  10
0
  20
0
  30
0
  70
8
  0
VERTEX
  5
214
  330

  100
AcDbEntity
  8
95 3W MP2A LH1E_EXTENSION_SLIPE_DXF_RINGDESIGN_095 3W MPR02A LHS 01E EXST_SLIPE_SURVEYEXPORT_SL4
  6
BYLAYER
  62
7
  100
AcDbVertex
  100
AcDb3dPolylineVertex
  10
7120.7281290206029
  20
-23221.055003312249
  30
-993.56228588534225
  70
32
  0
VERTEX
  5
215
  330

  100
AcDbEntity
  8
95 3W MP2A LH1E_EXTENSION_SLIPE_DXF_RINGDESIGN_095 3W MPR02A LHS 01E EXST_SLIPE_SURVEYEXPORT_SL4
  6
BYLAYER
  62
7
  100
AcDbVertex
  100
AcDb3dPolylineVertex
  10
7126.4010774263579
  20
-23214.754555816839
  30
-991.68129522004119
  70
32
  0
SEQEND
  5
216
  330

  100
AcDbEntity
  8
95 3W MP2A LH1E_EXTENSION_SLIPE_DXF_RINGDESIGN_095 3W MPR02A LHS 01E EXST_SLIPE_SURVEYEXPORT_SL4
  0
POLYLINE
  5
217
  330
19B
  100
AcDbEntity
  8
95 3W MP2A LH1E_EXTENSION_SLIPE_DXF_RINGDESIGN_095 3W MPR02A LHS 01E EXST_SLIPE_SURVEYEXPORT_SL4
  62
7
  100
AcDb3dPolyline
  10
0
  20
0
  30
0
  70
8
  0
VERTEX
  5
218
  330

  100
AcDbEntity
  8
95 3W MP2A LH1E_EXTENSION_SLIPE_DXF_RINGDESIGN_095 3W MPR02A LHS 01E EXST_SLIPE_SURVEYEXPORT_SL4
  6
BYLAYER
  62
7
  100
AcDbVertex
  100
AcDb3dPolylineVertex
  10
7120.8788320176309
  20
-23220.887630677727
  30
-994.04649045279575
  70
32
  0
VERTEX
  5
219
  330

  100
AcDbEntity
  8
95 3W MP2A LH1E_EXTENSION_SLIPE_DXF_RINGDESIGN_095 3W MPR02A LHS 01E EXST_SLIPE_SURVEYEXPORT_SL4
  6
BYLAYER
  62
7
  100
AcDbVertex
  100
AcDb3dPolylineVertex
  10
7126.4246827247362
  20
-23214.728339477049
  30
-993.64545123517553
  70
32
  0
SEQEND
  5
21A
  330

  100
AcDbEntity
  8
95 3W MP2A LH1E_EXTENSION_SLIPE_DXF_RINGDESIGN_095 3W MPR02A LHS 01E EXST_SLIPE_SURVEYEXPORT_SL4
  0
POLYLINE
  5
21B
  330
19B
  100
AcDbEntity
  8
95 3W MP2A LH1E_EXTENSION_SLIPE_DXF_RINGDESIGN_095 3W MPR02A LHS 01E EXST_SLIPE_SURVEYEXPORT_SL4
  62
7
  100
AcDb3dPolyline
  10
0
  20
0
  30
0
  70
8
  0
VERTEX
  5
21C
  330

  100
AcDbEntity
  8
95 3W MP2A LH1E_EXTENSION_SLIPE_DXF_RINGDESIGN_095 3W MPR02A LHS 01E EXST_SLIPE_SURVEYEXPORT_SL4
  6
BYLAYER
  62
7
  100
AcDbVertex
  100
AcDb3dPolylineVertex
  10
7121.4105811801783
  20
-23220.297063403053
  30
-995.52001089154908
  70
32
  0
VERTEX
  5
21D
  330

  100
AcDbEntity
  8
95 3W MP2A LH1E_EXTENSION_SLIPE_DXF_RINGDESIGN_095 3W MPR02A LHS 01E EXST_SLIPE_SURVEYEXPORT_SL4
  6
BYLAYER
  62
7
  100
AcDbVertex
  100
AcDb3dPolylineVertex
  10
7126.3257705408278
  20
-23214.838192586365
  30
-995.49592684158961
  70
32
  0
SEQEND
  5
21E
  330

  100
AcDbEntity
  8
95 3W MP2A LH1E_EXTENSION_SLIPE_DXF_RINGDESIGN_095 3W MPR02A LHS 01E EXST_SLIPE_SURVEYEXPORT_SL4
  0
POLYLINE
  5
21F
  330
19B
  100
AcDbEntity
  8
95 3W MP2A LH1E_EXTENSION_SLIPE_DXF_RINGDESIGN_095 3W MPR02A LHS 01E EXST_SLIPE_SURVEYEXPORT_SL4
  62
7
  100
AcDb3dPolyline
  10
0
  20
0
  30
0
  70
8
  0
VERTEX
  5
220
  330

  100
AcDbEntity
  8
95 3W MP2A LH1E_EXTENSION_SLIPE_DXF_RINGDESIGN_095 3W MPR02A LHS 01E EXST_SLIPE_SURVEYEXPORT_SL4
  6
BYLAYER
  62
7
  100
AcDbVertex
  100
AcDb3dPolylineVertex
  10
7121.4193156261308
  20
-23220.287362818071
  30
-995.97014944309467
  70
32
  0
VERTEX
  5
221
  330

  100
AcDbEntity
  8
95 3W MP2A LH1E_EXTENSION_SLIPE_DXF_RINGDESIGN_095 3W MPR02A LHS 01E EXST_SLIPE_SURVEYEXPORT_SL4
  6
BYLAYER
  62
7
  100
AcDbVertex
  100
AcDb3dPolylineVertex
  10
7126.441490210239
  20
-23214.709672873309
  30
-996.81482235333488
  70
32
  0
SEQEND
  5
222
  330

  100
AcDbEntity
  8
95 3W MP2A LH1E_EXTENSION_SLIPE_DXF_RINGDESIGN_095 3W MPR02A LHS 01E EXST_SLIPE_SURVEYEXPORT_SL4
  0
POLYLINE
  5
223
  330
19B
  100
AcDbEntity
  8
95 3W MP2A LH1E_EXTENSION_SLIPE_DXF_RINGDESIGN_095 3W MPR02A LHS 01E EXST_SLIPE_SURVEYEXPORT_SL4
  62
7
  100
AcDb3dPolyline
  10
0
  20
0
  30
0
  70
8
  0
VERTEX
  5
224
  330

  100
AcDbEntity
  8
95 3W MP2A LH1E_EXTENSION_SLIPE_DXF_RINGDESIGN_095 3W MPR02A LHS 01E EXST_SLIPE_SURVEYEXPORT_SL4
  6
BYLAYER
  62
7
  100
AcDbVertex
  100
AcDb3dPolylineVertex
  10
7121.2378544153835
  20
-23220.488895909682
  30
-996.27501910022636
  70
32
  0
VERTEX
  5
225
  330

  100
AcDbEntity
  8
95 3W MP2A LH1E_EXTENSION_SLIPE_DXF_RINGDESIGN_095 3W MPR02A LHS 01E EXST_SLIPE_SURVEYEXPORT_SL4
  6
BYLAYER
  62
7
  100
AcDbVertex
  100
AcDb3dPolylineVertex
  10
7126.247049853202
  20
-23214.925620767222
  30
-997.81190571334241
  70
32
  0
SEQEND
  5
226
  330

  100
AcDbEntity
  8
95 3W MP2A LH1E_EXTENSION_SLIPE_DXF_RINGDESIGN_095 3W MPR02A LHS 01E EXST_SLIPE_SURVEYEXPORT_SL4
  0
POLYLINE
  5
227
  330
19B
  100
AcDbEntity
  8
95 3W MP2A LH1E_EXTENSION_SLIPE_DXF_RINGDESIGN_095 3W MPR02A LHS 01E EXST_SLIPE_SURVEYEXPORT_SL4
  62
7
  100
AcDb3dPolyline
  10
0
  20
0
  30
0
  70
8
  0
VERTEX
  5
228
  330

  100
AcDbEntity
  8
95 3W MP2A LH1E_EXTENSION_SLIPE_DXF_RINGDESIGN_095 3W MPR02A LHS 01E EXST_SLIPE_SURVEYEXPORT_SL4
  6
BYLAYER
  62
7
  100
AcDbVertex
  100
AcDb3dPolylineVertex
  10
7121.068768920557
  20
-23220.676684376311
  30
-996.6770421010026
  70
32
  0
VERTEX
  5
229
  330

  100
AcDbEntity
  8
95 3W MP2A LH1E_EXTENSION_SLIPE_DXF_RINGDESIGN_095 3W MPR02A LHS 01E EXST_SLIPE_SURVEYEXPORT_SL4
  6
BYLAYER
  62
7
  100
AcDbVertex
  100
AcDb3dPolylineVertex
  10
7123.398256187289
  20
-23218.089526664742
  30
-997.70097271668908
  70
32
  0
SEQEND
  5
22A
  330

  100
AcDbEntity
  8
95 3W MP2A LH1E_EXTENSION_SLIPE_DXF_RINGDESIGN_095 3W MPR02A LHS 01E EXST_SLIPE_SURVEYEXPORT_SL4
  0
LWPOLYLINE
  5
22B
  330
19B
  100
AcDbEntity
  8
95 3W MP2A LH1E_EXTENSION_SLIPE_DXF_RINGDESIGN_095 3W MPR02A LHS 01E EXST_SLIPE_SURVEYEXPORT
  62
7
  100
AcDbPolyline
  90
2
  43
0
  38
-995.63430481104888
  10
7116.3920242378053
  20
-23227.511995989447
  10
7121.2876604955954
  20
-23218.792320213859
  0
LWPOLYLINE
  5
22C
  330
19B
  100
AcDbEntity
  8
95 3W MP2A LH1E_EXTENSION_SLIPE_DXF_RINGDESIGN_095 3W MPR02A LHS 01E EXST_SLIPE_SURVEYEXPORT
  62
1
  100
AcDbPolyline
  90
2
  43
0
  38
-995.63430481104888
  10
7119.164881134443
  20
-23229.068808319425
  10
7124.0605173922331
  20
-23220.349132543837
  0
POLYLINE
  5
22D
  330
19B
  100
AcDbEntity
  8
95 3W MP2A LH1E_EXTENSION_SLIPE_DXF_RINGDESIGN_095 3W MPR02A LHS 01E EXST_SLIPE_SURVEYEXPORT_SL5
  62
7
  100
AcDb3dPolyline
  10
0
  20
0
  30
0
  70
8
  0
VERTEX
  5
22E
  330

  100
AcDbEntity
  8
95 3W MP2A LH1E_EXTENSION_SLIPE_DXF_RINGDESIGN_095 3W MPR02A LHS 01E EXST_SLIPE_SURVEYEXPORT_SL5
  6
BYLAYER
  62
7
  100
AcDbVertex
  100
AcDb3dPolylineVertex
  10
7119.5774354509331
  20
-23221.83842231533
  30
-991.87248504201546
  70
32
  0
VERTEX
  5
22F
  330

  100
AcDbEntity
  8
95 3W MP2A LH1E_EXTENSION_SLIPE_DXF_RINGDESIGN_095 3W MPR02A LHS 01E EXST_SLIPE_SURVEYEXPORT_SL5
  6
BYLAYER
  62
7
  100
AcDbVertex
  100
AcDb3dPolylineVertex
  10
7121.6000194793287
  20
-23218.235973925
  30
-987.5263951181762
  70
32
  0
SEQEND
  5
230
  330

  100
AcDbEntity
  8
95 3W MP2A LH1E_EXTENSION_SLIPE_DXF_RINGDESIGN_095 3W MPR02A LHS 01E EXST_SLIPE_SURVEYEXPORT_SL5
  0
POLYLINE
  5
231
  330
19B
  100
AcDbEntity
  8
95 3W MP2A LH1E_EXTENSION_SLIPE_DXF_RINGDESIGN_095 3W MPR02A LHS 01E EXST_SLIPE_SURVEYEXPORT_SL5
  62
7
  100
AcDb3dPolyline
  10
0
  20
0
  30
0
  70
8
  0
VERTEX
  5
232
  330

  100
AcDbEntity
  8
95 3W MP2A LH1E_EXTENSION_SLIPE_DXF_RINGDESIGN_095 3W MPR02A LHS 01E EXST_SLIPE_SURVEYEXPORT_SL5
  6
BYLAYER
  62
7
  100
AcDbVertex
  100
AcDb3dPolylineVertex
  10
7119.6770838740358
  20
-23221.66093732763
  30
-992.2819032485902
  70
32
  0
VERTEX
  5
233
  330

  100
AcDbEntity
  8
95 3W MP2A LH1E_EXTENSION_SLIPE_DXF_RINGDESIGN_095 3W MPR02A LHS 01E EXST_SLIPE_SURVEYEXPORT_SL5
  6
BYLAYER
  62
7
  100
AcDbVertex
  100
AcDb3dPolylineVertex
  10
7121.6245937364138
  20
-23218.192204424384
  30
-989.4589506596634
  70
32
  0
SEQEND
  5
234
  330

  100
AcDbEntity
  8
95 3W MP2A LH1E_EXTENSION_SLIPE_DXF_RINGDESIGN_095 3W MPR02A LHS 01E EXST_SLIPE_SURVEYEXPORT_SL5
  0
POLYLINE
  5
235
  330
19B
  100
AcDbEntity
  8
95 3W MP2A LH1E_EXTENSION_SLIPE_DXF_RINGDESIGN_095 3W MPR02A LHS 01E EXST_SLIPE_SURVEYEXPORT_SL5
  62
7
  100
AcDb3dPolyline
  10
0
  20
0
  30
0
  70
8
  0
VERTEX
  5
236
  330

  100
AcDbEntity
  8
95 3W MP2A LH1E_EXTENSION_SLIPE_DXF_RINGDESIGN_095 3W MPR02A LHS 01E EXST_SLIPE_SURVEYEXPORT_SL5
  6
BYLAYER
  62
7
  100
AcDbVertex
  100
AcDb3dPolylineVertex
  10
7119.8131662962487
  20
-23221.418559312191
  30
-992.67625131911518
  70
32
  0
VERTEX
  5
237
  330

  100
AcDbEntity
  8
95 3W MP2A LH1E_EXTENSION_SLIPE_DXF_RINGDESIGN_095 3W MPR02A LHS 01E EXST_SLIPE_SURVEYEXPORT_SL5
  6
BYLAYER
  62
7
  100
AcDbVertex
  100
AcDb3dPolylineVertex
  10
7121.6000194793278
  20
-23218.235973925002
  30
-990.9397399706736
  70
32
  0
SEQEND
  5
238
  330

  100
AcDbEntity
  8
95 3W MP2A LH1E_EXTENSION_SLIPE_DXF_RINGDESIGN_095 3W MPR02A LHS 01E EXST_SLIPE_SURVEYEXPORT_SL5
  0
POLYLINE
  5
239
  330
19B
  100
AcDbEntity
  8
95 3W MP2A LH1E_EXTENSION_SLIPE_DXF_RINGDESIGN_095 3W MPR02A LHS 01E EXST_SLIPE_SURVEYEXPORT_SL5
  62
7
  100
AcDb3dPolyline
  10
0
  20
0
  30
0
  70
8
  0
VERTEX
  5
23A
  330

  100
AcDbEntity
  8
95 3W MP2A LH1E_EXTENSION_SLIPE_DXF_RINGDESIGN_095 3W MPR02A LHS 01E EXST_SLIPE_SURVEYEXPORT_SL5
  6
BYLAYER
  62
7
  100
AcDbVertex
  100
AcDb3dPolylineVertex
  10
7119.9449988780016
  20
-23221.183750737986
  30
-993.01714684038677
  70
32
  0
VERTEX
  5
23B
  330

  100
AcDbEntity
  8
95 3W MP2A LH1E_EXTENSION_SLIPE_DXF_RINGDESIGN_095 3W MPR02A LHS 01E EXST_SLIPE_SURVEYEXPORT_SL5
  6
BYLAYER
  62
7
  100
AcDbVertex
  100
AcDb3dPolylineVertex
  10
7121.6123066078753
  20
-23218.214089174689
  30
-992.24484241427581
  70
32
  0
SEQEND
  5
23C
  330

  100
AcDbEntity
  8
95 3W MP2A LH1E_EXTENSION_SLIPE_DXF_RINGDESIGN_095 3W MPR02A LHS 01E EXST_SLIPE_SURVEYEXPORT_SL5
  0
POLYLINE
  5
23D
  330
19B
  100
AcDbEntity
  8
95 3W MP2A LH1E_EXTENSION_SLIPE_DXF_RINGDESIGN_095 3W MPR02A LHS 01E EXST_SLIPE_SURVEYEXPORT_SL5
  62
7
  100
AcDb3dPolyline
  10
0
  20
0
  30
0
  70
8
  0
VERTEX
  5
23E
  330

  100
AcDbEntity
  8
95 3W MP2A LH1E_EXTENSION_SLIPE_DXF_RINGDESIGN_095 3W MPR02A LHS 01E EXST_SLIPE_SURVEYEXPORT_SL5
  6
BYLAYER
  62
7
  100
AcDbVertex
  100
AcDb3dPolylineVertex
  10
7120.1856631751907
  20
-23220.755100705228
  30
-994.11967188376707
  70
32
  0
VERTEX
  5
23F
  330

  100
AcDbEntity
  8
95 3W MP2A LH1E_EXTENSION_SLIPE_DXF_RINGDESIGN_095 3W MPR02A LHS 01E EXST_SLIPE_SURVEYEXPORT_SL5
  6
BYLAYER
  62
7
  100
AcDbVertex
  100
AcDb3dPolylineVertex
  10
7121.6245937364138
  20
-23218.192204424384
  30
-993.976612964441
  70
32
  0
SEQEND
  5
240
  330

  100
AcDbEntity
  8
95 3W MP2A LH1E_EXTENSION_SLIPE_DXF_RINGDESIGN_095 3W MPR02A LHS 01E EXST_SLIPE_SURVEYEXPORT_SL5
  0
POLYLINE
  5
241
  330
19B
  100
AcDbEntity
  8
95 3W MP2A LH1E_EXTENSION_SLIPE_DXF_RINGDESIGN_095 3W MPR02A LHS 01E EXST_SLIPE_SURVEYEXPORT_SL5
  62
7
  100
AcDb3dPolyline
  10
0
  20
0
  30
0
  70
8
  0
VERTEX
  5
242
  330

  100
AcDbEntity
  8
95 3W MP2A LH1E_EXTENSION_SLIPE_DXF_RINGDESIGN_095 3W MPR02A LHS 01E EXST_SLIPE_SURVEYEXPORT_SL5
  6
BYLAYER
  62
7
  100
AcDbVertex
  100
AcDb3dPolylineVertex
  10
7120.5145335059869
  20
-23220.169345860351
  30
-995.68056919863307
  70
32
  0
VERTEX
  5
243
  330

  100
AcDbEntity
  8
95 3W MP2A LH1E_EXTENSION_SLIPE_DXF_RINGDESIGN_095 3W MPR02A LHS 01E EXST_SLIPE_SURVEYEXPORT_SL5
  6
BYLAYER
  62
7
  100
AcDbVertex
  100
AcDb3dPolylineVertex
  10
7121.6000194793287
  20
-23218.235973925002
  30
-995.58289289502829
  70
32
  0
SEQEND
  5
244
  330

  100
AcDbEntity
  8
95 3W MP2A LH1E_EXTENSION_SLIPE_DXF_RINGDESIGN_095 3W MPR02A LHS 01E EXST_SLIPE_SURVEYEXPORT_SL5
  0
POLYLINE
  5
245
  330
19B
  100
AcDbEntity
  8
95 3W MP2A LH1E_EXTENSION_SLIPE_DXF_RINGDESIGN_095 3W MPR02A LHS 01E EXST_SLIPE_SURVEYEXPORT_SL5
  62
7
  100
AcDb3dPolyline
  10
0
  20
0
  30
0
  70
8
  0
VERTEX
  5
246
  330

  100
AcDbEntity
  8
95 3W MP2A LH1E_EXTENSION_SLIPE_DXF_RINGDESIGN_095 3W MPR02A LHS 01E EXST_SLIPE_SURVEYEXPORT_SL5
  6
BYLAYER
  62
7
  100
AcDbVertex
  100
AcDb3dPolylineVertex
  10
7120.2410825220531
  20
-23220.656392649547
  30
-996.9466817975
  70
32
  0
VERTEX
  5
247
  330

  100
AcDbEntity
  8
95 3W MP2A LH1E_EXTENSION_SLIPE_DXF_RINGDESIGN_095 3W MPR02A LHS 01E EXST_SLIPE_SURVEYEXPORT_SL5
  6
BYLAYER
  62
7
  100
AcDbVertex
  100
AcDb3dPolylineVertex
  10
7121.5385838366046
  20
-23218.345397676563
  30
-997.51544843651607
  70
32
  0
SEQEND
  5
248
  330

  100
AcDbEntity
  8
95 3W MP2A LH1E_EXTENSION_SLIPE_DXF_RINGDESIGN_095 3W MPR02A LHS 01E EXST_SLIPE_SURVEYEXPORT_SL5
  0
POLYLINE
  5
249
  330
19B
  100
AcDbEntity
  8
95 3W MP2A LH1E_EXTENSION_DXF_RINGDESIGN_095 3W MPR02A LHS 01E EXST_SURVEYEXPORT
  62
7
  100
AcDb3dPolyline
  10
0
  20
0
  30
0
  70
8
  0
VERTEX
  5
24A
  330

  100
AcDbEntity
  8
95 3W MP2A LH1E_EXTENSION_DXF_RINGDESIGN_095 3W MPR02A LHS 01E EXST_SURVEYEXPORT
  6
BYLAYER
  62
7
  100
AcDbVertex
  100
AcDb3dPolylineVertex
  10
7074.6966096757651
  20
-23227.2318338742
  30
-997.35019975772332
  70
32
  0
VERTEX
  5
24B
  330

  100
AcDbEntity
  8
95 3W MP2A LH1E_EXTENSION_DXF_RINGDESIGN_095 3W MPR02A LHS 01E EXST_SURVEYEXPORT
  6
BYLAYER
  62
7
  100
AcDbVertex
  100
AcDb3dPolylineVertex
  10
7086.4348719525015
  20
-23231.578386132856
  30
-995.46863317181544
  70
32
  0
VERTEX
  5
24C
  330

  100
AcDbEntity
  8
95 3W MP2A LH1E_EXTENSION_DXF_RINGDESIGN_095 3W MPR02A LHS 01E EXST_SURVEYEXPORT
  6
BYLAYER
  62
7
  100
AcDbVertex
  100
AcDb3dPolylineVertex
  10
7093.0014068337687
  20
-23233.6548600688
  30
-994.40350000513058
  70
32
  0
VERTEX
  5
24D
  330

  100
AcDbEntity
  8
95 3W MP2A LH1E_EXTENSION_DXF_RINGDESIGN_095 3W MPR02A LHS 01E EXST_SURVEYEXPORT
  6
BYLAYER
  62
7
  100
AcDbVertex
  100
AcDb3dPolylineVertex
  10
7098.175714945015
  20
-23234.007653803656
  30
-994.40350000513058
  70
32
  0
VERTEX
  5
24E
  330

  100
AcDbEntity
  8
95 3W MP2A LH1E_EXTENSION_DXF_RINGDESIGN_095 3W MPR02A LHS 01E EXST_SURVEYEXPORT
  6
BYLAYER
  62
7
  100
AcDbVertex
  100
AcDb3dPolylineVertex
  10
7102.3504408074978
  20
-23231.361700792226
  30
-994.40350000513058
  70
32
  0
VERTEX
  5
24F
  330

  100
AcDbEntity
  8
95 3W MP2A LH1E_EXTENSION_DXF_RINGDESIGN_095 3W MPR02A LHS 01E EXST_SURVEYEXPORT
  6
BYLAYER
  62
7
  100
AcDbVertex
  100
AcDb3dPolylineVertex
  10
7105.3687872057253
  20
-23230.126922720221
  30
-994.40350000513058
  70
32
  0
VERTEX
  5
250
  330

  100
AcDbEntity
  8
95 3W MP2A LH1E_EXTENSION_DXF_RINGDESIGN_095 3W MPR02A LHS 01E EXST_SURVEYEXPORT
  6
BYLAYER
  62
7
  100
AcDbVertex
  100
AcDb3dPolylineVertex
  10
7109.6807106317638
  20
-23229.881927071016
  30
-994.40350000513058
  70
32
  0
VERTEX
  5
251
  330

  100
AcDbEntity
  8
95 3W MP2A LH1E_EXTENSION_DXF_RINGDESIGN_095 3W MPR02A LHS 01E EXST_SURVEYEXPORT
  6
BYLAYER
  62
7
  100
AcDbVertex
  100
AcDb3dPolylineVertex
  10
7113.6006410190721
  20
-23230.175921850063
  30
-994.40350000513058
  70
32
  0
VERTEX
  5
252
  330

  100
AcDbEntity
  8
95 3W MP2A LH1E_EXTENSION_DXF_RINGDESIGN_095 3W MPR02A LHS 01E EXST_SURVEYEXPORT
  6
BYLAYER
  62
7
  100
AcDbVertex
  100
AcDb3dPolylineVertex
  10
7119.9705278984475
  20
-23229.9799253307
  30
-994.40350000513058
  70
32
  0
VERTEX
  5
253
  330

  100
AcDbEntity
  8
95 3W MP2A LH1E_EXTENSION_DXF_RINGDESIGN_095 3W MPR02A LHS 01E EXST_SURVEYEXPORT
  6
BYLAYER
  62
7
  100
AcDbVertex
  100
AcDb3dPolylineVertex
  10
7125.2624339213135
  20
-23229.048941863712
  30
-994.40350000513058
  70
32
  0
VERTEX
  5
254
  330

  100
AcDbEntity
  8
95 3W MP2A LH1E_EXTENSION_DXF_RINGDESIGN_095 3W MPR02A LHS 01E EXST_SURVEYEXPORT
  6
BYLAYER
  62
7
  100
AcDbVertex
  100
AcDb3dPolylineVertex
  10
7130.8483347232268
  20
-23228.803946214506
  30
-994.40350000513058
  70
32
  0
VERTEX
  5
255
  330

  100
AcDbEntity
  8
95 3W MP2A LH1E_EXTENSION_DXF_RINGDESIGN_095 3W MPR02A LHS 01E EXST_SURVEYEXPORT
  6
BYLAYER
  62
7
  100
AcDbVertex
  100
AcDb3dPolylineVertex
  10
7135.2092572791071
  20
-23228.950943604028
  30
-994.40350000513058
  70
32
  0
SEQEND
  5
256
  330

  100
AcDbEntity
  8
95 3W MP2A LH1E_EXTENSION_DXF_RINGDESIGN_095 3W MPR02A LHS 01E EXST_SURVEYEXPORT
  0
LWPOLYLINE
  5
257
  330
19B
  100
AcDbEntity
  8
95 3W MP2A LH1E_EXTENSION_DXF_RINGDESIGN_095 3W MPR02A LHS 01E EXST_SURVEYEXPORT
  62
7
  100
AcDbPolyline
  90
2
  43
0
  38
-994.40350000513058
  10
7127.1005793276045
  20
-23218.95870772823
  10
7127.9769298109832
  20
-23238.939498749369
  0
LWPOLYLINE
  5
258
  330
19B
  100
AcDbEntity
  8
95 3W MP2A LH1E_EXTENSION_DXF_RINGDESIGN_095 3W MPR02A LHS 01E EXST_SURVEYEXPORT
  62
1
  100
AcDbPolyline
  90
2
  43
0
  38
-994.40350000513058
  10
7123.9236335552441
  20
-23219.098047455089
  10
7124.7999840386228
  20
-23239.078838476227
  0
POLYLINE
  5
259
  330
19B
  100
AcDbEntity
  8
95 3W MP2A LH1E_EXTENSION_DXF_RINGDESIGN_095 3W MPR02A LHS 01E EXST_SURVEYEXPORT_S1
  62
7
  100
AcDb3dPolyline
  10
0
  20
0
  30
0
  70
8
  0
VERTEX
  5
25A
  330

  100
AcDbEntity
  8
95 3W MP2A LH1E_EXTENSION_DXF_RINGDESIGN_095 3W MPR02A LHS 01E EXST_SURVEYEXPORT_S1
  6
BYLAYER
  62
7
  100
AcDbVertex
  100
AcDb3dPolylineVertex
  10
7127.3473236888231
  20
-23224.584479164045
  30
-993.51243276721743
  70
32
  0
VERTEX
  5
25B
  330

  100
AcDbEntity
  8
95 3W MP2A LH1E_EXTENSION_DXF_RINGDESIGN_095 3W MPR02A LHS 01E EXST_SURVEYEXPORT_S1
  6
BYLAYER
  62
7
  100
AcDbVertex
  100
AcDb3dPolylineVertex
  10
7127.29167869858
  20
-23223.315773386479
  30
-987.64836512734246
  70
32
  0
SEQEND
  5
25C
  330

  100
AcDbEntity
  8
95 3W MP2A LH1E_EXTENSION_DXF_RINGDESIGN_095 3W MPR02A LHS 01E EXST_SURVEYEXPORT_S1
  0
POLYLINE
  5
25D
  330
19B
  100
AcDbEntity
  8
95 3W MP2A LH1E_EXTENSION_DXF_RINGDESIGN_095 3W MPR02A LHS 01E EXST_SURVEYEXPORT_S1
  62
7
  100
AcDb3dPolyline
  10
0
  20
0
  30
0
  70
8
  0
VERTEX
  5
25E
  330

  100
AcDbEntity
  8
95 3W MP2A LH1E_EXTENSION_DXF_RINGDESIGN_095 3W MPR02A LHS 01E EXST_SURVEYEXPORT_S1
  6
BYLAYER
  62
7
  100
AcDbVertex
  100
AcDb3dPolylineVertex
  10
7127.3743903848117
  20
-23225.201599832555
  30
-992.97391291229985
  70
32
  0
VERTEX
  5
25F
  330

  100
AcDbEntity
  8
95 3W MP2A LH1E_EXTENSION_DXF_RINGDESIGN_095 3W MPR02A LHS 01E EXST_SURVEYEXPORT_S1
  6
BYLAYER
  62
7
  100
AcDbVertex
  100
AcDb3dPolylineVertex
  10
7127.36342264745
  20
-23224.951535420711
  30
-987.39569127971868
  70
32
  0
SEQEND
  5
260
  330

  100
AcDbEntity
  8
95 3W MP2A LH1E_EXTENSION_DXF_RINGDESIGN_095 3W MPR02A LHS 01E EXST_SURVEYEXPORT_S1
  0
POLYLINE
  5
261
  330
19B
  100
AcDbEntity
  8
95 3W MP2A LH1E_EXTENSION_DXF_RINGDESIGN_095 3W MPR02A LHS 01E EXST_SURVEYEXPORT_S1
  62
7
  100
AcDb3dPolyline
  10
0
  20
0
  30
0
  70
8
  0
VERTEX
  5
262
  330

  100
AcDbEntity
  8
95 3W MP2A LH1E_EXTENSION_DXF_RINGDESIGN_095 3W MPR02A LHS 01E EXST_SURVEYEXPORT_S1
  6
BYLAYER
  62
7
  100
AcDbVertex
  100
AcDb3dPolylineVertex
  10
7127.4166553162759
  20
-23226.165240269955
  30
-992.69104704400934
  70
32
  0
VERTEX
  5
263
  330

  100
AcDbEntity
  8
95 3W MP2A LH1E_EXTENSION_DXF_RINGDESIGN_095 3W MPR02A LHS 01E EXST_SURVEYEXPORT_S1
  6
BYLAYER
  62
7
  100
AcDbVertex
  100
AcDb3dPolylineVertex
  10
7127.4174551956248
  20
-23226.18347751912
  30
-987.15984811191208
  70
32
  0
SEQEND
  5
264
  330

  100
AcDbEntity
  8
95 3W MP2A LH1E_EXTENSION_DXF_RINGDESIGN_095 3W MPR02A LHS 01E EXST_SURVEYEXPORT_S1
  0
POLYLINE
  5
265
  330
19B
  100
AcDbEntity
  8
95 3W MP2A LH1E_EXTENSION_DXF_RINGDESIGN_095 3W MPR02A LHS 01E EXST_SURVEYEXPORT_S1
  62
7
  100
AcDb3dPolyline
  10
0
  20
0
  30
0
  70
8
  0
VERTEX
  5
266
  330

  100
AcDbEntity
  8
95 3W MP2A LH1E_EXTENSION_DXF_RINGDESIGN_095 3W MPR02A LHS 01E EXST_SURVEYEXPORT_S1
  6
BYLAYER
  62
7
  100
AcDbVertex
  100
AcDb3dPolylineVertex
  10
7127.4628367453988
  20
-23227.218176853992
  30
-992.74820772472071
  70
32
  0
VERTEX
  5
267
  330

  100
AcDbEntity
  8
95 3W MP2A LH1E_EXTENSION_DXF_RINGDESIGN_095 3W MPR02A LHS 01E EXST_SURVEYEXPORT_S1
  6
BYLAYER
  62
7
  100
AcDbVertex
  100
AcDb3dPolylineVertex
  10
7127.4644099103443
  20
-23227.254045014754
  30
-987.43461649897893
  70
32
  0
SEQEND
  5
268
  330

  100
AcDbEntity
  8
95 3W MP2A LH1E_EXTENSION_DXF_RINGDESIGN_095 3W MPR02A LHS 01E EXST_SURVEYEXPORT_S1
  0
POLYLINE
  5
269
  330
19B
  100
AcDbEntity
  8
95 3W MP2A LH1E_EXTENSION_DXF_RINGDESIGN_095 3W MPR02A LHS 01E EXST_SURVEYEXPORT_S1
  62
7
  100
AcDb3dPolyline
  10
0
  20
0
  30
0
  70
8
  0
VERTEX
  5
26A
  330

  100
AcDbEntity
  8
95 3W MP2A LH1E_EXTENSION_DXF_RINGDESIGN_095 3W MPR02A LHS 01E EXST_SURVEYEXPORT_S1
  6
BYLAYER
  62
7
  100
AcDbVertex
  100
AcDb3dPolylineVertex
  10
7127.620840256177
  20
-23230.820656899756
  30
-992.91528566857858
  70
32
  0
VERTEX
  5
26B
  330

  100
AcDbEntity
  8
95 3W MP2A LH1E_EXTENSION_DXF_RINGDESIGN_095 3W MPR02A LHS 01E EXST_SURVEYEXPORT_S1
  6
BYLAYER
  62
7
  100
AcDbVertex
  100
AcDb3dPolylineVertex
  10
7127.6256189457226
  20
-23230.929611021405
  30
-988.41660740007546
  70
32
  0
SEQEND
  5
26C
  330

  100
AcDbEntity
  8
95 3W MP2A LH1E_EXTENSION_DXF_RINGDESIGN_095 3W MPR02A LHS 01E EXST_SURVEYEXPORT_S1
  0
POLYLINE
  5
26D
  330
19B
  100
AcDbEntity
  8
95 3W MP2A LH1E_EXTENSION_DXF_RINGDESIGN_095 3W MPR02A LHS 01E EXST_SURVEYEXPORT_S1
  62
7
  100
AcDb3dPolyline
  10
0
  20
0
  30
0
  70
8
  0
VERTEX
  5
26E
  330

  100
AcDbEntity
  8
95 3W MP2A LH1E_EXTENSION_DXF_RINGDESIGN_095 3W MPR02A LHS 01E EXST_SURVEYEXPORT_S1
  6
BYLAYER
  62
7
  100
AcDbVertex
  100
AcDb3dPolylineVertex
  10
7127.5263889948019
  20
-23228.667168140397
  30
-992.76860314606893
  70
32
  0
VERTEX
  5
26F
  330

  100
AcDbEntity
  8
95 3W MP2A LH1E_EXTENSION_DXF_RINGDESIGN_095 3W MPR02A LHS 01E EXST_SURVEYEXPORT_S1
  6
BYLAYER
  62
7
  100
AcDbVertex
  100
AcDb3dPolylineVertex
  10
7127.5263517640578
  20
-23228.666319279433
  30
-987.768603218264
  70
32
  0
SEQEND
  5
270
  330

  100
AcDbEntity
  8
95 3W MP2A LH1E_EXTENSION_DXF_RINGDESIGN_095 3W MPR02A LHS 01E EXST_SURVEYEXPORT_S1
  0
POLYLINE
  5
271
  330
19B
  100
AcDbEntity
  8
95 3W MP2A LH1E_EXTENSION_DXF_RINGDESIGN_095 3W MPR02A LHS 01E EXST_SURVEYEXPORT_S1
  62
7
  100
AcDb3dPolyline
  10
0
  20
0
  30
0
  70
8
  0
VERTEX
  5
272
  330

  100
AcDbEntity
  8
95 3W MP2A LH1E_EXTENSION_DXF_RINGDESIGN_095 3W MPR02A LHS 01E EXST_SURVEYEXPORT_S1
  6
BYLAYER
  62
7
  100
AcDbVertex
  100
AcDb3dPolylineVertex
  10
7127.5482979828466
  20
-23229.166693067818
  30
-992.79890648890739
  70
32
  0
VERTEX
  5
273
  330

  100
AcDbEntity
  8
95 3W MP2A LH1E_EXTENSION_DXF_RINGDESIGN_095 3W MPR02A LHS 01E EXST_SURVEYEXPORT_S1
  6
BYLAYER
  62
7
  100
AcDbVertex
  100
AcDb3dPolylineVertex
  10
7127.5482607521026
  20
-23229.165844206862
  30
-987.79890656110251
  70
32
  0
SEQEND
  5
274
  330

  100
AcDbEntity
  8
95 3W MP2A LH1E_EXTENSION_DXF_RINGDESIGN_095 3W MPR02A LHS 01E EXST_SURVEYEXPORT_S1
  0
POLYLINE
  5
275
  330
19B
  100
AcDbEntity
  8
95 3W MP2A LH1E_EXTENSION_DXF_RINGDESIGN_095 3W MPR02A LHS 01E EXST_SURVEYEXPORT_S1
  62
7
  100
AcDb3dPolyline
  10
0
  20
0
  30
0
  70
8
  0
VERTEX
  5
276
  330

  100
AcDbEntity
  8
95 3W MP2A LH1E_EXTENSION_DXF_RINGDESIGN_095 3W MPR02A LHS 01E EXST_SURVEYEXPORT_S1
  6
BYLAYER
  62
7
  100
AcDbVertex
  100
AcDb3dPolylineVertex
  10
7127.5811618357975
  20
-23229.9159889151
  30
-992.8941704790368
  70
32
  0
VERTEX
  5
277
  330

  100
AcDbEntity
  8
95 3W MP2A LH1E_EXTENSION_DXF_RINGDESIGN_095 3W MPR02A LHS 01E EXST_SURVEYEXPORT_S1
  6
BYLAYER
  62
7
  100
AcDbVertex
  100
AcDb3dPolylineVertex
  10
7127.5811283281282
  20
-23229.915224940236
  30
-988.39417054401235
  70
32
  0
SEQEND
  5
278
  330

  100
AcDbEntity
  8
95 3W MP2A LH1E_EXTENSION_DXF_RINGDESIGN_095 3W MPR02A LHS 01E EXST_SURVEYEXPORT_S1
  0
LWPOLYLINE
  5
279
  330
19B
  100
AcDbEntity
  8
95 3W MP2A LH1E_EXTENSION_DXF_RINGDESIGN_095 3W MPR02A LHS 01E EXST_SURVEYEXPORT
  62
7
  100
AcDbPolyline
  90
2
  43
0
  38
-994.40350000513058
  10
7126.6010595520765
  20
-23218.980616490317
  10
7127.4774100354553
  20
-23238.961407511455
  0
LWPOLYLINE
  5
27A
  330
19B
  100
AcDbEntity
  8
95 3W MP2A LH1E_EXTENSION_DXF_RINGDESIGN_095 3W MPR02A LHS 01E EXST_SURVEYEXPORT
  62
1
  100
AcDbPolyline
  90
2
  43
0
  38
-994.40350000513058
  10
7123.4241137797162
  20
-23219.119956217175
  10
7124.3004642630949
  20
-23239.100747238313
  0
POLYLINE
  5
27B
  330
19B
  100
AcDbEntity
  8
95 3W MP2A LH1E_EXTENSION_DXF_RINGDESIGN_095 3W MPR02A LHS 01E EXST_SURVEYEXPORT_S2
  62
7
  100
AcDb3dPolyline
  10
0
  20
0
  30
0
  70
8
  0
VERTEX
  5
27C
  330

  100
AcDbEntity
  8
95 3W MP2A LH1E_EXTENSION_DXF_RINGDESIGN_095 3W MPR02A LHS 01E EXST_SURVEYEXPORT_S2
  6
BYLAYER
  62
7
  100
AcDbVertex
  100
AcDb3dPolylineVertex
  10
7126.8370144824457
  20
-23224.360388902758
  30
-993.30902116293441
  70
32
  0
VERTEX
  5
27D
  330

  100
AcDbEntity
  8
95 3W MP2A LH1E_EXTENSION_DXF_RINGDESIGN_095 3W MPR02A LHS 01E EXST_SURVEYEXPORT_S2
  6
BYLAYER
  62
7
  100
AcDbVertex
  100
AcDb3dPolylineVertex
  10
7126.7611415987267
  20
-23222.630487153943
  30
-987.04390478373068
  70
32
  0
SEQEND
  5
27E
  330

  100
AcDbEntity
  8
95 3W MP2A LH1E_EXTENSION_DXF_RINGDESIGN_095 3W MPR02A LHS 01E EXST_SURVEYEXPORT_S2
  0
POLYLINE
  5
27F
  330
19B
  100
AcDbEntity
  8
95 3W MP2A LH1E_EXTENSION_DXF_RINGDESIGN_095 3W MPR02A LHS 01E EXST_SURVEYEXPORT_S2
  62
7
  100
AcDb3dPolyline
  10
0
  20
0
  30
0
  70
8
  0
VERTEX
  5
280
  330

  100
AcDbEntity
  8
95 3W MP2A LH1E_EXTENSION_DXF_RINGDESIGN_095 3W MPR02A LHS 01E EXST_SURVEYEXPORT_S2
  6
BYLAYER
  62
7
  100
AcDbVertex
  100
AcDb3dPolylineVertex
  10
7126.8478866538107
  20
-23224.608274409911
  30
-993.04575665435561
  70
32
  0
VERTEX
  5
281
  330

  100
AcDbEntity
  8
95 3W MP2A LH1E_EXTENSION_DXF_RINGDESIGN_095 3W MPR02A LHS 01E EXST_SURVEYEXPORT_S2
  6
BYLAYER
  62
7
  100
AcDbVertex
  100
AcDb3dPolylineVertex
  10
7126.8254316937964
  20
-23224.096301321555
  30
-986.77970385024912
  70
32
  0
SEQEND
  5
282
  330

  100
AcDbEntity
  8
95 3W MP2A LH1E_EXTENSION_DXF_RINGDESIGN_095 3W MPR02A LHS 01E EXST_SURVEYEXPORT_S2
  0
POLYLINE
  5
283
  330
19B
  100
AcDbEntity
  8
95 3W MP2A LH1E_EXTENSION_DXF_RINGDESIGN_095 3W MPR02A LHS 01E EXST_SURVEYEXPORT_S2
  62
7
  100
AcDb3dPolyline
  10
0
  20
0
  30
0
  70
8
  0
VERTEX
  5
284
  330

  100
AcDbEntity
  8
95 3W MP2A LH1E_EXTENSION_DXF_RINGDESIGN_095 3W MPR02A LHS 01E EXST_SURVEYEXPORT_S2
  6
BYLAYER
  62
7
  100
AcDbVertex
  100
AcDb3dPolylineVertex
  10
7126.8947117842272
  20
-23225.675887383397
  30
-992.66005793638328
  70
32
  0
VERTEX
  5
285
  330

  100
AcDbEntity
  8
95 3W MP2A LH1E_EXTENSION_DXF_RINGDESIGN_095 3W MPR02A LHS 01E EXST_SURVEYEXPORT_S2
  6
BYLAYER
  62
7
  100
AcDbVertex
  100
AcDb3dPolylineVertex
  10
7126.8890096582372
  20
-23225.545878910845
  30
-986.97756355566059
  70
32
  0
SEQEND
  5
286
  330

  100
AcDbEntity
  8
95 3W MP2A LH1E_EXTENSION_DXF_RINGDESIGN_095 3W MPR02A LHS 01E EXST_SURVEYEXPORT_S2
  0
POLYLINE
  5
287
  330
19B
  100
AcDbEntity
  8
95 3W MP2A LH1E_EXTENSION_DXF_RINGDESIGN_095 3W MPR02A LHS 01E EXST_SURVEYEXPORT_S2
  62
7
  100
AcDb3dPolyline
  10
0
  20
0
  30
0
  70
8
  0
VERTEX
  5
288
  330

  100
AcDbEntity
  8
95 3W MP2A LH1E_EXTENSION_DXF_RINGDESIGN_095 3W MPR02A LHS 01E EXST_SURVEYEXPORT_S2
  6
BYLAYER
  62
7
  100
AcDbVertex
  100
AcDb3dPolylineVertex
  10
7126.9387824559608
  20
-23226.680698698932
  30
-992.70676355123135
  70
32
  0
VERTEX
  5
289
  330

  100
AcDbEntity
  8
95 3W MP2A LH1E_EXTENSION_DXF_RINGDESIGN_095 3W MPR02A LHS 01E EXST_SURVEYEXPORT_S2
  6
BYLAYER
  62
7
  100
AcDbVertex
  100
AcDb3dPolylineVertex
  10
7126.9394096313472
  20
-23226.694998297753
  30
-987.239065357729
  70
32
  0
SEQEND
  5
28A
  330

  100
AcDbEntity
  8
95 3W MP2A LH1E_EXTENSION_DXF_RINGDESIGN_095 3W MPR02A LHS 01E EXST_SURVEYEXPORT_S2
  0
POLYLINE
  5
28B
  330
19B
  100
AcDbEntity
  8
95 3W MP2A LH1E_EXTENSION_DXF_RINGDESIGN_095 3W MPR02A LHS 01E EXST_SURVEYEXPORT_S2
  62
7
  100
AcDb3dPolyline
  10
0
  20
0
  30
0
  70
8
  0
VERTEX
  5
28C
  330

  100
AcDbEntity
  8
95 3W MP2A LH1E_EXTENSION_DXF_RINGDESIGN_095 3W MPR02A LHS 01E EXST_SURVEYEXPORT_S2
  6
BYLAYER
  62
7
  100
AcDbVertex
  100
AcDb3dPolylineVertex
  10
7126.9784426522665
  20
-23227.584951174718
  30
-992.70676355123135
  70
32
  0
VERTEX
  5
28D
  330

  100
AcDbEntity
  8
95 3W MP2A LH1E_EXTENSION_DXF_RINGDESIGN_095 3W MPR02A LHS 01E EXST_SURVEYEXPORT_S2
  6
BYLAYER
  62
7
  100
AcDbVertex
  100
AcDb3dPolylineVertex
  10
7126.9784426522656
  20
-23227.584951174718
  30
-987.43573735384689
  70
32
  0
SEQEND
  5
28E
  330

  100
AcDbEntity
  8
95 3W MP2A LH1E_EXTENSION_DXF_RINGDESIGN_095 3W MPR02A LHS 01E EXST_SURVEYEXPORT_S2
  0
POLYLINE
  5
28F
  330
19B
  100
AcDbEntity
  8
95 3W MP2A LH1E_EXTENSION_DXF_RINGDESIGN_095 3W MPR02A LHS 01E EXST_SURVEYEXPORT_S2
  62
7
  100
AcDb3dPolyline
  10
0
  20
0
  30
0
  70
8
  0
VERTEX
  5
290
  330

  100
AcDbEntity
  8
95 3W MP2A LH1E_EXTENSION_DXF_RINGDESIGN_095 3W MPR02A LHS 01E EXST_SURVEYEXPORT_S2
  6
BYLAYER
  62
7
  100
AcDbVertex
  100
AcDb3dPolylineVertex
  10
7127.1015978612795
  20
-23230.392889940198
  30
-992.705413279482
  70
32
  0
VERTEX
  5
291
  330

  100
AcDbEntity
  8
95 3W MP2A LH1E_EXTENSION_DXF_RINGDESIGN_095 3W MPR02A LHS 01E EXST_SURVEYEXPORT_S2
  6
BYLAYER
  62
7
  100
AcDbVertex
  100
AcDb3dPolylineVertex
  10
7127.09937083983
  20
-23230.342113851159
  30
-988.9570766269311
  70
32
  0
SEQEND
  5
292
  330

  100
AcDbEntity
  8
95 3W MP2A LH1E_EXTENSION_DXF_RINGDESIGN_095 3W MPR02A LHS 01E EXST_SURVEYEXPORT_S2
  0
POLYLINE
  5
293
  330
19B
  100
AcDbEntity
  8
95 3W MP2A LH1E_EXTENSION_DXF_RINGDESIGN_095 3W MPR02A LHS 01E EXST_SURVEYEXPORT_S2
  62
7
  100
AcDb3dPolyline
  10
0
  20
0
  30
0
  70
8
  0
VERTEX
  5
294
  330

  100
AcDbEntity
  8
95 3W MP2A LH1E_EXTENSION_DXF_RINGDESIGN_095 3W MPR02A LHS 01E EXST_SURVEYEXPORT_S2
  6
BYLAYER
  62
7
  100
AcDbVertex
  100
AcDb3dPolylineVertex
  10
7127.1272080382641
  20
-23230.976801975463
  30
-992.777210949371
  70
32
  0
VERTEX
  5
295
  330

  100
AcDbEntity
  8
95 3W MP2A LH1E_EXTENSION_DXF_RINGDESIGN_095 3W MPR02A LHS 01E EXST_SURVEYEXPORT_S2
  6
BYLAYER
  62
7
  100
AcDbVertex
  100
AcDb3dPolylineVertex
  10
7127.1343169017027
  20
-23231.138884061864
  30
-990.44504102721828
  70
32
  0
SEQEND
  5
296
  330

  100
AcDbEntity
  8
95 3W MP2A LH1E_EXTENSION_DXF_RINGDESIGN_095 3W MPR02A LHS 01E EXST_SURVEYEXPORT_S2
  0
POLYLINE
  5
297
  330
19B
  100
AcDbEntity
  8
95 3W MP2A LH1E_EXTENSION_DXF_RINGDESIGN_095 3W MPR02A LHS 01E EXST_SURVEYEXPORT_S2
  62
7
  100
AcDb3dPolyline
  10
0
  20
0
  30
0
  70
8
  0
VERTEX
  5
298
  330

  100
AcDbEntity
  8
95 3W MP2A LH1E_EXTENSION_DXF_RINGDESIGN_095 3W MPR02A LHS 01E EXST_SURVEYEXPORT_S2
  6
BYLAYER
  62
7
  100
AcDbVertex
  100
AcDb3dPolylineVertex
  10
7127.0159141848144
  20
-23228.439302116782
  30
-992.72231492708613
  70
32
  0
VERTEX
  5
299
  330

  100
AcDbEntity
  8
95 3W MP2A LH1E_EXTENSION_DXF_RINGDESIGN_095 3W MPR02A LHS 01E EXST_SURVEYEXPORT_S2
  6
BYLAYER
  62
7
  100
AcDbVertex
  100
AcDb3dPolylineVertex
  10
7127.0158769540712
  20
-23228.438453255818
  30
-987.72231499928125
  70
32
  0
SEQEND
  5
29A
  330

  100
AcDbEntity
  8
95 3W MP2A LH1E_EXTENSION_DXF_RINGDESIGN_095 3W MPR02A LHS 01E EXST_SURVEYEXPORT_S2
  0
POLYLINE
  5
29B
  330
19B
  100
AcDbEntity
  8
95 3W MP2A LH1E_EXTENSION_DXF_RINGDESIGN_095 3W MPR02A LHS 01E EXST_SURVEYEXPORT_S2
  62
7
  100
AcDb3dPolyline
  10
0
  20
0
  30
0
  70
8
  0
VERTEX
  5
29C
  330

  100
AcDbEntity
  8
95 3W MP2A LH1E_EXTENSION_DXF_RINGDESIGN_095 3W MPR02A LHS 01E EXST_SURVEYEXPORT_S2
  6
BYLAYER
  62
7
  100
AcDbVertex
  100
AcDb3dPolylineVertex
  10
7127.0378230877086
  20
-23228.938825102785
  30
-992.74118297288067
  70
32
  0
VERTEX
  5
29D
  330

  100
AcDbEntity
  8
95 3W MP2A LH1E_EXTENSION_DXF_RINGDESIGN_095 3W MPR02A LHS 01E EXST_SURVEYEXPORT_S2
  6
BYLAYER
  62
7
  100
AcDbVertex
  100
AcDb3dPolylineVertex
  10
7127.0377858569645
  20
-23228.937976241818
  30
-987.74118304507579
  70
32
  0
SEQEND
  5
29E
  330

  100
AcDbEntity
  8
95 3W MP2A LH1E_EXTENSION_DXF_RINGDESIGN_095 3W MPR02A LHS 01E EXST_SURVEYEXPORT_S2
  0
POLYLINE
  5
29F
  330
19B
  100
AcDbEntity
  8
95 3W MP2A LH1E_EXTENSION_DXF_RINGDESIGN_095 3W MPR02A LHS 01E EXST_SURVEYEXPORT_S2
  62
7
  100
AcDb3dPolyline
  10
0
  20
0
  30
0
  70
8
  0
VERTEX
  5
2A0
  330

  100
AcDbEntity
  8
95 3W MP2A LH1E_EXTENSION_DXF_RINGDESIGN_095 3W MPR02A LHS 01E EXST_SURVEYEXPORT_S2
  6
BYLAYER
  62
7
  100
AcDbVertex
  100
AcDb3dPolylineVertex
  10
7127.0597317910451
  20
-23229.438343538863
  30
-992.73325078341441
  70
32
  0
VERTEX
  5
2A1
  330

  100
AcDbEntity
  8
95 3W MP2A LH1E_EXTENSION_DXF_RINGDESIGN_095 3W MPR02A LHS 01E EXST_SURVEYEXPORT_S2
  6
BYLAYER
  62
7
  100
AcDbVertex
  100
AcDb3dPolylineVertex
  10
7127.0596945603011
  20
-23229.4374946779
  30
-987.73325085560953
  70
32
  0
SEQEND
  5
2A2
  330

  100
AcDbEntity
  8
95 3W MP2A LH1E_EXTENSION_DXF_RINGDESIGN_095 3W MPR02A LHS 01E EXST_SURVEYEXPORT_S2
  0
LWPOLYLINE
  5
2A3
  330
19B
  100
AcDbEntity
  8
95 3W MP2A LH1E_EXTENSION_DXF_RINGDESIGN_095 3W MPR02A LHS 01E EXST_SURVEYEXPORT
  62
7
  100
AcDbPolyline
  90
2
  43
0
  38
-994.40350000513058
  10
7126.3512996643121
  20
-23218.99157087136
  10
7127.2276501476908
  20
-23238.972361892498
  0
LWPOLYLINE
  5
2A4
  330
19B
  100
AcDbEntity
  8
95 3W MP2A LH1E_EXTENSION_DXF_RINGDESIGN_095 3W MPR02A LHS 01E EXST_SURVEYEXPORT
  62
1
  100
AcDbPolyline
  90
2
  43
0
  38
-994.40350000513058
  10
7123.1743538919518
  20
-23219.130910598218
  10
7124.0507043753305
  20
-23239.111701619357
  0
POLYLINE
  5
2A5
  330
19B
  100
AcDbEntity
  8
95 3W MP2A LH1E_EXTENSION_DXF_RINGDESIGN_095 3W MPR02A LHS 01E EXST_SURVEYEXPORT_S3
  62
7
  100
AcDb3dPolyline
  10
0
  20
0
  30
0
  70
8
  0
VERTEX
  5
2A6
  330

  100
AcDbEntity
  8
95 3W MP2A LH1E_EXTENSION_DXF_RINGDESIGN_095 3W MPR02A LHS 01E EXST_SURVEYEXPORT_S3
  6
BYLAYER
  62
7
  100
AcDbVertex
  100
AcDb3dPolylineVertex
  10
7126.7442454713482
  20
-23227.95073527185
  30
-992.7134865593697
  70
32
  0
VERTEX
  5
2A7
  330

  100
AcDbEntity
  8
95 3W MP2A LH1E_EXTENSION_DXF_RINGDESIGN_095 3W MPR02A LHS 01E EXST_SURVEYEXPORT_S3
  6
BYLAYER
  62
7
  100
AcDbVertex
  100
AcDb3dPolylineVertex
  10
7126.7442067513748
  20
-23227.949852456448
  30
-987.51348663445265
  70
32
  0
SEQEND
  5
2A8
  330

  100
AcDbEntity
  8
95 3W MP2A LH1E_EXTENSION_DXF_RINGDESIGN_095 3W MPR02A LHS 01E EXST_SURVEYEXPORT_S3
  0
POLYLINE
  5
2A9
  330
19B
  100
AcDbEntity
  8
95 3W MP2A LH1E_EXTENSION_DXF_RINGDESIGN_095 3W MPR02A LHS 01E EXST_SURVEYEXPORT_S3
  62
7
  100
AcDb3dPolyline
  10
0
  20
0
  30
0
  70
8
  0
VERTEX
  5
2AA
  330

  100
AcDbEntity
  8
95 3W MP2A LH1E_EXTENSION_DXF_RINGDESIGN_095 3W MPR02A LHS 01E EXST_SURVEYEXPORT_S3
  6
BYLAYER
  62
7
  100
AcDbVertex
  100
AcDb3dPolylineVertex
  10
7126.777108962654
  20
-23228.700022873614
  30
-992.76018240809549
  70
32
  0
VERTEX
  5
2AB
  330

  100
AcDbEntity
  8
95 3W MP2A LH1E_EXTENSION_DXF_RINGDESIGN_095 3W MPR02A LHS 01E EXST_SURVEYEXPORT_S3
  6
BYLAYER
  62
7
  100
AcDbVertex
  100
AcDb3dPolylineVertex
  10
7126.77707024268
  20
-23228.699140058208
  30
-987.56018248317844
  70
32
  0
SEQEND
  5
2AC
  330

  100
AcDbEntity
  8
95 3W MP2A LH1E_EXTENSION_DXF_RINGDESIGN_095 3W MPR02A LHS 01E EXST_SURVEYEXPORT_S3
  0
POLYLINE
  5
2AD
  330
19B
  100
AcDbEntity
  8
95 3W MP2A LH1E_EXTENSION_DXF_RINGDESIGN_095 3W MPR02A LHS 01E EXST_SURVEYEXPORT_S3
  62
7
  100
AcDb3dPolyline
  10
0
  20
0
  30
0
  70
8
  0
VERTEX
  5
2AE
  330

  100
AcDbEntity
  8
95 3W MP2A LH1E_EXTENSION_DXF_RINGDESIGN_095 3W MPR02A LHS 01E EXST_SURVEYEXPORT_S3
  6
BYLAYER
  62
7
  100
AcDbVertex
  100
AcDb3dPolylineVertex
  10
7126.7990176277553
  20
-23229.199540437945
  30
-992.747115401751
  70
32
  0
VERTEX
  5
2AF
  330

  100
AcDbEntity
  8
95 3W MP2A LH1E_EXTENSION_DXF_RINGDESIGN_095 3W MPR02A LHS 01E EXST_SURVEYEXPORT_S3
  6
BYLAYER
  62
7
  100
AcDbVertex
  100
AcDb3dPolylineVertex
  10
7126.798978907781
  20
-23229.198657622543
  30
-987.54711547683394
  70
32
  0
SEQEND
  5
2B0
  330

  100
AcDbEntity
  8
95 3W MP2A LH1E_EXTENSION_DXF_RINGDESIGN_095 3W MPR02A LHS 01E EXST_SURVEYEXPORT_S3
  0
POLYLINE
  5
2B1
  330
19B
  100
AcDbEntity
  8
95 3W MP2A LH1E_EXTENSION_DXF_RINGDESIGN_095 3W MPR02A LHS 01E EXST_SURVEYEXPORT_S3
  62
7
  100
AcDb3dPolyline
  10
0
  20
0
  30
0
  70
8
  0
VERTEX
  5
2B2
  330

  100
AcDbEntity
  8
95 3W MP2A LH1E_EXTENSION_DXF_RINGDESIGN_095 3W MPR02A LHS 01E EXST_SURVEYEXPORT_S3
  6
BYLAYER
  62
7
  100
AcDbVertex
  100
AcDb3dPolylineVertex
  10
7126.8318806097859
  20
-23229.948816428237
  30
-992.72541679500807
  70
32
  0
VERTEX
  5
2B3
  330

  100
AcDbEntity
  8
95 3W MP2A LH1E_EXTENSION_DXF_RINGDESIGN_095 3W MPR02A LHS 01E EXST_SURVEYEXPORT_S3
  6
BYLAYER
  62
7
  100
AcDbVertex
  100
AcDb3dPolylineVertex
  10
7126.8318418898125
  20
-23229.947933612839
  30
-987.525416870091
  70
32
  0
SEQEND
  5
2B4
  330

  100
AcDbEntity
  8
95 3W MP2A LH1E_EXTENSION_DXF_RINGDESIGN_095 3W MPR02A LHS 01E EXST_SURVEYEXPORT_S3
  0
LWPOLYLINE
  5
2B5
  330
19B
  100
AcDbEntity
  8
95 3W MP2A LH1E_EXTENSION_DXF_RINGDESIGN_095 3W MPR02A LHS 01E EXST_SURVEYEXPORT
  62
7
  100
AcDbPolyline
  90
2
  43
0
  38
-994.40350000513058
  10
7126.1015397765477
  20
-23219.0025252524
  10
7126.9778902599264
  20
-23238.983316273538
  0
LWPOLYLINE
  5
2B6
  330
19B
  100
AcDbEntity
  8
95 3W MP2A LH1E_EXTENSION_DXF_RINGDESIGN_095 3W MPR02A LHS 01E EXST_SURVEYEXPORT
  62
1
  100
AcDbPolyline
  90
2
  43
0
  38
-994.40350000513058
  10
7122.9245940041874
  20
-23219.141864979258
  10
7123.8009444875661
  20
-23239.122656000396
  0
POLYLINE
  5
2B7
  330
19B
  100
AcDbEntity
  8
95 3W MP2A LH1E_EXTENSION_DXF_RINGDESIGN_095 3W MPR02A LHS 01E EXST_SURVEYEXPORT_S4
  62
7
  100
AcDb3dPolyline
  10
0
  20
0
  30
0
  70
8
  0
VERTEX
  5
2B8
  330

  100
AcDbEntity
  8
95 3W MP2A LH1E_EXTENSION_DXF_RINGDESIGN_095 3W MPR02A LHS 01E EXST_SURVEYEXPORT_S4
  6
BYLAYER
  62
7
  100
AcDbVertex
  100
AcDb3dPolylineVertex
  10
7126.3293144537
  20
-23224.195787891465
  30
-992.72548454977994
  70
32
  0
VERTEX
  5
2B9
  330

  100
AcDbEntity
  8
95 3W MP2A LH1E_EXTENSION_DXF_RINGDESIGN_095 3W MPR02A LHS 01E EXST_SURVEYEXPORT_S4
  6
BYLAYER
  62
7
  100
AcDbVertex
  100
AcDb3dPolylineVertex
  10
7126.292634452444
  20
-23223.359483862838
  30
-987.39135432390583
  70
32
  0
SEQEND
  5
2BA
  330

  100
AcDbEntity
  8
95 3W MP2A LH1E_EXTENSION_DXF_RINGDESIGN_095 3W MPR02A LHS 01E EXST_SURVEYEXPORT_S4
  0
POLYLINE
  5
2BB
  330
19B
  100
AcDbEntity
  8
95 3W MP2A LH1E_EXTENSION_DXF_RINGDESIGN_095 3W MPR02A LHS 01E EXST_SURVEYEXPORT_S4
  62
7
  100
AcDb3dPolyline
  10
0
  20
0
  30
0
  70
8
  0
VERTEX
  5
2BC
  330

  100
AcDbEntity
  8
95 3W MP2A LH1E_EXTENSION_DXF_RINGDESIGN_095 3W MPR02A LHS 01E EXST_SURVEYEXPORT_S4
  6
BYLAYER
  62
7
  100
AcDbVertex
  100
AcDb3dPolylineVertex
  10
7126.3707505372849
  20
-23225.140530597244
  30
-992.56647131268619
  70
32
  0
VERTEX
  5
2BD
  330

  100
AcDbEntity
  8
95 3W MP2A LH1E_EXTENSION_DXF_RINGDESIGN_095 3W MPR02A LHS 01E EXST_SURVEYEXPORT_S4
  6
BYLAYER
  62
7
  100
AcDbVertex
  100
AcDb3dPolylineVertex
  10
7126.3625777670632
  20
-23224.954191436183
  30
-987.51182531870018
  70
32
  0
SEQEND
  5
2BE
  330

  100
AcDbEntity
  8
95 3W MP2A LH1E_EXTENSION_DXF_RINGDESIGN_095 3W MPR02A LHS 01E EXST_SURVEYEXPORT_S4
  0
POLYLINE
  5
2BF
  330
19B
  100
AcDbEntity
  8
95 3W MP2A LH1E_EXTENSION_DXF_RINGDESIGN_095 3W MPR02A LHS 01E EXST_SURVEYEXPORT_S4
  62
7
  100
AcDb3dPolyline
  10
0
  20
0
  30
0
  70
8
  0
VERTEX
  5
2C0
  330

  100
AcDbEntity
  8
95 3W MP2A LH1E_EXTENSION_DXF_RINGDESIGN_095 3W MPR02A LHS 01E EXST_SURVEYEXPORT_S4
  6
BYLAYER
  62
7
  100
AcDbVertex
  100
AcDb3dPolylineVertex
  10
7126.4166476131268
  20
-23226.186983926429
  30
-992.61884428070687
  70
32
  0
VERTEX
  5
2C1
  330

  100
AcDbEntity
  8
95 3W MP2A LH1E_EXTENSION_DXF_RINGDESIGN_095 3W MPR02A LHS 01E EXST_SURVEYEXPORT_S4
  6
BYLAYER
  62
7
  100
AcDbVertex
  100
AcDb3dPolylineVertex
  10
7126.4148159958113
  20
-23226.145223051648
  30
-987.35191544286886
  70
32
  0
SEQEND
  5
2C2
  330

  100
AcDbEntity
  8
95 3W MP2A LH1E_EXTENSION_DXF_RINGDESIGN_095 3W MPR02A LHS 01E EXST_SURVEYEXPORT_S4
  0
POLYLINE
  5
2C3
  330
19B
  100
AcDbEntity
  8
95 3W MP2A LH1E_EXTENSION_DXF_RINGDESIGN_095 3W MPR02A LHS 01E EXST_SURVEYEXPORT_S4
  62
7
  100
AcDb3dPolyline
  10
0
  20
0
  30
0
  70
8
  0
VERTEX
  5
2C4
  330

  100
AcDbEntity
  8
95 3W MP2A LH1E_EXTENSION_DXF_RINGDESIGN_095 3W MPR02A LHS 01E EXST_SURVEYEXPORT_S4
  6
BYLAYER
  62
7
  100
AcDbVertex
  100
AcDb3dPolylineVertex
  10
7126.4642899013024
  20
-23227.273228096859
  30
-992.65000821202841
  70
32
  0
VERTEX
  5
2C5
  330

  100
AcDbEntity
  8
95 3W MP2A LH1E_EXTENSION_DXF_RINGDESIGN_095 3W MPR02A LHS 01E EXST_SURVEYEXPORT_S4
  6
BYLAYER
  62
7
  100
AcDbVertex
  100
AcDb3dPolylineVertex
  10
7126.465640467477
  20
-23227.304021005639
  30
-987.56429369460159
  70
32
  0
SEQEND
  5
2C6
  330

  100
AcDbEntity
  8
95 3W MP2A LH1E_EXTENSION_DXF_RINGDESIGN_095 3W MPR02A LHS 01E EXST_SURVEYEXPORT_S4
  0
POLYLINE
  5
2C7
  330
19B
  100
AcDbEntity
  8
95 3W MP2A LH1E_EXTENSION_DXF_RINGDESIGN_095 3W MPR02A LHS 01E EXST_SURVEYEXPORT_S4
  62
7
  100
AcDb3dPolyline
  10
0
  20
0
  30
0
  70
8
  0
VERTEX
  5
2C8
  330

  100
AcDbEntity
  8
95 3W MP2A LH1E_EXTENSION_DXF_RINGDESIGN_095 3W MPR02A LHS 01E EXST_SURVEYEXPORT_S4
  6
BYLAYER
  62
7
  100
AcDbVertex
  100
AcDb3dPolylineVertex
  10
7126.5844293780874
  20
-23230.012408167531
  30
-992.644001688991
  70
32
  0
VERTEX
  5
2C9
  330

  100
AcDbEntity
  8
95 3W MP2A LH1E_EXTENSION_DXF_RINGDESIGN_095 3W MPR02A LHS 01E EXST_SURVEYEXPORT_S4
  6
BYLAYER
  62
7
  100
AcDbVertex
  100
AcDb3dPolylineVertex
  10
7126.586342777252
  20
-23230.056033668487
  30
-987.68548844071643
  70
32
  0
SEQEND
  5
2CA
  330

  100
AcDbEntity
  8
95 3W MP2A LH1E_EXTENSION_DXF_RINGDESIGN_095 3W MPR02A LHS 01E EXST_SURVEYEXPORT_S4
  0
POLYLINE
  5
2CB
  330
19B
  100
AcDbEntity
  8
95 3W MP2A LH1E_EXTENSION_DXF_RINGDESIGN_095 3W MPR02A LHS 01E EXST_SURVEYEXPORT_S4
  62
7
  100
AcDb3dPolyline
  10
0
  20
0
  30
0
  70
8
  0
VERTEX
  5
2CC
  330

  100
AcDbEntity
  8
95 3W MP2A LH1E_EXTENSION_DXF_RINGDESIGN_095 3W MPR02A LHS 01E EXST_SURVEYEXPORT_S4
  6
BYLAYER
  62
7
  100
AcDbVertex
  100
AcDb3dPolylineVertex
  10
7126.6260332459715
  20
-23230.960976355298
  30
-992.68222908691371
  70
32
  0
VERTEX
  5
2CD
  330

  100
AcDbEntity
  8
95 3W MP2A LH1E_EXTENSION_DXF_RINGDESIGN_095 3W MPR02A LHS 01E EXST_SURVEYEXPORT_S4
  6
BYLAYER
  62
7
  100
AcDbVertex
  100
AcDb3dPolylineVertex
  10
7126.62240890825
  20
-23230.878341455256
  30
-988.82222641640283
  70
32
  0
SEQEND
  5
2CE
  330

  100
AcDbEntity
  8
95 3W MP2A LH1E_EXTENSION_DXF_RINGDESIGN_095 3W MPR02A LHS 01E EXST_SURVEYEXPORT_S4
  0
POLYLINE
  5
2CF
  330
19B
  100
AcDbEntity
  8
95 3W MP2A LH1E_EXTENSION_DXF_RINGDESIGN_095 3W MPR02A LHS 01E EXST_SURVEYEXPORT_S4
  62
7
  100
AcDb3dPolyline
  10
0
  20
0
  30
0
  70
8
  0
VERTEX
  5
2D0
  330

  100
AcDbEntity
  8
95 3W MP2A LH1E_EXTENSION_DXF_RINGDESIGN_095 3W MPR02A LHS 01E EXST_SURVEYEXPORT_S4
  6
BYLAYER
  62
7
  100
AcDbVertex
  100
AcDb3dPolylineVertex
  10
7126.5383027797243
  20
-23228.96072172487
  30
-992.67742065739969
  70
32
  0
VERTEX
  5
2D1
  330

  100
AcDbEntity
  8
95 3W MP2A LH1E_EXTENSION_DXF_RINGDESIGN_095 3W MPR02A LHS 01E EXST_SURVEYEXPORT_S4
  6
BYLAYER
  62
7
  100
AcDbVertex
  100
AcDb3dPolylineVertex
  10
7126.53826554898
  20
-23228.959872863907
  30
-987.67742072959481
  70
32
  0
SEQEND
  5
2D2
  330

  100
AcDbEntity
  8
95 3W MP2A LH1E_EXTENSION_DXF_RINGDESIGN_095 3W MPR02A LHS 01E EXST_SURVEYEXPORT_S4
  0
POLYLINE
  5
2D3
  330
19B
  100
AcDbEntity
  8
95 3W MP2A LH1E_EXTENSION_DXF_RINGDESIGN_095 3W MPR02A LHS 01E EXST_SURVEYEXPORT_S4
  62
7
  100
AcDb3dPolyline
  10
0
  20
0
  30
0
  70
8
  0
VERTEX
  5
2D4
  330

  100
AcDbEntity
  8
95 3W MP2A LH1E_EXTENSION_DXF_RINGDESIGN_095 3W MPR02A LHS 01E EXST_SURVEYEXPORT_S4
  6
BYLAYER
  62
7
  100
AcDbVertex
  100
AcDb3dPolylineVertex
  10
7126.5602114239327
  20
-23229.460238812826
  30
-992.66154772692835
  70
32
  0
VERTEX
  5
2D5
  330

  100
AcDbEntity
  8
95 3W MP2A LH1E_EXTENSION_DXF_RINGDESIGN_095 3W MPR02A LHS 01E EXST_SURVEYEXPORT_S4
  6
BYLAYER
  62
7
  100
AcDbVertex
  100
AcDb3dPolylineVertex
  10
7126.5601741931887
  20
-23229.459389951859
  30
-987.66154779912347
  70
32
  0
SEQEND
  5
2D6
  330

  100
AcDbEntity
  8
95 3W MP2A LH1E_EXTENSION_DXF_RINGDESIGN_095 3W MPR02A LHS 01E EXST_SURVEYEXPORT_S4
  0
LWPOLYLINE
  5
2D7
  330
19B
  100
AcDbEntity
  8
95 3W MP2A LH1E_EXTENSION_DXF_RINGDESIGN_095 3W MPR02A LHS 01E EXST_SURVEYEXPORT
  62
7
  100
AcDbPolyline
  90
2
  43
0
  38
-994.40350000513058
  10
7125.8517798887833
  20
-23219.013479633442
  10
7126.728130372162
  20
-23238.994270654581
  0
LWPOLYLINE
  5
2D8
  330
19B
  100
AcDbEntity
  8
95 3W MP2A LH1E_EXTENSION_DXF_RINGDESIGN_095 3W MPR02A LHS 01E EXST_SURVEYEXPORT
  62
1
  100
AcDbPolyline
  90
2
  43
0
  38
-994.40350000513058
  10
7122.674834116423
  20
-23219.1528193603
  10
7123.5511845998017
  20
-23239.133610381439
  0
POLYLINE
  5
2D9
  330
19B
  100
AcDbEntity
  8
95 3W MP2A LH1E_EXTENSION_DXF_RINGDESIGN_095 3W MPR02A LHS 01E EXST_SURVEYEXPORT_S5
  62
7
  100
AcDb3dPolyline
  10
0
  20
0
  30
0
  70
8
  0
VERTEX
  5
2DA
  330

  100
AcDbEntity
  8
95 3W MP2A LH1E_EXTENSION_DXF_RINGDESIGN_095 3W MPR02A LHS 01E EXST_SURVEYEXPORT_S5
  6
BYLAYER
  62
7
  100
AcDbVertex
  100
AcDb3dPolylineVertex
  10
7126.2447258328384
  20
-23227.972647157938
  30
-992.73201784462321
  70
32
  0
VERTEX
  5
2DB
  330

  100
AcDbEntity
  8
95 3W MP2A LH1E_EXTENSION_DXF_RINGDESIGN_095 3W MPR02A LHS 01E EXST_SURVEYEXPORT_S5
  6
BYLAYER
  62
7
  100
AcDbVertex
  100
AcDb3dPolylineVertex
  10
7126.2446886020944
  20
-23227.971798296971
  30
-987.73201791681834
  70
32
  0
SEQEND
  5
2DC
  330

  100
AcDbEntity
  8
95 3W MP2A LH1E_EXTENSION_DXF_RINGDESIGN_095 3W MPR02A LHS 01E EXST_SURVEYEXPORT_S5
  0
POLYLINE
  5
2DD
  330
19B
  100
AcDbEntity
  8
95 3W MP2A LH1E_EXTENSION_DXF_RINGDESIGN_095 3W MPR02A LHS 01E EXST_SURVEYEXPORT_S5
  62
7
  100
AcDb3dPolyline
  10
0
  20
0
  30
0
  70
8
  0
VERTEX
  5
2DE
  330

  100
AcDbEntity
  8
95 3W MP2A LH1E_EXTENSION_DXF_RINGDESIGN_095 3W MPR02A LHS 01E EXST_SURVEYEXPORT_S5
  6
BYLAYER
  62
7
  100
AcDbVertex
  100
AcDb3dPolylineVertex
  10
7126.27758878656
  20
-23228.721922502791
  30
-992.70651746975784
  70
32
  0
VERTEX
  5
2DF
  330

  100
AcDbEntity
  8
95 3W MP2A LH1E_EXTENSION_DXF_RINGDESIGN_095 3W MPR02A LHS 01E EXST_SURVEYEXPORT_S5
  6
BYLAYER
  62
7
  100
AcDbVertex
  100
AcDb3dPolylineVertex
  10
7126.277551555816
  20
-23228.721073641824
  30
-987.706517541953
  70
32
  0
SEQEND
  5
2E0
  330

  100
AcDbEntity
  8
95 3W MP2A LH1E_EXTENSION_DXF_RINGDESIGN_095 3W MPR02A LHS 01E EXST_SURVEYEXPORT_S5
  0
POLYLINE
  5
2E1
  330
19B
  100
AcDbEntity
  8
95 3W MP2A LH1E_EXTENSION_DXF_RINGDESIGN_095 3W MPR02A LHS 01E EXST_SURVEYEXPORT_S5
  62
7
  100
AcDb3dPolyline
  10
0
  20
0
  30
0
  70
8
  0
VERTEX
  5
2E2
  330

  100
AcDbEntity
  8
95 3W MP2A LH1E_EXTENSION_DXF_RINGDESIGN_095 3W MPR02A LHS 01E EXST_SURVEYEXPORT_S5
  6
BYLAYER
  62
7
  100
AcDbVertex
  100
AcDb3dPolylineVertex
  10
7126.2994975306383
  20
-23229.22144186778
  30
-992.70405674587323
  70
32
  0
VERTEX
  5
2E3
  330

  100
AcDbEntity
  8
95 3W MP2A LH1E_EXTENSION_DXF_RINGDESIGN_095 3W MPR02A LHS 01E EXST_SURVEYEXPORT_S5
  6
BYLAYER
  62
7
  100
AcDbVertex
  100
AcDb3dPolylineVertex
  10
7126.2994602998942
  20
-23229.220593006816
  30
-987.70405681806835
  70
32
  0
SEQEND
  5
2E4
  330

  100
AcDbEntity
  8
95 3W MP2A LH1E_EXTENSION_DXF_RINGDESIGN_095 3W MPR02A LHS 01E EXST_SURVEYEXPORT_S5
  0
POLYLINE
  5
2E5
  330
19B
  100
AcDbEntity
  8
95 3W MP2A LH1E_EXTENSION_DXF_RINGDESIGN_095 3W MPR02A LHS 01E EXST_SURVEYEXPORT_S5
  62
7
  100
AcDb3dPolyline
  10
0
  20
0
  30
0
  70
8
  0
VERTEX
  5
2E6
  330

  100
AcDbEntity
  8
95 3W MP2A LH1E_EXTENSION_DXF_RINGDESIGN_095 3W MPR02A LHS 01E EXST_SURVEYEXPORT_S5
  6
BYLAYER
  62
7
  100
AcDbVertex
  100
AcDb3dPolylineVertex
  10
7126.3323606467548
  20
-23229.970720915248
  30
-992.7003656600466
  70
32
  0
VERTEX
  5
2E7
  330

  100
AcDbEntity
  8
95 3W MP2A LH1E_EXTENSION_DXF_RINGDESIGN_095 3W MPR02A LHS 01E EXST_SURVEYEXPORT_S5
  6
BYLAYER
  62
7
  100
AcDbVertex
  100
AcDb3dPolylineVertex
  10
7126.3323234160116
  20
-23229.969872054287
  30
-987.70036573224172
  70
32
  0
SEQEND
  5
2E8
  330

  100
AcDbEntity
  8
95 3W MP2A LH1E_EXTENSION_DXF_RINGDESIGN_095 3W MPR02A LHS 01E EXST_SURVEYEXPORT_S5
  0
LWPOLYLINE
  5
2E9
  330
19B
  100
AcDbEntity
  8
95 3W MP2A LH1E_EXTENSION_DXF_RINGDESIGN_095 3W MPR02A LHS 01E EXST_SURVEYEXPORT
  62
7
  100
AcDbPolyline
  90
2
  43
0
  38
-994.40350000513058
  10
7125.60202000102
  20
-23219.024434014485
  10
7126.4783704843985
  20
-23239.005225035624
  0
LWPOLYLINE
  5
2EA
  330
19B
  100
AcDbEntity
  8
95 3W MP2A LH1E_EXTENSION_DXF_RINGDESIGN_095 3W MPR02A LHS 01E EXST_SURVEYEXPORT
  62
1
  100
AcDbPolyline
  90
2
  43
0
  38
-994.40350000513058
  10
7122.4250742286595
  20
-23219.163773741344
  10
7123.3014247120382
  20
-23239.144564762482
  0
POLYLINE
  5
2EB
  330
19B
  100
AcDbEntity
  8
95 3W MP2A LH1E_EXTENSION_DXF_RINGDESIGN_095 3W MPR02A LHS 01E EXST_SURVEYEXPORT_S6
  62
7
  100
AcDb3dPolyline
  10
0
  20
0
  30
0
  70
8
  0
VERTEX
  5
2EC
  330

  100
AcDbEntity
  8
95 3W MP2A LH1E_EXTENSION_DXF_RINGDESIGN_095 3W MPR02A LHS 01E EXST_SURVEYEXPORT_S6
  6
BYLAYER
  62
7
  100
AcDbVertex
  100
AcDb3dPolylineVertex
  10
7125.8060798168935
  20
-23223.67699781647
  30
-992.9554892115541
  70
32
  0
VERTEX
  5
2ED
  330

  100
AcDbEntity
  8
95 3W MP2A LH1E_EXTENSION_DXF_RINGDESIGN_095 3W MPR02A LHS 01E EXST_SURVEYEXPORT_S6
  6
BYLAYER
  62
7
  100
AcDbVertex
  100
AcDb3dPolylineVertex
  10
7125.7695398697088
  20
-23222.843887020637
  30
-987.48294351317031
  70
32
  0
SEQEND
  5
2EE
  330

  100
AcDbEntity
  8
95 3W MP2A LH1E_EXTENSION_DXF_RINGDESIGN_095 3W MPR02A LHS 01E EXST_SURVEYEXPORT_S6
  0
POLYLINE
  5
2EF
  330
19B
  100
AcDbEntity
  8
95 3W MP2A LH1E_EXTENSION_DXF_RINGDESIGN_095 3W MPR02A LHS 01E EXST_SURVEYEXPORT_S6
  62
7
  100
AcDb3dPolyline
  10
0
  20
0
  30
0
  70
8
  0
VERTEX
  5
2F0
  330

  100
AcDbEntity
  8
95 3W MP2A LH1E_EXTENSION_DXF_RINGDESIGN_095 3W MPR02A LHS 01E EXST_SURVEYEXPORT_S6
  6
BYLAYER
  62
7
  100
AcDbVertex
  100
AcDb3dPolylineVertex
  10
7125.8407806389969
  20
-23224.468176560422
  30
-992.38908610718158
  70
32
  0
VERTEX
  5
2F1
  330

  100
AcDbEntity
  8
95 3W MP2A LH1E_EXTENSION_DXF_RINGDESIGN_095 3W MPR02A LHS 01E EXST_SURVEYEXPORT_S6
  6
BYLAYER
  62
7
  100
AcDbVertex
  100
AcDb3dPolylineVertex
  10
7125.8366238664357
  20
-23224.373402146015
  30
-987.282158521847
  70
32
  0
SEQEND
  5
2F2
  330

  100
AcDbEntity
  8
95 3W MP2A LH1E_EXTENSION_DXF_RINGDESIGN_095 3W MPR02A LHS 01E EXST_SURVEYEXPORT_S6
  0
POLYLINE
  5
2F3
  330
19B
  100
AcDbEntity
  8
95 3W MP2A LH1E_EXTENSION_DXF_RINGDESIGN_095 3W MPR02A LHS 01E EXST_SURVEYEXPORT_S6
  62
7
  100
AcDb3dPolyline
  10
0
  20
0
  30
0
  70
8
  0
VERTEX
  5
2F4
  330

  100
AcDbEntity
  8
95 3W MP2A LH1E_EXTENSION_DXF_RINGDESIGN_095 3W MPR02A LHS 01E EXST_SURVEYEXPORT_S6
  6
BYLAYER
  62
7
  100
AcDbVertex
  100
AcDb3dPolylineVertex
  10
7125.8962102792975
  20
-23225.731972359259
  30
-992.53917213158263
  70
32
  0
VERTEX
  5
2F5
  330

  100
AcDbEntity
  8
95 3W MP2A LH1E_EXTENSION_DXF_RINGDESIGN_095 3W MPR02A LHS 01E EXST_SURVEYEXPORT_S6
  6
BYLAYER
  62
7
  100
AcDbVertex
  100
AcDb3dPolylineVertex
  10
7125.89903044969
  20
-23225.796272244203
  30
-987.54041334837609
  70
32
  0
SEQEND
  5
2F6
  330

  100
AcDbEntity
  8
95 3W MP2A LH1E_EXTENSION_DXF_RINGDESIGN_095 3W MPR02A LHS 01E EXST_SURVEYEXPORT_S6
  0
POLYLINE
  5
2F7
  330
19B
  100
AcDbEntity
  8
95 3W MP2A LH1E_EXTENSION_DXF_RINGDESIGN_095 3W MPR02A LHS 01E EXST_SURVEYEXPORT_S6
  62
7
  100
AcDb3dPolyline
  10
0
  20
0
  30
0
  70
8
  0
VERTEX
  5
2F8
  330

  100
AcDbEntity
  8
95 3W MP2A LH1E_EXTENSION_DXF_RINGDESIGN_095 3W MPR02A LHS 01E EXST_SURVEYEXPORT_S6
  6
BYLAYER
  62
7
  100
AcDbVertex
  100
AcDb3dPolylineVertex
  10
7125.9423034613237
  20
-23226.782896909455
  30
-992.66397796479509
  70
32
  0
VERTEX
  5
2F9
  330

  100
AcDbEntity
  8
95 3W MP2A LH1E_EXTENSION_DXF_RINGDESIGN_095 3W MPR02A LHS 01E EXST_SURVEYEXPORT_S6
  6
BYLAYER
  62
7
  100
AcDbVertex
  100
AcDb3dPolylineVertex
  10
7125.9441893203948
  20
-23226.82589449628
  30
-987.60690445175555
  70
32
  0
SEQEND
  5
2FA
  330

  100
AcDbEntity
  8
95 3W MP2A LH1E_EXTENSION_DXF_RINGDESIGN_095 3W MPR02A LHS 01E EXST_SURVEYEXPORT_S6
  0
POLYLINE
  5
2FB
  330
19B
  100
AcDbEntity
  8
95 3W MP2A LH1E_EXTENSION_DXF_RINGDESIGN_095 3W MPR02A LHS 01E EXST_SURVEYEXPORT_S6
  62
7
  100
AcDb3dPolyline
  10
0
  20
0
  30
0
  70
8
  0
VERTEX
  5
2FC
  330

  100
AcDbEntity
  8
95 3W MP2A LH1E_EXTENSION_DXF_RINGDESIGN_095 3W MPR02A LHS 01E EXST_SURVEYEXPORT_S6
  6
BYLAYER
  62
7
  100
AcDbVertex
  100
AcDb3dPolylineVertex
  10
7125.9791799716786
  20
-23227.623681345554
  30
-992.67717599453169
  70
32
  0
VERTEX
  5
2FD
  330

  100
AcDbEntity
  8
95 3W MP2A LH1E_EXTENSION_DXF_RINGDESIGN_095 3W MPR02A LHS 01E EXST_SURVEYEXPORT_S6
  6
BYLAYER
  62
7
  100
AcDbVertex
  100
AcDb3dPolylineVertex
  10
7125.9820645022764
  20
-23227.689448643181
  30
-987.73988665851482
  70
32
  0
SEQEND
  5
2FE
  330

  100
AcDbEntity
  8
95 3W MP2A LH1E_EXTENSION_DXF_RINGDESIGN_095 3W MPR02A LHS 01E EXST_SURVEYEXPORT_S6
  0
POLYLINE
  5
2FF
  330
19B
  100
AcDbEntity
  8
95 3W MP2A LH1E_EXTENSION_DXF_RINGDESIGN_095 3W MPR02A LHS 01E EXST_SURVEYEXPORT_S6
  62
7
  100
AcDb3dPolyline
  10
0
  20
0
  30
0
  70
8
  0
VERTEX
  5
300
  330

  100
AcDbEntity
  8
95 3W MP2A LH1E_EXTENSION_DXF_RINGDESIGN_095 3W MPR02A LHS 01E EXST_SURVEYEXPORT_S6
  6
BYLAYER
  62
7
  100
AcDbVertex
  100
AcDb3dPolylineVertex
  10
7126.1024135782509
  20
-23230.433407575445
  30
-992.68381906751279
  70
32
  0
VERTEX
  5
301
  330

  100
AcDbEntity
  8
95 3W MP2A LH1E_EXTENSION_DXF_RINGDESIGN_095 3W MPR02A LHS 01E EXST_SURVEYEXPORT_S6
  6
BYLAYER
  62
7
  100
AcDbVertex
  100
AcDb3dPolylineVertex
  10
7126.10151699898
  20
-23230.412965568041
  30
-988.57102545075963
  70
32
  0
SEQEND
  5
302
  330

  100
AcDbEntity
  8
95 3W MP2A LH1E_EXTENSION_DXF_RINGDESIGN_095 3W MPR02A LHS 01E EXST_SURVEYEXPORT_S6
  0
POLYLINE
  5
303
  330
19B
  100
AcDbEntity
  8
95 3W MP2A LH1E_EXTENSION_DXF_RINGDESIGN_095 3W MPR02A LHS 01E EXST_SURVEYEXPORT_S6
  62
7
  100
AcDb3dPolyline
  10
0
  20
0
  30
0
  70
8
  0
VERTEX
  5
304
  330

  100
AcDbEntity
  8
95 3W MP2A LH1E_EXTENSION_DXF_RINGDESIGN_095 3W MPR02A LHS 01E EXST_SURVEYEXPORT_S6
  6
BYLAYER
  62
7
  100
AcDbVertex
  100
AcDb3dPolylineVertex
  10
7126.1344087375364
  20
-23231.162897207134
  30
-992.7790613644022
  70
32
  0
VERTEX
  5
305
  330

  100
AcDbEntity
  8
95 3W MP2A LH1E_EXTENSION_DXF_RINGDESIGN_095 3W MPR02A LHS 01E EXST_SURVEYEXPORT_S6
  6
BYLAYER
  62
7
  100
AcDbVertex
  100
AcDb3dPolylineVertex
  10
7126.1364787053326
  20
-23231.21009247288
  30
-990.43277634538811
  70
32
  0
SEQEND
  5
306
  330

  100
AcDbEntity
  8
95 3W MP2A LH1E_EXTENSION_DXF_RINGDESIGN_095 3W MPR02A LHS 01E EXST_SURVEYEXPORT_S6
  0
POLYLINE
  5
307
  330
19B
  100
AcDbEntity
  8
95 3W MP2A LH1E_EXTENSION_DXF_RINGDESIGN_095 3W MPR02A LHS 01E EXST_SURVEYEXPORT_S6
  62
7
  100
AcDb3dPolyline
  10
0
  20
0
  30
0
  70
8
  0
VERTEX
  5
308
  330

  100
AcDbEntity
  8
95 3W MP2A LH1E_EXTENSION_DXF_RINGDESIGN_095 3W MPR02A LHS 01E EXST_SURVEYEXPORT_S6
  6
BYLAYER
  62
7
  100
AcDbVertex
  100
AcDb3dPolylineVertex
  10
7126.0168761917921
  20
-23228.483155164133
  30
-992.67717599453169
  70
32
  0
VERTEX
  5
309
  330

  100
AcDbEntity
  8
95 3W MP2A LH1E_EXTENSION_DXF_RINGDESIGN_095 3W MPR02A LHS 01E EXST_SURVEYEXPORT_S6
  6
BYLAYER
  62
7
  100
AcDbVertex
  100
AcDb3dPolylineVertex
  10
7126.0168372313165
  20
-23228.482266865281
  30
-987.44487719071174
  70
32
  0
SEQEND
  5
30A
  330

  100
AcDbEntity
  8
95 3W MP2A LH1E_EXTENSION_DXF_RINGDESIGN_095 3W MPR02A LHS 01E EXST_SURVEYEXPORT_S6
  0
POLYLINE
  5
30B
  330
19B
  100
AcDbEntity
  8
95 3W MP2A LH1E_EXTENSION_DXF_RINGDESIGN_095 3W MPR02A LHS 01E EXST_SURVEYEXPORT_S6
  62
7
  100
AcDb3dPolyline
  10
0
  20
0
  30
0
  70
8
  0
VERTEX
  5
30C
  330

  100
AcDbEntity
  8
95 3W MP2A LH1E_EXTENSION_DXF_RINGDESIGN_095 3W MPR02A LHS 01E EXST_SURVEYEXPORT_S6
  6
BYLAYER
  62
7
  100
AcDbVertex
  100
AcDb3dPolylineVertex
  10
7126.0387849541921
  20
-23228.982674946874
  30
-992.67717599453169
  70
32
  0
VERTEX
  5
30D
  330

  100
AcDbEntity
  8
95 3W MP2A LH1E_EXTENSION_DXF_RINGDESIGN_095 3W MPR02A LHS 01E EXST_SURVEYEXPORT_S6
  6
BYLAYER
  62
7
  100
AcDbVertex
  100
AcDb3dPolylineVertex
  10
7126.0387459460571
  20
-23228.981785561395
  30
-987.43847670215075
  70
32
  0
SEQEND
  5
30E
  330

  100
AcDbEntity
  8
95 3W MP2A LH1E_EXTENSION_DXF_RINGDESIGN_095 3W MPR02A LHS 01E EXST_SURVEYEXPORT_S6
  0
POLYLINE
  5
30F
  330
19B
  100
AcDbEntity
  8
95 3W MP2A LH1E_EXTENSION_DXF_RINGDESIGN_095 3W MPR02A LHS 01E EXST_SURVEYEXPORT_S6
  62
7
  100
AcDb3dPolyline
  10
0
  20
0
  30
0
  70
8
  0
VERTEX
  5
310
  330

  100
AcDbEntity
  8
95 3W MP2A LH1E_EXTENSION_DXF_RINGDESIGN_095 3W MPR02A LHS 01E EXST_SURVEYEXPORT_S6
  6
BYLAYER
  62
7
  100
AcDbVertex
  100
AcDb3dPolylineVertex
  10
7126.0606937165931
  20
-23229.482194729611
  30
-992.67717599453169
  70
32
  0
VERTEX
  5
311
  330

  100
AcDbEntity
  8
95 3W MP2A LH1E_EXTENSION_DXF_RINGDESIGN_095 3W MPR02A LHS 01E EXST_SURVEYEXPORT_S6
  6
BYLAYER
  62
7
  100
AcDbVertex
  100
AcDb3dPolylineVertex
  10
7126.0606546901345
  20
-23229.481304926361
  30
-987.43601597826625
  70
32
  0
SEQEND
  5
312
  330

  100
AcDbEntity
  8
95 3W MP2A LH1E_EXTENSION_DXF_RINGDESIGN_095 3W MPR02A LHS 01E EXST_SURVEYEXPORT_S6
  0
LWPOLYLINE
  5
313
  330
19B
  100
AcDbEntity
  8
95 3W MP2A LH1E_EXTENSION_DXF_RINGDESIGN_095 3W MPR02A LHS 01E EXST_SURVEYEXPORT
  62
7
  100
AcDbPolyline
  90
2
  43
0
  38
-994.40350000513058
  10
7125.102500225491
  20
-23219.046342776568
  10
7125.97885070887
  20
-23239.027133797706
  0
LWPOLYLINE
  5
314
  330
19B
  100
AcDbEntity
  8
95 3W MP2A LH1E_EXTENSION_DXF_RINGDESIGN_095 3W MPR02A LHS 01E EXST_SURVEYEXPORT
  62
1
  100
AcDbPolyline
  90
2
  43
0
  38
-994.40350000513058
  10
7121.9255544531306
  20
-23219.185682503427
  10
7122.8019049365093
  20
-23239.166473524565
  0
POLYLINE
  5
315
  330
19B
  100
AcDbEntity
  8
95 3W MP2A LH1E_EXTENSION_DXF_RINGDESIGN_095 3W MPR02A LHS 01E EXST_SURVEYEXPORT_S7
  62
7
  100
AcDb3dPolyline
  10
0
  20
0
  30
0
  70
8
  0
VERTEX
  5
316
  330

  100
AcDbEntity
  8
95 3W MP2A LH1E_EXTENSION_DXF_RINGDESIGN_095 3W MPR02A LHS 01E EXST_SURVEYEXPORT_S7
  6
BYLAYER
  62
7
  100
AcDbVertex
  100
AcDb3dPolylineVertex
  10
7125.3383587712788
  20
-23224.423917620519
  30
-992.40090078737182
  70
32
  0
VERTEX
  5
317
  330

  100
AcDbEntity
  8
95 3W MP2A LH1E_EXTENSION_DXF_RINGDESIGN_095 3W MPR02A LHS 01E EXST_SURVEYEXPORT_S7
  6
BYLAYER
  62
7
  100
AcDbVertex
  100
AcDb3dPolylineVertex
  10
7125.2822766134905
  20
-23223.145244422954
  30
-987.38266928732673
  70
32
  0
SEQEND
  5
318
  330

  100
AcDbEntity
  8
95 3W MP2A LH1E_EXTENSION_DXF_RINGDESIGN_095 3W MPR02A LHS 01E EXST_SURVEYEXPORT_S7
  0
POLYLINE
  5
319
  330
19B
  100
AcDbEntity
  8
95 3W MP2A LH1E_EXTENSION_DXF_RINGDESIGN_095 3W MPR02A LHS 01E EXST_SURVEYEXPORT_S7
  62
7
  100
AcDb3dPolyline
  10
0
  20
0
  30
0
  70
8
  0
VERTEX
  5
31A
  330

  100
AcDbEntity
  8
95 3W MP2A LH1E_EXTENSION_DXF_RINGDESIGN_095 3W MPR02A LHS 01E EXST_SURVEYEXPORT_S7
  6
BYLAYER
  62
7
  100
AcDbVertex
  100
AcDb3dPolylineVertex
  10
7125.3687593254
  20
-23225.117050254488
  30
-992.44406998157763
  70
32
  0
VERTEX
  5
31B
  330

  100
AcDbEntity
  8
95 3W MP2A LH1E_EXTENSION_DXF_RINGDESIGN_095 3W MPR02A LHS 01E EXST_SURVEYEXPORT_S7
  6
BYLAYER
  62
7
  100
AcDbVertex
  100
AcDb3dPolylineVertex
  10
7125.3648474954416
  20
-23225.02786053146
  30
-987.482904713043
  70
32
  0
SEQEND
  5
31C
  330

  100
AcDbEntity
  8
95 3W MP2A LH1E_EXTENSION_DXF_RINGDESIGN_095 3W MPR02A LHS 01E EXST_SURVEYEXPORT_S7
  0
POLYLINE
  5
31D
  330
19B
  100
AcDbEntity
  8
95 3W MP2A LH1E_EXTENSION_DXF_RINGDESIGN_095 3W MPR02A LHS 01E EXST_SURVEYEXPORT_S7
  62
7
  100
AcDb3dPolyline
  10
0
  20
0
  30
0
  70
8
  0
VERTEX
  5
31E
  330

  100
AcDbEntity
  8
95 3W MP2A LH1E_EXTENSION_DXF_RINGDESIGN_095 3W MPR02A LHS 01E EXST_SURVEYEXPORT_S7
  6
BYLAYER
  62
7
  100
AcDbVertex
  100
AcDb3dPolylineVertex
  10
7125.4104456644855
  20
-23226.067498785673
  30
-992.50166151794508
  70
32
  0
VERTEX
  5
31F
  330

  100
AcDbEntity
  8
95 3W MP2A LH1E_EXTENSION_DXF_RINGDESIGN_095 3W MPR02A LHS 01E EXST_SURVEYEXPORT_S7
  6
BYLAYER
  62
7
  100
AcDbVertex
  100
AcDb3dPolylineVertex
  10
7125.40876817733
  20
-23226.02925207853
  30
-987.563093053616
  70
32
  0
SEQEND
  5
320
  330

  100
AcDbEntity
  8
95 3W MP2A LH1E_EXTENSION_DXF_RINGDESIGN_095 3W MPR02A LHS 01E EXST_SURVEYEXPORT_S7
  0
POLYLINE
  5
321
  330
19B
  100
AcDbEntity
  8
95 3W MP2A LH1E_EXTENSION_DXF_RINGDESIGN_095 3W MPR02A LHS 01E EXST_SURVEYEXPORT_S7
  62
7
  100
AcDb3dPolyline
  10
0
  20
0
  30
0
  70
8
  0
VERTEX
  5
322
  330

  100
AcDbEntity
  8
95 3W MP2A LH1E_EXTENSION_DXF_RINGDESIGN_095 3W MPR02A LHS 01E EXST_SURVEYEXPORT_S7
  6
BYLAYER
  62
7
  100
AcDbVertex
  100
AcDb3dPolylineVertex
  10
7125.4526888592209
  20
-23227.030643625607
  30
-992.546367650166
  70
32
  0
VERTEX
  5
323
  330

  100
AcDbEntity
  8
95 3W MP2A LH1E_EXTENSION_DXF_RINGDESIGN_095 3W MPR02A LHS 01E EXST_SURVEYEXPORT_S7
  6
BYLAYER
  62
7
  100
AcDbVertex
  100
AcDb3dPolylineVertex
  10
7125.45268885922
  20
-23227.030643625607
  30
-987.68337556447545
  70
32
  0
SEQEND
  5
324
  330

  100
AcDbEntity
  8
95 3W MP2A LH1E_EXTENSION_DXF_RINGDESIGN_095 3W MPR02A LHS 01E EXST_SURVEYEXPORT_S7
  0
POLYLINE
  5
325
  330
19B
  100
AcDbEntity
  8
95 3W MP2A LH1E_EXTENSION_DXF_RINGDESIGN_095 3W MPR02A LHS 01E EXST_SURVEYEXPORT_S7
  62
7
  100
AcDb3dPolyline
  10
0
  20
0
  30
0
  70
8
  0
VERTEX
  5
326
  330

  100
AcDbEntity
  8
95 3W MP2A LH1E_EXTENSION_DXF_RINGDESIGN_095 3W MPR02A LHS 01E EXST_SURVEYEXPORT_S7
  6
BYLAYER
  62
7
  100
AcDbVertex
  100
AcDb3dPolylineVertex
  10
7125.4954459115934
  20
-23228.005504419743
  30
-992.69692098606447
  70
32
  0
VERTEX
  5
327
  330

  100
AcDbEntity
  8
95 3W MP2A LH1E_EXTENSION_DXF_RINGDESIGN_095 3W MPR02A LHS 01E EXST_SURVEYEXPORT_S7
  6
BYLAYER
  62
7
  100
AcDbVertex
  100
AcDb3dPolylineVertex
  10
7125.49540868085
  20
-23228.004655558776
  30
-987.69692105825959
  70
32
  0
SEQEND
  5
328
  330

  100
AcDbEntity
  8
95 3W MP2A LH1E_EXTENSION_DXF_RINGDESIGN_095 3W MPR02A LHS 01E EXST_SURVEYEXPORT_S7
  0
POLYLINE
  5
329
  330
19B
  100
AcDbEntity
  8
95 3W MP2A LH1E_EXTENSION_DXF_RINGDESIGN_095 3W MPR02A LHS 01E EXST_SURVEYEXPORT_S7
  62
7
  100
AcDb3dPolyline
  10
0
  20
0
  30
0
  70
8
  0
VERTEX
  5
32A
  330

  100
AcDbEntity
  8
95 3W MP2A LH1E_EXTENSION_DXF_RINGDESIGN_095 3W MPR02A LHS 01E EXST_SURVEYEXPORT_S7
  6
BYLAYER
  62
7
  100
AcDbVertex
  100
AcDb3dPolylineVertex
  10
7125.52830886371
  20
-23228.754779727973
  30
-992.671204764401
  70
32
  0
VERTEX
  5
32B
  330

  100
AcDbEntity
  8
95 3W MP2A LH1E_EXTENSION_DXF_RINGDESIGN_095 3W MPR02A LHS 01E EXST_SURVEYEXPORT_S7
  6
BYLAYER
  62
7
  100
AcDbVertex
  100
AcDb3dPolylineVertex
  10
7125.5282716329666
  20
-23228.753930867017
  30
-987.67120483659608
  70
32
  0
SEQEND
  5
32C
  330

  100
AcDbEntity
  8
95 3W MP2A LH1E_EXTENSION_DXF_RINGDESIGN_095 3W MPR02A LHS 01E EXST_SURVEYEXPORT_S7
  0
POLYLINE
  5
32D
  330
19B
  100
AcDbEntity
  8
95 3W MP2A LH1E_EXTENSION_DXF_RINGDESIGN_095 3W MPR02A LHS 01E EXST_SURVEYEXPORT_S7
  62
7
  100
AcDb3dPolyline
  10
0
  20
0
  30
0
  70
8
  0
VERTEX
  5
32E
  330

  100
AcDbEntity
  8
95 3W MP2A LH1E_EXTENSION_DXF_RINGDESIGN_095 3W MPR02A LHS 01E EXST_SURVEYEXPORT_S7
  6
BYLAYER
  62
7
  100
AcDbVertex
  100
AcDb3dPolylineVertex
  10
7125.5502175909278
  20
-23229.25429870858
  30
-992.66648004288788
  70
32
  0
VERTEX
  5
32F
  330

  100
AcDbEntity
  8
95 3W MP2A LH1E_EXTENSION_DXF_RINGDESIGN_095 3W MPR02A LHS 01E EXST_SURVEYEXPORT_S7
  6
BYLAYER
  62
7
  100
AcDbVertex
  100
AcDb3dPolylineVertex
  10
7125.5501803601837
  20
-23229.253449847616
  30
-987.666480115083
  70
32
  0
SEQEND
  5
330
  330

  100
AcDbEntity
  8
95 3W MP2A LH1E_EXTENSION_DXF_RINGDESIGN_095 3W MPR02A LHS 01E EXST_SURVEYEXPORT_S7
  0
POLYLINE
  5
331
  330
19B
  100
AcDbEntity
  8
95 3W MP2A LH1E_EXTENSION_DXF_RINGDESIGN_095 3W MPR02A LHS 01E EXST_SURVEYEXPORT_S7
  62
7
  100
AcDb3dPolyline
  10
0
  20
0
  30
0
  70
8
  0
VERTEX
  5
332
  330

  100
AcDbEntity
  8
95 3W MP2A LH1E_EXTENSION_DXF_RINGDESIGN_095 3W MPR02A LHS 01E EXST_SURVEYEXPORT_S7
  6
BYLAYER
  62
7
  100
AcDbVertex
  100
AcDb3dPolylineVertex
  10
7125.5830807070452
  20
-23230.003577756052
  30
-992.662788957061
  70
32
  0
VERTEX
  5
333
  330

  100
AcDbEntity
  8
95 3W MP2A LH1E_EXTENSION_DXF_RINGDESIGN_095 3W MPR02A LHS 01E EXST_SURVEYEXPORT_S7
  6
BYLAYER
  62
7
  100
AcDbVertex
  100
AcDb3dPolylineVertex
  10
7125.583043476302
  20
-23230.002728895091
  30
-987.66278902925615
  70
32
  0
SEQEND
  5
334
  330

  100
AcDbEntity
  8
95 3W MP2A LH1E_EXTENSION_DXF_RINGDESIGN_095 3W MPR02A LHS 01E EXST_SURVEYEXPORT_S7
  0
LWPOLYLINE
  5
335
  330
19B
  100
AcDbEntity
  8
95 3W MP2A LH1E_EXTENSION_DXF_RINGDESIGN_095 3W MPR02A LHS 01E EXST_SURVEYEXPORT
  62
7
  100
AcDbPolyline
  90
2
  43
0
  38
-994.40350000513058
  10
7123.1201932952436
  20
-23219.358182872074
  10
7123.9988582045034
  20
-23239.338872249
  0
LWPOLYLINE
  5
336
  330
19B
  100
AcDbEntity
  8
95 3W MP2A LH1E_EXTENSION_DXF_RINGDESIGN_095 3W MPR02A LHS 01E EXST_SURVEYEXPORT
  62
1
  100
AcDbPolyline
  90
2
  43
0
  38
-994.40350000513058
  10
7119.9432636843121
  20
-23219.497890592647
  10
7120.821928593572
  20
-23239.478579969575
  0
POLYLINE
  5
337
  330
19B
  100
AcDbEntity
  8
95 3W MP2A LH1E_EXTENSION_DXF_RINGDESIGN_095 3W MPR02A LHS 01E EXST_SURVEYEXPORT_R1
  62
7
  100
AcDb3dPolyline
  10
0
  20
0
  30
0
  70
8
  0
VERTEX
  5
338
  330

  100
AcDbEntity
  8
95 3W MP2A LH1E_EXTENSION_DXF_RINGDESIGN_095 3W MPR02A LHS 01E EXST_SURVEYEXPORT_R1
  6
BYLAYER
  62
7
  100
AcDbVertex
  100
AcDb3dPolylineVertex
  10
7123.4894716691078
  20
-23227.755509775685
  30
-992.65057261125446
  70
32
  0
VERTEX
  5
339
  330

  100
AcDbEntity
  8
95 3W MP2A LH1E_EXTENSION_DXF_RINGDESIGN_095 3W MPR02A LHS 01E EXST_SURVEYEXPORT_R1
  6
BYLAYER
  62
7
  100
AcDbVertex
  100
AcDb3dPolylineVertex
  10
7123.4901970354213
  20
-23227.77200448127
  30
-987.7303997662425
  70
32
  0
SEQEND
  5
33A
  330

  100
AcDbEntity
  8
95 3W MP2A LH1E_EXTENSION_DXF_RINGDESIGN_095 3W MPR02A LHS 01E EXST_SURVEYEXPORT_R1
  0
POLYLINE
  5
33B
  330
19B
  100
AcDbEntity
  8
95 3W MP2A LH1E_EXTENSION_DXF_RINGDESIGN_095 3W MPR02A LHS 01E EXST_SURVEYEXPORT_R1
  62
7
  100
AcDb3dPolyline
  10
0
  20
0
  30
0
  70
8
  0
VERTEX
  5
33C
  330

  100
AcDbEntity
  8
95 3W MP2A LH1E_EXTENSION_DXF_RINGDESIGN_095 3W MPR02A LHS 01E EXST_SURVEYEXPORT_R1
  6
BYLAYER
  62
7
  100
AcDbVertex
  100
AcDb3dPolylineVertex
  10
7123.2853036827846
  20
-23223.112764774214
  30
-991.9939175553684
  70
32
  0
VERTEX
  5
33D
  330

  100
AcDbEntity
  8
95 3W MP2A LH1E_EXTENSION_DXF_RINGDESIGN_095 3W MPR02A LHS 01E EXST_SURVEYEXPORT_R1
  6
BYLAYER
  62
7
  100
AcDbVertex
  100
AcDb3dPolylineVertex
  10
7123.2905121418607
  20
-23223.231204240547
  30
-987.28139868489973
  70
32
  0
SEQEND
  5
33E
  330

  100
AcDbEntity
  8
95 3W MP2A LH1E_EXTENSION_DXF_RINGDESIGN_095 3W MPR02A LHS 01E EXST_SURVEYEXPORT_R1
  0
POLYLINE
  5
33F
  330
19B
  100
AcDbEntity
  8
95 3W MP2A LH1E_EXTENSION_DXF_RINGDESIGN_095 3W MPR02A LHS 01E EXST_SURVEYEXPORT_R1
  62
7
  100
AcDb3dPolyline
  10
0
  20
0
  30
0
  70
8
  0
VERTEX
  5
340
  330

  100
AcDbEntity
  8
95 3W MP2A LH1E_EXTENSION_DXF_RINGDESIGN_095 3W MPR02A LHS 01E EXST_SURVEYEXPORT_R1
  6
BYLAYER
  62
7
  100
AcDbVertex
  100
AcDb3dPolylineVertex
  10
7123.3933564368563
  20
-23225.569865874626
  30
-992.39766250291575
  70
32
  0
VERTEX
  5
341
  330

  100
AcDbEntity
  8
95 3W MP2A LH1E_EXTENSION_DXF_RINGDESIGN_095 3W MPR02A LHS 01E EXST_SURVEYEXPORT_R1
  6
BYLAYER
  62
7
  100
AcDbVertex
  100
AcDb3dPolylineVertex
  10
7123.3963240890416
  20
-23225.63734977648
  30
-987.23015462128876
  70
32
  0
SEQEND
  5
342
  330

  100
AcDbEntity
  8
95 3W MP2A LH1E_EXTENSION_DXF_RINGDESIGN_095 3W MPR02A LHS 01E EXST_SURVEYEXPORT_R1
  0
POLYLINE
  5
343
  330
19B
  100
AcDbEntity
  8
95 3W MP2A LH1E_EXTENSION_DXF_RINGDESIGN_095 3W MPR02A LHS 01E EXST_SURVEYEXPORT_R1
  62
7
  100
AcDb3dPolyline
  10
0
  20
0
  30
0
  70
8
  0
VERTEX
  5
344
  330

  100
AcDbEntity
  8
95 3W MP2A LH1E_EXTENSION_DXF_RINGDESIGN_095 3W MPR02A LHS 01E EXST_SURVEYEXPORT_R1
  6
BYLAYER
  62
7
  100
AcDbVertex
  100
AcDb3dPolylineVertex
  10
7123.5580705876246
  20
-23229.315437420486
  30
-992.57920081822056
  70
32
  0
VERTEX
  5
345
  330

  100
AcDbEntity
  8
95 3W MP2A LH1E_EXTENSION_DXF_RINGDESIGN_095 3W MPR02A LHS 01E EXST_SURVEYEXPORT_R1
  6
BYLAYER
  62
7
  100
AcDbVertex
  100
AcDb3dPolylineVertex
  10
7123.5587260789262
  20
-23229.330343180274
  30
-988.05839062221139
  70
32
  0
SEQEND
  5
346
  330

  100
AcDbEntity
  8
95 3W MP2A LH1E_EXTENSION_DXF_RINGDESIGN_095 3W MPR02A LHS 01E EXST_SURVEYEXPORT_R1
  0
POLYLINE
  5
347
  330
19B
  100
AcDbEntity
  8
95 3W MP2A LH1E_EXTENSION_DXF_RINGDESIGN_095 3W MPR02A LHS 01E EXST_SURVEYEXPORT_R1
  62
7
  100
AcDb3dPolyline
  10
0
  20
0
  30
0
  70
8
  0
VERTEX
  5
348
  330

  100
AcDbEntity
  8
95 3W MP2A LH1E_EXTENSION_DXF_RINGDESIGN_095 3W MPR02A LHS 01E EXST_SURVEYEXPORT_R1
  6
BYLAYER
  62
7
  100
AcDbVertex
  100
AcDb3dPolylineVertex
  10
7123.6293078987737
  20
-23230.935361661395
  30
-992.6441165499923
  70
32
  0
VERTEX
  5
349
  330

  100
AcDbEntity
  8
95 3W MP2A LH1E_EXTENSION_DXF_RINGDESIGN_095 3W MPR02A LHS 01E EXST_SURVEYEXPORT_R1
  6
BYLAYER
  62
7
  100
AcDbVertex
  100
AcDb3dPolylineVertex
  10
7123.6286880776061
  20
-23230.921267034315
  30
-988.58094082576679
  70
32
  0
SEQEND
  5
34A
  330

  100
AcDbEntity
  8
95 3W MP2A LH1E_EXTENSION_DXF_RINGDESIGN_095 3W MPR02A LHS 01E EXST_SURVEYEXPORT_R1
  0
POLYLINE
  5
34B
  330
19B
  100
AcDbEntity
  8
95 3W MP2A LH1E_EXTENSION_DXF_RINGDESIGN_095 3W MPR02A LHS 01E EXST_SURVEYEXPORT_R1
  62
7
  100
AcDb3dPolyline
  10
0
  20
0
  30
0
  70
8
  0
VERTEX
  5
34C
  330

  100
AcDbEntity
  8
95 3W MP2A LH1E_EXTENSION_DXF_RINGDESIGN_095 3W MPR02A LHS 01E EXST_SURVEYEXPORT_R1
  6
BYLAYER
  62
7
  100
AcDbVertex
  100
AcDb3dPolylineVertex
  10
7123.6563538418568
  20
-23231.550381769714
  30
-992.77114811416584
  70
32
  0
VERTEX
  5
34D
  330

  100
AcDbEntity
  8
95 3W MP2A LH1E_EXTENSION_DXF_RINGDESIGN_095 3W MPR02A LHS 01E EXST_SURVEYEXPORT_R1
  6
BYLAYER
  62
7
  100
AcDbVertex
  100
AcDb3dPolylineVertex
  10
7123.6854828192691
  20
-23232.212769721515
  30
-989.17974576440633
  70
32
  0
SEQEND
  5
34E
  330

  100
AcDbEntity
  8
95 3W MP2A LH1E_EXTENSION_DXF_RINGDESIGN_095 3W MPR02A LHS 01E EXST_SURVEYEXPORT_R1
  0
LWPOLYLINE
  5
34F
  330
19B
  100
AcDbEntity
  8
95 3W MP2A LH1E_EXTENSION_DXF_RINGDESIGN_095 3W MPR02A LHS 01E EXST_SURVEYEXPORT
  62
7
  100
AcDbPolyline
  90
2
  43
0
  38
-994.40350000513058
  10
7121.1504428440658
  20
-23219.704713044044
  10
7122.0291077533257
  20
-23239.685402420972
  0
LWPOLYLINE
  5
350
  330
19B
  100
AcDbEntity
  8
95 3W MP2A LH1E_EXTENSION_DXF_RINGDESIGN_095 3W MPR02A LHS 01E EXST_SURVEYEXPORT
  62
1
  100
AcDbPolyline
  90
2
  43
0
  38
-994.40350000513058
  10
7117.9735132331343
  20
-23219.844420764617
  10
7118.8521781423942
  20
-23239.825110141544
  0
POLYLINE
  5
351
  330
19B
  100
AcDbEntity
  8
95 3W MP2A LH1E_EXTENSION_DXF_RINGDESIGN_095 3W MPR02A LHS 01E EXST_SURVEYEXPORT_R2
  62
7
  100
AcDb3dPolyline
  10
0
  20
0
  30
0
  70
8
  0
VERTEX
  5
352
  330

  100
AcDbEntity
  8
95 3W MP2A LH1E_EXTENSION_DXF_RINGDESIGN_095 3W MPR02A LHS 01E EXST_SURVEYEXPORT_R2
  6
BYLAYER
  62
7
  100
AcDbVertex
  100
AcDb3dPolylineVertex
  10
7121.2951461083276
  20
-23222.995240461925
  30
-991.50183678692417
  70
32
  0
VERTEX
  5
353
  330

  100
AcDbEntity
  8
95 3W MP2A LH1E_EXTENSION_DXF_RINGDESIGN_095 3W MPR02A LHS 01E EXST_SURVEYEXPORT_R2
  6
BYLAYER
  62
7
  100
AcDbVertex
  100
AcDb3dPolylineVertex
  10
7121.2950431833124
  20
-23222.992899964724
  30
-987.63615138532714
  70
32
  0
SEQEND
  5
354
  330

  100
AcDbEntity
  8
95 3W MP2A LH1E_EXTENSION_DXF_RINGDESIGN_095 3W MPR02A LHS 01E EXST_SURVEYEXPORT_R2
  0
POLYLINE
  5
355
  330
19B
  100
AcDbEntity
  8
95 3W MP2A LH1E_EXTENSION_DXF_RINGDESIGN_095 3W MPR02A LHS 01E EXST_SURVEYEXPORT_R2
  62
7
  100
AcDb3dPolyline
  10
0
  20
0
  30
0
  70
8
  0
VERTEX
  5
356
  330

  100
AcDbEntity
  8
95 3W MP2A LH1E_EXTENSION_DXF_RINGDESIGN_095 3W MPR02A LHS 01E EXST_SURVEYEXPORT_R2
  6
BYLAYER
  62
7
  100
AcDbVertex
  100
AcDb3dPolylineVertex
  10
7121.3775451992169
  20
-23224.86898166026
  30
-992.12081119084019
  70
32
  0
VERTEX
  5
357
  330

  100
AcDbEntity
  8
95 3W MP2A LH1E_EXTENSION_DXF_RINGDESIGN_095 3W MPR02A LHS 01E EXST_SURVEYEXPORT_R2
  6
BYLAYER
  62
7
  100
AcDbVertex
  100
AcDb3dPolylineVertex
  10
7121.3799333477446
  20
-23224.923287748286
  30
-987.13794200610437
  70
32
  0
SEQEND
  5
358
  330

  100
AcDbEntity
  8
95 3W MP2A LH1E_EXTENSION_DXF_RINGDESIGN_095 3W MPR02A LHS 01E EXST_SURVEYEXPORT_R2
  0
POLYLINE
  5
359
  330
19B
  100
AcDbEntity
  8
95 3W MP2A LH1E_EXTENSION_DXF_RINGDESIGN_095 3W MPR02A LHS 01E EXST_SURVEYEXPORT_R2
  62
7
  100
AcDb3dPolyline
  10
0
  20
0
  30
0
  70
8
  0
VERTEX
  5
35A
  330

  100
AcDbEntity
  8
95 3W MP2A LH1E_EXTENSION_DXF_RINGDESIGN_095 3W MPR02A LHS 01E EXST_SURVEYEXPORT_R2
  6
BYLAYER
  62
7
  100
AcDbVertex
  100
AcDb3dPolylineVertex
  10
7121.4779213967649
  20
-23227.151519181582
  30
-992.63737257993012
  70
32
  0
VERTEX
  5
35B
  330

  100
AcDbEntity
  8
95 3W MP2A LH1E_EXTENSION_DXF_RINGDESIGN_095 3W MPR02A LHS 01E EXST_SURVEYEXPORT_R2
  6
BYLAYER
  62
7
  100
AcDbVertex
  100
AcDb3dPolylineVertex
  10
7121.480494301667
  20
-23227.2100265979
  30
-987.28853074959693
  70
32
  0
SEQEND
  5
35C
  330

  100
AcDbEntity
  8
95 3W MP2A LH1E_EXTENSION_DXF_RINGDESIGN_095 3W MPR02A LHS 01E EXST_SURVEYEXPORT_R2
  0
POLYLINE
  5
35D
  330
19B
  100
AcDbEntity
  8
95 3W MP2A LH1E_EXTENSION_DXF_RINGDESIGN_095 3W MPR02A LHS 01E EXST_SURVEYEXPORT_R2
  62
7
  100
AcDb3dPolyline
  10
0
  20
0
  30
0
  70
8
  0
VERTEX
  5
35E
  330

  100
AcDbEntity
  8
95 3W MP2A LH1E_EXTENSION_DXF_RINGDESIGN_095 3W MPR02A LHS 01E EXST_SURVEYEXPORT_R2
  6
BYLAYER
  62
7
  100
AcDbVertex
  100
AcDb3dPolylineVertex
  10
7121.5841418842647
  20
-23229.5669548543
  30
-992.74763316989163
  70
32
  0
VERTEX
  5
35F
  330

  100
AcDbEntity
  8
95 3W MP2A LH1E_EXTENSION_DXF_RINGDESIGN_095 3W MPR02A LHS 01E EXST_SURVEYEXPORT_R2
  6
BYLAYER
  62
7
  100
AcDbVertex
  100
AcDb3dPolylineVertex
  10
7121.5823784260374
  20
-23229.52685411659
  30
-987.589708236582
  70
32
  0
SEQEND
  5
360
  330

  100
AcDbEntity
  8
95 3W MP2A LH1E_EXTENSION_DXF_RINGDESIGN_095 3W MPR02A LHS 01E EXST_SURVEYEXPORT_R2
  0
POLYLINE
  5
361
  330
19B
  100
AcDbEntity
  8
95 3W MP2A LH1E_EXTENSION_DXF_RINGDESIGN_095 3W MPR02A LHS 01E EXST_SURVEYEXPORT_R2
  62
7
  100
AcDb3dPolyline
  10
0
  20
0
  30
0
  70
8
  0
VERTEX
  5
362
  330

  100
AcDbEntity
  8
95 3W MP2A LH1E_EXTENSION_DXF_RINGDESIGN_095 3W MPR02A LHS 01E EXST_SURVEYEXPORT_R2
  6
BYLAYER
  62
7
  100
AcDbVertex
  100
AcDb3dPolylineVertex
  10
7121.645057509877
  20
-23230.952165735882
  30
-992.89489039615046
  70
32
  0
VERTEX
  5
363
  330

  100
AcDbEntity
  8
95 3W MP2A LH1E_EXTENSION_DXF_RINGDESIGN_095 3W MPR02A LHS 01E EXST_SURVEYEXPORT_R2
  6
BYLAYER
  62
7
  100
AcDbVertex
  100
AcDb3dPolylineVertex
  10
7121.65779914148
  20
-23231.241908253796
  30
-988.31253420534642
  70
32
  0
SEQEND
  5
364
  330

  100
AcDbEntity
  8
95 3W MP2A LH1E_EXTENSION_DXF_RINGDESIGN_095 3W MPR02A LHS 01E EXST_SURVEYEXPORT_R2
  0
POLYLINE
  5
365
  330
19B
  100
AcDbEntity
  8
95 3W MP2A LH1E_EXTENSION_DXF_RINGDESIGN_095 3W MPR02A LHS 01E EXST_SURVEYEXPORT_R2
  62
7
  100
AcDb3dPolyline
  10
0
  20
0
  30
0
  70
8
  0
VERTEX
  5
366
  330

  100
AcDbEntity
  8
95 3W MP2A LH1E_EXTENSION_DXF_RINGDESIGN_095 3W MPR02A LHS 01E EXST_SURVEYEXPORT_R2
  6
BYLAYER
  62
7
  100
AcDbVertex
  100
AcDb3dPolylineVertex
  10
7121.6787776281653
  20
-23231.718955443986
  30
-993.39721595873448
  70
32
  0
VERTEX
  5
367
  330

  100
AcDbEntity
  8
95 3W MP2A LH1E_EXTENSION_DXF_RINGDESIGN_095 3W MPR02A LHS 01E EXST_SURVEYEXPORT_R2
  6
BYLAYER
  62
7
  100
AcDbVertex
  100
AcDb3dPolylineVertex
  10
7121.7318966864759
  20
-23232.926873721932
  30
-989.637715148081
  70
32
  0
SEQEND
  5
368
  330

  100
AcDbEntity
  8
95 3W MP2A LH1E_EXTENSION_DXF_RINGDESIGN_095 3W MPR02A LHS 01E EXST_SURVEYEXPORT_R2
  0
LWPOLYLINE
  5
369
  330
19B
  100
AcDbEntity
  8
95 3W MP2A LH1E_EXTENSION_DXF_RINGDESIGN_095 3W MPR02A LHS 01E EXST_SURVEYEXPORT
  62
7
  100
AcDbPolyline
  90
2
  43
0
  38
-994.40350000513058
  10
7119.3072637451751
  20
-23219.995600850561
  10
7119.92235726091
  20
-23239.986140112094
  0
LWPOLYLINE
  5
36A
  330
19B
  100
AcDbEntity
  8
95 3W MP2A LH1E_EXTENSION_DXF_RINGDESIGN_095 3W MPR02A LHS 01E EXST_SURVEYEXPORT
  62
1
  100
AcDbPolyline
  90
2
  43
0
  38
-994.40350000513058
  10
7116.1287680025916
  20
-23220.093400719565
  10
7116.7438615183264
  20
-23240.083939981098
  0
POLYLINE
  5
36B
  330
19B
  100
AcDbEntity
  8
95 3W MP2A LH1E_EXTENSION_DXF_RINGDESIGN_095 3W MPR02A LHS 01E EXST_SURVEYEXPORT_R3
  62
7
  100
AcDb3dPolyline
  10
0
  20
0
  30
0
  70
8
  0
VERTEX
  5
36C
  330

  100
AcDbEntity
  8
95 3W MP2A LH1E_EXTENSION_DXF_RINGDESIGN_095 3W MPR02A LHS 01E EXST_SURVEYEXPORT_R3
  6
BYLAYER
  62
7
  100
AcDbVertex
  100
AcDb3dPolylineVertex
  10
7119.3565293963293
  20
-23221.596734513067
  30
-992.21362310397024
  70
32
  0
VERTEX
  5
36D
  330

  100
AcDbEntity
  8
95 3W MP2A LH1E_EXTENSION_DXF_RINGDESIGN_095 3W MPR02A LHS 01E EXST_SURVEYEXPORT_R3
  6
BYLAYER
  62
7
  100
AcDbVertex
  100
AcDb3dPolylineVertex
  10
7119.3337801883727
  20
-23220.857385254472
  30
-987.31855510947332
  70
32
  0
SEQEND
  5
36E
  330

  100
AcDbEntity
  8
95 3W MP2A LH1E_EXTENSION_DXF_RINGDESIGN_095 3W MPR02A LHS 01E EXST_SURVEYEXPORT_R3
  0
POLYLINE
  5
36F
  330
19B
  100
AcDbEntity
  8
95 3W MP2A LH1E_EXTENSION_DXF_RINGDESIGN_095 3W MPR02A LHS 01E EXST_SURVEYEXPORT_R3
  62
7
  100
AcDb3dPolyline
  10
0
  20
0
  30
0
  70
8
  0
VERTEX
  5
370
  330

  100
AcDbEntity
  8
95 3W MP2A LH1E_EXTENSION_DXF_RINGDESIGN_095 3W MPR02A LHS 01E EXST_SURVEYEXPORT_R3
  6
BYLAYER
  62
7
  100
AcDbVertex
  100
AcDb3dPolylineVertex
  10
7119.4040955252322
  20
-23223.142633702391
  30
-992.432568007818
  70
32
  0
VERTEX
  5
371
  330

  100
AcDbEntity
  8
95 3W MP2A LH1E_EXTENSION_DXF_RINGDESIGN_095 3W MPR02A LHS 01E EXST_SURVEYEXPORT_R3
  6
BYLAYER
  62
7
  100
AcDbVertex
  100
AcDb3dPolylineVertex
  10
7119.4040955252312
  20
-23223.142633702391
  30
-987.24234411059228
  70
32
  0
SEQEND
  5
372
  330

  100
AcDbEntity
  8
95 3W MP2A LH1E_EXTENSION_DXF_RINGDESIGN_095 3W MPR02A LHS 01E EXST_SURVEYEXPORT_R3
  0
POLYLINE
  5
373
  330
19B
  100
AcDbEntity
  8
95 3W MP2A LH1E_EXTENSION_DXF_RINGDESIGN_095 3W MPR02A LHS 01E EXST_SURVEYEXPORT_R3
  62
7
  100
AcDb3dPolyline
  10
0
  20
0
  30
0
  70
8
  0
VERTEX
  5
374
  330

  100
AcDbEntity
  8
95 3W MP2A LH1E_EXTENSION_DXF_RINGDESIGN_095 3W MPR02A LHS 01E EXST_SURVEYEXPORT_R3
  6
BYLAYER
  62
7
  100
AcDbVertex
  100
AcDb3dPolylineVertex
  10
7119.4750998830041
  20
-23225.450275330033
  30
-992.33929888759849
  70
32
  0
VERTEX
  5
375
  330

  100
AcDbEntity
  8
95 3W MP2A LH1E_EXTENSION_DXF_RINGDESIGN_095 3W MPR02A LHS 01E EXST_SURVEYEXPORT_R3
  6
BYLAYER
  62
7
  100
AcDbVertex
  100
AcDb3dPolylineVertex
  10
7119.47441086209
  20
-23225.427882150314
  30
-987.4328716077938
  70
32
  0
SEQEND
  5
376
  330

  100
AcDbEntity
  8
95 3W MP2A LH1E_EXTENSION_DXF_RINGDESIGN_095 3W MPR02A LHS 01E EXST_SURVEYEXPORT_R3
  0
POLYLINE
  5
377
  330
19B
  100
AcDbEntity
  8
95 3W MP2A LH1E_EXTENSION_DXF_RINGDESIGN_095 3W MPR02A LHS 01E EXST_SURVEYEXPORT_R3
  62
7
  100
AcDb3dPolyline
  10
0
  20
0
  30
0
  70
8
  0
VERTEX
  5
378
  330

  100
AcDbEntity
  8
95 3W MP2A LH1E_EXTENSION_DXF_RINGDESIGN_095 3W MPR02A LHS 01E EXST_SURVEYEXPORT_R3
  6
BYLAYER
  62
7
  100
AcDbVertex
  100
AcDb3dPolylineVertex
  10
7119.5465684266946
  20
-23227.77300300002
  30
-992.31471550014328
  70
32
  0
VERTEX
  5
379
  330

  100
AcDbEntity
  8
95 3W MP2A LH1E_EXTENSION_DXF_RINGDESIGN_095 3W MPR02A LHS 01E EXST_SURVEYEXPORT_R3
  6
BYLAYER
  62
7
  100
AcDbVertex
  100
AcDb3dPolylineVertex
  10
7119.5458981212287
  20
-23227.751218072368
  30
-987.73771560331613
  70
32
  0
SEQEND
  5
37A
  330

  100
AcDbEntity
  8
95 3W MP2A LH1E_EXTENSION_DXF_RINGDESIGN_095 3W MPR02A LHS 01E EXST_SURVEYEXPORT_R3
  0
POLYLINE
  5
37B
  330
19B
  100
AcDbEntity
  8
95 3W MP2A LH1E_EXTENSION_DXF_RINGDESIGN_095 3W MPR02A LHS 01E EXST_SURVEYEXPORT_R3
  62
7
  100
AcDb3dPolyline
  10
0
  20
0
  30
0
  70
8
  0
VERTEX
  5
37C
  330

  100
AcDbEntity
  8
95 3W MP2A LH1E_EXTENSION_DXF_RINGDESIGN_095 3W MPR02A LHS 01E EXST_SURVEYEXPORT_R3
  6
BYLAYER
  62
7
  100
AcDbVertex
  100
AcDb3dPolylineVertex
  10
7119.6131691077817
  20
-23229.937525135352
  30
-992.67378238307367
  70
32
  0
VERTEX
  5
37D
  330

  100
AcDbEntity
  8
95 3W MP2A LH1E_EXTENSION_DXF_RINGDESIGN_095 3W MPR02A LHS 01E EXST_SURVEYEXPORT_R3
  6
BYLAYER
  62
7
  100
AcDbVertex
  100
AcDb3dPolylineVertex
  10
7119.6138696135258
  20
-23229.960291572028
  30
-988.00445409939823
  70
32
  0
SEQEND
  5
37E
  330

  100
AcDbEntity
  8
95 3W MP2A LH1E_EXTENSION_DXF_RINGDESIGN_095 3W MPR02A LHS 01E EXST_SURVEYEXPORT_R3
  0
POLYLINE
  5
37F
  330
19B
  100
AcDbEntity
  8
95 3W MP2A LH1E_EXTENSION_DXF_RINGDESIGN_095 3W MPR02A LHS 01E EXST_SURVEYEXPORT_R3
  62
7
  100
AcDb3dPolyline
  10
0
  20
0
  30
0
  70
8
  0
VERTEX
  5
380
  330

  100
AcDbEntity
  8
95 3W MP2A LH1E_EXTENSION_DXF_RINGDESIGN_095 3W MPR02A LHS 01E EXST_SURVEYEXPORT_R3
  6
BYLAYER
  62
7
  100
AcDbVertex
  100
AcDb3dPolylineVertex
  10
7119.6824731085635
  20
-23232.189905160791
  30
-992.71171855945272
  70
32
  0
VERTEX
  5
381
  330

  100
AcDbEntity
  8
95 3W MP2A LH1E_EXTENSION_DXF_RINGDESIGN_095 3W MPR02A LHS 01E EXST_SURVEYEXPORT_R3
  6
BYLAYER
  62
7
  100
AcDbVertex
  100
AcDb3dPolylineVertex
  10
7119.6818411058221
  20
-23232.169365071692
  30
-989.03330258428616
  70
32
  0
SEQEND
  5
382
  330

  100
AcDbEntity
  8
95 3W MP2A LH1E_EXTENSION_DXF_RINGDESIGN_095 3W MPR02A LHS 01E EXST_SURVEYEXPORT_R3
  0
POLYLINE
  5
383
  330
19B
  100
AcDbEntity
  8
95 3W MP2A LH1E_EXTENSION_DXF_RINGDESIGN_095 3W MPR02A LHS 01E EXST_SURVEYEXPORT_R3
  62
7
  100
AcDb3dPolyline
  10
0
  20
0
  30
0
  70
8
  0
VERTEX
  5
384
  330

  100
AcDbEntity
  8
95 3W MP2A LH1E_EXTENSION_DXF_RINGDESIGN_095 3W MPR02A LHS 01E EXST_SURVEYEXPORT_R3
  6
BYLAYER
  62
7
  100
AcDbVertex
  100
AcDb3dPolylineVertex
  10
7119.7533283649618
  20
-23234.492700993746
  30
-991.9922774538669
  70
32
  0
VERTEX
  5
385
  330

  100
AcDbEntity
  8
95 3W MP2A LH1E_EXTENSION_DXF_RINGDESIGN_095 3W MPR02A LHS 01E EXST_SURVEYEXPORT_R3
  6
BYLAYER
  62
7
  100
AcDbVertex
  100
AcDb3dPolylineVertex
  10
7119.7533283649618
  20
-23234.492700993746
  30
-989.52867407701
  70
32
  0
SEQEND
  5
386
  330

  100
AcDbEntity
  8
95 3W MP2A LH1E_EXTENSION_DXF_RINGDESIGN_095 3W MPR02A LHS 01E EXST_SURVEYEXPORT_R3
  0
POLYLINE
  5
387
  330
19B
  100
AcDbEntity
  8
95 3W MP2A LH1E_EXTENSION_DXF_RINGDESIGN_095 3W MPR02A LHS 01E EXST_SURVEYEXPORT_R3
  62
7
  100
AcDb3dPolyline
  10
0
  20
0
  30
0
  70
8
  0
VERTEX
  5
388
  330

  100
AcDbEntity
  8
95 3W MP2A LH1E_EXTENSION_DXF_RINGDESIGN_095 3W MPR02A LHS 01E EXST_SURVEYEXPORT_R3
  6
BYLAYER
  62
7
  100
AcDbVertex
  100
AcDb3dPolylineVertex
  10
7119.819370031325
  20
-23236.639055150568
  30
-992.22702781874648
  70
32
  0
VERTEX
  5
389
  330

  100
AcDbEntity
  8
95 3W MP2A LH1E_EXTENSION_DXF_RINGDESIGN_095 3W MPR02A LHS 01E EXST_SURVEYEXPORT_R3
  6
BYLAYER
  62
7
  100
AcDbVertex
  100
AcDb3dPolylineVertex
  10
7119.8189560126966
  20
-23236.625599545147
  30
-990.32888956525619
  70
32
  0
SEQEND
  5
38A
  330

  100
AcDbEntity
  8
95 3W MP2A LH1E_EXTENSION_DXF_RINGDESIGN_095 3W MPR02A LHS 01E EXST_SURVEYEXPORT_R3
  0
LWPOLYLINE
  5
38B
  330
19B
  100
AcDbEntity
  8
95 3W MP2A LH1E_EXTENSION_DXF_RINGDESIGN_095 3W MPR02A LHS 01E EXST_SURVEYEXPORT
  62
7
  100
AcDbPolyline
  90
2
  43
0
  38
-994.40350000513058
  10
7117.3082098190216
  20
-23220.057110202135
  10
7117.9233033347564
  20
-23240.047649463668
  0
LWPOLYLINE
  5
38C
  330
19B
  100
AcDbEntity
  8
95 3W MP2A LH1E_EXTENSION_DXF_RINGDESIGN_095 3W MPR02A LHS 01E EXST_SURVEYEXPORT
  62
1
  100
AcDbPolyline
  90
2
  43
0
  38
-994.40350000513058
  10
7114.1297140764382
  20
-23220.154910071138
  10
7114.7448075921729
  20
-23240.145449332671
  0
POLYLINE
  5
38D
  330
19B
  100
AcDbEntity
  8
95 3W MP2A LH1E_EXTENSION_DXF_RINGDESIGN_095 3W MPR02A LHS 01E EXST_SURVEYEXPORT_R4
  62
7
  100
AcDb3dPolyline
  10
0
  20
0
  30
0
  70
8
  0
VERTEX
  5
38E
  330

  100
AcDbEntity
  8
95 3W MP2A LH1E_EXTENSION_DXF_RINGDESIGN_095 3W MPR02A LHS 01E EXST_SURVEYEXPORT_R4
  6
BYLAYER
  62
7
  100
AcDbVertex
  100
AcDb3dPolylineVertex
  10
7117.4050666309486
  20
-23223.204956589725
  30
-992.95940178536443
  70
32
  0
VERTEX
  5
38F
  330

  100
AcDbEntity
  8
95 3W MP2A LH1E_EXTENSION_DXF_RINGDESIGN_095 3W MPR02A LHS 01E EXST_SURVEYEXPORT_R4
  6
BYLAYER
  62
7
  100
AcDbVertex
  100
AcDb3dPolylineVertex
  10
7117.3640425491467
  20
-23221.871673931168
  30
-988.47260132974486
  70
32
  0
SEQEND
  5
390
  330

  100
AcDbEntity
  8
95 3W MP2A LH1E_EXTENSION_DXF_RINGDESIGN_095 3W MPR02A LHS 01E EXST_SURVEYEXPORT_R4
  0
POLYLINE
  5
391
  330
19B
  100
AcDbEntity
  8
95 3W MP2A LH1E_EXTENSION_DXF_RINGDESIGN_095 3W MPR02A LHS 01E EXST_SURVEYEXPORT_R4
  62
7
  100
AcDb3dPolyline
  10
0
  20
0
  30
0
  70
8
  0
VERTEX
  5
392
  330

  100
AcDbEntity
  8
95 3W MP2A LH1E_EXTENSION_DXF_RINGDESIGN_095 3W MPR02A LHS 01E EXST_SURVEYEXPORT_R4
  6
BYLAYER
  62
7
  100
AcDbVertex
  100
AcDb3dPolylineVertex
  10
7117.4246617827775
  20
-23223.841799024172
  30
-992.97356053707574
  70
32
  0
VERTEX
  5
393
  330

  100
AcDbEntity
  8
95 3W MP2A LH1E_EXTENSION_DXF_RINGDESIGN_095 3W MPR02A LHS 01E EXST_SURVEYEXPORT_R4
  6
BYLAYER
  62
7
  100
AcDbVertex
  100
AcDb3dPolylineVertex
  10
7117.4238105854765
  20
-23223.8141351119
  30
-985.80521636892342
  70
32
  0
SEQEND
  5
394
  330

  100
AcDbEntity
  8
95 3W MP2A LH1E_EXTENSION_DXF_RINGDESIGN_095 3W MPR02A LHS 01E EXST_SURVEYEXPORT_R4
  0
POLYLINE
  5
395
  330
19B
  100
AcDbEntity
  8
95 3W MP2A LH1E_EXTENSION_DXF_RINGDESIGN_095 3W MPR02A LHS 01E EXST_SURVEYEXPORT_R4
  62
7
  100
AcDb3dPolyline
  10
0
  20
0
  30
0
  70
8
  0
VERTEX
  5
396
  330

  100
AcDbEntity
  8
95 3W MP2A LH1E_EXTENSION_DXF_RINGDESIGN_095 3W MPR02A LHS 01E EXST_SURVEYEXPORT_R4
  6
BYLAYER
  62
7
  100
AcDbVertex
  100
AcDb3dPolylineVertex
  10
7117.4770683236484
  20
-23225.545011602549
  30
-992.883463077568
  70
32
  0
VERTEX
  5
397
  330

  100
AcDbEntity
  8
95 3W MP2A LH1E_EXTENSION_DXF_RINGDESIGN_095 3W MPR02A LHS 01E EXST_SURVEYEXPORT_R4
  6
BYLAYER
  62
7
  100
AcDbVertex
  100
AcDb3dPolylineVertex
  10
7117.4760783192069
  20
-23225.512836458194
  30
-986.44538875952048
  70
32
  0
SEQEND
  5
398
  330

  100
AcDbEntity
  8
95 3W MP2A LH1E_EXTENSION_DXF_RINGDESIGN_095 3W MPR02A LHS 01E EXST_SURVEYEXPORT_R4
  0
POLYLINE
  5
399
  330
19B
  100
AcDbEntity
  8
95 3W MP2A LH1E_EXTENSION_DXF_RINGDESIGN_095 3W MPR02A LHS 01E EXST_SURVEYEXPORT_R4
  62
7
  100
AcDb3dPolyline
  10
0
  20
0
  30
0
  70
8
  0
VERTEX
  5
39A
  330

  100
AcDbEntity
  8
95 3W MP2A LH1E_EXTENSION_DXF_RINGDESIGN_095 3W MPR02A LHS 01E EXST_SURVEYEXPORT_R4
  6
BYLAYER
  62
7
  100
AcDbVertex
  100
AcDb3dPolylineVertex
  10
7117.5492062695394
  20
-23227.889494844025
  30
-992.4483448169168
  70
32
  0
VERTEX
  5
39B
  330

  100
AcDbEntity
  8
95 3W MP2A LH1E_EXTENSION_DXF_RINGDESIGN_095 3W MPR02A LHS 01E EXST_SURVEYEXPORT_R4
  6
BYLAYER
  62
7
  100
AcDbVertex
  100
AcDb3dPolylineVertex
  10
7117.5492062695394
  20
-23227.889494844028
  30
-987.13128774944573
  70
32
  0
SEQEND
  5
39C
  330

  100
AcDbEntity
  8
95 3W MP2A LH1E_EXTENSION_DXF_RINGDESIGN_095 3W MPR02A LHS 01E EXST_SURVEYEXPORT_R4
  0
POLYLINE
  5
39D
  330
19B
  100
AcDbEntity
  8
95 3W MP2A LH1E_EXTENSION_DXF_RINGDESIGN_095 3W MPR02A LHS 01E EXST_SURVEYEXPORT_R4
  62
7
  100
AcDb3dPolyline
  10
0
  20
0
  30
0
  70
8
  0
VERTEX
  5
39E
  330

  100
AcDbEntity
  8
95 3W MP2A LH1E_EXTENSION_DXF_RINGDESIGN_095 3W MPR02A LHS 01E EXST_SURVEYEXPORT_R4
  6
BYLAYER
  62
7
  100
AcDbVertex
  100
AcDb3dPolylineVertex
  10
7117.6158977497143
  20
-23230.056967949749
  30
-992.32780456239334
  70
32
  0
VERTEX
  5
39F
  330

  100
AcDbEntity
  8
95 3W MP2A LH1E_EXTENSION_DXF_RINGDESIGN_095 3W MPR02A LHS 01E EXST_SURVEYEXPORT_R4
  6
BYLAYER
  62
7
  100
AcDbVertex
  100
AcDb3dPolylineVertex
  10
7117.616708992924
  20
-23230.083333354039
  30
-987.8171867393711
  70
32
  0
SEQEND
  5
3A0
  330

  100
AcDbEntity
  8
95 3W MP2A LH1E_EXTENSION_DXF_RINGDESIGN_095 3W MPR02A LHS 01E EXST_SURVEYEXPORT_R4
  0
POLYLINE
  5
3A1
  330
19B
  100
AcDbEntity
  8
95 3W MP2A LH1E_EXTENSION_DXF_RINGDESIGN_095 3W MPR02A LHS 01E EXST_SURVEYEXPORT_R4
  62
7
  100
AcDb3dPolyline
  10
0
  20
0
  30
0
  70
8
  0
VERTEX
  5
3A2
  330

  100
AcDbEntity
  8
95 3W MP2A LH1E_EXTENSION_DXF_RINGDESIGN_095 3W MPR02A LHS 01E EXST_SURVEYEXPORT_R4
  6
BYLAYER
  62
7
  100
AcDbVertex
  100
AcDb3dPolylineVertex
  10
7117.6865264498583
  20
-23232.352400704433
  30
-992.67288450263868
  70
32
  0
VERTEX
  5
3A3
  330

  100
AcDbEntity
  8
95 3W MP2A LH1E_EXTENSION_DXF_RINGDESIGN_095 3W MPR02A LHS 01E EXST_SURVEYEXPORT_R4
  6
BYLAYER
  62
7
  100
AcDbVertex
  100
AcDb3dPolylineVertex
  10
7117.6851492541327
  20
-23232.307641843359
  30
-988.3963903308636
  70
32
  0
SEQEND
  5
3A4
  330

  100
AcDbEntity
  8
95 3W MP2A LH1E_EXTENSION_DXF_RINGDESIGN_095 3W MPR02A LHS 01E EXST_SURVEYEXPORT_R4
  0
POLYLINE
  5
3A5
  330
19B
  100
AcDbEntity
  8
95 3W MP2A LH1E_EXTENSION_DXF_RINGDESIGN_095 3W MPR02A LHS 01E EXST_SURVEYEXPORT_R4
  62
7
  100
AcDb3dPolyline
  10
0
  20
0
  30
0
  70
8
  0
VERTEX
  5
3A6
  330

  100
AcDbEntity
  8
95 3W MP2A LH1E_EXTENSION_DXF_RINGDESIGN_095 3W MPR02A LHS 01E EXST_SURVEYEXPORT_R4
  6
BYLAYER
  62
7
  100
AcDbVertex
  100
AcDb3dPolylineVertex
  10
7117.7513563218145
  20
-23234.459371543016
  30
-992.296640003614
  70
32
  0
VERTEX
  5
3A7
  330

  100
AcDbEntity
  8
95 3W MP2A LH1E_EXTENSION_DXF_RINGDESIGN_095 3W MPR02A LHS 01E EXST_SURVEYEXPORT_R4
  6
BYLAYER
  62
7
  100
AcDbVertex
  100
AcDb3dPolylineVertex
  10
7117.7519488241487
  20
-23234.478627868881
  30
-989.34902781687083
  70
32
  0
SEQEND
  5
3A8
  330

  100
AcDbEntity
  8
95 3W MP2A LH1E_EXTENSION_DXF_RINGDESIGN_095 3W MPR02A LHS 01E EXST_SURVEYEXPORT_R4
  0
POLYLINE
  5
3A9
  330
19B
  100
AcDbEntity
  8
95 3W MP2A LH1E_EXTENSION_DXF_RINGDESIGN_095 3W MPR02A LHS 01E EXST_SURVEYEXPORT_R4
  62
7
  100
AcDb3dPolyline
  10
0
  20
0
  30
0
  70
8
  0
VERTEX
  5
3AA
  330

  100
AcDbEntity
  8
95 3W MP2A LH1E_EXTENSION_DXF_RINGDESIGN_095 3W MPR02A LHS 01E EXST_SURVEYEXPORT_R4
  6
BYLAYER
  62
7
  100
AcDbVertex
  100
AcDb3dPolylineVertex
  10
7117.8181945974338
  20
-23236.63161550065
  30
-992.40638229614228
  70
32
  0
VERTEX
  5
3AB
  330

  100
AcDbEntity
  8
95 3W MP2A LH1E_EXTENSION_DXF_RINGDESIGN_095 3W MPR02A LHS 01E EXST_SURVEYEXPORT_R4
  6
BYLAYER
  62
7
  100
AcDbVertex
  100
AcDb3dPolylineVertex
  10
7117.8187483941656
  20
-23236.649613894417
  30
-990.263559803438
  70
32
  0
SEQEND
  5
3AC
  330

  100
AcDbEntity
  8
95 3W MP2A LH1E_EXTENSION_DXF_RINGDESIGN_095 3W MPR02A LHS 01E EXST_SURVEYEXPORT_R4
  0
LWPOLYLINE
  5
3AD
  330
19B
  100
AcDbEntity
  8
95 3W MP2A LH1E_EXTENSION_DXF_RINGDESIGN_095 3W MPR02A LHS 01E EXST_SURVEYEXPORT
  62
7
  100
AcDbPolyline
  90
2
  43
0
  38
-994.40350000513058
  10
7115.3091558928681
  20
-23220.118619553708
  10
7115.9242494086029
  20
-23240.109158815241
  0
LWPOLYLINE
  5
3AE
  330
19B
  100
AcDbEntity
  8
95 3W MP2A LH1E_EXTENSION_DXF_RINGDESIGN_095 3W MPR02A LHS 01E EXST_SURVEYEXPORT
  62
1
  100
AcDbPolyline
  90
2
  43
0
  38
-994.40350000513058
  10
7112.1306601502847
  20
-23220.216419422712
  10
7112.7457536660195
  20
-23240.206958684244
  0
POLYLINE
  5
3AF
  330
19B
  100
AcDbEntity
  8
95 3W MP2A LH1E_EXTENSION_DXF_RINGDESIGN_095 3W MPR02A LHS 01E EXST_SURVEYEXPORT_R5
  62
7
  100
AcDb3dPolyline
  10
0
  20
0
  30
0
  70
8
  0
VERTEX
  5
3B0
  330

  100
AcDbEntity
  8
95 3W MP2A LH1E_EXTENSION_DXF_RINGDESIGN_095 3W MPR02A LHS 01E EXST_SURVEYEXPORT_R5
  6
BYLAYER
  62
7
  100
AcDbVertex
  100
AcDb3dPolylineVertex
  10
7115.4839872616221
  20
-23225.800639038269
  30
-997.25483286117844
  70
32
  0
VERTEX
  5
3B1
  330

  100
AcDbEntity
  8
95 3W MP2A LH1E_EXTENSION_DXF_RINGDESIGN_095 3W MPR02A LHS 01E EXST_SURVEYEXPORT_R5
  6
BYLAYER
  62
7
  100
AcDbVertex
  100
AcDb3dPolylineVertex
  10
7115.4217459735837
  20
-23223.777797177016
  30
-998.24689128911825
  70
32
  0
SEQEND
  5
3B2
  330

  100
AcDbEntity
  8
95 3W MP2A LH1E_EXTENSION_DXF_RINGDESIGN_095 3W MPR02A LHS 01E EXST_SURVEYEXPORT_R5
  0
POLYLINE
  5
3B3
  330
19B
  100
AcDbEntity
  8
95 3W MP2A LH1E_EXTENSION_DXF_RINGDESIGN_095 3W MPR02A LHS 01E EXST_SURVEYEXPORT_R5
  62
7
  100
AcDb3dPolyline
  10
0
  20
0
  30
0
  70
8
  0
VERTEX
  5
3B4
  330

  100
AcDbEntity
  8
95 3W MP2A LH1E_EXTENSION_DXF_RINGDESIGN_095 3W MPR02A LHS 01E EXST_SURVEYEXPORT_R5
  6
BYLAYER
  62
7
  100
AcDbVertex
  100
AcDb3dPolylineVertex
  10
7115.4839872616221
  20
-23225.800639038269
  30
-996.7738718511597
  70
32
  0
VERTEX
  5
3B5
  330

  100
AcDbEntity
  8
95 3W MP2A LH1E_EXTENSION_DXF_RINGDESIGN_095 3W MPR02A LHS 01E EXST_SURVEYEXPORT_R5
  6
BYLAYER
  62
7
  100
AcDbVertex
  100
AcDb3dPolylineVertex
  10
7115.3952510480249
  20
-23222.916712096317
  30
-997.59551123549466
  70
32
  0
SEQEND
  5
3B6
  330

  100
AcDbEntity
  8
95 3W MP2A LH1E_EXTENSION_DXF_RINGDESIGN_095 3W MPR02A LHS 01E EXST_SURVEYEXPORT_R5
  0
POLYLINE
  5
3B7
  330
19B
  100
AcDbEntity
  8
95 3W MP2A LH1E_EXTENSION_DXF_RINGDESIGN_095 3W MPR02A LHS 01E EXST_SURVEYEXPORT_R5
  62
7
  100
AcDb3dPolyline
  10
0
  20
0
  30
0
  70
8
  0
VERTEX
  5
3B8
  330

  100
AcDbEntity
  8
95 3W MP2A LH1E_EXTENSION_DXF_RINGDESIGN_095 3W MPR02A LHS 01E EXST_SURVEYEXPORT_R5
  6
BYLAYER
  62
7
  100
AcDbVertex
  100
AcDb3dPolylineVertex
  10
7115.4839872616212
  20
-23225.800639038269
  30
-996.24895554442344
  70
32
  0
VERTEX
  5
3B9
  330

  100
AcDbEntity
  8
95 3W MP2A LH1E_EXTENSION_DXF_RINGDESIGN_095 3W MPR02A LHS 01E EXST_SURVEYEXPORT_R5
  6
BYLAYER
  62
7
  100
AcDbVertex
  100
AcDb3dPolylineVertex
  10
7115.3921579932858
  20
-23222.816187817341
  30
-996.53984778455958
  70
32
  0
SEQEND
  5
3BA
  330

  100
AcDbEntity
  8
95 3W MP2A LH1E_EXTENSION_DXF_RINGDESIGN_095 3W MPR02A LHS 01E EXST_SURVEYEXPORT_R5
  0
POLYLINE
  5
3BB
  330
19B
  100
AcDbEntity
  8
95 3W MP2A LH1E_EXTENSION_DXF_RINGDESIGN_095 3W MPR02A LHS 01E EXST_SURVEYEXPORT_R5
  62
7
  100
AcDb3dPolyline
  10
0
  20
0
  30
0
  70
8
  0
VERTEX
  5
3BC
  330

  100
AcDbEntity
  8
95 3W MP2A LH1E_EXTENSION_DXF_RINGDESIGN_095 3W MPR02A LHS 01E EXST_SURVEYEXPORT_R5
  6
BYLAYER
  62
7
  100
AcDbVertex
  100
AcDb3dPolylineVertex
  10
7115.483987261623
  20
-23225.800639038269
  30
-995.7814893262796
  70
32
  0
VERTEX
  5
3BD
  330

  100
AcDbEntity
  8
95 3W MP2A LH1E_EXTENSION_DXF_RINGDESIGN_095 3W MPR02A LHS 01E EXST_SURVEYEXPORT_R5
  6
BYLAYER
  62
7
  100
AcDbVertex
  100
AcDb3dPolylineVertex
  10
7115.3917400308574
  20
-23222.802604038352
  30
-995.724247840548
  70
32
  0
SEQEND
  5
3BE
  330

  100
AcDbEntity
  8
95 3W MP2A LH1E_EXTENSION_DXF_RINGDESIGN_095 3W MPR02A LHS 01E EXST_SURVEYEXPORT_R5
  0
POLYLINE
  5
3BF
  330
19B
  100
AcDbEntity
  8
95 3W MP2A LH1E_EXTENSION_DXF_RINGDESIGN_095 3W MPR02A LHS 01E EXST_SURVEYEXPORT_R5
  62
7
  100
AcDb3dPolyline
  10
0
  20
0
  30
0
  70
8
  0
VERTEX
  5
3C0
  330

  100
AcDbEntity
  8
95 3W MP2A LH1E_EXTENSION_DXF_RINGDESIGN_095 3W MPR02A LHS 01E EXST_SURVEYEXPORT_R5
  6
BYLAYER
  62
7
  100
AcDbVertex
  100
AcDb3dPolylineVertex
  10
7115.4846169859848
  20
-23225.821105080053
  30
-994.27634227917736
  70
32
  0
VERTEX
  5
3C1
  330

  100
AcDbEntity
  8
95 3W MP2A LH1E_EXTENSION_DXF_RINGDESIGN_095 3W MPR02A LHS 01E EXST_SURVEYEXPORT_R5
  6
BYLAYER
  62
7
  100
AcDbVertex
  100
AcDb3dPolylineVertex
  10
7115.3925650661376
  20
-23222.829417684985
  30
-994.0730371532095
  70
32
  0
SEQEND
  5
3C2
  330

  100
AcDbEntity
  8
95 3W MP2A LH1E_EXTENSION_DXF_RINGDESIGN_095 3W MPR02A LHS 01E EXST_SURVEYEXPORT_R5
  0
POLYLINE
  5
3C3
  330
19B
  100
AcDbEntity
  8
95 3W MP2A LH1E_EXTENSION_DXF_RINGDESIGN_095 3W MPR02A LHS 01E EXST_SURVEYEXPORT_R5
  62
7
  100
AcDb3dPolyline
  10
0
  20
0
  30
0
  70
8
  0
VERTEX
  5
3C4
  330

  100
AcDbEntity
  8
95 3W MP2A LH1E_EXTENSION_DXF_RINGDESIGN_095 3W MPR02A LHS 01E EXST_SURVEYEXPORT_R5
  6
BYLAYER
  62
7
  100
AcDbVertex
  100
AcDb3dPolylineVertex
  10
7115.486402746702
  20
-23225.879142303391
  30
-993.92640168615026
  70
32
  0
VERTEX
  5
3C5
  330

  100
AcDbEntity
  8
95 3W MP2A LH1E_EXTENSION_DXF_RINGDESIGN_095 3W MPR02A LHS 01E EXST_SURVEYEXPORT_R5
  6
BYLAYER
  62
7
  100
AcDbVertex
  100
AcDb3dPolylineVertex
  10
7115.3986863123082
  20
-23223.028358185577
  30
-992.99616744642788
  70
32
  0
SEQEND
  5
3C6
  330

  100
AcDbEntity
  8
95 3W MP2A LH1E_EXTENSION_DXF_RINGDESIGN_095 3W MPR02A LHS 01E EXST_SURVEYEXPORT_R5
  0
POLYLINE
  5
3C7
  330
19B
  100
AcDbEntity
  8
95 3W MP2A LH1E_EXTENSION_DXF_RINGDESIGN_095 3W MPR02A LHS 01E EXST_SURVEYEXPORT_R5
  62
7
  100
AcDb3dPolyline
  10
0
  20
0
  30
0
  70
8
  0
VERTEX
  5
3C8
  330

  100
AcDbEntity
  8
95 3W MP2A LH1E_EXTENSION_DXF_RINGDESIGN_095 3W MPR02A LHS 01E EXST_SURVEYEXPORT_R5
  6
BYLAYER
  62
7
  100
AcDbVertex
  100
AcDb3dPolylineVertex
  10
7115.4879547512483
  20
-23225.929582451117
  30
-993.62226833530815
  70
32
  0
VERTEX
  5
3C9
  330

  100
AcDbEntity
  8
95 3W MP2A LH1E_EXTENSION_DXF_RINGDESIGN_095 3W MPR02A LHS 01E EXST_SURVEYEXPORT_R5
  6
BYLAYER
  62
7
  100
AcDbVertex
  100
AcDb3dPolylineVertex
  10
7115.4160076184626
  20
-23223.591300635569
  30
-991.74416776261285
  70
32
  0
SEQEND
  5
3CA
  330

  100
AcDbEntity
  8
95 3W MP2A LH1E_EXTENSION_DXF_RINGDESIGN_095 3W MPR02A LHS 01E EXST_SURVEYEXPORT_R5
  0
POLYLINE
  5
3CB
  330
19B
  100
AcDbEntity
  8
95 3W MP2A LH1E_EXTENSION_DXF_RINGDESIGN_095 3W MPR02A LHS 01E EXST_SURVEYEXPORT_R5
  62
7
  100
AcDb3dPolyline
  10
0
  20
0
  30
0
  70
8
  0
VERTEX
  5
3CC
  330

  100
AcDbEntity
  8
95 3W MP2A LH1E_EXTENSION_DXF_RINGDESIGN_095 3W MPR02A LHS 01E EXST_SURVEYEXPORT_R5
  6
BYLAYER
  62
7
  100
AcDbVertex
  100
AcDb3dPolylineVertex
  10
7115.5125628407268
  20
-23226.729345359137
  30
-993.18541934315533
  70
32
  0
VERTEX
  5
3CD
  330

  100
AcDbEntity
  8
95 3W MP2A LH1E_EXTENSION_DXF_RINGDESIGN_095 3W MPR02A LHS 01E EXST_SURVEYEXPORT_R5
  6
BYLAYER
  62
7
  100
AcDbVertex
  100
AcDb3dPolylineVertex
  10
7115.4202909553678
  20
-23223.730509084984
  30
-988.83210743280438
  70
32
  0
SEQEND
  5
3CE
  330

  100
AcDbEntity
  8
95 3W MP2A LH1E_EXTENSION_DXF_RINGDESIGN_095 3W MPR02A LHS 01E EXST_SURVEYEXPORT_R5
  0
POLYLINE
  5
3CF
  330
19B
  100
AcDbEntity
  8
95 3W MP2A LH1E_EXTENSION_DXF_RINGDESIGN_095 3W MPR02A LHS 01E EXST_SURVEYEXPORT_R5
  62
7
  100
AcDb3dPolyline
  10
0
  20
0
  30
0
  70
8
  0
VERTEX
  5
3D0
  330

  100
AcDbEntity
  8
95 3W MP2A LH1E_EXTENSION_DXF_RINGDESIGN_095 3W MPR02A LHS 01E EXST_SURVEYEXPORT_R5
  6
BYLAYER
  62
7
  100
AcDbVertex
  100
AcDb3dPolylineVertex
  10
7115.5327298448447
  20
-23227.384772993031
  30
-992.46650900667146
  70
32
  0
VERTEX
  5
3D1
  330

  100
AcDbEntity
  8
95 3W MP2A LH1E_EXTENSION_DXF_RINGDESIGN_095 3W MPR02A LHS 01E EXST_SURVEYEXPORT_R5
  6
BYLAYER
  62
7
  100
AcDbVertex
  100
AcDb3dPolylineVertex
  10
7115.4595609990129
  20
-23225.006785503476
  30
-985.88321030317047
  70
32
  0
SEQEND
  5
3D2
  330

  100
AcDbEntity
  8
95 3W MP2A LH1E_EXTENSION_DXF_RINGDESIGN_095 3W MPR02A LHS 01E EXST_SURVEYEXPORT_R5
  0
POLYLINE
  5
3D3
  330
19B
  100
AcDbEntity
  8
95 3W MP2A LH1E_EXTENSION_DXF_RINGDESIGN_095 3W MPR02A LHS 01E EXST_SURVEYEXPORT_R5
  62
7
  100
AcDb3dPolyline
  10
0
  20
0
  30
0
  70
8
  0
VERTEX
  5
3D4
  330

  100
AcDbEntity
  8
95 3W MP2A LH1E_EXTENSION_DXF_RINGDESIGN_095 3W MPR02A LHS 01E EXST_SURVEYEXPORT_R5
  6
BYLAYER
  62
7
  100
AcDbVertex
  100
AcDb3dPolylineVertex
  10
7115.5631496624283
  20
-23228.373417064511
  30
-993.02535576751484
  70
32
  0
VERTEX
  5
3D5
  330

  100
AcDbEntity
  8
95 3W MP2A LH1E_EXTENSION_DXF_RINGDESIGN_095 3W MPR02A LHS 01E EXST_SURVEYEXPORT_R5
  6
BYLAYER
  62
7
  100
AcDbVertex
  100
AcDb3dPolylineVertex
  10
7115.5483325584282
  20
-23227.891861184486
  30
-986.98699903885245
  70
32
  0
SEQEND
  5
3D6
  330

  100
AcDbEntity
  8
95 3W MP2A LH1E_EXTENSION_DXF_RINGDESIGN_095 3W MPR02A LHS 01E EXST_SURVEYEXPORT_R5
  0
POLYLINE
  5
3D7
  330
19B
  100
AcDbEntity
  8
95 3W MP2A LH1E_EXTENSION_DXF_RINGDESIGN_095 3W MPR02A LHS 01E EXST_SURVEYEXPORT_R5
  62
7
  100
AcDb3dPolyline
  10
0
  20
0
  30
0
  70
8
  0
VERTEX
  5
3D8
  330

  100
AcDbEntity
  8
95 3W MP2A LH1E_EXTENSION_DXF_RINGDESIGN_095 3W MPR02A LHS 01E EXST_SURVEYEXPORT_R5
  6
BYLAYER
  62
7
  100
AcDbVertex
  100
AcDb3dPolylineVertex
  10
7115.615128300351
  20
-23230.062722797051
  30
-992.10021103104646
  70
32
  0
VERTEX
  5
3D9
  330

  100
AcDbEntity
  8
95 3W MP2A LH1E_EXTENSION_DXF_RINGDESIGN_095 3W MPR02A LHS 01E EXST_SURVEYEXPORT_R5
  6
BYLAYER
  62
7
  100
AcDbVertex
  100
AcDb3dPolylineVertex
  10
7115.616718414607
  20
-23230.114401510356
  30
-987.60203517016942
  70
32
  0
SEQEND
  5
3DA
  330

  100
AcDbEntity
  8
95 3W MP2A LH1E_EXTENSION_DXF_RINGDESIGN_095 3W MPR02A LHS 01E EXST_SURVEYEXPORT_R5
  0
POLYLINE
  5
3DB
  330
19B
  100
AcDbEntity
  8
95 3W MP2A LH1E_EXTENSION_DXF_RINGDESIGN_095 3W MPR02A LHS 01E EXST_SURVEYEXPORT_R5
  62
7
  100
AcDb3dPolyline
  10
0
  20
0
  30
0
  70
8
  0
VERTEX
  5
3DC
  330

  100
AcDbEntity
  8
95 3W MP2A LH1E_EXTENSION_DXF_RINGDESIGN_095 3W MPR02A LHS 01E EXST_SURVEYEXPORT_R5
  6
BYLAYER
  62
7
  100
AcDbVertex
  100
AcDb3dPolylineVertex
  10
7115.6740466155625
  20
-23231.977568041362
  30
-992.19969903269657
  70
32
  0
VERTEX
  5
3DD
  330

  100
AcDbEntity
  8
95 3W MP2A LH1E_EXTENSION_DXF_RINGDESIGN_095 3W MPR02A LHS 01E EXST_SURVEYEXPORT_R5
  6
BYLAYER
  62
7
  100
AcDbVertex
  100
AcDb3dPolylineVertex
  10
7115.6836492525726
  20
-23232.2896537442
  30
-988.50093413132515
  70
32
  0
SEQEND
  5
3DE
  330

  100
AcDbEntity
  8
95 3W MP2A LH1E_EXTENSION_DXF_RINGDESIGN_095 3W MPR02A LHS 01E EXST_SURVEYEXPORT_R5
  0
POLYLINE
  5
3DF
  330
19B
  100
AcDbEntity
  8
95 3W MP2A LH1E_EXTENSION_DXF_RINGDESIGN_095 3W MPR02A LHS 01E EXST_SURVEYEXPORT_R5
  62
7
  100
AcDb3dPolyline
  10
0
  20
0
  30
0
  70
8
  0
VERTEX
  5
3E0
  330

  100
AcDbEntity
  8
95 3W MP2A LH1E_EXTENSION_DXF_RINGDESIGN_095 3W MPR02A LHS 01E EXST_SURVEYEXPORT_R5
  6
BYLAYER
  62
7
  100
AcDbVertex
  100
AcDb3dPolylineVertex
  10
7115.7125080493515
  20
-23233.227564639543
  30
-992.27196805236417
  70
32
  0
VERTEX
  5
3E1
  330

  100
AcDbEntity
  8
95 3W MP2A LH1E_EXTENSION_DXF_RINGDESIGN_095 3W MPR02A LHS 01E EXST_SURVEYEXPORT_R5
  6
BYLAYER
  62
7
  100
AcDbVertex
  100
AcDb3dPolylineVertex
  10
7115.7505800905355
  20
-23234.464905978024
  30
-989.30521214920054
  70
32
  0
SEQEND
  5
3E2
  330

  100
AcDbEntity
  8
95 3W MP2A LH1E_EXTENSION_DXF_RINGDESIGN_095 3W MPR02A LHS 01E EXST_SURVEYEXPORT_R5
  0
POLYLINE
  5
3E3
  330
19B
  100
AcDbEntity
  8
95 3W MP2A LH1E_EXTENSION_DXF_RINGDESIGN_095 3W MPR02A LHS 01E EXST_SURVEYEXPORT_R5
  62
7
  100
AcDb3dPolyline
  10
0
  20
0
  30
0
  70
8
  0
VERTEX
  5
3E4
  330

  100
AcDbEntity
  8
95 3W MP2A LH1E_EXTENSION_DXF_RINGDESIGN_095 3W MPR02A LHS 01E EXST_SURVEYEXPORT_R5
  6
BYLAYER
  62
7
  100
AcDbVertex
  100
AcDb3dPolylineVertex
  10
7115.7568819709013
  20
-23234.669717089953
  30
-992.30166088002761
  70
32
  0
VERTEX
  5
3E5
  330

  100
AcDbEntity
  8
95 3W MP2A LH1E_EXTENSION_DXF_RINGDESIGN_095 3W MPR02A LHS 01E EXST_SURVEYEXPORT_R5
  6
BYLAYER
  62
7
  100
AcDbVertex
  100
AcDb3dPolylineVertex
  10
7115.8146008920639
  20
-23236.545582027775
  30
-990.15680063871559
  70
32
  0
SEQEND
  5
3E6
  330

  100
AcDbEntity
  8
95 3W MP2A LH1E_EXTENSION_DXF_RINGDESIGN_095 3W MPR02A LHS 01E EXST_SURVEYEXPORT_R5
  0
POLYLINE
  5
3E7
  330
19B
  100
AcDbEntity
  8
95 3W MP2A LH1E_EXTENSION_DXF_RINGDESIGN_095 3W MPR02A LHS 01E EXST_SURVEYEXPORT_R5
  62
7
  100
AcDb3dPolyline
  10
0
  20
0
  30
0
  70
8
  0
VERTEX
  5
3E8
  330

  100
AcDbEntity
  8
95 3W MP2A LH1E_EXTENSION_DXF_RINGDESIGN_095 3W MPR02A LHS 01E EXST_SURVEYEXPORT_R5
  6
BYLAYER
  62
7
  100
AcDbVertex
  100
AcDb3dPolylineVertex
  10
7115.7783342774273
  20
-23235.366917052026
  30
-993.11282887977382
  70
32
  0
VERTEX
  5
3E9
  330

  100
AcDbEntity
  8
95 3W MP2A LH1E_EXTENSION_DXF_RINGDESIGN_095 3W MPR02A LHS 01E EXST_SURVEYEXPORT_R5
  6
BYLAYER
  62
7
  100
AcDbVertex
  100
AcDb3dPolylineVertex
  10
7115.8684365660793
  20
-23238.295241433254
  30
-991.00838912823178
  70
32
  0
SEQEND
  5
3EA
  330

  100
AcDbEntity
  8
95 3W MP2A LH1E_EXTENSION_DXF_RINGDESIGN_095 3W MPR02A LHS 01E EXST_SURVEYEXPORT_R5
  0
POLYLINE
  5
3EB
  330
19B
  100
AcDbEntity
  8
95 3W MP2A LH1E_EXTENSION_DXF_RINGDESIGN_095 3W MPR02A LHS 01E EXST_SURVEYEXPORT_R5
  62
7
  100
AcDb3dPolyline
  10
0
  20
0
  30
0
  70
8
  0
VERTEX
  5
3EC
  330

  100
AcDbEntity
  8
95 3W MP2A LH1E_EXTENSION_DXF_RINGDESIGN_095 3W MPR02A LHS 01E EXST_SURVEYEXPORT_R5
  6
BYLAYER
  62
7
  100
AcDbVertex
  100
AcDb3dPolylineVertex
  10
7115.7802307259026
  20
-23235.42855162749
  30
-994.2847968636712
  70
32
  0
VERTEX
  5
3ED
  330

  100
AcDbEntity
  8
95 3W MP2A LH1E_EXTENSION_DXF_RINGDESIGN_095 3W MPR02A LHS 01E EXST_SURVEYEXPORT_R5
  6
BYLAYER
  62
7
  100
AcDbVertex
  100
AcDb3dPolylineVertex
  10
7115.8989919486276
  20
-23239.288291366083
  30
-992.71156610726609
  70
32
  0
SEQEND
  5
3EE
  330

  100
AcDbEntity
  8
95 3W MP2A LH1E_EXTENSION_DXF_RINGDESIGN_095 3W MPR02A LHS 01E EXST_SURVEYEXPORT_R5
  0
POLYLINE
  5
3EF
  330
19B
  100
AcDbEntity
  8
95 3W MP2A LH1E_EXTENSION_DXF_RINGDESIGN_095 3W MPR02A LHS 01E EXST_SURVEYEXPORT_R5
  62
7
  100
AcDb3dPolyline
  10
0
  20
0
  30
0
  70
8
  0
VERTEX
  5
3F0
  330

  100
AcDbEntity
  8
95 3W MP2A LH1E_EXTENSION_DXF_RINGDESIGN_095 3W MPR02A LHS 01E EXST_SURVEYEXPORT_R5
  6
BYLAYER
  62
7
  100
AcDbVertex
  100
AcDb3dPolylineVertex
  10
7115.7800366605607
  20
-23235.422244503843
  30
-995.22927280534213
  70
32
  0
VERTEX
  5
3F1
  330

  100
AcDbEntity
  8
95 3W MP2A LH1E_EXTENSION_DXF_RINGDESIGN_095 3W MPR02A LHS 01E EXST_SURVEYEXPORT_R5
  6
BYLAYER
  62
7
  100
AcDbVertex
  100
AcDb3dPolylineVertex
  10
7115.9004469668444
  20
-23239.335579458129
  30
-994.74591638777531
  70
32
  0
SEQEND
  5
3F2
  330

  100
AcDbEntity
  8
95 3W MP2A LH1E_EXTENSION_DXF_RINGDESIGN_095 3W MPR02A LHS 01E EXST_SURVEYEXPORT_R5
  0
POLYLINE
  5
3F3
  330
19B
  100
AcDbEntity
  8
95 3W MP2A LH1E_EXTENSION_DXF_RINGDESIGN_095 3W MPR02A LHS 01E EXST_SURVEYEXPORT_R5
  62
7
  100
AcDb3dPolyline
  10
0
  20
0
  30
0
  70
8
  0
VERTEX
  5
3F4
  330

  100
AcDbEntity
  8
95 3W MP2A LH1E_EXTENSION_DXF_RINGDESIGN_095 3W MPR02A LHS 01E EXST_SURVEYEXPORT_R5
  6
BYLAYER
  62
7
  100
AcDbVertex
  100
AcDb3dPolylineVertex
  10
7115.7781865324459
  20
-23235.362115340096
  30
-996.57304617016075
  70
32
  0
VERTEX
  5
3F5
  330

  100
AcDbEntity
  8
95 3W MP2A LH1E_EXTENSION_DXF_RINGDESIGN_095 3W MPR02A LHS 01E EXST_SURVEYEXPORT_R5
  6
BYLAYER
  62
7
  100
AcDbVertex
  100
AcDb3dPolylineVertex
  10
7115.8975369304117
  20
-23239.241003274041
  30
-997.30068185632274
  70
32
  0
SEQEND
  5
3F6
  330

  100
AcDbEntity
  8
95 3W MP2A LH1E_EXTENSION_DXF_RINGDESIGN_095 3W MPR02A LHS 01E EXST_SURVEYEXPORT_R5
  0
POLYLINE
  5
3F7
  330
19B
  100
AcDbEntity
  8
95 3W MP2A LH1E_EXTENSION_DXF_RINGDESIGN_095 3W MPR02A LHS 01E EXST_SURVEYEXPORT_R5
  62
7
  100
AcDb3dPolyline
  10
0
  20
0
  30
0
  70
8
  0
VERTEX
  5
3F8
  330

  100
AcDbEntity
  8
95 3W MP2A LH1E_EXTENSION_DXF_RINGDESIGN_095 3W MPR02A LHS 01E EXST_SURVEYEXPORT_R5
  6
BYLAYER
  62
7
  100
AcDbVertex
  100
AcDb3dPolylineVertex
  10
7115.7580290326932
  20
-23234.706996598175
  30
-997.2362169669783
  70
32
  0
VERTEX
  5
3F9
  330

  100
AcDbEntity
  8
95 3W MP2A LH1E_EXTENSION_DXF_RINGDESIGN_095 3W MPR02A LHS 01E EXST_SURVEYEXPORT_R5
  6
BYLAYER
  62
7
  100
AcDbVertex
  100
AcDb3dPolylineVertex
  10
7115.8087808191985
  20
-23236.35642965962
  30
-997.773786572721
  70
32
  0
SEQEND
  5
3FA
  330

  100
AcDbEntity
  8
95 3W MP2A LH1E_EXTENSION_DXF_RINGDESIGN_095 3W MPR02A LHS 01E EXST_SURVEYEXPORT_R5
  0
LWPOLYLINE
  5
3FB
  330
19B
  100
AcDbEntity
  8
95 3W MP2A LH1E_EXTENSION_DXF_RINGDESIGN_095 3W MPR02A LHS 01E EXST_SURVEYEXPORT
  62
7
  100
AcDbPolyline
  90
2
  43
0
  38
-994.40350000513058
  10
7113.3101019667147
  20
-23220.180128905282
  10
7113.9251954824495
  20
-23240.170668166815
  0
LWPOLYLINE
  5
3FC
  330
19B
  100
AcDbEntity
  8
95 3W MP2A LH1E_EXTENSION_DXF_RINGDESIGN_095 3W MPR02A LHS 01E EXST_SURVEYEXPORT
  62
1
  100
AcDbPolyline
  90
2
  43
0
  38
-994.40350000513058
  10
7110.1316062241312
  20
-23220.277928774285
  10
7110.746699739866
  20
-23240.268468035818
  0
POLYLINE
  5
3FD
  330
19B
  100
AcDbEntity
  8
95 3W MP2A LH1E_EXTENSION_DXF_RINGDESIGN_095 3W MPR02A LHS 01E EXST_SURVEYEXPORT_R6
  62
7
  100
AcDb3dPolyline
  10
0
  20
0
  30
0
  70
8
  0
VERTEX
  5
3FE
  330

  100
AcDbEntity
  8
95 3W MP2A LH1E_EXTENSION_DXF_RINGDESIGN_095 3W MPR02A LHS 01E EXST_SURVEYEXPORT_R6
  6
BYLAYER
  62
7
  100
AcDbVertex
  100
AcDb3dPolylineVertex
  10
7113.5485436355029
  20
-23227.929483140964
  30
-992.79724781569575
  70
32
  0
VERTEX
  5
3FF
  330

  100
AcDbEntity
  8
95 3W MP2A LH1E_EXTENSION_DXF_RINGDESIGN_095 3W MPR02A LHS 01E EXST_SURVEYEXPORT_R6
  6
BYLAYER
  62
7
  100
AcDbVertex
  100
AcDb3dPolylineVertex
  10
7113.5094344134322
  20
-23226.658433423643
  30
-987.09032510891313
  70
32
  0
SEQEND
  5
400
  330

  100
AcDbEntity
  8
95 3W MP2A LH1E_EXTENSION_DXF_RINGDESIGN_095 3W MPR02A LHS 01E EXST_SURVEYEXPORT_R6
  0
POLYLINE
  5
401
  330
19B
  100
AcDbEntity
  8
95 3W MP2A LH1E_EXTENSION_DXF_RINGDESIGN_095 3W MPR02A LHS 01E EXST_SURVEYEXPORT_R6
  62
7
  100
AcDb3dPolyline
  10
0
  20
0
  30
0
  70
8
  0
VERTEX
  5
402
  330

  100
AcDbEntity
  8
95 3W MP2A LH1E_EXTENSION_DXF_RINGDESIGN_095 3W MPR02A LHS 01E EXST_SURVEYEXPORT_R6
  6
BYLAYER
  62
7
  100
AcDbVertex
  100
AcDb3dPolylineVertex
  10
7113.56815211801
  20
-23228.566758822464
  30
-992.51402555885352
  70
32
  0
VERTEX
  5
403
  330

  100
AcDbEntity
  8
95 3W MP2A LH1E_EXTENSION_DXF_RINGDESIGN_095 3W MPR02A LHS 01E EXST_SURVEYEXPORT_R6
  6
BYLAYER
  62
7
  100
AcDbVertex
  100
AcDb3dPolylineVertex
  10
7113.5644224618736
  20
-23228.445544998009
  30
-987.20500569216836
  70
32
  0
SEQEND
  5
404
  330

  100
AcDbEntity
  8
95 3W MP2A LH1E_EXTENSION_DXF_RINGDESIGN_095 3W MPR02A LHS 01E EXST_SURVEYEXPORT_R6
  0
POLYLINE
  5
405
  330
19B
  100
AcDbEntity
  8
95 3W MP2A LH1E_EXTENSION_DXF_RINGDESIGN_095 3W MPR02A LHS 01E EXST_SURVEYEXPORT_R6
  62
7
  100
AcDb3dPolyline
  10
0
  20
0
  30
0
  70
8
  0
VERTEX
  5
406
  330

  100
AcDbEntity
  8
95 3W MP2A LH1E_EXTENSION_DXF_RINGDESIGN_095 3W MPR02A LHS 01E EXST_SURVEYEXPORT_R6
  6
BYLAYER
  62
7
  100
AcDbVertex
  100
AcDb3dPolylineVertex
  10
7113.6180544333374
  20
-23230.188584070595
  30
-992.04387849488648
  70
32
  0
VERTEX
  5
407
  330

  100
AcDbEntity
  8
95 3W MP2A LH1E_EXTENSION_DXF_RINGDESIGN_095 3W MPR02A LHS 01E EXST_SURVEYEXPORT_R6
  6
BYLAYER
  62
7
  100
AcDbVertex
  100
AcDb3dPolylineVertex
  10
7113.6180544333374
  20
-23230.188584070595
  30
-987.33262831777631
  70
32
  0
SEQEND
  5
408
  330

  100
AcDbEntity
  8
95 3W MP2A LH1E_EXTENSION_DXF_RINGDESIGN_095 3W MPR02A LHS 01E EXST_SURVEYEXPORT_R6
  0
POLYLINE
  5
409
  330
19B
  100
AcDbEntity
  8
95 3W MP2A LH1E_EXTENSION_DXF_RINGDESIGN_095 3W MPR02A LHS 01E EXST_SURVEYEXPORT_R6
  62
7
  100
AcDb3dPolyline
  10
0
  20
0
  30
0
  70
8
  0
VERTEX
  5
40A
  330

  100
AcDbEntity
  8
95 3W MP2A LH1E_EXTENSION_DXF_RINGDESIGN_095 3W MPR02A LHS 01E EXST_SURVEYEXPORT_R6
  6
BYLAYER
  62
7
  100
AcDbVertex
  100
AcDb3dPolylineVertex
  10
7113.6661127490615
  20
-23231.7504793317
  30
-992.03619334741484
  70
32
  0
VERTEX
  5
40B
  330

  100
AcDbEntity
  8
95 3W MP2A LH1E_EXTENSION_DXF_RINGDESIGN_095 3W MPR02A LHS 01E EXST_SURVEYEXPORT_R6
  6
BYLAYER
  62
7
  100
AcDbVertex
  100
AcDb3dPolylineVertex
  10
7113.6704350891341
  20
-23231.890955384039
  30
-988.2977619392276
  70
32
  0
SEQEND
  5
40C
  330

  100
AcDbEntity
  8
95 3W MP2A LH1E_EXTENSION_DXF_RINGDESIGN_095 3W MPR02A LHS 01E EXST_SURVEYEXPORT_R6
  0
POLYLINE
  5
40D
  330
19B
  100
AcDbEntity
  8
95 3W MP2A LH1E_EXTENSION_DXF_RINGDESIGN_095 3W MPR02A LHS 01E EXST_SURVEYEXPORT_R6
  62
7
  100
AcDb3dPolyline
  10
0
  20
0
  30
0
  70
8
  0
VERTEX
  5
40E
  330

  100
AcDbEntity
  8
95 3W MP2A LH1E_EXTENSION_DXF_RINGDESIGN_095 3W MPR02A LHS 01E EXST_SURVEYEXPORT_R6
  6
BYLAYER
  62
7
  100
AcDbVertex
  100
AcDb3dPolylineVertex
  10
7113.70329982241
  20
-23232.959059215489
  30
-992.13323168121974
  70
32
  0
VERTEX
  5
40F
  330

  100
AcDbEntity
  8
95 3W MP2A LH1E_EXTENSION_DXF_RINGDESIGN_095 3W MPR02A LHS 01E EXST_SURVEYEXPORT_R6
  6
BYLAYER
  62
7
  100
AcDbVertex
  100
AcDb3dPolylineVertex
  10
7113.7367839198114
  20
-23234.047292381048
  30
-989.26289556068
  70
32
  0
SEQEND
  5
410
  330

  100
AcDbEntity
  8
95 3W MP2A LH1E_EXTENSION_DXF_RINGDESIGN_095 3W MPR02A LHS 01E EXST_SURVEYEXPORT_R6
  0
POLYLINE
  5
411
  330
19B
  100
AcDbEntity
  8
95 3W MP2A LH1E_EXTENSION_DXF_RINGDESIGN_095 3W MPR02A LHS 01E EXST_SURVEYEXPORT_R6
  62
7
  100
AcDb3dPolyline
  10
0
  20
0
  30
0
  70
8
  0
VERTEX
  5
412
  330

  100
AcDbEntity
  8
95 3W MP2A LH1E_EXTENSION_DXF_RINGDESIGN_095 3W MPR02A LHS 01E EXST_SURVEYEXPORT_R6
  6
BYLAYER
  62
7
  100
AcDbVertex
  100
AcDb3dPolylineVertex
  10
7113.7300942236889
  20
-23233.829877257034
  30
-992.91340279921735
  70
32
  0
VERTEX
  5
413
  330

  100
AcDbEntity
  8
95 3W MP2A LH1E_EXTENSION_DXF_RINGDESIGN_095 3W MPR02A LHS 01E EXST_SURVEYEXPORT_R6
  6
BYLAYER
  62
7
  100
AcDbVertex
  100
AcDb3dPolylineVertex
  10
7113.801386728629
  20
-23236.146883667614
  30
-990.17125661616274
  70
32
  0
SEQEND
  5
414
  330

  100
AcDbEntity
  8
95 3W MP2A LH1E_EXTENSION_DXF_RINGDESIGN_095 3W MPR02A LHS 01E EXST_SURVEYEXPORT_R6
  0
POLYLINE
  5
415
  330
19B
  100
AcDbEntity
  8
95 3W MP2A LH1E_EXTENSION_DXF_RINGDESIGN_095 3W MPR02A LHS 01E EXST_SURVEYEXPORT_R6
  62
7
  100
AcDb3dPolyline
  10
0
  20
0
  30
0
  70
8
  0
VERTEX
  5
416
  330

  100
AcDbEntity
  8
95 3W MP2A LH1E_EXTENSION_DXF_RINGDESIGN_095 3W MPR02A LHS 01E EXST_SURVEYEXPORT_R6
  6
BYLAYER
  62
7
  100
AcDbVertex
  100
AcDb3dPolylineVertex
  10
7113.7330847453968
  20
-23233.927069212605
  30
-994.11349410410492
  70
32
  0
VERTEX
  5
417
  330

  100
AcDbEntity
  8
95 3W MP2A LH1E_EXTENSION_DXF_RINGDESIGN_095 3W MPR02A LHS 01E EXST_SURVEYEXPORT_R6
  6
BYLAYER
  62
7
  100
AcDbVertex
  100
AcDb3dPolylineVertex
  10
7113.8659895374449
  20
-23238.246474954183
  30
-991.36348050148558
  70
32
  0
SEQEND
  5
418
  330

  100
AcDbEntity
  8
95 3W MP2A LH1E_EXTENSION_DXF_RINGDESIGN_095 3W MPR02A LHS 01E EXST_SURVEYEXPORT_R6
  0
POLYLINE
  5
419
  330
19B
  100
AcDbEntity
  8
95 3W MP2A LH1E_EXTENSION_DXF_RINGDESIGN_095 3W MPR02A LHS 01E EXST_SURVEYEXPORT_R6
  62
7
  100
AcDb3dPolyline
  10
0
  20
0
  30
0
  70
8
  0
VERTEX
  5
41A
  330

  100
AcDbEntity
  8
95 3W MP2A LH1E_EXTENSION_DXF_RINGDESIGN_095 3W MPR02A LHS 01E EXST_SURVEYEXPORT_R6
  6
BYLAYER
  62
7
  100
AcDbVertex
  100
AcDb3dPolylineVertex
  10
7113.7342469815158
  20
-23233.964841886445
  30
-994.57541663686618
  70
32
  0
VERTEX
  5
41B
  330

  100
AcDbEntity
  8
95 3W MP2A LH1E_EXTENSION_DXF_RINGDESIGN_095 3W MPR02A LHS 01E EXST_SURVEYEXPORT_R6
  6
BYLAYER
  62
7
  100
AcDbVertex
  100
AcDb3dPolylineVertex
  10
7113.8869417997648
  20
-23238.927423479559
  30
-993.74792827213037
  70
32
  0
SEQEND
  5
41C
  330

  100
AcDbEntity
  8
95 3W MP2A LH1E_EXTENSION_DXF_RINGDESIGN_095 3W MPR02A LHS 01E EXST_SURVEYEXPORT_R6
  0
POLYLINE
  5
41D
  330
19B
  100
AcDbEntity
  8
95 3W MP2A LH1E_EXTENSION_DXF_RINGDESIGN_095 3W MPR02A LHS 01E EXST_SURVEYEXPORT_R6
  62
7
  100
AcDb3dPolyline
  10
0
  20
0
  30
0
  70
8
  0
VERTEX
  5
41E
  330

  100
AcDbEntity
  8
95 3W MP2A LH1E_EXTENSION_DXF_RINGDESIGN_095 3W MPR02A LHS 01E EXST_SURVEYEXPORT_R6
  6
BYLAYER
  62
7
  100
AcDbVertex
  100
AcDb3dPolylineVertex
  10
7113.7365295764985
  20
-23234.039026223378
  30
-995.48261788370246
  70
32
  0
VERTEX
  5
41F
  330

  100
AcDbEntity
  8
95 3W MP2A LH1E_EXTENSION_DXF_RINGDESIGN_095 3W MPR02A LHS 01E EXST_SURVEYEXPORT_R6
  6
BYLAYER
  62
7
  100
AcDbVertex
  100
AcDb3dPolylineVertex
  10
7113.8886878216244
  20
-23238.98416919
  30
-995.45110525116161
  70
32
  0
SEQEND
  5
420
  330

  100
AcDbEntity
  8
95 3W MP2A LH1E_EXTENSION_DXF_RINGDESIGN_095 3W MPR02A LHS 01E EXST_SURVEYEXPORT_R6
  0
POLYLINE
  5
421
  330
19B
  100
AcDbEntity
  8
95 3W MP2A LH1E_EXTENSION_DXF_RINGDESIGN_095 3W MPR02A LHS 01E EXST_SURVEYEXPORT_R6
  62
7
  100
AcDb3dPolyline
  10
0
  20
0
  30
0
  70
8
  0
VERTEX
  5
422
  330

  100
AcDbEntity
  8
95 3W MP2A LH1E_EXTENSION_DXF_RINGDESIGN_095 3W MPR02A LHS 01E EXST_SURVEYEXPORT_R6
  6
BYLAYER
  62
7
  100
AcDbVertex
  100
AcDb3dPolylineVertex
  10
7113.7375340897415
  20
-23234.071672903818
  30
-996.2753360176082
  70
32
  0
VERTEX
  5
423
  330

  100
AcDbEntity
  8
95 3W MP2A LH1E_EXTENSION_DXF_RINGDESIGN_095 3W MPR02A LHS 01E EXST_SURVEYEXPORT_R6
  6
BYLAYER
  62
7
  100
AcDbVertex
  100
AcDb3dPolylineVertex
  10
7113.8851957779034
  20
-23238.870677769108
  30
-997.43814506003207
  70
32
  0
SEQEND
  5
424
  330

  100
AcDbEntity
  8
95 3W MP2A LH1E_EXTENSION_DXF_RINGDESIGN_095 3W MPR02A LHS 01E EXST_SURVEYEXPORT_R6
  0
POLYLINE
  5
425
  330
19B
  100
AcDbEntity
  8
95 3W MP2A LH1E_EXTENSION_DXF_RINGDESIGN_095 3W MPR02A LHS 01E EXST_SURVEYEXPORT_R6
  62
7
  100
AcDb3dPolyline
  10
0
  20
0
  30
0
  70
8
  0
VERTEX
  5
426
  330

  100
AcDbEntity
  8
95 3W MP2A LH1E_EXTENSION_DXF_RINGDESIGN_095 3W MPR02A LHS 01E EXST_SURVEYEXPORT_R6
  6
BYLAYER
  62
7
  100
AcDbVertex
  100
AcDb3dPolylineVertex
  10
7113.7375340897424
  20
-23234.071672903818
  30
-997.31651665549271
  70
32
  0
VERTEX
  5
427
  330

  100
AcDbEntity
  8
95 3W MP2A LH1E_EXTENSION_DXF_RINGDESIGN_095 3W MPR02A LHS 01E EXST_SURVEYEXPORT_R6
  6
BYLAYER
  62
7
  100
AcDbVertex
  100
AcDb3dPolylineVertex
  10
7113.7891645756081
  20
-23235.749663694482
  30
-998.06264328567727
  70
32
  0
SEQEND
  5
428
  330

  100
AcDbEntity
  8
95 3W MP2A LH1E_EXTENSION_DXF_RINGDESIGN_095 3W MPR02A LHS 01E EXST_SURVEYEXPORT_R6
  0
LWPOLYLINE
  5
429
  330
19B
  100
AcDbEntity
  8
95 3W MP2A LH1E_EXTENSION_DXF_RINGDESIGN_095 3W MPR02A LHS 01E EXST_SURVEYEXPORT
  62
7
  100
AcDbPolyline
  90
2
  43
0
  38
-994.40350000513058
  10
7111.3160808553775
  20
-23220.032332104616
  10
7111.9303401406823
  20
-23240.022897017356
  0
LWPOLYLINE
  5
42A
  330
19B
  100
AcDbEntity
  8
95 3W MP2A LH1E_EXTENSION_DXF_RINGDESIGN_095 3W MPR02A LHS 01E EXST_SURVEYEXPORT
  62
1
  100
AcDbPolyline
  90
2
  43
0
  38
-994.40350000513058
  10
7108.1375810342524
  20
-23220.12999933098
  10
7108.7518403195572
  20
-23240.12056424372
  0
POLYLINE
  5
42B
  330
19B
  100
AcDbEntity
  8
95 3W MP2A LH1E_EXTENSION_DXF_RINGDESIGN_095 3W MPR02A LHS 01E EXST_SURVEYEXPORT_R7
  62
7
  100
AcDb3dPolyline
  10
0
  20
0
  30
0
  70
8
  0
VERTEX
  5
42C
  330

  100
AcDbEntity
  8
95 3W MP2A LH1E_EXTENSION_DXF_RINGDESIGN_095 3W MPR02A LHS 01E EXST_SURVEYEXPORT_R7
  6
BYLAYER
  62
7
  100
AcDbVertex
  100
AcDb3dPolylineVertex
  10
7111.5674402422719
  20
-23228.212617304009
  30
-992.16201168405689
  70
32
  0
VERTEX
  5
42D
  330

  100
AcDbEntity
  8
95 3W MP2A LH1E_EXTENSION_DXF_RINGDESIGN_095 3W MPR02A LHS 01E EXST_SURVEYEXPORT_R7
  6
BYLAYER
  62
7
  100
AcDbVertex
  100
AcDb3dPolylineVertex
  10
7111.5351077901641
  20
-23227.160384154067
  30
-987.76686485336177
  70
32
  0
SEQEND
  5
42E
  330

  100
AcDbEntity
  8
95 3W MP2A LH1E_EXTENSION_DXF_RINGDESIGN_095 3W MPR02A LHS 01E EXST_SURVEYEXPORT_R7
  0
POLYLINE
  5
42F
  330
19B
  100
AcDbEntity
  8
95 3W MP2A LH1E_EXTENSION_DXF_RINGDESIGN_095 3W MPR02A LHS 01E EXST_SURVEYEXPORT_R7
  62
7
  100
AcDb3dPolyline
  10
0
  20
0
  30
0
  70
8
  0
VERTEX
  5
430
  330

  100
AcDbEntity
  8
95 3W MP2A LH1E_EXTENSION_DXF_RINGDESIGN_095 3W MPR02A LHS 01E EXST_SURVEYEXPORT_R7
  6
BYLAYER
  62
7
  100
AcDbVertex
  100
AcDb3dPolylineVertex
  10
7111.5862524030617
  20
-23228.824843656002
  30
-991.843670998859
  70
32
  0
VERTEX
  5
431
  330

  100
AcDbEntity
  8
95 3W MP2A LH1E_EXTENSION_DXF_RINGDESIGN_095 3W MPR02A LHS 01E EXST_SURVEYEXPORT_R7
  6
BYLAYER
  62
7
  100
AcDbVertex
  100
AcDb3dPolylineVertex
  10
7111.5892762444746
  20
-23228.923252096032
  30
-987.61869036772009
  70
32
  0
SEQEND
  5
432
  330

  100
AcDbEntity
  8
95 3W MP2A LH1E_EXTENSION_DXF_RINGDESIGN_095 3W MPR02A LHS 01E EXST_SURVEYEXPORT_R7
  0
POLYLINE
  5
433
  330
19B
  100
AcDbEntity
  8
95 3W MP2A LH1E_EXTENSION_DXF_RINGDESIGN_095 3W MPR02A LHS 01E EXST_SURVEYEXPORT_R7
  62
7
  100
AcDb3dPolyline
  10
0
  20
0
  30
0
  70
8
  0
VERTEX
  5
434
  330

  100
AcDbEntity
  8
95 3W MP2A LH1E_EXTENSION_DXF_RINGDESIGN_095 3W MPR02A LHS 01E EXST_SURVEYEXPORT_R7
  6
BYLAYER
  62
7
  100
AcDbVertex
  100
AcDb3dPolylineVertex
  10
7111.6290152237989
  20
-23230.216524602834
  30
-991.63494569555257
  70
32
  0
VERTEX
  5
435
  330

  100
AcDbEntity
  8
95 3W MP2A LH1E_EXTENSION_DXF_RINGDESIGN_095 3W MPR02A LHS 01E EXST_SURVEYEXPORT_R7
  6
BYLAYER
  62
7
  100
AcDbVertex
  100
AcDb3dPolylineVertex
  10
7111.6307638542894
  20
-23230.273432348735
  30
-987.94843001854281
  70
32
  0
SEQEND
  5
436
  330

  100
AcDbEntity
  8
95 3W MP2A LH1E_EXTENSION_DXF_RINGDESIGN_095 3W MPR02A LHS 01E EXST_SURVEYEXPORT_R7
  0
POLYLINE
  5
437
  330
19B
  100
AcDbEntity
  8
95 3W MP2A LH1E_EXTENSION_DXF_RINGDESIGN_095 3W MPR02A LHS 01E EXST_SURVEYEXPORT_R7
  62
7
  100
AcDb3dPolyline
  10
0
  20
0
  30
0
  70
8
  0
VERTEX
  5
438
  330

  100
AcDbEntity
  8
95 3W MP2A LH1E_EXTENSION_DXF_RINGDESIGN_095 3W MPR02A LHS 01E EXST_SURVEYEXPORT_R7
  6
BYLAYER
  62
7
  100
AcDbVertex
  100
AcDb3dPolylineVertex
  10
7111.6776004839194
  20
-23231.797692066633
  30
-991.57198838363831
  70
32
  0
VERTEX
  5
439
  330

  100
AcDbEntity
  8
95 3W MP2A LH1E_EXTENSION_DXF_RINGDESIGN_095 3W MPR02A LHS 01E EXST_SURVEYEXPORT_R7
  6
BYLAYER
  62
7
  100
AcDbVertex
  100
AcDb3dPolylineVertex
  10
7111.6830514521516
  20
-23231.975089359428
  30
-988.60551990242857
  70
32
  0
SEQEND
  5
43A
  330

  100
AcDbEntity
  8
95 3W MP2A LH1E_EXTENSION_DXF_RINGDESIGN_095 3W MPR02A LHS 01E EXST_SURVEYEXPORT_R7
  0
POLYLINE
  5
43B
  330
19B
  100
AcDbEntity
  8
95 3W MP2A LH1E_EXTENSION_DXF_RINGDESIGN_095 3W MPR02A LHS 01E EXST_SURVEYEXPORT_R7
  62
7
  100
AcDb3dPolyline
  10
0
  20
0
  30
0
  70
8
  0
VERTEX
  5
43C
  330

  100
AcDbEntity
  8
95 3W MP2A LH1E_EXTENSION_DXF_RINGDESIGN_095 3W MPR02A LHS 01E EXST_SURVEYEXPORT_R7
  6
BYLAYER
  62
7
  100
AcDbVertex
  100
AcDb3dPolylineVertex
  10
7111.713974909766
  20
-23232.981467938571
  30
-992.18467312444818
  70
32
  0
VERTEX
  5
43D
  330

  100
AcDbEntity
  8
95 3W MP2A LH1E_EXTENSION_DXF_RINGDESIGN_095 3W MPR02A LHS 01E EXST_SURVEYEXPORT_R7
  6
BYLAYER
  62
7
  100
AcDbVertex
  100
AcDb3dPolylineVertex
  10
7111.74909894419
  20
-23234.124550846627
  30
-989.35221295229837
  70
32
  0
SEQEND
  5
43E
  330

  100
AcDbEntity
  8
95 3W MP2A LH1E_EXTENSION_DXF_RINGDESIGN_095 3W MPR02A LHS 01E EXST_SURVEYEXPORT_R7
  0
POLYLINE
  5
43F
  330
19B
  100
AcDbEntity
  8
95 3W MP2A LH1E_EXTENSION_DXF_RINGDESIGN_095 3W MPR02A LHS 01E EXST_SURVEYEXPORT_R7
  62
7
  100
AcDb3dPolyline
  10
0
  20
0
  30
0
  70
8
  0
VERTEX
  5
440
  330

  100
AcDbEntity
  8
95 3W MP2A LH1E_EXTENSION_DXF_RINGDESIGN_095 3W MPR02A LHS 01E EXST_SURVEYEXPORT_R7
  6
BYLAYER
  62
7
  100
AcDbVertex
  100
AcDb3dPolylineVertex
  10
7111.7258991458375
  20
-23233.369532426816
  30
-993.58955043970423
  70
32
  0
VERTEX
  5
441
  330

  100
AcDbEntity
  8
95 3W MP2A LH1E_EXTENSION_DXF_RINGDESIGN_095 3W MPR02A LHS 01E EXST_SURVEYEXPORT_R7
  6
BYLAYER
  62
7
  100
AcDbVertex
  100
AcDb3dPolylineVertex
  10
7111.81422910995
  20
-23236.244158702062
  30
-990.30798005613349
  70
32
  0
SEQEND
  5
442
  330

  100
AcDbEntity
  8
95 3W MP2A LH1E_EXTENSION_DXF_RINGDESIGN_095 3W MPR02A LHS 01E EXST_SURVEYEXPORT_R7
  0
POLYLINE
  5
443
  330
19B
  100
AcDbEntity
  8
95 3W MP2A LH1E_EXTENSION_DXF_RINGDESIGN_095 3W MPR02A LHS 01E EXST_SURVEYEXPORT_R7
  62
7
  100
AcDb3dPolyline
  10
0
  20
0
  30
0
  70
8
  0
VERTEX
  5
444
  330

  100
AcDbEntity
  8
95 3W MP2A LH1E_EXTENSION_DXF_RINGDESIGN_095 3W MPR02A LHS 01E EXST_SURVEYEXPORT_R7
  6
BYLAYER
  62
7
  100
AcDbVertex
  100
AcDb3dPolylineVertex
  10
7111.7313936636119
  20
-23233.548347003725
  30
-994.44503489033946
  70
32
  0
VERTEX
  5
445
  330

  100
AcDbEntity
  8
95 3W MP2A LH1E_EXTENSION_DXF_RINGDESIGN_095 3W MPR02A LHS 01E EXST_SURVEYEXPORT_R7
  6
BYLAYER
  62
7
  100
AcDbVertex
  100
AcDb3dPolylineVertex
  10
7111.8821112545465
  20
-23238.453327452793
  30
-991.38321804794532
  70
32
  0
SEQEND
  5
446
  330

  100
AcDbEntity
  8
95 3W MP2A LH1E_EXTENSION_DXF_RINGDESIGN_095 3W MPR02A LHS 01E EXST_SURVEYEXPORT_R7
  0
POLYLINE
  5
447
  330
19B
  100
AcDbEntity
  8
95 3W MP2A LH1E_EXTENSION_DXF_RINGDESIGN_095 3W MPR02A LHS 01E EXST_SURVEYEXPORT_R7
  62
7
  100
AcDb3dPolyline
  10
0
  20
0
  30
0
  70
8
  0
VERTEX
  5
448
  330

  100
AcDbEntity
  8
95 3W MP2A LH1E_EXTENSION_DXF_RINGDESIGN_095 3W MPR02A LHS 01E EXST_SURVEYEXPORT_R7
  6
BYLAYER
  62
7
  100
AcDbVertex
  100
AcDb3dPolylineVertex
  10
7111.7360817264289
  20
-23233.700916165202
  30
-995.14747396027053
  70
32
  0
VERTEX
  5
449
  330

  100
AcDbEntity
  8
95 3W MP2A LH1E_EXTENSION_DXF_RINGDESIGN_095 3W MPR02A LHS 01E EXST_SURVEYEXPORT_R7
  6
BYLAYER
  62
7
  100
AcDbVertex
  100
AcDb3dPolylineVertex
  10
7111.897705801277
  20
-23238.96083919283
  30
-993.74276808553543
  70
32
  0
SEQEND
  5
44A
  330

  100
AcDbEntity
  8
95 3W MP2A LH1E_EXTENSION_DXF_RINGDESIGN_095 3W MPR02A LHS 01E EXST_SURVEYEXPORT_R7
  0
POLYLINE
  5
44B
  330
19B
  100
AcDbEntity
  8
95 3W MP2A LH1E_EXTENSION_DXF_RINGDESIGN_095 3W MPR02A LHS 01E EXST_SURVEYEXPORT_R7
  62
7
  100
AcDb3dPolyline
  10
0
  20
0
  30
0
  70
8
  0
VERTEX
  5
44C
  330

  100
AcDbEntity
  8
95 3W MP2A LH1E_EXTENSION_DXF_RINGDESIGN_095 3W MPR02A LHS 01E EXST_SURVEYEXPORT_R7
  6
BYLAYER
  62
7
  100
AcDbVertex
  100
AcDb3dPolylineVertex
  10
7111.7397593263795
  20
-23233.82060064092
  30
-995.69850964136845
  70
32
  0
VERTEX
  5
44D
  330

  100
AcDbEntity
  8
95 3W MP2A LH1E_EXTENSION_DXF_RINGDESIGN_095 3W MPR02A LHS 01E EXST_SURVEYEXPORT_R7
  6
BYLAYER
  62
7
  100
AcDbVertex
  100
AcDb3dPolylineVertex
  10
7111.9032097589479
  20
-23239.139960983422
  30
-995.59456684921338
  70
32
  0
SEQEND
  5
44E
  330

  100
AcDbEntity
  8
95 3W MP2A LH1E_EXTENSION_DXF_RINGDESIGN_095 3W MPR02A LHS 01E EXST_SURVEYEXPORT_R7
  0
POLYLINE
  5
44F
  330
19B
  100
AcDbEntity
  8
95 3W MP2A LH1E_EXTENSION_DXF_RINGDESIGN_095 3W MPR02A LHS 01E EXST_SURVEYEXPORT_R7
  62
7
  100
AcDb3dPolyline
  10
0
  20
0
  30
0
  70
8
  0
VERTEX
  5
450
  330

  100
AcDbEntity
  8
95 3W MP2A LH1E_EXTENSION_DXF_RINGDESIGN_095 3W MPR02A LHS 01E EXST_SURVEYEXPORT_R7
  6
BYLAYER
  62
7
  100
AcDbVertex
  100
AcDb3dPolylineVertex
  10
7111.7409969055761
  20
-23233.860876641385
  30
-996.33450864841745
  70
32
  0
VERTEX
  5
451
  330

  100
AcDbEntity
  8
95 3W MP2A LH1E_EXTENSION_DXF_RINGDESIGN_095 3W MPR02A LHS 01E EXST_SURVEYEXPORT_R7
  6
BYLAYER
  62
7
  100
AcDbVertex
  100
AcDb3dPolylineVertex
  10
7111.8903671910512
  20
-23238.722010138692
  30
-997.65543966685539
  70
32
  0
SEQEND
  5
452
  330

  100
AcDbEntity
  8
95 3W MP2A LH1E_EXTENSION_DXF_RINGDESIGN_095 3W MPR02A LHS 01E EXST_SURVEYEXPORT_R7
  0
POLYLINE
  5
453
  330
19B
  100
AcDbEntity
  8
95 3W MP2A LH1E_EXTENSION_DXF_RINGDESIGN_095 3W MPR02A LHS 01E EXST_SURVEYEXPORT_R7
  62
7
  100
AcDb3dPolyline
  10
0
  20
0
  30
0
  70
8
  0
VERTEX
  5
454
  330

  100
AcDbEntity
  8
95 3W MP2A LH1E_EXTENSION_DXF_RINGDESIGN_095 3W MPR02A LHS 01E EXST_SURVEYEXPORT_R7
  6
BYLAYER
  62
7
  100
AcDbVertex
  100
AcDb3dPolylineVertex
  10
7111.7409969055761
  20
-23233.860876641385
  30
-997.03202717646332
  70
32
  0
VERTEX
  5
455
  330

  100
AcDbEntity
  8
95 3W MP2A LH1E_EXTENSION_DXF_RINGDESIGN_095 3W MPR02A LHS 01E EXST_SURVEYEXPORT_R7
  6
BYLAYER
  62
7
  100
AcDbVertex
  100
AcDb3dPolylineVertex
  10
7111.8059731734465
  20
-23235.975476016156
  30
-998.22292638475722
  70
32
  0
SEQEND
  5
456
  330

  100
AcDbEntity
  8
95 3W MP2A LH1E_EXTENSION_DXF_RINGDESIGN_095 3W MPR02A LHS 01E EXST_SURVEYEXPORT_R7
  0
LWPOLYLINE
  5
457
  330
19B
  100
AcDbEntity
  8
95 3W MP2A LH1E_EXTENSION_DXF_RINGDESIGN_095 3W MPR02A LHS 01E EXST_SURVEYEXPORT
  62
7
  100
AcDbPolyline
  90
2
  43
0
  38
-994.40350000513058
  10
7115.15078056355
  20
-23220.862901545483
  10
7106.955725303289
  20
-23239.106833941794
  0
LWPOLYLINE
  5
458
  330
19B
  100
AcDbEntity
  8
95 3W MP2A LH1E_EXTENSION_DXF_RINGDESIGN_095 3W MPR02A LHS 01E EXST_SURVEYEXPORT
  62
1
  100
AcDbPolyline
  90
2
  43
0
  38
-994.40350000513058
  10
7112.2499953125362
  20
-23219.5598877591
  10
7104.054940052275
  20
-23237.803820155412
  0
POLYLINE
  5
459
  330
19B
  100
AcDbEntity
  8
95 3W MP2A LH1E_EXTENSION_DXF_RINGDESIGN_095 3W MPR02A LHS 01E EXST_SURVEYEXPORT_6A
  62
7
  100
AcDb3dPolyline
  10
0
  20
0
  30
0
  70
8
  0
VERTEX
  5
45A
  330

  100
AcDbEntity
  8
95 3W MP2A LH1E_EXTENSION_DXF_RINGDESIGN_095 3W MPR02A LHS 01E EXST_SURVEYEXPORT_6A
  6
BYLAYER
  62
7
  100
AcDbVertex
  100
AcDb3dPolylineVertex
  10
7111.9199551820211
  20
-23228.055404582115
  30
-996.65092474110736
  70
32
  0
VERTEX
  5
45B
  330

  100
AcDbEntity
  8
95 3W MP2A LH1E_EXTENSION_DXF_RINGDESIGN_095 3W MPR02A LHS 01E EXST_SURVEYEXPORT_6A
  6
BYLAYER
  62
7
  100
AcDbVertex
  100
AcDb3dPolylineVertex
  10
7112.8813146809025
  20
-23225.915214290639
  30
-997.67738464260276
  70
32
  0
SEQEND
  5
45C
  330

  100
AcDbEntity
  8
95 3W MP2A LH1E_EXTENSION_DXF_RINGDESIGN_095 3W MPR02A LHS 01E EXST_SURVEYEXPORT_6A
  0
POLYLINE
  5
45D
  330
19B
  100
AcDbEntity
  8
95 3W MP2A LH1E_EXTENSION_DXF_RINGDESIGN_095 3W MPR02A LHS 01E EXST_SURVEYEXPORT_6A
  62
7
  100
AcDb3dPolyline
  10
0
  20
0
  30
0
  70
8
  0
VERTEX
  5
45E
  330

  100
AcDbEntity
  8
95 3W MP2A LH1E_EXTENSION_DXF_RINGDESIGN_095 3W MPR02A LHS 01E EXST_SURVEYEXPORT_6A
  6
BYLAYER
  62
7
  100
AcDbVertex
  100
AcDb3dPolylineVertex
  10
7111.91995518202
  20
-23228.055404582115
  30
-995.991112209566
  70
32
  0
VERTEX
  5
45F
  330

  100
AcDbEntity
  8
95 3W MP2A LH1E_EXTENSION_DXF_RINGDESIGN_095 3W MPR02A LHS 01E EXST_SURVEYEXPORT_6A
  6
BYLAYER
  62
7
  100
AcDbVertex
  100
AcDb3dPolylineVertex
  10
7114.2964632234934
  20
-23222.764793271886
  30
-997.53545322768389
  70
32
  0
SEQEND
  5
460
  330

  100
AcDbEntity
  8
95 3W MP2A LH1E_EXTENSION_DXF_RINGDESIGN_095 3W MPR02A LHS 01E EXST_SURVEYEXPORT_6A
  0
POLYLINE
  5
461
  330
19B
  100
AcDbEntity
  8
95 3W MP2A LH1E_EXTENSION_DXF_RINGDESIGN_095 3W MPR02A LHS 01E EXST_SURVEYEXPORT_6A
  62
7
  100
AcDb3dPolyline
  10
0
  20
0
  30
0
  70
8
  0
VERTEX
  5
462
  330

  100
AcDbEntity
  8
95 3W MP2A LH1E_EXTENSION_DXF_RINGDESIGN_095 3W MPR02A LHS 01E EXST_SURVEYEXPORT_6A
  6
BYLAYER
  62
7
  100
AcDbVertex
  100
AcDb3dPolylineVertex
  10
7111.9054485306679
  20
-23228.087699467043
  30
-995.60630544294258
  70
32
  0
VERTEX
  5
463
  330

  100
AcDbEntity
  8
95 3W MP2A LH1E_EXTENSION_DXF_RINGDESIGN_095 3W MPR02A LHS 01E EXST_SURVEYEXPORT_6A
  6
BYLAYER
  62
7
  100
AcDbVertex
  100
AcDb3dPolylineVertex
  10
7115.9054677308241
  20
-23219.182807730016
  30
-997.48814275604377
  70
32
  0
SEQEND
  5
464
  330

  100
AcDbEntity
  8
95 3W MP2A LH1E_EXTENSION_DXF_RINGDESIGN_095 3W MPR02A LHS 01E EXST_SURVEYEXPORT_6A
  0
POLYLINE
  5
465
  330
19B
  100
AcDbEntity
  8
95 3W MP2A LH1E_EXTENSION_DXF_RINGDESIGN_095 3W MPR02A LHS 01E EXST_SURVEYEXPORT_6A
  62
7
  100
AcDb3dPolyline
  10
0
  20
0
  30
0
  70
8
  0
VERTEX
  5
466
  330

  100
AcDbEntity
  8
95 3W MP2A LH1E_EXTENSION_DXF_RINGDESIGN_095 3W MPR02A LHS 01E EXST_SURVEYEXPORT_6A
  6
BYLAYER
  62
7
  100
AcDbVertex
  100
AcDb3dPolylineVertex
  10
7111.8716967198889
  20
-23228.162838161603
  30
-995.078265011035
  70
32
  0
VERTEX
  5
467
  330

  100
AcDbEntity
  8
95 3W MP2A LH1E_EXTENSION_DXF_RINGDESIGN_095 3W MPR02A LHS 01E EXST_SURVEYEXPORT_6A
  6
BYLAYER
  62
7
  100
AcDbVertex
  100
AcDb3dPolylineVertex
  10
7116.1962516779322
  20
-23218.535460945339
  30
-995.359171532254
  70
32
  0
SEQEND
  5
468
  330

  100
AcDbEntity
  8
95 3W MP2A LH1E_EXTENSION_DXF_RINGDESIGN_095 3W MPR02A LHS 01E EXST_SURVEYEXPORT_6A
  0
POLYLINE
  5
469
  330
19B
  100
AcDbEntity
  8
95 3W MP2A LH1E_EXTENSION_DXF_RINGDESIGN_095 3W MPR02A LHS 01E EXST_SURVEYEXPORT_6A
  62
7
  100
AcDb3dPolyline
  10
0
  20
0
  30
0
  70
8
  0
VERTEX
  5
46A
  330

  100
AcDbEntity
  8
95 3W MP2A LH1E_EXTENSION_DXF_RINGDESIGN_095 3W MPR02A LHS 01E EXST_SURVEYEXPORT_6A
  6
BYLAYER
  62
7
  100
AcDbVertex
  100
AcDb3dPolylineVertex
  10
7111.8093031175385
  20
-23228.301739563365
  30
-994.10212939131225
  70
32
  0
VERTEX
  5
46B
  330

  100
AcDbEntity
  8
95 3W MP2A LH1E_EXTENSION_DXF_RINGDESIGN_095 3W MPR02A LHS 01E EXST_SURVEYEXPORT_6A
  6
BYLAYER
  62
7
  100
AcDbVertex
  100
AcDb3dPolylineVertex
  10
7115.9636245202419
  20
-23219.053338373084
  30
-993.08826889354475
  70
32
  0
SEQEND
  5
46C
  330

  100
AcDbEntity
  8
95 3W MP2A LH1E_EXTENSION_DXF_RINGDESIGN_095 3W MPR02A LHS 01E EXST_SURVEYEXPORT_6A
  0
POLYLINE
  5
46D
  330
19B
  100
AcDbEntity
  8
95 3W MP2A LH1E_EXTENSION_DXF_RINGDESIGN_095 3W MPR02A LHS 01E EXST_SURVEYEXPORT_6A
  62
7
  100
AcDb3dPolyline
  10
0
  20
0
  30
0
  70
8
  0
VERTEX
  5
46E
  330

  100
AcDbEntity
  8
95 3W MP2A LH1E_EXTENSION_DXF_RINGDESIGN_095 3W MPR02A LHS 01E EXST_SURVEYEXPORT_6A
  6
BYLAYER
  62
7
  100
AcDbVertex
  100
AcDb3dPolylineVertex
  10
7111.8682271195557
  20
-23228.170562228359
  30
-993.27996392277612
  70
32
  0
VERTEX
  5
46F
  330

  100
AcDbEntity
  8
95 3W MP2A LH1E_EXTENSION_DXF_RINGDESIGN_095 3W MPR02A LHS 01E EXST_SURVEYEXPORT_6A
  6
BYLAYER
  62
7
  100
AcDbVertex
  100
AcDb3dPolylineVertex
  10
7115.5371413978173
  20
-23220.002780323946
  30
-991.19585002795452
  70
32
  0
SEQEND
  5
470
  330

  100
AcDbEntity
  8
95 3W MP2A LH1E_EXTENSION_DXF_RINGDESIGN_095 3W MPR02A LHS 01E EXST_SURVEYEXPORT_6A
  0
POLYLINE
  5
471
  330
19B
  100
AcDbEntity
  8
95 3W MP2A LH1E_EXTENSION_DXF_RINGDESIGN_095 3W MPR02A LHS 01E EXST_SURVEYEXPORT_6A
  62
7
  100
AcDb3dPolyline
  10
0
  20
0
  30
0
  70
8
  0
VERTEX
  5
472
  330

  100
AcDbEntity
  8
95 3W MP2A LH1E_EXTENSION_DXF_RINGDESIGN_095 3W MPR02A LHS 01E EXST_SURVEYEXPORT_6A
  6
BYLAYER
  62
7
  100
AcDbVertex
  100
AcDb3dPolylineVertex
  10
7111.9351272985186
  20
-23228.021628230534
  30
-992.84382460136578
  70
32
  0
VERTEX
  5
473
  330

  100
AcDbEntity
  8
95 3W MP2A LH1E_EXTENSION_DXF_RINGDESIGN_095 3W MPR02A LHS 01E EXST_SURVEYEXPORT_6A
  6
BYLAYER
  62
7
  100
AcDbVertex
  100
AcDb3dPolylineVertex
  10
7114.5484759776518
  20
-23222.203759391836
  30
-990.3915720100789
  70
32
  0
SEQEND
  5
474
  330

  100
AcDbEntity
  8
95 3W MP2A LH1E_EXTENSION_DXF_RINGDESIGN_095 3W MPR02A LHS 01E EXST_SURVEYEXPORT_6A
  0
POLYLINE
  5
475
  330
19B
  100
AcDbEntity
  8
95 3W MP2A LH1E_EXTENSION_DXF_RINGDESIGN_095 3W MPR02A LHS 01E EXST_SURVEYEXPORT_6A
  62
7
  100
AcDb3dPolyline
  10
0
  20
0
  30
0
  70
8
  0
VERTEX
  5
476
  330

  100
AcDbEntity
  8
95 3W MP2A LH1E_EXTENSION_DXF_RINGDESIGN_095 3W MPR02A LHS 01E EXST_SURVEYEXPORT_6A
  6
BYLAYER
  62
7
  100
AcDbVertex
  100
AcDb3dPolylineVertex
  10
7111.87025552956
  20
-23228.166046557162
  30
-992.24181310768381
  70
32
  0
VERTEX
  5
477
  330

  100
AcDbEntity
  8
95 3W MP2A LH1E_EXTENSION_DXF_RINGDESIGN_095 3W MPR02A LHS 01E EXST_SURVEYEXPORT_6A
  6
BYLAYER
  62
7
  100
AcDbVertex
  100
AcDb3dPolylineVertex
  10
7113.8893656975415
  20
-23223.671078770436
  30
-988.73570550268664
  70
32
  0
SEQEND
  5
478
  330

  100
AcDbEntity
  8
95 3W MP2A LH1E_EXTENSION_DXF_RINGDESIGN_095 3W MPR02A LHS 01E EXST_SURVEYEXPORT_6A
  0
POLYLINE
  5
479
  330
19B
  100
AcDbEntity
  8
95 3W MP2A LH1E_EXTENSION_DXF_RINGDESIGN_095 3W MPR02A LHS 01E EXST_SURVEYEXPORT_6A
  62
7
  100
AcDb3dPolyline
  10
0
  20
0
  30
0
  70
8
  0
VERTEX
  5
47A
  330

  100
AcDbEntity
  8
95 3W MP2A LH1E_EXTENSION_DXF_RINGDESIGN_095 3W MPR02A LHS 01E EXST_SURVEYEXPORT_6A
  6
BYLAYER
  62
7
  100
AcDbVertex
  100
AcDb3dPolylineVertex
  10
7111.7343453323529
  20
-23228.46861150286
  30
-992.04639522275784
  70
32
  0
VERTEX
  5
47B
  330

  100
AcDbEntity
  8
95 3W MP2A LH1E_EXTENSION_DXF_RINGDESIGN_095 3W MPR02A LHS 01E EXST_SURVEYEXPORT_6A
  6
BYLAYER
  62
7
  100
AcDbVertex
  100
AcDb3dPolylineVertex
  10
7113.7536665222251
  20
-23223.973173936614
  30
-985.75514578937975
  70
32
  0
SEQEND
  5
47C
  330

  100
AcDbEntity
  8
95 3W MP2A LH1E_EXTENSION_DXF_RINGDESIGN_095 3W MPR02A LHS 01E EXST_SURVEYEXPORT_6A
  0
POLYLINE
  5
47D
  330
19B
  100
AcDbEntity
  8
95 3W MP2A LH1E_EXTENSION_DXF_RINGDESIGN_095 3W MPR02A LHS 01E EXST_SURVEYEXPORT_6A
  62
7
  100
AcDb3dPolyline
  10
0
  20
0
  30
0
  70
8
  0
VERTEX
  5
47E
  330

  100
AcDbEntity
  8
95 3W MP2A LH1E_EXTENSION_DXF_RINGDESIGN_095 3W MPR02A LHS 01E EXST_SURVEYEXPORT_6A
  6
BYLAYER
  62
7
  100
AcDbVertex
  100
AcDb3dPolylineVertex
  10
7111.5454942564756
  20
-23228.889034081098
  30
-991.80559363956741
  70
32
  0
VERTEX
  5
47F
  330

  100
AcDbEntity
  8
95 3W MP2A LH1E_EXTENSION_DXF_RINGDESIGN_095 3W MPR02A LHS 01E EXST_SURVEYEXPORT_6A
  6
BYLAYER
  62
7
  100
AcDbVertex
  100
AcDb3dPolylineVertex
  10
7112.4548315584771
  20
-23226.8646562415
  30
-986.70135522217515
  70
32
  0
SEQEND
  5
480
  330

  100
AcDbEntity
  8
95 3W MP2A LH1E_EXTENSION_DXF_RINGDESIGN_095 3W MPR02A LHS 01E EXST_SURVEYEXPORT_6A
  0
LWPOLYLINE
  5
481
  330
19B
  100
AcDbEntity
  8
95 3W MP2A LH1E_EXTENSION_DXF_RINGDESIGN_095 3W MPR02A LHS 01E EXST_SURVEYEXPORT
  62
7
  100
AcDbPolyline
  90
2
  43
0
  38
-994.40350000513058
  10
7109.0614830221593
  20
-23219.900981935461
  10
7110.196016823128
  20
-23239.868776832605
  0
LWPOLYLINE
  5
482
  330
19B
  100
AcDbEntity
  8
95 3W MP2A LH1E_EXTENSION_DXF_RINGDESIGN_095 3W MPR02A LHS 01E EXST_SURVEYEXPORT
  62
1
  100
AcDbPolyline
  90
2
  43
0
  38
-994.40350000513058
  10
7105.886603633513
  20
-23220.081372809815
  10
7107.0211374344817
  20
-23240.049167706959
  0
LWPOLYLINE
  5
483
  330
19B
  100
AcDbEntity
  8
95 3W MP2A LH1E_EXTENSION_DXF_RINGDESIGN_095 3W MPR02A LHS 01E EXST_SURVEYEXPORT
  62
7
  100
AcDbPolyline
  90
2
  43
0
  38
-994.40350000513058
  10
7107.0647035324446
  20
-23220.014435315559
  10
7108.1992373334133
  20
-23239.982230212703
  0
LWPOLYLINE
  5
484
  330
19B
  100
AcDbEntity
  8
95 3W MP2A LH1E_EXTENSION_DXF_RINGDESIGN_095 3W MPR02A LHS 01E EXST_SURVEYEXPORT
  62
1
  100
AcDbPolyline
  90
2
  43
0
  38
-994.40350000513058
  10
7103.8898241437983
  20
-23220.194826189912
  10
7105.024357944767
  20
-23240.162621087056
  0
LWPOLYLINE
  5
485
  330
19B
  100
AcDbEntity
  8
95 3W MP2A LH1E_EXTENSION_DXF_RINGDESIGN_095 3W MPR02A LHS 01E EXST_SURVEYEXPORT
  62
7
  100
AcDbPolyline
  90
2
  43
0
  38
-994.40350000513058
  10
7105.06792404273
  20
-23220.127888695657
  10
7106.2024578436985
  20
-23240.0956835928
  0
LWPOLYLINE
  5
486
  330
19B
  100
AcDbEntity
  8
95 3W MP2A LH1E_EXTENSION_DXF_RINGDESIGN_095 3W MPR02A LHS 01E EXST_SURVEYEXPORT
  62
1
  100
AcDbPolyline
  90
2
  43
0
  38
-994.40350000513058
  10
7101.8930446540835
  20
-23220.30827957001
  10
7103.0275784550522
  20
-23240.276074467154
  0
LWPOLYLINE
  5
487
  330
19B
  100
AcDbEntity
  8
95 3W MP2A LH1E_EXTENSION_DXF_RINGDESIGN_095 3W MPR02A LHS 01E EXST_SURVEYEXPORT
  62
7
  100
AcDbPolyline
  90
2
  43
0
  38
-994.40350000513058
  10
7103.1977322656721
  20
-23220.799239813732
  10
7104.33158801694
  20
-23240.767073224877
  0
LWPOLYLINE
  5
488
  330
19B
  100
AcDbEntity
  8
95 3W MP2A LH1E_EXTENSION_DXF_RINGDESIGN_095 3W MPR02A LHS 01E EXST_SURVEYEXPORT
  62
1
  100
AcDbPolyline
  90
2
  43
0
  38
-994.40350000513058
  10
7100.0228467533
  20
-23220.979522878184
  10
7101.1567025045679
  20
-23240.947356289329
  0
LWPOLYLINE
  5
489
  330
19B
  100
AcDbEntity
  8
95 3W MP2A LH1E_EXTENSION_DXF_RINGDESIGN_095 3W MPR02A LHS 01E EXST_SURVEYEXPORT
  62
7
  100
AcDbPolyline
  90
2
  43
0
  38
-994.40350000513058
  10
7096.59840512434
  20
-23223.167990628783
  10
7107.3051065765258
  20
-23240.060786253358
  0
LWPOLYLINE
  5
48A
  330
19B
  100
AcDbEntity
  8
95 3W MP2A LH1E_EXTENSION_DXF_RINGDESIGN_095 3W MPR02A LHS 01E EXST_SURVEYEXPORT
  62
1
  100
AcDbPolyline
  90
2
  43
0
  38
-994.40350000513058
  10
7093.9124506200324
  20
-23224.870356159681
  10
7104.6191520722177
  20
-23241.763151784256
  0
LWPOLYLINE
  5
48B
  330
19B
  100
AcDbEntity
  8
95 3W MP2A LH1E_EXTENSION_DXF_RINGDESIGN_095 3W MPR02A LHS 01E EXST_SURVEYEXPORT
  62
7
  100
AcDbPolyline
  90
2
  43
0
  38
-994.40350000513058
  10
7094.9091255618814
  20
-23224.238660774
  10
7105.6158270140668
  20
-23241.131456398576
  0
LWPOLYLINE
  5
48C
  330
19B
  100
AcDbEntity
  8
95 3W MP2A LH1E_EXTENSION_DXF_RINGDESIGN_095 3W MPR02A LHS 01E EXST_SURVEYEXPORT
  62
1
  100
AcDbPolyline
  90
2
  43
0
  38
-994.40350000513058
  10
7092.2231710575734
  20
-23225.9410263049
  10
7102.9298725097588
  20
-23242.833821929475
  0
LWPOLYLINE
  5
48D
  330
19B
  100
AcDbEntity
  8
95 3W MP2A LH1E_EXTENSION_DXF_RINGDESIGN_095 3W MPR02A LHS 01E EXST_SURVEYEXPORT
  62
7
  100
AcDbPolyline
  90
2
  43
0
  38
-994.40350000513058
  10
7093.2198459994233
  20
-23225.309330919219
  10
7103.9265474516087
  20
-23242.202126543794
  0
LWPOLYLINE
  5
48E
  330
19B
  100
AcDbEntity
  8
95 3W MP2A LH1E_EXTENSION_DXF_RINGDESIGN_095 3W MPR02A LHS 01E EXST_SURVEYEXPORT
  62
1
  100
AcDbPolyline
  90
2
  43
0
  38
-994.40350000513058
  10
7090.5338914951153
  20
-23227.011696450118
  10
7101.2405929473007
  20
-23243.904492074693
  0
LWPOLYLINE
  5
48F
  330
19B
  100
AcDbEntity
  8
95 3W MP2A LH1E_EXTENSION_DXF_RINGDESIGN_095 3W MPR02A LHS 01E EXST_SURVEYEXPORT
  62
7
  100
AcDbPolyline
  90
2
  43
0
  38
-994.40350000513058
  10
7097.3300896533456
  20
-23223.926780683225
  10
7095.9696118906068
  20
-23243.880454536858
  0
LWPOLYLINE
  5
490
  330
19B
  100
AcDbEntity
  8
95 3W MP2A LH1E_EXTENSION_DXF_RINGDESIGN_095 3W MPR02A LHS 01E EXST_SURVEYEXPORT
  62
1
  100
AcDbPolyline
  90
2
  43
0
  38
-994.40350000513058
  10
7094.1574555106181
  20
-23223.710464718948
  10
7092.7969777478793
  20
-23243.664138572582
  0
LWPOLYLINE
  5
491
  330
19B
  100
AcDbEntity
  8
95 3W MP2A LH1E_EXTENSION_DXF_RINGDESIGN_095 3W MPR02A LHS 01E EXST_SURVEYEXPORT
  62
7
  100
AcDbPolyline
  90
2
  43
0
  38
-994.40350000513058
  10
7095.3347222679822
  20
-23223.790732906949
  10
7093.9742445052434
  20
-23243.744406760583
  0
LWPOLYLINE
  5
492
  330
19B
  100
AcDbEntity
  8
95 3W MP2A LH1E_EXTENSION_DXF_RINGDESIGN_095 3W MPR02A LHS 01E EXST_SURVEYEXPORT
  62
1
  100
AcDbPolyline
  90
2
  43
0
  38
-994.40350000513058
  10
7092.1620881252547
  20
-23223.574416942673
  10
7090.8016103625159
  20
-23243.528090796306
  0
LWPOLYLINE
  5
493
  330
19B
  100
AcDbEntity
  8
95 3W MP2A LH1E_EXTENSION_DXF_RINGDESIGN_095 3W MPR02A LHS 01E EXST_SURVEYEXPORT
  62
7
  100
AcDbPolyline
  90
2
  43
0
  38
-994.45593748063936
  10
7095.69318211833
  20
-23224.017987972245
  10
7089.6630785682573
  20
-23243.087278760719
  0
LWPOLYLINE
  5
494
  330
19B
  100
AcDbEntity
  8
95 3W MP2A LH1E_EXTENSION_DXF_RINGDESIGN_095 3W MPR02A LHS 01E EXST_SURVEYEXPORT
  62
1
  100
AcDbPolyline
  90
2
  43
0
  38
-994.45593748063936
  10
7092.6611648829621
  20
-23223.059201507785
  10
7086.63106133289
  20
-23242.128492296259
  0
LWPOLYLINE
  5
495
  330
19B
  100
AcDbEntity
  8
95 3W MP2A LH1E_EXTENSION_DXF_RINGDESIGN_095 3W MPR02A LHS 01E EXST_SURVEYEXPORT
  62
7
  100
AcDbPolyline
  90
2
  43
0
  38
-994.76161913629755
  10
7093.808657894293
  20
-23223.422062495014
  10
7087.7785543442205
  20
-23242.491353283487
  0
LWPOLYLINE
  5
496
  330
19B
  100
AcDbEntity
  8
95 3W MP2A LH1E_EXTENSION_DXF_RINGDESIGN_095 3W MPR02A LHS 01E EXST_SURVEYEXPORT
  62
1
  100
AcDbPolyline
  90
2
  43
0
  38
-994.76161913629755
  10
7090.7766406589253
  20
-23222.463276030554
  10
7084.7465371088529
  20
-23241.532566819027
  0
LWPOLYLINE
  5
497
  330
19B
  100
AcDbEntity
  8
95 3W MP2A LH1E_EXTENSION_DXF_RINGDESIGN_095 3W MPR02A LHS 01E EXST_SURVEYEXPORT
  62
7
  100
AcDbPolyline
  90
2
  43
0
  38
-995.06730079195574
  10
7091.9241336702562
  20
-23222.826137017786
  10
7085.8940301201837
  20
-23241.895427806259
  0
LWPOLYLINE
  5
498
  330
19B
  100
AcDbEntity
  8
95 3W MP2A LH1E_EXTENSION_DXF_RINGDESIGN_095 3W MPR02A LHS 01E EXST_SURVEYEXPORT
  62
1
  100
AcDbPolyline
  90
2
  43
0
  38
-995.06730079195574
  10
7088.8921164348885
  20
-23221.867350553326
  10
7082.8620128848161
  20
-23240.9366413418
  0
LWPOLYLINE
  5
499
  330
19B
  100
AcDbEntity
  8
95 3W MP2A LH1E_EXTENSION_DXF_RINGDESIGN_095 3W MPR02A LHS 01E EXST_SURVEYEXPORT
  62
7
  100
AcDbPolyline
  90
2
  43
0
  38
-995.37298244761371
  10
7090.03960944622
  20
-23222.230211540555
  10
7084.0095058961479
  20
-23241.299502329028
  0
LWPOLYLINE
  5
49A
  330
19B
  100
AcDbEntity
  8
95 3W MP2A LH1E_EXTENSION_DXF_RINGDESIGN_095 3W MPR02A LHS 01E EXST_SURVEYEXPORT
  62
1
  100
AcDbPolyline
  90
2
  43
0
  38
-995.37298244761371
  10
7087.0075922108526
  20
-23221.271425076095
  10
7080.97748866078
  20
-23240.340715864568
  0
LWPOLYLINE
  5
49B
  330
19B
  100
AcDbEntity
  8
95 3W MP2A LH1E_EXTENSION_DXF_RINGDESIGN_095 3W MPR02A LHS 01E EXST_SURVEYEXPORT
  62
7
  100
AcDbPolyline
  90
2
  43
0
  38
-995.75717979361548
  10
7088.7207135873959
  20
-23221.750871607532
  10
7081.6361723351929
  20
-23240.454060513322
  0
LWPOLYLINE
  5
49C
  330
19B
  100
AcDbEntity
  8
95 3W MP2A LH1E_EXTENSION_DXF_RINGDESIGN_095 3W MPR02A LHS 01E EXST_SURVEYEXPORT
  62
1
  100
AcDbPolyline
  90
2
  43
0
  38
-995.75717979361548
  10
7085.7469065513751
  20
-23220.624429548432
  10
7078.6623652991721
  20
-23239.327618454223
  0
LWPOLYLINE
  5
49D
  330
19B
  100
AcDbEntity
  8
95 3W MP2A LH1E_EXTENSION_DXF_RINGDESIGN_095 3W MPR02A LHS 01E EXST_SURVEYEXPORT
  62
7
  100
AcDbPolyline
  90
2
  43
0
  38
-995.96454284033587
  10
7086.88338134886
  20
-23221.081205174578
  10
7079.7988400966569
  20
-23239.784394080369
  0
LWPOLYLINE
  5
49E
  330
19B
  100
AcDbEntity
  8
95 3W MP2A LH1E_EXTENSION_DXF_RINGDESIGN_095 3W MPR02A LHS 01E EXST_SURVEYEXPORT
  62
1
  100
AcDbPolyline
  90
2
  43
0
  38
-995.96454284033587
  10
7083.9095743128391
  20
-23219.954763115478
  10
7076.8250330606361
  20
-23238.657952021269
  0
LWPOLYLINE
  5
49F
  330
19B
  100
AcDbEntity
  8
95 3W MP2A LH1E_EXTENSION_DXF_RINGDESIGN_095 3W MPR02A LHS 01E EXST_SURVEYEXPORT
  62
7
  100
AcDbPolyline
  90
2
  43
0
  38
-996.25848658403709
  10
7085.0495962550913
  20
-23220.402174279432
  10
7077.9650550028882
  20
-23239.105363185223
  0
LWPOLYLINE
  5
4A0
  330
19B
  100
AcDbEntity
  8
95 3W MP2A LH1E_EXTENSION_DXF_RINGDESIGN_095 3W MPR02A LHS 01E EXST_SURVEYEXPORT
  62
1
  100
AcDbPolyline
  90
2
  43
0
  38
-996.25848658403709
  10
7082.07578921907
  20
-23219.275732220332
  10
7074.9912479668674
  20
-23237.978921126123
  0
LWPOLYLINE
  5
4A1
  330
19B
  100
AcDbEntity
  8
95 3W MP2A LH1E_EXTENSION_DXF_RINGDESIGN_095 3W MPR02A LHS 01E EXST_SURVEYEXPORT
  62
7
  100
AcDbPolyline
  90
2
  43
0
  38
-996.55243032773785
  10
7083.2158111613253
  20
-23219.72314338429
  10
7076.1312699091222
  20
-23238.426332290081
  0
LWPOLYLINE
  5
4A2
  330
19B
  100
AcDbEntity
  8
95 3W MP2A LH1E_EXTENSION_DXF_RINGDESIGN_095 3W MPR02A LHS 01E EXST_SURVEYEXPORT
  62
1
  100
AcDbPolyline
  90
2
  43
0
  38
-996.55243032773785
  10
7080.2420041253044
  20
-23218.59670132519
  10
7073.1574628731014
  20
-23237.299890230981
  0
LWPOLYLINE
  5
4A3
  330
19B
  100
AcDbEntity
  8
95 3W MP2A LH1E_EXTENSION_DXF_RINGDESIGN_095 3W MPR02A LHS 01E EXST_SURVEYEXPORT
  62
7
  100
AcDbPolyline
  90
2
  43
0
  38
-996.98942996785615
  10
7083.1671047643867
  20
-23220.234915791898
  10
7070.7274811044917
  20
-23235.895559559005
  0
LWPOLYLINE
  5
4A4
  330
19B
  100
AcDbEntity
  8
95 3W MP2A LH1E_EXTENSION_DXF_RINGDESIGN_095 3W MPR02A LHS 01E EXST_SURVEYEXPORT
  62
1
  100
AcDbPolyline
  90
2
  43
0
  38
-996.98942996785615
  10
7080.677062405417
  20
-23218.257015629973
  10
7068.237438745522
  20
-23233.917659397081
  0
LWPOLYLINE
  5
4A5
  330
19B
  100
AcDbEntity
  8
95 3W MP2A LH1E_EXTENSION_DXF_RINGDESIGN_095 3W MPR02A LHS 01E EXST_SURVEYEXPORT
  62
7
  100
AcDbPolyline
  90
2
  43
0
  38
-994.40350000513058
  10
7101.4202962326754
  20
-23221.609457173912
  10
7102.5490741717031
  20
-23241.577578276421
  0
LWPOLYLINE
  5
4A6
  330
19B
  100
AcDbEntity
  8
95 3W MP2A LH1E_EXTENSION_DXF_RINGDESIGN_095 3W MPR02A LHS 01E EXST_SURVEYEXPORT
  62
1
  100
AcDbPolyline
  90
2
  43
0
  38
-994.40350000513058
  10
7098.245364977377
  20
-23221.788932866217
  10
7099.3741429164047
  20
-23241.757053968726
  0
LWPOLYLINE
  5
4A7
  330
19B
  100
AcDbEntity
  8
95 3W MP2A LH1E_EXTENSION_DXF_RINGDESIGN_095 3W MPR02A LHS 01E EXST_SURVEYEXPORT
  62
7
  100
AcDbPolyline
  90
2
  43
0
  38
-994.40350000513058
  10
7099.4806186250917
  20
-23222.838830305478
  10
7100.6093965641194
  20
-23242.806951407987
  0
LWPOLYLINE
  5
4A8
  330
19B
  100
AcDbEntity
  8
95 3W MP2A LH1E_EXTENSION_DXF_RINGDESIGN_095 3W MPR02A LHS 01E EXST_SURVEYEXPORT
  62
1
  100
AcDbPolyline
  90
2
  43
0
  38
-994.40350000513058
  10
7096.3056873697933
  20
-23223.018305997783
  10
7097.434465308821
  20
-23242.986427100292
  0
LWPOLYLINE
  5
4A9
  330
19B
  100
AcDbEntity
  8
95 3W MP2A LH1E_EXTENSION_DXF_RINGDESIGN_095 3W MPR02A LHS 01E EXST_SURVEYEXPORT
  62
7
  100
AcDbPolyline
  90
2
  43
0
  38
-994.40350000513058
  10
7098.7924024681151
  20
-23223.808423447113
  10
7098.2014861798662
  20
-23243.799691989665
  0
LWPOLYLINE
  5
4AA
  330
19B
  100
AcDbEntity
  8
95 3W MP2A LH1E_EXTENSION_DXF_RINGDESIGN_095 3W MPR02A LHS 01E EXST_SURVEYEXPORT
  62
1
  100
AcDbPolyline
  90
2
  43
0
  38
-994.40350000513058
  10
7095.61379076985
  20
-23223.714467757283
  10
7095.0228744816013
  20
-23243.705736299835
  0
LWPOLYLINE
  5
4AB
  330
19B
  100
AcDbEntity
  8
95 3W MP2A LH1E_EXTENSION_DXF_RINGDESIGN_095 3W MPR02A LHS 01E EXST_SURVEYEXPORT
  62
7
  100
AcDbPolyline
  90
2
  43
0
  38
-994.40350000513058
  10
7101.2586495413952
  20
-23224.06182942717
  10
7096.0224861118086
  20
-23243.364228048551
  0
LWPOLYLINE
  5
4AC
  330
19B
  100
AcDbEntity
  8
95 3W MP2A LH1E_EXTENSION_DXF_RINGDESIGN_095 3W MPR02A LHS 01E EXST_SURVEYEXPORT
  62
1
  100
AcDbPolyline
  90
2
  43
0
  38
-994.40350000513058
  10
7098.1895681605956
  20
-23223.229279441864
  10
7092.953404731009
  20
-23242.531678063246
  0
LWPOLYLINE
  5
4AD
  330
19B
  100
AcDbEntity
  8
95 3W MP2A LH1E_EXTENSION_DXF_RINGDESIGN_095 3W MPR02A LHS 01E EXST_SURVEYEXPORT
  62
7
  100
AcDbPolyline
  90
2
  43
0
  38
-994.40350000513058
  10
7098.7923635136794
  20
-23224.219993142095
  10
7093.5562000840928
  20
-23243.522391763476
  0
LWPOLYLINE
  5
4AE
  330
19B
  100
AcDbEntity
  8
95 3W MP2A LH1E_EXTENSION_DXF_RINGDESIGN_095 3W MPR02A LHS 01E EXST_SURVEYEXPORT
  62
1
  100
AcDbPolyline
  90
2
  43
0
  38
-994.40350000513058
  10
7095.72328213288
  20
-23223.387443156789
  10
7090.4871187032932
  20
-23242.68984177817
  0
LWPOLYLINE
  5
4AF
  330
19B
  100
AcDbEntity
  8
95 3W MP2A LH1E_EXTENSION_DXF_RINGDESIGN_095 3W MPR02A LHS 01E EXST_SURVEYEXPORT
  62
7
  100
AcDbPolyline
  90
2
  43
0
  38
-994.40350000513058
  10
7096.1991437933093
  20
-23224.043182706613
  10
7090.9629803637226
  20
-23243.345581327994
  0
LWPOLYLINE
  5
4B0
  330
19B
  100
AcDbEntity
  8
95 3W MP2A LH1E_EXTENSION_DXF_RINGDESIGN_095 3W MPR02A LHS 01E EXST_SURVEYEXPORT
  62
1
  100
AcDbPolyline
  90
2
  43
0
  38
-994.40350000513058
  10
7093.13006241251
  20
-23223.210632721308
  10
7087.893898982923
  20
-23242.513031342689
  0
VIEWPORT
  5
4B1
  330
19C
  100
AcDbEntity
  67
1
  8
0
  100
AcDbViewport
  10
105.029
  20
148.463
  40
24.97
  41
312.78718378906251
  68
1
  69
1
  12
105.029
  22
148.463
  13
0
  23
0
  14
1
  24
1
  15
1
  25
1
  16
0
  26
0
  36
1
  17
0
  27
0
  37
0
  42
50
  43
0
  44
0
  45
312.78718378906251
  50
0
  51
0
  72
1000
  90
32800
  1

  281
0
  71
1
  74
0
  110
0
  120
0
  130
0
  111
1
  121
0
  131
0
  112
0
  122
1
  132
0
  79
0
  146
0
  0
ENDSEC
  0
SECTION
  2
OBJECTS
  0
DICTIONARY
  5
4B2
  330
0
  100
AcDbDictionary
  281
1
  3
ACAD_GROUP
  350
4B3
  3
ACAD_LAYOUT
  350
4B4
  3
ACAD_MLINESTYLE
  350
4B5
  3
ACAD_PLOTSETTINGS
  350
4B6
  3
ACAD_PLOTSTYLENAME
  350
4B7
  3
VECTORDRAW_OBJECTS
  350
4B8
  3
DWGPROPS
  350
4B9
  0
DICTIONARY
  5
18F
  330
18E
  100
AcDbDictionary
  280
1
  281
1
  3
ACAD_LAYERFILTERS
  360
4BA
  3
ACAD_LAYERSTATES
  360
4BB
  3
ACLYDICTIONARY
  360
4BC
  0
DICTIONARY
  5
4BA
  102
{ACAD_REACTORS
  330
18F
  102
}
  330
18F
  100
AcDbDictionary
  281
1
  0
DICTIONARY
  5
4BB
  102
{ACAD_REACTORS
  330
18F
  102
}
  330
18F
  100
AcDbDictionary
  281
1
  0
DICTIONARY
  5
4BC
  102
{ACAD_REACTORS
  330
18F
  102
}
  330
18F
  100
AcDbDictionary
  281
1
  1001
ACAD
  1000
<All
  0
DICTIONARY
  5
4B3
  102
{ACAD_REACTORS
  330
4B2
  102
}
  330
4B2
  100
AcDbDictionary
  281
1
  0
DICTIONARY
  5
4B4
  102
{ACAD_REACTORS
  330
4B2
  102
}
  330
4B2
  100
AcDbDictionary
  281
1
  3
Layout1
  350
189
  3
Model
  350
1
  0
DICTIONARY
  5
4B5
  102
{ACAD_REACTORS
  330
4B2
  102
}
  330
4B2
  100
AcDbDictionary
  281
1
  3
Standard
  350
63
  0
DICTIONARY
  5
4B6
  102
{ACAD_REACTORS
  330
4B2
  102
}
  330
4B2
  100
AcDbDictionary
  281
1
  0
ACDBDICTIONARYWDFLT
  5
4B7
  102
{ACAD_REACTORS
  330
4B2
  102
}
  330
4B2
  100
AcDbDictionary
  281
1
  3
Normal
  350
18D
  100
AcDbDictionaryWithDefault
  340
18D
  0
DICTIONARY
  5
4B8
  102
{ACAD_REACTORS
  330
4B2
  102
}
  330
4B2
  100
AcDbDictionary
  281
1
  3
SERIALNO
  350
4BD
  0
LAYOUT
  5
189
  102
{ACAD_REACTORS
  330
4B4
  102
}
  330
4B4
  100
AcDbPlotSettings
  1

  2

  4

  6

  40
0
  41
0
  42
0
  43
0
  44
210.058
  45
296.926
  46
0
  47
0
  48
0
  49
0
  140
210.058
  141
296.926
  142
1
  143
1
  70
688
  72
1
  73
0
  74
4
  75
16
  147
1
  148
0
  149
0
  100
AcDbLayout
  1
Layout1
  70
0
  71
1
  10
0
  20
0
  11
12
  21
9
  12
0
  22
0
  32
0
  14
0
  24
0
  34
0
  15
0
  25
0
  35
0
  146
0
  13
0
  23
0
  33
0
  16
1
  26
0
  36
0
  17
0
  27
1
  37
0
  76
0
  330
19C
  0
LAYOUT
  5
1
  102
{ACAD_REACTORS
  330
4B4
  102
}
  330
4B4
  100
AcDbPlotSettings
  1
VectorDraw Printer Drawing
  2

  4

  6

  40
0
  41
0
  42
0
  43
0
  44
210.058
  45
296.926
  46
0
  47
0
  48
-123.4905019101575
  49
-94.7930275307014
  140
71.792049006418367
  141
98.0934184666527
  142
1
  143
0.92966014584817469
  72
1
  73
0
  74
4
  75
0
  147
1
  148
123.4905019101575
  149
94.7930275307014
  100
AcDbLayout
  1
Model
  70
1
  71
0
  10
10
  20
0
  11
0
  21
10
  12
0
  22
0
  32
0
  14
7135.2092572791071
  24
-23243.904492074693
  34
7068.237438745522
  15
-23214.709672873309
  25
-998.24689128911825
  35
-998.24689128911825
  146
0
  13
0
  23
0
  33
0
  16
1
  26
0
  36
0
  17
0
  27
1
  37
0
  76
0
  330
19B
  0
MLINESTYLE
  5
63
  102
{ACAD_REACTORS
  330
4B5
  102
}
  330
4B5
  100
AcDbMlineStyle
  2
Standard
  70
0
  3

  62
0
  51
90
  52
90
  71
2
  49
0.5
  62
7
  6
Continuous
  49
-0.5
  62
7
  6
Continuous
  0
ACDBPLACEHOLDER
  5
18D
  102
{ACAD_REACTORS
  330
4B7
  102
}
  330
4B7
  0
XRECORD
  5
4BD
  102
{ACAD_REACTORS
  330
4B8
  102
}
  330
4B8
  100
AcDbXrecord
  280
1
  1000
udnjVM6OT3ptXXPNDrqErnGX8
  1070
5
  1070
1
  0
XRECORD
  5
4B9
  102
{ACAD_REACTORS
  330
4B2
  102
}
  330
4B2
  100
AcDbXrecord
  280
1
  1
DWGPROPS COOKIE
  2

  3

  4

  6

  7

  8

  9

  40
0
  41
0
  42
0
  1

  90
0
  0
ENDSEC
  999
Created By VectorDraw :7.7012.0.1
  0
EOF
