  0
SECTION
  2
HEADER
  9
$ACADVER
  1
AC1015
  9
$ACADMAINTVER
  70
6
  9
$DWGCODEPAGE
  3

  9
$INSBASE
  10
0
  20
0
  30
0
  9
$EXTMIN
  10
7074.6966096757651
  20
-23243.223142268598
  30
-998.28812950673671
  9
$EXTMAX
  10
7135.2092572791071
  20
-23211.361891457214
  30
-998.28812950673671
  9
$LIMMIN
  10
0
  20
0
  9
$LIMMAX
  10
10
  20
10
  9
$ORTHOMODE
  70
0
  9
$REGENMODE
  70
1
  9
$FILLMODE
  70
1
  9
$QTEXTMODE
  70
0
  9
$MIRRTEXT
  70
1
  9
$LTSCALE
  40
1
  9
$ATTMODE
  70
1
  9
$TEXTSIZE
  40
0.2
  9
$TRACEWID
  40
0.05
  9
$TEXTSTYLE
  7
STANDARD
  9
$CLAYER
  8
0
  9
$CELTYPE
  6
BYLAYER
  9
$CECOLOR
  62
256
  9
$CELTSCALE
  40
1
  9
$DISPSILH
  70
0
  9
$DIMSCALE
  40
1
  9
$DIMASZ
  40
0.2
  9
$DIMEXO
  40
0.2
  9
$DIMRND
  40
0
  9
$DIMDLE
  40
0
  9
$DIMEXE
  40
0.05
  9
$DIMTP
  40
1
  9
$DIMTM
  40
1
  9
$DIMTXT
  40
1
  9
$DIMTSZ
  40
0.0
  9
$DIMTOL
  70
0
  9
$DIMLIM
  70
0
  9
$DIMTIH
  70
0
  9
$DIMTOH
  70
1
  9
$DIMSE1
  70
0
  9
$DIMSE2
  70
0
  9
$DIMTAD
  70
0
  9
$DIMZIN
  70
1
  9
$DIMBLK
  1
VDDIM_DEFAULT
  9
$DIMASO
  70
1
  9
$DIMSHO
  70
1
  9
$DIMPOST
  1

  9
$DIMAPOST
  1

  9
$DIMALT
  70
0
  9
$DIMBLK1
  1

  9
$DIMBLK2
  1

  9
$DIMSTYLE
  2
STANDARD
  9
$DIMCLRD
  70
0
  9
$DIMCLRE
  70
0
  9
$DIMCLRT
  70
0
  9
$DIMTFAC
  40
1
  9
$DIMSD1
  70
0
  9
$DIMSD2
  70
0
  9
$DIMTOLJ
  70
1
  9
$DIMTXSTY
  7
STANDARD
  9
$DIMAUNIT
  70
1
  9
$DIMADEC
  70
4
  9
$DIMAZIN
  70
0
  9
$DIMLUNIT
  70
2
  9
$LUNITS
  70
2
  9
$LUPREC
  70
4
  9
$FILLETRAD
  40
0
  9
$AUNITS
  70
1
  9
$AUPREC
  70
4
  9
$MENU
  1

  9
$ELEVATION
  40
0
  9
$PELEVATION
  40
0
  9
$THICKNESS
  40
0
  9
$ANGBASE
  50
0
  9
$ANGDIR
  70
0
  9
$PDMODE
  70
2
  9
$PDSIZE
  40
1
  9
$PLINEWID
  40
0
  9
$SPLFRAME
  70
0
  9
$SPLINETYPE
  70
6
  9
$SPLINESEGS
  70
8
  9
$HANDSEED
  5
              340
  9
$SURFTAB1
  70
6
  9
$SURFTAB2
  70
6
  9
$SURFTYPE
  70
6
  9
$SURFU
  70
6
  9
$SURFV
  70
6
  9
$UCSBASE
  2

  9
$UCSNAME
  2

  9
$UCSORG
  10
0
  20
0
  30
0
  9
$UCSXDIR
  10
1
  20
0
  30
0
  9
$UCSYDIR
  10
0
  20
1
  30
0
  9
$UCSORGTOP
  10
0
  20
0
  30
0
  9
$UCSORGBOTTOM
  10
0
  20
0
  30
0
  9
$UCSORGLEFT
  10
0
  20
0
  30
0
  9
$UCSORGRIGHT
  10
0
  20
0
  30
0
  9
$UCSORGFRONT
  10
0
  20
0
  30
0
  9
$UCSORGBACK
  10
0
  20
0
  30
0
  9
$PUCSBASE
  2

  9
$PUCSNAME
  2

  9
$PUCSXDIR
  10
1
  20
0
  30
0
  9
$PUCSYDIR
  10
0
  20
1
  30
0
  9
$PUCSORGTOP
  10
0
  20
0
  30
0
  9
$PUCSORGBOTTOM
  10
0
  20
0
  30
0
  9
$PUCSORGLEFT
  10
0
  20
0
  30
0
  9
$PUCSORGRIGHT
  10
0
  20
0
  30
0
  9
$PUCSORGFRONT
  10
0
  20
0
  30
0
  9
$PUCSORGBACK
  10
0
  20
0
  30
0
  9
$USERI1
  70
0
  9
$USERI2
  70
0
  9
$USERI3
  70
0
  9
$USERI4
  70
0
  9
$USERI5
  70
0
  9
$USERR1
  40
0
  9
$USERR2
  40
0
  9
$USERR3
  40
0
  9
$USERR4
  40
0
  9
$USERR5
  40
0
  9
$TILEMODE
  70
1
  9
$PINSBASE
  10
0
  20
0
  30
0
  9
$LWDISPLAY
  290
1
  9
$INSUNITS
  70
0
  9
$MEASUREMENT
  70
1
  0
ENDSEC
  0
SECTION
  2
CLASSES
  0
CLASS
  1
ACDBDICTIONARYWDFLT
  2
AcDbDictionaryWithDefault
  3
ObjectDBX Classes
  90
0
  280
0
  281
0
  0
CLASS
  1
IMAGEDEF
  2
AcDbRasterImageDef
  3
ISM
  90
0
  280
0
  281
0
  0
CLASS
  1
IMAGE
  2
AcDbRasterImage
  3
ISM
  90
127
  280
0
  281
1
  0
CLASS
  1
IMAGEDEF_REACTOR
  2
AcDbRasterImageDefReactor
  3
ObjectDBX Classes
  90
1
  280
0
  281
0
  0
CLASS
  1
ACDBPLACEHOLDER
  2
AcDbPlaceHolder
  3
ObjectDBX Classes
  90
0
  280
0
  281
0
  0
CLASS
  1
LAYOUT
  2
AcDbLayout
  3
ObjectDBX Classes
  90
0
  280
0
  281
0
  0
CLASS
  1
ARCALIGNEDTEXT
  2
AcDbArcAlignedText
  3
ATEXT|AutoCAD Express Tool|expresstools@autodesk.com
  90
0
  280
0
  281
1
  0
ENDSEC
  0
SECTION
  2
TABLES
  0
TABLE
  2
VPORT
  5
110
  330
0
  100
AcDbSymbolTable
  70
2
  0
VPORT
  5
111
  330
110
  100
AcDbSymbolTableRecord
  100
AcDbViewportTableRecord
  2
*Active
  70
0
  10
0
  20
0
  11
1
  21
1
  12
-0.48477250173976549
  22
1.2068959817769711
  13
0
  23
0
  14
1
  24
1
  15
1
  25
1
  16
0
  26
0
  36
1
  17
0
  27
0
  37
0
  40
55.595686942090595
  41
1
  42
50
  43
0
  44
0
  50
0
  51
0
  71
0
  72
100
  73
1
  74
3
  75
0
  76
0
  77
0
  78
0
  281
0
  65
1
  110
0
  120
0
  130
0
  111
1
  121
0
  131
0
  112
0
  122
1
  132
0
  79
0
  146
0
  0
ENDTAB
  0
TABLE
  2
LTYPE
  5
112
  330
0
  100
AcDbSymbolTable
  70
8
  0
LTYPE
  5
1C
  330
112
  100
AcDbSymbolTableRecord
  100
AcDbLinetypeTableRecord
  2
BYLAYER
  70
0
  3
BYLAYER________________________________________
  72
65
  73
0
  40
0
  0
LTYPE
  5
1D
  330
112
  100
AcDbSymbolTableRecord
  100
AcDbLinetypeTableRecord
  2
BYBLOCK
  70
0
  3
BYBLOCK________________________________________
  72
65
  73
0
  40
0
  0
LTYPE
  5
1E
  330
112
  100
AcDbSymbolTableRecord
  100
AcDbLinetypeTableRecord
  2
DASHED0
  70
0
  3
Dashed0 __ __ __ __ __ __ __ __ __ __ __ __ __ _
  72
65
  73
2
  40
1
  49
0.5
  74
0
  49
-0.5
  74
0
  0
LTYPE
  5
1F
  330
112
  100
AcDbSymbolTableRecord
  100
AcDbLinetypeTableRecord
  2
DOT0
  70
0
  3
Dot0 ........................................
  72
65
  73
8
  40
1
  49
0
  74
0
  49
-0.25
  74
0
  49
0
  74
0
  49
-0.25
  74
0
  49
0
  74
0
  49
-0.25
  74
0
  49
0
  74
0
  49
-0.25
  74
0
  0
LTYPE
  5
20
  330
112
  100
AcDbSymbolTableRecord
  100
AcDbLinetypeTableRecord
  2
DASHDOT0
  70
0
  3
Dashdot __ . __ . __ . __ . __ . __ . __ . __
  72
65
  73
4
  40
1
  49
0.4
  74
0
  49
-0.3
  74
0
  49
0
  74
0
  49
-0.3
  74
0
  0
LTYPE
  5
21
  330
112
  100
AcDbSymbolTableRecord
  100
AcDbLinetypeTableRecord
  2
DASHDOTDOT0
  70
0
  3
Dashdot __ . . __ . . __ . . __ . . __ . . __ . . __ . . __
  72
65
  73
6
  40
1
  49
0.3
  74
0
  49
-0.23
  74
0
  49
0
  74
0
  49
-0.24
  74
0
  49
0
  74
0
  49
-0.23
  74
0
  0
LTYPE
  5
22
  330
112
  100
AcDbSymbolTableRecord
  100
AcDbLinetypeTableRecord
  2
INVISIBLE
  70
0
  3
Invisible(                        )
  72
65
  73
2
  40
2
  49
-1
  74
0
  49
-1
  74
0
  0
ENDTAB
  0
TABLE
  2
LAYER
  5
114
  102
{ACAD_XDICTIONARY
  360
115
  102
}
  330
0
  100
AcDbSymbolTable
  70
14
  0
LAYER
  5
62
  330
114
  100
AcDbSymbolTableRecord
  100
AcDbLayerTableRecord
  2
0
  70
0
  62
7
  6
Continuous
  370
-3
  390
113
  0
LAYER
  5
6C
  330
114
  100
AcDbSymbolTableRecord
  100
AcDbLayerTableRecord
  2
95 3W MP2A LH1E_R8-R17_DXF_RINGDESIGN_095 3W MPR02A LHS 01E EXST_SURVEYEXPORT
  70
0
  62
7
  6
Continuous
  370
25
  390
113
  0
LAYER
  5
6D
  330
114
  100
AcDbSymbolTableRecord
  100
AcDbLayerTableRecord
  2
95 3W MP2A LH1E_R8-R17_DXF_RINGDESIGN_095 3W MPR02A LHS 01E EXST_SURVEYEXPORT_R8A
  70
0
  62
7
  6
Continuous
  370
25
  390
113
  0
LAYER
  5
6E
  330
114
  100
AcDbSymbolTableRecord
  100
AcDbLayerTableRecord
  2
95 3W MP2A LH1E_R8-R17_DXF_RINGDESIGN_095 3W MPR02A LHS 01E EXST_SURVEYEXPORT_R8B
  70
0
  62
7
  6
Continuous
  370
25
  390
113
  0
LAYER
  5
6F
  330
114
  100
AcDbSymbolTableRecord
  100
AcDbLayerTableRecord
  2
95 3W MP2A LH1E_R8-R17_DXF_RINGDESIGN_095 3W MPR02A LHS 01E EXST_SURVEYEXPORT_R8
  70
0
  62
7
  6
Continuous
  370
25
  390
113
  0
LAYER
  5
70
  330
114
  100
AcDbSymbolTableRecord
  100
AcDbLayerTableRecord
  2
95 3W MP2A LH1E_R8-R17_DXF_RINGDESIGN_095 3W MPR02A LHS 01E EXST_SURVEYEXPORT_R9
  70
0
  62
7
  6
Continuous
  370
25
  390
113
  0
LAYER
  5
71
  330
114
  100
AcDbSymbolTableRecord
  100
AcDbLayerTableRecord
  2
95 3W MP2A LH1E_R8-R17_DXF_RINGDESIGN_095 3W MPR02A LHS 01E EXST_SURVEYEXPORT_R10
  70
0
  62
7
  6
Continuous
  370
25
  390
113
  0
LAYER
  5
72
  330
114
  100
AcDbSymbolTableRecord
  100
AcDbLayerTableRecord
  2
95 3W MP2A LH1E_R8-R17_DXF_RINGDESIGN_095 3W MPR02A LHS 01E EXST_SURVEYEXPORT_R11
  70
0
  62
7
  6
Continuous
  370
25
  390
113
  0
LAYER
  5
73
  330
114
  100
AcDbSymbolTableRecord
  100
AcDbLayerTableRecord
  2
95 3W MP2A LH1E_R8-R17_DXF_RINGDESIGN_095 3W MPR02A LHS 01E EXST_SURVEYEXPORT_R012
  70
0
  62
7
  6
Continuous
  370
25
  390
113
  0
LAYER
  5
74
  330
114
  100
AcDbSymbolTableRecord
  100
AcDbLayerTableRecord
  2
95 3W MP2A LH1E_R8-R17_DXF_RINGDESIGN_095 3W MPR02A LHS 01E EXST_SURVEYEXPORT_R013
  70
0
  62
7
  6
Continuous
  370
25
  390
113
  0
LAYER
  5
75
  330
114
  100
AcDbSymbolTableRecord
  100
AcDbLayerTableRecord
  2
95 3W MP2A LH1E_R8-R17_DXF_RINGDESIGN_095 3W MPR02A LHS 01E EXST_SURVEYEXPORT_R014
  70
0
  62
7
  6
Continuous
  370
25
  390
113
  0
LAYER
  5
76
  330
114
  100
AcDbSymbolTableRecord
  100
AcDbLayerTableRecord
  2
95 3W MP2A LH1E_R8-R17_DXF_RINGDESIGN_095 3W MPR02A LHS 01E EXST_SURVEYEXPORT_R015
  70
0
  62
7
  6
Continuous
  370
25
  390
113
  0
LAYER
  5
77
  330
114
  100
AcDbSymbolTableRecord
  100
AcDbLayerTableRecord
  2
95 3W MP2A LH1E_R8-R17_DXF_RINGDESIGN_095 3W MPR02A LHS 01E EXST_SURVEYEXPORT_R016
  70
0
  62
7
  6
Continuous
  370
25
  390
113
  0
LAYER
  5
78
  330
114
  100
AcDbSymbolTableRecord
  100
AcDbLayerTableRecord
  2
95 3W MP2A LH1E_R8-R17_DXF_RINGDESIGN_095 3W MPR02A LHS 01E EXST_SURVEYEXPORT_R017
  70
0
  62
7
  6
Continuous
  370
25
  390
113
  0
ENDTAB
  0
TABLE
  2
STYLE
  5
116
  330
0
  100
AcDbSymbolTable
  70
1
  0
STYLE
  5
64
  330
116
  100
AcDbSymbolTableRecord
  100
AcDbTextStyleTableRecord
  2
STANDARD
  70
0
  40
1
  41
1
  50
0
  71
0
  42
0.2
  3
Arial
  4

  0
ENDTAB
  0
TABLE
  2
VIEW
  5
117
  330
0
  100
AcDbSymbolTable
  70
0
  0
ENDTAB
  0
TABLE
  2
UCS
  5
118
  330
0
  100
AcDbSymbolTable
  70
0
  0
ENDTAB
  0
TABLE
  2
APPID
  5
119
  330
0
  100
AcDbSymbolTable
  70
6
  0
APPID
  5
11A
  330
119
  100
AcDbSymbolTableRecord
  100
AcDbRegAppTableRecord
  2
AcAecLayerStandard
  70
0
  0
APPID
  5
11B
  330
119
  100
AcDbSymbolTableRecord
  100
AcDbRegAppTableRecord
  2
VDEXTRAPARAM
  70
0
  0
APPID
  5
11C
  330
119
  100
AcDbSymbolTableRecord
  100
AcDbRegAppTableRecord
  2
VDEXTRASOLID2D
  70
0
  0
APPID
  5
11D
  330
119
  100
AcDbSymbolTableRecord
  100
AcDbRegAppTableRecord
  2
VD_TEMPHATCH
  70
0
  0
APPID
  5
11E
  330
119
  100
AcDbSymbolTableRecord
  100
AcDbRegAppTableRecord
  2
ACAD
  70
0
  0
APPID
  5
11F
  330
119
  100
AcDbSymbolTableRecord
  100
AcDbRegAppTableRecord
  2
PE_URL
  70
0
  0
ENDTAB
  0
TABLE
  2
BLOCK_RECORD
  5
120
  330
0
  100
AcDbSymbolTable
  70
4
  0
BLOCK_RECORD
  5
121
  330
120
  100
AcDbSymbolTableRecord
  100
AcDbBlockTableRecord
  2
*Model_Space
  340
1
  0
BLOCK_RECORD
  5
122
  330
120
  100
AcDbSymbolTableRecord
  100
AcDbBlockTableRecord
  2
*Paper_Space
  340
10F
  0
BLOCK_RECORD
  5
123
  330
120
  100
AcDbSymbolTableRecord
  100
AcDbBlockTableRecord
  2
VDDIM_DEFAULT
  340
0
  0
BLOCK_RECORD
  5
124
  330
120
  100
AcDbSymbolTableRecord
  100
AcDbBlockTableRecord
  2
VDDIM_NONE
  340
0
  0
ENDTAB
  0
TABLE
  2
DIMSTYLE
  5
125
  330
0
  100
AcDbSymbolTable
  70
1
  100
AcDbDimStyleTable
  71
1
  340
69
  0
DIMSTYLE
  105
69
  330
125
  100
AcDbSymbolTableRecord
  100
AcDbDimStyleTableRecord
  2
STANDARD
  70
0
  41
0.2
  3

  177
0
  42
0.05
  44
0.2
  75
0
  76
0
  40
1
  172
1
  281
0
  282
0
  275
1
  277
2
  179
4
  71
0
  47
1
  48
1
  78
1
  176
0
  178
0
  140
1
  147
0.09
  280
0
  77
1
  73
0
  271
4
  173
1
  340
64
  0
ENDTAB
  0
ENDSEC
  0
SECTION
  2
BLOCKS
  0
BLOCK
  5
126
  330
121
  100
AcDbEntity
  8
0
  100
AcDbBlockBegin
  2
*Model_Space
  70
0
  71
0
  10
0
  20
0
  30
0
  3
*Model_Space
  1

  0
ENDBLK
  5
127
  330
121
  100
AcDbEntity
  67
1
  8
0
  100
AcDbBlockEnd
  0
BLOCK
  5
128
  330
122
  100
AcDbEntity
  8
0
  100
AcDbBlockBegin
  2
*Paper_Space
  70
0
  71
0
  10
0
  20
0
  30
0
  3
*Paper_Space
  1

  0
ENDBLK
  5
129
  330
122
  100
AcDbEntity
  67
1
  8
0
  100
AcDbBlockEnd
  0
BLOCK
  5
65
  330
123
  100
AcDbEntity
  8
0
  100
AcDbBlockBegin
  2
VDDIM_DEFAULT
  70
0
  71
0
  10
0
  20
0
  30
0
  3
VDDIM_DEFAULT
  1

  0
HATCH
  5
66
  330
123
  100
AcDbEntity
  8
0
  62
0
  370
-2
  100
AcDbHatch
  10
0
  20
0
  30
0
  210
0
  220
0
  230
-1
  2
SOLID
  70
1
  71
0
  91
1
  92
2
  72
0
  73
1
  93
3
  10
0
  20
0
  10
1
  20
-0.1665
  10
1
  20
0.1665
  97
0
  75
0
  76
1
  98
1
  10
0
  20
0
  0
ENDBLK
  5
12A
  330
123
  100
AcDbEntity
  8
0
  100
AcDbBlockEnd
  0
BLOCK
  5
68
  330
124
  100
AcDbEntity
  8
0
  100
AcDbBlockBegin
  2
VDDIM_NONE
  70
0
  71
0
  10
0
  20
0
  30
0
  3
VDDIM_NONE
  1

  0
ENDBLK
  5
12B
  330
124
  100
AcDbEntity
  8
0
  100
AcDbBlockEnd
  0
ENDSEC
  0
SECTION
  2
ENTITIES
  0
POLYLINE
  5
12C
  330
121
  100
AcDbEntity
  8
95 3W MP2A LH1E_R8-R17_DXF_RINGDESIGN_095 3W MPR02A LHS 01E EXST_SURVEYEXPORT
  62
7
  100
AcDb3dPolyline
  10
0
  20
0
  30
0
  70
8
  0
VERTEX
  5
12D
  330

  100
AcDbEntity
  8
95 3W MP2A LH1E_R8-R17_DXF_RINGDESIGN_095 3W MPR02A LHS 01E EXST_SURVEYEXPORT
  6
BYLAYER
  62
7
  100
AcDbVertex
  100
AcDb3dPolylineVertex
  10
7074.6966096757651
  20
-23227.2318338742
  30
-997.35019975772332
  70
32
  0
VERTEX
  5
12E
  330

  100
AcDbEntity
  8
95 3W MP2A LH1E_R8-R17_DXF_RINGDESIGN_095 3W MPR02A LHS 01E EXST_SURVEYEXPORT
  6
BYLAYER
  62
7
  100
AcDbVertex
  100
AcDb3dPolylineVertex
  10
7086.4348719525015
  20
-23231.578386132856
  30
-995.46863317181544
  70
32
  0
VERTEX
  5
12F
  330

  100
AcDbEntity
  8
95 3W MP2A LH1E_R8-R17_DXF_RINGDESIGN_095 3W MPR02A LHS 01E EXST_SURVEYEXPORT
  6
BYLAYER
  62
7
  100
AcDbVertex
  100
AcDb3dPolylineVertex
  10
7093.0014068337687
  20
-23233.6548600688
  30
-994.40350000513058
  70
32
  0
VERTEX
  5
130
  330

  100
AcDbEntity
  8
95 3W MP2A LH1E_R8-R17_DXF_RINGDESIGN_095 3W MPR02A LHS 01E EXST_SURVEYEXPORT
  6
BYLAYER
  62
7
  100
AcDbVertex
  100
AcDb3dPolylineVertex
  10
7098.175714945015
  20
-23234.007653803656
  30
-994.40350000513058
  70
32
  0
VERTEX
  5
131
  330

  100
AcDbEntity
  8
95 3W MP2A LH1E_R8-R17_DXF_RINGDESIGN_095 3W MPR02A LHS 01E EXST_SURVEYEXPORT
  6
BYLAYER
  62
7
  100
AcDbVertex
  100
AcDb3dPolylineVertex
  10
7102.3504408074978
  20
-23231.361700792226
  30
-994.40350000513058
  70
32
  0
VERTEX
  5
132
  330

  100
AcDbEntity
  8
95 3W MP2A LH1E_R8-R17_DXF_RINGDESIGN_095 3W MPR02A LHS 01E EXST_SURVEYEXPORT
  6
BYLAYER
  62
7
  100
AcDbVertex
  100
AcDb3dPolylineVertex
  10
7105.3687872057253
  20
-23230.126922720221
  30
-994.40350000513058
  70
32
  0
VERTEX
  5
133
  330

  100
AcDbEntity
  8
95 3W MP2A LH1E_R8-R17_DXF_RINGDESIGN_095 3W MPR02A LHS 01E EXST_SURVEYEXPORT
  6
BYLAYER
  62
7
  100
AcDbVertex
  100
AcDb3dPolylineVertex
  10
7109.6807106317638
  20
-23229.881927071016
  30
-994.40350000513058
  70
32
  0
VERTEX
  5
134
  330

  100
AcDbEntity
  8
95 3W MP2A LH1E_R8-R17_DXF_RINGDESIGN_095 3W MPR02A LHS 01E EXST_SURVEYEXPORT
  6
BYLAYER
  62
7
  100
AcDbVertex
  100
AcDb3dPolylineVertex
  10
7113.6006410190721
  20
-23230.175921850063
  30
-994.40350000513058
  70
32
  0
VERTEX
  5
135
  330

  100
AcDbEntity
  8
95 3W MP2A LH1E_R8-R17_DXF_RINGDESIGN_095 3W MPR02A LHS 01E EXST_SURVEYEXPORT
  6
BYLAYER
  62
7
  100
AcDbVertex
  100
AcDb3dPolylineVertex
  10
7119.9705278984475
  20
-23229.9799253307
  30
-994.40350000513058
  70
32
  0
VERTEX
  5
136
  330

  100
AcDbEntity
  8
95 3W MP2A LH1E_R8-R17_DXF_RINGDESIGN_095 3W MPR02A LHS 01E EXST_SURVEYEXPORT
  6
BYLAYER
  62
7
  100
AcDbVertex
  100
AcDb3dPolylineVertex
  10
7125.2624339213135
  20
-23229.048941863712
  30
-994.40350000513058
  70
32
  0
VERTEX
  5
137
  330

  100
AcDbEntity
  8
95 3W MP2A LH1E_R8-R17_DXF_RINGDESIGN_095 3W MPR02A LHS 01E EXST_SURVEYEXPORT
  6
BYLAYER
  62
7
  100
AcDbVertex
  100
AcDb3dPolylineVertex
  10
7130.8483347232268
  20
-23228.803946214506
  30
-994.40350000513058
  70
32
  0
VERTEX
  5
138
  330

  100
AcDbEntity
  8
95 3W MP2A LH1E_R8-R17_DXF_RINGDESIGN_095 3W MPR02A LHS 01E EXST_SURVEYEXPORT
  6
BYLAYER
  62
7
  100
AcDbVertex
  100
AcDb3dPolylineVertex
  10
7135.2092572791071
  20
-23228.950943604028
  30
-994.40350000513058
  70
32
  0
SEQEND
  5
139
  330

  100
AcDbEntity
  8
95 3W MP2A LH1E_R8-R17_DXF_RINGDESIGN_095 3W MPR02A LHS 01E EXST_SURVEYEXPORT
  0
LWPOLYLINE
  5
13A
  330
121
  100
AcDbEntity
  8
95 3W MP2A LH1E_R8-R17_DXF_RINGDESIGN_095 3W MPR02A LHS 01E EXST_SURVEYEXPORT
  62
1
  100
AcDbPolyline
  90
2
  43
0
  38
-994.40350000513058
  10
7112.505410366085
  20
-23219.674618532747
  10
7104.3103551058239
  20
-23237.918550929058
  0
LWPOLYLINE
  5
13B
  330
121
  100
AcDbEntity
  8
95 3W MP2A LH1E_R8-R17_DXF_RINGDESIGN_095 3W MPR02A LHS 01E EXST_SURVEYEXPORT
  62
7
  100
AcDbPolyline
  90
2
  43
0
  38
-994.40350000513058
  10
7112.9528330543271
  20
-23220.427974380873
  10
7106.4414699651843
  20
-23239.338345892858
  0
LWPOLYLINE
  5
13C
  330
121
  100
AcDbEntity
  8
95 3W MP2A LH1E_R8-R17_DXF_RINGDESIGN_095 3W MPR02A LHS 01E EXST_SURVEYEXPORT
  62
1
  100
AcDbPolyline
  90
2
  43
0
  38
-994.40350000513058
  10
7110.2108291850891
  20
-23219.483826732947
  10
7103.6994660959463
  20
-23238.394198244932
  0
POLYLINE
  5
13D
  330
121
  100
AcDbEntity
  8
95 3W MP2A LH1E_R8-R17_DXF_RINGDESIGN_095 3W MPR02A LHS 01E EXST_SURVEYEXPORT_R8A
  62
7
  100
AcDb3dPolyline
  10
0
  20
0
  30
0
  70
8
  0
VERTEX
  5
13E
  330

  100
AcDbEntity
  8
95 3W MP2A LH1E_R8-R17_DXF_RINGDESIGN_095 3W MPR02A LHS 01E EXST_SURVEYEXPORT_R8A
  6
BYLAYER
  62
7
  100
AcDbVertex
  100
AcDb3dPolylineVertex
  10
7110.6145378164265
  20
-23227.218876845982
  30
-995.85660973453571
  70
32
  0
VERTEX
  5
13F
  330

  100
AcDbEntity
  8
95 3W MP2A LH1E_R8-R17_DXF_RINGDESIGN_095 3W MPR02A LHS 01E EXST_SURVEYEXPORT_R8A
  6
BYLAYER
  62
7
  100
AcDbVertex
  100
AcDb3dPolylineVertex
  10
7111.4459389292706
  20
-23224.80431269035
  30
-997.42438327721516
  70
32
  0
SEQEND
  5
140
  330

  100
AcDbEntity
  8
95 3W MP2A LH1E_R8-R17_DXF_RINGDESIGN_095 3W MPR02A LHS 01E EXST_SURVEYEXPORT_R8A
  0
POLYLINE
  5
141
  330
121
  100
AcDbEntity
  8
95 3W MP2A LH1E_R8-R17_DXF_RINGDESIGN_095 3W MPR02A LHS 01E EXST_SURVEYEXPORT_R8A
  62
7
  100
AcDb3dPolyline
  10
0
  20
0
  30
0
  70
8
  0
VERTEX
  5
142
  330

  100
AcDbEntity
  8
95 3W MP2A LH1E_R8-R17_DXF_RINGDESIGN_095 3W MPR02A LHS 01E EXST_SURVEYEXPORT_R8A
  6
BYLAYER
  62
7
  100
AcDbVertex
  100
AcDb3dPolylineVertex
  10
7110.62741404982
  20
-23227.181481548898
  30
-995.23040077451947
  70
32
  0
VERTEX
  5
143
  330

  100
AcDbEntity
  8
95 3W MP2A LH1E_R8-R17_DXF_RINGDESIGN_095 3W MPR02A LHS 01E EXST_SURVEYEXPORT_R8A
  6
BYLAYER
  62
7
  100
AcDbVertex
  100
AcDb3dPolylineVertex
  10
7112.6039877725461
  20
-23221.441094642832
  30
-996.87715112915623
  70
32
  0
SEQEND
  5
144
  330

  100
AcDbEntity
  8
95 3W MP2A LH1E_R8-R17_DXF_RINGDESIGN_095 3W MPR02A LHS 01E EXST_SURVEYEXPORT_R8A
  0
POLYLINE
  5
145
  330
121
  100
AcDbEntity
  8
95 3W MP2A LH1E_R8-R17_DXF_RINGDESIGN_095 3W MPR02A LHS 01E EXST_SURVEYEXPORT_R8A
  62
7
  100
AcDb3dPolyline
  10
0
  20
0
  30
0
  70
8
  0
VERTEX
  5
146
  330

  100
AcDbEntity
  8
95 3W MP2A LH1E_R8-R17_DXF_RINGDESIGN_095 3W MPR02A LHS 01E EXST_SURVEYEXPORT_R8A
  6
BYLAYER
  62
7
  100
AcDbVertex
  100
AcDb3dPolylineVertex
  10
7110.5410931819952
  20
-23227.432175552207
  30
-994.62671053927454
  70
32
  0
VERTEX
  5
147
  330

  100
AcDbEntity
  8
95 3W MP2A LH1E_R8-R17_DXF_RINGDESIGN_095 3W MPR02A LHS 01E EXST_SURVEYEXPORT_R8A
  6
BYLAYER
  62
7
  100
AcDbVertex
  100
AcDb3dPolylineVertex
  10
7114.5414925680161
  20
-23215.814172140275
  30
-997.15076720318564
  70
32
  0
SEQEND
  5
148
  330

  100
AcDbEntity
  8
95 3W MP2A LH1E_R8-R17_DXF_RINGDESIGN_095 3W MPR02A LHS 01E EXST_SURVEYEXPORT_R8A
  0
POLYLINE
  5
149
  330
121
  100
AcDbEntity
  8
95 3W MP2A LH1E_R8-R17_DXF_RINGDESIGN_095 3W MPR02A LHS 01E EXST_SURVEYEXPORT_R8A
  62
7
  100
AcDb3dPolyline
  10
0
  20
0
  30
0
  70
8
  0
VERTEX
  5
14A
  330

  100
AcDbEntity
  8
95 3W MP2A LH1E_R8-R17_DXF_RINGDESIGN_095 3W MPR02A LHS 01E EXST_SURVEYEXPORT_R8A
  6
BYLAYER
  62
7
  100
AcDbVertex
  100
AcDb3dPolylineVertex
  10
7110.4950745652714
  20
-23227.565823319466
  30
-994.08306191365227
  70
32
  0
VERTEX
  5
14B
  330

  100
AcDbEntity
  8
95 3W MP2A LH1E_R8-R17_DXF_RINGDESIGN_095 3W MPR02A LHS 01E EXST_SURVEYEXPORT_R8A
  6
BYLAYER
  62
7
  100
AcDbVertex
  100
AcDb3dPolylineVertex
  10
7114.5414925680143
  20
-23215.814172140275
  30
-994.00418235184247
  70
32
  0
SEQEND
  5
14C
  330

  100
AcDbEntity
  8
95 3W MP2A LH1E_R8-R17_DXF_RINGDESIGN_095 3W MPR02A LHS 01E EXST_SURVEYEXPORT_R8A
  0
POLYLINE
  5
14D
  330
121
  100
AcDbEntity
  8
95 3W MP2A LH1E_R8-R17_DXF_RINGDESIGN_095 3W MPR02A LHS 01E EXST_SURVEYEXPORT_R8A
  62
7
  100
AcDb3dPolyline
  10
0
  20
0
  30
0
  70
8
  0
VERTEX
  5
14E
  330

  100
AcDbEntity
  8
95 3W MP2A LH1E_R8-R17_DXF_RINGDESIGN_095 3W MPR02A LHS 01E EXST_SURVEYEXPORT_R8A
  6
BYLAYER
  62
7
  100
AcDbVertex
  100
AcDb3dPolylineVertex
  10
7110.4683902170018
  20
-23227.643320293973
  30
-993.48091810094058
  70
32
  0
VERTEX
  5
14F
  330

  100
AcDbEntity
  8
95 3W MP2A LH1E_R8-R17_DXF_RINGDESIGN_095 3W MPR02A LHS 01E EXST_SURVEYEXPORT_R8A
  6
BYLAYER
  62
7
  100
AcDbVertex
  100
AcDb3dPolylineVertex
  10
7114.3410610374522
  20
-23216.396267571567
  30
-991.02860754676783
  70
32
  0
SEQEND
  5
150
  330

  100
AcDbEntity
  8
95 3W MP2A LH1E_R8-R17_DXF_RINGDESIGN_095 3W MPR02A LHS 01E EXST_SURVEYEXPORT_R8A
  0
POLYLINE
  5
151
  330
121
  100
AcDbEntity
  8
95 3W MP2A LH1E_R8-R17_DXF_RINGDESIGN_095 3W MPR02A LHS 01E EXST_SURVEYEXPORT_R8A
  62
7
  100
AcDb3dPolyline
  10
0
  20
0
  30
0
  70
8
  0
VERTEX
  5
152
  330

  100
AcDbEntity
  8
95 3W MP2A LH1E_R8-R17_DXF_RINGDESIGN_095 3W MPR02A LHS 01E EXST_SURVEYEXPORT_R8A
  6
BYLAYER
  62
7
  100
AcDbVertex
  100
AcDb3dPolylineVertex
  10
7110.39334176873
  20
-23227.861276813805
  30
-992.47570190669046
  70
32
  0
VERTEX
  5
153
  330

  100
AcDbEntity
  8
95 3W MP2A LH1E_R8-R17_DXF_RINGDESIGN_095 3W MPR02A LHS 01E EXST_SURVEYEXPORT_R8A
  6
BYLAYER
  62
7
  100
AcDbVertex
  100
AcDb3dPolylineVertex
  10
7112.41469132701
  20
-23221.990851439063
  30
-989.694729185872
  70
32
  0
SEQEND
  5
154
  330

  100
AcDbEntity
  8
95 3W MP2A LH1E_R8-R17_DXF_RINGDESIGN_095 3W MPR02A LHS 01E EXST_SURVEYEXPORT_R8A
  0
POLYLINE
  5
155
  330
121
  100
AcDbEntity
  8
95 3W MP2A LH1E_R8-R17_DXF_RINGDESIGN_095 3W MPR02A LHS 01E EXST_SURVEYEXPORT_R8A
  62
7
  100
AcDb3dPolyline
  10
0
  20
0
  30
0
  70
8
  0
VERTEX
  5
156
  330

  100
AcDbEntity
  8
95 3W MP2A LH1E_R8-R17_DXF_RINGDESIGN_095 3W MPR02A LHS 01E EXST_SURVEYEXPORT_R8A
  6
BYLAYER
  62
7
  100
AcDbVertex
  100
AcDb3dPolylineVertex
  10
7110.3691304291124
  20
-23227.931591649678
  30
-992.068873819065
  70
32
  0
VERTEX
  5
157
  330

  100
AcDbEntity
  8
95 3W MP2A LH1E_R8-R17_DXF_RINGDESIGN_095 3W MPR02A LHS 01E EXST_SURVEYEXPORT_R8A
  6
BYLAYER
  62
7
  100
AcDbVertex
  100
AcDb3dPolylineVertex
  10
7112.2922053916609
  20
-23222.346576424861
  30
-986.51394232527662
  70
32
  0
SEQEND
  5
158
  330

  100
AcDbEntity
  8
95 3W MP2A LH1E_R8-R17_DXF_RINGDESIGN_095 3W MPR02A LHS 01E EXST_SURVEYEXPORT_R8A
  0
POLYLINE
  5
159
  330
121
  100
AcDbEntity
  8
95 3W MP2A LH1E_R8-R17_DXF_RINGDESIGN_095 3W MPR02A LHS 01E EXST_SURVEYEXPORT_R8A
  62
7
  100
AcDb3dPolyline
  10
0
  20
0
  30
0
  70
8
  0
VERTEX
  5
15A
  330

  100
AcDbEntity
  8
95 3W MP2A LH1E_R8-R17_DXF_RINGDESIGN_095 3W MPR02A LHS 01E EXST_SURVEYEXPORT_R8A
  6
BYLAYER
  62
7
  100
AcDbVertex
  100
AcDb3dPolylineVertex
  10
7110.2235537611223
  20
-23228.354376992393
  30
-991.19355206065973
  70
32
  0
VERTEX
  5
15B
  330

  100
AcDbEntity
  8
95 3W MP2A LH1E_R8-R17_DXF_RINGDESIGN_095 3W MPR02A LHS 01E EXST_SURVEYEXPORT_R8A
  6
BYLAYER
  62
7
  100
AcDbVertex
  100
AcDb3dPolylineVertex
  10
7110.9559951878873
  20
-23226.227212633523
  30
-987.26638652885788
  70
32
  0
SEQEND
  5
15C
  330

  100
AcDbEntity
  8
95 3W MP2A LH1E_R8-R17_DXF_RINGDESIGN_095 3W MPR02A LHS 01E EXST_SURVEYEXPORT_R8A
  0
LWPOLYLINE
  5
15D
  330
121
  100
AcDbEntity
  8
95 3W MP2A LH1E_R8-R17_DXF_RINGDESIGN_095 3W MPR02A LHS 01E EXST_SURVEYEXPORT
  62
7
  100
AcDbPolyline
  90
2
  43
0
  38
-994.40350000513058
  10
7110.7635455415684
  20
-23219.964184788932
  10
7108.3261586734652
  20
-23239.81510782176
  0
LWPOLYLINE
  5
15E
  330
121
  100
AcDbEntity
  8
95 3W MP2A LH1E_R8-R17_DXF_RINGDESIGN_095 3W MPR02A LHS 01E EXST_SURVEYEXPORT
  62
1
  100
AcDbPolyline
  90
2
  43
0
  38
-994.40350000513058
  10
7107.885161701809
  20
-23219.610763693057
  10
7105.4477748337058
  20
-23239.461686725885
  0
POLYLINE
  5
15F
  330
121
  100
AcDbEntity
  8
95 3W MP2A LH1E_R8-R17_DXF_RINGDESIGN_095 3W MPR02A LHS 01E EXST_SURVEYEXPORT_R8B
  62
7
  100
AcDb3dPolyline
  10
0
  20
0
  30
0
  70
8
  0
VERTEX
  5
160
  330

  100
AcDbEntity
  8
95 3W MP2A LH1E_R8-R17_DXF_RINGDESIGN_095 3W MPR02A LHS 01E EXST_SURVEYEXPORT_R8B
  6
BYLAYER
  62
7
  100
AcDbVertex
  100
AcDb3dPolylineVertex
  10
7109.8352560863068
  20
-23227.524495698024
  30
-995.86898394539821
  70
32
  0
VERTEX
  5
161
  330

  100
AcDbEntity
  8
95 3W MP2A LH1E_R8-R17_DXF_RINGDESIGN_095 3W MPR02A LHS 01E EXST_SURVEYEXPORT_R8B
  6
BYLAYER
  62
7
  100
AcDbVertex
  100
AcDb3dPolylineVertex
  10
7110.2040575601586
  20
-23224.52084873183
  30
-997.27822669100192
  70
32
  0
SEQEND
  5
162
  330

  100
AcDbEntity
  8
95 3W MP2A LH1E_R8-R17_DXF_RINGDESIGN_095 3W MPR02A LHS 01E EXST_SURVEYEXPORT_R8B
  0
POLYLINE
  5
163
  330
121
  100
AcDbEntity
  8
95 3W MP2A LH1E_R8-R17_DXF_RINGDESIGN_095 3W MPR02A LHS 01E EXST_SURVEYEXPORT_R8B
  62
7
  100
AcDb3dPolyline
  10
0
  20
0
  30
0
  70
8
  0
VERTEX
  5
164
  330

  100
AcDbEntity
  8
95 3W MP2A LH1E_R8-R17_DXF_RINGDESIGN_095 3W MPR02A LHS 01E EXST_SURVEYEXPORT_R8B
  6
BYLAYER
  62
7
  100
AcDbVertex
  100
AcDb3dPolylineVertex
  10
7109.8309164820412
  20
-23227.55983893852
  30
-995.06430072028866
  70
32
  0
VERTEX
  5
165
  330

  100
AcDbEntity
  8
95 3W MP2A LH1E_R8-R17_DXF_RINGDESIGN_095 3W MPR02A LHS 01E EXST_SURVEYEXPORT_R8B
  6
BYLAYER
  62
7
  100
AcDbVertex
  100
AcDb3dPolylineVertex
  10
7110.6625569653543
  20
-23220.786670738893
  30
-996.87920324970867
  70
32
  0
SEQEND
  5
166
  330

  100
AcDbEntity
  8
95 3W MP2A LH1E_R8-R17_DXF_RINGDESIGN_095 3W MPR02A LHS 01E EXST_SURVEYEXPORT_R8B
  0
POLYLINE
  5
167
  330
121
  100
AcDbEntity
  8
95 3W MP2A LH1E_R8-R17_DXF_RINGDESIGN_095 3W MPR02A LHS 01E EXST_SURVEYEXPORT_R8B
  62
7
  100
AcDb3dPolyline
  10
0
  20
0
  30
0
  70
8
  0
VERTEX
  5
168
  330

  100
AcDbEntity
  8
95 3W MP2A LH1E_R8-R17_DXF_RINGDESIGN_095 3W MPR02A LHS 01E EXST_SURVEYEXPORT_R8B
  6
BYLAYER
  62
7
  100
AcDbVertex
  100
AcDb3dPolylineVertex
  10
7109.8275415968756
  20
-23227.587325172466
  30
-994.778853397004
  70
32
  0
VERTEX
  5
169
  330

  100
AcDbEntity
  8
95 3W MP2A LH1E_R8-R17_DXF_RINGDESIGN_095 3W MPR02A LHS 01E EXST_SURVEYEXPORT_R8B
  6
BYLAYER
  62
7
  100
AcDbVertex
  100
AcDb3dPolylineVertex
  10
7111.2356812218522
  20
-23216.118948247691
  30
-997.0217116216
  70
32
  0
SEQEND
  5
16A
  330

  100
AcDbEntity
  8
95 3W MP2A LH1E_R8-R17_DXF_RINGDESIGN_095 3W MPR02A LHS 01E EXST_SURVEYEXPORT_R8B
  0
POLYLINE
  5
16B
  330
121
  100
AcDbEntity
  8
95 3W MP2A LH1E_R8-R17_DXF_RINGDESIGN_095 3W MPR02A LHS 01E EXST_SURVEYEXPORT_R8B
  62
7
  100
AcDb3dPolyline
  10
0
  20
0
  30
0
  70
8
  0
VERTEX
  5
16C
  330

  100
AcDbEntity
  8
95 3W MP2A LH1E_R8-R17_DXF_RINGDESIGN_095 3W MPR02A LHS 01E EXST_SURVEYEXPORT_R8B
  6
BYLAYER
  62
7
  100
AcDbVertex
  100
AcDb3dPolylineVertex
  10
7109.82443436489
  20
-23227.612631546184
  30
-994.51604414296435
  70
32
  0
VERTEX
  5
16D
  330

  100
AcDbEntity
  8
95 3W MP2A LH1E_R8-R17_DXF_RINGDESIGN_095 3W MPR02A LHS 01E EXST_SURVEYEXPORT_R8B
  6
BYLAYER
  62
7
  100
AcDbVertex
  100
AcDb3dPolylineVertex
  10
7111.6837601860225
  20
-23212.4696379364
  30
-996.85070157533107
  70
32
  0
SEQEND
  5
16E
  330

  100
AcDbEntity
  8
95 3W MP2A LH1E_R8-R17_DXF_RINGDESIGN_095 3W MPR02A LHS 01E EXST_SURVEYEXPORT_R8B
  0
POLYLINE
  5
16F
  330
121
  100
AcDbEntity
  8
95 3W MP2A LH1E_R8-R17_DXF_RINGDESIGN_095 3W MPR02A LHS 01E EXST_SURVEYEXPORT_R8B
  62
7
  100
AcDb3dPolyline
  10
0
  20
0
  30
0
  70
8
  0
VERTEX
  5
170
  330

  100
AcDbEntity
  8
95 3W MP2A LH1E_R8-R17_DXF_RINGDESIGN_095 3W MPR02A LHS 01E EXST_SURVEYEXPORT_R8B
  6
BYLAYER
  62
7
  100
AcDbVertex
  100
AcDb3dPolylineVertex
  10
7109.8192831968045
  20
-23227.654584443582
  30
-994.08035905458212
  70
32
  0
VERTEX
  5
171
  330

  100
AcDbEntity
  8
95 3W MP2A LH1E_R8-R17_DXF_RINGDESIGN_095 3W MPR02A LHS 01E EXST_SURVEYEXPORT_R8B
  6
BYLAYER
  62
7
  100
AcDbVertex
  100
AcDb3dPolylineVertex
  10
7111.6782926706692
  20
-23212.514167275538
  30
-994.29148873013025
  70
32
  0
SEQEND
  5
172
  330

  100
AcDbEntity
  8
95 3W MP2A LH1E_R8-R17_DXF_RINGDESIGN_095 3W MPR02A LHS 01E EXST_SURVEYEXPORT_R8B
  0
POLYLINE
  5
173
  330
121
  100
AcDbEntity
  8
95 3W MP2A LH1E_R8-R17_DXF_RINGDESIGN_095 3W MPR02A LHS 01E EXST_SURVEYEXPORT_R8B
  62
7
  100
AcDb3dPolyline
  10
0
  20
0
  30
0
  70
8
  0
VERTEX
  5
174
  330

  100
AcDbEntity
  8
95 3W MP2A LH1E_R8-R17_DXF_RINGDESIGN_095 3W MPR02A LHS 01E EXST_SURVEYEXPORT_R8B
  6
BYLAYER
  62
7
  100
AcDbVertex
  100
AcDb3dPolylineVertex
  10
7109.8191365567127
  20
-23227.655778731296
  30
-993.49241040790889
  70
32
  0
VERTEX
  5
175
  330

  100
AcDbEntity
  8
95 3W MP2A LH1E_R8-R17_DXF_RINGDESIGN_095 3W MPR02A LHS 01E EXST_SURVEYEXPORT_R8B
  6
BYLAYER
  62
7
  100
AcDbVertex
  100
AcDb3dPolylineVertex
  10
7111.6665535935872
  20
-23212.609774386052
  30
-991.3060702912195
  70
32
  0
SEQEND
  5
176
  330

  100
AcDbEntity
  8
95 3W MP2A LH1E_R8-R17_DXF_RINGDESIGN_095 3W MPR02A LHS 01E EXST_SURVEYEXPORT_R8B
  0
POLYLINE
  5
177
  330
121
  100
AcDbEntity
  8
95 3W MP2A LH1E_R8-R17_DXF_RINGDESIGN_095 3W MPR02A LHS 01E EXST_SURVEYEXPORT_R8B
  62
7
  100
AcDb3dPolyline
  10
0
  20
0
  30
0
  70
8
  0
VERTEX
  5
178
  330

  100
AcDbEntity
  8
95 3W MP2A LH1E_R8-R17_DXF_RINGDESIGN_095 3W MPR02A LHS 01E EXST_SURVEYEXPORT_R8B
  6
BYLAYER
  62
7
  100
AcDbVertex
  100
AcDb3dPolylineVertex
  10
7109.8191365567127
  20
-23227.655778731296
  30
-992.78217675006124
  70
32
  0
VERTEX
  5
179
  330

  100
AcDbEntity
  8
95 3W MP2A LH1E_R8-R17_DXF_RINGDESIGN_095 3W MPR02A LHS 01E EXST_SURVEYEXPORT_R8B
  6
BYLAYER
  62
7
  100
AcDbVertex
  100
AcDb3dPolylineVertex
  10
7110.7113464994236
  20
-23220.389311871375
  30
-990.35601447861666
  70
32
  0
SEQEND
  5
17A
  330

  100
AcDbEntity
  8
95 3W MP2A LH1E_R8-R17_DXF_RINGDESIGN_095 3W MPR02A LHS 01E EXST_SURVEYEXPORT_R8B
  0
POLYLINE
  5
17B
  330
121
  100
AcDbEntity
  8
95 3W MP2A LH1E_R8-R17_DXF_RINGDESIGN_095 3W MPR02A LHS 01E EXST_SURVEYEXPORT_R8B
  62
7
  100
AcDb3dPolyline
  10
0
  20
0
  30
0
  70
8
  0
VERTEX
  5
17C
  330

  100
AcDbEntity
  8
95 3W MP2A LH1E_R8-R17_DXF_RINGDESIGN_095 3W MPR02A LHS 01E EXST_SURVEYEXPORT_R8B
  6
BYLAYER
  62
7
  100
AcDbVertex
  100
AcDb3dPolylineVertex
  10
7109.8073120227582
  20
-23227.752081832165
  30
-992.37630049348127
  70
32
  0
VERTEX
  5
17D
  330

  100
AcDbEntity
  8
95 3W MP2A LH1E_R8-R17_DXF_RINGDESIGN_095 3W MPR02A LHS 01E EXST_SURVEYEXPORT_R8B
  6
BYLAYER
  62
7
  100
AcDbVertex
  100
AcDb3dPolylineVertex
  10
7110.6997682316151
  20
-23220.483609295439
  30
-987.12582471576468
  70
32
  0
SEQEND
  5
17E
  330

  100
AcDbEntity
  8
95 3W MP2A LH1E_R8-R17_DXF_RINGDESIGN_095 3W MPR02A LHS 01E EXST_SURVEYEXPORT_R8B
  0
POLYLINE
  5
17F
  330
121
  100
AcDbEntity
  8
95 3W MP2A LH1E_R8-R17_DXF_RINGDESIGN_095 3W MPR02A LHS 01E EXST_SURVEYEXPORT_R8B
  62
7
  100
AcDb3dPolyline
  10
0
  20
0
  30
0
  70
8
  0
VERTEX
  5
180
  330

  100
AcDbEntity
  8
95 3W MP2A LH1E_R8-R17_DXF_RINGDESIGN_095 3W MPR02A LHS 01E EXST_SURVEYEXPORT_R8B
  6
BYLAYER
  62
7
  100
AcDbVertex
  100
AcDb3dPolylineVertex
  10
7109.7477071503
  20
-23228.237524562261
  30
-991.93235878739017
  70
32
  0
VERTEX
  5
181
  330

  100
AcDbEntity
  8
95 3W MP2A LH1E_R8-R17_DXF_RINGDESIGN_095 3W MPR02A LHS 01E EXST_SURVEYEXPORT_R8B
  6
BYLAYER
  62
7
  100
AcDbVertex
  100
AcDb3dPolylineVertex
  10
7110.2105864167252
  20
-23224.467675462161
  30
-987.05457052981876
  70
32
  0
SEQEND
  5
182
  330

  100
AcDbEntity
  8
95 3W MP2A LH1E_R8-R17_DXF_RINGDESIGN_095 3W MPR02A LHS 01E EXST_SURVEYEXPORT_R8B
  0
POLYLINE
  5
183
  330
121
  100
AcDbEntity
  8
95 3W MP2A LH1E_R8-R17_DXF_RINGDESIGN_095 3W MPR02A LHS 01E EXST_SURVEYEXPORT_R8B
  62
7
  100
AcDb3dPolyline
  10
0
  20
0
  30
0
  70
8
  0
VERTEX
  5
184
  330

  100
AcDbEntity
  8
95 3W MP2A LH1E_R8-R17_DXF_RINGDESIGN_095 3W MPR02A LHS 01E EXST_SURVEYEXPORT_R8B
  6
BYLAYER
  62
7
  100
AcDbVertex
  100
AcDb3dPolylineVertex
  10
7109.6746383805094
  20
-23228.832621936504
  30
-990.9607761676715
  70
32
  0
VERTEX
  5
185
  330

  100
AcDbEntity
  8
95 3W MP2A LH1E_R8-R17_DXF_RINGDESIGN_095 3W MPR02A LHS 01E EXST_SURVEYEXPORT_R8B
  6
BYLAYER
  62
7
  100
AcDbVertex
  100
AcDb3dPolylineVertex
  10
7109.8169253112537
  20
-23227.673787880347
  30
-987.862117970531
  70
32
  0
SEQEND
  5
186
  330

  100
AcDbEntity
  8
95 3W MP2A LH1E_R8-R17_DXF_RINGDESIGN_095 3W MPR02A LHS 01E EXST_SURVEYEXPORT_R8B
  0
LWPOLYLINE
  5
187
  330
121
  100
AcDbEntity
  8
95 3W MP2A LH1E_R8-R17_DXF_RINGDESIGN_095 3W MPR02A LHS 01E EXST_SURVEYEXPORT
  62
7
  100
AcDbPolyline
  90
2
  43
0
  38
-994.40350000513058
  10
7109.0614830221593
  20
-23219.900981935461
  10
7110.196016823128
  20
-23239.868776832605
  0
LWPOLYLINE
  5
188
  330
121
  100
AcDbEntity
  8
95 3W MP2A LH1E_R8-R17_DXF_RINGDESIGN_095 3W MPR02A LHS 01E EXST_SURVEYEXPORT
  62
1
  100
AcDbPolyline
  90
2
  43
0
  38
-994.40350000513058
  10
7106.1661527620736
  20
-23220.0654893366
  10
7107.3006865630423
  20
-23240.033284233745
  0
POLYLINE
  5
189
  330
121
  100
AcDbEntity
  8
95 3W MP2A LH1E_R8-R17_DXF_RINGDESIGN_095 3W MPR02A LHS 01E EXST_SURVEYEXPORT_R8
  62
7
  100
AcDb3dPolyline
  10
0
  20
0
  30
0
  70
8
  0
VERTEX
  5
18A
  330

  100
AcDbEntity
  8
95 3W MP2A LH1E_R8-R17_DXF_RINGDESIGN_095 3W MPR02A LHS 01E EXST_SURVEYEXPORT_R8
  6
BYLAYER
  62
7
  100
AcDbVertex
  100
AcDb3dPolylineVertex
  10
7109.5025032455169
  20
-23227.662937866578
  30
-996.381616312827
  70
32
  0
VERTEX
  5
18B
  330

  100
AcDbEntity
  8
95 3W MP2A LH1E_R8-R17_DXF_RINGDESIGN_095 3W MPR02A LHS 01E EXST_SURVEYEXPORT_R8
  6
BYLAYER
  62
7
  100
AcDbVertex
  100
AcDb3dPolylineVertex
  10
7109.285908483027
  20
-23223.850870046736
  30
-997.901991963214
  70
32
  0
SEQEND
  5
18C
  330

  100
AcDbEntity
  8
95 3W MP2A LH1E_R8-R17_DXF_RINGDESIGN_095 3W MPR02A LHS 01E EXST_SURVEYEXPORT_R8
  0
POLYLINE
  5
18D
  330
121
  100
AcDbEntity
  8
95 3W MP2A LH1E_R8-R17_DXF_RINGDESIGN_095 3W MPR02A LHS 01E EXST_SURVEYEXPORT_R8
  62
7
  100
AcDb3dPolyline
  10
0
  20
0
  30
0
  70
8
  0
VERTEX
  5
18E
  330

  100
AcDbEntity
  8
95 3W MP2A LH1E_R8-R17_DXF_RINGDESIGN_095 3W MPR02A LHS 01E EXST_SURVEYEXPORT_R8
  6
BYLAYER
  62
7
  100
AcDbVertex
  100
AcDb3dPolylineVertex
  10
7109.5055962937222
  20
-23227.717375514992
  30
-995.77827487605612
  70
32
  0
VERTEX
  5
18F
  330

  100
AcDbEntity
  8
95 3W MP2A LH1E_R8-R17_DXF_RINGDESIGN_095 3W MPR02A LHS 01E EXST_SURVEYEXPORT_R8
  6
BYLAYER
  62
7
  100
AcDbVertex
  100
AcDb3dPolylineVertex
  10
7109.086071304896
  20
-23220.333735711614
  30
-997.38896182440863
  70
32
  0
SEQEND
  5
190
  330

  100
AcDbEntity
  8
95 3W MP2A LH1E_R8-R17_DXF_RINGDESIGN_095 3W MPR02A LHS 01E EXST_SURVEYEXPORT_R8
  0
POLYLINE
  5
191
  330
121
  100
AcDbEntity
  8
95 3W MP2A LH1E_R8-R17_DXF_RINGDESIGN_095 3W MPR02A LHS 01E EXST_SURVEYEXPORT_R8
  62
7
  100
AcDb3dPolyline
  10
0
  20
0
  30
0
  70
8
  0
VERTEX
  5
192
  330

  100
AcDbEntity
  8
95 3W MP2A LH1E_R8-R17_DXF_RINGDESIGN_095 3W MPR02A LHS 01E EXST_SURVEYEXPORT_R8
  6
BYLAYER
  62
7
  100
AcDbVertex
  100
AcDb3dPolylineVertex
  10
7109.5051011747319
  20
-23227.70866142074
  30
-995.39132694586988
  70
32
  0
VERTEX
  5
193
  330

  100
AcDbEntity
  8
95 3W MP2A LH1E_R8-R17_DXF_RINGDESIGN_095 3W MPR02A LHS 01E EXST_SURVEYEXPORT_R8
  6
BYLAYER
  62
7
  100
AcDbVertex
  100
AcDb3dPolylineVertex
  10
7108.6631149473
  20
-23212.889703817873
  30
-997.457365842916
  70
32
  0
SEQEND
  5
194
  330

  100
AcDbEntity
  8
95 3W MP2A LH1E_R8-R17_DXF_RINGDESIGN_095 3W MPR02A LHS 01E EXST_SURVEYEXPORT_R8
  0
POLYLINE
  5
195
  330
121
  100
AcDbEntity
  8
95 3W MP2A LH1E_R8-R17_DXF_RINGDESIGN_095 3W MPR02A LHS 01E EXST_SURVEYEXPORT_R8
  62
7
  100
AcDb3dPolyline
  10
0
  20
0
  30
0
  70
8
  0
VERTEX
  5
196
  330

  100
AcDbEntity
  8
95 3W MP2A LH1E_R8-R17_DXF_RINGDESIGN_095 3W MPR02A LHS 01E EXST_SURVEYEXPORT_R8
  6
BYLAYER
  62
7
  100
AcDbVertex
  100
AcDb3dPolylineVertex
  10
7109.50433997539
  20
-23227.695264312351
  30
-994.79643053893278
  70
32
  0
VERTEX
  5
197
  330

  100
AcDbEntity
  8
95 3W MP2A LH1E_R8-R17_DXF_RINGDESIGN_095 3W MPR02A LHS 01E EXST_SURVEYEXPORT_R8
  6
BYLAYER
  62
7
  100
AcDbVertex
  100
AcDb3dPolylineVertex
  10
7108.6475936130746
  20
-23212.616528335515
  30
-994.27657898231962
  70
32
  0
SEQEND
  5
198
  330

  100
AcDbEntity
  8
95 3W MP2A LH1E_R8-R17_DXF_RINGDESIGN_095 3W MPR02A LHS 01E EXST_SURVEYEXPORT_R8
  0
POLYLINE
  5
199
  330
121
  100
AcDbEntity
  8
95 3W MP2A LH1E_R8-R17_DXF_RINGDESIGN_095 3W MPR02A LHS 01E EXST_SURVEYEXPORT_R8
  62
7
  100
AcDb3dPolyline
  10
0
  20
0
  30
0
  70
8
  0
VERTEX
  5
19A
  330

  100
AcDbEntity
  8
95 3W MP2A LH1E_R8-R17_DXF_RINGDESIGN_095 3W MPR02A LHS 01E EXST_SURVEYEXPORT_R8
  6
BYLAYER
  62
7
  100
AcDbVertex
  100
AcDb3dPolylineVertex
  10
7109.5034296700123
  20
-23227.679242937702
  30
-994.08500401779611
  70
32
  0
VERTEX
  5
19B
  330

  100
AcDbEntity
  8
95 3W MP2A LH1E_R8-R17_DXF_RINGDESIGN_095 3W MPR02A LHS 01E EXST_SURVEYEXPORT_R8
  6
BYLAYER
  62
7
  100
AcDbVertex
  100
AcDb3dPolylineVertex
  10
7108.6611747805209
  20
-23212.855556882572
  30
-990.92478207545435
  70
32
  0
SEQEND
  5
19C
  330

  100
AcDbEntity
  8
95 3W MP2A LH1E_R8-R17_DXF_RINGDESIGN_095 3W MPR02A LHS 01E EXST_SURVEYEXPORT_R8
  0
POLYLINE
  5
19D
  330
121
  100
AcDbEntity
  8
95 3W MP2A LH1E_R8-R17_DXF_RINGDESIGN_095 3W MPR02A LHS 01E EXST_SURVEYEXPORT_R8
  62
7
  100
AcDb3dPolyline
  10
0
  20
0
  30
0
  70
8
  0
VERTEX
  5
19E
  330

  100
AcDbEntity
  8
95 3W MP2A LH1E_R8-R17_DXF_RINGDESIGN_095 3W MPR02A LHS 01E EXST_SURVEYEXPORT_R8
  6
BYLAYER
  62
7
  100
AcDbVertex
  100
AcDb3dPolylineVertex
  10
7109.5024542242827
  20
-23227.662075092823
  30
-993.32266867369674
  70
32
  0
VERTEX
  5
19F
  330

  100
AcDbEntity
  8
95 3W MP2A LH1E_R8-R17_DXF_RINGDESIGN_095 3W MPR02A LHS 01E EXST_SURVEYEXPORT_R8
  6
BYLAYER
  62
7
  100
AcDbVertex
  100
AcDb3dPolylineVertex
  10
7108.9968236331106
  20
-23218.762976688162
  30
-989.59090371456
  70
32
  0
SEQEND
  5
1A0
  330

  100
AcDbEntity
  8
95 3W MP2A LH1E_R8-R17_DXF_RINGDESIGN_095 3W MPR02A LHS 01E EXST_SURVEYEXPORT_R8
  0
POLYLINE
  5
1A1
  330
121
  100
AcDbEntity
  8
95 3W MP2A LH1E_R8-R17_DXF_RINGDESIGN_095 3W MPR02A LHS 01E EXST_SURVEYEXPORT_R8
  62
7
  100
AcDb3dPolyline
  10
0
  20
0
  30
0
  70
8
  0
VERTEX
  5
1A2
  330

  100
AcDbEntity
  8
95 3W MP2A LH1E_R8-R17_DXF_RINGDESIGN_095 3W MPR02A LHS 01E EXST_SURVEYEXPORT_R8
  6
BYLAYER
  62
7
  100
AcDbVertex
  100
AcDb3dPolylineVertex
  10
7109.5074101555974
  20
-23227.749299483974
  30
-992.396103474333
  70
32
  0
VERTEX
  5
1A3
  330

  100
AcDbEntity
  8
95 3W MP2A LH1E_R8-R17_DXF_RINGDESIGN_095 3W MPR02A LHS 01E EXST_SURVEYEXPORT_R8
  6
BYLAYER
  62
7
  100
AcDbVertex
  100
AcDb3dPolylineVertex
  10
7108.96772113144
  20
-23218.250772658768
  30
-985.62347064112464
  70
32
  0
SEQEND
  5
1A4
  330

  100
AcDbEntity
  8
95 3W MP2A LH1E_R8-R17_DXF_RINGDESIGN_095 3W MPR02A LHS 01E EXST_SURVEYEXPORT_R8
  0
POLYLINE
  5
1A5
  330
121
  100
AcDbEntity
  8
95 3W MP2A LH1E_R8-R17_DXF_RINGDESIGN_095 3W MPR02A LHS 01E EXST_SURVEYEXPORT_R8
  62
7
  100
AcDb3dPolyline
  10
0
  20
0
  30
0
  70
8
  0
VERTEX
  5
1A6
  330

  100
AcDbEntity
  8
95 3W MP2A LH1E_R8-R17_DXF_RINGDESIGN_095 3W MPR02A LHS 01E EXST_SURVEYEXPORT_R8
  6
BYLAYER
  62
7
  100
AcDbVertex
  100
AcDb3dPolylineVertex
  10
7109.518803557361
  20
-23227.949823355004
  30
-992.215750808988
  70
32
  0
VERTEX
  5
1A7
  330

  100
AcDbEntity
  8
95 3W MP2A LH1E_R8-R17_DXF_RINGDESIGN_095 3W MPR02A LHS 01E EXST_SURVEYEXPORT_R8
  6
BYLAYER
  62
7
  100
AcDbVertex
  100
AcDb3dPolylineVertex
  10
7109.2917289833613
  20
-23223.953310852605
  30
-986.99155101127474
  70
32
  0
SEQEND
  5
1A8
  330

  100
AcDbEntity
  8
95 3W MP2A LH1E_R8-R17_DXF_RINGDESIGN_095 3W MPR02A LHS 01E EXST_SURVEYEXPORT_R8
  0
POLYLINE
  5
1A9
  330
121
  100
AcDbEntity
  8
95 3W MP2A LH1E_R8-R17_DXF_RINGDESIGN_095 3W MPR02A LHS 01E EXST_SURVEYEXPORT_R8
  62
7
  100
AcDb3dPolyline
  10
0
  20
0
  30
0
  70
8
  0
VERTEX
  5
1AA
  330

  100
AcDbEntity
  8
95 3W MP2A LH1E_R8-R17_DXF_RINGDESIGN_095 3W MPR02A LHS 01E EXST_SURVEYEXPORT_R8
  6
BYLAYER
  62
7
  100
AcDbVertex
  100
AcDb3dPolylineVertex
  10
7109.5495490010635
  20
-23228.490943164197
  30
-991.72906361629668
  70
32
  0
VERTEX
  5
1AB
  330

  100
AcDbEntity
  8
95 3W MP2A LH1E_R8-R17_DXF_RINGDESIGN_095 3W MPR02A LHS 01E EXST_SURVEYEXPORT_R8
  6
BYLAYER
  62
7
  100
AcDbVertex
  100
AcDb3dPolylineVertex
  10
7109.4585833262663
  20
-23226.889947287757
  30
-987.88080325187229
  70
32
  0
SEQEND
  5
1AC
  330

  100
AcDbEntity
  8
95 3W MP2A LH1E_R8-R17_DXF_RINGDESIGN_095 3W MPR02A LHS 01E EXST_SURVEYEXPORT_R8
  0
POLYLINE
  5
1AD
  330
121
  100
AcDbEntity
  8
95 3W MP2A LH1E_R8-R17_DXF_RINGDESIGN_095 3W MPR02A LHS 01E EXST_SURVEYEXPORT_R8
  62
7
  100
AcDb3dPolyline
  10
0
  20
0
  30
0
  70
8
  0
VERTEX
  5
1AE
  330

  100
AcDbEntity
  8
95 3W MP2A LH1E_R8-R17_DXF_RINGDESIGN_095 3W MPR02A LHS 01E EXST_SURVEYEXPORT_R8
  6
BYLAYER
  62
7
  100
AcDbVertex
  100
AcDb3dPolylineVertex
  10
7109.635138503063
  20
-23229.997318399379
  30
-991.414044250118
  70
32
  0
VERTEX
  5
1AF
  330

  100
AcDbEntity
  8
95 3W MP2A LH1E_R8-R17_DXF_RINGDESIGN_095 3W MPR02A LHS 01E EXST_SURVEYEXPORT_R8
  6
BYLAYER
  62
7
  100
AcDbVertex
  100
AcDb3dPolylineVertex
  10
7109.635138503063
  20
-23229.997318399379
  30
-988.73585348321558
  70
32
  0
SEQEND
  5
1B0
  330

  100
AcDbEntity
  8
95 3W MP2A LH1E_R8-R17_DXF_RINGDESIGN_095 3W MPR02A LHS 01E EXST_SURVEYEXPORT_R8
  0
POLYLINE
  5
1B1
  330
121
  100
AcDbEntity
  8
95 3W MP2A LH1E_R8-R17_DXF_RINGDESIGN_095 3W MPR02A LHS 01E EXST_SURVEYEXPORT_R8
  62
7
  100
AcDb3dPolyline
  10
0
  20
0
  30
0
  70
8
  0
VERTEX
  5
1B2
  330

  100
AcDbEntity
  8
95 3W MP2A LH1E_R8-R17_DXF_RINGDESIGN_095 3W MPR02A LHS 01E EXST_SURVEYEXPORT_R8
  6
BYLAYER
  62
7
  100
AcDbVertex
  100
AcDb3dPolylineVertex
  10
7109.7623571681033
  20
-23232.236366904104
  30
-991.94218919742764
  70
32
  0
VERTEX
  5
1B3
  330

  100
AcDbEntity
  8
95 3W MP2A LH1E_R8-R17_DXF_RINGDESIGN_095 3W MPR02A LHS 01E EXST_SURVEYEXPORT_R8
  6
BYLAYER
  62
7
  100
AcDbVertex
  100
AcDb3dPolylineVertex
  10
7109.7961723456337
  20
-23232.831514028643
  30
-989.454095677544
  70
32
  0
SEQEND
  5
1B4
  330

  100
AcDbEntity
  8
95 3W MP2A LH1E_R8-R17_DXF_RINGDESIGN_095 3W MPR02A LHS 01E EXST_SURVEYEXPORT_R8
  0
POLYLINE
  5
1B5
  330
121
  100
AcDbEntity
  8
95 3W MP2A LH1E_R8-R17_DXF_RINGDESIGN_095 3W MPR02A LHS 01E EXST_SURVEYEXPORT_R8
  62
7
  100
AcDb3dPolyline
  10
0
  20
0
  30
0
  70
8
  0
VERTEX
  5
1B6
  330

  100
AcDbEntity
  8
95 3W MP2A LH1E_R8-R17_DXF_RINGDESIGN_095 3W MPR02A LHS 01E EXST_SURVEYEXPORT_R8
  6
BYLAYER
  62
7
  100
AcDbVertex
  100
AcDb3dPolylineVertex
  10
7109.80592663294
  20
-23233.003189485247
  30
-992.52944932254968
  70
32
  0
VERTEX
  5
1B7
  330

  100
AcDbEntity
  8
95 3W MP2A LH1E_R8-R17_DXF_RINGDESIGN_095 3W MPR02A LHS 01E EXST_SURVEYEXPORT_R8
  6
BYLAYER
  62
7
  100
AcDbVertex
  100
AcDb3dPolylineVertex
  10
7109.9591463549823
  20
-23235.699856593204
  30
-990.3433479181424
  70
32
  0
SEQEND
  5
1B8
  330

  100
AcDbEntity
  8
95 3W MP2A LH1E_R8-R17_DXF_RINGDESIGN_095 3W MPR02A LHS 01E EXST_SURVEYEXPORT_R8
  0
POLYLINE
  5
1B9
  330
121
  100
AcDbEntity
  8
95 3W MP2A LH1E_R8-R17_DXF_RINGDESIGN_095 3W MPR02A LHS 01E EXST_SURVEYEXPORT_R8
  62
7
  100
AcDb3dPolyline
  10
0
  20
0
  30
0
  70
8
  0
VERTEX
  5
1BA
  330

  100
AcDbEntity
  8
95 3W MP2A LH1E_R8-R17_DXF_RINGDESIGN_095 3W MPR02A LHS 01E EXST_SURVEYEXPORT_R8
  6
BYLAYER
  62
7
  100
AcDbVertex
  100
AcDb3dPolylineVertex
  10
7109.8281530288186
  20
-23233.394374052714
  30
-993.58438610244673
  70
32
  0
VERTEX
  5
1BB
  330

  100
AcDbEntity
  8
95 3W MP2A LH1E_R8-R17_DXF_RINGDESIGN_095 3W MPR02A LHS 01E EXST_SURVEYEXPORT_R8
  6
BYLAYER
  62
7
  100
AcDbVertex
  100
AcDb3dPolylineVertex
  10
7110.1162998639975
  20
-23238.465758351889
  30
-991.5404182420225
  70
32
  0
SEQEND
  5
1BC
  330

  100
AcDbEntity
  8
95 3W MP2A LH1E_R8-R17_DXF_RINGDESIGN_095 3W MPR02A LHS 01E EXST_SURVEYEXPORT_R8
  0
POLYLINE
  5
1BD
  330
121
  100
AcDbEntity
  8
95 3W MP2A LH1E_R8-R17_DXF_RINGDESIGN_095 3W MPR02A LHS 01E EXST_SURVEYEXPORT_R8
  62
7
  100
AcDb3dPolyline
  10
0
  20
0
  30
0
  70
8
  0
VERTEX
  5
1BE
  330

  100
AcDbEntity
  8
95 3W MP2A LH1E_R8-R17_DXF_RINGDESIGN_095 3W MPR02A LHS 01E EXST_SURVEYEXPORT_R8
  6
BYLAYER
  62
7
  100
AcDbVertex
  100
AcDb3dPolylineVertex
  10
7109.8363814887562
  20
-23233.539194947614
  30
-994.52754888913012
  70
32
  0
VERTEX
  5
1BF
  330

  100
AcDbEntity
  8
95 3W MP2A LH1E_R8-R17_DXF_RINGDESIGN_095 3W MPR02A LHS 01E EXST_SURVEYEXPORT_R8
  6
BYLAYER
  62
7
  100
AcDbVertex
  100
AcDb3dPolylineVertex
  10
7110.1706245337809
  20
-23239.421872540079
  30
-994.379185010081
  70
32
  0
SEQEND
  5
1C0
  330

  100
AcDbEntity
  8
95 3W MP2A LH1E_R8-R17_DXF_RINGDESIGN_095 3W MPR02A LHS 01E EXST_SURVEYEXPORT_R8
  0
POLYLINE
  5
1C1
  330
121
  100
AcDbEntity
  8
95 3W MP2A LH1E_R8-R17_DXF_RINGDESIGN_095 3W MPR02A LHS 01E EXST_SURVEYEXPORT_R8
  62
7
  100
AcDb3dPolyline
  10
0
  20
0
  30
0
  70
8
  0
VERTEX
  5
1C2
  330

  100
AcDbEntity
  8
95 3W MP2A LH1E_R8-R17_DXF_RINGDESIGN_095 3W MPR02A LHS 01E EXST_SURVEYEXPORT_R8
  6
BYLAYER
  62
7
  100
AcDbVertex
  100
AcDb3dPolylineVertex
  10
7109.8333332240754
  20
-23233.485545489213
  30
-995.68361169173943
  70
32
  0
VERTEX
  5
1C3
  330

  100
AcDbEntity
  8
95 3W MP2A LH1E_R8-R17_DXF_RINGDESIGN_095 3W MPR02A LHS 01E EXST_SURVEYEXPORT_R8
  6
BYLAYER
  62
7
  100
AcDbVertex
  100
AcDb3dPolylineVertex
  10
7110.1492826992244
  20
-23239.04625625187
  30
-997.01273972261833
  70
32
  0
SEQEND
  5
1C4
  330

  100
AcDbEntity
  8
95 3W MP2A LH1E_R8-R17_DXF_RINGDESIGN_095 3W MPR02A LHS 01E EXST_SURVEYEXPORT_R8
  0
POLYLINE
  5
1C5
  330
121
  100
AcDbEntity
  8
95 3W MP2A LH1E_R8-R17_DXF_RINGDESIGN_095 3W MPR02A LHS 01E EXST_SURVEYEXPORT_R8
  62
7
  100
AcDb3dPolyline
  10
0
  20
0
  30
0
  70
8
  0
VERTEX
  5
1C6
  330

  100
AcDbEntity
  8
95 3W MP2A LH1E_R8-R17_DXF_RINGDESIGN_095 3W MPR02A LHS 01E EXST_SURVEYEXPORT_R8
  6
BYLAYER
  62
7
  100
AcDbVertex
  100
AcDb3dPolylineVertex
  10
7109.8202603220316
  20
-23233.255462413261
  30
-996.641392441983
  70
32
  0
VERTEX
  5
1C7
  330

  100
AcDbEntity
  8
95 3W MP2A LH1E_R8-R17_DXF_RINGDESIGN_095 3W MPR02A LHS 01E EXST_SURVEYEXPORT_R8
  6
BYLAYER
  62
7
  100
AcDbVertex
  100
AcDb3dPolylineVertex
  10
7109.9513856878712
  20
-23235.563268852042
  30
-997.76518392619982
  70
32
  0
SEQEND
  5
1C8
  330

  100
AcDbEntity
  8
95 3W MP2A LH1E_R8-R17_DXF_RINGDESIGN_095 3W MPR02A LHS 01E EXST_SURVEYEXPORT_R8
  0
LWPOLYLINE
  5
1C9
  330
121
  100
AcDbEntity
  8
95 3W MP2A LH1E_R8-R17_DXF_RINGDESIGN_095 3W MPR02A LHS 01E EXST_SURVEYEXPORT
  62
7
  100
AcDbPolyline
  90
2
  43
0
  38
-994.40350000513058
  10
7107.0647035324446
  20
-23220.014435315559
  10
7108.1992373334133
  20
-23239.982230212703
  0
LWPOLYLINE
  5
1CA
  330
121
  100
AcDbEntity
  8
95 3W MP2A LH1E_R8-R17_DXF_RINGDESIGN_095 3W MPR02A LHS 01E EXST_SURVEYEXPORT
  62
1
  100
AcDbPolyline
  90
2
  43
0
  38
-994.40350000513058
  10
7104.1693732723588
  20
-23220.1789427167
  10
7105.3039070733275
  20
-23240.146737613843
  0
POLYLINE
  5
1CB
  330
121
  100
AcDbEntity
  8
95 3W MP2A LH1E_R8-R17_DXF_RINGDESIGN_095 3W MPR02A LHS 01E EXST_SURVEYEXPORT_R9
  62
7
  100
AcDb3dPolyline
  10
0
  20
0
  30
0
  70
8
  0
VERTEX
  5
1CC
  330

  100
AcDbEntity
  8
95 3W MP2A LH1E_R8-R17_DXF_RINGDESIGN_095 3W MPR02A LHS 01E EXST_SURVEYEXPORT_R9
  6
BYLAYER
  62
7
  100
AcDbVertex
  100
AcDb3dPolylineVertex
  10
7107.4807734972192
  20
-23227.337266695602
  30
-996.1850371534465
  70
32
  0
VERTEX
  5
1CD
  330

  100
AcDbEntity
  8
95 3W MP2A LH1E_R8-R17_DXF_RINGDESIGN_095 3W MPR02A LHS 01E EXST_SURVEYEXPORT_R9
  6
BYLAYER
  62
7
  100
AcDbVertex
  100
AcDb3dPolylineVertex
  10
7107.2547787214216
  20
-23223.359758641564
  30
-997.962038862683
  70
32
  0
SEQEND
  5
1CE
  330

  100
AcDbEntity
  8
95 3W MP2A LH1E_R8-R17_DXF_RINGDESIGN_095 3W MPR02A LHS 01E EXST_SURVEYEXPORT_R9
  0
POLYLINE
  5
1CF
  330
121
  100
AcDbEntity
  8
95 3W MP2A LH1E_R8-R17_DXF_RINGDESIGN_095 3W MPR02A LHS 01E EXST_SURVEYEXPORT_R9
  62
7
  100
AcDb3dPolyline
  10
0
  20
0
  30
0
  70
8
  0
VERTEX
  5
1D0
  330

  100
AcDbEntity
  8
95 3W MP2A LH1E_R8-R17_DXF_RINGDESIGN_095 3W MPR02A LHS 01E EXST_SURVEYEXPORT_R9
  6
BYLAYER
  62
7
  100
AcDbVertex
  100
AcDb3dPolylineVertex
  10
7107.4767352002173
  20
-23227.266192668376
  30
-995.58553632820986
  70
32
  0
VERTEX
  5
1D1
  330

  100
AcDbEntity
  8
95 3W MP2A LH1E_R8-R17_DXF_RINGDESIGN_095 3W MPR02A LHS 01E EXST_SURVEYEXPORT_R9
  6
BYLAYER
  62
7
  100
AcDbVertex
  100
AcDb3dPolylineVertex
  10
7106.9558378242718
  20
-23218.098398851707
  30
-997.56803171607987
  70
32
  0
SEQEND
  5
1D2
  330

  100
AcDbEntity
  8
95 3W MP2A LH1E_R8-R17_DXF_RINGDESIGN_095 3W MPR02A LHS 01E EXST_SURVEYEXPORT_R9
  0
POLYLINE
  5
1D3
  330
121
  100
AcDbEntity
  8
95 3W MP2A LH1E_R8-R17_DXF_RINGDESIGN_095 3W MPR02A LHS 01E EXST_SURVEYEXPORT_R9
  62
7
  100
AcDb3dPolyline
  10
0
  20
0
  30
0
  70
8
  0
VERTEX
  5
1D4
  330

  100
AcDbEntity
  8
95 3W MP2A LH1E_R8-R17_DXF_RINGDESIGN_095 3W MPR02A LHS 01E EXST_SURVEYEXPORT_R9
  6
BYLAYER
  62
7
  100
AcDbVertex
  100
AcDb3dPolylineVertex
  10
7107.4753561127181
  20
-23227.241920728404
  30
-995.37807948438081
  70
32
  0
VERTEX
  5
1D5
  330

  100
AcDbEntity
  8
95 3W MP2A LH1E_R8-R17_DXF_RINGDESIGN_095 3W MPR02A LHS 01E EXST_SURVEYEXPORT_R9
  6
BYLAYER
  62
7
  100
AcDbVertex
  100
AcDb3dPolylineVertex
  10
7106.6541030869621
  20
-23212.787867475021
  30
-997.71578439605651
  70
32
  0
SEQEND
  5
1D6
  330

  100
AcDbEntity
  8
95 3W MP2A LH1E_R8-R17_DXF_RINGDESIGN_095 3W MPR02A LHS 01E EXST_SURVEYEXPORT_R9
  0
POLYLINE
  5
1D7
  330
121
  100
AcDbEntity
  8
95 3W MP2A LH1E_R8-R17_DXF_RINGDESIGN_095 3W MPR02A LHS 01E EXST_SURVEYEXPORT_R9
  62
7
  100
AcDb3dPolyline
  10
0
  20
0
  30
0
  70
8
  0
VERTEX
  5
1D8
  330

  100
AcDbEntity
  8
95 3W MP2A LH1E_R8-R17_DXF_RINGDESIGN_095 3W MPR02A LHS 01E EXST_SURVEYEXPORT_R9
  6
BYLAYER
  62
7
  100
AcDbVertex
  100
AcDb3dPolylineVertex
  10
7107.472276989859
  20
-23227.187728166049
  30
-994.85924580476035
  70
32
  0
VERTEX
  5
1D9
  330

  100
AcDbEntity
  8
95 3W MP2A LH1E_R8-R17_DXF_RINGDESIGN_095 3W MPR02A LHS 01E EXST_SURVEYEXPORT_R9
  6
BYLAYER
  62
7
  100
AcDbVertex
  100
AcDb3dPolylineVertex
  10
7106.6457215664823
  20
-23212.640352714563
  30
-994.61297811655777
  70
32
  0
SEQEND
  5
1DA
  330

  100
AcDbEntity
  8
95 3W MP2A LH1E_R8-R17_DXF_RINGDESIGN_095 3W MPR02A LHS 01E EXST_SURVEYEXPORT_R9
  0
POLYLINE
  5
1DB
  330
121
  100
AcDbEntity
  8
95 3W MP2A LH1E_R8-R17_DXF_RINGDESIGN_095 3W MPR02A LHS 01E EXST_SURVEYEXPORT_R9
  62
7
  100
AcDb3dPolyline
  10
0
  20
0
  30
0
  70
8
  0
VERTEX
  5
1DC
  330

  100
AcDbEntity
  8
95 3W MP2A LH1E_R8-R17_DXF_RINGDESIGN_095 3W MPR02A LHS 01E EXST_SURVEYEXPORT_R9
  6
BYLAYER
  62
7
  100
AcDbVertex
  100
AcDb3dPolylineVertex
  10
7107.4693328162875
  20
-23227.135910711226
  30
-994.36315114552042
  70
32
  0
VERTEX
  5
1DD
  330

  100
AcDbEntity
  8
95 3W MP2A LH1E_R8-R17_DXF_RINGDESIGN_095 3W MPR02A LHS 01E EXST_SURVEYEXPORT_R9
  6
BYLAYER
  62
7
  100
AcDbVertex
  100
AcDb3dPolylineVertex
  10
7106.573081722313
  20
-23211.361891457214
  30
-991.1161646904568
  70
32
  0
SEQEND
  5
1DE
  330

  100
AcDbEntity
  8
95 3W MP2A LH1E_R8-R17_DXF_RINGDESIGN_095 3W MPR02A LHS 01E EXST_SURVEYEXPORT_R9
  0
POLYLINE
  5
1DF
  330
121
  100
AcDbEntity
  8
95 3W MP2A LH1E_R8-R17_DXF_RINGDESIGN_095 3W MPR02A LHS 01E EXST_SURVEYEXPORT_R9
  62
7
  100
AcDb3dPolyline
  10
0
  20
0
  30
0
  70
8
  0
VERTEX
  5
1E0
  330

  100
AcDbEntity
  8
95 3W MP2A LH1E_R8-R17_DXF_RINGDESIGN_095 3W MPR02A LHS 01E EXST_SURVEYEXPORT_R9
  6
BYLAYER
  62
7
  100
AcDbVertex
  100
AcDb3dPolylineVertex
  10
7107.464217087685
  20
-23227.04587388783
  30
-993.50114842127266
  70
32
  0
VERTEX
  5
1E1
  330

  100
AcDbEntity
  8
95 3W MP2A LH1E_R8-R17_DXF_RINGDESIGN_095 3W MPR02A LHS 01E EXST_SURVEYEXPORT_R9
  6
BYLAYER
  62
7
  100
AcDbVertex
  100
AcDb3dPolylineVertex
  10
7106.8943733407459
  20
-23217.016623941647
  30
-988.55511823753648
  70
32
  0
SEQEND
  5
1E2
  330

  100
AcDbEntity
  8
95 3W MP2A LH1E_R8-R17_DXF_RINGDESIGN_095 3W MPR02A LHS 01E EXST_SURVEYEXPORT_R9
  0
POLYLINE
  5
1E3
  330
121
  100
AcDbEntity
  8
95 3W MP2A LH1E_R8-R17_DXF_RINGDESIGN_095 3W MPR02A LHS 01E EXST_SURVEYEXPORT_R9
  62
7
  100
AcDb3dPolyline
  10
0
  20
0
  30
0
  70
8
  0
VERTEX
  5
1E4
  330

  100
AcDbEntity
  8
95 3W MP2A LH1E_R8-R17_DXF_RINGDESIGN_095 3W MPR02A LHS 01E EXST_SURVEYEXPORT_R9
  6
BYLAYER
  62
7
  100
AcDbVertex
  100
AcDb3dPolylineVertex
  10
7107.458026556892
  20
-23226.936920545868
  30
-992.45804101201247
  70
32
  0
VERTEX
  5
1E5
  330

  100
AcDbEntity
  8
95 3W MP2A LH1E_R8-R17_DXF_RINGDESIGN_095 3W MPR02A LHS 01E EXST_SURVEYEXPORT_R9
  6
BYLAYER
  62
7
  100
AcDbVertex
  100
AcDb3dPolylineVertex
  10
7106.9670131849134
  20
-23218.295085199
  30
-985.6493155313417
  70
32
  0
SEQEND
  5
1E6
  330

  100
AcDbEntity
  8
95 3W MP2A LH1E_R8-R17_DXF_RINGDESIGN_095 3W MPR02A LHS 01E EXST_SURVEYEXPORT_R9
  0
POLYLINE
  5
1E7
  330
121
  100
AcDbEntity
  8
95 3W MP2A LH1E_R8-R17_DXF_RINGDESIGN_095 3W MPR02A LHS 01E EXST_SURVEYEXPORT_R9
  62
7
  100
AcDb3dPolyline
  10
0
  20
0
  30
0
  70
8
  0
VERTEX
  5
1E8
  330

  100
AcDbEntity
  8
95 3W MP2A LH1E_R8-R17_DXF_RINGDESIGN_095 3W MPR02A LHS 01E EXST_SURVEYEXPORT_R9
  6
BYLAYER
  62
7
  100
AcDbVertex
  100
AcDb3dPolylineVertex
  10
7107.4825675011525
  20
-23227.368841164851
  30
-991.51200003248414
  70
32
  0
VERTEX
  5
1E9
  330

  100
AcDbEntity
  8
95 3W MP2A LH1E_R8-R17_DXF_RINGDESIGN_095 3W MPR02A LHS 01E EXST_SURVEYEXPORT_R9
  6
BYLAYER
  62
7
  100
AcDbVertex
  100
AcDb3dPolylineVertex
  10
7107.2883048033445
  20
-23223.949817683409
  30
-987.17609322442593
  70
32
  0
SEQEND
  5
1EA
  330

  100
AcDbEntity
  8
95 3W MP2A LH1E_R8-R17_DXF_RINGDESIGN_095 3W MPR02A LHS 01E EXST_SURVEYEXPORT_R9
  0
POLYLINE
  5
1EB
  330
121
  100
AcDbEntity
  8
95 3W MP2A LH1E_R8-R17_DXF_RINGDESIGN_095 3W MPR02A LHS 01E EXST_SURVEYEXPORT_R9
  62
7
  100
AcDb3dPolyline
  10
0
  20
0
  30
0
  70
8
  0
VERTEX
  5
1EC
  330

  100
AcDbEntity
  8
95 3W MP2A LH1E_R8-R17_DXF_RINGDESIGN_095 3W MPR02A LHS 01E EXST_SURVEYEXPORT_R9
  6
BYLAYER
  62
7
  100
AcDbVertex
  100
AcDb3dPolylineVertex
  10
7107.5419945683434
  20
-23228.414757547416
  30
-991.12218774416829
  70
32
  0
VERTEX
  5
1ED
  330

  100
AcDbEntity
  8
95 3W MP2A LH1E_R8-R17_DXF_RINGDESIGN_095 3W MPR02A LHS 01E EXST_SURVEYEXPORT_R9
  6
BYLAYER
  62
7
  100
AcDbVertex
  100
AcDb3dPolylineVertex
  10
7107.4726982539232
  20
-23227.195142413617
  30
-988.11186019760817
  70
32
  0
SEQEND
  5
1EE
  330

  100
AcDbEntity
  8
95 3W MP2A LH1E_R8-R17_DXF_RINGDESIGN_095 3W MPR02A LHS 01E EXST_SURVEYEXPORT_R9
  0
POLYLINE
  5
1EF
  330
121
  100
AcDbEntity
  8
95 3W MP2A LH1E_R8-R17_DXF_RINGDESIGN_095 3W MPR02A LHS 01E EXST_SURVEYEXPORT_R9
  62
7
  100
AcDb3dPolyline
  10
0
  20
0
  30
0
  70
8
  0
VERTEX
  5
1F0
  330

  100
AcDbEntity
  8
95 3W MP2A LH1E_R8-R17_DXF_RINGDESIGN_095 3W MPR02A LHS 01E EXST_SURVEYEXPORT_R9
  6
BYLAYER
  62
7
  100
AcDbVertex
  100
AcDb3dPolylineVertex
  10
7107.6375348233805
  20
-23230.096266036056
  30
-991.11117641222415
  70
32
  0
VERTEX
  5
1F1
  330

  100
AcDbEntity
  8
95 3W MP2A LH1E_R8-R17_DXF_RINGDESIGN_095 3W MPR02A LHS 01E EXST_SURVEYEXPORT_R9
  6
BYLAYER
  62
7
  100
AcDbVertex
  100
AcDb3dPolylineVertex
  10
7107.6375348233805
  20
-23230.096266036056
  30
-988.99837627746558
  70
32
  0
SEQEND
  5
1F2
  330

  100
AcDbEntity
  8
95 3W MP2A LH1E_R8-R17_DXF_RINGDESIGN_095 3W MPR02A LHS 01E EXST_SURVEYEXPORT_R9
  0
POLYLINE
  5
1F3
  330
121
  100
AcDbEntity
  8
95 3W MP2A LH1E_R8-R17_DXF_RINGDESIGN_095 3W MPR02A LHS 01E EXST_SURVEYEXPORT_R9
  62
7
  100
AcDb3dPolyline
  10
0
  20
0
  30
0
  70
8
  0
VERTEX
  5
1F4
  330

  100
AcDbEntity
  8
95 3W MP2A LH1E_R8-R17_DXF_RINGDESIGN_095 3W MPR02A LHS 01E EXST_SURVEYEXPORT_R9
  6
BYLAYER
  62
7
  100
AcDbVertex
  100
AcDb3dPolylineVertex
  10
7107.7482948386414
  20
-23232.045642304671
  30
-991.25618207380046
  70
32
  0
VERTEX
  5
1F5
  330

  100
AcDbEntity
  8
95 3W MP2A LH1E_R8-R17_DXF_RINGDESIGN_095 3W MPR02A LHS 01E EXST_SURVEYEXPORT_R9
  6
BYLAYER
  62
7
  100
AcDbVertex
  100
AcDb3dPolylineVertex
  10
7107.7967837125152
  20
-23232.899046484861
  30
-989.78639057067267
  70
32
  0
SEQEND
  5
1F6
  330

  100
AcDbEntity
  8
95 3W MP2A LH1E_R8-R17_DXF_RINGDESIGN_095 3W MPR02A LHS 01E EXST_SURVEYEXPORT_R9
  0
POLYLINE
  5
1F7
  330
121
  100
AcDbEntity
  8
95 3W MP2A LH1E_R8-R17_DXF_RINGDESIGN_095 3W MPR02A LHS 01E EXST_SURVEYEXPORT_R9
  62
7
  100
AcDb3dPolyline
  10
0
  20
0
  30
0
  70
8
  0
VERTEX
  5
1F8
  330

  100
AcDbEntity
  8
95 3W MP2A LH1E_R8-R17_DXF_RINGDESIGN_095 3W MPR02A LHS 01E EXST_SURVEYEXPORT_R9
  6
BYLAYER
  62
7
  100
AcDbVertex
  100
AcDb3dPolylineVertex
  10
7107.7856597052132
  20
-23232.703263956337
  30
-992.97167331681862
  70
32
  0
VERTEX
  5
1F9
  330

  100
AcDbEntity
  8
95 3W MP2A LH1E_R8-R17_DXF_RINGDESIGN_095 3W MPR02A LHS 01E EXST_SURVEYEXPORT_R9
  6
BYLAYER
  62
7
  100
AcDbVertex
  100
AcDb3dPolylineVertex
  10
7107.9839710032538
  20
-23236.193542801873
  30
-990.42665218390187
  70
32
  0
SEQEND
  5
1FA
  330

  100
AcDbEntity
  8
95 3W MP2A LH1E_R8-R17_DXF_RINGDESIGN_095 3W MPR02A LHS 01E EXST_SURVEYEXPORT_R9
  0
POLYLINE
  5
1FB
  330
121
  100
AcDbEntity
  8
95 3W MP2A LH1E_R8-R17_DXF_RINGDESIGN_095 3W MPR02A LHS 01E EXST_SURVEYEXPORT_R9
  62
7
  100
AcDb3dPolyline
  10
0
  20
0
  30
0
  70
8
  0
VERTEX
  5
1FC
  330

  100
AcDbEntity
  8
95 3W MP2A LH1E_R8-R17_DXF_RINGDESIGN_095 3W MPR02A LHS 01E EXST_SURVEYEXPORT_R9
  6
BYLAYER
  62
7
  100
AcDbVertex
  100
AcDb3dPolylineVertex
  10
7107.7918508292341
  20
-23232.812227739116
  30
-994.00849880673286
  70
32
  0
VERTEX
  5
1FD
  330

  100
AcDbEntity
  8
95 3W MP2A LH1E_R8-R17_DXF_RINGDESIGN_095 3W MPR02A LHS 01E EXST_SURVEYEXPORT_R9
  6
BYLAYER
  62
7
  100
AcDbVertex
  100
AcDb3dPolylineVertex
  10
7108.1376322120686
  20
-23238.897980077039
  30
-992.00268077031353
  70
32
  0
SEQEND
  5
1FE
  330

  100
AcDbEntity
  8
95 3W MP2A LH1E_R8-R17_DXF_RINGDESIGN_095 3W MPR02A LHS 01E EXST_SURVEYEXPORT_R9
  0
POLYLINE
  5
1FF
  330
121
  100
AcDbEntity
  8
95 3W MP2A LH1E_R8-R17_DXF_RINGDESIGN_095 3W MPR02A LHS 01E EXST_SURVEYEXPORT_R9
  62
7
  100
AcDb3dPolyline
  10
0
  20
0
  30
0
  70
8
  0
VERTEX
  5
200
  330

  100
AcDbEntity
  8
95 3W MP2A LH1E_R8-R17_DXF_RINGDESIGN_095 3W MPR02A LHS 01E EXST_SURVEYEXPORT_R9
  6
BYLAYER
  62
7
  100
AcDbVertex
  100
AcDb3dPolylineVertex
  10
7107.7975823236575
  20
-23232.913102040959
  30
-994.96835027999737
  70
32
  0
VERTEX
  5
201
  330

  100
AcDbEntity
  8
95 3W MP2A LH1E_R8-R17_DXF_RINGDESIGN_095 3W MPR02A LHS 01E EXST_SURVEYEXPORT_R9
  6
BYLAYER
  62
7
  100
AcDbVertex
  100
AcDb3dPolylineVertex
  10
7108.1823336546331
  20
-23239.684725466173
  30
-995.00698526316069
  70
32
  0
SEQEND
  5
202
  330

  100
AcDbEntity
  8
95 3W MP2A LH1E_R8-R17_DXF_RINGDESIGN_095 3W MPR02A LHS 01E EXST_SURVEYEXPORT_R9
  0
POLYLINE
  5
203
  330
121
  100
AcDbEntity
  8
95 3W MP2A LH1E_R8-R17_DXF_RINGDESIGN_095 3W MPR02A LHS 01E EXST_SURVEYEXPORT_R9
  62
7
  100
AcDb3dPolyline
  10
0
  20
0
  30
0
  70
8
  0
VERTEX
  5
204
  330

  100
AcDbEntity
  8
95 3W MP2A LH1E_R8-R17_DXF_RINGDESIGN_095 3W MPR02A LHS 01E EXST_SURVEYEXPORT_R9
  6
BYLAYER
  62
7
  100
AcDbVertex
  100
AcDb3dPolylineVertex
  10
7107.8115777927051
  20
-23233.159422296198
  30
-995.95827970683683
  70
32
  0
VERTEX
  5
205
  330

  100
AcDbEntity
  8
95 3W MP2A LH1E_R8-R17_DXF_RINGDESIGN_095 3W MPR02A LHS 01E EXST_SURVEYEXPORT_R9
  6
BYLAYER
  62
7
  100
AcDbVertex
  100
AcDb3dPolylineVertex
  10
7108.1460137325494
  20
-23239.045494837494
  30
-997.91278796935717
  70
32
  0
SEQEND
  5
206
  330

  100
AcDbEntity
  8
95 3W MP2A LH1E_R8-R17_DXF_RINGDESIGN_095 3W MPR02A LHS 01E EXST_SURVEYEXPORT_R9
  0
POLYLINE
  5
207
  330
121
  100
AcDbEntity
  8
95 3W MP2A LH1E_R8-R17_DXF_RINGDESIGN_095 3W MPR02A LHS 01E EXST_SURVEYEXPORT_R9
  62
7
  100
AcDb3dPolyline
  10
0
  20
0
  30
0
  70
8
  0
VERTEX
  5
208
  330

  100
AcDbEntity
  8
95 3W MP2A LH1E_R8-R17_DXF_RINGDESIGN_095 3W MPR02A LHS 01E EXST_SURVEYEXPORT_R9
  6
BYLAYER
  62
7
  100
AcDbVertex
  100
AcDb3dPolylineVertex
  10
7107.8283376719728
  20
-23233.454396171317
  30
-996.87272498678476
  70
32
  0
VERTEX
  5
209
  330

  100
AcDbEntity
  8
95 3W MP2A LH1E_R8-R17_DXF_RINGDESIGN_095 3W MPR02A LHS 01E EXST_SURVEYEXPORT_R9
  6
BYLAYER
  62
7
  100
AcDbVertex
  100
AcDb3dPolylineVertex
  10
7107.9364757205294
  20
-23235.357625825916
  30
-997.96203886268188
  70
32
  0
SEQEND
  5
20A
  330

  100
AcDbEntity
  8
95 3W MP2A LH1E_R8-R17_DXF_RINGDESIGN_095 3W MPR02A LHS 01E EXST_SURVEYEXPORT_R9
  0
LWPOLYLINE
  5
20B
  330
121
  100
AcDbEntity
  8
95 3W MP2A LH1E_R8-R17_DXF_RINGDESIGN_095 3W MPR02A LHS 01E EXST_SURVEYEXPORT
  62
7
  100
AcDbPolyline
  90
2
  43
0
  38
-994.40350000513058
  10
7103.8906540285534
  20
-23220.295200613193
  10
7106.4153071226756
  20
-23240.135213888247
  0
LWPOLYLINE
  5
20C
  330
121
  100
AcDbEntity
  8
95 3W MP2A LH1E_R8-R17_DXF_RINGDESIGN_095 3W MPR02A LHS 01E EXST_SURVEYEXPORT
  62
1
  100
AcDbPolyline
  90
2
  43
0
  38
-994.40350000513058
  10
7101.0138521036706
  20
-23220.661275311839
  10
7103.5385051977928
  20
-23240.501288586893
  0
POLYLINE
  5
20D
  330
121
  100
AcDbEntity
  8
95 3W MP2A LH1E_R8-R17_DXF_RINGDESIGN_095 3W MPR02A LHS 01E EXST_SURVEYEXPORT_R10
  62
7
  100
AcDb3dPolyline
  10
0
  20
0
  30
0
  70
8
  0
VERTEX
  5
20E
  330

  100
AcDbEntity
  8
95 3W MP2A LH1E_R8-R17_DXF_RINGDESIGN_095 3W MPR02A LHS 01E EXST_SURVEYEXPORT_R10
  6
BYLAYER
  62
7
  100
AcDbVertex
  100
AcDb3dPolylineVertex
  10
7104.9023523494216
  20
-23228.245642661303
  30
-991.03402719482472
  70
32
  0
VERTEX
  5
20F
  330

  100
AcDbEntity
  8
95 3W MP2A LH1E_R8-R17_DXF_RINGDESIGN_095 3W MPR02A LHS 01E EXST_SURVEYEXPORT_R10
  6
BYLAYER
  62
7
  100
AcDbVertex
  100
AcDb3dPolylineVertex
  10
7104.852391677482
  20
-23227.853026187851
  30
-988.08922247882913
  70
32
  0
SEQEND
  5
210
  330

  100
AcDbEntity
  8
95 3W MP2A LH1E_R8-R17_DXF_RINGDESIGN_095 3W MPR02A LHS 01E EXST_SURVEYEXPORT_R10
  0
POLYLINE
  5
211
  330
121
  100
AcDbEntity
  8
95 3W MP2A LH1E_R8-R17_DXF_RINGDESIGN_095 3W MPR02A LHS 01E EXST_SURVEYEXPORT_R10
  62
7
  100
AcDb3dPolyline
  10
0
  20
0
  30
0
  70
8
  0
VERTEX
  5
212
  330

  100
AcDbEntity
  8
95 3W MP2A LH1E_R8-R17_DXF_RINGDESIGN_095 3W MPR02A LHS 01E EXST_SURVEYEXPORT_R10
  6
BYLAYER
  62
7
  100
AcDbVertex
  100
AcDb3dPolylineVertex
  10
7105.1761769597806
  20
-23230.397496283174
  30
-991.08354547152317
  70
32
  0
VERTEX
  5
213
  330

  100
AcDbEntity
  8
95 3W MP2A LH1E_R8-R17_DXF_RINGDESIGN_095 3W MPR02A LHS 01E EXST_SURVEYEXPORT_R10
  6
BYLAYER
  62
7
  100
AcDbVertex
  100
AcDb3dPolylineVertex
  10
7105.1862269171143
  20
-23230.4764739801
  30
-988.77226807503962
  70
32
  0
SEQEND
  5
214
  330

  100
AcDbEntity
  8
95 3W MP2A LH1E_R8-R17_DXF_RINGDESIGN_095 3W MPR02A LHS 01E EXST_SURVEYEXPORT_R10
  0
POLYLINE
  5
215
  330
121
  100
AcDbEntity
  8
95 3W MP2A LH1E_R8-R17_DXF_RINGDESIGN_095 3W MPR02A LHS 01E EXST_SURVEYEXPORT_R10
  62
7
  100
AcDb3dPolyline
  10
0
  20
0
  30
0
  70
8
  0
VERTEX
  5
216
  330

  100
AcDbEntity
  8
95 3W MP2A LH1E_R8-R17_DXF_RINGDESIGN_095 3W MPR02A LHS 01E EXST_SURVEYEXPORT_R10
  6
BYLAYER
  62
7
  100
AcDbVertex
  100
AcDb3dPolylineVertex
  10
7105.4740972479931
  20
-23232.738706046526
  30
-991.108870198124
  70
32
  0
VERTEX
  5
217
  330

  100
AcDbEntity
  8
95 3W MP2A LH1E_R8-R17_DXF_RINGDESIGN_095 3W MPR02A LHS 01E EXST_SURVEYEXPORT_R10
  6
BYLAYER
  62
7
  100
AcDbVertex
  100
AcDb3dPolylineVertex
  10
7105.5385156149378
  20
-23233.244938470423
  30
-989.42543144620527
  70
32
  0
SEQEND
  5
218
  330

  100
AcDbEntity
  8
95 3W MP2A LH1E_R8-R17_DXF_RINGDESIGN_095 3W MPR02A LHS 01E EXST_SURVEYEXPORT_R10
  0
POLYLINE
  5
219
  330
121
  100
AcDbEntity
  8
95 3W MP2A LH1E_R8-R17_DXF_RINGDESIGN_095 3W MPR02A LHS 01E EXST_SURVEYEXPORT_R10
  62
7
  100
AcDb3dPolyline
  10
0
  20
0
  30
0
  70
8
  0
VERTEX
  5
21A
  330

  100
AcDbEntity
  8
95 3W MP2A LH1E_R8-R17_DXF_RINGDESIGN_095 3W MPR02A LHS 01E EXST_SURVEYEXPORT_R10
  6
BYLAYER
  62
7
  100
AcDbVertex
  100
AcDb3dPolylineVertex
  10
7105.6079841334731
  20
-23233.79085756448
  30
-992.63684588771207
  70
32
  0
VERTEX
  5
21B
  330

  100
AcDbEntity
  8
95 3W MP2A LH1E_R8-R17_DXF_RINGDESIGN_095 3W MPR02A LHS 01E EXST_SURVEYEXPORT_R10
  6
BYLAYER
  62
7
  100
AcDbVertex
  100
AcDb3dPolylineVertex
  10
7105.9232848309985
  20
-23236.268651459846
  30
-990.45465857652687
  70
32
  0
SEQEND
  5
21C
  330

  100
AcDbEntity
  8
95 3W MP2A LH1E_R8-R17_DXF_RINGDESIGN_095 3W MPR02A LHS 01E EXST_SURVEYEXPORT_R10
  0
POLYLINE
  5
21D
  330
121
  100
AcDbEntity
  8
95 3W MP2A LH1E_R8-R17_DXF_RINGDESIGN_095 3W MPR02A LHS 01E EXST_SURVEYEXPORT_R10
  62
7
  100
AcDb3dPolyline
  10
0
  20
0
  30
0
  70
8
  0
VERTEX
  5
21E
  330

  100
AcDbEntity
  8
95 3W MP2A LH1E_R8-R17_DXF_RINGDESIGN_095 3W MPR02A LHS 01E EXST_SURVEYEXPORT_R10
  6
BYLAYER
  62
7
  100
AcDbVertex
  100
AcDb3dPolylineVertex
  10
7105.6398777616014
  20
-23234.041493981382
  30
-993.36194794357539
  70
32
  0
VERTEX
  5
21F
  330

  100
AcDbEntity
  8
95 3W MP2A LH1E_R8-R17_DXF_RINGDESIGN_095 3W MPR02A LHS 01E EXST_SURVEYEXPORT_R10
  6
BYLAYER
  62
7
  100
AcDbVertex
  100
AcDb3dPolylineVertex
  10
7106.2680780246128
  20
-23238.978212450376
  30
-991.85994946600158
  70
32
  0
SEQEND
  5
220
  330

  100
AcDbEntity
  8
95 3W MP2A LH1E_R8-R17_DXF_RINGDESIGN_095 3W MPR02A LHS 01E EXST_SURVEYEXPORT_R10
  0
POLYLINE
  5
221
  330
121
  100
AcDbEntity
  8
95 3W MP2A LH1E_R8-R17_DXF_RINGDESIGN_095 3W MPR02A LHS 01E EXST_SURVEYEXPORT_R10
  62
7
  100
AcDb3dPolyline
  10
0
  20
0
  30
0
  70
8
  0
VERTEX
  5
222
  330

  100
AcDbEntity
  8
95 3W MP2A LH1E_R8-R17_DXF_RINGDESIGN_095 3W MPR02A LHS 01E EXST_SURVEYEXPORT_R10
  6
BYLAYER
  62
7
  100
AcDbVertex
  100
AcDb3dPolylineVertex
  10
7105.7248666601554
  20
-23234.709380147404
  30
-994.44360665254032
  70
32
  0
VERTEX
  5
223
  330

  100
AcDbEntity
  8
95 3W MP2A LH1E_R8-R17_DXF_RINGDESIGN_095 3W MPR02A LHS 01E EXST_SURVEYEXPORT_R10
  6
BYLAYER
  62
7
  100
AcDbVertex
  100
AcDb3dPolylineVertex
  10
7106.3180480526717
  20
-23239.370902449
  30
-994.41322446237336
  70
32
  0
SEQEND
  5
224
  330

  100
AcDbEntity
  8
95 3W MP2A LH1E_R8-R17_DXF_RINGDESIGN_095 3W MPR02A LHS 01E EXST_SURVEYEXPORT_R10
  0
POLYLINE
  5
225
  330
121
  100
AcDbEntity
  8
95 3W MP2A LH1E_R8-R17_DXF_RINGDESIGN_095 3W MPR02A LHS 01E EXST_SURVEYEXPORT_R10
  62
7
  100
AcDb3dPolyline
  10
0
  20
0
  30
0
  70
8
  0
VERTEX
  5
226
  330

  100
AcDbEntity
  8
95 3W MP2A LH1E_R8-R17_DXF_RINGDESIGN_095 3W MPR02A LHS 01E EXST_SURVEYEXPORT_R10
  6
BYLAYER
  62
7
  100
AcDbVertex
  100
AcDb3dPolylineVertex
  10
7105.7348363554165
  20
-23234.787727103969
  30
-995.25806542478824
  70
32
  0
VERTEX
  5
227
  330

  100
AcDbEntity
  8
95 3W MP2A LH1E_R8-R17_DXF_RINGDESIGN_095 3W MPR02A LHS 01E EXST_SURVEYEXPORT_R10
  6
BYLAYER
  62
7
  100
AcDbVertex
  100
AcDb3dPolylineVertex
  10
7106.3305405596875
  20
-23239.469074948654
  30
-996.01644364614185
  70
32
  0
SEQEND
  5
228
  330

  100
AcDbEntity
  8
95 3W MP2A LH1E_R8-R17_DXF_RINGDESIGN_095 3W MPR02A LHS 01E EXST_SURVEYEXPORT_R10
  0
POLYLINE
  5
229
  330
121
  100
AcDbEntity
  8
95 3W MP2A LH1E_R8-R17_DXF_RINGDESIGN_095 3W MPR02A LHS 01E EXST_SURVEYEXPORT_R10
  62
7
  100
AcDb3dPolyline
  10
0
  20
0
  30
0
  70
8
  0
VERTEX
  5
22A
  330

  100
AcDbEntity
  8
95 3W MP2A LH1E_R8-R17_DXF_RINGDESIGN_095 3W MPR02A LHS 01E EXST_SURVEYEXPORT_R10
  6
BYLAYER
  62
7
  100
AcDbVertex
  100
AcDb3dPolylineVertex
  10
7105.7424742447893
  20
-23234.847749539094
  30
-995.98178803120948
  70
32
  0
VERTEX
  5
22B
  330

  100
AcDbEntity
  8
95 3W MP2A LH1E_R8-R17_DXF_RINGDESIGN_095 3W MPR02A LHS 01E EXST_SURVEYEXPORT_R10
  6
BYLAYER
  62
7
  100
AcDbVertex
  100
AcDb3dPolylineVertex
  10
7105.9307803352076
  20
-23236.32755495964
  30
-996.45188589358429
  70
32
  0
SEQEND
  5
22C
  330

  100
AcDbEntity
  8
95 3W MP2A LH1E_R8-R17_DXF_RINGDESIGN_095 3W MPR02A LHS 01E EXST_SURVEYEXPORT_R10
  0
LWPOLYLINE
  5
22D
  330
121
  100
AcDbEntity
  8
95 3W MP2A LH1E_R8-R17_DXF_RINGDESIGN_095 3W MPR02A LHS 01E EXST_SURVEYEXPORT
  62
7
  100
AcDbPolyline
  90
2
  43
0
  38
-994.40350000513058
  10
7100.6733091332826
  20
-23221.399141527007
  10
7105.0049172369254
  20
-23240.924437203037
  0
LWPOLYLINE
  5
22E
  330
121
  100
AcDbEntity
  8
95 3W MP2A LH1E_R8-R17_DXF_RINGDESIGN_095 3W MPR02A LHS 01E EXST_SURVEYEXPORT
  62
1
  100
AcDbPolyline
  90
2
  43
0
  38
-994.40350000513058
  10
7097.8421412602584
  20
-23222.027224702033
  10
7102.1737493639012
  20
-23241.552520378063
  0
POLYLINE
  5
22F
  330
121
  100
AcDbEntity
  8
95 3W MP2A LH1E_R8-R17_DXF_RINGDESIGN_095 3W MPR02A LHS 01E EXST_SURVEYEXPORT_R11
  62
7
  100
AcDb3dPolyline
  10
0
  20
0
  30
0
  70
8
  0
VERTEX
  5
230
  330

  100
AcDbEntity
  8
95 3W MP2A LH1E_R8-R17_DXF_RINGDESIGN_095 3W MPR02A LHS 01E EXST_SURVEYEXPORT_R11
  6
BYLAYER
  62
7
  100
AcDbVertex
  100
AcDb3dPolylineVertex
  10
7102.3737639420406
  20
-23229.064166185351
  30
-991.01766807485751
  70
32
  0
VERTEX
  5
231
  330

  100
AcDbEntity
  8
95 3W MP2A LH1E_R8-R17_DXF_RINGDESIGN_095 3W MPR02A LHS 01E EXST_SURVEYEXPORT_R11
  6
BYLAYER
  62
7
  100
AcDbVertex
  100
AcDb3dPolylineVertex
  10
7102.26242086637
  20
-23228.5622725648
  30
-988.60992194902076
  70
32
  0
SEQEND
  5
232
  330

  100
AcDbEntity
  8
95 3W MP2A LH1E_R8-R17_DXF_RINGDESIGN_095 3W MPR02A LHS 01E EXST_SURVEYEXPORT_R11
  0
POLYLINE
  5
233
  330
121
  100
AcDbEntity
  8
95 3W MP2A LH1E_R8-R17_DXF_RINGDESIGN_095 3W MPR02A LHS 01E EXST_SURVEYEXPORT_R11
  62
7
  100
AcDb3dPolyline
  10
0
  20
0
  30
0
  70
8
  0
VERTEX
  5
234
  330

  100
AcDbEntity
  8
95 3W MP2A LH1E_R8-R17_DXF_RINGDESIGN_095 3W MPR02A LHS 01E EXST_SURVEYEXPORT_R11
  6
BYLAYER
  62
7
  100
AcDbVertex
  100
AcDb3dPolylineVertex
  10
7102.8327474555726
  20
-23231.133094998328
  30
-991.0498300533086
  70
32
  0
VERTEX
  5
235
  330

  100
AcDbEntity
  8
95 3W MP2A LH1E_R8-R17_DXF_RINGDESIGN_095 3W MPR02A LHS 01E EXST_SURVEYEXPORT_R11
  6
BYLAYER
  62
7
  100
AcDbVertex
  100
AcDb3dPolylineVertex
  10
7102.8339860687011
  20
-23231.138678210609
  30
-988.84358729644885
  70
32
  0
SEQEND
  5
236
  330

  100
AcDbEntity
  8
95 3W MP2A LH1E_R8-R17_DXF_RINGDESIGN_095 3W MPR02A LHS 01E EXST_SURVEYEXPORT_R11
  0
POLYLINE
  5
237
  330
121
  100
AcDbEntity
  8
95 3W MP2A LH1E_R8-R17_DXF_RINGDESIGN_095 3W MPR02A LHS 01E EXST_SURVEYEXPORT_R11
  62
7
  100
AcDb3dPolyline
  10
0
  20
0
  30
0
  70
8
  0
VERTEX
  5
238
  330

  100
AcDbEntity
  8
95 3W MP2A LH1E_R8-R17_DXF_RINGDESIGN_095 3W MPR02A LHS 01E EXST_SURVEYEXPORT_R11
  6
BYLAYER
  62
7
  100
AcDbVertex
  100
AcDb3dPolylineVertex
  10
7103.235740470056
  20
-23232.949639241226
  30
-991.04498894618155
  70
32
  0
VERTEX
  5
239
  330

  100
AcDbEntity
  8
95 3W MP2A LH1E_R8-R17_DXF_RINGDESIGN_095 3W MPR02A LHS 01E EXST_SURVEYEXPORT_R11
  6
BYLAYER
  62
7
  100
AcDbVertex
  100
AcDb3dPolylineVertex
  10
7103.4412740961779
  20
-23233.876109209279
  30
-989.43462317523961
  70
32
  0
SEQEND
  5
23A
  330

  100
AcDbEntity
  8
95 3W MP2A LH1E_R8-R17_DXF_RINGDESIGN_095 3W MPR02A LHS 01E EXST_SURVEYEXPORT_R11
  0
POLYLINE
  5
23B
  330
121
  100
AcDbEntity
  8
95 3W MP2A LH1E_R8-R17_DXF_RINGDESIGN_095 3W MPR02A LHS 01E EXST_SURVEYEXPORT_R11
  62
7
  100
AcDb3dPolyline
  10
0
  20
0
  30
0
  70
8
  0
VERTEX
  5
23C
  330

  100
AcDbEntity
  8
95 3W MP2A LH1E_R8-R17_DXF_RINGDESIGN_095 3W MPR02A LHS 01E EXST_SURVEYEXPORT_R11
  6
BYLAYER
  62
7
  100
AcDbVertex
  100
AcDb3dPolylineVertex
  10
7103.4040761393117
  20
-23233.708434505341
  30
-992.46878548347365
  70
32
  0
VERTEX
  5
23D
  330

  100
AcDbEntity
  8
95 3W MP2A LH1E_R8-R17_DXF_RINGDESIGN_095 3W MPR02A LHS 01E EXST_SURVEYEXPORT_R11
  6
BYLAYER
  62
7
  100
AcDbVertex
  100
AcDb3dPolylineVertex
  10
7104.0307007110823
  20
-23236.533027531517
  30
-990.64418497369331
  70
32
  0
SEQEND
  5
23E
  330

  100
AcDbEntity
  8
95 3W MP2A LH1E_R8-R17_DXF_RINGDESIGN_095 3W MPR02A LHS 01E EXST_SURVEYEXPORT_R11
  0
POLYLINE
  5
23F
  330
121
  100
AcDbEntity
  8
95 3W MP2A LH1E_R8-R17_DXF_RINGDESIGN_095 3W MPR02A LHS 01E EXST_SURVEYEXPORT_R11
  62
7
  100
AcDb3dPolyline
  10
0
  20
0
  30
0
  70
8
  0
VERTEX
  5
240
  330

  100
AcDbEntity
  8
95 3W MP2A LH1E_R8-R17_DXF_RINGDESIGN_095 3W MPR02A LHS 01E EXST_SURVEYEXPORT_R11
  6
BYLAYER
  62
7
  100
AcDbVertex
  100
AcDb3dPolylineVertex
  10
7103.44033355189
  20
-23233.871869581661
  30
-992.98269081374394
  70
32
  0
VERTEX
  5
241
  330

  100
AcDbEntity
  8
95 3W MP2A LH1E_R8-R17_DXF_RINGDESIGN_095 3W MPR02A LHS 01E EXST_SURVEYEXPORT_R11
  6
BYLAYER
  62
7
  100
AcDbVertex
  100
AcDb3dPolylineVertex
  10
7104.3105295080586
  20
-23237.794392795615
  30
-991.34518101597746
  70
32
  0
SEQEND
  5
242
  330

  100
AcDbEntity
  8
95 3W MP2A LH1E_R8-R17_DXF_RINGDESIGN_095 3W MPR02A LHS 01E EXST_SURVEYEXPORT_R11
  0
POLYLINE
  5
243
  330
121
  100
AcDbEntity
  8
95 3W MP2A LH1E_R8-R17_DXF_RINGDESIGN_095 3W MPR02A LHS 01E EXST_SURVEYEXPORT_R11
  62
7
  100
AcDb3dPolyline
  10
0
  20
0
  30
0
  70
8
  0
VERTEX
  5
244
  330

  100
AcDbEntity
  8
95 3W MP2A LH1E_R8-R17_DXF_RINGDESIGN_095 3W MPR02A LHS 01E EXST_SURVEYEXPORT_R11
  6
BYLAYER
  62
7
  100
AcDbVertex
  100
AcDb3dPolylineVertex
  10
7103.8108307558359
  20
-23235.541934666289
  30
-994.28267793452517
  70
32
  0
VERTEX
  5
245
  330

  100
AcDbEntity
  8
95 3W MP2A LH1E_R8-R17_DXF_RINGDESIGN_095 3W MPR02A LHS 01E EXST_SURVEYEXPORT_R11
  6
BYLAYER
  62
7
  100
AcDbVertex
  100
AcDb3dPolylineVertex
  10
7104.1378691865211
  20
-23237.016103590111
  30
-994.32785045080118
  70
32
  0
SEQEND
  5
246
  330

  100
AcDbEntity
  8
95 3W MP2A LH1E_R8-R17_DXF_RINGDESIGN_095 3W MPR02A LHS 01E EXST_SURVEYEXPORT_R11
  0
POLYLINE
  5
247
  330
121
  100
AcDbEntity
  8
95 3W MP2A LH1E_R8-R17_DXF_RINGDESIGN_095 3W MPR02A LHS 01E EXST_SURVEYEXPORT_R11
  62
7
  100
AcDb3dPolyline
  10
0
  20
0
  30
0
  70
8
  0
VERTEX
  5
248
  330

  100
AcDbEntity
  8
95 3W MP2A LH1E_R8-R17_DXF_RINGDESIGN_095 3W MPR02A LHS 01E EXST_SURVEYEXPORT_R11
  6
BYLAYER
  62
7
  100
AcDbVertex
  100
AcDb3dPolylineVertex
  10
7103.8065674100262
  20
-23235.522717071926
  30
-995.31285006440567
  70
32
  0
VERTEX
  5
249
  330

  100
AcDbEntity
  8
95 3W MP2A LH1E_R8-R17_DXF_RINGDESIGN_095 3W MPR02A LHS 01E EXST_SURVEYEXPORT_R11
  6
BYLAYER
  62
7
  100
AcDbVertex
  100
AcDb3dPolylineVertex
  10
7104.0905007203755
  20
-23236.802583972207
  30
-995.65924811040793
  70
32
  0
SEQEND
  5
24A
  330

  100
AcDbEntity
  8
95 3W MP2A LH1E_R8-R17_DXF_RINGDESIGN_095 3W MPR02A LHS 01E EXST_SURVEYEXPORT_R11
  0
LWPOLYLINE
  5
24B
  330
121
  100
AcDbEntity
  8
95 3W MP2A LH1E_R8-R17_DXF_RINGDESIGN_095 3W MPR02A LHS 01E EXST_SURVEYEXPORT
  62
7
  100
AcDbPolyline
  90
2
  43
0
  38
-994.450166433491
  10
7095.3018992398947
  20
-23223.904625742816
  10
7090.1255183378444
  20
-23243.223142268598
  0
LWPOLYLINE
  5
24C
  330
121
  100
AcDbEntity
  8
95 3W MP2A LH1E_R8-R17_DXF_RINGDESIGN_095 3W MPR02A LHS 01E EXST_SURVEYEXPORT
  62
1
  100
AcDbPolyline
  90
2
  43
0
  38
-994.450166433491
  10
7092.500714343656
  20
-23223.154050512017
  10
7087.3243334416056
  20
-23242.4725670378
  0
POLYLINE
  5
24D
  330
121
  100
AcDbEntity
  8
95 3W MP2A LH1E_R8-R17_DXF_RINGDESIGN_095 3W MPR02A LHS 01E EXST_SURVEYEXPORT_R012
  62
7
  100
AcDb3dPolyline
  10
0
  20
0
  30
0
  70
8
  0
VERTEX
  5
24E
  330

  100
AcDbEntity
  8
95 3W MP2A LH1E_R8-R17_DXF_RINGDESIGN_095 3W MPR02A LHS 01E EXST_SURVEYEXPORT_R012
  6
BYLAYER
  62
7
  100
AcDbVertex
  100
AcDb3dPolylineVertex
  10
7093.3091478407205
  20
-23231.341675211388
  30
-995.69823232195063
  70
32
  0
VERTEX
  5
24F
  330

  100
AcDbEntity
  8
95 3W MP2A LH1E_R8-R17_DXF_RINGDESIGN_095 3W MPR02A LHS 01E EXST_SURVEYEXPORT_R012
  6
BYLAYER
  62
7
  100
AcDbVertex
  100
AcDb3dPolylineVertex
  10
7094.0461157232057
  20
-23228.591273630409
  30
-996.83551755228348
  70
32
  0
SEQEND
  5
250
  330

  100
AcDbEntity
  8
95 3W MP2A LH1E_R8-R17_DXF_RINGDESIGN_095 3W MPR02A LHS 01E EXST_SURVEYEXPORT_R012
  0
POLYLINE
  5
251
  330
121
  100
AcDbEntity
  8
95 3W MP2A LH1E_R8-R17_DXF_RINGDESIGN_095 3W MPR02A LHS 01E EXST_SURVEYEXPORT_R012
  62
7
  100
AcDb3dPolyline
  10
0
  20
0
  30
0
  70
8
  0
VERTEX
  5
252
  330

  100
AcDbEntity
  8
95 3W MP2A LH1E_R8-R17_DXF_RINGDESIGN_095 3W MPR02A LHS 01E EXST_SURVEYEXPORT_R012
  6
BYLAYER
  62
7
  100
AcDbVertex
  100
AcDb3dPolylineVertex
  10
7093.3155904770647
  20
-23231.317630965212
  30
-995.19745581158872
  70
32
  0
VERTEX
  5
253
  330

  100
AcDbEntity
  8
95 3W MP2A LH1E_R8-R17_DXF_RINGDESIGN_095 3W MPR02A LHS 01E EXST_SURVEYEXPORT_R012
  6
BYLAYER
  62
7
  100
AcDbVertex
  100
AcDb3dPolylineVertex
  10
7094.7735478154154
  20
-23225.876460103224
  30
-996.71676057570789
  70
32
  0
SEQEND
  5
254
  330

  100
AcDbEntity
  8
95 3W MP2A LH1E_R8-R17_DXF_RINGDESIGN_095 3W MPR02A LHS 01E EXST_SURVEYEXPORT_R012
  0
POLYLINE
  5
255
  330
121
  100
AcDbEntity
  8
95 3W MP2A LH1E_R8-R17_DXF_RINGDESIGN_095 3W MPR02A LHS 01E EXST_SURVEYEXPORT_R012
  62
7
  100
AcDb3dPolyline
  10
0
  20
0
  30
0
  70
8
  0
VERTEX
  5
256
  330

  100
AcDbEntity
  8
95 3W MP2A LH1E_R8-R17_DXF_RINGDESIGN_095 3W MPR02A LHS 01E EXST_SURVEYEXPORT_R012
  6
BYLAYER
  62
7
  100
AcDbVertex
  100
AcDb3dPolylineVertex
  10
7093.3167930503532
  20
-23231.3131429006
  30
-994.25615908397344
  70
32
  0
VERTEX
  5
257
  330

  100
AcDbEntity
  8
95 3W MP2A LH1E_R8-R17_DXF_RINGDESIGN_095 3W MPR02A LHS 01E EXST_SURVEYEXPORT_R012
  6
BYLAYER
  62
7
  100
AcDbVertex
  100
AcDb3dPolylineVertex
  10
7094.696706397227
  20
-23226.163236180029
  30
-994.38120670305773
  70
32
  0
SEQEND
  5
258
  330

  100
AcDbEntity
  8
95 3W MP2A LH1E_R8-R17_DXF_RINGDESIGN_095 3W MPR02A LHS 01E EXST_SURVEYEXPORT_R012
  0
POLYLINE
  5
259
  330
121
  100
AcDbEntity
  8
95 3W MP2A LH1E_R8-R17_DXF_RINGDESIGN_095 3W MPR02A LHS 01E EXST_SURVEYEXPORT_R012
  62
7
  100
AcDb3dPolyline
  10
0
  20
0
  30
0
  70
8
  0
VERTEX
  5
25A
  330

  100
AcDbEntity
  8
95 3W MP2A LH1E_R8-R17_DXF_RINGDESIGN_095 3W MPR02A LHS 01E EXST_SURVEYEXPORT_R012
  6
BYLAYER
  62
7
  100
AcDbVertex
  100
AcDb3dPolylineVertex
  10
7093.2768375724027
  20
-23231.462258774358
  30
-993.368968784787
  70
32
  0
VERTEX
  5
25B
  330

  100
AcDbEntity
  8
95 3W MP2A LH1E_R8-R17_DXF_RINGDESIGN_095 3W MPR02A LHS 01E EXST_SURVEYEXPORT_R012
  6
BYLAYER
  62
7
  100
AcDbVertex
  100
AcDb3dPolylineVertex
  10
7094.7376884869282
  20
-23226.010288939066
  30
-992.08523848926575
  70
32
  0
SEQEND
  5
25C
  330

  100
AcDbEntity
  8
95 3W MP2A LH1E_R8-R17_DXF_RINGDESIGN_095 3W MPR02A LHS 01E EXST_SURVEYEXPORT_R012
  0
POLYLINE
  5
25D
  330
121
  100
AcDbEntity
  8
95 3W MP2A LH1E_R8-R17_DXF_RINGDESIGN_095 3W MPR02A LHS 01E EXST_SURVEYEXPORT_R012
  62
7
  100
AcDb3dPolyline
  10
0
  20
0
  30
0
  70
8
  0
VERTEX
  5
25E
  330

  100
AcDbEntity
  8
95 3W MP2A LH1E_R8-R17_DXF_RINGDESIGN_095 3W MPR02A LHS 01E EXST_SURVEYEXPORT_R012
  6
BYLAYER
  62
7
  100
AcDbVertex
  100
AcDb3dPolylineVertex
  10
7093.2394167321727
  20
-23231.601915251358
  30
-991.95347102603307
  70
32
  0
VERTEX
  5
25F
  330

  100
AcDbEntity
  8
95 3W MP2A LH1E_R8-R17_DXF_RINGDESIGN_095 3W MPR02A LHS 01E EXST_SURVEYEXPORT_R012
  6
BYLAYER
  62
7
  100
AcDbVertex
  100
AcDb3dPolylineVertex
  10
7094.5430235608437
  20
-23226.736788333663
  30
-988.79962880401183
  70
32
  0
SEQEND
  5
260
  330

  100
AcDbEntity
  8
95 3W MP2A LH1E_R8-R17_DXF_RINGDESIGN_095 3W MPR02A LHS 01E EXST_SURVEYEXPORT_R012
  0
POLYLINE
  5
261
  330
121
  100
AcDbEntity
  8
95 3W MP2A LH1E_R8-R17_DXF_RINGDESIGN_095 3W MPR02A LHS 01E EXST_SURVEYEXPORT_R012
  62
7
  100
AcDb3dPolyline
  10
0
  20
0
  30
0
  70
8
  0
VERTEX
  5
262
  330

  100
AcDbEntity
  8
95 3W MP2A LH1E_R8-R17_DXF_RINGDESIGN_095 3W MPR02A LHS 01E EXST_SURVEYEXPORT_R012
  6
BYLAYER
  62
7
  100
AcDbVertex
  100
AcDb3dPolylineVertex
  10
7093.0700972734521
  20
-23232.233824074006
  30
-991.11213599741984
  70
32
  0
VERTEX
  5
263
  330

  100
AcDbEntity
  8
95 3W MP2A LH1E_R8-R17_DXF_RINGDESIGN_095 3W MPR02A LHS 01E EXST_SURVEYEXPORT_R012
  6
BYLAYER
  62
7
  100
AcDbVertex
  100
AcDb3dPolylineVertex
  10
7093.4160160940382
  20
-23230.942837460287
  30
-989.76947744604365
  70
32
  0
SEQEND
  5
264
  330

  100
AcDbEntity
  8
95 3W MP2A LH1E_R8-R17_DXF_RINGDESIGN_095 3W MPR02A LHS 01E EXST_SURVEYEXPORT_R012
  0
LWPOLYLINE
  5
265
  330
121
  100
AcDbEntity
  8
95 3W MP2A LH1E_R8-R17_DXF_RINGDESIGN_095 3W MPR02A LHS 01E EXST_SURVEYEXPORT
  62
7
  100
AcDbPolyline
  90
2
  43
0
  38
-994.83226850306357
  10
7092.9462439598483
  20
-23223.159718896281
  10
7087.7698630577979
  20
-23242.478235422062
  0
LWPOLYLINE
  5
266
  330
121
  100
AcDbEntity
  8
95 3W MP2A LH1E_R8-R17_DXF_RINGDESIGN_095 3W MPR02A LHS 01E EXST_SURVEYEXPORT
  62
1
  100
AcDbPolyline
  90
2
  43
0
  38
-994.83226850306357
  10
7090.14505906361
  20
-23222.409143665482
  10
7084.9686781615592
  20
-23241.727660191264
  0
POLYLINE
  5
267
  330
121
  100
AcDbEntity
  8
95 3W MP2A LH1E_R8-R17_DXF_RINGDESIGN_095 3W MPR02A LHS 01E EXST_SURVEYEXPORT_R013
  62
7
  100
AcDb3dPolyline
  10
0
  20
0
  30
0
  70
8
  0
VERTEX
  5
268
  330

  100
AcDbEntity
  8
95 3W MP2A LH1E_R8-R17_DXF_RINGDESIGN_095 3W MPR02A LHS 01E EXST_SURVEYEXPORT_R013
  6
BYLAYER
  62
7
  100
AcDbVertex
  100
AcDb3dPolylineVertex
  10
7091.0411159483338
  20
-23230.26975343017
  30
-996.08524894843185
  70
32
  0
VERTEX
  5
269
  330

  100
AcDbEntity
  8
95 3W MP2A LH1E_R8-R17_DXF_RINGDESIGN_095 3W MPR02A LHS 01E EXST_SURVEYEXPORT_R013
  6
BYLAYER
  62
7
  100
AcDbVertex
  100
AcDb3dPolylineVertex
  10
7091.719276604892
  20
-23227.7388234042
  30
-997.14722863785641
  70
32
  0
SEQEND
  5
26A
  330

  100
AcDbEntity
  8
95 3W MP2A LH1E_R8-R17_DXF_RINGDESIGN_095 3W MPR02A LHS 01E EXST_SURVEYEXPORT_R013
  0
POLYLINE
  5
26B
  330
121
  100
AcDbEntity
  8
95 3W MP2A LH1E_R8-R17_DXF_RINGDESIGN_095 3W MPR02A LHS 01E EXST_SURVEYEXPORT_R013
  62
7
  100
AcDb3dPolyline
  10
0
  20
0
  30
0
  70
8
  0
VERTEX
  5
26C
  330

  100
AcDbEntity
  8
95 3W MP2A LH1E_R8-R17_DXF_RINGDESIGN_095 3W MPR02A LHS 01E EXST_SURVEYEXPORT_R013
  6
BYLAYER
  62
7
  100
AcDbVertex
  100
AcDb3dPolylineVertex
  10
7091.0677773812795
  20
-23230.170251607815
  30
-995.06684805884584
  70
32
  0
VERTEX
  5
26D
  330

  100
AcDbEntity
  8
95 3W MP2A LH1E_R8-R17_DXF_RINGDESIGN_095 3W MPR02A LHS 01E EXST_SURVEYEXPORT_R013
  6
BYLAYER
  62
7
  100
AcDbVertex
  100
AcDb3dPolylineVertex
  10
7092.6794869666082
  20
-23224.155269548319
  30
-996.80758368485
  70
32
  0
SEQEND
  5
26E
  330

  100
AcDbEntity
  8
95 3W MP2A LH1E_R8-R17_DXF_RINGDESIGN_095 3W MPR02A LHS 01E EXST_SURVEYEXPORT_R013
  0
POLYLINE
  5
26F
  330
121
  100
AcDbEntity
  8
95 3W MP2A LH1E_R8-R17_DXF_RINGDESIGN_095 3W MPR02A LHS 01E EXST_SURVEYEXPORT_R013
  62
7
  100
AcDb3dPolyline
  10
0
  20
0
  30
0
  70
8
  0
VERTEX
  5
270
  330

  100
AcDbEntity
  8
95 3W MP2A LH1E_R8-R17_DXF_RINGDESIGN_095 3W MPR02A LHS 01E EXST_SURVEYEXPORT_R013
  6
BYLAYER
  62
7
  100
AcDbVertex
  100
AcDb3dPolylineVertex
  10
7091.0586556744784
  20
-23230.204294281051
  30
-994.30488272733282
  70
32
  0
VERTEX
  5
271
  330

  100
AcDbEntity
  8
95 3W MP2A LH1E_R8-R17_DXF_RINGDESIGN_095 3W MPR02A LHS 01E EXST_SURVEYEXPORT_R013
  6
BYLAYER
  62
7
  100
AcDbVertex
  100
AcDb3dPolylineVertex
  10
7092.6659628770085
  20
-23224.205742137841
  30
-994.06429752595739
  70
32
  0
SEQEND
  5
272
  330

  100
AcDbEntity
  8
95 3W MP2A LH1E_R8-R17_DXF_RINGDESIGN_095 3W MPR02A LHS 01E EXST_SURVEYEXPORT_R013
  0
POLYLINE
  5
273
  330
121
  100
AcDbEntity
  8
95 3W MP2A LH1E_R8-R17_DXF_RINGDESIGN_095 3W MPR02A LHS 01E EXST_SURVEYEXPORT_R013
  62
7
  100
AcDb3dPolyline
  10
0
  20
0
  30
0
  70
8
  0
VERTEX
  5
274
  330

  100
AcDbEntity
  8
95 3W MP2A LH1E_R8-R17_DXF_RINGDESIGN_095 3W MPR02A LHS 01E EXST_SURVEYEXPORT_R013
  6
BYLAYER
  62
7
  100
AcDbVertex
  100
AcDb3dPolylineVertex
  10
7091.0192169438324
  20
-23230.3514816276
  30
-993.42916652937413
  70
32
  0
VERTEX
  5
275
  330

  100
AcDbEntity
  8
95 3W MP2A LH1E_R8-R17_DXF_RINGDESIGN_095 3W MPR02A LHS 01E EXST_SURVEYEXPORT_R013
  6
BYLAYER
  62
7
  100
AcDbVertex
  100
AcDb3dPolylineVertex
  10
7092.6456767426052
  20
-23224.281451022114
  30
-991.11199908829133
  70
32
  0
SEQEND
  5
276
  330

  100
AcDbEntity
  8
95 3W MP2A LH1E_R8-R17_DXF_RINGDESIGN_095 3W MPR02A LHS 01E EXST_SURVEYEXPORT_R013
  0
POLYLINE
  5
277
  330
121
  100
AcDbEntity
  8
95 3W MP2A LH1E_R8-R17_DXF_RINGDESIGN_095 3W MPR02A LHS 01E EXST_SURVEYEXPORT_R013
  62
7
  100
AcDb3dPolyline
  10
0
  20
0
  30
0
  70
8
  0
VERTEX
  5
278
  330

  100
AcDbEntity
  8
95 3W MP2A LH1E_R8-R17_DXF_RINGDESIGN_095 3W MPR02A LHS 01E EXST_SURVEYEXPORT_R013
  6
BYLAYER
  62
7
  100
AcDbVertex
  100
AcDb3dPolylineVertex
  10
7090.9852486403242
  20
-23230.478253062145
  30
-992.67491827860408
  70
32
  0
VERTEX
  5
279
  330

  100
AcDbEntity
  8
95 3W MP2A LH1E_R8-R17_DXF_RINGDESIGN_095 3W MPR02A LHS 01E EXST_SURVEYEXPORT_R013
  6
BYLAYER
  62
7
  100
AcDbVertex
  100
AcDb3dPolylineVertex
  10
7092.5848183393982
  20
-23224.508577674955
  30
-988.36871292939929
  70
32
  0
SEQEND
  5
27A
  330

  100
AcDbEntity
  8
95 3W MP2A LH1E_R8-R17_DXF_RINGDESIGN_095 3W MPR02A LHS 01E EXST_SURVEYEXPORT_R013
  0
POLYLINE
  5
27B
  330
121
  100
AcDbEntity
  8
95 3W MP2A LH1E_R8-R17_DXF_RINGDESIGN_095 3W MPR02A LHS 01E EXST_SURVEYEXPORT_R013
  62
7
  100
AcDb3dPolyline
  10
0
  20
0
  30
0
  70
8
  0
VERTEX
  5
27C
  330

  100
AcDbEntity
  8
95 3W MP2A LH1E_R8-R17_DXF_RINGDESIGN_095 3W MPR02A LHS 01E EXST_SURVEYEXPORT_R013
  6
BYLAYER
  62
7
  100
AcDbVertex
  100
AcDb3dPolylineVertex
  10
7090.8653026183556
  20
-23230.925897710298
  30
-991.138752972313
  70
32
  0
VERTEX
  5
27D
  330

  100
AcDbEntity
  8
95 3W MP2A LH1E_R8-R17_DXF_RINGDESIGN_095 3W MPR02A LHS 01E EXST_SURVEYEXPORT_R013
  6
BYLAYER
  62
7
  100
AcDbVertex
  100
AcDb3dPolylineVertex
  10
7091.4082225440534
  20
-23228.899692963158
  30
-989.30926818387684
  70
32
  0
SEQEND
  5
27E
  330

  100
AcDbEntity
  8
95 3W MP2A LH1E_R8-R17_DXF_RINGDESIGN_095 3W MPR02A LHS 01E EXST_SURVEYEXPORT_R013
  0
LWPOLYLINE
  5
27F
  330
121
  100
AcDbEntity
  8
95 3W MP2A LH1E_R8-R17_DXF_RINGDESIGN_095 3W MPR02A LHS 01E EXST_SURVEYEXPORT
  62
7
  100
AcDbPolyline
  90
2
  43
0
  38
-995.21437057263643
  10
7090.5905886798018
  20
-23222.414812049741
  10
7085.4142077777515
  20
-23241.733328575523
  0
LWPOLYLINE
  5
280
  330
121
  100
AcDbEntity
  8
95 3W MP2A LH1E_R8-R17_DXF_RINGDESIGN_095 3W MPR02A LHS 01E EXST_SURVEYEXPORT
  62
1
  100
AcDbPolyline
  90
2
  43
0
  38
-995.21437057263643
  10
7087.7894037835631
  20
-23221.664236818942
  10
7082.6130228815127
  20
-23240.982753344724
  0
POLYLINE
  5
281
  330
121
  100
AcDbEntity
  8
95 3W MP2A LH1E_R8-R17_DXF_RINGDESIGN_095 3W MPR02A LHS 01E EXST_SURVEYEXPORT_R014
  62
7
  100
AcDb3dPolyline
  10
0
  20
0
  30
0
  70
8
  0
VERTEX
  5
282
  330

  100
AcDbEntity
  8
95 3W MP2A LH1E_R8-R17_DXF_RINGDESIGN_095 3W MPR02A LHS 01E EXST_SURVEYEXPORT_R014
  6
BYLAYER
  62
7
  100
AcDbVertex
  100
AcDb3dPolylineVertex
  10
7088.7978654189665
  20
-23229.105346343084
  30
-995.95173939369454
  70
32
  0
VERTEX
  5
283
  330

  100
AcDbEntity
  8
95 3W MP2A LH1E_R8-R17_DXF_RINGDESIGN_095 3W MPR02A LHS 01E EXST_SURVEYEXPORT_R014
  6
BYLAYER
  62
7
  100
AcDbVertex
  100
AcDb3dPolylineVertex
  10
7089.3055416894622
  20
-23227.2106727078
  30
-997.016559370865
  70
32
  0
SEQEND
  5
284
  330

  100
AcDbEntity
  8
95 3W MP2A LH1E_R8-R17_DXF_RINGDESIGN_095 3W MPR02A LHS 01E EXST_SURVEYEXPORT_R014
  0
POLYLINE
  5
285
  330
121
  100
AcDbEntity
  8
95 3W MP2A LH1E_R8-R17_DXF_RINGDESIGN_095 3W MPR02A LHS 01E EXST_SURVEYEXPORT_R014
  62
7
  100
AcDb3dPolyline
  10
0
  20
0
  30
0
  70
8
  0
VERTEX
  5
286
  330

  100
AcDbEntity
  8
95 3W MP2A LH1E_R8-R17_DXF_RINGDESIGN_095 3W MPR02A LHS 01E EXST_SURVEYEXPORT_R014
  6
BYLAYER
  62
7
  100
AcDbVertex
  100
AcDb3dPolylineVertex
  10
7088.8223428852743
  20
-23229.013995195179
  30
-995.19879358641231
  70
32
  0
VERTEX
  5
287
  330

  100
AcDbEntity
  8
95 3W MP2A LH1E_R8-R17_DXF_RINGDESIGN_095 3W MPR02A LHS 01E EXST_SURVEYEXPORT_R014
  6
BYLAYER
  62
7
  100
AcDbVertex
  100
AcDb3dPolylineVertex
  10
7090.4059107979583
  20
-23223.104039287809
  30
-996.85029960365807
  70
32
  0
SEQEND
  5
288
  330

  100
AcDbEntity
  8
95 3W MP2A LH1E_R8-R17_DXF_RINGDESIGN_095 3W MPR02A LHS 01E EXST_SURVEYEXPORT_R014
  0
POLYLINE
  5
289
  330
121
  100
AcDbEntity
  8
95 3W MP2A LH1E_R8-R17_DXF_RINGDESIGN_095 3W MPR02A LHS 01E EXST_SURVEYEXPORT_R014
  62
7
  100
AcDb3dPolyline
  10
0
  20
0
  30
0
  70
8
  0
VERTEX
  5
28A
  330

  100
AcDbEntity
  8
95 3W MP2A LH1E_R8-R17_DXF_RINGDESIGN_095 3W MPR02A LHS 01E EXST_SURVEYEXPORT_R014
  6
BYLAYER
  62
7
  100
AcDbVertex
  100
AcDb3dPolylineVertex
  10
7088.7948490588751
  20
-23229.116603552196
  30
-994.22772443472365
  70
32
  0
VERTEX
  5
28B
  330

  100
AcDbEntity
  8
95 3W MP2A LH1E_R8-R17_DXF_RINGDESIGN_095 3W MPR02A LHS 01E EXST_SURVEYEXPORT_R014
  6
BYLAYER
  62
7
  100
AcDbVertex
  100
AcDb3dPolylineVertex
  10
7090.41820542487
  20
-23223.058155115516
  30
-993.95262937521738
  70
32
  0
SEQEND
  5
28C
  330

  100
AcDbEntity
  8
95 3W MP2A LH1E_R8-R17_DXF_RINGDESIGN_095 3W MPR02A LHS 01E EXST_SURVEYEXPORT_R014
  0
POLYLINE
  5
28D
  330
121
  100
AcDbEntity
  8
95 3W MP2A LH1E_R8-R17_DXF_RINGDESIGN_095 3W MPR02A LHS 01E EXST_SURVEYEXPORT_R014
  62
7
  100
AcDb3dPolyline
  10
0
  20
0
  30
0
  70
8
  0
VERTEX
  5
28E
  330

  100
AcDbEntity
  8
95 3W MP2A LH1E_R8-R17_DXF_RINGDESIGN_095 3W MPR02A LHS 01E EXST_SURVEYEXPORT_R014
  6
BYLAYER
  62
7
  100
AcDbVertex
  100
AcDb3dPolylineVertex
  10
7088.7596200508751
  20
-23229.248079999954
  30
-993.44548290769137
  70
32
  0
VERTEX
  5
28F
  330

  100
AcDbEntity
  8
95 3W MP2A LH1E_R8-R17_DXF_RINGDESIGN_095 3W MPR02A LHS 01E EXST_SURVEYEXPORT_R014
  6
BYLAYER
  62
7
  100
AcDbVertex
  100
AcDb3dPolylineVertex
  10
7090.3874688575934
  20
-23223.172865546247
  30
-991.24497030929751
  70
32
  0
SEQEND
  5
290
  330

  100
AcDbEntity
  8
95 3W MP2A LH1E_R8-R17_DXF_RINGDESIGN_095 3W MPR02A LHS 01E EXST_SURVEYEXPORT_R014
  0
POLYLINE
  5
291
  330
121
  100
AcDbEntity
  8
95 3W MP2A LH1E_R8-R17_DXF_RINGDESIGN_095 3W MPR02A LHS 01E EXST_SURVEYEXPORT_R014
  62
7
  100
AcDb3dPolyline
  10
0
  20
0
  30
0
  70
8
  0
VERTEX
  5
292
  330

  100
AcDbEntity
  8
95 3W MP2A LH1E_R8-R17_DXF_RINGDESIGN_095 3W MPR02A LHS 01E EXST_SURVEYEXPORT_R014
  6
BYLAYER
  62
7
  100
AcDbVertex
  100
AcDb3dPolylineVertex
  10
7088.6983440978956
  20
-23229.476764969753
  30
-992.61654074125727
  70
32
  0
VERTEX
  5
293
  330

  100
AcDbEntity
  8
95 3W MP2A LH1E_R8-R17_DXF_RINGDESIGN_095 3W MPR02A LHS 01E EXST_SURVEYEXPORT_R014
  6
BYLAYER
  62
7
  100
AcDbVertex
  100
AcDb3dPolylineVertex
  10
7090.2337860212119
  20
-23223.746417699873
  30
-988.65606821995175
  70
32
  0
SEQEND
  5
294
  330

  100
AcDbEntity
  8
95 3W MP2A LH1E_R8-R17_DXF_RINGDESIGN_095 3W MPR02A LHS 01E EXST_SURVEYEXPORT_R014
  0
POLYLINE
  5
295
  330
121
  100
AcDbEntity
  8
95 3W MP2A LH1E_R8-R17_DXF_RINGDESIGN_095 3W MPR02A LHS 01E EXST_SURVEYEXPORT_R014
  62
7
  100
AcDb3dPolyline
  10
0
  20
0
  30
0
  70
8
  0
VERTEX
  5
296
  330

  100
AcDbEntity
  8
95 3W MP2A LH1E_R8-R17_DXF_RINGDESIGN_095 3W MPR02A LHS 01E EXST_SURVEYEXPORT_R014
  6
BYLAYER
  62
7
  100
AcDbVertex
  100
AcDb3dPolylineVertex
  10
7088.4883681127076
  20
-23230.260406014848
  30
-991.62250180084163
  70
32
  0
VERTEX
  5
297
  330

  100
AcDbEntity
  8
95 3W MP2A LH1E_R8-R17_DXF_RINGDESIGN_095 3W MPR02A LHS 01E EXST_SURVEYEXPORT_R014
  6
BYLAYER
  62
7
  100
AcDbVertex
  100
AcDb3dPolylineVertex
  10
7089.1457115396224
  20
-23227.807166947583
  30
-989.51111845129515
  70
32
  0
SEQEND
  5
298
  330

  100
AcDbEntity
  8
95 3W MP2A LH1E_R8-R17_DXF_RINGDESIGN_095 3W MPR02A LHS 01E EXST_SURVEYEXPORT_R014
  0
POLYLINE
  5
299
  330
121
  100
AcDbEntity
  8
95 3W MP2A LH1E_R8-R17_DXF_RINGDESIGN_095 3W MPR02A LHS 01E EXST_SURVEYEXPORT_R014
  62
7
  100
AcDb3dPolyline
  10
0
  20
0
  30
0
  70
8
  0
VERTEX
  5
29A
  330

  100
AcDbEntity
  8
95 3W MP2A LH1E_R8-R17_DXF_RINGDESIGN_095 3W MPR02A LHS 01E EXST_SURVEYEXPORT_R014
  6
BYLAYER
  62
7
  100
AcDbVertex
  100
AcDb3dPolylineVertex
  10
7087.1746855590918
  20
-23235.163136049963
  30
-992.28859525851578
  70
32
  0
VERTEX
  5
29B
  330

  100
AcDbEntity
  8
95 3W MP2A LH1E_R8-R17_DXF_RINGDESIGN_095 3W MPR02A LHS 01E EXST_SURVEYEXPORT_R014
  6
BYLAYER
  62
7
  100
AcDbVertex
  100
AcDb3dPolylineVertex
  10
7086.6621969036805
  20
-23237.075769750259
  30
-991.43498147181731
  70
32
  0
SEQEND
  5
29C
  330

  100
AcDbEntity
  8
95 3W MP2A LH1E_R8-R17_DXF_RINGDESIGN_095 3W MPR02A LHS 01E EXST_SURVEYEXPORT_R014
  0
POLYLINE
  5
29D
  330
121
  100
AcDbEntity
  8
95 3W MP2A LH1E_R8-R17_DXF_RINGDESIGN_095 3W MPR02A LHS 01E EXST_SURVEYEXPORT_R014
  62
7
  100
AcDb3dPolyline
  10
0
  20
0
  30
0
  70
8
  0
VERTEX
  5
29E
  330

  100
AcDbEntity
  8
95 3W MP2A LH1E_R8-R17_DXF_RINGDESIGN_095 3W MPR02A LHS 01E EXST_SURVEYEXPORT_R014
  6
BYLAYER
  62
7
  100
AcDbVertex
  100
AcDb3dPolylineVertex
  10
7087.1509797590143
  20
-23235.251607300277
  30
-993.08023505560516
  70
32
  0
VERTEX
  5
29F
  330

  100
AcDbEntity
  8
95 3W MP2A LH1E_R8-R17_DXF_RINGDESIGN_095 3W MPR02A LHS 01E EXST_SURVEYEXPORT_R014
  6
BYLAYER
  62
7
  100
AcDbVertex
  100
AcDb3dPolylineVertex
  10
7086.0843494388819
  20
-23239.232325847908
  30
-991.981263564065
  70
32
  0
SEQEND
  5
2A0
  330

  100
AcDbEntity
  8
95 3W MP2A LH1E_R8-R17_DXF_RINGDESIGN_095 3W MPR02A LHS 01E EXST_SURVEYEXPORT_R014
  0
POLYLINE
  5
2A1
  330
121
  100
AcDbEntity
  8
95 3W MP2A LH1E_R8-R17_DXF_RINGDESIGN_095 3W MPR02A LHS 01E EXST_SURVEYEXPORT_R014
  62
7
  100
AcDb3dPolyline
  10
0
  20
0
  30
0
  70
8
  0
VERTEX
  5
2A2
  330

  100
AcDbEntity
  8
95 3W MP2A LH1E_R8-R17_DXF_RINGDESIGN_095 3W MPR02A LHS 01E EXST_SURVEYEXPORT_R014
  6
BYLAYER
  62
7
  100
AcDbVertex
  100
AcDb3dPolylineVertex
  10
7087.1247619268188
  20
-23235.349453582097
  30
-994.528957340683
  70
32
  0
VERTEX
  5
2A3
  330

  100
AcDbEntity
  8
95 3W MP2A LH1E_R8-R17_DXF_RINGDESIGN_095 3W MPR02A LHS 01E EXST_SURVEYEXPORT_R014
  6
BYLAYER
  62
7
  100
AcDbVertex
  100
AcDb3dPolylineVertex
  10
7086.1642645138
  20
-23238.934078728027
  30
-994.71267402530043
  70
32
  0
SEQEND
  5
2A4
  330

  100
AcDbEntity
  8
95 3W MP2A LH1E_R8-R17_DXF_RINGDESIGN_095 3W MPR02A LHS 01E EXST_SURVEYEXPORT_R014
  0
POLYLINE
  5
2A5
  330
121
  100
AcDbEntity
  8
95 3W MP2A LH1E_R8-R17_DXF_RINGDESIGN_095 3W MPR02A LHS 01E EXST_SURVEYEXPORT_R014
  62
7
  100
AcDb3dPolyline
  10
0
  20
0
  30
0
  70
8
  0
VERTEX
  5
2A6
  330

  100
AcDbEntity
  8
95 3W MP2A LH1E_R8-R17_DXF_RINGDESIGN_095 3W MPR02A LHS 01E EXST_SURVEYEXPORT_R014
  6
BYLAYER
  62
7
  100
AcDbVertex
  100
AcDb3dPolylineVertex
  10
7087.1317925811536
  20
-23235.323214822911
  30
-995.56219445829811
  70
32
  0
VERTEX
  5
2A7
  330

  100
AcDbEntity
  8
95 3W MP2A LH1E_R8-R17_DXF_RINGDESIGN_095 3W MPR02A LHS 01E EXST_SURVEYEXPORT_R014
  6
BYLAYER
  62
7
  100
AcDbVertex
  100
AcDb3dPolylineVertex
  10
7086.3486839174593
  20
-23238.24581614367
  30
-996.63653704582191
  70
32
  0
SEQEND
  5
2A8
  330

  100
AcDbEntity
  8
95 3W MP2A LH1E_R8-R17_DXF_RINGDESIGN_095 3W MPR02A LHS 01E EXST_SURVEYEXPORT_R014
  0
POLYLINE
  5
2A9
  330
121
  100
AcDbEntity
  8
95 3W MP2A LH1E_R8-R17_DXF_RINGDESIGN_095 3W MPR02A LHS 01E EXST_SURVEYEXPORT_R014
  62
7
  100
AcDb3dPolyline
  10
0
  20
0
  30
0
  70
8
  0
VERTEX
  5
2AA
  330

  100
AcDbEntity
  8
95 3W MP2A LH1E_R8-R17_DXF_RINGDESIGN_095 3W MPR02A LHS 01E EXST_SURVEYEXPORT_R014
  6
BYLAYER
  62
7
  100
AcDbVertex
  100
AcDb3dPolylineVertex
  10
7087.1474198457554
  20
-23235.264893077434
  30
-996.28916437106864
  70
32
  0
VERTEX
  5
2AB
  330

  100
AcDbEntity
  8
95 3W MP2A LH1E_R8-R17_DXF_RINGDESIGN_095 3W MPR02A LHS 01E EXST_SURVEYEXPORT_R014
  6
BYLAYER
  62
7
  100
AcDbVertex
  100
AcDb3dPolylineVertex
  10
7086.7544066055088
  20
-23236.731638458081
  30
-997.18281913807027
  70
32
  0
SEQEND
  5
2AC
  330

  100
AcDbEntity
  8
95 3W MP2A LH1E_R8-R17_DXF_RINGDESIGN_095 3W MPR02A LHS 01E EXST_SURVEYEXPORT_R014
  0
LWPOLYLINE
  5
2AD
  330
121
  100
AcDbEntity
  8
95 3W MP2A LH1E_R8-R17_DXF_RINGDESIGN_095 3W MPR02A LHS 01E EXST_SURVEYEXPORT
  62
7
  100
AcDbPolyline
  90
2
  43
0
  38
-995.59296643656023
  10
7088.2474021201078
  20
-23221.631909210391
  10
7083.0710212180575
  20
-23240.950425736173
  0
LWPOLYLINE
  5
2AE
  330
121
  100
AcDbEntity
  8
95 3W MP2A LH1E_R8-R17_DXF_RINGDESIGN_095 3W MPR02A LHS 01E EXST_SURVEYEXPORT
  62
1
  100
AcDbPolyline
  90
2
  43
0
  38
-995.59296643656023
  10
7085.4462172238691
  20
-23220.881333979592
  10
7080.2698363218187
  20
-23240.199850505374
  0
POLYLINE
  5
2AF
  330
121
  100
AcDbEntity
  8
95 3W MP2A LH1E_R8-R17_DXF_RINGDESIGN_095 3W MPR02A LHS 01E EXST_SURVEYEXPORT_R015
  62
7
  100
AcDb3dPolyline
  10
0
  20
0
  30
0
  70
8
  0
VERTEX
  5
2B0
  330

  100
AcDbEntity
  8
95 3W MP2A LH1E_R8-R17_DXF_RINGDESIGN_095 3W MPR02A LHS 01E EXST_SURVEYEXPORT_R015
  6
BYLAYER
  62
7
  100
AcDbVertex
  100
AcDb3dPolylineVertex
  10
7086.56952121458
  20
-23227.893845998857
  30
-996.11868966495422
  70
32
  0
VERTEX
  5
2B1
  330

  100
AcDbEntity
  8
95 3W MP2A LH1E_R8-R17_DXF_RINGDESIGN_095 3W MPR02A LHS 01E EXST_SURVEYEXPORT_R015
  6
BYLAYER
  62
7
  100
AcDbVertex
  100
AcDb3dPolylineVertex
  10
7087.0887161176543
  20
-23225.956184241557
  30
-997.147415338302
  70
32
  0
SEQEND
  5
2B2
  330

  100
AcDbEntity
  8
95 3W MP2A LH1E_R8-R17_DXF_RINGDESIGN_095 3W MPR02A LHS 01E EXST_SURVEYEXPORT_R015
  0
POLYLINE
  5
2B3
  330
121
  100
AcDbEntity
  8
95 3W MP2A LH1E_R8-R17_DXF_RINGDESIGN_095 3W MPR02A LHS 01E EXST_SURVEYEXPORT_R015
  62
7
  100
AcDb3dPolyline
  10
0
  20
0
  30
0
  70
8
  0
VERTEX
  5
2B4
  330

  100
AcDbEntity
  8
95 3W MP2A LH1E_R8-R17_DXF_RINGDESIGN_095 3W MPR02A LHS 01E EXST_SURVEYEXPORT_R015
  6
BYLAYER
  62
7
  100
AcDbVertex
  100
AcDb3dPolylineVertex
  10
7086.5698190448175
  20
-23227.892734481284
  30
-995.220901339777
  70
32
  0
VERTEX
  5
2B5
  330

  100
AcDbEntity
  8
95 3W MP2A LH1E_R8-R17_DXF_RINGDESIGN_095 3W MPR02A LHS 01E EXST_SURVEYEXPORT_R015
  6
BYLAYER
  62
7
  100
AcDbVertex
  100
AcDb3dPolylineVertex
  10
7087.8263937322936
  20
-23223.203133904117
  30
-996.339867897592
  70
32
  0
SEQEND
  5
2B6
  330

  100
AcDbEntity
  8
95 3W MP2A LH1E_R8-R17_DXF_RINGDESIGN_095 3W MPR02A LHS 01E EXST_SURVEYEXPORT_R015
  0
POLYLINE
  5
2B7
  330
121
  100
AcDbEntity
  8
95 3W MP2A LH1E_R8-R17_DXF_RINGDESIGN_095 3W MPR02A LHS 01E EXST_SURVEYEXPORT_R015
  62
7
  100
AcDb3dPolyline
  10
0
  20
0
  30
0
  70
8
  0
VERTEX
  5
2B8
  330

  100
AcDbEntity
  8
95 3W MP2A LH1E_R8-R17_DXF_RINGDESIGN_095 3W MPR02A LHS 01E EXST_SURVEYEXPORT_R015
  6
BYLAYER
  62
7
  100
AcDbVertex
  100
AcDb3dPolylineVertex
  10
7086.5326893155579
  20
-23228.031304517346
  30
-994.14219875566494
  70
32
  0
VERTEX
  5
2B9
  330

  100
AcDbEntity
  8
95 3W MP2A LH1E_R8-R17_DXF_RINGDESIGN_095 3W MPR02A LHS 01E EXST_SURVEYEXPORT_R015
  6
BYLAYER
  62
7
  100
AcDbVertex
  100
AcDb3dPolylineVertex
  10
7087.728036717006
  20
-23223.570207282446
  30
-993.8697227848221
  70
32
  0
SEQEND
  5
2BA
  330

  100
AcDbEntity
  8
95 3W MP2A LH1E_R8-R17_DXF_RINGDESIGN_095 3W MPR02A LHS 01E EXST_SURVEYEXPORT_R015
  0
POLYLINE
  5
2BB
  330
121
  100
AcDbEntity
  8
95 3W MP2A LH1E_R8-R17_DXF_RINGDESIGN_095 3W MPR02A LHS 01E EXST_SURVEYEXPORT_R015
  62
7
  100
AcDb3dPolyline
  10
0
  20
0
  30
0
  70
8
  0
VERTEX
  5
2BC
  330

  100
AcDbEntity
  8
95 3W MP2A LH1E_R8-R17_DXF_RINGDESIGN_095 3W MPR02A LHS 01E EXST_SURVEYEXPORT_R015
  6
BYLAYER
  62
7
  100
AcDbVertex
  100
AcDb3dPolylineVertex
  10
7086.3258013924242
  20
-23228.803420757951
  30
-993.34488195304959
  70
32
  0
VERTEX
  5
2BD
  330

  100
AcDbEntity
  8
95 3W MP2A LH1E_R8-R17_DXF_RINGDESIGN_095 3W MPR02A LHS 01E EXST_SURVEYEXPORT_R015
  6
BYLAYER
  62
7
  100
AcDbVertex
  100
AcDb3dPolylineVertex
  10
7087.6911528362743
  20
-23223.707859799317
  30
-991.25706930016236
  70
32
  0
SEQEND
  5
2BE
  330

  100
AcDbEntity
  8
95 3W MP2A LH1E_R8-R17_DXF_RINGDESIGN_095 3W MPR02A LHS 01E EXST_SURVEYEXPORT_R015
  0
POLYLINE
  5
2BF
  330
121
  100
AcDbEntity
  8
95 3W MP2A LH1E_R8-R17_DXF_RINGDESIGN_095 3W MPR02A LHS 01E EXST_SURVEYEXPORT_R015
  62
7
  100
AcDb3dPolyline
  10
0
  20
0
  30
0
  70
8
  0
VERTEX
  5
2C0
  330

  100
AcDbEntity
  8
95 3W MP2A LH1E_R8-R17_DXF_RINGDESIGN_095 3W MPR02A LHS 01E EXST_SURVEYEXPORT_R015
  6
BYLAYER
  62
7
  100
AcDbVertex
  100
AcDb3dPolylineVertex
  10
7086.2512375300184
  20
-23229.081696880861
  30
-992.66653558647
  70
32
  0
VERTEX
  5
2C1
  330

  100
AcDbEntity
  8
95 3W MP2A LH1E_R8-R17_DXF_RINGDESIGN_095 3W MPR02A LHS 01E EXST_SURVEYEXPORT_R015
  6
BYLAYER
  62
7
  100
AcDbVertex
  100
AcDb3dPolylineVertex
  10
7087.4329656711525
  20
-23224.671427417419
  30
-989.238200698379
  70
32
  0
SEQEND
  5
2C2
  330

  100
AcDbEntity
  8
95 3W MP2A LH1E_R8-R17_DXF_RINGDESIGN_095 3W MPR02A LHS 01E EXST_SURVEYEXPORT_R015
  0
POLYLINE
  5
2C3
  330
121
  100
AcDbEntity
  8
95 3W MP2A LH1E_R8-R17_DXF_RINGDESIGN_095 3W MPR02A LHS 01E EXST_SURVEYEXPORT_R015
  62
7
  100
AcDb3dPolyline
  10
0
  20
0
  30
0
  70
8
  0
VERTEX
  5
2C4
  330

  100
AcDbEntity
  8
95 3W MP2A LH1E_R8-R17_DXF_RINGDESIGN_095 3W MPR02A LHS 01E EXST_SURVEYEXPORT_R015
  6
BYLAYER
  62
7
  100
AcDbVertex
  100
AcDb3dPolylineVertex
  10
7086.1403001765129
  20
-23229.495720720606
  30
-991.588544268556
  70
32
  0
VERTEX
  5
2C5
  330

  100
AcDbEntity
  8
95 3W MP2A LH1E_R8-R17_DXF_RINGDESIGN_095 3W MPR02A LHS 01E EXST_SURVEYEXPORT_R015
  6
BYLAYER
  62
7
  100
AcDbVertex
  100
AcDb3dPolylineVertex
  10
7086.3940696972059
  20
-23228.548639975968
  30
-990.16450511566813
  70
32
  0
SEQEND
  5
2C6
  330

  100
AcDbEntity
  8
95 3W MP2A LH1E_R8-R17_DXF_RINGDESIGN_095 3W MPR02A LHS 01E EXST_SURVEYEXPORT_R015
  0
POLYLINE
  5
2C7
  330
121
  100
AcDbEntity
  8
95 3W MP2A LH1E_R8-R17_DXF_RINGDESIGN_095 3W MPR02A LHS 01E EXST_SURVEYEXPORT_R015
  62
7
  100
AcDb3dPolyline
  10
0
  20
0
  30
0
  70
8
  0
VERTEX
  5
2C8
  330

  100
AcDbEntity
  8
95 3W MP2A LH1E_R8-R17_DXF_RINGDESIGN_095 3W MPR02A LHS 01E EXST_SURVEYEXPORT_R015
  6
BYLAYER
  62
7
  100
AcDbVertex
  100
AcDb3dPolylineVertex
  10
7085.1608872949864
  20
-23233.150939356048
  30
-992.873361933006
  70
32
  0
VERTEX
  5
2C9
  330

  100
AcDbEntity
  8
95 3W MP2A LH1E_R8-R17_DXF_RINGDESIGN_095 3W MPR02A LHS 01E EXST_SURVEYEXPORT_R015
  6
BYLAYER
  62
7
  100
AcDbVertex
  100
AcDb3dPolylineVertex
  10
7084.4207820780539
  20
-23235.913049628591
  30
-991.63709162520354
  70
32
  0
SEQEND
  5
2CA
  330

  100
AcDbEntity
  8
95 3W MP2A LH1E_R8-R17_DXF_RINGDESIGN_095 3W MPR02A LHS 01E EXST_SURVEYEXPORT_R015
  0
POLYLINE
  5
2CB
  330
121
  100
AcDbEntity
  8
95 3W MP2A LH1E_R8-R17_DXF_RINGDESIGN_095 3W MPR02A LHS 01E EXST_SURVEYEXPORT_R015
  62
7
  100
AcDb3dPolyline
  10
0
  20
0
  30
0
  70
8
  0
VERTEX
  5
2CC
  330

  100
AcDbEntity
  8
95 3W MP2A LH1E_R8-R17_DXF_RINGDESIGN_095 3W MPR02A LHS 01E EXST_SURVEYEXPORT_R015
  6
BYLAYER
  62
7
  100
AcDbVertex
  100
AcDb3dPolylineVertex
  10
7085.1289967770017
  20
-23233.269956389442
  30
-993.51595881504363
  70
32
  0
VERTEX
  5
2CD
  330

  100
AcDbEntity
  8
95 3W MP2A LH1E_R8-R17_DXF_RINGDESIGN_095 3W MPR02A LHS 01E EXST_SURVEYEXPORT_R015
  6
BYLAYER
  62
7
  100
AcDbVertex
  100
AcDb3dPolylineVertex
  10
7083.7322829710592
  20
-23238.482563276859
  30
-992.15962232213565
  70
32
  0
SEQEND
  5
2CE
  330

  100
AcDbEntity
  8
95 3W MP2A LH1E_R8-R17_DXF_RINGDESIGN_095 3W MPR02A LHS 01E EXST_SURVEYEXPORT_R015
  0
POLYLINE
  5
2CF
  330
121
  100
AcDbEntity
  8
95 3W MP2A LH1E_R8-R17_DXF_RINGDESIGN_095 3W MPR02A LHS 01E EXST_SURVEYEXPORT_R015
  62
7
  100
AcDb3dPolyline
  10
0
  20
0
  30
0
  70
8
  0
VERTEX
  5
2D0
  330

  100
AcDbEntity
  8
95 3W MP2A LH1E_R8-R17_DXF_RINGDESIGN_095 3W MPR02A LHS 01E EXST_SURVEYEXPORT_R015
  6
BYLAYER
  62
7
  100
AcDbVertex
  100
AcDb3dPolylineVertex
  10
7085.0727359476823
  20
-23233.479924662937
  30
-994.25428407218635
  70
32
  0
VERTEX
  5
2D1
  330

  100
AcDbEntity
  8
95 3W MP2A LH1E_R8-R17_DXF_RINGDESIGN_095 3W MPR02A LHS 01E EXST_SURVEYEXPORT_R015
  6
BYLAYER
  62
7
  100
AcDbVertex
  100
AcDb3dPolylineVertex
  10
7083.8306399863432
  20
-23238.115489898533
  30
-994.10723673797281
  70
32
  0
SEQEND
  5
2D2
  330

  100
AcDbEntity
  8
95 3W MP2A LH1E_R8-R17_DXF_RINGDESIGN_095 3W MPR02A LHS 01E EXST_SURVEYEXPORT_R015
  0
POLYLINE
  5
2D3
  330
121
  100
AcDbEntity
  8
95 3W MP2A LH1E_R8-R17_DXF_RINGDESIGN_095 3W MPR02A LHS 01E EXST_SURVEYEXPORT_R015
  62
7
  100
AcDb3dPolyline
  10
0
  20
0
  30
0
  70
8
  0
VERTEX
  5
2D4
  330

  100
AcDbEntity
  8
95 3W MP2A LH1E_R8-R17_DXF_RINGDESIGN_095 3W MPR02A LHS 01E EXST_SURVEYEXPORT_R015
  6
BYLAYER
  62
7
  100
AcDbVertex
  100
AcDb3dPolylineVertex
  10
7085.0111227223169
  20
-23233.709868350423
  30
-995.3492621980198
  70
32
  0
VERTEX
  5
2D5
  330

  100
AcDbEntity
  8
95 3W MP2A LH1E_R8-R17_DXF_RINGDESIGN_095 3W MPR02A LHS 01E EXST_SURVEYEXPORT_R015
  6
BYLAYER
  62
7
  100
AcDbVertex
  100
AcDb3dPolylineVertex
  10
7083.9044077478075
  20
-23237.840184864792
  30
-996.38737068822127
  70
32
  0
SEQEND
  5
2D6
  330

  100
AcDbEntity
  8
95 3W MP2A LH1E_R8-R17_DXF_RINGDESIGN_095 3W MPR02A LHS 01E EXST_SURVEYEXPORT_R015
  0
POLYLINE
  5
2D7
  330
121
  100
AcDbEntity
  8
95 3W MP2A LH1E_R8-R17_DXF_RINGDESIGN_095 3W MPR02A LHS 01E EXST_SURVEYEXPORT_R015
  62
7
  100
AcDb3dPolyline
  10
0
  20
0
  30
0
  70
8
  0
VERTEX
  5
2D8
  330

  100
AcDbEntity
  8
95 3W MP2A LH1E_R8-R17_DXF_RINGDESIGN_095 3W MPR02A LHS 01E EXST_SURVEYEXPORT_R015
  6
BYLAYER
  62
7
  100
AcDbVertex
  100
AcDb3dPolylineVertex
  10
7085.0111227223179
  20
-23233.709868350423
  30
-996.31193199046345
  70
32
  0
VERTEX
  5
2D9
  330

  100
AcDbEntity
  8
95 3W MP2A LH1E_R8-R17_DXF_RINGDESIGN_095 3W MPR02A LHS 01E EXST_SURVEYEXPORT_R015
  6
BYLAYER
  62
7
  100
AcDbVertex
  100
AcDb3dPolylineVertex
  10
7084.4761078991523
  20
-23235.706570853283
  30
-997.337426500826
  70
32
  0
SEQEND
  5
2DA
  330

  100
AcDbEntity
  8
95 3W MP2A LH1E_R8-R17_DXF_RINGDESIGN_095 3W MPR02A LHS 01E EXST_SURVEYEXPORT_R015
  0
LWPOLYLINE
  5
2DB
  330
121
  100
AcDbEntity
  8
95 3W MP2A LH1E_R8-R17_DXF_RINGDESIGN_095 3W MPR02A LHS 01E EXST_SURVEYEXPORT
  62
7
  100
AcDbPolyline
  90
2
  43
0
  38
-995.96458873466133
  10
7085.9290148593718
  20
-23220.773435345436
  10
7080.7526339573214
  20
-23240.091951871218
  0
LWPOLYLINE
  5
2DC
  330
121
  100
AcDbEntity
  8
95 3W MP2A LH1E_R8-R17_DXF_RINGDESIGN_095 3W MPR02A LHS 01E EXST_SURVEYEXPORT
  62
1
  100
AcDbPolyline
  90
2
  43
0
  38
-995.96458873466133
  10
7083.1278299631331
  20
-23220.022860114637
  10
7077.9514490610827
  20
-23239.341376640419
  0
POLYLINE
  5
2DD
  330
121
  100
AcDbEntity
  8
95 3W MP2A LH1E_R8-R17_DXF_RINGDESIGN_095 3W MPR02A LHS 01E EXST_SURVEYEXPORT_R016
  62
7
  100
AcDb3dPolyline
  10
0
  20
0
  30
0
  70
8
  0
VERTEX
  5
2DE
  330

  100
AcDbEntity
  8
95 3W MP2A LH1E_R8-R17_DXF_RINGDESIGN_095 3W MPR02A LHS 01E EXST_SURVEYEXPORT_R016
  6
BYLAYER
  62
7
  100
AcDbVertex
  100
AcDb3dPolylineVertex
  10
7084.3036950785363
  20
-23226.83921134605
  30
-996.52002955602939
  70
32
  0
VERTEX
  5
2DF
  330

  100
AcDbEntity
  8
95 3W MP2A LH1E_R8-R17_DXF_RINGDESIGN_095 3W MPR02A LHS 01E EXST_SURVEYEXPORT_R016
  6
BYLAYER
  62
7
  100
AcDbVertex
  100
AcDb3dPolylineVertex
  10
7084.8362485482075
  20
-23224.851694739493
  30
-997.16419706848524
  70
32
  0
SEQEND
  5
2E0
  330

  100
AcDbEntity
  8
95 3W MP2A LH1E_R8-R17_DXF_RINGDESIGN_095 3W MPR02A LHS 01E EXST_SURVEYEXPORT_R016
  0
POLYLINE
  5
2E1
  330
121
  100
AcDbEntity
  8
95 3W MP2A LH1E_R8-R17_DXF_RINGDESIGN_095 3W MPR02A LHS 01E EXST_SURVEYEXPORT_R016
  62
7
  100
AcDb3dPolyline
  10
0
  20
0
  30
0
  70
8
  0
VERTEX
  5
2E2
  330

  100
AcDbEntity
  8
95 3W MP2A LH1E_R8-R17_DXF_RINGDESIGN_095 3W MPR02A LHS 01E EXST_SURVEYEXPORT_R016
  6
BYLAYER
  62
7
  100
AcDbVertex
  100
AcDb3dPolylineVertex
  10
7084.3036094338431
  20
-23226.839530976395
  30
-995.50113455377016
  70
32
  0
VERTEX
  5
2E3
  330

  100
AcDbEntity
  8
95 3W MP2A LH1E_R8-R17_DXF_RINGDESIGN_095 3W MPR02A LHS 01E EXST_SURVEYEXPORT_R016
  6
BYLAYER
  62
7
  100
AcDbVertex
  100
AcDb3dPolylineVertex
  10
7084.94297274014
  20
-23224.4533946328
  30
-995.910651204635
  70
32
  0
SEQEND
  5
2E4
  330

  100
AcDbEntity
  8
95 3W MP2A LH1E_R8-R17_DXF_RINGDESIGN_095 3W MPR02A LHS 01E EXST_SURVEYEXPORT_R016
  0
POLYLINE
  5
2E5
  330
121
  100
AcDbEntity
  8
95 3W MP2A LH1E_R8-R17_DXF_RINGDESIGN_095 3W MPR02A LHS 01E EXST_SURVEYEXPORT_R016
  62
7
  100
AcDb3dPolyline
  10
0
  20
0
  30
0
  70
8
  0
VERTEX
  5
2E6
  330

  100
AcDbEntity
  8
95 3W MP2A LH1E_R8-R17_DXF_RINGDESIGN_095 3W MPR02A LHS 01E EXST_SURVEYEXPORT_R016
  6
BYLAYER
  62
7
  100
AcDbVertex
  100
AcDb3dPolylineVertex
  10
7084.251320027317
  20
-23227.034677698251
  30
-994.47091302715046
  70
32
  0
VERTEX
  5
2E7
  330

  100
AcDbEntity
  8
95 3W MP2A LH1E_R8-R17_DXF_RINGDESIGN_095 3W MPR02A LHS 01E EXST_SURVEYEXPORT_R016
  6
BYLAYER
  62
7
  100
AcDbVertex
  100
AcDb3dPolylineVertex
  10
7084.9045520310447
  20
-23224.596782671211
  30
-994.16228460505124
  70
32
  0
SEQEND
  5
2E8
  330

  100
AcDbEntity
  8
95 3W MP2A LH1E_R8-R17_DXF_RINGDESIGN_095 3W MPR02A LHS 01E EXST_SURVEYEXPORT_R016
  0
POLYLINE
  5
2E9
  330
121
  100
AcDbEntity
  8
95 3W MP2A LH1E_R8-R17_DXF_RINGDESIGN_095 3W MPR02A LHS 01E EXST_SURVEYEXPORT_R016
  62
7
  100
AcDb3dPolyline
  10
0
  20
0
  30
0
  70
8
  0
VERTEX
  5
2EA
  330

  100
AcDbEntity
  8
95 3W MP2A LH1E_R8-R17_DXF_RINGDESIGN_095 3W MPR02A LHS 01E EXST_SURVEYEXPORT_R016
  6
BYLAYER
  62
7
  100
AcDbVertex
  100
AcDb3dPolylineVertex
  10
7084.158527663667
  20
-23227.380983513951
  30
-993.0930480423176
  70
32
  0
VERTEX
  5
2EB
  330

  100
AcDbEntity
  8
95 3W MP2A LH1E_R8-R17_DXF_RINGDESIGN_095 3W MPR02A LHS 01E EXST_SURVEYEXPORT_R016
  6
BYLAYER
  62
7
  100
AcDbVertex
  100
AcDb3dPolylineVertex
  10
7084.8661313219491
  20
-23224.740170709621
  30
-991.49025263210194
  70
32
  0
SEQEND
  5
2EC
  330

  100
AcDbEntity
  8
95 3W MP2A LH1E_R8-R17_DXF_RINGDESIGN_095 3W MPR02A LHS 01E EXST_SURVEYEXPORT_R016
  0
POLYLINE
  5
2ED
  330
121
  100
AcDbEntity
  8
95 3W MP2A LH1E_R8-R17_DXF_RINGDESIGN_095 3W MPR02A LHS 01E EXST_SURVEYEXPORT_R016
  62
7
  100
AcDb3dPolyline
  10
0
  20
0
  30
0
  70
8
  0
VERTEX
  5
2EE
  330

  100
AcDbEntity
  8
95 3W MP2A LH1E_R8-R17_DXF_RINGDESIGN_095 3W MPR02A LHS 01E EXST_SURVEYEXPORT_R016
  6
BYLAYER
  62
7
  100
AcDbVertex
  100
AcDb3dPolylineVertex
  10
7084.0507571016051
  20
-23227.783188727124
  30
-992.03527861090924
  70
32
  0
VERTEX
  5
2EF
  330

  100
AcDbEntity
  8
95 3W MP2A LH1E_R8-R17_DXF_RINGDESIGN_095 3W MPR02A LHS 01E EXST_SURVEYEXPORT_R016
  6
BYLAYER
  62
7
  100
AcDbVertex
  100
AcDb3dPolylineVertex
  10
7084.5160759724085
  20
-23226.046595059564
  30
-990.1212485965799
  70
32
  0
SEQEND
  5
2F0
  330

  100
AcDbEntity
  8
95 3W MP2A LH1E_R8-R17_DXF_RINGDESIGN_095 3W MPR02A LHS 01E EXST_SURVEYEXPORT_R016
  0
POLYLINE
  5
2F1
  330
121
  100
AcDbEntity
  8
95 3W MP2A LH1E_R8-R17_DXF_RINGDESIGN_095 3W MPR02A LHS 01E EXST_SURVEYEXPORT_R016
  62
7
  100
AcDb3dPolyline
  10
0
  20
0
  30
0
  70
8
  0
VERTEX
  5
2F2
  330

  100
AcDbEntity
  8
95 3W MP2A LH1E_R8-R17_DXF_RINGDESIGN_095 3W MPR02A LHS 01E EXST_SURVEYEXPORT_R016
  6
BYLAYER
  62
7
  100
AcDbVertex
  100
AcDb3dPolylineVertex
  10
7083.7689467505006
  20
-23228.834919275541
  30
-991.44063804625364
  70
32
  0
VERTEX
  5
2F3
  330

  100
AcDbEntity
  8
95 3W MP2A LH1E_R8-R17_DXF_RINGDESIGN_095 3W MPR02A LHS 01E EXST_SURVEYEXPORT_R016
  6
BYLAYER
  62
7
  100
AcDbVertex
  100
AcDb3dPolylineVertex
  10
7083.9098825622341
  20
-23228.308939665549
  30
-990.33567091539749
  70
32
  0
SEQEND
  5
2F4
  330

  100
AcDbEntity
  8
95 3W MP2A LH1E_R8-R17_DXF_RINGDESIGN_095 3W MPR02A LHS 01E EXST_SURVEYEXPORT_R016
  0
POLYLINE
  5
2F5
  330
121
  100
AcDbEntity
  8
95 3W MP2A LH1E_R8-R17_DXF_RINGDESIGN_095 3W MPR02A LHS 01E EXST_SURVEYEXPORT_R016
  62
7
  100
AcDb3dPolyline
  10
0
  20
0
  30
0
  70
8
  0
VERTEX
  5
2F6
  330

  100
AcDbEntity
  8
95 3W MP2A LH1E_R8-R17_DXF_RINGDESIGN_095 3W MPR02A LHS 01E EXST_SURVEYEXPORT_R016
  6
BYLAYER
  62
7
  100
AcDbVertex
  100
AcDb3dPolylineVertex
  10
7082.7940013852995
  20
-23232.473464913081
  30
-992.88541999636982
  70
32
  0
VERTEX
  5
2F7
  330

  100
AcDbEntity
  8
95 3W MP2A LH1E_R8-R17_DXF_RINGDESIGN_095 3W MPR02A LHS 01E EXST_SURVEYEXPORT_R016
  6
BYLAYER
  62
7
  100
AcDbVertex
  100
AcDb3dPolylineVertex
  10
7082.2236403297029
  20
-23234.602081351226
  30
-991.63869885282315
  70
32
  0
SEQEND
  5
2F8
  330

  100
AcDbEntity
  8
95 3W MP2A LH1E_R8-R17_DXF_RINGDESIGN_095 3W MPR02A LHS 01E EXST_SURVEYEXPORT_R016
  0
POLYLINE
  5
2F9
  330
121
  100
AcDbEntity
  8
95 3W MP2A LH1E_R8-R17_DXF_RINGDESIGN_095 3W MPR02A LHS 01E EXST_SURVEYEXPORT_R016
  62
7
  100
AcDb3dPolyline
  10
0
  20
0
  30
0
  70
8
  0
VERTEX
  5
2FA
  330

  100
AcDbEntity
  8
95 3W MP2A LH1E_R8-R17_DXF_RINGDESIGN_095 3W MPR02A LHS 01E EXST_SURVEYEXPORT_R016
  6
BYLAYER
  62
7
  100
AcDbVertex
  100
AcDb3dPolylineVertex
  10
7082.7105771044644
  20
-23232.78480856774
  30
-993.96042904627052
  70
32
  0
VERTEX
  5
2FB
  330

  100
AcDbEntity
  8
95 3W MP2A LH1E_R8-R17_DXF_RINGDESIGN_095 3W MPR02A LHS 01E EXST_SURVEYEXPORT_R016
  6
BYLAYER
  62
7
  100
AcDbVertex
  100
AcDb3dPolylineVertex
  10
7081.5107227275948
  20
-23237.262726063902
  30
-992.1500136130785
  70
32
  0
SEQEND
  5
2FC
  330

  100
AcDbEntity
  8
95 3W MP2A LH1E_R8-R17_DXF_RINGDESIGN_095 3W MPR02A LHS 01E EXST_SURVEYEXPORT_R016
  0
POLYLINE
  5
2FD
  330
121
  100
AcDbEntity
  8
95 3W MP2A LH1E_R8-R17_DXF_RINGDESIGN_095 3W MPR02A LHS 01E EXST_SURVEYEXPORT_R016
  62
7
  100
AcDb3dPolyline
  10
0
  20
0
  30
0
  70
8
  0
VERTEX
  5
2FE
  330

  100
AcDbEntity
  8
95 3W MP2A LH1E_R8-R17_DXF_RINGDESIGN_095 3W MPR02A LHS 01E EXST_SURVEYEXPORT_R016
  6
BYLAYER
  62
7
  100
AcDbVertex
  100
AcDb3dPolylineVertex
  10
7082.6411075233682
  20
-23233.044072573961
  30
-994.86581284137515
  70
32
  0
VERTEX
  5
2FF
  330

  100
AcDbEntity
  8
95 3W MP2A LH1E_R8-R17_DXF_RINGDESIGN_095 3W MPR02A LHS 01E EXST_SURVEYEXPORT_R016
  6
BYLAYER
  62
7
  100
AcDbVertex
  100
AcDb3dPolylineVertex
  10
7081.5363365336589
  20
-23237.167134038289
  30
-994.80555156150149
  70
32
  0
SEQEND
  5
300
  330

  100
AcDbEntity
  8
95 3W MP2A LH1E_R8-R17_DXF_RINGDESIGN_095 3W MPR02A LHS 01E EXST_SURVEYEXPORT_R016
  0
POLYLINE
  5
301
  330
121
  100
AcDbEntity
  8
95 3W MP2A LH1E_R8-R17_DXF_RINGDESIGN_095 3W MPR02A LHS 01E EXST_SURVEYEXPORT_R016
  62
7
  100
AcDb3dPolyline
  10
0
  20
0
  30
0
  70
8
  0
VERTEX
  5
302
  330

  100
AcDbEntity
  8
95 3W MP2A LH1E_R8-R17_DXF_RINGDESIGN_095 3W MPR02A LHS 01E EXST_SURVEYEXPORT_R016
  6
BYLAYER
  62
7
  100
AcDbVertex
  100
AcDb3dPolylineVertex
  10
7082.5809336350694
  20
-23233.268644582389
  30
-995.81564841665352
  70
32
  0
VERTEX
  5
303
  330

  100
AcDbEntity
  8
95 3W MP2A LH1E_R8-R17_DXF_RINGDESIGN_095 3W MPR02A LHS 01E EXST_SURVEYEXPORT_R016
  6
BYLAYER
  62
7
  100
AcDbVertex
  100
AcDb3dPolylineVertex
  10
7081.64306072559
  20
-23236.768833931612
  30
-996.99925682324249
  70
32
  0
SEQEND
  5
304
  330

  100
AcDbEntity
  8
95 3W MP2A LH1E_R8-R17_DXF_RINGDESIGN_095 3W MPR02A LHS 01E EXST_SURVEYEXPORT_R016
  0
POLYLINE
  5
305
  330
121
  100
AcDbEntity
  8
95 3W MP2A LH1E_R8-R17_DXF_RINGDESIGN_095 3W MPR02A LHS 01E EXST_SURVEYEXPORT_R016
  62
7
  100
AcDb3dPolyline
  10
0
  20
0
  30
0
  70
8
  0
VERTEX
  5
306
  330

  100
AcDbEntity
  8
95 3W MP2A LH1E_R8-R17_DXF_RINGDESIGN_095 3W MPR02A LHS 01E EXST_SURVEYEXPORT_R016
  6
BYLAYER
  62
7
  100
AcDbVertex
  100
AcDb3dPolylineVertex
  10
7082.6004562739208
  20
-23233.1957851023
  30
-996.68244236399755
  70
32
  0
VERTEX
  5
307
  330

  100
AcDbEntity
  8
95 3W MP2A LH1E_R8-R17_DXF_RINGDESIGN_095 3W MPR02A LHS 01E EXST_SURVEYEXPORT_R016
  6
BYLAYER
  62
7
  100
AcDbVertex
  100
AcDb3dPolylineVertex
  10
7082.0443436872547
  20
-23235.271225530465
  30
-997.56005365707085
  70
32
  0
SEQEND
  5
308
  330

  100
AcDbEntity
  8
95 3W MP2A LH1E_R8-R17_DXF_RINGDESIGN_095 3W MPR02A LHS 01E EXST_SURVEYEXPORT_R016
  0
LWPOLYLINE
  5
309
  330
121
  100
AcDbEntity
  8
95 3W MP2A LH1E_R8-R17_DXF_RINGDESIGN_095 3W MPR02A LHS 01E EXST_SURVEYEXPORT
  62
7
  100
AcDbPolyline
  90
2
  43
0
  38
-996.33621103276255
  10
7083.6106275986358
  20
-23219.914961480477
  10
7078.4342466965854
  20
-23239.233478006259
  0
LWPOLYLINE
  5
30A
  330
121
  100
AcDbEntity
  8
95 3W MP2A LH1E_R8-R17_DXF_RINGDESIGN_095 3W MPR02A LHS 01E EXST_SURVEYEXPORT
  62
1
  100
AcDbPolyline
  90
2
  43
0
  38
-996.33621103276255
  10
7080.8094427023971
  20
-23219.164386249679
  10
7075.6330618003467
  20
-23238.48290277546
  0
POLYLINE
  5
30B
  330
121
  100
AcDbEntity
  8
95 3W MP2A LH1E_R8-R17_DXF_RINGDESIGN_095 3W MPR02A LHS 01E EXST_SURVEYEXPORT_R017
  62
7
  100
AcDb3dPolyline
  10
0
  20
0
  30
0
  70
8
  0
VERTEX
  5
30C
  330

  100
AcDbEntity
  8
95 3W MP2A LH1E_R8-R17_DXF_RINGDESIGN_095 3W MPR02A LHS 01E EXST_SURVEYEXPORT_R017
  6
BYLAYER
  62
7
  100
AcDbVertex
  100
AcDb3dPolylineVertex
  10
7081.9536787931656
  20
-23226.09877860803
  30
-996.76235507469255
  70
32
  0
VERTEX
  5
30D
  330

  100
AcDbEntity
  8
95 3W MP2A LH1E_R8-R17_DXF_RINGDESIGN_095 3W MPR02A LHS 01E EXST_SURVEYEXPORT_R017
  6
BYLAYER
  62
7
  100
AcDbVertex
  100
AcDb3dPolylineVertex
  10
7082.3804603621138
  20
-23224.50600810898
  30
-997.32002263369486
  70
32
  0
SEQEND
  5
30E
  330

  100
AcDbEntity
  8
95 3W MP2A LH1E_R8-R17_DXF_RINGDESIGN_095 3W MPR02A LHS 01E EXST_SURVEYEXPORT_R017
  0
POLYLINE
  5
30F
  330
121
  100
AcDbEntity
  8
95 3W MP2A LH1E_R8-R17_DXF_RINGDESIGN_095 3W MPR02A LHS 01E EXST_SURVEYEXPORT_R017
  62
7
  100
AcDb3dPolyline
  10
0
  20
0
  30
0
  70
8
  0
VERTEX
  5
310
  330

  100
AcDbEntity
  8
95 3W MP2A LH1E_R8-R17_DXF_RINGDESIGN_095 3W MPR02A LHS 01E EXST_SURVEYEXPORT_R017
  6
BYLAYER
  62
7
  100
AcDbVertex
  100
AcDb3dPolylineVertex
  10
7081.8562938533223
  20
-23226.462224151415
  30
-995.02225587833334
  70
32
  0
VERTEX
  5
311
  330

  100
AcDbEntity
  8
95 3W MP2A LH1E_R8-R17_DXF_RINGDESIGN_095 3W MPR02A LHS 01E EXST_SURVEYEXPORT_R017
  6
BYLAYER
  62
7
  100
AcDbVertex
  100
AcDb3dPolylineVertex
  10
7082.3539039679881
  20
-23224.605117921124
  30
-994.75487193966478
  70
32
  0
SEQEND
  5
312
  330

  100
AcDbEntity
  8
95 3W MP2A LH1E_R8-R17_DXF_RINGDESIGN_095 3W MPR02A LHS 01E EXST_SURVEYEXPORT_R017
  0
POLYLINE
  5
313
  330
121
  100
AcDbEntity
  8
95 3W MP2A LH1E_R8-R17_DXF_RINGDESIGN_095 3W MPR02A LHS 01E EXST_SURVEYEXPORT_R017
  62
7
  100
AcDb3dPolyline
  10
0
  20
0
  30
0
  70
8
  0
VERTEX
  5
314
  330

  100
AcDbEntity
  8
95 3W MP2A LH1E_R8-R17_DXF_RINGDESIGN_095 3W MPR02A LHS 01E EXST_SURVEYEXPORT_R017
  6
BYLAYER
  62
7
  100
AcDbVertex
  100
AcDb3dPolylineVertex
  10
7081.751684736817
  20
-23226.852630689147
  30
-993.82773559780878
  70
32
  0
VERTEX
  5
315
  330

  100
AcDbEntity
  8
95 3W MP2A LH1E_R8-R17_DXF_RINGDESIGN_095 3W MPR02A LHS 01E EXST_SURVEYEXPORT_R017
  6
BYLAYER
  62
7
  100
AcDbVertex
  100
AcDb3dPolylineVertex
  10
7082.4335731503652
  20
-23224.307788484693
  30
-992.25812526414461
  70
32
  0
SEQEND
  5
316
  330

  100
AcDbEntity
  8
95 3W MP2A LH1E_R8-R17_DXF_RINGDESIGN_095 3W MPR02A LHS 01E EXST_SURVEYEXPORT_R017
  0
POLYLINE
  5
317
  330
121
  100
AcDbEntity
  8
95 3W MP2A LH1E_R8-R17_DXF_RINGDESIGN_095 3W MPR02A LHS 01E EXST_SURVEYEXPORT_R017
  62
7
  100
AcDb3dPolyline
  10
0
  20
0
  30
0
  70
8
  0
VERTEX
  5
318
  330

  100
AcDbEntity
  8
95 3W MP2A LH1E_R8-R17_DXF_RINGDESIGN_095 3W MPR02A LHS 01E EXST_SURVEYEXPORT_R017
  6
BYLAYER
  62
7
  100
AcDbVertex
  100
AcDb3dPolylineVertex
  10
7081.6436083170574
  20
-23227.255977378787
  30
-992.59362255333463
  70
32
  0
VERTEX
  5
319
  330

  100
AcDbEntity
  8
95 3W MP2A LH1E_R8-R17_DXF_RINGDESIGN_095 3W MPR02A LHS 01E EXST_SURVEYEXPORT_R017
  6
BYLAYER
  62
7
  100
AcDbVertex
  100
AcDb3dPolylineVertex
  10
7082.0086708443378
  20
-23225.893545479041
  30
-990.95844891250181
  70
32
  0
SEQEND
  5
31A
  330

  100
AcDbEntity
  8
95 3W MP2A LH1E_R8-R17_DXF_RINGDESIGN_095 3W MPR02A LHS 01E EXST_SURVEYEXPORT_R017
  0
POLYLINE
  5
31B
  330
121
  100
AcDbEntity
  8
95 3W MP2A LH1E_R8-R17_DXF_RINGDESIGN_095 3W MPR02A LHS 01E EXST_SURVEYEXPORT_R017
  62
7
  100
AcDb3dPolyline
  10
0
  20
0
  30
0
  70
8
  0
VERTEX
  5
31C
  330

  100
AcDbEntity
  8
95 3W MP2A LH1E_R8-R17_DXF_RINGDESIGN_095 3W MPR02A LHS 01E EXST_SURVEYEXPORT_R017
  6
BYLAYER
  62
7
  100
AcDbVertex
  100
AcDb3dPolylineVertex
  10
7080.6415392258705
  20
-23230.9957501398
  30
-992.91831031355446
  70
32
  0
VERTEX
  5
31D
  330

  100
AcDbEntity
  8
95 3W MP2A LH1E_R8-R17_DXF_RINGDESIGN_095 3W MPR02A LHS 01E EXST_SURVEYEXPORT_R017
  6
BYLAYER
  62
7
  100
AcDbVertex
  100
AcDb3dPolylineVertex
  10
7080.3970911488941
  20
-23231.908042782889
  30
-992.08901532949926
  70
32
  0
SEQEND
  5
31E
  330

  100
AcDbEntity
  8
95 3W MP2A LH1E_R8-R17_DXF_RINGDESIGN_095 3W MPR02A LHS 01E EXST_SURVEYEXPORT_R017
  0
POLYLINE
  5
31F
  330
121
  100
AcDbEntity
  8
95 3W MP2A LH1E_R8-R17_DXF_RINGDESIGN_095 3W MPR02A LHS 01E EXST_SURVEYEXPORT_R017
  62
7
  100
AcDb3dPolyline
  10
0
  20
0
  30
0
  70
8
  0
VERTEX
  5
320
  330

  100
AcDbEntity
  8
95 3W MP2A LH1E_R8-R17_DXF_RINGDESIGN_095 3W MPR02A LHS 01E EXST_SURVEYEXPORT_R017
  6
BYLAYER
  62
7
  100
AcDbVertex
  100
AcDb3dPolylineVertex
  10
7080.5028119453382
  20
-23231.513487399141
  30
-993.780435440816
  70
32
  0
VERTEX
  5
321
  330

  100
AcDbEntity
  8
95 3W MP2A LH1E_R8-R17_DXF_RINGDESIGN_095 3W MPR02A LHS 01E EXST_SURVEYEXPORT_R017
  6
BYLAYER
  62
7
  100
AcDbVertex
  100
AcDb3dPolylineVertex
  10
7079.8807168186495
  20
-23233.835178019086
  30
-992.564043235801
  70
32
  0
SEQEND
  5
322
  330

  100
AcDbEntity
  8
95 3W MP2A LH1E_R8-R17_DXF_RINGDESIGN_095 3W MPR02A LHS 01E EXST_SURVEYEXPORT_R017
  0
POLYLINE
  5
323
  330
121
  100
AcDbEntity
  8
95 3W MP2A LH1E_R8-R17_DXF_RINGDESIGN_095 3W MPR02A LHS 01E EXST_SURVEYEXPORT_R017
  62
7
  100
AcDb3dPolyline
  10
0
  20
0
  30
0
  70
8
  0
VERTEX
  5
324
  330

  100
AcDbEntity
  8
95 3W MP2A LH1E_R8-R17_DXF_RINGDESIGN_095 3W MPR02A LHS 01E EXST_SURVEYEXPORT_R017
  6
BYLAYER
  62
7
  100
AcDbVertex
  100
AcDb3dPolylineVertex
  10
7080.4450496584423
  20
-23231.72905918859
  30
-994.51459191709966
  70
32
  0
VERTEX
  5
325
  330

  100
AcDbEntity
  8
95 3W MP2A LH1E_R8-R17_DXF_RINGDESIGN_095 3W MPR02A LHS 01E EXST_SURVEYEXPORT_R017
  6
BYLAYER
  62
7
  100
AcDbVertex
  100
AcDb3dPolylineVertex
  10
7079.1848409355071
  20
-23236.432222170726
  30
-993.147377504739
  70
32
  0
SEQEND
  5
326
  330

  100
AcDbEntity
  8
95 3W MP2A LH1E_R8-R17_DXF_RINGDESIGN_095 3W MPR02A LHS 01E EXST_SURVEYEXPORT_R017
  0
POLYLINE
  5
327
  330
121
  100
AcDbEntity
  8
95 3W MP2A LH1E_R8-R17_DXF_RINGDESIGN_095 3W MPR02A LHS 01E EXST_SURVEYEXPORT_R017
  62
7
  100
AcDb3dPolyline
  10
0
  20
0
  30
0
  70
8
  0
VERTEX
  5
328
  330

  100
AcDbEntity
  8
95 3W MP2A LH1E_R8-R17_DXF_RINGDESIGN_095 3W MPR02A LHS 01E EXST_SURVEYEXPORT_R017
  6
BYLAYER
  62
7
  100
AcDbVertex
  100
AcDb3dPolylineVertex
  10
7080.3817583618984
  20
-23231.965265522973
  30
-995.3190218963922
  70
32
  0
VERTEX
  5
329
  330

  100
AcDbEntity
  8
95 3W MP2A LH1E_R8-R17_DXF_RINGDESIGN_095 3W MPR02A LHS 01E EXST_SURVEYEXPORT_R017
  6
BYLAYER
  62
7
  100
AcDbVertex
  100
AcDb3dPolylineVertex
  10
7079.1317281472557
  20
-23236.63044179502
  30
-995.13109404145587
  70
32
  0
SEQEND
  5
32A
  330

  100
AcDbEntity
  8
95 3W MP2A LH1E_R8-R17_DXF_RINGDESIGN_095 3W MPR02A LHS 01E EXST_SURVEYEXPORT_R017
  0
POLYLINE
  5
32B
  330
121
  100
AcDbEntity
  8
95 3W MP2A LH1E_R8-R17_DXF_RINGDESIGN_095 3W MPR02A LHS 01E EXST_SURVEYEXPORT_R017
  62
7
  100
AcDb3dPolyline
  10
0
  20
0
  30
0
  70
8
  0
VERTEX
  5
32C
  330

  100
AcDbEntity
  8
95 3W MP2A LH1E_R8-R17_DXF_RINGDESIGN_095 3W MPR02A LHS 01E EXST_SURVEYEXPORT_R017
  6
BYLAYER
  62
7
  100
AcDbVertex
  100
AcDb3dPolylineVertex
  10
7080.3094170401591
  20
-23232.235247011191
  30
-996.23847735276672
  70
32
  0
VERTEX
  5
32D
  330

  100
AcDbEntity
  8
95 3W MP2A LH1E_R8-R17_DXF_RINGDESIGN_095 3W MPR02A LHS 01E EXST_SURVEYEXPORT_R017
  6
BYLAYER
  62
7
  100
AcDbVertex
  100
AcDb3dPolylineVertex
  10
7079.1936930668853
  20
-23236.399185566675
  30
-997.696244735485
  70
32
  0
SEQEND
  5
32E
  330

  100
AcDbEntity
  8
95 3W MP2A LH1E_R8-R17_DXF_RINGDESIGN_095 3W MPR02A LHS 01E EXST_SURVEYEXPORT_R017
  0
POLYLINE
  5
32F
  330
121
  100
AcDbEntity
  8
95 3W MP2A LH1E_R8-R17_DXF_RINGDESIGN_095 3W MPR02A LHS 01E EXST_SURVEYEXPORT_R017
  62
7
  100
AcDb3dPolyline
  10
0
  20
0
  30
0
  70
8
  0
VERTEX
  5
330
  330

  100
AcDbEntity
  8
95 3W MP2A LH1E_R8-R17_DXF_RINGDESIGN_095 3W MPR02A LHS 01E EXST_SURVEYEXPORT_R017
  6
BYLAYER
  62
7
  100
AcDbVertex
  100
AcDb3dPolylineVertex
  10
7080.20276001045
  20
-23232.63329646505
  30
-997.43418697296579
  70
32
  0
VERTEX
  5
331
  330

  100
AcDbEntity
  8
95 3W MP2A LH1E_R8-R17_DXF_RINGDESIGN_095 3W MPR02A LHS 01E EXST_SURVEYEXPORT_R017
  6
BYLAYER
  62
7
  100
AcDbVertex
  100
AcDb3dPolylineVertex
  10
7079.6901501015354
  20
-23234.546382689587
  30
-998.28812950673671
  70
32
  0
SEQEND
  5
332
  330

  100
AcDbEntity
  8
95 3W MP2A LH1E_R8-R17_DXF_RINGDESIGN_095 3W MPR02A LHS 01E EXST_SURVEYEXPORT_R017
  0
VIEWPORT
  5
333
  330
122
  100
AcDbEntity
  67
1
  8
0
  100
AcDbViewport
  10
105.029
  20
148.463
  40
24.97
  41
312.78718378906251
  68
1
  69
1
  12
105.029
  22
148.463
  13
0
  23
0
  14
1
  24
1
  15
1
  25
1
  16
0
  26
0
  36
1
  17
0
  27
0
  37
0
  42
50
  43
0
  44
0
  45
312.78718378906251
  50
0
  51
0
  72
1000
  90
32800
  1

  281
0
  71
1
  74
0
  110
0
  120
0
  130
0
  111
1
  121
0
  131
0
  112
0
  122
1
  132
0
  79
0
  146
0
  0
ENDSEC
  0
SECTION
  2
OBJECTS
  0
DICTIONARY
  5
334
  330
0
  100
AcDbDictionary
  281
1
  3
ACAD_GROUP
  350
335
  3
ACAD_LAYOUT
  350
336
  3
ACAD_MLINESTYLE
  350
337
  3
ACAD_PLOTSETTINGS
  350
338
  3
ACAD_PLOTSTYLENAME
  350
339
  3
VECTORDRAW_OBJECTS
  350
33A
  3
DWGPROPS
  350
33B
  0
DICTIONARY
  5
115
  330
114
  100
AcDbDictionary
  280
1
  281
1
  3
ACAD_LAYERFILTERS
  360
33C
  3
ACAD_LAYERSTATES
  360
33D
  3
ACLYDICTIONARY
  360
33E
  0
DICTIONARY
  5
33C
  102
{ACAD_REACTORS
  330
115
  102
}
  330
115
  100
AcDbDictionary
  281
1
  0
DICTIONARY
  5
33D
  102
{ACAD_REACTORS
  330
115
  102
}
  330
115
  100
AcDbDictionary
  281
1
  0
DICTIONARY
  5
33E
  102
{ACAD_REACTORS
  330
115
  102
}
  330
115
  100
AcDbDictionary
  281
1
  1001
ACAD
  1000
<All
  0
DICTIONARY
  5
335
  102
{ACAD_REACTORS
  330
334
  102
}
  330
334
  100
AcDbDictionary
  281
1
  0
DICTIONARY
  5
336
  102
{ACAD_REACTORS
  330
334
  102
}
  330
334
  100
AcDbDictionary
  281
1
  3
Layout1
  350
10F
  3
Model
  350
1
  0
DICTIONARY
  5
337
  102
{ACAD_REACTORS
  330
334
  102
}
  330
334
  100
AcDbDictionary
  281
1
  3
Standard
  350
63
  0
DICTIONARY
  5
338
  102
{ACAD_REACTORS
  330
334
  102
}
  330
334
  100
AcDbDictionary
  281
1
  0
ACDBDICTIONARYWDFLT
  5
339
  102
{ACAD_REACTORS
  330
334
  102
}
  330
334
  100
AcDbDictionary
  281
1
  3
Normal
  350
113
  100
AcDbDictionaryWithDefault
  340
113
  0
DICTIONARY
  5
33A
  102
{ACAD_REACTORS
  330
334
  102
}
  330
334
  100
AcDbDictionary
  281
1
  3
SERIALNO
  350
33F
  0
LAYOUT
  5
10F
  102
{ACAD_REACTORS
  330
336
  102
}
  330
336
  100
AcDbPlotSettings
  1

  2

  4

  6

  40
0
  41
0
  42
0
  43
0
  44
210.058
  45
296.926
  46
0
  47
0
  48
0
  49
0
  140
210.058
  141
296.926
  142
1
  143
1
  70
688
  72
1
  73
0
  74
4
  75
16
  147
1
  148
0
  149
0
  100
AcDbLayout
  1
Layout1
  70
0
  71
1
  10
0
  20
0
  11
12
  21
9
  12
0
  22
0
  32
0
  14
0
  24
0
  34
0
  15
0
  25
0
  35
0
  146
0
  13
0
  23
0
  33
0
  16
1
  26
0
  36
0
  17
0
  27
1
  37
0
  76
0
  330
122
  0
LAYOUT
  5
1
  102
{ACAD_REACTORS
  330
336
  102
}
  330
336
  100
AcDbPlotSettings
  1
VectorDraw Printer Drawing
  2

  4

  6

  40
0
  41
0
  42
0
  43
0
  44
210.058
  45
296.926
  46
0
  47
0
  48
-28.627930798512335
  49
-26.590947489268327
  140
27.658385795032803
  141
29.004739452822268
  142
1
  143
0.26795607210172973
  72
1
  73
0
  74
4
  75
0
  147
1
  148
28.627930798512335
  149
26.590947489268327
  100
AcDbLayout
  1
Model
  70
1
  71
0
  10
10
  20
0
  11
0
  21
10
  12
0
  22
0
  32
0
  14
7135.2092572791071
  24
-23243.223142268598
  34
7074.6966096757651
  15
-23211.361891457214
  25
-998.28812950673671
  35
-998.28812950673671
  146
0
  13
0
  23
0
  33
0
  16
1
  26
0
  36
0
  17
0
  27
1
  37
0
  76
0
  330
121
  0
MLINESTYLE
  5
63
  102
{ACAD_REACTORS
  330
337
  102
}
  330
337
  100
AcDbMlineStyle
  2
Standard
  70
0
  3

  62
0
  51
90
  52
90
  71
2
  49
0.5
  62
7
  6
Continuous
  49
-0.5
  62
7
  6
Continuous
  0
ACDBPLACEHOLDER
  5
113
  102
{ACAD_REACTORS
  330
339
  102
}
  330
339
  0
XRECORD
  5
33F
  102
{ACAD_REACTORS
  330
33A
  102
}
  330
33A
  100
AcDbXrecord
  280
1
  1000
udnjVM6OT3ptXXPNDrqErnGX8
  1070
5
  1070
1
  0
XRECORD
  5
33B
  102
{ACAD_REACTORS
  330
334
  102
}
  330
334
  100
AcDbXrecord
  280
1
  1
DWGPROPS COOKIE
  2

  3

  4

  6

  7

  8

  9

  40
0
  41
0
  42
0
  1

  90
0
  0
ENDSEC
  999
Created By VectorDraw :7.7012.0.1
  0
EOF
