  0
SECTION
  2
HEADER
  9
$ACADVER
  1
AC1015
  9
$ACADMAINTVER
  70
6
  9
$DWGCODEPAGE
  3

  9
$INSBASE
  10
0
  20
0
  30
0
  9
$EXTMIN
  10
7046.7642398239877
  20
-23455.244887446541
  30
-1070.9633211225157
  9
$EXTMAX
  10
7116.4538424064885
  20
-23396.61712654381
  30
-1070.9633211225157
  9
$LIMMIN
  10
0
  20
0
  9
$LIMMAX
  10
10
  20
10
  9
$ORTHOMODE
  70
0
  9
$REGENMODE
  70
1
  9
$FILLMODE
  70
1
  9
$QTEXTMODE
  70
0
  9
$MIRRTEXT
  70
1
  9
$LTSCALE
  40
1
  9
$ATTMODE
  70
1
  9
$TEXTSIZE
  40
0.2
  9
$TRACEWID
  40
0.05
  9
$TEXTSTYLE
  7
STANDARD
  9
$CLAYER
  8
0
  9
$CELTYPE
  6
BYLAYER
  9
$CECOLOR
  62
256
  9
$CELTSCALE
  40
1
  9
$DISPSILH
  70
0
  9
$DIMSCALE
  40
1
  9
$DIMASZ
  40
0.2
  9
$DIMEXO
  40
0.2
  9
$DIMRND
  40
0
  9
$DIMDLE
  40
0
  9
$DIMEXE
  40
0.05
  9
$DIMTP
  40
1
  9
$DIMTM
  40
1
  9
$DIMTXT
  40
1
  9
$DIMTSZ
  40
0.0
  9
$DIMTOL
  70
0
  9
$DIMLIM
  70
0
  9
$DIMTIH
  70
0
  9
$DIMTOH
  70
1
  9
$DIMSE1
  70
0
  9
$DIMSE2
  70
0
  9
$DIMTAD
  70
0
  9
$DIMZIN
  70
1
  9
$DIMBLK
  1
VDDIM_DEFAULT
  9
$DIMASO
  70
1
  9
$DIMSHO
  70
1
  9
$DIMPOST
  1

  9
$DIMAPOST
  1

  9
$DIMALT
  70
0
  9
$DIMBLK1
  1

  9
$DIMBLK2
  1

  9
$DIMSTYLE
  2
STANDARD
  9
$DIMCLRD
  70
0
  9
$DIMCLRE
  70
0
  9
$DIMCLRT
  70
0
  9
$DIMTFAC
  40
1
  9
$DIMSD1
  70
0
  9
$DIMSD2
  70
0
  9
$DIMTOLJ
  70
1
  9
$DIMTXSTY
  7
STANDARD
  9
$DIMAUNIT
  70
1
  9
$DIMADEC
  70
4
  9
$DIMAZIN
  70
0
  9
$DIMLUNIT
  70
2
  9
$LUNITS
  70
2
  9
$LUPREC
  70
4
  9
$FILLETRAD
  40
0
  9
$AUNITS
  70
1
  9
$AUPREC
  70
4
  9
$MENU
  1

  9
$ELEVATION
  40
0
  9
$PELEVATION
  40
0
  9
$THICKNESS
  40
0
  9
$ANGBASE
  50
0
  9
$ANGDIR
  70
0
  9
$PDMODE
  70
2
  9
$PDSIZE
  40
1
  9
$PLINEWID
  40
0
  9
$SPLFRAME
  70
0
  9
$SPLINETYPE
  70
6
  9
$SPLINESEGS
  70
8
  9
$HANDSEED
  5
              258
  9
$SURFTAB1
  70
6
  9
$SURFTAB2
  70
6
  9
$SURFTYPE
  70
6
  9
$SURFU
  70
6
  9
$SURFV
  70
6
  9
$UCSBASE
  2

  9
$UCSNAME
  2

  9
$UCSORG
  10
0
  20
0
  30
0
  9
$UCSXDIR
  10
1
  20
0
  30
0
  9
$UCSYDIR
  10
0
  20
1
  30
0
  9
$UCSORGTOP
  10
0
  20
0
  30
0
  9
$UCSORGBOTTOM
  10
0
  20
0
  30
0
  9
$UCSORGLEFT
  10
0
  20
0
  30
0
  9
$UCSORGRIGHT
  10
0
  20
0
  30
0
  9
$UCSORGFRONT
  10
0
  20
0
  30
0
  9
$UCSORGBACK
  10
0
  20
0
  30
0
  9
$PUCSBASE
  2

  9
$PUCSNAME
  2

  9
$PUCSXDIR
  10
1
  20
0
  30
0
  9
$PUCSYDIR
  10
0
  20
1
  30
0
  9
$PUCSORGTOP
  10
0
  20
0
  30
0
  9
$PUCSORGBOTTOM
  10
0
  20
0
  30
0
  9
$PUCSORGLEFT
  10
0
  20
0
  30
0
  9
$PUCSORGRIGHT
  10
0
  20
0
  30
0
  9
$PUCSORGFRONT
  10
0
  20
0
  30
0
  9
$PUCSORGBACK
  10
0
  20
0
  30
0
  9
$USERI1
  70
0
  9
$USERI2
  70
0
  9
$USERI3
  70
0
  9
$USERI4
  70
0
  9
$USERI5
  70
0
  9
$USERR1
  40
0
  9
$USERR2
  40
0
  9
$USERR3
  40
0
  9
$USERR4
  40
0
  9
$USERR5
  40
0
  9
$TILEMODE
  70
1
  9
$PINSBASE
  10
0
  20
0
  30
0
  9
$LWDISPLAY
  290
1
  9
$INSUNITS
  70
0
  9
$MEASUREMENT
  70
1
  0
ENDSEC
  0
SECTION
  2
CLASSES
  0
CLASS
  1
ACDBDICTIONARYWDFLT
  2
AcDbDictionaryWithDefault
  3
ObjectDBX Classes
  90
0
  280
0
  281
0
  0
CLASS
  1
IMAGEDEF
  2
AcDbRasterImageDef
  3
ISM
  90
0
  280
0
  281
0
  0
CLASS
  1
IMAGE
  2
AcDbRasterImage
  3
ISM
  90
127
  280
0
  281
1
  0
CLASS
  1
IMAGEDEF_REACTOR
  2
AcDbRasterImageDefReactor
  3
ObjectDBX Classes
  90
1
  280
0
  281
0
  0
CLASS
  1
ACDBPLACEHOLDER
  2
AcDbPlaceHolder
  3
ObjectDBX Classes
  90
0
  280
0
  281
0
  0
CLASS
  1
LAYOUT
  2
AcDbLayout
  3
ObjectDBX Classes
  90
0
  280
0
  281
0
  0
CLASS
  1
ARCALIGNEDTEXT
  2
AcDbArcAlignedText
  3
ATEXT|AutoCAD Express Tool|expresstools@autodesk.com
  90
0
  280
0
  281
1
  0
ENDSEC
  0
SECTION
  2
TABLES
  0
TABLE
  2
VPORT
  5
DA
  330
0
  100
AcDbSymbolTable
  70
2
  0
VPORT
  5
DB
  330
DA
  100
AcDbSymbolTableRecord
  100
AcDbViewportTableRecord
  2
*Active
  70
0
  10
0
  20
0
  11
1
  21
1
  12
14.200638328808225
  22
-34.130753463898358
  13
0
  23
0
  14
1
  24
1
  15
1
  25
1
  16
0
  26
0
  36
1
  17
0
  27
0
  37
0
  40
221.77320743179794
  41
1
  42
50
  43
0
  44
0
  50
0
  51
0
  71
0
  72
100
  73
1
  74
3
  75
0
  76
0
  77
0
  78
0
  281
0
  65
1
  110
0
  120
0
  130
0
  111
1
  121
0
  131
0
  112
0
  122
1
  132
0
  79
0
  146
0
  0
ENDTAB
  0
TABLE
  2
LTYPE
  5
DC
  330
0
  100
AcDbSymbolTable
  70
8
  0
LTYPE
  5
1C
  330
DC
  100
AcDbSymbolTableRecord
  100
AcDbLinetypeTableRecord
  2
BYLAYER
  70
0
  3
BYLAYER________________________________________
  72
65
  73
0
  40
0
  0
LTYPE
  5
1D
  330
DC
  100
AcDbSymbolTableRecord
  100
AcDbLinetypeTableRecord
  2
BYBLOCK
  70
0
  3
BYBLOCK________________________________________
  72
65
  73
0
  40
0
  0
LTYPE
  5
1E
  330
DC
  100
AcDbSymbolTableRecord
  100
AcDbLinetypeTableRecord
  2
DASHED0
  70
0
  3
Dashed0 __ __ __ __ __ __ __ __ __ __ __ __ __ _
  72
65
  73
2
  40
1
  49
0.5
  74
0
  49
-0.5
  74
0
  0
LTYPE
  5
1F
  330
DC
  100
AcDbSymbolTableRecord
  100
AcDbLinetypeTableRecord
  2
DOT0
  70
0
  3
Dot0 ........................................
  72
65
  73
8
  40
1
  49
0
  74
0
  49
-0.25
  74
0
  49
0
  74
0
  49
-0.25
  74
0
  49
0
  74
0
  49
-0.25
  74
0
  49
0
  74
0
  49
-0.25
  74
0
  0
LTYPE
  5
20
  330
DC
  100
AcDbSymbolTableRecord
  100
AcDbLinetypeTableRecord
  2
DASHDOT0
  70
0
  3
Dashdot __ . __ . __ . __ . __ . __ . __ . __
  72
65
  73
4
  40
1
  49
0.4
  74
0
  49
-0.3
  74
0
  49
0
  74
0
  49
-0.3
  74
0
  0
LTYPE
  5
21
  330
DC
  100
AcDbSymbolTableRecord
  100
AcDbLinetypeTableRecord
  2
DASHDOTDOT0
  70
0
  3
Dashdot __ . . __ . . __ . . __ . . __ . . __ . . __ . . __
  72
65
  73
6
  40
1
  49
0.3
  74
0
  49
-0.23
  74
0
  49
0
  74
0
  49
-0.24
  74
0
  49
0
  74
0
  49
-0.23
  74
0
  0
LTYPE
  5
22
  330
DC
  100
AcDbSymbolTableRecord
  100
AcDbLinetypeTableRecord
  2
INVISIBLE
  70
0
  3
Invisible(                        )
  72
65
  73
2
  40
2
  49
-1
  74
0
  49
-1
  74
0
  0
ENDTAB
  0
TABLE
  2
LAYER
  5
DE
  102
{ACAD_XDICTIONARY
  360
DF
  102
}
  330
0
  100
AcDbSymbolTable
  70
6
  0
LAYER
  5
62
  330
DE
  100
AcDbSymbolTableRecord
  100
AcDbLayerTableRecord
  2
0
  70
0
  62
7
  6
Continuous
  370
-3
  390
DD
  0
LAYER
  5
6C
  330
DE
  100
AcDbSymbolTableRecord
  100
AcDbLayerTableRecord
  2
100 4W CUT4 LHPS 7EMBR8-R11 RINGS_DXF_RINGDESIGN_100 04W CUT03  LHPS 7E MB RINGS_SURVEYEXPORT
  70
0
  62
7
  6
Continuous
  370
25
  390
DD
  0
LAYER
  5
6D
  330
DE
  100
AcDbSymbolTableRecord
  100
AcDbLayerTableRecord
  2
100 4W CUT4 LHPS 7EMBR8-R11 RINGS_DXF_RINGDESIGN_100 04W CUT03  LHPS 7E MB RINGS_SURVEYEXPORT_R9A
  70
0
  62
7
  6
Continuous
  370
25
  390
DD
  0
LAYER
  5
6E
  330
DE
  100
AcDbSymbolTableRecord
  100
AcDbLayerTableRecord
  2
100 4W CUT4 LHPS 7EMBR8-R11 RINGS_DXF_RINGDESIGN_100 04W CUT03  LHPS 7E MB RINGS_SURVEYEXPORT_R9
  70
0
  62
7
  6
Continuous
  370
25
  390
DD
  0
LAYER
  5
6F
  330
DE
  100
AcDbSymbolTableRecord
  100
AcDbLayerTableRecord
  2
100 4W CUT4 LHPS 7EMBR8-R11 RINGS_DXF_RINGDESIGN_100 04W CUT03  LHPS 7E MB RINGS_SURVEYEXPORT_R10
  70
0
  62
7
  6
Continuous
  370
25
  390
DD
  0
LAYER
  5
70
  330
DE
  100
AcDbSymbolTableRecord
  100
AcDbLayerTableRecord
  2
100 4W CUT4 LHPS 7EMBR8-R11 RINGS_DXF_RINGDESIGN_100 04W CUT03  LHPS 7E MB RINGS_SURVEYEXPORT_R11
  70
0
  62
7
  6
Continuous
  370
25
  390
DD
  0
ENDTAB
  0
TABLE
  2
STYLE
  5
E0
  330
0
  100
AcDbSymbolTable
  70
1
  0
STYLE
  5
64
  330
E0
  100
AcDbSymbolTableRecord
  100
AcDbTextStyleTableRecord
  2
STANDARD
  70
0
  40
1
  41
1
  50
0
  71
0
  42
0.2
  3
Arial
  4

  0
ENDTAB
  0
TABLE
  2
VIEW
  5
E1
  330
0
  100
AcDbSymbolTable
  70
0
  0
ENDTAB
  0
TABLE
  2
UCS
  5
E2
  330
0
  100
AcDbSymbolTable
  70
0
  0
ENDTAB
  0
TABLE
  2
APPID
  5
E3
  330
0
  100
AcDbSymbolTable
  70
6
  0
APPID
  5
E4
  330
E3
  100
AcDbSymbolTableRecord
  100
AcDbRegAppTableRecord
  2
AcAecLayerStandard
  70
0
  0
APPID
  5
E5
  330
E3
  100
AcDbSymbolTableRecord
  100
AcDbRegAppTableRecord
  2
VDEXTRAPARAM
  70
0
  0
APPID
  5
E6
  330
E3
  100
AcDbSymbolTableRecord
  100
AcDbRegAppTableRecord
  2
VDEXTRASOLID2D
  70
0
  0
APPID
  5
E7
  330
E3
  100
AcDbSymbolTableRecord
  100
AcDbRegAppTableRecord
  2
VD_TEMPHATCH
  70
0
  0
APPID
  5
E8
  330
E3
  100
AcDbSymbolTableRecord
  100
AcDbRegAppTableRecord
  2
ACAD
  70
0
  0
APPID
  5
E9
  330
E3
  100
AcDbSymbolTableRecord
  100
AcDbRegAppTableRecord
  2
PE_URL
  70
0
  0
ENDTAB
  0
TABLE
  2
BLOCK_RECORD
  5
EA
  330
0
  100
AcDbSymbolTable
  70
4
  0
BLOCK_RECORD
  5
EB
  330
EA
  100
AcDbSymbolTableRecord
  100
AcDbBlockTableRecord
  2
*Model_Space
  340
1
  0
BLOCK_RECORD
  5
EC
  330
EA
  100
AcDbSymbolTableRecord
  100
AcDbBlockTableRecord
  2
*Paper_Space
  340
D9
  0
BLOCK_RECORD
  5
ED
  330
EA
  100
AcDbSymbolTableRecord
  100
AcDbBlockTableRecord
  2
VDDIM_DEFAULT
  340
0
  0
BLOCK_RECORD
  5
EE
  330
EA
  100
AcDbSymbolTableRecord
  100
AcDbBlockTableRecord
  2
VDDIM_NONE
  340
0
  0
ENDTAB
  0
TABLE
  2
DIMSTYLE
  5
EF
  330
0
  100
AcDbSymbolTable
  70
1
  100
AcDbDimStyleTable
  71
1
  340
69
  0
DIMSTYLE
  105
69
  330
EF
  100
AcDbSymbolTableRecord
  100
AcDbDimStyleTableRecord
  2
STANDARD
  70
0
  41
0.2
  3

  177
0
  42
0.05
  44
0.2
  75
0
  76
0
  40
1
  172
1
  281
0
  282
0
  275
1
  277
2
  179
4
  71
0
  47
1
  48
1
  78
1
  176
0
  178
0
  140
1
  147
0.09
  280
0
  77
1
  73
0
  271
4
  173
1
  340
64
  0
ENDTAB
  0
ENDSEC
  0
SECTION
  2
BLOCKS
  0
BLOCK
  5
F0
  330
EB
  100
AcDbEntity
  8
0
  100
AcDbBlockBegin
  2
*Model_Space
  70
0
  71
0
  10
0
  20
0
  30
0
  3
*Model_Space
  1

  0
ENDBLK
  5
F1
  330
EB
  100
AcDbEntity
  67
1
  8
0
  100
AcDbBlockEnd
  0
BLOCK
  5
F2
  330
EC
  100
AcDbEntity
  8
0
  100
AcDbBlockBegin
  2
*Paper_Space
  70
0
  71
0
  10
0
  20
0
  30
0
  3
*Paper_Space
  1

  0
ENDBLK
  5
F3
  330
EC
  100
AcDbEntity
  67
1
  8
0
  100
AcDbBlockEnd
  0
BLOCK
  5
65
  330
ED
  100
AcDbEntity
  8
0
  100
AcDbBlockBegin
  2
VDDIM_DEFAULT
  70
0
  71
0
  10
0
  20
0
  30
0
  3
VDDIM_DEFAULT
  1

  0
HATCH
  5
66
  330
ED
  100
AcDbEntity
  8
0
  62
0
  370
-2
  100
AcDbHatch
  10
0
  20
0
  30
0
  210
0
  220
0
  230
-1
  2
SOLID
  70
1
  71
0
  91
1
  92
2
  72
0
  73
1
  93
3
  10
0
  20
0
  10
1
  20
-0.1665
  10
1
  20
0.1665
  97
0
  75
0
  76
1
  98
1
  10
0
  20
0
  0
ENDBLK
  5
F4
  330
ED
  100
AcDbEntity
  8
0
  100
AcDbBlockEnd
  0
BLOCK
  5
68
  330
EE
  100
AcDbEntity
  8
0
  100
AcDbBlockBegin
  2
VDDIM_NONE
  70
0
  71
0
  10
0
  20
0
  30
0
  3
VDDIM_NONE
  1

  0
ENDBLK
  5
F5
  330
EE
  100
AcDbEntity
  8
0
  100
AcDbBlockEnd
  0
ENDSEC
  0
SECTION
  2
ENTITIES
  0
POLYLINE
  5
F6
  330
EB
  100
AcDbEntity
  8
100 4W CUT4 LHPS 7EMBR8-R11 RINGS_DXF_RINGDESIGN_100 04W CUT03  LHPS 7E MB RINGS_SURVEYEXPORT
  62
7
  100
AcDb3dPolyline
  10
0
  20
0
  30
0
  70
8
  0
VERTEX
  5
F7
  330

  100
AcDbEntity
  8
100 4W CUT4 LHPS 7EMBR8-R11 RINGS_DXF_RINGDESIGN_100 04W CUT03  LHPS 7E MB RINGS_SURVEYEXPORT
  6
BYLAYER
  62
7
  100
AcDbVertex
  100
AcDb3dPolylineVertex
  10
7046.7642398239877
  20
-23396.61712654381
  30
-1070.9633211225157
  70
32
  0
VERTEX
  5
F8
  330

  100
AcDbEntity
  8
100 4W CUT4 LHPS 7EMBR8-R11 RINGS_DXF_RINGDESIGN_100 04W CUT03  LHPS 7E MB RINGS_SURVEYEXPORT
  6
BYLAYER
  62
7
  100
AcDbVertex
  100
AcDb3dPolylineVertex
  10
7079.6127584198221
  20
-23424.251594568872
  30
-1066.7329292814388
  70
32
  0
VERTEX
  5
F9
  330

  100
AcDbEntity
  8
100 4W CUT4 LHPS 7EMBR8-R11 RINGS_DXF_RINGDESIGN_100 04W CUT03  LHPS 7E MB RINGS_SURVEYEXPORT
  6
BYLAYER
  62
7
  100
AcDbVertex
  100
AcDb3dPolylineVertex
  10
7116.4538424064885
  20
-23455.244887446541
  30
-1065.9987062773173
  70
32
  0
SEQEND
  5
FA
  330

  100
AcDbEntity
  8
100 4W CUT4 LHPS 7EMBR8-R11 RINGS_DXF_RINGDESIGN_100 04W CUT03  LHPS 7E MB RINGS_SURVEYEXPORT
  0
LWPOLYLINE
  5
FB
  330
EB
  100
AcDbEntity
  8
100 4W CUT4 LHPS 7EMBR8-R11 RINGS_DXF_RINGDESIGN_100 04W CUT03  LHPS 7E MB RINGS_SURVEYEXPORT
  62
7
  100
AcDbPolyline
  90
2
  43
0
  38
-1066.536855228926
  10
7097.4981801899139
  20
-23422.963018865339
  10
7081.40413946218
  20
-23442.093671051138
  0
LWPOLYLINE
  5
FC
  330
EB
  100
AcDbEntity
  8
100 4W CUT4 LHPS 7EMBR8-R11 RINGS_DXF_RINGDESIGN_100 04W CUT03  LHPS 7E MB RINGS_SURVEYEXPORT
  62
1
  100
AcDbPolyline
  90
2
  43
0
  38
-1066.536855228926
  10
7095.06476123188
  20
-23420.915856884771
  10
7078.9707205041459
  20
-23440.046509070569
  0
POLYLINE
  5
FD
  330
EB
  100
AcDbEntity
  8
100 4W CUT4 LHPS 7EMBR8-R11 RINGS_DXF_RINGDESIGN_100 04W CUT03  LHPS 7E MB RINGS_SURVEYEXPORT_R9A
  62
7
  100
AcDb3dPolyline
  10
0
  20
0
  30
0
  70
8
  0
VERTEX
  5
FE
  330

  100
AcDbEntity
  8
100 4W CUT4 LHPS 7EMBR8-R11 RINGS_DXF_RINGDESIGN_100 04W CUT03  LHPS 7E MB RINGS_SURVEYEXPORT_R9A
  6
BYLAYER
  62
7
  100
AcDbVertex
  100
AcDb3dPolylineVertex
  10
7091.2874174267208
  20
-23430.980397561943
  30
-1061.8660434322774
  70
32
  0
VERTEX
  5
FF
  330

  100
AcDbEntity
  8
100 4W CUT4 LHPS 7EMBR8-R11 RINGS_DXF_RINGDESIGN_100 04W CUT03  LHPS 7E MB RINGS_SURVEYEXPORT_R9A
  6
BYLAYER
  62
7
  100
AcDbVertex
  100
AcDb3dPolylineVertex
  10
7093.0590645796956
  20
-23429.392684429386
  30
-1058.0529571081506
  70
32
  0
SEQEND
  5
100
  330

  100
AcDbEntity
  8
100 4W CUT4 LHPS 7EMBR8-R11 RINGS_DXF_RINGDESIGN_100 04W CUT03  LHPS 7E MB RINGS_SURVEYEXPORT_R9A
  0
POLYLINE
  5
101
  330
EB
  100
AcDbEntity
  8
100 4W CUT4 LHPS 7EMBR8-R11 RINGS_DXF_RINGDESIGN_100 04W CUT03  LHPS 7E MB RINGS_SURVEYEXPORT_R9A
  62
7
  100
AcDb3dPolyline
  10
0
  20
0
  30
0
  70
8
  0
VERTEX
  5
102
  330

  100
AcDbEntity
  8
100 4W CUT4 LHPS 7EMBR8-R11 RINGS_DXF_RINGDESIGN_100 04W CUT03  LHPS 7E MB RINGS_SURVEYEXPORT_R9A
  6
BYLAYER
  62
7
  100
AcDbVertex
  100
AcDb3dPolylineVertex
  10
7091.0053893420927
  20
-23431.406975220325
  30
-1061.1939668661921
  70
32
  0
VERTEX
  5
103
  330

  100
AcDbEntity
  8
100 4W CUT4 LHPS 7EMBR8-R11 RINGS_DXF_RINGDESIGN_100 04W CUT03  LHPS 7E MB RINGS_SURVEYEXPORT_R9A
  6
BYLAYER
  62
7
  100
AcDbVertex
  100
AcDb3dPolylineVertex
  10
7093.3210041770953
  20
-23429.608084609787
  30
-1054.1769191091719
  70
32
  0
SEQEND
  5
104
  330

  100
AcDbEntity
  8
100 4W CUT4 LHPS 7EMBR8-R11 RINGS_DXF_RINGDESIGN_100 04W CUT03  LHPS 7E MB RINGS_SURVEYEXPORT_R9A
  0
POLYLINE
  5
105
  330
EB
  100
AcDbEntity
  8
100 4W CUT4 LHPS 7EMBR8-R11 RINGS_DXF_RINGDESIGN_100 04W CUT03  LHPS 7E MB RINGS_SURVEYEXPORT_R9A
  62
7
  100
AcDb3dPolyline
  10
0
  20
0
  30
0
  70
8
  0
VERTEX
  5
106
  330

  100
AcDbEntity
  8
100 4W CUT4 LHPS 7EMBR8-R11 RINGS_DXF_RINGDESIGN_100 04W CUT03  LHPS 7E MB RINGS_SURVEYEXPORT_R9A
  6
BYLAYER
  62
7
  100
AcDbVertex
  100
AcDb3dPolylineVertex
  10
7090.5842154175889
  20
-23431.909582832504
  30
-1061.1794938957378
  70
32
  0
VERTEX
  5
107
  330

  100
AcDbEntity
  8
100 4W CUT4 LHPS 7EMBR8-R11 RINGS_DXF_RINGDESIGN_100 04W CUT03  LHPS 7E MB RINGS_SURVEYEXPORT_R9A
  6
BYLAYER
  62
7
  100
AcDbVertex
  100
AcDb3dPolylineVertex
  10
7093.42934025574
  20
-23430.02922495026
  30
-1050.1305024537103
  70
32
  0
SEQEND
  5
108
  330

  100
AcDbEntity
  8
100 4W CUT4 LHPS 7EMBR8-R11 RINGS_DXF_RINGDESIGN_100 04W CUT03  LHPS 7E MB RINGS_SURVEYEXPORT_R9A
  0
POLYLINE
  5
109
  330
EB
  100
AcDbEntity
  8
100 4W CUT4 LHPS 7EMBR8-R11 RINGS_DXF_RINGDESIGN_100 04W CUT03  LHPS 7E MB RINGS_SURVEYEXPORT_R9A
  62
7
  100
AcDb3dPolyline
  10
0
  20
0
  30
0
  70
8
  0
VERTEX
  5
10A
  330

  100
AcDbEntity
  8
100 4W CUT4 LHPS 7EMBR8-R11 RINGS_DXF_RINGDESIGN_100 04W CUT03  LHPS 7E MB RINGS_SURVEYEXPORT_R9A
  6
BYLAYER
  62
7
  100
AcDbVertex
  100
AcDb3dPolylineVertex
  10
7090.2398068196
  20
-23432.317550035026
  30
-1061.1899731162468
  70
32
  0
VERTEX
  5
10B
  330

  100
AcDbEntity
  8
100 4W CUT4 LHPS 7EMBR8-R11 RINGS_DXF_RINGDESIGN_100 04W CUT03  LHPS 7E MB RINGS_SURVEYEXPORT_R9A
  6
BYLAYER
  62
7
  100
AcDbVertex
  100
AcDb3dPolylineVertex
  10
7091.9427715933325
  20
-23431.800457562767
  30
-1050.0997502302655
  70
32
  0
SEQEND
  5
10C
  330

  100
AcDbEntity
  8
100 4W CUT4 LHPS 7EMBR8-R11 RINGS_DXF_RINGDESIGN_100 04W CUT03  LHPS 7E MB RINGS_SURVEYEXPORT_R9A
  0
POLYLINE
  5
10D
  330
EB
  100
AcDbEntity
  8
100 4W CUT4 LHPS 7EMBR8-R11 RINGS_DXF_RINGDESIGN_100 04W CUT03  LHPS 7E MB RINGS_SURVEYEXPORT_R9A
  62
7
  100
AcDb3dPolyline
  10
0
  20
0
  30
0
  70
8
  0
VERTEX
  5
10E
  330

  100
AcDbEntity
  8
100 4W CUT4 LHPS 7EMBR8-R11 RINGS_DXF_RINGDESIGN_100 04W CUT03  LHPS 7E MB RINGS_SURVEYEXPORT_R9A
  6
BYLAYER
  62
7
  100
AcDbVertex
  100
AcDb3dPolylineVertex
  10
7089.8391203035444
  20
-23432.8038952398
  30
-1061.115968026854
  70
32
  0
VERTEX
  5
10F
  330

  100
AcDbEntity
  8
100 4W CUT4 LHPS 7EMBR8-R11 RINGS_DXF_RINGDESIGN_100 04W CUT03  LHPS 7E MB RINGS_SURVEYEXPORT_R9A
  6
BYLAYER
  62
7
  100
AcDbVertex
  100
AcDb3dPolylineVertex
  10
7090.51062571725
  20
-23433.518079532842
  30
-1049.9874644567121
  70
32
  0
SEQEND
  5
110
  330

  100
AcDbEntity
  8
100 4W CUT4 LHPS 7EMBR8-R11 RINGS_DXF_RINGDESIGN_100 04W CUT03  LHPS 7E MB RINGS_SURVEYEXPORT_R9A
  0
POLYLINE
  5
111
  330
EB
  100
AcDbEntity
  8
100 4W CUT4 LHPS 7EMBR8-R11 RINGS_DXF_RINGDESIGN_100 04W CUT03  LHPS 7E MB RINGS_SURVEYEXPORT_R9A
  62
7
  100
AcDb3dPolyline
  10
0
  20
0
  30
0
  70
8
  0
VERTEX
  5
112
  330

  100
AcDbEntity
  8
100 4W CUT4 LHPS 7EMBR8-R11 RINGS_DXF_RINGDESIGN_100 04W CUT03  LHPS 7E MB RINGS_SURVEYEXPORT_R9A
  6
BYLAYER
  62
7
  100
AcDbVertex
  100
AcDb3dPolylineVertex
  10
7089.3844645255285
  20
-23433.356354694282
  30
-1061.027525296277
  70
32
  0
VERTEX
  5
113
  330

  100
AcDbEntity
  8
100 4W CUT4 LHPS 7EMBR8-R11 RINGS_DXF_RINGDESIGN_100 04W CUT03  LHPS 7E MB RINGS_SURVEYEXPORT_R9A
  6
BYLAYER
  62
7
  100
AcDbVertex
  100
AcDb3dPolylineVertex
  10
7089.0491376981345
  20
-23435.248195197404
  30
-1050.0398904482302
  70
32
  0
SEQEND
  5
114
  330

  100
AcDbEntity
  8
100 4W CUT4 LHPS 7EMBR8-R11 RINGS_DXF_RINGDESIGN_100 04W CUT03  LHPS 7E MB RINGS_SURVEYEXPORT_R9A
  0
POLYLINE
  5
115
  330
EB
  100
AcDbEntity
  8
100 4W CUT4 LHPS 7EMBR8-R11 RINGS_DXF_RINGDESIGN_100 04W CUT03  LHPS 7E MB RINGS_SURVEYEXPORT_R9A
  62
7
  100
AcDb3dPolyline
  10
0
  20
0
  30
0
  70
8
  0
VERTEX
  5
116
  330

  100
AcDbEntity
  8
100 4W CUT4 LHPS 7EMBR8-R11 RINGS_DXF_RINGDESIGN_100 04W CUT03  LHPS 7E MB RINGS_SURVEYEXPORT_R9A
  6
BYLAYER
  62
7
  100
AcDbVertex
  100
AcDb3dPolylineVertex
  10
7088.9643969944882
  20
-23433.866785420705
  30
-1060.9458109064719
  70
32
  0
VERTEX
  5
117
  330

  100
AcDbEntity
  8
100 4W CUT4 LHPS 7EMBR8-R11 RINGS_DXF_RINGDESIGN_100 04W CUT03  LHPS 7E MB RINGS_SURVEYEXPORT_R9A
  6
BYLAYER
  62
7
  100
AcDbVertex
  100
AcDb3dPolylineVertex
  10
7087.5925348754763
  20
-23436.99944412088
  30
-1049.8940843458611
  70
32
  0
SEQEND
  5
118
  330

  100
AcDbEntity
  8
100 4W CUT4 LHPS 7EMBR8-R11 RINGS_DXF_RINGDESIGN_100 04W CUT03  LHPS 7E MB RINGS_SURVEYEXPORT_R9A
  0
POLYLINE
  5
119
  330
EB
  100
AcDbEntity
  8
100 4W CUT4 LHPS 7EMBR8-R11 RINGS_DXF_RINGDESIGN_100 04W CUT03  LHPS 7E MB RINGS_SURVEYEXPORT_R9A
  62
7
  100
AcDb3dPolyline
  10
0
  20
0
  30
0
  70
8
  0
VERTEX
  5
11A
  330

  100
AcDbEntity
  8
100 4W CUT4 LHPS 7EMBR8-R11 RINGS_DXF_RINGDESIGN_100 04W CUT03  LHPS 7E MB RINGS_SURVEYEXPORT_R9A
  6
BYLAYER
  62
7
  100
AcDbVertex
  100
AcDb3dPolylineVertex
  10
7088.5080086363905
  20
-23434.350007787623
  30
-1061.3819846680683
  70
32
  0
VERTEX
  5
11B
  330

  100
AcDbEntity
  8
100 4W CUT4 LHPS 7EMBR8-R11 RINGS_DXF_RINGDESIGN_100 04W CUT03  LHPS 7E MB RINGS_SURVEYEXPORT_R9A
  6
BYLAYER
  62
7
  100
AcDbVertex
  100
AcDb3dPolylineVertex
  10
7086.04609653801
  20
-23438.84663465152
  30
-1049.8280709149556
  70
32
  0
SEQEND
  5
11C
  330

  100
AcDbEntity
  8
100 4W CUT4 LHPS 7EMBR8-R11 RINGS_DXF_RINGDESIGN_100 04W CUT03  LHPS 7E MB RINGS_SURVEYEXPORT_R9A
  0
POLYLINE
  5
11D
  330
EB
  100
AcDbEntity
  8
100 4W CUT4 LHPS 7EMBR8-R11 RINGS_DXF_RINGDESIGN_100 04W CUT03  LHPS 7E MB RINGS_SURVEYEXPORT_R9A
  62
7
  100
AcDb3dPolyline
  10
0
  20
0
  30
0
  70
8
  0
VERTEX
  5
11E
  330

  100
AcDbEntity
  8
100 4W CUT4 LHPS 7EMBR8-R11 RINGS_DXF_RINGDESIGN_100 04W CUT03  LHPS 7E MB RINGS_SURVEYEXPORT_R9A
  6
BYLAYER
  62
7
  100
AcDbVertex
  100
AcDb3dPolylineVertex
  10
7088.328872600513
  20
-23434.504381621049
  30
-1061.812893266241
  70
32
  0
VERTEX
  5
11F
  330

  100
AcDbEntity
  8
100 4W CUT4 LHPS 7EMBR8-R11 RINGS_DXF_RINGDESIGN_100 04W CUT03  LHPS 7E MB RINGS_SURVEYEXPORT_R9A
  6
BYLAYER
  62
7
  100
AcDbVertex
  100
AcDb3dPolylineVertex
  10
7084.7614085930945
  20
-23440.274972550651
  30
-1050.5546518711058
  70
32
  0
SEQEND
  5
120
  330

  100
AcDbEntity
  8
100 4W CUT4 LHPS 7EMBR8-R11 RINGS_DXF_RINGDESIGN_100 04W CUT03  LHPS 7E MB RINGS_SURVEYEXPORT_R9A
  0
POLYLINE
  5
121
  330
EB
  100
AcDbEntity
  8
100 4W CUT4 LHPS 7EMBR8-R11 RINGS_DXF_RINGDESIGN_100 04W CUT03  LHPS 7E MB RINGS_SURVEYEXPORT_R9A
  62
7
  100
AcDb3dPolyline
  10
0
  20
0
  30
0
  70
8
  0
VERTEX
  5
122
  330

  100
AcDbEntity
  8
100 4W CUT4 LHPS 7EMBR8-R11 RINGS_DXF_RINGDESIGN_100 04W CUT03  LHPS 7E MB RINGS_SURVEYEXPORT_R9A
  6
BYLAYER
  62
7
  100
AcDbVertex
  100
AcDb3dPolylineVertex
  10
7088.1816107741388
  20
-23434.620161043527
  30
-1062.2489982432185
  70
32
  0
VERTEX
  5
123
  330

  100
AcDbEntity
  8
100 4W CUT4 LHPS 7EMBR8-R11 RINGS_DXF_RINGDESIGN_100 04W CUT03  LHPS 7E MB RINGS_SURVEYEXPORT_R9A
  6
BYLAYER
  62
7
  100
AcDbVertex
  100
AcDb3dPolylineVertex
  10
7084.5273388932947
  20
-23440.084394525336
  30
-1054.0042766390593
  70
32
  0
SEQEND
  5
124
  330

  100
AcDbEntity
  8
100 4W CUT4 LHPS 7EMBR8-R11 RINGS_DXF_RINGDESIGN_100 04W CUT03  LHPS 7E MB RINGS_SURVEYEXPORT_R9A
  0
POLYLINE
  5
125
  330
EB
  100
AcDbEntity
  8
100 4W CUT4 LHPS 7EMBR8-R11 RINGS_DXF_RINGDESIGN_100 04W CUT03  LHPS 7E MB RINGS_SURVEYEXPORT_R9A
  62
7
  100
AcDb3dPolyline
  10
0
  20
0
  30
0
  70
8
  0
VERTEX
  5
126
  330

  100
AcDbEntity
  8
100 4W CUT4 LHPS 7EMBR8-R11 RINGS_DXF_RINGDESIGN_100 04W CUT03  LHPS 7E MB RINGS_SURVEYEXPORT_R9A
  6
BYLAYER
  62
7
  100
AcDbVertex
  100
AcDb3dPolylineVertex
  10
7088.0848046803421
  20
-23434.620988407551
  30
-1063.0896319918547
  70
32
  0
VERTEX
  5
127
  330

  100
AcDbEntity
  8
100 4W CUT4 LHPS 7EMBR8-R11 RINGS_DXF_RINGDESIGN_100 04W CUT03  LHPS 7E MB RINGS_SURVEYEXPORT_R9A
  6
BYLAYER
  62
7
  100
AcDbVertex
  100
AcDb3dPolylineVertex
  10
7084.3408506075139
  20
-23439.932556977466
  30
-1056.752665730434
  70
32
  0
SEQEND
  5
128
  330

  100
AcDbEntity
  8
100 4W CUT4 LHPS 7EMBR8-R11 RINGS_DXF_RINGDESIGN_100 04W CUT03  LHPS 7E MB RINGS_SURVEYEXPORT_R9A
  0
LWPOLYLINE
  5
129
  330
EB
  100
AcDbEntity
  8
100 4W CUT4 LHPS 7EMBR8-R11 RINGS_DXF_RINGDESIGN_100 04W CUT03  LHPS 7E MB RINGS_SURVEYEXPORT
  62
7
  100
AcDbPolyline
  90
2
  43
0
  38
-1066.536855228926
  10
7097.4981801899121
  20
-23422.963018865339
  10
7081.4041394621781
  20
-23442.093671051138
  0
LWPOLYLINE
  5
12A
  330
EB
  100
AcDbEntity
  8
100 4W CUT4 LHPS 7EMBR8-R11 RINGS_DXF_RINGDESIGN_100 04W CUT03  LHPS 7E MB RINGS_SURVEYEXPORT
  62
1
  100
AcDbPolyline
  90
2
  43
0
  38
-1066.536855228926
  10
7095.064761231878
  20
-23420.915856884771
  10
7078.9707205041441
  20
-23440.046509070569
  0
POLYLINE
  5
12B
  330
EB
  100
AcDbEntity
  8
100 4W CUT4 LHPS 7EMBR8-R11 RINGS_DXF_RINGDESIGN_100 04W CUT03  LHPS 7E MB RINGS_SURVEYEXPORT_R9
  62
7
  100
AcDb3dPolyline
  10
0
  20
0
  30
0
  70
8
  0
VERTEX
  5
12C
  330

  100
AcDbEntity
  8
100 4W CUT4 LHPS 7EMBR8-R11 RINGS_DXF_RINGDESIGN_100 04W CUT03  LHPS 7E MB RINGS_SURVEYEXPORT_R9
  6
BYLAYER
  62
7
  100
AcDbVertex
  100
AcDb3dPolylineVertex
  10
7091.0893500378743
  20
-23430.581062253623
  30
-1067.715138612215
  70
32
  0
VERTEX
  5
12D
  330

  100
AcDbEntity
  8
100 4W CUT4 LHPS 7EMBR8-R11 RINGS_DXF_RINGDESIGN_100 04W CUT03  LHPS 7E MB RINGS_SURVEYEXPORT_R9
  6
BYLAYER
  62
7
  100
AcDbVertex
  100
AcDb3dPolylineVertex
  10
7091.7014821675994
  20
-23429.853433495649
  30
-1068.3186980647856
  70
32
  0
SEQEND
  5
12E
  330

  100
AcDbEntity
  8
100 4W CUT4 LHPS 7EMBR8-R11 RINGS_DXF_RINGDESIGN_100 04W CUT03  LHPS 7E MB RINGS_SURVEYEXPORT_R9
  0
POLYLINE
  5
12F
  330
EB
  100
AcDbEntity
  8
100 4W CUT4 LHPS 7EMBR8-R11 RINGS_DXF_RINGDESIGN_100 04W CUT03  LHPS 7E MB RINGS_SURVEYEXPORT_R9
  62
7
  100
AcDb3dPolyline
  10
0
  20
0
  30
0
  70
8
  0
VERTEX
  5
130
  330

  100
AcDbEntity
  8
100 4W CUT4 LHPS 7EMBR8-R11 RINGS_DXF_RINGDESIGN_100 04W CUT03  LHPS 7E MB RINGS_SURVEYEXPORT_R9
  6
BYLAYER
  62
7
  100
AcDbVertex
  100
AcDb3dPolylineVertex
  10
7091.1726496905549
  20
-23430.482045685345
  30
-1067.2313131518927
  70
32
  0
VERTEX
  5
131
  330

  100
AcDbEntity
  8
100 4W CUT4 LHPS 7EMBR8-R11 RINGS_DXF_RINGDESIGN_100 04W CUT03  LHPS 7E MB RINGS_SURVEYEXPORT_R9
  6
BYLAYER
  62
7
  100
AcDbVertex
  100
AcDb3dPolylineVertex
  10
7092.7162834006358
  20
-23428.64716033185
  30
-1068.2939272077315
  70
32
  0
SEQEND
  5
132
  330

  100
AcDbEntity
  8
100 4W CUT4 LHPS 7EMBR8-R11 RINGS_DXF_RINGDESIGN_100 04W CUT03  LHPS 7E MB RINGS_SURVEYEXPORT_R9
  0
POLYLINE
  5
133
  330
EB
  100
AcDbEntity
  8
100 4W CUT4 LHPS 7EMBR8-R11 RINGS_DXF_RINGDESIGN_100 04W CUT03  LHPS 7E MB RINGS_SURVEYEXPORT_R9
  62
7
  100
AcDb3dPolyline
  10
0
  20
0
  30
0
  70
8
  0
VERTEX
  5
134
  330

  100
AcDbEntity
  8
100 4W CUT4 LHPS 7EMBR8-R11 RINGS_DXF_RINGDESIGN_100 04W CUT03  LHPS 7E MB RINGS_SURVEYEXPORT_R9
  6
BYLAYER
  62
7
  100
AcDbVertex
  100
AcDb3dPolylineVertex
  10
7091.2058585951818
  20
-23430.442570949654
  30
-1066.1776217838317
  70
32
  0
VERTEX
  5
135
  330

  100
AcDbEntity
  8
100 4W CUT4 LHPS 7EMBR8-R11 RINGS_DXF_RINGDESIGN_100 04W CUT03  LHPS 7E MB RINGS_SURVEYEXPORT_R9
  6
BYLAYER
  62
7
  100
AcDbVertex
  100
AcDb3dPolylineVertex
  10
7093.1688000113309
  20
-23428.109263228569
  30
-1066.2673395916424
  70
32
  0
SEQEND
  5
136
  330

  100
AcDbEntity
  8
100 4W CUT4 LHPS 7EMBR8-R11 RINGS_DXF_RINGDESIGN_100 04W CUT03  LHPS 7E MB RINGS_SURVEYEXPORT_R9
  0
POLYLINE
  5
137
  330
EB
  100
AcDbEntity
  8
100 4W CUT4 LHPS 7EMBR8-R11 RINGS_DXF_RINGDESIGN_100 04W CUT03  LHPS 7E MB RINGS_SURVEYEXPORT_R9
  62
7
  100
AcDb3dPolyline
  10
0
  20
0
  30
0
  70
8
  0
VERTEX
  5
138
  330

  100
AcDbEntity
  8
100 4W CUT4 LHPS 7EMBR8-R11 RINGS_DXF_RINGDESIGN_100 04W CUT03  LHPS 7E MB RINGS_SURVEYEXPORT_R9
  6
BYLAYER
  62
7
  100
AcDbVertex
  100
AcDb3dPolylineVertex
  10
7091.2085848761262
  20
-23430.43933027608
  30
-1065.0925372035585
  70
32
  0
VERTEX
  5
139
  330

  100
AcDbEntity
  8
100 4W CUT4 LHPS 7EMBR8-R11 RINGS_DXF_RINGDESIGN_100 04W CUT03  LHPS 7E MB RINGS_SURVEYEXPORT_R9
  6
BYLAYER
  62
7
  100
AcDbVertex
  100
AcDb3dPolylineVertex
  10
7093.1083377207151
  20
-23428.181133498547
  30
-1064.0602123488977
  70
32
  0
SEQEND
  5
13A
  330

  100
AcDbEntity
  8
100 4W CUT4 LHPS 7EMBR8-R11 RINGS_DXF_RINGDESIGN_100 04W CUT03  LHPS 7E MB RINGS_SURVEYEXPORT_R9
  0
POLYLINE
  5
13B
  330
EB
  100
AcDbEntity
  8
100 4W CUT4 LHPS 7EMBR8-R11 RINGS_DXF_RINGDESIGN_100 04W CUT03  LHPS 7E MB RINGS_SURVEYEXPORT_R9
  62
7
  100
AcDb3dPolyline
  10
0
  20
0
  30
0
  70
8
  0
VERTEX
  5
13C
  330

  100
AcDbEntity
  8
100 4W CUT4 LHPS 7EMBR8-R11 RINGS_DXF_RINGDESIGN_100 04W CUT03  LHPS 7E MB RINGS_SURVEYEXPORT_R9
  6
BYLAYER
  62
7
  100
AcDbVertex
  100
AcDb3dPolylineVertex
  10
7091.1793022955626
  20
-23430.474137871846
  30
-1063.7640195177567
  70
32
  0
VERTEX
  5
13D
  330

  100
AcDbEntity
  8
100 4W CUT4 LHPS 7EMBR8-R11 RINGS_DXF_RINGDESIGN_100 04W CUT03  LHPS 7E MB RINGS_SURVEYEXPORT_R9
  6
BYLAYER
  62
7
  100
AcDbVertex
  100
AcDb3dPolylineVertex
  10
7093.0781065754081
  20
-23428.217068633538
  30
-1061.3365234110447
  70
32
  0
SEQEND
  5
13E
  330

  100
AcDbEntity
  8
100 4W CUT4 LHPS 7EMBR8-R11 RINGS_DXF_RINGDESIGN_100 04W CUT03  LHPS 7E MB RINGS_SURVEYEXPORT_R9
  0
POLYLINE
  5
13F
  330
EB
  100
AcDbEntity
  8
100 4W CUT4 LHPS 7EMBR8-R11 RINGS_DXF_RINGDESIGN_100 04W CUT03  LHPS 7E MB RINGS_SURVEYEXPORT_R9
  62
7
  100
AcDb3dPolyline
  10
0
  20
0
  30
0
  70
8
  0
VERTEX
  5
140
  330

  100
AcDbEntity
  8
100 4W CUT4 LHPS 7EMBR8-R11 RINGS_DXF_RINGDESIGN_100 04W CUT03  LHPS 7E MB RINGS_SURVEYEXPORT_R9
  6
BYLAYER
  62
7
  100
AcDbVertex
  100
AcDb3dPolylineVertex
  10
7091.0527901542009
  20
-23430.624520228557
  30
-1062.1806445071243
  70
32
  0
VERTEX
  5
141
  330

  100
AcDbEntity
  8
100 4W CUT4 LHPS 7EMBR8-R11 RINGS_DXF_RINGDESIGN_100 04W CUT03  LHPS 7E MB RINGS_SURVEYEXPORT_R9
  6
BYLAYER
  62
7
  100
AcDbVertex
  100
AcDb3dPolylineVertex
  10
7093.229262301943
  20
-23428.037392958595
  30
-1056.6405080009501
  70
32
  0
SEQEND
  5
142
  330

  100
AcDbEntity
  8
100 4W CUT4 LHPS 7EMBR8-R11 RINGS_DXF_RINGDESIGN_100 04W CUT03  LHPS 7E MB RINGS_SURVEYEXPORT_R9
  0
POLYLINE
  5
143
  330
EB
  100
AcDbEntity
  8
100 4W CUT4 LHPS 7EMBR8-R11 RINGS_DXF_RINGDESIGN_100 04W CUT03  LHPS 7E MB RINGS_SURVEYEXPORT_R9
  62
7
  100
AcDb3dPolyline
  10
0
  20
0
  30
0
  70
8
  0
VERTEX
  5
144
  330

  100
AcDbEntity
  8
100 4W CUT4 LHPS 7EMBR8-R11 RINGS_DXF_RINGDESIGN_100 04W CUT03  LHPS 7E MB RINGS_SURVEYEXPORT_R9
  6
BYLAYER
  62
7
  100
AcDbVertex
  100
AcDb3dPolylineVertex
  10
7090.6622234766446
  20
-23431.088778732068
  30
-1061.0936481200108
  70
32
  0
VERTEX
  5
145
  330

  100
AcDbEntity
  8
100 4W CUT4 LHPS 7EMBR8-R11 RINGS_DXF_RINGDESIGN_100 04W CUT03  LHPS 7E MB RINGS_SURVEYEXPORT_R9
  6
BYLAYER
  62
7
  100
AcDbVertex
  100
AcDb3dPolylineVertex
  10
7092.908745703452
  20
-23428.418384386991
  30
-1051.3554523586683
  70
32
  0
SEQEND
  5
146
  330

  100
AcDbEntity
  8
100 4W CUT4 LHPS 7EMBR8-R11 RINGS_DXF_RINGDESIGN_100 04W CUT03  LHPS 7E MB RINGS_SURVEYEXPORT_R9
  0
POLYLINE
  5
147
  330
EB
  100
AcDbEntity
  8
100 4W CUT4 LHPS 7EMBR8-R11 RINGS_DXF_RINGDESIGN_100 04W CUT03  LHPS 7E MB RINGS_SURVEYEXPORT_R9
  62
7
  100
AcDb3dPolyline
  10
0
  20
0
  30
0
  70
8
  0
VERTEX
  5
148
  330

  100
AcDbEntity
  8
100 4W CUT4 LHPS 7EMBR8-R11 RINGS_DXF_RINGDESIGN_100 04W CUT03  LHPS 7E MB RINGS_SURVEYEXPORT_R9
  6
BYLAYER
  62
7
  100
AcDbVertex
  100
AcDb3dPolylineVertex
  10
7090.3174632699229
  20
-23431.4985880344
  30
-1061.1337469925807
  70
32
  0
VERTEX
  5
149
  330

  100
AcDbEntity
  8
100 4W CUT4 LHPS 7EMBR8-R11 RINGS_DXF_RINGDESIGN_100 04W CUT03  LHPS 7E MB RINGS_SURVEYEXPORT_R9
  6
BYLAYER
  62
7
  100
AcDbVertex
  100
AcDb3dPolylineVertex
  10
7092.1213999192
  20
-23429.354285979593
  30
-1050.2314725119247
  70
32
  0
SEQEND
  5
14A
  330

  100
AcDbEntity
  8
100 4W CUT4 LHPS 7EMBR8-R11 RINGS_DXF_RINGDESIGN_100 04W CUT03  LHPS 7E MB RINGS_SURVEYEXPORT_R9
  0
POLYLINE
  5
14B
  330
EB
  100
AcDbEntity
  8
100 4W CUT4 LHPS 7EMBR8-R11 RINGS_DXF_RINGDESIGN_100 04W CUT03  LHPS 7E MB RINGS_SURVEYEXPORT_R9
  62
7
  100
AcDb3dPolyline
  10
0
  20
0
  30
0
  70
8
  0
VERTEX
  5
14C
  330

  100
AcDbEntity
  8
100 4W CUT4 LHPS 7EMBR8-R11 RINGS_DXF_RINGDESIGN_100 04W CUT03  LHPS 7E MB RINGS_SURVEYEXPORT_R9
  6
BYLAYER
  62
7
  100
AcDbVertex
  100
AcDb3dPolylineVertex
  10
7089.8967573781892
  20
-23431.998672396272
  30
-1061.1280427708116
  70
32
  0
VERTEX
  5
14D
  330

  100
AcDbEntity
  8
100 4W CUT4 LHPS 7EMBR8-R11 RINGS_DXF_RINGDESIGN_100 04W CUT03  LHPS 7E MB RINGS_SURVEYEXPORT_R9
  6
BYLAYER
  62
7
  100
AcDbVertex
  100
AcDb3dPolylineVertex
  10
7090.879143237381
  20
-23430.830930714586
  30
-1050.3377570659829
  70
32
  0
SEQEND
  5
14E
  330

  100
AcDbEntity
  8
100 4W CUT4 LHPS 7EMBR8-R11 RINGS_DXF_RINGDESIGN_100 04W CUT03  LHPS 7E MB RINGS_SURVEYEXPORT_R9
  0
POLYLINE
  5
14F
  330
EB
  100
AcDbEntity
  8
100 4W CUT4 LHPS 7EMBR8-R11 RINGS_DXF_RINGDESIGN_100 04W CUT03  LHPS 7E MB RINGS_SURVEYEXPORT_R9
  62
7
  100
AcDb3dPolyline
  10
0
  20
0
  30
0
  70
8
  0
VERTEX
  5
150
  330

  100
AcDbEntity
  8
100 4W CUT4 LHPS 7EMBR8-R11 RINGS_DXF_RINGDESIGN_100 04W CUT03  LHPS 7E MB RINGS_SURVEYEXPORT_R9
  6
BYLAYER
  62
7
  100
AcDbVertex
  100
AcDb3dPolylineVertex
  10
7089.4390923780447
  20
-23432.542689283237
  30
-1061.0595626201571
  70
32
  0
VERTEX
  5
151
  330

  100
AcDbEntity
  8
100 4W CUT4 LHPS 7EMBR8-R11 RINGS_DXF_RINGDESIGN_100 04W CUT03  LHPS 7E MB RINGS_SURVEYEXPORT_R9
  6
BYLAYER
  62
7
  100
AcDbVertex
  100
AcDb3dPolylineVertex
  10
7089.3534420732285
  20
-23432.644500022921
  30
-1050.3612218803405
  70
32
  0
SEQEND
  5
152
  330

  100
AcDbEntity
  8
100 4W CUT4 LHPS 7EMBR8-R11 RINGS_DXF_RINGDESIGN_100 04W CUT03  LHPS 7E MB RINGS_SURVEYEXPORT_R9
  0
POLYLINE
  5
153
  330
EB
  100
AcDbEntity
  8
100 4W CUT4 LHPS 7EMBR8-R11 RINGS_DXF_RINGDESIGN_100 04W CUT03  LHPS 7E MB RINGS_SURVEYEXPORT_R9
  62
7
  100
AcDb3dPolyline
  10
0
  20
0
  30
0
  70
8
  0
VERTEX
  5
154
  330

  100
AcDbEntity
  8
100 4W CUT4 LHPS 7EMBR8-R11 RINGS_DXF_RINGDESIGN_100 04W CUT03  LHPS 7E MB RINGS_SURVEYEXPORT_R9
  6
BYLAYER
  62
7
  100
AcDbVertex
  100
AcDb3dPolylineVertex
  10
7088.9256073345441
  20
-23433.153058297208
  30
-1060.9575398891523
  70
32
  0
VERTEX
  5
155
  330

  100
AcDbEntity
  8
100 4W CUT4 LHPS 7EMBR8-R11 RINGS_DXF_RINGDESIGN_100 04W CUT03  LHPS 7E MB RINGS_SURVEYEXPORT_R9
  6
BYLAYER
  62
7
  100
AcDbVertex
  100
AcDb3dPolylineVertex
  10
7087.8522361112564
  20
-23434.428952392809
  30
-1050.2479240559016
  70
32
  0
SEQEND
  5
156
  330

  100
AcDbEntity
  8
100 4W CUT4 LHPS 7EMBR8-R11 RINGS_DXF_RINGDESIGN_100 04W CUT03  LHPS 7E MB RINGS_SURVEYEXPORT_R9
  0
POLYLINE
  5
157
  330
EB
  100
AcDbEntity
  8
100 4W CUT4 LHPS 7EMBR8-R11 RINGS_DXF_RINGDESIGN_100 04W CUT03  LHPS 7E MB RINGS_SURVEYEXPORT_R9
  62
7
  100
AcDb3dPolyline
  10
0
  20
0
  30
0
  70
8
  0
VERTEX
  5
158
  330

  100
AcDbEntity
  8
100 4W CUT4 LHPS 7EMBR8-R11 RINGS_DXF_RINGDESIGN_100 04W CUT03  LHPS 7E MB RINGS_SURVEYEXPORT_R9
  6
BYLAYER
  62
7
  100
AcDbVertex
  100
AcDb3dPolylineVertex
  10
7088.5158078205159
  20
-23433.640178474259
  30
-1060.99990596597
  70
32
  0
VERTEX
  5
159
  330

  100
AcDbEntity
  8
100 4W CUT4 LHPS 7EMBR8-R11 RINGS_DXF_RINGDESIGN_100 04W CUT03  LHPS 7E MB RINGS_SURVEYEXPORT_R9
  6
BYLAYER
  62
7
  100
AcDbVertex
  100
AcDb3dPolylineVertex
  10
7086.4175171266215
  20
-23436.134373072658
  30
-1050.2168913502928
  70
32
  0
SEQEND
  5
15A
  330

  100
AcDbEntity
  8
100 4W CUT4 LHPS 7EMBR8-R11 RINGS_DXF_RINGDESIGN_100 04W CUT03  LHPS 7E MB RINGS_SURVEYEXPORT_R9
  0
POLYLINE
  5
15B
  330
EB
  100
AcDbEntity
  8
100 4W CUT4 LHPS 7EMBR8-R11 RINGS_DXF_RINGDESIGN_100 04W CUT03  LHPS 7E MB RINGS_SURVEYEXPORT_R9
  62
7
  100
AcDb3dPolyline
  10
0
  20
0
  30
0
  70
8
  0
VERTEX
  5
15C
  330

  100
AcDbEntity
  8
100 4W CUT4 LHPS 7EMBR8-R11 RINGS_DXF_RINGDESIGN_100 04W CUT03  LHPS 7E MB RINGS_SURVEYEXPORT_R9
  6
BYLAYER
  62
7
  100
AcDbVertex
  100
AcDb3dPolylineVertex
  10
7088.1013420571044
  20
-23434.132845325112
  30
-1061.5532260018488
  70
32
  0
VERTEX
  5
15D
  330

  100
AcDbEntity
  8
100 4W CUT4 LHPS 7EMBR8-R11 RINGS_DXF_RINGDESIGN_100 04W CUT03  LHPS 7E MB RINGS_SURVEYEXPORT_R9
  6
BYLAYER
  62
7
  100
AcDbVertex
  100
AcDb3dPolylineVertex
  10
7084.8953152770664
  20
-23437.943782818355
  30
-1050.2677301616025
  70
32
  0
SEQEND
  5
15E
  330

  100
AcDbEntity
  8
100 4W CUT4 LHPS 7EMBR8-R11 RINGS_DXF_RINGDESIGN_100 04W CUT03  LHPS 7E MB RINGS_SURVEYEXPORT_R9
  0
POLYLINE
  5
15F
  330
EB
  100
AcDbEntity
  8
100 4W CUT4 LHPS 7EMBR8-R11 RINGS_DXF_RINGDESIGN_100 04W CUT03  LHPS 7E MB RINGS_SURVEYEXPORT_R9
  62
7
  100
AcDb3dPolyline
  10
0
  20
0
  30
0
  70
8
  0
VERTEX
  5
160
  330

  100
AcDbEntity
  8
100 4W CUT4 LHPS 7EMBR8-R11 RINGS_DXF_RINGDESIGN_100 04W CUT03  LHPS 7E MB RINGS_SURVEYEXPORT_R9
  6
BYLAYER
  62
7
  100
AcDbVertex
  100
AcDb3dPolylineVertex
  10
7087.9545368461113
  20
-23434.307349632516
  30
-1062.0822341525716
  70
32
  0
VERTEX
  5
161
  330

  100
AcDbEntity
  8
100 4W CUT4 LHPS 7EMBR8-R11 RINGS_DXF_RINGDESIGN_100 04W CUT03  LHPS 7E MB RINGS_SURVEYEXPORT_R9
  6
BYLAYER
  62
7
  100
AcDbVertex
  100
AcDb3dPolylineVertex
  10
7083.6880517412183
  20
-23439.378831927006
  30
-1050.5656595308337
  70
32
  0
SEQEND
  5
162
  330

  100
AcDbEntity
  8
100 4W CUT4 LHPS 7EMBR8-R11 RINGS_DXF_RINGDESIGN_100 04W CUT03  LHPS 7E MB RINGS_SURVEYEXPORT_R9
  0
POLYLINE
  5
163
  330
EB
  100
AcDbEntity
  8
100 4W CUT4 LHPS 7EMBR8-R11 RINGS_DXF_RINGDESIGN_100 04W CUT03  LHPS 7E MB RINGS_SURVEYEXPORT_R9
  62
7
  100
AcDb3dPolyline
  10
0
  20
0
  30
0
  70
8
  0
VERTEX
  5
164
  330

  100
AcDbEntity
  8
100 4W CUT4 LHPS 7EMBR8-R11 RINGS_DXF_RINGDESIGN_100 04W CUT03  LHPS 7E MB RINGS_SURVEYEXPORT_R9
  6
BYLAYER
  62
7
  100
AcDbVertex
  100
AcDb3dPolylineVertex
  10
7087.84188281776
  20
-23434.441259137911
  30
-1062.566831226211
  70
32
  0
VERTEX
  5
165
  330

  100
AcDbEntity
  8
100 4W CUT4 LHPS 7EMBR8-R11 RINGS_DXF_RINGDESIGN_100 04W CUT03  LHPS 7E MB RINGS_SURVEYEXPORT_R9
  6
BYLAYER
  62
7
  100
AcDbVertex
  100
AcDb3dPolylineVertex
  10
7083.2856305626
  20
-23439.85718162989
  30
-1052.6991048121627
  70
32
  0
SEQEND
  5
166
  330

  100
AcDbEntity
  8
100 4W CUT4 LHPS 7EMBR8-R11 RINGS_DXF_RINGDESIGN_100 04W CUT03  LHPS 7E MB RINGS_SURVEYEXPORT_R9
  0
POLYLINE
  5
167
  330
EB
  100
AcDbEntity
  8
100 4W CUT4 LHPS 7EMBR8-R11 RINGS_DXF_RINGDESIGN_100 04W CUT03  LHPS 7E MB RINGS_SURVEYEXPORT_R9
  62
7
  100
AcDb3dPolyline
  10
0
  20
0
  30
0
  70
8
  0
VERTEX
  5
168
  330

  100
AcDbEntity
  8
100 4W CUT4 LHPS 7EMBR8-R11 RINGS_DXF_RINGDESIGN_100 04W CUT03  LHPS 7E MB RINGS_SURVEYEXPORT_R9
  6
BYLAYER
  62
7
  100
AcDbVertex
  100
AcDb3dPolylineVertex
  10
7087.86621191888
  20
-23434.412339640356
  30
-1063.3445631818297
  70
32
  0
VERTEX
  5
169
  330

  100
AcDbEntity
  8
100 4W CUT4 LHPS 7EMBR8-R11 RINGS_DXF_RINGDESIGN_100 04W CUT03  LHPS 7E MB RINGS_SURVEYEXPORT_R9
  6
BYLAYER
  62
7
  100
AcDbVertex
  100
AcDb3dPolylineVertex
  10
7083.2506374166314
  20
-23439.898777256232
  30
-1055.7912661717453
  70
32
  0
SEQEND
  5
16A
  330

  100
AcDbEntity
  8
100 4W CUT4 LHPS 7EMBR8-R11 RINGS_DXF_RINGDESIGN_100 04W CUT03  LHPS 7E MB RINGS_SURVEYEXPORT_R9
  0
POLYLINE
  5
16B
  330
EB
  100
AcDbEntity
  8
100 4W CUT4 LHPS 7EMBR8-R11 RINGS_DXF_RINGDESIGN_100 04W CUT03  LHPS 7E MB RINGS_SURVEYEXPORT_R9
  62
7
  100
AcDb3dPolyline
  10
0
  20
0
  30
0
  70
8
  0
VERTEX
  5
16C
  330

  100
AcDbEntity
  8
100 4W CUT4 LHPS 7EMBR8-R11 RINGS_DXF_RINGDESIGN_100 04W CUT03  LHPS 7E MB RINGS_SURVEYEXPORT_R9
  6
BYLAYER
  62
7
  100
AcDbVertex
  100
AcDb3dPolylineVertex
  10
7087.7685299384148
  20
-23434.528452183171
  30
-1063.9643115084634
  70
32
  0
VERTEX
  5
16D
  330

  100
AcDbEntity
  8
100 4W CUT4 LHPS 7EMBR8-R11 RINGS_DXF_RINGDESIGN_100 04W CUT03  LHPS 7E MB RINGS_SURVEYEXPORT_R9
  6
BYLAYER
  62
7
  100
AcDbVertex
  100
AcDb3dPolylineVertex
  10
7083.2856305625992
  20
-23439.85718162989
  30
-1058.5278607723546
  70
32
  0
SEQEND
  5
16E
  330

  100
AcDbEntity
  8
100 4W CUT4 LHPS 7EMBR8-R11 RINGS_DXF_RINGDESIGN_100 04W CUT03  LHPS 7E MB RINGS_SURVEYEXPORT_R9
  0
POLYLINE
  5
16F
  330
EB
  100
AcDbEntity
  8
100 4W CUT4 LHPS 7EMBR8-R11 RINGS_DXF_RINGDESIGN_100 04W CUT03  LHPS 7E MB RINGS_SURVEYEXPORT_R9
  62
7
  100
AcDb3dPolyline
  10
0
  20
0
  30
0
  70
8
  0
VERTEX
  5
170
  330

  100
AcDbEntity
  8
100 4W CUT4 LHPS 7EMBR8-R11 RINGS_DXF_RINGDESIGN_100 04W CUT03  LHPS 7E MB RINGS_SURVEYEXPORT_R9
  6
BYLAYER
  62
7
  100
AcDbVertex
  100
AcDb3dPolylineVertex
  10
7087.7146941153542
  20
-23434.5924457087
  30
-1064.6599533215212
  70
32
  0
VERTEX
  5
171
  330

  100
AcDbEntity
  8
100 4W CUT4 LHPS 7EMBR8-R11 RINGS_DXF_RINGDESIGN_100 04W CUT03  LHPS 7E MB RINGS_SURVEYEXPORT_R9
  6
BYLAYER
  62
7
  100
AcDbVertex
  100
AcDb3dPolylineVertex
  10
7083.1806511246959
  20
-23439.98196850891
  30
-1060.9357169355706
  70
32
  0
SEQEND
  5
172
  330

  100
AcDbEntity
  8
100 4W CUT4 LHPS 7EMBR8-R11 RINGS_DXF_RINGDESIGN_100 04W CUT03  LHPS 7E MB RINGS_SURVEYEXPORT_R9
  0
POLYLINE
  5
173
  330
EB
  100
AcDbEntity
  8
100 4W CUT4 LHPS 7EMBR8-R11 RINGS_DXF_RINGDESIGN_100 04W CUT03  LHPS 7E MB RINGS_SURVEYEXPORT_R9
  62
7
  100
AcDb3dPolyline
  10
0
  20
0
  30
0
  70
8
  0
VERTEX
  5
174
  330

  100
AcDbEntity
  8
100 4W CUT4 LHPS 7EMBR8-R11 RINGS_DXF_RINGDESIGN_100 04W CUT03  LHPS 7E MB RINGS_SURVEYEXPORT_R9
  6
BYLAYER
  62
7
  100
AcDbVertex
  100
AcDb3dPolylineVertex
  10
7087.7114578588053
  20
-23434.596292579688
  30
-1065.2308524379055
  70
32
  0
VERTEX
  5
175
  330

  100
AcDbEntity
  8
100 4W CUT4 LHPS 7EMBR8-R11 RINGS_DXF_RINGDESIGN_100 04W CUT03  LHPS 7E MB RINGS_SURVEYEXPORT_R9
  6
BYLAYER
  62
7
  100
AcDbVertex
  100
AcDb3dPolylineVertex
  10
7083.2331408436476
  20
-23439.9195750694
  30
-1063.0429600801745
  70
32
  0
SEQEND
  5
176
  330

  100
AcDbEntity
  8
100 4W CUT4 LHPS 7EMBR8-R11 RINGS_DXF_RINGDESIGN_100 04W CUT03  LHPS 7E MB RINGS_SURVEYEXPORT_R9
  0
POLYLINE
  5
177
  330
EB
  100
AcDbEntity
  8
100 4W CUT4 LHPS 7EMBR8-R11 RINGS_DXF_RINGDESIGN_100 04W CUT03  LHPS 7E MB RINGS_SURVEYEXPORT_R9
  62
7
  100
AcDb3dPolyline
  10
0
  20
0
  30
0
  70
8
  0
VERTEX
  5
178
  330

  100
AcDbEntity
  8
100 4W CUT4 LHPS 7EMBR8-R11 RINGS_DXF_RINGDESIGN_100 04W CUT03  LHPS 7E MB RINGS_SURVEYEXPORT_R9
  6
BYLAYER
  62
7
  100
AcDbVertex
  100
AcDb3dPolylineVertex
  10
7087.7277660816153
  20
-23434.576907333711
  30
-1065.8109293146292
  70
32
  0
VERTEX
  5
179
  330

  100
AcDbEntity
  8
100 4W CUT4 LHPS 7EMBR8-R11 RINGS_DXF_RINGDESIGN_100 04W CUT03  LHPS 7E MB RINGS_SURVEYEXPORT_R9
  6
BYLAYER
  62
7
  100
AcDbVertex
  100
AcDb3dPolylineVertex
  10
7083.4256031464683
  20
-23439.690799124543
  30
-1065.1231959932402
  70
32
  0
SEQEND
  5
17A
  330

  100
AcDbEntity
  8
100 4W CUT4 LHPS 7EMBR8-R11 RINGS_DXF_RINGDESIGN_100 04W CUT03  LHPS 7E MB RINGS_SURVEYEXPORT_R9
  0
POLYLINE
  5
17B
  330
EB
  100
AcDbEntity
  8
100 4W CUT4 LHPS 7EMBR8-R11 RINGS_DXF_RINGDESIGN_100 04W CUT03  LHPS 7E MB RINGS_SURVEYEXPORT_R9
  62
7
  100
AcDb3dPolyline
  10
0
  20
0
  30
0
  70
8
  0
VERTEX
  5
17C
  330

  100
AcDbEntity
  8
100 4W CUT4 LHPS 7EMBR8-R11 RINGS_DXF_RINGDESIGN_100 04W CUT03  LHPS 7E MB RINGS_SURVEYEXPORT_R9
  6
BYLAYER
  62
7
  100
AcDbVertex
  100
AcDb3dPolylineVertex
  10
7087.6367338726632
  20
-23434.685115431141
  30
-1066.2657116214893
  70
32
  0
VERTEX
  5
17D
  330

  100
AcDbEntity
  8
100 4W CUT4 LHPS 7EMBR8-R11 RINGS_DXF_RINGDESIGN_100 04W CUT03  LHPS 7E MB RINGS_SURVEYEXPORT_R9
  6
BYLAYER
  62
7
  100
AcDbVertex
  100
AcDb3dPolylineVertex
  10
7083.390610000497
  20
-23439.732394750881
  30
-1066.9018348829197
  70
32
  0
SEQEND
  5
17E
  330

  100
AcDbEntity
  8
100 4W CUT4 LHPS 7EMBR8-R11 RINGS_DXF_RINGDESIGN_100 04W CUT03  LHPS 7E MB RINGS_SURVEYEXPORT_R9
  0
POLYLINE
  5
17F
  330
EB
  100
AcDbEntity
  8
100 4W CUT4 LHPS 7EMBR8-R11 RINGS_DXF_RINGDESIGN_100 04W CUT03  LHPS 7E MB RINGS_SURVEYEXPORT_R9
  62
7
  100
AcDb3dPolyline
  10
0
  20
0
  30
0
  70
8
  0
VERTEX
  5
180
  330

  100
AcDbEntity
  8
100 4W CUT4 LHPS 7EMBR8-R11 RINGS_DXF_RINGDESIGN_100 04W CUT03  LHPS 7E MB RINGS_SURVEYEXPORT_R9
  6
BYLAYER
  62
7
  100
AcDbVertex
  100
AcDb3dPolylineVertex
  10
7087.5934575285455
  20
-23434.736557123208
  30
-1066.6143294492497
  70
32
  0
VERTEX
  5
181
  330

  100
AcDbEntity
  8
100 4W CUT4 LHPS 7EMBR8-R11 RINGS_DXF_RINGDESIGN_100 04W CUT03  LHPS 7E MB RINGS_SURVEYEXPORT_R9
  6
BYLAYER
  62
7
  100
AcDbVertex
  100
AcDb3dPolylineVertex
  10
7083.27767934221
  20
-23439.86663308055
  30
-1068.1125409356014
  70
32
  0
SEQEND
  5
182
  330

  100
AcDbEntity
  8
100 4W CUT4 LHPS 7EMBR8-R11 RINGS_DXF_RINGDESIGN_100 04W CUT03  LHPS 7E MB RINGS_SURVEYEXPORT_R9
  0
POLYLINE
  5
183
  330
EB
  100
AcDbEntity
  8
100 4W CUT4 LHPS 7EMBR8-R11 RINGS_DXF_RINGDESIGN_100 04W CUT03  LHPS 7E MB RINGS_SURVEYEXPORT_R9
  62
7
  100
AcDb3dPolyline
  10
0
  20
0
  30
0
  70
8
  0
VERTEX
  5
184
  330

  100
AcDbEntity
  8
100 4W CUT4 LHPS 7EMBR8-R11 RINGS_DXF_RINGDESIGN_100 04W CUT03  LHPS 7E MB RINGS_SURVEYEXPORT_R9
  6
BYLAYER
  62
7
  100
AcDbVertex
  100
AcDb3dPolylineVertex
  10
7087.7967055416311
  20
-23434.494960428405
  30
-1066.836031270351
  70
32
  0
VERTEX
  5
185
  330

  100
AcDbEntity
  8
100 4W CUT4 LHPS 7EMBR8-R11 RINGS_DXF_RINGDESIGN_100 04W CUT03  LHPS 7E MB RINGS_SURVEYEXPORT_R9
  6
BYLAYER
  62
7
  100
AcDbVertex
  100
AcDb3dPolylineVertex
  10
7084.3799634401612
  20
-23438.556370850903
  30
-1068.4437393849264
  70
32
  0
SEQEND
  5
186
  330

  100
AcDbEntity
  8
100 4W CUT4 LHPS 7EMBR8-R11 RINGS_DXF_RINGDESIGN_100 04W CUT03  LHPS 7E MB RINGS_SURVEYEXPORT_R9
  0
POLYLINE
  5
187
  330
EB
  100
AcDbEntity
  8
100 4W CUT4 LHPS 7EMBR8-R11 RINGS_DXF_RINGDESIGN_100 04W CUT03  LHPS 7E MB RINGS_SURVEYEXPORT_R9
  62
7
  100
AcDb3dPolyline
  10
0
  20
0
  30
0
  70
8
  0
VERTEX
  5
188
  330

  100
AcDbEntity
  8
100 4W CUT4 LHPS 7EMBR8-R11 RINGS_DXF_RINGDESIGN_100 04W CUT03  LHPS 7E MB RINGS_SURVEYEXPORT_R9
  6
BYLAYER
  62
7
  100
AcDbVertex
  100
AcDb3dPolylineVertex
  10
7087.8330709879674
  20
-23434.451733577105
  30
-1067.2613239640589
  70
32
  0
VERTEX
  5
189
  330

  100
AcDbEntity
  8
100 4W CUT4 LHPS 7EMBR8-R11 RINGS_DXF_RINGDESIGN_100 04W CUT03  LHPS 7E MB RINGS_SURVEYEXPORT_R9
  6
BYLAYER
  62
7
  100
AcDbVertex
  100
AcDb3dPolylineVertex
  10
7086.3000373593559
  20
-23436.274018833752
  30
-1068.3096333182466
  70
32
  0
SEQEND
  5
18A
  330

  100
AcDbEntity
  8
100 4W CUT4 LHPS 7EMBR8-R11 RINGS_DXF_RINGDESIGN_100 04W CUT03  LHPS 7E MB RINGS_SURVEYEXPORT_R9
  0
LWPOLYLINE
  5
18B
  330
EB
  100
AcDbEntity
  8
100 4W CUT4 LHPS 7EMBR8-R11 RINGS_DXF_RINGDESIGN_100 04W CUT03  LHPS 7E MB RINGS_SURVEYEXPORT
  62
7
  100
AcDbPolyline
  90
2
  43
0
  38
-1066.5673563182506
  10
7095.9677280150481
  20
-23421.67549560712
  10
7079.8736872873142
  20
-23440.806147792919
  0
LWPOLYLINE
  5
18C
  330
EB
  100
AcDbEntity
  8
100 4W CUT4 LHPS 7EMBR8-R11 RINGS_DXF_RINGDESIGN_100 04W CUT03  LHPS 7E MB RINGS_SURVEYEXPORT
  62
1
  100
AcDbPolyline
  90
2
  43
0
  38
-1066.5673563182506
  10
7093.5343090570141
  20
-23419.628333626551
  10
7077.44026832928
  20
-23438.75898581235
  0
POLYLINE
  5
18D
  330
EB
  100
AcDbEntity
  8
100 4W CUT4 LHPS 7EMBR8-R11 RINGS_DXF_RINGDESIGN_100 04W CUT03  LHPS 7E MB RINGS_SURVEYEXPORT_R10
  62
7
  100
AcDb3dPolyline
  10
0
  20
0
  30
0
  70
8
  0
VERTEX
  5
18E
  330

  100
AcDbEntity
  8
100 4W CUT4 LHPS 7EMBR8-R11 RINGS_DXF_RINGDESIGN_100 04W CUT03  LHPS 7E MB RINGS_SURVEYEXPORT_R10
  6
BYLAYER
  62
7
  100
AcDbVertex
  100
AcDb3dPolylineVertex
  10
7089.6379226183726
  20
-23429.199603908834
  30
-1067.6159316537921
  70
32
  0
VERTEX
  5
18F
  330

  100
AcDbEntity
  8
100 4W CUT4 LHPS 7EMBR8-R11 RINGS_DXF_RINGDESIGN_100 04W CUT03  LHPS 7E MB RINGS_SURVEYEXPORT_R10
  6
BYLAYER
  62
7
  100
AcDbVertex
  100
AcDb3dPolylineVertex
  10
7090.4783941480064
  20
-23428.200552845308
  30
-1068.4157361719765
  70
32
  0
SEQEND
  5
190
  330

  100
AcDbEntity
  8
100 4W CUT4 LHPS 7EMBR8-R11 RINGS_DXF_RINGDESIGN_100 04W CUT03  LHPS 7E MB RINGS_SURVEYEXPORT_R10
  0
POLYLINE
  5
191
  330
EB
  100
AcDbEntity
  8
100 4W CUT4 LHPS 7EMBR8-R11 RINGS_DXF_RINGDESIGN_100 04W CUT03  LHPS 7E MB RINGS_SURVEYEXPORT_R10
  62
7
  100
AcDb3dPolyline
  10
0
  20
0
  30
0
  70
8
  0
VERTEX
  5
192
  330

  100
AcDbEntity
  8
100 4W CUT4 LHPS 7EMBR8-R11 RINGS_DXF_RINGDESIGN_100 04W CUT03  LHPS 7E MB RINGS_SURVEYEXPORT_R10
  6
BYLAYER
  62
7
  100
AcDbVertex
  100
AcDb3dPolylineVertex
  10
7089.6840644277172
  20
-23429.144756097732
  30
-1066.8516008325184
  70
32
  0
VERTEX
  5
193
  330

  100
AcDbEntity
  8
100 4W CUT4 LHPS 7EMBR8-R11 RINGS_DXF_RINGDESIGN_100 04W CUT03  LHPS 7E MB RINGS_SURVEYEXPORT_R10
  6
BYLAYER
  62
7
  100
AcDbVertex
  100
AcDb3dPolylineVertex
  10
7091.1883680150731
  20
-23427.356621644834
  30
-1067.6686428112819
  70
32
  0
SEQEND
  5
194
  330

  100
AcDbEntity
  8
100 4W CUT4 LHPS 7EMBR8-R11 RINGS_DXF_RINGDESIGN_100 04W CUT03  LHPS 7E MB RINGS_SURVEYEXPORT_R10
  0
POLYLINE
  5
195
  330
EB
  100
AcDbEntity
  8
100 4W CUT4 LHPS 7EMBR8-R11 RINGS_DXF_RINGDESIGN_100 04W CUT03  LHPS 7E MB RINGS_SURVEYEXPORT_R10
  62
7
  100
AcDb3dPolyline
  10
0
  20
0
  30
0
  70
8
  0
VERTEX
  5
196
  330

  100
AcDbEntity
  8
100 4W CUT4 LHPS 7EMBR8-R11 RINGS_DXF_RINGDESIGN_100 04W CUT03  LHPS 7E MB RINGS_SURVEYEXPORT_R10
  6
BYLAYER
  62
7
  100
AcDbVertex
  100
AcDb3dPolylineVertex
  10
7089.6991066710771
  20
-23429.126875695249
  30
-1066.1564572891632
  70
32
  0
VERTEX
  5
197
  330

  100
AcDbEntity
  8
100 4W CUT4 LHPS 7EMBR8-R11 RINGS_DXF_RINGDESIGN_100 04W CUT03  LHPS 7E MB RINGS_SURVEYEXPORT_R10
  6
BYLAYER
  62
7
  100
AcDbVertex
  100
AcDb3dPolylineVertex
  10
7091.6055974290548
  20
-23426.860669699912
  30
-1066.1752225008147
  70
32
  0
SEQEND
  5
198
  330

  100
AcDbEntity
  8
100 4W CUT4 LHPS 7EMBR8-R11 RINGS_DXF_RINGDESIGN_100 04W CUT03  LHPS 7E MB RINGS_SURVEYEXPORT_R10
  0
POLYLINE
  5
199
  330
EB
  100
AcDbEntity
  8
100 4W CUT4 LHPS 7EMBR8-R11 RINGS_DXF_RINGDESIGN_100 04W CUT03  LHPS 7E MB RINGS_SURVEYEXPORT_R10
  62
7
  100
AcDb3dPolyline
  10
0
  20
0
  30
0
  70
8
  0
VERTEX
  5
19A
  330

  100
AcDbEntity
  8
100 4W CUT4 LHPS 7EMBR8-R11 RINGS_DXF_RINGDESIGN_100 04W CUT03  LHPS 7E MB RINGS_SURVEYEXPORT_R10
  6
BYLAYER
  62
7
  100
AcDbVertex
  100
AcDb3dPolylineVertex
  10
7089.6881744626871
  20
-23429.139870584469
  30
-1065.0886154688433
  70
32
  0
VERTEX
  5
19B
  330

  100
AcDbEntity
  8
100 4W CUT4 LHPS 7EMBR8-R11 RINGS_DXF_RINGDESIGN_100 04W CUT03  LHPS 7E MB RINGS_SURVEYEXPORT_R10
  6
BYLAYER
  62
7
  100
AcDbVertex
  100
AcDb3dPolylineVertex
  10
7091.5216220254206
  20
-23426.96048951933
  30
-1064.0881045407732
  70
32
  0
SEQEND
  5
19C
  330

  100
AcDbEntity
  8
100 4W CUT4 LHPS 7EMBR8-R11 RINGS_DXF_RINGDESIGN_100 04W CUT03  LHPS 7E MB RINGS_SURVEYEXPORT_R10
  0
POLYLINE
  5
19D
  330
EB
  100
AcDbEntity
  8
100 4W CUT4 LHPS 7EMBR8-R11 RINGS_DXF_RINGDESIGN_100 04W CUT03  LHPS 7E MB RINGS_SURVEYEXPORT_R10
  62
7
  100
AcDb3dPolyline
  10
0
  20
0
  30
0
  70
8
  0
VERTEX
  5
19E
  330

  100
AcDbEntity
  8
100 4W CUT4 LHPS 7EMBR8-R11 RINGS_DXF_RINGDESIGN_100 04W CUT03  LHPS 7E MB RINGS_SURVEYEXPORT_R10
  6
BYLAYER
  62
7
  100
AcDbVertex
  100
AcDb3dPolylineVertex
  10
7089.7758133338511
  20
-23429.035696077233
  30
-1063.4338503402755
  70
32
  0
VERTEX
  5
19F
  330

  100
AcDbEntity
  8
100 4W CUT4 LHPS 7EMBR8-R11 RINGS_DXF_RINGDESIGN_100 04W CUT03  LHPS 7E MB RINGS_SURVEYEXPORT_R10
  6
BYLAYER
  62
7
  100
AcDbVertex
  100
AcDb3dPolylineVertex
  10
7091.7105666835878
  20
-23426.735894925656
  30
-1061.0226500369622
  70
32
  0
SEQEND
  5
1A0
  330

  100
AcDbEntity
  8
100 4W CUT4 LHPS 7EMBR8-R11 RINGS_DXF_RINGDESIGN_100 04W CUT03  LHPS 7E MB RINGS_SURVEYEXPORT_R10
  0
POLYLINE
  5
1A1
  330
EB
  100
AcDbEntity
  8
100 4W CUT4 LHPS 7EMBR8-R11 RINGS_DXF_RINGDESIGN_100 04W CUT03  LHPS 7E MB RINGS_SURVEYEXPORT_R10
  62
7
  100
AcDb3dPolyline
  10
0
  20
0
  30
0
  70
8
  0
VERTEX
  5
1A2
  330

  100
AcDbEntity
  8
100 4W CUT4 LHPS 7EMBR8-R11 RINGS_DXF_RINGDESIGN_100 04W CUT03  LHPS 7E MB RINGS_SURVEYEXPORT_R10
  6
BYLAYER
  62
7
  100
AcDbVertex
  100
AcDb3dPolylineVertex
  10
7089.5391448996479
  20
-23429.317018932979
  30
-1061.945965047488
  70
32
  0
VERTEX
  5
1A3
  330

  100
AcDbEntity
  8
100 4W CUT4 LHPS 7EMBR8-R11 RINGS_DXF_RINGDESIGN_100 04W CUT03  LHPS 7E MB RINGS_SURVEYEXPORT_R10
  6
BYLAYER
  62
7
  100
AcDbVertex
  100
AcDb3dPolylineVertex
  10
7091.600610905627
  20
-23426.866597076816
  30
-1057.1026081385719
  70
32
  0
SEQEND
  5
1A4
  330

  100
AcDbEntity
  8
100 4W CUT4 LHPS 7EMBR8-R11 RINGS_DXF_RINGDESIGN_100 04W CUT03  LHPS 7E MB RINGS_SURVEYEXPORT_R10
  0
POLYLINE
  5
1A5
  330
EB
  100
AcDbEntity
  8
100 4W CUT4 LHPS 7EMBR8-R11 RINGS_DXF_RINGDESIGN_100 04W CUT03  LHPS 7E MB RINGS_SURVEYEXPORT_R10
  62
7
  100
AcDb3dPolyline
  10
0
  20
0
  30
0
  70
8
  0
VERTEX
  5
1A6
  330

  100
AcDbEntity
  8
100 4W CUT4 LHPS 7EMBR8-R11 RINGS_DXF_RINGDESIGN_100 04W CUT03  LHPS 7E MB RINGS_SURVEYEXPORT_R10
  6
BYLAYER
  62
7
  100
AcDbVertex
  100
AcDb3dPolylineVertex
  10
7089.070310187064
  20
-23429.874313025295
  30
-1060.8695604054915
  70
32
  0
VERTEX
  5
1A7
  330

  100
AcDbEntity
  8
100 4W CUT4 LHPS 7EMBR8-R11 RINGS_DXF_RINGDESIGN_100 04W CUT03  LHPS 7E MB RINGS_SURVEYEXPORT_R10
  6
BYLAYER
  62
7
  100
AcDbVertex
  100
AcDb3dPolylineVertex
  10
7091.4796343236039
  20
-23427.010399429033
  30
-1051.6306192167747
  70
32
  0
SEQEND
  5
1A8
  330

  100
AcDbEntity
  8
100 4W CUT4 LHPS 7EMBR8-R11 RINGS_DXF_RINGDESIGN_100 04W CUT03  LHPS 7E MB RINGS_SURVEYEXPORT_R10
  0
POLYLINE
  5
1A9
  330
EB
  100
AcDbEntity
  8
100 4W CUT4 LHPS 7EMBR8-R11 RINGS_DXF_RINGDESIGN_100 04W CUT03  LHPS 7E MB RINGS_SURVEYEXPORT_R10
  62
7
  100
AcDb3dPolyline
  10
0
  20
0
  30
0
  70
8
  0
VERTEX
  5
1AA
  330

  100
AcDbEntity
  8
100 4W CUT4 LHPS 7EMBR8-R11 RINGS_DXF_RINGDESIGN_100 04W CUT03  LHPS 7E MB RINGS_SURVEYEXPORT_R10
  6
BYLAYER
  62
7
  100
AcDbVertex
  100
AcDb3dPolylineVertex
  10
7088.7000760916244
  20
-23430.314402610449
  30
-1060.9503522331283
  70
32
  0
VERTEX
  5
1AB
  330

  100
AcDbEntity
  8
100 4W CUT4 LHPS 7EMBR8-R11 RINGS_DXF_RINGDESIGN_100 04W CUT03  LHPS 7E MB RINGS_SURVEYEXPORT_R10
  6
BYLAYER
  62
7
  100
AcDbVertex
  100
AcDb3dPolylineVertex
  10
7090.5139171818455
  20
-23428.158327352259
  30
-1050.7501163273832
  70
32
  0
SEQEND
  5
1AC
  330

  100
AcDbEntity
  8
100 4W CUT4 LHPS 7EMBR8-R11 RINGS_DXF_RINGDESIGN_100 04W CUT03  LHPS 7E MB RINGS_SURVEYEXPORT_R10
  0
POLYLINE
  5
1AD
  330
EB
  100
AcDbEntity
  8
100 4W CUT4 LHPS 7EMBR8-R11 RINGS_DXF_RINGDESIGN_100 04W CUT03  LHPS 7E MB RINGS_SURVEYEXPORT_R10
  62
7
  100
AcDb3dPolyline
  10
0
  20
0
  30
0
  70
8
  0
VERTEX
  5
1AE
  330

  100
AcDbEntity
  8
100 4W CUT4 LHPS 7EMBR8-R11 RINGS_DXF_RINGDESIGN_100 04W CUT03  LHPS 7E MB RINGS_SURVEYEXPORT_R10
  6
BYLAYER
  62
7
  100
AcDbVertex
  100
AcDb3dPolylineVertex
  10
7088.4429786685841
  20
-23430.62000898123
  30
-1060.8963836624112
  70
32
  0
VERTEX
  5
1AF
  330

  100
AcDbEntity
  8
100 4W CUT4 LHPS 7EMBR8-R11 RINGS_DXF_RINGDESIGN_100 04W CUT03  LHPS 7E MB RINGS_SURVEYEXPORT_R10
  6
BYLAYER
  62
7
  100
AcDbVertex
  100
AcDb3dPolylineVertex
  10
7089.3561773903893
  20
-23429.534508613797
  30
-1050.6633748868519
  70
32
  0
SEQEND
  5
1B0
  330

  100
AcDbEntity
  8
100 4W CUT4 LHPS 7EMBR8-R11 RINGS_DXF_RINGDESIGN_100 04W CUT03  LHPS 7E MB RINGS_SURVEYEXPORT_R10
  0
POLYLINE
  5
1B1
  330
EB
  100
AcDbEntity
  8
100 4W CUT4 LHPS 7EMBR8-R11 RINGS_DXF_RINGDESIGN_100 04W CUT03  LHPS 7E MB RINGS_SURVEYEXPORT_R10
  62
7
  100
AcDb3dPolyline
  10
0
  20
0
  30
0
  70
8
  0
VERTEX
  5
1B2
  330

  100
AcDbEntity
  8
100 4W CUT4 LHPS 7EMBR8-R11 RINGS_DXF_RINGDESIGN_100 04W CUT03  LHPS 7E MB RINGS_SURVEYEXPORT_R10
  6
BYLAYER
  62
7
  100
AcDbVertex
  100
AcDb3dPolylineVertex
  10
7087.8746736502544
  20
-23431.295541361513
  30
-1060.8083786576815
  70
32
  0
VERTEX
  5
1B3
  330

  100
AcDbEntity
  8
100 4W CUT4 LHPS 7EMBR8-R11 RINGS_DXF_RINGDESIGN_100 04W CUT03  LHPS 7E MB RINGS_SURVEYEXPORT_R10
  6
BYLAYER
  62
7
  100
AcDbVertex
  100
AcDb3dPolylineVertex
  10
7087.7988153594106
  20
-23431.38571253742
  30
-1050.5566472638955
  70
32
  0
SEQEND
  5
1B4
  330

  100
AcDbEntity
  8
100 4W CUT4 LHPS 7EMBR8-R11 RINGS_DXF_RINGDESIGN_100 04W CUT03  LHPS 7E MB RINGS_SURVEYEXPORT_R10
  0
POLYLINE
  5
1B5
  330
EB
  100
AcDbEntity
  8
100 4W CUT4 LHPS 7EMBR8-R11 RINGS_DXF_RINGDESIGN_100 04W CUT03  LHPS 7E MB RINGS_SURVEYEXPORT_R10
  62
7
  100
AcDb3dPolyline
  10
0
  20
0
  30
0
  70
8
  0
VERTEX
  5
1B6
  330

  100
AcDbEntity
  8
100 4W CUT4 LHPS 7EMBR8-R11 RINGS_DXF_RINGDESIGN_100 04W CUT03  LHPS 7E MB RINGS_SURVEYEXPORT_R10
  6
BYLAYER
  62
7
  100
AcDbVertex
  100
AcDb3dPolylineVertex
  10
7087.3940205449444
  20
-23431.866883731967
  30
-1060.891819228375
  70
32
  0
VERTEX
  5
1B7
  330

  100
AcDbEntity
  8
100 4W CUT4 LHPS 7EMBR8-R11 RINGS_DXF_RINGDESIGN_100 04W CUT03  LHPS 7E MB RINGS_SURVEYEXPORT_R10
  6
BYLAYER
  62
7
  100
AcDbVertex
  100
AcDb3dPolylineVertex
  10
7086.2414533284318
  20
-23433.236916461032
  30
-1050.3431920179819
  70
32
  0
SEQEND
  5
1B8
  330

  100
AcDbEntity
  8
100 4W CUT4 LHPS 7EMBR8-R11 RINGS_DXF_RINGDESIGN_100 04W CUT03  LHPS 7E MB RINGS_SURVEYEXPORT_R10
  0
POLYLINE
  5
1B9
  330
EB
  100
AcDbEntity
  8
100 4W CUT4 LHPS 7EMBR8-R11 RINGS_DXF_RINGDESIGN_100 04W CUT03  LHPS 7E MB RINGS_SURVEYEXPORT_R10
  62
7
  100
AcDb3dPolyline
  10
0
  20
0
  30
0
  70
8
  0
VERTEX
  5
1BA
  330

  100
AcDbEntity
  8
100 4W CUT4 LHPS 7EMBR8-R11 RINGS_DXF_RINGDESIGN_100 04W CUT03  LHPS 7E MB RINGS_SURVEYEXPORT_R10
  6
BYLAYER
  62
7
  100
AcDbVertex
  100
AcDb3dPolylineVertex
  10
7086.9592913338347
  20
-23432.383637322539
  30
-1061.1263578206781
  70
32
  0
VERTEX
  5
1BB
  330

  100
AcDbEntity
  8
100 4W CUT4 LHPS 7EMBR8-R11 RINGS_DXF_RINGDESIGN_100 04W CUT03  LHPS 7E MB RINGS_SURVEYEXPORT_R10
  6
BYLAYER
  62
7
  100
AcDbVertex
  100
AcDb3dPolylineVertex
  10
7084.8215055943047
  20
-23434.92477886198
  30
-1050.1653126463873
  70
32
  0
SEQEND
  5
1BC
  330

  100
AcDbEntity
  8
100 4W CUT4 LHPS 7EMBR8-R11 RINGS_DXF_RINGDESIGN_100 04W CUT03  LHPS 7E MB RINGS_SURVEYEXPORT_R10
  0
POLYLINE
  5
1BD
  330
EB
  100
AcDbEntity
  8
100 4W CUT4 LHPS 7EMBR8-R11 RINGS_DXF_RINGDESIGN_100 04W CUT03  LHPS 7E MB RINGS_SURVEYEXPORT_R10
  62
7
  100
AcDb3dPolyline
  10
0
  20
0
  30
0
  70
8
  0
VERTEX
  5
1BE
  330

  100
AcDbEntity
  8
100 4W CUT4 LHPS 7EMBR8-R11 RINGS_DXF_RINGDESIGN_100 04W CUT03  LHPS 7E MB RINGS_SURVEYEXPORT_R10
  6
BYLAYER
  62
7
  100
AcDbVertex
  100
AcDb3dPolylineVertex
  10
7086.6197578573228
  20
-23432.787233719147
  30
-1061.461989439603
  70
32
  0
VERTEX
  5
1BF
  330

  100
AcDbEntity
  8
100 4W CUT4 LHPS 7EMBR8-R11 RINGS_DXF_RINGDESIGN_100 04W CUT03  LHPS 7E MB RINGS_SURVEYEXPORT_R10
  6
BYLAYER
  62
7
  100
AcDbVertex
  100
AcDb3dPolylineVertex
  10
7083.3099483289443
  20
-23436.72153561137
  30
-1050.0941608977496
  70
32
  0
SEQEND
  5
1C0
  330

  100
AcDbEntity
  8
100 4W CUT4 LHPS 7EMBR8-R11 RINGS_DXF_RINGDESIGN_100 04W CUT03  LHPS 7E MB RINGS_SURVEYEXPORT_R10
  0
POLYLINE
  5
1C1
  330
EB
  100
AcDbEntity
  8
100 4W CUT4 LHPS 7EMBR8-R11 RINGS_DXF_RINGDESIGN_100 04W CUT03  LHPS 7E MB RINGS_SURVEYEXPORT_R10
  62
7
  100
AcDb3dPolyline
  10
0
  20
0
  30
0
  70
8
  0
VERTEX
  5
1C2
  330

  100
AcDbEntity
  8
100 4W CUT4 LHPS 7EMBR8-R11 RINGS_DXF_RINGDESIGN_100 04W CUT03  LHPS 7E MB RINGS_SURVEYEXPORT_R10
  6
BYLAYER
  62
7
  100
AcDbVertex
  100
AcDb3dPolylineVertex
  10
7086.451355344223
  20
-23432.98741029132
  30
-1061.9800114931327
  70
32
  0
VERTEX
  5
1C3
  330

  100
AcDbEntity
  8
100 4W CUT4 LHPS 7EMBR8-R11 RINGS_DXF_RINGDESIGN_100 04W CUT03  LHPS 7E MB RINGS_SURVEYEXPORT_R10
  6
BYLAYER
  62
7
  100
AcDbVertex
  100
AcDb3dPolylineVertex
  10
7082.0732196572844
  20
-23438.19160931541
  30
-1050.6277990125343
  70
32
  0
SEQEND
  5
1C4
  330

  100
AcDbEntity
  8
100 4W CUT4 LHPS 7EMBR8-R11 RINGS_DXF_RINGDESIGN_100 04W CUT03  LHPS 7E MB RINGS_SURVEYEXPORT_R10
  0
POLYLINE
  5
1C5
  330
EB
  100
AcDbEntity
  8
100 4W CUT4 LHPS 7EMBR8-R11 RINGS_DXF_RINGDESIGN_100 04W CUT03  LHPS 7E MB RINGS_SURVEYEXPORT_R10
  62
7
  100
AcDb3dPolyline
  10
0
  20
0
  30
0
  70
8
  0
VERTEX
  5
1C6
  330

  100
AcDbEntity
  8
100 4W CUT4 LHPS 7EMBR8-R11 RINGS_DXF_RINGDESIGN_100 04W CUT03  LHPS 7E MB RINGS_SURVEYEXPORT_R10
  6
BYLAYER
  62
7
  100
AcDbVertex
  100
AcDb3dPolylineVertex
  10
7086.3559676939713
  20
-23433.100795611423
  30
-1062.6349922939651
  70
32
  0
VERTEX
  5
1C7
  330

  100
AcDbEntity
  8
100 4W CUT4 LHPS 7EMBR8-R11 RINGS_DXF_RINGDESIGN_100 04W CUT03  LHPS 7E MB RINGS_SURVEYEXPORT_R10
  6
BYLAYER
  62
7
  100
AcDbVertex
  100
AcDb3dPolylineVertex
  10
7081.8212934463854
  20
-23438.491068773648
  30
-1053.2604137121311
  70
32
  0
SEQEND
  5
1C8
  330

  100
AcDbEntity
  8
100 4W CUT4 LHPS 7EMBR8-R11 RINGS_DXF_RINGDESIGN_100 04W CUT03  LHPS 7E MB RINGS_SURVEYEXPORT_R10
  0
POLYLINE
  5
1C9
  330
EB
  100
AcDbEntity
  8
100 4W CUT4 LHPS 7EMBR8-R11 RINGS_DXF_RINGDESIGN_100 04W CUT03  LHPS 7E MB RINGS_SURVEYEXPORT_R10
  62
7
  100
AcDb3dPolyline
  10
0
  20
0
  30
0
  70
8
  0
VERTEX
  5
1CA
  330

  100
AcDbEntity
  8
100 4W CUT4 LHPS 7EMBR8-R11 RINGS_DXF_RINGDESIGN_100 04W CUT03  LHPS 7E MB RINGS_SURVEYEXPORT_R10
  6
BYLAYER
  62
7
  100
AcDbVertex
  100
AcDb3dPolylineVertex
  10
7086.2937086685915
  20
-23433.174801622732
  30
-1063.0640999122829
  70
32
  0
VERTEX
  5
1CB
  330

  100
AcDbEntity
  8
100 4W CUT4 LHPS 7EMBR8-R11 RINGS_DXF_RINGDESIGN_100 04W CUT03  LHPS 7E MB RINGS_SURVEYEXPORT_R10
  6
BYLAYER
  62
7
  100
AcDbVertex
  100
AcDb3dPolylineVertex
  10
7081.78397417935
  20
-23438.535429411826
  30
-1055.9842168365503
  70
32
  0
SEQEND
  5
1CC
  330

  100
AcDbEntity
  8
100 4W CUT4 LHPS 7EMBR8-R11 RINGS_DXF_RINGDESIGN_100 04W CUT03  LHPS 7E MB RINGS_SURVEYEXPORT_R10
  0
POLYLINE
  5
1CD
  330
EB
  100
AcDbEntity
  8
100 4W CUT4 LHPS 7EMBR8-R11 RINGS_DXF_RINGDESIGN_100 04W CUT03  LHPS 7E MB RINGS_SURVEYEXPORT_R10
  62
7
  100
AcDb3dPolyline
  10
0
  20
0
  30
0
  70
8
  0
VERTEX
  5
1CE
  330

  100
AcDbEntity
  8
100 4W CUT4 LHPS 7EMBR8-R11 RINGS_DXF_RINGDESIGN_100 04W CUT03  LHPS 7E MB RINGS_SURVEYEXPORT_R10
  6
BYLAYER
  62
7
  100
AcDbVertex
  100
AcDb3dPolylineVertex
  10
7086.2566397319706
  20
-23433.218864698334
  30
-1063.9168894640179
  70
32
  0
VERTEX
  5
1CF
  330

  100
AcDbEntity
  8
100 4W CUT4 LHPS 7EMBR8-R11 RINGS_DXF_RINGDESIGN_100 04W CUT03  LHPS 7E MB RINGS_SURVEYEXPORT_R10
  6
BYLAYER
  62
7
  100
AcDbVertex
  100
AcDb3dPolylineVertex
  10
7081.8292329390943
  20
-23438.48163126345
  30
-1059.0189619018818
  70
32
  0
SEQEND
  5
1D0
  330

  100
AcDbEntity
  8
100 4W CUT4 LHPS 7EMBR8-R11 RINGS_DXF_RINGDESIGN_100 04W CUT03  LHPS 7E MB RINGS_SURVEYEXPORT_R10
  0
POLYLINE
  5
1D1
  330
EB
  100
AcDbEntity
  8
100 4W CUT4 LHPS 7EMBR8-R11 RINGS_DXF_RINGDESIGN_100 04W CUT03  LHPS 7E MB RINGS_SURVEYEXPORT_R10
  62
7
  100
AcDb3dPolyline
  10
0
  20
0
  30
0
  70
8
  0
VERTEX
  5
1D2
  330

  100
AcDbEntity
  8
100 4W CUT4 LHPS 7EMBR8-R11 RINGS_DXF_RINGDESIGN_100 04W CUT03  LHPS 7E MB RINGS_SURVEYEXPORT_R10
  6
BYLAYER
  62
7
  100
AcDbVertex
  100
AcDb3dPolylineVertex
  10
7086.2343176741051
  20
-23433.245398465235
  30
-1064.5648675936714
  70
32
  0
VERTEX
  5
1D3
  330

  100
AcDbEntity
  8
100 4W CUT4 LHPS 7EMBR8-R11 RINGS_DXF_RINGDESIGN_100 04W CUT03  LHPS 7E MB RINGS_SURVEYEXPORT_R10
  6
BYLAYER
  62
7
  100
AcDbVertex
  100
AcDb3dPolylineVertex
  10
7081.6918186422436
  20
-23438.644972786122
  30
-1061.0112108637413
  70
32
  0
SEQEND
  5
1D4
  330

  100
AcDbEntity
  8
100 4W CUT4 LHPS 7EMBR8-R11 RINGS_DXF_RINGDESIGN_100 04W CUT03  LHPS 7E MB RINGS_SURVEYEXPORT_R10
  0
POLYLINE
  5
1D5
  330
EB
  100
AcDbEntity
  8
100 4W CUT4 LHPS 7EMBR8-R11 RINGS_DXF_RINGDESIGN_100 04W CUT03  LHPS 7E MB RINGS_SURVEYEXPORT_R10
  62
7
  100
AcDb3dPolyline
  10
0
  20
0
  30
0
  70
8
  0
VERTEX
  5
1D6
  330

  100
AcDbEntity
  8
100 4W CUT4 LHPS 7EMBR8-R11 RINGS_DXF_RINGDESIGN_100 04W CUT03  LHPS 7E MB RINGS_SURVEYEXPORT_R10
  6
BYLAYER
  62
7
  100
AcDbVertex
  100
AcDb3dPolylineVertex
  10
7086.2158831435172
  20
-23433.267311209143
  30
-1065.2348325935764
  70
32
  0
VERTEX
  5
1D7
  330

  100
AcDbEntity
  8
100 4W CUT4 LHPS 7EMBR8-R11 RINGS_DXF_RINGDESIGN_100 04W CUT03  LHPS 7E MB RINGS_SURVEYEXPORT_R10
  6
BYLAYER
  62
7
  100
AcDbVertex
  100
AcDb3dPolylineVertex
  10
7081.7834281734795
  20
-23438.536078437675
  30
-1063.1813391971923
  70
32
  0
SEQEND
  5
1D8
  330

  100
AcDbEntity
  8
100 4W CUT4 LHPS 7EMBR8-R11 RINGS_DXF_RINGDESIGN_100 04W CUT03  LHPS 7E MB RINGS_SURVEYEXPORT_R10
  0
POLYLINE
  5
1D9
  330
EB
  100
AcDbEntity
  8
100 4W CUT4 LHPS 7EMBR8-R11 RINGS_DXF_RINGDESIGN_100 04W CUT03  LHPS 7E MB RINGS_SURVEYEXPORT_R10
  62
7
  100
AcDb3dPolyline
  10
0
  20
0
  30
0
  70
8
  0
VERTEX
  5
1DA
  330

  100
AcDbEntity
  8
100 4W CUT4 LHPS 7EMBR8-R11 RINGS_DXF_RINGDESIGN_100 04W CUT03  LHPS 7E MB RINGS_SURVEYEXPORT_R10
  6
BYLAYER
  62
7
  100
AcDbVertex
  100
AcDb3dPolylineVertex
  10
7086.2170125167795
  20
-23433.265968746578
  30
-1065.5447958078164
  70
32
  0
VERTEX
  5
1DB
  330

  100
AcDbEntity
  8
100 4W CUT4 LHPS 7EMBR8-R11 RINGS_DXF_RINGDESIGN_100 04W CUT03  LHPS 7E MB RINGS_SURVEYEXPORT_R10
  6
BYLAYER
  62
7
  100
AcDbVertex
  100
AcDb3dPolylineVertex
  10
7081.8979400875205
  20
-23438.399960502116
  30
-1065.1024364104121
  70
32
  0
SEQEND
  5
1DC
  330

  100
AcDbEntity
  8
100 4W CUT4 LHPS 7EMBR8-R11 RINGS_DXF_RINGDESIGN_100 04W CUT03  LHPS 7E MB RINGS_SURVEYEXPORT_R10
  0
POLYLINE
  5
1DD
  330
EB
  100
AcDbEntity
  8
100 4W CUT4 LHPS 7EMBR8-R11 RINGS_DXF_RINGDESIGN_100 04W CUT03  LHPS 7E MB RINGS_SURVEYEXPORT_R10
  62
7
  100
AcDb3dPolyline
  10
0
  20
0
  30
0
  70
8
  0
VERTEX
  5
1DE
  330

  100
AcDbEntity
  8
100 4W CUT4 LHPS 7EMBR8-R11 RINGS_DXF_RINGDESIGN_100 04W CUT03  LHPS 7E MB RINGS_SURVEYEXPORT_R10
  6
BYLAYER
  62
7
  100
AcDbVertex
  100
AcDb3dPolylineVertex
  10
7086.2180079708305
  20
-23433.264785471005
  30
-1065.818004096607
  70
32
  0
VERTEX
  5
1DF
  330

  100
AcDbEntity
  8
100 4W CUT4 LHPS 7EMBR8-R11 RINGS_DXF_RINGDESIGN_100 04W CUT03  LHPS 7E MB RINGS_SURVEYEXPORT_R10
  6
BYLAYER
  62
7
  100
AcDbVertex
  100
AcDb3dPolylineVertex
  10
7081.8259618811608
  20
-23438.485519502123
  30
-1066.5176402911338
  70
32
  0
SEQEND
  5
1E0
  330

  100
AcDbEntity
  8
100 4W CUT4 LHPS 7EMBR8-R11 RINGS_DXF_RINGDESIGN_100 04W CUT03  LHPS 7E MB RINGS_SURVEYEXPORT_R10
  0
POLYLINE
  5
1E1
  330
EB
  100
AcDbEntity
  8
100 4W CUT4 LHPS 7EMBR8-R11 RINGS_DXF_RINGDESIGN_100 04W CUT03  LHPS 7E MB RINGS_SURVEYEXPORT_R10
  62
7
  100
AcDb3dPolyline
  10
0
  20
0
  30
0
  70
8
  0
VERTEX
  5
1E2
  330

  100
AcDbEntity
  8
100 4W CUT4 LHPS 7EMBR8-R11 RINGS_DXF_RINGDESIGN_100 04W CUT03  LHPS 7E MB RINGS_SURVEYEXPORT_R10
  6
BYLAYER
  62
7
  100
AcDbVertex
  100
AcDb3dPolylineVertex
  10
7086.2189878886757
  20
-23433.263620663009
  30
-1066.0869483799529
  70
32
  0
VERTEX
  5
1E3
  330

  100
AcDbEntity
  8
100 4W CUT4 LHPS 7EMBR8-R11 RINGS_DXF_RINGDESIGN_100 04W CUT03  LHPS 7E MB RINGS_SURVEYEXPORT_R10
  6
BYLAYER
  62
7
  100
AcDbVertex
  100
AcDb3dPolylineVertex
  10
7081.7296839151559
  20
-23438.599963122095
  30
-1067.9888256801507
  70
32
  0
SEQEND
  5
1E4
  330

  100
AcDbEntity
  8
100 4W CUT4 LHPS 7EMBR8-R11 RINGS_DXF_RINGDESIGN_100 04W CUT03  LHPS 7E MB RINGS_SURVEYEXPORT_R10
  0
POLYLINE
  5
1E5
  330
EB
  100
AcDbEntity
  8
100 4W CUT4 LHPS 7EMBR8-R11 RINGS_DXF_RINGDESIGN_100 04W CUT03  LHPS 7E MB RINGS_SURVEYEXPORT_R10
  62
7
  100
AcDb3dPolyline
  10
0
  20
0
  30
0
  70
8
  0
VERTEX
  5
1E6
  330

  100
AcDbEntity
  8
100 4W CUT4 LHPS 7EMBR8-R11 RINGS_DXF_RINGDESIGN_100 04W CUT03  LHPS 7E MB RINGS_SURVEYEXPORT_R10
  6
BYLAYER
  62
7
  100
AcDbVertex
  100
AcDb3dPolylineVertex
  10
7086.2204636646329
  20
-23433.261866438759
  30
-1066.6064770148507
  70
32
  0
VERTEX
  5
1E7
  330

  100
AcDbEntity
  8
100 4W CUT4 LHPS 7EMBR8-R11 RINGS_DXF_RINGDESIGN_100 04W CUT03  LHPS 7E MB RINGS_SURVEYEXPORT_R10
  6
BYLAYER
  62
7
  100
AcDbVertex
  100
AcDb3dPolylineVertex
  10
7082.6686816103047
  20
-23437.483796050503
  30
-1068.593615543572
  70
32
  0
SEQEND
  5
1E8
  330

  100
AcDbEntity
  8
100 4W CUT4 LHPS 7EMBR8-R11 RINGS_DXF_RINGDESIGN_100 04W CUT03  LHPS 7E MB RINGS_SURVEYEXPORT_R10
  0
POLYLINE
  5
1E9
  330
EB
  100
AcDbEntity
  8
100 4W CUT4 LHPS 7EMBR8-R11 RINGS_DXF_RINGDESIGN_100 04W CUT03  LHPS 7E MB RINGS_SURVEYEXPORT_R10
  62
7
  100
AcDb3dPolyline
  10
0
  20
0
  30
0
  70
8
  0
VERTEX
  5
1EA
  330

  100
AcDbEntity
  8
100 4W CUT4 LHPS 7EMBR8-R11 RINGS_DXF_RINGDESIGN_100 04W CUT03  LHPS 7E MB RINGS_SURVEYEXPORT_R10
  6
BYLAYER
  62
7
  100
AcDbVertex
  100
AcDb3dPolylineVertex
  10
7086.2219470487689
  20
-23433.260103170822
  30
-1067.1410617185647
  70
32
  0
VERTEX
  5
1EB
  330

  100
AcDbEntity
  8
100 4W CUT4 LHPS 7EMBR8-R11 RINGS_DXF_RINGDESIGN_100 04W CUT03  LHPS 7E MB RINGS_SURVEYEXPORT_R10
  6
BYLAYER
  62
7
  100
AcDbVertex
  100
AcDb3dPolylineVertex
  10
7084.4321650865613
  20
-23435.387579842874
  30
-1068.4868879206142
  70
32
  0
SEQEND
  5
1EC
  330

  100
AcDbEntity
  8
100 4W CUT4 LHPS 7EMBR8-R11 RINGS_DXF_RINGDESIGN_100 04W CUT03  LHPS 7E MB RINGS_SURVEYEXPORT_R10
  0
LWPOLYLINE
  5
1ED
  330
EB
  100
AcDbEntity
  8
100 4W CUT4 LHPS 7EMBR8-R11 RINGS_DXF_RINGDESIGN_100 04W CUT03  LHPS 7E MB RINGS_SURVEYEXPORT
  62
7
  100
AcDbPolyline
  90
2
  43
0
  38
-1066.5978574075752
  10
7094.4372758401842
  20
-23420.3879723489
  10
7078.34323511245
  20
-23439.5186245347
  0
LWPOLYLINE
  5
1EE
  330
EB
  100
AcDbEntity
  8
100 4W CUT4 LHPS 7EMBR8-R11 RINGS_DXF_RINGDESIGN_100 04W CUT03  LHPS 7E MB RINGS_SURVEYEXPORT
  62
1
  100
AcDbPolyline
  90
2
  43
0
  38
-1066.5978574075752
  10
7092.00385688215
  20
-23418.340810368332
  10
7075.9098161544161
  20
-23437.471462554131
  0
POLYLINE
  5
1EF
  330
EB
  100
AcDbEntity
  8
100 4W CUT4 LHPS 7EMBR8-R11 RINGS_DXF_RINGDESIGN_100 04W CUT03  LHPS 7E MB RINGS_SURVEYEXPORT_R11
  62
7
  100
AcDb3dPolyline
  10
0
  20
0
  30
0
  70
8
  0
VERTEX
  5
1F0
  330

  100
AcDbEntity
  8
100 4W CUT4 LHPS 7EMBR8-R11 RINGS_DXF_RINGDESIGN_100 04W CUT03  LHPS 7E MB RINGS_SURVEYEXPORT_R11
  6
BYLAYER
  62
7
  100
AcDbVertex
  100
AcDb3dPolylineVertex
  10
7088.7388144880551
  20
-23427.161615088236
  30
-1064.3364597114326
  70
32
  0
VERTEX
  5
1F1
  330

  100
AcDbEntity
  8
100 4W CUT4 LHPS 7EMBR8-R11 RINGS_DXF_RINGDESIGN_100 04W CUT03  LHPS 7E MB RINGS_SURVEYEXPORT_R11
  6
BYLAYER
  62
7
  100
AcDbVertex
  100
AcDb3dPolylineVertex
  10
7090.08554887364
  20
-23425.560779875177
  30
-1059.0810058274824
  70
32
  0
SEQEND
  5
1F2
  330

  100
AcDbEntity
  8
100 4W CUT4 LHPS 7EMBR8-R11 RINGS_DXF_RINGDESIGN_100 04W CUT03  LHPS 7E MB RINGS_SURVEYEXPORT_R11
  0
POLYLINE
  5
1F3
  330
EB
  100
AcDbEntity
  8
100 4W CUT4 LHPS 7EMBR8-R11 RINGS_DXF_RINGDESIGN_100 04W CUT03  LHPS 7E MB RINGS_SURVEYEXPORT_R11
  62
7
  100
AcDb3dPolyline
  10
0
  20
0
  30
0
  70
8
  0
VERTEX
  5
1F4
  330

  100
AcDbEntity
  8
100 4W CUT4 LHPS 7EMBR8-R11 RINGS_DXF_RINGDESIGN_100 04W CUT03  LHPS 7E MB RINGS_SURVEYEXPORT_R11
  6
BYLAYER
  62
7
  100
AcDbVertex
  100
AcDb3dPolylineVertex
  10
7088.1919511846427
  20
-23427.811660147006
  30
-1061.7149637147645
  70
32
  0
VERTEX
  5
1F5
  330

  100
AcDbEntity
  8
100 4W CUT4 LHPS 7EMBR8-R11 RINGS_DXF_RINGDESIGN_100 04W CUT03  LHPS 7E MB RINGS_SURVEYEXPORT_R11
  6
BYLAYER
  62
7
  100
AcDbVertex
  100
AcDb3dPolylineVertex
  10
7089.9700826936478
  20
-23425.698032126867
  30
-1056.8210484113745
  70
32
  0
SEQEND
  5
1F6
  330

  100
AcDbEntity
  8
100 4W CUT4 LHPS 7EMBR8-R11 RINGS_DXF_RINGDESIGN_100 04W CUT03  LHPS 7E MB RINGS_SURVEYEXPORT_R11
  0
POLYLINE
  5
1F7
  330
EB
  100
AcDbEntity
  8
100 4W CUT4 LHPS 7EMBR8-R11 RINGS_DXF_RINGDESIGN_100 04W CUT03  LHPS 7E MB RINGS_SURVEYEXPORT_R11
  62
7
  100
AcDb3dPolyline
  10
0
  20
0
  30
0
  70
8
  0
VERTEX
  5
1F8
  330

  100
AcDbEntity
  8
100 4W CUT4 LHPS 7EMBR8-R11 RINGS_DXF_RINGDESIGN_100 04W CUT03  LHPS 7E MB RINGS_SURVEYEXPORT_R11
  6
BYLAYER
  62
7
  100
AcDbVertex
  100
AcDb3dPolylineVertex
  10
7087.8217651681207
  20
-23428.251692581744
  30
-1060.9870720357035
  70
32
  0
VERTEX
  5
1F9
  330

  100
AcDbEntity
  8
100 4W CUT4 LHPS 7EMBR8-R11 RINGS_DXF_RINGDESIGN_100 04W CUT03  LHPS 7E MB RINGS_SURVEYEXPORT_R11
  6
BYLAYER
  62
7
  100
AcDbVertex
  100
AcDb3dPolylineVertex
  10
7090.131735345637
  20
-23425.505878974505
  30
-1051.8347931599624
  70
32
  0
SEQEND
  5
1FA
  330

  100
AcDbEntity
  8
100 4W CUT4 LHPS 7EMBR8-R11 RINGS_DXF_RINGDESIGN_100 04W CUT03  LHPS 7E MB RINGS_SURVEYEXPORT_R11
  0
POLYLINE
  5
1FB
  330
EB
  100
AcDbEntity
  8
100 4W CUT4 LHPS 7EMBR8-R11 RINGS_DXF_RINGDESIGN_100 04W CUT03  LHPS 7E MB RINGS_SURVEYEXPORT_R11
  62
7
  100
AcDb3dPolyline
  10
0
  20
0
  30
0
  70
8
  0
VERTEX
  5
1FC
  330

  100
AcDbEntity
  8
100 4W CUT4 LHPS 7EMBR8-R11 RINGS_DXF_RINGDESIGN_100 04W CUT03  LHPS 7E MB RINGS_SURVEYEXPORT_R11
  6
BYLAYER
  62
7
  100
AcDbVertex
  100
AcDb3dPolylineVertex
  10
7087.2326853641844
  20
-23428.9519195185
  30
-1060.9240783468363
  70
32
  0
VERTEX
  5
1FD
  330

  100
AcDbEntity
  8
100 4W CUT4 LHPS 7EMBR8-R11 RINGS_DXF_RINGDESIGN_100 04W CUT03  LHPS 7E MB RINGS_SURVEYEXPORT_R11
  6
BYLAYER
  62
7
  100
AcDbVertex
  100
AcDb3dPolylineVertex
  10
7089.1156329616952
  20
-23426.713698789375
  30
-1050.68687828194
  70
32
  0
SEQEND
  5
1FE
  330

  100
AcDbEntity
  8
100 4W CUT4 LHPS 7EMBR8-R11 RINGS_DXF_RINGDESIGN_100 04W CUT03  LHPS 7E MB RINGS_SURVEYEXPORT_R11
  0
POLYLINE
  5
1FF
  330
EB
  100
AcDbEntity
  8
100 4W CUT4 LHPS 7EMBR8-R11 RINGS_DXF_RINGDESIGN_100 04W CUT03  LHPS 7E MB RINGS_SURVEYEXPORT_R11
  62
7
  100
AcDb3dPolyline
  10
0
  20
0
  30
0
  70
8
  0
VERTEX
  5
200
  330

  100
AcDbEntity
  8
100 4W CUT4 LHPS 7EMBR8-R11 RINGS_DXF_RINGDESIGN_100 04W CUT03  LHPS 7E MB RINGS_SURVEYEXPORT_R11
  6
BYLAYER
  62
7
  100
AcDbVertex
  100
AcDb3dPolylineVertex
  10
7086.9748088902752
  20
-23429.258451930873
  30
-1060.9223905921085
  70
32
  0
VERTEX
  5
201
  330

  100
AcDbEntity
  8
100 4W CUT4 LHPS 7EMBR8-R11 RINGS_DXF_RINGDESIGN_100 04W CUT03  LHPS 7E MB RINGS_SURVEYEXPORT_R11
  6
BYLAYER
  62
7
  100
AcDbVertex
  100
AcDb3dPolylineVertex
  10
7087.7069455657829
  20
-23428.388176259985
  30
-1050.6868782819404
  70
32
  0
SEQEND
  5
202
  330

  100
AcDbEntity
  8
100 4W CUT4 LHPS 7EMBR8-R11 RINGS_DXF_RINGDESIGN_100 04W CUT03  LHPS 7E MB RINGS_SURVEYEXPORT_R11
  0
POLYLINE
  5
203
  330
EB
  100
AcDbEntity
  8
100 4W CUT4 LHPS 7EMBR8-R11 RINGS_DXF_RINGDESIGN_100 04W CUT03  LHPS 7E MB RINGS_SURVEYEXPORT_R11
  62
7
  100
AcDb3dPolyline
  10
0
  20
0
  30
0
  70
8
  0
VERTEX
  5
204
  330

  100
AcDbEntity
  8
100 4W CUT4 LHPS 7EMBR8-R11 RINGS_DXF_RINGDESIGN_100 04W CUT03  LHPS 7E MB RINGS_SURVEYEXPORT_R11
  6
BYLAYER
  62
7
  100
AcDbVertex
  100
AcDb3dPolylineVertex
  10
7086.3368423249776
  20
-23430.016789546229
  30
-1061.0103920390522
  70
32
  0
VERTEX
  5
205
  330

  100
AcDbEntity
  8
100 4W CUT4 LHPS 7EMBR8-R11 RINGS_DXF_RINGDESIGN_100 04W CUT03  LHPS 7E MB RINGS_SURVEYEXPORT_R11
  6
BYLAYER
  62
7
  100
AcDbVertex
  100
AcDb3dPolylineVertex
  10
7086.27516493387
  20
-23430.090104180941
  30
-1050.5433889221877
  70
32
  0
SEQEND
  5
206
  330

  100
AcDbEntity
  8
100 4W CUT4 LHPS 7EMBR8-R11 RINGS_DXF_RINGDESIGN_100 04W CUT03  LHPS 7E MB RINGS_SURVEYEXPORT_R11
  0
POLYLINE
  5
207
  330
EB
  100
AcDbEntity
  8
100 4W CUT4 LHPS 7EMBR8-R11 RINGS_DXF_RINGDESIGN_100 04W CUT03  LHPS 7E MB RINGS_SURVEYEXPORT_R11
  62
7
  100
AcDb3dPolyline
  10
0
  20
0
  30
0
  70
8
  0
VERTEX
  5
208
  330

  100
AcDbEntity
  8
100 4W CUT4 LHPS 7EMBR8-R11 RINGS_DXF_RINGDESIGN_100 04W CUT03  LHPS 7E MB RINGS_SURVEYEXPORT_R11
  6
BYLAYER
  62
7
  100
AcDbVertex
  100
AcDb3dPolylineVertex
  10
7085.8503837595817
  20
-23430.5950327466
  30
-1061.0739471344411
  70
32
  0
VERTEX
  5
209
  330

  100
AcDbEntity
  8
100 4W CUT4 LHPS 7EMBR8-R11 RINGS_DXF_RINGDESIGN_100 04W CUT03  LHPS 7E MB RINGS_SURVEYEXPORT_R11
  6
BYLAYER
  62
7
  100
AcDbVertex
  100
AcDb3dPolylineVertex
  10
7084.7510113579638
  20
-23431.901833903241
  30
-1050.3640272224961
  70
32
  0
SEQEND
  5
20A
  330

  100
AcDbEntity
  8
100 4W CUT4 LHPS 7EMBR8-R11 RINGS_DXF_RINGDESIGN_100 04W CUT03  LHPS 7E MB RINGS_SURVEYEXPORT_R11
  0
POLYLINE
  5
20B
  330
EB
  100
AcDbEntity
  8
100 4W CUT4 LHPS 7EMBR8-R11 RINGS_DXF_RINGDESIGN_100 04W CUT03  LHPS 7E MB RINGS_SURVEYEXPORT_R11
  62
7
  100
AcDb3dPolyline
  10
0
  20
0
  30
0
  70
8
  0
VERTEX
  5
20C
  330

  100
AcDbEntity
  8
100 4W CUT4 LHPS 7EMBR8-R11 RINGS_DXF_RINGDESIGN_100 04W CUT03  LHPS 7E MB RINGS_SURVEYEXPORT_R11
  6
BYLAYER
  62
7
  100
AcDbVertex
  100
AcDb3dPolylineVertex
  10
7085.4314049214718
  20
-23431.09306419568
  30
-1061.1112897909663
  70
32
  0
VERTEX
  5
20D
  330

  100
AcDbEntity
  8
100 4W CUT4 LHPS 7EMBR8-R11 RINGS_DXF_RINGDESIGN_100 04W CUT03  LHPS 7E MB RINGS_SURVEYEXPORT_R11
  6
BYLAYER
  62
7
  100
AcDbVertex
  100
AcDb3dPolylineVertex
  10
7083.2268577820587
  20
-23433.713563625548
  30
-1049.790069783485
  70
32
  0
SEQEND
  5
20E
  330

  100
AcDbEntity
  8
100 4W CUT4 LHPS 7EMBR8-R11 RINGS_DXF_RINGDESIGN_100 04W CUT03  LHPS 7E MB RINGS_SURVEYEXPORT_R11
  0
POLYLINE
  5
20F
  330
EB
  100
AcDbEntity
  8
100 4W CUT4 LHPS 7EMBR8-R11 RINGS_DXF_RINGDESIGN_100 04W CUT03  LHPS 7E MB RINGS_SURVEYEXPORT_R11
  62
7
  100
AcDb3dPolyline
  10
0
  20
0
  30
0
  70
8
  0
VERTEX
  5
210
  330

  100
AcDbEntity
  8
100 4W CUT4 LHPS 7EMBR8-R11 RINGS_DXF_RINGDESIGN_100 04W CUT03  LHPS 7E MB RINGS_SURVEYEXPORT_R11
  6
BYLAYER
  62
7
  100
AcDbVertex
  100
AcDb3dPolylineVertex
  10
7085.1007296904045
  20
-23431.486130979782
  30
-1061.4836946391133
  70
32
  0
VERTEX
  5
211
  330

  100
AcDbEntity
  8
100 4W CUT4 LHPS 7EMBR8-R11 RINGS_DXF_RINGDESIGN_100 04W CUT03  LHPS 7E MB RINGS_SURVEYEXPORT_R11
  6
BYLAYER
  62
7
  100
AcDbVertex
  100
AcDb3dPolylineVertex
  10
7081.7027042061491
  20
-23435.525293347859
  30
-1049.861814463362
  70
32
  0
SEQEND
  5
212
  330

  100
AcDbEntity
  8
100 4W CUT4 LHPS 7EMBR8-R11 RINGS_DXF_RINGDESIGN_100 04W CUT03  LHPS 7E MB RINGS_SURVEYEXPORT_R11
  0
POLYLINE
  5
213
  330
EB
  100
AcDbEntity
  8
100 4W CUT4 LHPS 7EMBR8-R11 RINGS_DXF_RINGDESIGN_100 04W CUT03  LHPS 7E MB RINGS_SURVEYEXPORT_R11
  62
7
  100
AcDb3dPolyline
  10
0
  20
0
  30
0
  70
8
  0
VERTEX
  5
214
  330

  100
AcDbEntity
  8
100 4W CUT4 LHPS 7EMBR8-R11 RINGS_DXF_RINGDESIGN_100 04W CUT03  LHPS 7E MB RINGS_SURVEYEXPORT_R11
  6
BYLAYER
  62
7
  100
AcDbVertex
  100
AcDb3dPolylineVertex
  10
7084.8173528580764
  20
-23431.822975138966
  30
-1061.7825884515605
  70
32
  0
VERTEX
  5
215
  330

  100
AcDbEntity
  8
100 4W CUT4 LHPS 7EMBR8-R11 RINGS_DXF_RINGDESIGN_100 04W CUT03  LHPS 7E MB RINGS_SURVEYEXPORT_R11
  6
BYLAYER
  62
7
  100
AcDbVertex
  100
AcDb3dPolylineVertex
  10
7080.5711356422171
  20
-23436.870365414419
  30
-1050.1487931828681
  70
32
  0
SEQEND
  5
216
  330

  100
AcDbEntity
  8
100 4W CUT4 LHPS 7EMBR8-R11 RINGS_DXF_RINGDESIGN_100 04W CUT03  LHPS 7E MB RINGS_SURVEYEXPORT_R11
  0
POLYLINE
  5
217
  330
EB
  100
AcDbEntity
  8
100 4W CUT4 LHPS 7EMBR8-R11 RINGS_DXF_RINGDESIGN_100 04W CUT03  LHPS 7E MB RINGS_SURVEYEXPORT_R11
  62
7
  100
AcDb3dPolyline
  10
0
  20
0
  30
0
  70
8
  0
VERTEX
  5
218
  330

  100
AcDbEntity
  8
100 4W CUT4 LHPS 7EMBR8-R11 RINGS_DXF_RINGDESIGN_100 04W CUT03  LHPS 7E MB RINGS_SURVEYEXPORT_R11
  6
BYLAYER
  62
7
  100
AcDbVertex
  100
AcDb3dPolylineVertex
  10
7084.678449254332
  20
-23431.988086969828
  30
-1062.2916437213671
  70
32
  0
VERTEX
  5
219
  330

  100
AcDbEntity
  8
100 4W CUT4 LHPS 7EMBR8-R11 RINGS_DXF_RINGDESIGN_100 04W CUT03  LHPS 7E MB RINGS_SURVEYEXPORT_R11
  6
BYLAYER
  62
7
  100
AcDbVertex
  100
AcDb3dPolylineVertex
  10
7080.2247371022422
  20
-23437.282122169479
  30
-1052.8392186782337
  70
32
  0
SEQEND
  5
21A
  330

  100
AcDbEntity
  8
100 4W CUT4 LHPS 7EMBR8-R11 RINGS_DXF_RINGDESIGN_100 04W CUT03  LHPS 7E MB RINGS_SURVEYEXPORT_R11
  0
POLYLINE
  5
21B
  330
EB
  100
AcDbEntity
  8
100 4W CUT4 LHPS 7EMBR8-R11 RINGS_DXF_RINGDESIGN_100 04W CUT03  LHPS 7E MB RINGS_SURVEYEXPORT_R11
  62
7
  100
AcDb3dPolyline
  10
0
  20
0
  30
0
  70
8
  0
VERTEX
  5
21C
  330

  100
AcDbEntity
  8
100 4W CUT4 LHPS 7EMBR8-R11 RINGS_DXF_RINGDESIGN_100 04W CUT03  LHPS 7E MB RINGS_SURVEYEXPORT_R11
  6
BYLAYER
  62
7
  100
AcDbVertex
  100
AcDb3dPolylineVertex
  10
7084.6285821710262
  20
-23432.047362936781
  30
-1062.7785479165896
  70
32
  0
VERTEX
  5
21D
  330

  100
AcDbEntity
  8
100 4W CUT4 LHPS 7EMBR8-R11 RINGS_DXF_RINGDESIGN_100 04W CUT03  LHPS 7E MB RINGS_SURVEYEXPORT_R11
  6
BYLAYER
  62
7
  100
AcDbVertex
  100
AcDb3dPolylineVertex
  10
7080.2709235742368
  20
-23437.227221268811
  30
-1056.2112186324264
  70
32
  0
SEQEND
  5
21E
  330

  100
AcDbEntity
  8
100 4W CUT4 LHPS 7EMBR8-R11 RINGS_DXF_RINGDESIGN_100 04W CUT03  LHPS 7E MB RINGS_SURVEYEXPORT_R11
  0
POLYLINE
  5
21F
  330
EB
  100
AcDbEntity
  8
100 4W CUT4 LHPS 7EMBR8-R11 RINGS_DXF_RINGDESIGN_100 04W CUT03  LHPS 7E MB RINGS_SURVEYEXPORT_R11
  62
7
  100
AcDb3dPolyline
  10
0
  20
0
  30
0
  70
8
  0
VERTEX
  5
220
  330

  100
AcDbEntity
  8
100 4W CUT4 LHPS 7EMBR8-R11 RINGS_DXF_RINGDESIGN_100 04W CUT03  LHPS 7E MB RINGS_SURVEYEXPORT_R11
  6
BYLAYER
  62
7
  100
AcDbVertex
  100
AcDb3dPolylineVertex
  10
7084.5119389560523
  20
-23432.186014305524
  30
-1063.6430442738292
  70
32
  0
VERTEX
  5
221
  330

  100
AcDbEntity
  8
100 4W CUT4 LHPS 7EMBR8-R11 RINGS_DXF_RINGDESIGN_100 04W CUT03  LHPS 7E MB RINGS_SURVEYEXPORT_R11
  6
BYLAYER
  62
7
  100
AcDbVertex
  100
AcDb3dPolylineVertex
  10
7080.2940168102405
  20
-23437.199770818468
  30
-1059.36798454699
  70
32
  0
SEQEND
  5
222
  330

  100
AcDbEntity
  8
100 4W CUT4 LHPS 7EMBR8-R11 RINGS_DXF_RINGDESIGN_100 04W CUT03  LHPS 7E MB RINGS_SURVEYEXPORT_R11
  0
POLYLINE
  5
223
  330
EB
  100
AcDbEntity
  8
100 4W CUT4 LHPS 7EMBR8-R11 RINGS_DXF_RINGDESIGN_100 04W CUT03  LHPS 7E MB RINGS_SURVEYEXPORT_R11
  62
7
  100
AcDb3dPolyline
  10
0
  20
0
  30
0
  70
8
  0
VERTEX
  5
224
  330

  100
AcDbEntity
  8
100 4W CUT4 LHPS 7EMBR8-R11 RINGS_DXF_RINGDESIGN_100 04W CUT03  LHPS 7E MB RINGS_SURVEYEXPORT_R11
  6
BYLAYER
  62
7
  100
AcDbVertex
  100
AcDb3dPolylineVertex
  10
7084.5630547188175
  20
-23432.125254059218
  30
-1064.6394826829376
  70
32
  0
VERTEX
  5
225
  330

  100
AcDbEntity
  8
100 4W CUT4 LHPS 7EMBR8-R11 RINGS_DXF_RINGDESIGN_100 04W CUT03  LHPS 7E MB RINGS_SURVEYEXPORT_R11
  6
BYLAYER
  62
7
  100
AcDbVertex
  100
AcDb3dPolylineVertex
  10
7080.3171100462314
  20
-23437.172320368136
  30
-1061.6279419630971
  70
32
  0
SEQEND
  5
226
  330

  100
AcDbEntity
  8
100 4W CUT4 LHPS 7EMBR8-R11 RINGS_DXF_RINGDESIGN_100 04W CUT03  LHPS 7E MB RINGS_SURVEYEXPORT_R11
  0
POLYLINE
  5
227
  330
EB
  100
AcDbEntity
  8
100 4W CUT4 LHPS 7EMBR8-R11 RINGS_DXF_RINGDESIGN_100 04W CUT03  LHPS 7E MB RINGS_SURVEYEXPORT_R11
  62
7
  100
AcDb3dPolyline
  10
0
  20
0
  30
0
  70
8
  0
VERTEX
  5
228
  330

  100
AcDbEntity
  8
100 4W CUT4 LHPS 7EMBR8-R11 RINGS_DXF_RINGDESIGN_100 04W CUT03  LHPS 7E MB RINGS_SURVEYEXPORT_R11
  6
BYLAYER
  62
7
  100
AcDbVertex
  100
AcDb3dPolylineVertex
  10
7084.5742434367967
  20
-23432.111954262371
  30
-1065.0566079346697
  70
32
  0
VERTEX
  5
229
  330

  100
AcDbEntity
  8
100 4W CUT4 LHPS 7EMBR8-R11 RINGS_DXF_RINGDESIGN_100 04W CUT03  LHPS 7E MB RINGS_SURVEYEXPORT_R11
  6
BYLAYER
  62
7
  100
AcDbVertex
  100
AcDb3dPolylineVertex
  10
7080.3171100462323
  20
-23437.172320368136
  30
-1063.8520270392651
  70
32
  0
SEQEND
  5
22A
  330

  100
AcDbEntity
  8
100 4W CUT4 LHPS 7EMBR8-R11 RINGS_DXF_RINGDESIGN_100 04W CUT03  LHPS 7E MB RINGS_SURVEYEXPORT_R11
  0
POLYLINE
  5
22B
  330
EB
  100
AcDbEntity
  8
100 4W CUT4 LHPS 7EMBR8-R11 RINGS_DXF_RINGDESIGN_100 04W CUT03  LHPS 7E MB RINGS_SURVEYEXPORT_R11
  62
7
  100
AcDb3dPolyline
  10
0
  20
0
  30
0
  70
8
  0
VERTEX
  5
22C
  330

  100
AcDbEntity
  8
100 4W CUT4 LHPS 7EMBR8-R11 RINGS_DXF_RINGDESIGN_100 04W CUT03  LHPS 7E MB RINGS_SURVEYEXPORT_R11
  6
BYLAYER
  62
7
  100
AcDbVertex
  100
AcDb3dPolylineVertex
  10
7084.5803007157238
  20
-23432.104754100634
  30
-1065.4054494775485
  70
32
  0
VERTEX
  5
22D
  330

  100
AcDbEntity
  8
100 4W CUT4 LHPS 7EMBR8-R11 RINGS_DXF_RINGDESIGN_100 04W CUT03  LHPS 7E MB RINGS_SURVEYEXPORT_R11
  6
BYLAYER
  62
7
  100
AcDbVertex
  100
AcDb3dPolylineVertex
  10
7080.38638975423
  20
-23437.089969017125
  30
-1065.4304099965464
  70
32
  0
SEQEND
  5
22E
  330

  100
AcDbEntity
  8
100 4W CUT4 LHPS 7EMBR8-R11 RINGS_DXF_RINGDESIGN_100 04W CUT03  LHPS 7E MB RINGS_SURVEYEXPORT_R11
  0
POLYLINE
  5
22F
  330
EB
  100
AcDbEntity
  8
100 4W CUT4 LHPS 7EMBR8-R11 RINGS_DXF_RINGDESIGN_100 04W CUT03  LHPS 7E MB RINGS_SURVEYEXPORT_R11
  62
7
  100
AcDb3dPolyline
  10
0
  20
0
  30
0
  70
8
  0
VERTEX
  5
230
  330

  100
AcDbEntity
  8
100 4W CUT4 LHPS 7EMBR8-R11 RINGS_DXF_RINGDESIGN_100 04W CUT03  LHPS 7E MB RINGS_SURVEYEXPORT_R11
  6
BYLAYER
  62
7
  100
AcDbVertex
  100
AcDb3dPolylineVertex
  10
7084.583438665737
  20
-23432.101024084568
  30
-1065.734958742491
  70
32
  0
VERTEX
  5
231
  330

  100
AcDbEntity
  8
100 4W CUT4 LHPS 7EMBR8-R11 RINGS_DXF_RINGDESIGN_100 04W CUT03  LHPS 7E MB RINGS_SURVEYEXPORT_R11
  6
BYLAYER
  62
7
  100
AcDbVertex
  100
AcDb3dPolylineVertex
  10
7080.13236415824
  20
-23437.391923970838
  30
-1066.5424525346309
  70
32
  0
SEQEND
  5
232
  330

  100
AcDbEntity
  8
100 4W CUT4 LHPS 7EMBR8-R11 RINGS_DXF_RINGDESIGN_100 04W CUT03  LHPS 7E MB RINGS_SURVEYEXPORT_R11
  0
POLYLINE
  5
233
  330
EB
  100
AcDbEntity
  8
100 4W CUT4 LHPS 7EMBR8-R11 RINGS_DXF_RINGDESIGN_100 04W CUT03  LHPS 7E MB RINGS_SURVEYEXPORT_R11
  62
7
  100
AcDb3dPolyline
  10
0
  20
0
  30
0
  70
8
  0
VERTEX
  5
234
  330

  100
AcDbEntity
  8
100 4W CUT4 LHPS 7EMBR8-R11 RINGS_DXF_RINGDESIGN_100 04W CUT03  LHPS 7E MB RINGS_SURVEYEXPORT_R11
  6
BYLAYER
  62
7
  100
AcDbVertex
  100
AcDb3dPolylineVertex
  10
7084.5879860843943
  20
-23432.095618662392
  30
-1066.2124732251355
  70
32
  0
VERTEX
  5
235
  330

  100
AcDbEntity
  8
100 4W CUT4 LHPS 7EMBR8-R11 RINGS_DXF_RINGDESIGN_100 04W CUT03  LHPS 7E MB RINGS_SURVEYEXPORT_R11
  6
BYLAYER
  62
7
  100
AcDbVertex
  100
AcDb3dPolylineVertex
  10
7080.5711356422134
  20
-23436.870365414416
  30
-1067.5827503928385
  70
32
  0
SEQEND
  5
236
  330

  100
AcDbEntity
  8
100 4W CUT4 LHPS 7EMBR8-R11 RINGS_DXF_RINGDESIGN_100 04W CUT03  LHPS 7E MB RINGS_SURVEYEXPORT_R11
  0
POLYLINE
  5
237
  330
EB
  100
AcDbEntity
  8
100 4W CUT4 LHPS 7EMBR8-R11 RINGS_DXF_RINGDESIGN_100 04W CUT03  LHPS 7E MB RINGS_SURVEYEXPORT_R11
  62
7
  100
AcDb3dPolyline
  10
0
  20
0
  30
0
  70
8
  0
VERTEX
  5
238
  330

  100
AcDbEntity
  8
100 4W CUT4 LHPS 7EMBR8-R11 RINGS_DXF_RINGDESIGN_100 04W CUT03  LHPS 7E MB RINGS_SURVEYEXPORT_R11
  6
BYLAYER
  62
7
  100
AcDbVertex
  100
AcDb3dPolylineVertex
  10
7084.5943987995042
  20
-23432.087996001042
  30
-1066.8858584060551
  70
32
  0
VERTEX
  5
239
  330

  100
AcDbEntity
  8
100 4W CUT4 LHPS 7EMBR8-R11 RINGS_DXF_RINGDESIGN_100 04W CUT03  LHPS 7E MB RINGS_SURVEYEXPORT_R11
  6
BYLAYER
  62
7
  100
AcDbVertex
  100
AcDb3dPolylineVertex
  10
7081.4717718461634
  20
-23435.799797851236
  30
-1068.6230482510475
  70
32
  0
SEQEND
  5
23A
  330

  100
AcDbEntity
  8
100 4W CUT4 LHPS 7EMBR8-R11 RINGS_DXF_RINGDESIGN_100 04W CUT03  LHPS 7E MB RINGS_SURVEYEXPORT_R11
  0
POLYLINE
  5
23B
  330
EB
  100
AcDbEntity
  8
100 4W CUT4 LHPS 7EMBR8-R11 RINGS_DXF_RINGDESIGN_100 04W CUT03  LHPS 7E MB RINGS_SURVEYEXPORT_R11
  62
7
  100
AcDb3dPolyline
  10
0
  20
0
  30
0
  70
8
  0
VERTEX
  5
23C
  330

  100
AcDbEntity
  8
100 4W CUT4 LHPS 7EMBR8-R11 RINGS_DXF_RINGDESIGN_100 04W CUT03  LHPS 7E MB RINGS_SURVEYEXPORT_R11
  6
BYLAYER
  62
7
  100
AcDbVertex
  100
AcDb3dPolylineVertex
  10
7084.6007150361347
  20
-23432.080488021649
  30
-1067.5491125934579
  70
32
  0
VERTEX
  5
23D
  330

  100
AcDbEntity
  8
100 4W CUT4 LHPS 7EMBR8-R11 RINGS_DXF_RINGDESIGN_100 04W CUT03  LHPS 7E MB RINGS_SURVEYEXPORT_R11
  6
BYLAYER
  62
7
  100
AcDbVertex
  100
AcDb3dPolylineVertex
  10
7083.4577901420462
  20
-23433.439059122167
  30
-1068.4436865513546
  70
32
  0
SEQEND
  5
23E
  330

  100
AcDbEntity
  8
100 4W CUT4 LHPS 7EMBR8-R11 RINGS_DXF_RINGDESIGN_100 04W CUT03  LHPS 7E MB RINGS_SURVEYEXPORT_R11
  0
LWPOLYLINE
  5
23F
  330
EB
  100
AcDbEntity
  8
100 4W CUT4 LHPS 7EMBR8-R11 RINGS_DXF_RINGDESIGN_100 04W CUT03  LHPS 7E MB RINGS_SURVEYEXPORT
  62
7
  100
AcDbPolyline
  90
2
  43
0
  38
-1066.6283584968999
  10
7092.90682366532
  20
-23419.100449090682
  10
7076.8127829375862
  20
-23438.23110127648
  0
LWPOLYLINE
  5
240
  330
EB
  100
AcDbEntity
  8
100 4W CUT4 LHPS 7EMBR8-R11 RINGS_DXF_RINGDESIGN_100 04W CUT03  LHPS 7E MB RINGS_SURVEYEXPORT
  62
1
  100
AcDbPolyline
  90
2
  43
0
  38
-1066.6283584968999
  10
7090.4734047072861
  20
-23417.053287110113
  10
7074.3793639795522
  20
-23436.183939295912
  0
LWPOLYLINE
  5
241
  330
EB
  100
AcDbEntity
  8
100 4W CUT4 LHPS 7EMBR8-R11 RINGS_DXF_RINGDESIGN_100 04W CUT03  LHPS 7E MB RINGS_SURVEYEXPORT
  62
7
  100
AcDbPolyline
  90
2
  43
0
  38
-1066.6588595862245
  10
7091.3763714904562
  20
-23417.812925832462
  10
7075.2823307627223
  20
-23436.943578018261
  0
LWPOLYLINE
  5
242
  330
EB
  100
AcDbEntity
  8
100 4W CUT4 LHPS 7EMBR8-R11 RINGS_DXF_RINGDESIGN_100 04W CUT03  LHPS 7E MB RINGS_SURVEYEXPORT
  62
1
  100
AcDbPolyline
  90
2
  43
0
  38
-1066.6588595862245
  10
7088.9429525324222
  20
-23415.765763851894
  10
7072.8489118046882
  20
-23434.896416037693
  0
LWPOLYLINE
  5
243
  330
EB
  100
AcDbEntity
  8
100 4W CUT4 LHPS 7EMBR8-R11 RINGS_DXF_RINGDESIGN_100 04W CUT03  LHPS 7E MB RINGS_SURVEYEXPORT
  62
7
  100
AcDbPolyline
  90
2
  43
0
  38
-1066.6893606755491
  10
7089.8459193155923
  20
-23416.525402574243
  10
7073.7518785878583
  20
-23435.656054760042
  0
LWPOLYLINE
  5
244
  330
EB
  100
AcDbEntity
  8
100 4W CUT4 LHPS 7EMBR8-R11 RINGS_DXF_RINGDESIGN_100 04W CUT03  LHPS 7E MB RINGS_SURVEYEXPORT
  62
1
  100
AcDbPolyline
  90
2
  43
0
  38
-1066.6893606755491
  10
7087.4125003575582
  20
-23414.478240593675
  10
7071.3184596298242
  20
-23433.608892779474
  0
LWPOLYLINE
  5
245
  330
EB
  100
AcDbEntity
  8
100 4W CUT4 LHPS 7EMBR8-R11 RINGS_DXF_RINGDESIGN_100 04W CUT03  LHPS 7E MB RINGS_SURVEYEXPORT
  62
7
  100
AcDbPolyline
  90
2
  43
0
  38
-1066.7198617648737
  10
7088.3154671407283
  20
-23415.237879316024
  10
7072.2214264129943
  20
-23434.368531501823
  0
LWPOLYLINE
  5
246
  330
EB
  100
AcDbEntity
  8
100 4W CUT4 LHPS 7EMBR8-R11 RINGS_DXF_RINGDESIGN_100 04W CUT03  LHPS 7E MB RINGS_SURVEYEXPORT
  62
1
  100
AcDbPolyline
  90
2
  43
0
  38
-1066.7198617648737
  10
7085.8820481826942
  20
-23413.190717335456
  10
7069.78800745496
  20
-23432.321369521254
  0
LWPOLYLINE
  5
247
  330
EB
  100
AcDbEntity
  8
100 4W CUT4 LHPS 7EMBR8-R11 RINGS_DXF_RINGDESIGN_100 04W CUT03  LHPS 7E MB RINGS_SURVEYEXPORT
  62
7
  100
AcDbPolyline
  90
2
  43
0
  38
-1066.8455856165181
  10
7086.7850149658652
  20
-23413.950356057809
  10
7070.6909742381313
  20
-23433.081008243607
  0
LWPOLYLINE
  5
248
  330
EB
  100
AcDbEntity
  8
100 4W CUT4 LHPS 7EMBR8-R11 RINGS_DXF_RINGDESIGN_100 04W CUT03  LHPS 7E MB RINGS_SURVEYEXPORT
  62
1
  100
AcDbPolyline
  90
2
  43
0
  38
-1066.8455856165181
  10
7084.3515960078312
  20
-23411.90319407724
  10
7068.2575552800972
  20
-23431.033846263039
  0
LWPOLYLINE
  5
249
  330
EB
  100
AcDbEntity
  8
100 4W CUT4 LHPS 7EMBR8-R11 RINGS_DXF_RINGDESIGN_100 04W CUT03  LHPS 7E MB RINGS_SURVEYEXPORT
  62
7
  100
AcDbPolyline
  90
2
  43
0
  38
-1067.0426846843136
  10
7085.2545627910013
  20
-23412.66283279959
  10
7069.1605220632673
  20
-23431.793484985388
  0
LWPOLYLINE
  5
24A
  330
EB
  100
AcDbEntity
  8
100 4W CUT4 LHPS 7EMBR8-R11 RINGS_DXF_RINGDESIGN_100 04W CUT03  LHPS 7E MB RINGS_SURVEYEXPORT
  62
1
  100
AcDbPolyline
  90
2
  43
0
  38
-1067.0426846843136
  10
7082.8211438329672
  20
-23410.615670819021
  10
7066.7271031052333
  20
-23429.74632300482
  0
VIEWPORT
  5
24B
  330
EC
  100
AcDbEntity
  67
1
  8
0
  100
AcDbViewport
  10
105.029
  20
148.463
  40
24.97
  41
312.78718378906251
  68
1
  69
1
  12
105.029
  22
148.463
  13
0
  23
0
  14
1
  24
1
  15
1
  25
1
  16
0
  26
0
  36
1
  17
0
  27
0
  37
0
  42
50
  43
0
  44
0
  45
312.78718378906251
  50
0
  51
0
  72
1000
  90
32800
  1

  281
0
  71
1
  74
0
  110
0
  120
0
  130
0
  111
1
  121
0
  131
0
  112
0
  122
1
  132
0
  79
0
  146
0
  0
ENDSEC
  0
SECTION
  2
OBJECTS
  0
DICTIONARY
  5
24C
  330
0
  100
AcDbDictionary
  281
1
  3
ACAD_GROUP
  350
24D
  3
ACAD_LAYOUT
  350
24E
  3
ACAD_MLINESTYLE
  350
24F
  3
ACAD_PLOTSETTINGS
  350
250
  3
ACAD_PLOTSTYLENAME
  350
251
  3
VECTORDRAW_OBJECTS
  350
252
  3
DWGPROPS
  350
253
  0
DICTIONARY
  5
DF
  330
DE
  100
AcDbDictionary
  280
1
  281
1
  3
ACAD_LAYERFILTERS
  360
254
  3
ACAD_LAYERSTATES
  360
255
  3
ACLYDICTIONARY
  360
256
  0
DICTIONARY
  5
254
  102
{ACAD_REACTORS
  330
DF
  102
}
  330
DF
  100
AcDbDictionary
  281
1
  0
DICTIONARY
  5
255
  102
{ACAD_REACTORS
  330
DF
  102
}
  330
DF
  100
AcDbDictionary
  281
1
  0
DICTIONARY
  5
256
  102
{ACAD_REACTORS
  330
DF
  102
}
  330
DF
  100
AcDbDictionary
  281
1
  1001
ACAD
  1000
<All
  0
DICTIONARY
  5
24D
  102
{ACAD_REACTORS
  330
24C
  102
}
  330
24C
  100
AcDbDictionary
  281
1
  0
DICTIONARY
  5
24E
  102
{ACAD_REACTORS
  330
24C
  102
}
  330
24C
  100
AcDbDictionary
  281
1
  3
Layout1
  350
D9
  3
Model
  350
1
  0
DICTIONARY
  5
24F
  102
{ACAD_REACTORS
  330
24C
  102
}
  330
24C
  100
AcDbDictionary
  281
1
  3
Standard
  350
63
  0
DICTIONARY
  5
250
  102
{ACAD_REACTORS
  330
24C
  102
}
  330
24C
  100
AcDbDictionary
  281
1
  0
ACDBDICTIONARYWDFLT
  5
251
  102
{ACAD_REACTORS
  330
24C
  102
}
  330
24C
  100
AcDbDictionary
  281
1
  3
Normal
  350
DD
  100
AcDbDictionaryWithDefault
  340
DD
  0
DICTIONARY
  5
252
  102
{ACAD_REACTORS
  330
24C
  102
}
  330
24C
  100
AcDbDictionary
  281
1
  3
SERIALNO
  350
257
  0
LAYOUT
  5
D9
  102
{ACAD_REACTORS
  330
24E
  102
}
  330
24E
  100
AcDbPlotSettings
  1

  2

  4

  6

  40
0
  41
0
  42
0
  43
0
  44
210.058
  45
296.926
  46
0
  47
0
  48
0
  49
0
  140
210.058
  141
296.926
  142
1
  143
1
  70
688
  72
1
  73
0
  74
4
  75
16
  147
1
  148
0
  149
0
  100
AcDbLayout
  1
Layout1
  70
0
  71
1
  10
0
  20
0
  11
12
  21
9
  12
0
  22
0
  32
0
  14
0
  24
0
  34
0
  15
0
  25
0
  35
0
  146
0
  13
0
  23
0
  33
0
  16
1
  26
0
  36
0
  17
0
  27
1
  37
0
  76
0
  330
EC
  0
LAYOUT
  5
1
  102
{ACAD_REACTORS
  330
24E
  102
}
  330
24E
  100
AcDbPlotSettings
  1
VectorDraw Printer Drawing
  2

  4

  6

  40
0
  41
0
  42
0
  43
0
  44
210.058
  45
296.926
  46
0
  47
0
  48
-98.063438725176454
  49
-145.01735717979733
  140
126.4647153827929
  141
76.755850252000613
  142
1
  143
1.0688864699652922
  72
1
  73
0
  74
4
  75
0
  147
1
  148
98.063438725176454
  149
145.01735717979733
  100
AcDbLayout
  1
Model
  70
1
  71
0
  10
10
  20
0
  11
0
  21
10
  12
0
  22
0
  32
0
  14
7116.4538424064885
  24
-23455.244887446541
  34
7046.7642398239877
  15
-23396.61712654381
  25
-1070.9633211225157
  35
-1070.9633211225157
  146
0
  13
0
  23
0
  33
0
  16
1
  26
0
  36
0
  17
0
  27
1
  37
0
  76
0
  330
EB
  0
MLINESTYLE
  5
63
  102
{ACAD_REACTORS
  330
24F
  102
}
  330
24F
  100
AcDbMlineStyle
  2
Standard
  70
0
  3

  62
0
  51
90
  52
90
  71
2
  49
0.5
  62
7
  6
Continuous
  49
-0.5
  62
7
  6
Continuous
  0
ACDBPLACEHOLDER
  5
DD
  102
{ACAD_REACTORS
  330
251
  102
}
  330
251
  0
XRECORD
  5
257
  102
{ACAD_REACTORS
  330
252
  102
}
  330
252
  100
AcDbXrecord
  280
1
  1000
udnjVM6OT3ptXXPNDrqErnGX8
  1070
5
  1070
1
  0
XRECORD
  5
253
  102
{ACAD_REACTORS
  330
24C
  102
}
  330
24C
  100
AcDbXrecord
  280
1
  1
DWGPROPS COOKIE
  2

  3

  4

  6

  7

  8

  9

  40
0
  41
0
  42
0
  1

  90
0
  0
ENDSEC
  999
Created By VectorDraw :7.7012.0.1
  0
EOF
