  0
SECTION
  2
HEADER
  9
$ACADVER
  1
AC1015
  9
$ACADMAINTVER
  70
6
  9
$DWGCODEPAGE
  3

  9
$INSBASE
  10
0
  20
0
  30
0
  9
$EXTMIN
  10
7046.7642398239877
  20
-23455.244887446541
  30
-1070.9633211225157
  9
$EXTMAX
  10
7116.4538424064885
  20
-23396.61712654381
  30
-1070.9633211225157
  9
$LIMMIN
  10
0
  20
0
  9
$LIMMAX
  10
10
  20
10
  9
$ORTHOMODE
  70
0
  9
$REGENMODE
  70
1
  9
$FILLMODE
  70
1
  9
$QTEXTMODE
  70
0
  9
$MIRRTEXT
  70
1
  9
$LTSCALE
  40
1
  9
$ATTMODE
  70
1
  9
$TEXTSIZE
  40
0.2
  9
$TRACEWID
  40
0.05
  9
$TEXTSTYLE
  7
STANDARD
  9
$CLAYER
  8
0
  9
$CELTYPE
  6
BYLAYER
  9
$CECOLOR
  62
256
  9
$CELTSCALE
  40
1
  9
$DISPSILH
  70
0
  9
$DIMSCALE
  40
1
  9
$DIMASZ
  40
0.2
  9
$DIMEXO
  40
0.2
  9
$DIMRND
  40
0
  9
$DIMDLE
  40
0
  9
$DIMEXE
  40
0.05
  9
$DIMTP
  40
1
  9
$DIMTM
  40
1
  9
$DIMTXT
  40
1
  9
$DIMTSZ
  40
0.0
  9
$DIMTOL
  70
0
  9
$DIMLIM
  70
0
  9
$DIMTIH
  70
0
  9
$DIMTOH
  70
1
  9
$DIMSE1
  70
0
  9
$DIMSE2
  70
0
  9
$DIMTAD
  70
0
  9
$DIMZIN
  70
1
  9
$DIMBLK
  1
VDDIM_DEFAULT
  9
$DIMASO
  70
1
  9
$DIMSHO
  70
1
  9
$DIMPOST
  1

  9
$DIMAPOST
  1

  9
$DIMALT
  70
0
  9
$DIMBLK1
  1

  9
$DIMBLK2
  1

  9
$DIMSTYLE
  2
STANDARD
  9
$DIMCLRD
  70
0
  9
$DIMCLRE
  70
0
  9
$DIMCLRT
  70
0
  9
$DIMTFAC
  40
1
  9
$DIMSD1
  70
0
  9
$DIMSD2
  70
0
  9
$DIMTOLJ
  70
1
  9
$DIMTXSTY
  7
STANDARD
  9
$DIMAUNIT
  70
1
  9
$DIMADEC
  70
4
  9
$DIMAZIN
  70
0
  9
$DIMLUNIT
  70
2
  9
$LUNITS
  70
2
  9
$LUPREC
  70
4
  9
$FILLETRAD
  40
0
  9
$AUNITS
  70
1
  9
$AUPREC
  70
4
  9
$MENU
  1

  9
$ELEVATION
  40
0
  9
$PELEVATION
  40
0
  9
$THICKNESS
  40
0
  9
$ANGBASE
  50
0
  9
$ANGDIR
  70
0
  9
$PDMODE
  70
2
  9
$PDSIZE
  40
1
  9
$PLINEWID
  40
0
  9
$SPLFRAME
  70
0
  9
$SPLINETYPE
  70
6
  9
$SPLINESEGS
  70
8
  9
$HANDSEED
  5
              324
  9
$SURFTAB1
  70
6
  9
$SURFTAB2
  70
6
  9
$SURFTYPE
  70
6
  9
$SURFU
  70
6
  9
$SURFV
  70
6
  9
$UCSBASE
  2

  9
$UCSNAME
  2

  9
$UCSORG
  10
0
  20
0
  30
0
  9
$UCSXDIR
  10
1
  20
0
  30
0
  9
$UCSYDIR
  10
0
  20
1
  30
0
  9
$UCSORGTOP
  10
0
  20
0
  30
0
  9
$UCSORGBOTTOM
  10
0
  20
0
  30
0
  9
$UCSORGLEFT
  10
0
  20
0
  30
0
  9
$UCSORGRIGHT
  10
0
  20
0
  30
0
  9
$UCSORGFRONT
  10
0
  20
0
  30
0
  9
$UCSORGBACK
  10
0
  20
0
  30
0
  9
$PUCSBASE
  2

  9
$PUCSNAME
  2

  9
$PUCSXDIR
  10
1
  20
0
  30
0
  9
$PUCSYDIR
  10
0
  20
1
  30
0
  9
$PUCSORGTOP
  10
0
  20
0
  30
0
  9
$PUCSORGBOTTOM
  10
0
  20
0
  30
0
  9
$PUCSORGLEFT
  10
0
  20
0
  30
0
  9
$PUCSORGRIGHT
  10
0
  20
0
  30
0
  9
$PUCSORGFRONT
  10
0
  20
0
  30
0
  9
$PUCSORGBACK
  10
0
  20
0
  30
0
  9
$USERI1
  70
0
  9
$USERI2
  70
0
  9
$USERI3
  70
0
  9
$USERI4
  70
0
  9
$USERI5
  70
0
  9
$USERR1
  40
0
  9
$USERR2
  40
0
  9
$USERR3
  40
0
  9
$USERR4
  40
0
  9
$USERR5
  40
0
  9
$TILEMODE
  70
1
  9
$PINSBASE
  10
0
  20
0
  30
0
  9
$LWDISPLAY
  290
1
  9
$INSUNITS
  70
0
  9
$MEASUREMENT
  70
1
  0
ENDSEC
  0
SECTION
  2
CLASSES
  0
CLASS
  1
ACDBDICTIONARYWDFLT
  2
AcDbDictionaryWithDefault
  3
ObjectDBX Classes
  90
0
  280
0
  281
0
  0
CLASS
  1
IMAGEDEF
  2
AcDbRasterImageDef
  3
ISM
  90
0
  280
0
  281
0
  0
CLASS
  1
IMAGE
  2
AcDbRasterImage
  3
ISM
  90
127
  280
0
  281
1
  0
CLASS
  1
IMAGEDEF_REACTOR
  2
AcDbRasterImageDefReactor
  3
ObjectDBX Classes
  90
1
  280
0
  281
0
  0
CLASS
  1
ACDBPLACEHOLDER
  2
AcDbPlaceHolder
  3
ObjectDBX Classes
  90
0
  280
0
  281
0
  0
CLASS
  1
LAYOUT
  2
AcDbLayout
  3
ObjectDBX Classes
  90
0
  280
0
  281
0
  0
CLASS
  1
ARCALIGNEDTEXT
  2
AcDbArcAlignedText
  3
ATEXT|AutoCAD Express Tool|expresstools@autodesk.com
  90
0
  280
0
  281
1
  0
ENDSEC
  0
SECTION
  2
TABLES
  0
TABLE
  2
VPORT
  5
112
  330
0
  100
AcDbSymbolTable
  70
2
  0
VPORT
  5
113
  330
112
  100
AcDbSymbolTableRecord
  100
AcDbViewportTableRecord
  2
*Active
  70
0
  10
0
  20
0
  11
1
  21
1
  12
-161.6606058600841
  22
-34.514649310113619
  13
0
  23
0
  14
1
  24
1
  15
1
  25
1
  16
0
  26
0
  36
1
  17
0
  27
0
  37
0
  40
183.38946063631775
  41
1
  42
50
  43
0
  44
0
  50
0
  51
0
  71
0
  72
100
  73
1
  74
3
  75
0
  76
0
  77
0
  78
0
  281
0
  65
1
  110
0
  120
0
  130
0
  111
1
  121
0
  131
0
  112
0
  122
1
  132
0
  79
0
  146
0
  0
ENDTAB
  0
TABLE
  2
LTYPE
  5
114
  330
0
  100
AcDbSymbolTable
  70
8
  0
LTYPE
  5
1C
  330
114
  100
AcDbSymbolTableRecord
  100
AcDbLinetypeTableRecord
  2
BYLAYER
  70
0
  3
BYLAYER________________________________________
  72
65
  73
0
  40
0
  0
LTYPE
  5
1D
  330
114
  100
AcDbSymbolTableRecord
  100
AcDbLinetypeTableRecord
  2
BYBLOCK
  70
0
  3
BYBLOCK________________________________________
  72
65
  73
0
  40
0
  0
LTYPE
  5
1E
  330
114
  100
AcDbSymbolTableRecord
  100
AcDbLinetypeTableRecord
  2
DASHED0
  70
0
  3
Dashed0 __ __ __ __ __ __ __ __ __ __ __ __ __ _
  72
65
  73
2
  40
1
  49
0.5
  74
0
  49
-0.5
  74
0
  0
LTYPE
  5
1F
  330
114
  100
AcDbSymbolTableRecord
  100
AcDbLinetypeTableRecord
  2
DOT0
  70
0
  3
Dot0 ........................................
  72
65
  73
8
  40
1
  49
0
  74
0
  49
-0.25
  74
0
  49
0
  74
0
  49
-0.25
  74
0
  49
0
  74
0
  49
-0.25
  74
0
  49
0
  74
0
  49
-0.25
  74
0
  0
LTYPE
  5
20
  330
114
  100
AcDbSymbolTableRecord
  100
AcDbLinetypeTableRecord
  2
DASHDOT0
  70
0
  3
Dashdot __ . __ . __ . __ . __ . __ . __ . __
  72
65
  73
4
  40
1
  49
0.4
  74
0
  49
-0.3
  74
0
  49
0
  74
0
  49
-0.3
  74
0
  0
LTYPE
  5
21
  330
114
  100
AcDbSymbolTableRecord
  100
AcDbLinetypeTableRecord
  2
DASHDOTDOT0
  70
0
  3
Dashdot __ . . __ . . __ . . __ . . __ . . __ . . __ . . __
  72
65
  73
6
  40
1
  49
0.3
  74
0
  49
-0.23
  74
0
  49
0
  74
0
  49
-0.24
  74
0
  49
0
  74
0
  49
-0.23
  74
0
  0
LTYPE
  5
22
  330
114
  100
AcDbSymbolTableRecord
  100
AcDbLinetypeTableRecord
  2
INVISIBLE
  70
0
  3
Invisible(                        )
  72
65
  73
2
  40
2
  49
-1
  74
0
  49
-1
  74
0
  0
ENDTAB
  0
TABLE
  2
LAYER
  5
116
  102
{ACAD_XDICTIONARY
  360
117
  102
}
  330
0
  100
AcDbSymbolTable
  70
7
  0
LAYER
  5
62
  330
116
  100
AcDbSymbolTableRecord
  100
AcDbLayerTableRecord
  2
0
  70
0
  62
7
  6
Continuous
  370
-3
  390
115
  0
LAYER
  5
6C
  330
116
  100
AcDbSymbolTableRecord
  100
AcDbLayerTableRecord
  2
100 4W CUT4 LHPS 7EMBR3-R7 RINGS_DXF_RINGDESIGN_100 04W CUT03  LHPS 7E MB RINGS_SURVEYEXPORT
  70
0
  62
7
  6
Continuous
  370
25
  390
115
  0
LAYER
  5
6D
  330
116
  100
AcDbSymbolTableRecord
  100
AcDbLayerTableRecord
  2
100 4W CUT4 LHPS 7EMBR3-R7 RINGS_DXF_RINGDESIGN_100 04W CUT03  LHPS 7E MB RINGS_SURVEYEXPORT_R3
  70
0
  62
7
  6
Continuous
  370
25
  390
115
  0
LAYER
  5
6E
  330
116
  100
AcDbSymbolTableRecord
  100
AcDbLayerTableRecord
  2
100 4W CUT4 LHPS 7EMBR3-R7 RINGS_DXF_RINGDESIGN_100 04W CUT03  LHPS 7E MB RINGS_SURVEYEXPORT_R4
  70
0
  62
7
  6
Continuous
  370
25
  390
115
  0
LAYER
  5
6F
  330
116
  100
AcDbSymbolTableRecord
  100
AcDbLayerTableRecord
  2
100 4W CUT4 LHPS 7EMBR3-R7 RINGS_DXF_RINGDESIGN_100 04W CUT03  LHPS 7E MB RINGS_SURVEYEXPORT_R5
  70
0
  62
7
  6
Continuous
  370
25
  390
115
  0
LAYER
  5
70
  330
116
  100
AcDbSymbolTableRecord
  100
AcDbLayerTableRecord
  2
100 4W CUT4 LHPS 7EMBR3-R7 RINGS_DXF_RINGDESIGN_100 04W CUT03  LHPS 7E MB RINGS_SURVEYEXPORT_R6
  70
0
  62
7
  6
Continuous
  370
25
  390
115
  0
LAYER
  5
71
  330
116
  100
AcDbSymbolTableRecord
  100
AcDbLayerTableRecord
  2
100 4W CUT4 LHPS 7EMBR3-R7 RINGS_DXF_RINGDESIGN_100 04W CUT03  LHPS 7E MB RINGS_SURVEYEXPORT_R7
  70
0
  62
7
  6
Continuous
  370
25
  390
115
  0
ENDTAB
  0
TABLE
  2
STYLE
  5
118
  330
0
  100
AcDbSymbolTable
  70
1
  0
STYLE
  5
64
  330
118
  100
AcDbSymbolTableRecord
  100
AcDbTextStyleTableRecord
  2
STANDARD
  70
0
  40
1
  41
1
  50
0
  71
0
  42
0.2
  3
Arial
  4

  0
ENDTAB
  0
TABLE
  2
VIEW
  5
119
  330
0
  100
AcDbSymbolTable
  70
0
  0
ENDTAB
  0
TABLE
  2
UCS
  5
11A
  330
0
  100
AcDbSymbolTable
  70
0
  0
ENDTAB
  0
TABLE
  2
APPID
  5
11B
  330
0
  100
AcDbSymbolTable
  70
6
  0
APPID
  5
11C
  330
11B
  100
AcDbSymbolTableRecord
  100
AcDbRegAppTableRecord
  2
AcAecLayerStandard
  70
0
  0
APPID
  5
11D
  330
11B
  100
AcDbSymbolTableRecord
  100
AcDbRegAppTableRecord
  2
VDEXTRAPARAM
  70
0
  0
APPID
  5
11E
  330
11B
  100
AcDbSymbolTableRecord
  100
AcDbRegAppTableRecord
  2
VDEXTRASOLID2D
  70
0
  0
APPID
  5
11F
  330
11B
  100
AcDbSymbolTableRecord
  100
AcDbRegAppTableRecord
  2
VD_TEMPHATCH
  70
0
  0
APPID
  5
120
  330
11B
  100
AcDbSymbolTableRecord
  100
AcDbRegAppTableRecord
  2
ACAD
  70
0
  0
APPID
  5
121
  330
11B
  100
AcDbSymbolTableRecord
  100
AcDbRegAppTableRecord
  2
PE_URL
  70
0
  0
ENDTAB
  0
TABLE
  2
BLOCK_RECORD
  5
122
  330
0
  100
AcDbSymbolTable
  70
4
  0
BLOCK_RECORD
  5
123
  330
122
  100
AcDbSymbolTableRecord
  100
AcDbBlockTableRecord
  2
*Model_Space
  340
1
  0
BLOCK_RECORD
  5
124
  330
122
  100
AcDbSymbolTableRecord
  100
AcDbBlockTableRecord
  2
*Paper_Space
  340
111
  0
BLOCK_RECORD
  5
125
  330
122
  100
AcDbSymbolTableRecord
  100
AcDbBlockTableRecord
  2
VDDIM_DEFAULT
  340
0
  0
BLOCK_RECORD
  5
126
  330
122
  100
AcDbSymbolTableRecord
  100
AcDbBlockTableRecord
  2
VDDIM_NONE
  340
0
  0
ENDTAB
  0
TABLE
  2
DIMSTYLE
  5
127
  330
0
  100
AcDbSymbolTable
  70
1
  100
AcDbDimStyleTable
  71
1
  340
69
  0
DIMSTYLE
  105
69
  330
127
  100
AcDbSymbolTableRecord
  100
AcDbDimStyleTableRecord
  2
STANDARD
  70
0
  41
0.2
  3

  177
0
  42
0.05
  44
0.2
  75
0
  76
0
  40
1
  172
1
  281
0
  282
0
  275
1
  277
2
  179
4
  71
0
  47
1
  48
1
  78
1
  176
0
  178
0
  140
1
  147
0.09
  280
0
  77
1
  73
0
  271
4
  173
1
  340
64
  0
ENDTAB
  0
ENDSEC
  0
SECTION
  2
BLOCKS
  0
BLOCK
  5
128
  330
123
  100
AcDbEntity
  8
0
  100
AcDbBlockBegin
  2
*Model_Space
  70
0
  71
0
  10
0
  20
0
  30
0
  3
*Model_Space
  1

  0
ENDBLK
  5
129
  330
123
  100
AcDbEntity
  67
1
  8
0
  100
AcDbBlockEnd
  0
BLOCK
  5
12A
  330
124
  100
AcDbEntity
  8
0
  100
AcDbBlockBegin
  2
*Paper_Space
  70
0
  71
0
  10
0
  20
0
  30
0
  3
*Paper_Space
  1

  0
ENDBLK
  5
12B
  330
124
  100
AcDbEntity
  67
1
  8
0
  100
AcDbBlockEnd
  0
BLOCK
  5
65
  330
125
  100
AcDbEntity
  8
0
  100
AcDbBlockBegin
  2
VDDIM_DEFAULT
  70
0
  71
0
  10
0
  20
0
  30
0
  3
VDDIM_DEFAULT
  1

  0
HATCH
  5
66
  330
125
  100
AcDbEntity
  8
0
  62
0
  370
-2
  100
AcDbHatch
  10
0
  20
0
  30
0
  210
0
  220
0
  230
-1
  2
SOLID
  70
1
  71
0
  91
1
  92
2
  72
0
  73
1
  93
3
  10
0
  20
0
  10
1
  20
-0.1665
  10
1
  20
0.1665
  97
0
  75
0
  76
1
  98
1
  10
0
  20
0
  0
ENDBLK
  5
12C
  330
125
  100
AcDbEntity
  8
0
  100
AcDbBlockEnd
  0
BLOCK
  5
68
  330
126
  100
AcDbEntity
  8
0
  100
AcDbBlockBegin
  2
VDDIM_NONE
  70
0
  71
0
  10
0
  20
0
  30
0
  3
VDDIM_NONE
  1

  0
ENDBLK
  5
12D
  330
126
  100
AcDbEntity
  8
0
  100
AcDbBlockEnd
  0
ENDSEC
  0
SECTION
  2
ENTITIES
  0
POLYLINE
  5
12E
  330
123
  100
AcDbEntity
  8
100 4W CUT4 LHPS 7EMBR3-R7 RINGS_DXF_RINGDESIGN_100 04W CUT03  LHPS 7E MB RINGS_SURVEYEXPORT
  62
7
  100
AcDb3dPolyline
  10
0
  20
0
  30
0
  70
8
  0
VERTEX
  5
12F
  330

  100
AcDbEntity
  8
100 4W CUT4 LHPS 7EMBR3-R7 RINGS_DXF_RINGDESIGN_100 04W CUT03  LHPS 7E MB RINGS_SURVEYEXPORT
  6
BYLAYER
  62
7
  100
AcDbVertex
  100
AcDb3dPolylineVertex
  10
7046.7642398239877
  20
-23396.61712654381
  30
-1070.9633211225157
  70
32
  0
VERTEX
  5
130
  330

  100
AcDbEntity
  8
100 4W CUT4 LHPS 7EMBR3-R7 RINGS_DXF_RINGDESIGN_100 04W CUT03  LHPS 7E MB RINGS_SURVEYEXPORT
  6
BYLAYER
  62
7
  100
AcDbVertex
  100
AcDb3dPolylineVertex
  10
7079.6127584198221
  20
-23424.251594568872
  30
-1066.7329292814388
  70
32
  0
VERTEX
  5
131
  330

  100
AcDbEntity
  8
100 4W CUT4 LHPS 7EMBR3-R7 RINGS_DXF_RINGDESIGN_100 04W CUT03  LHPS 7E MB RINGS_SURVEYEXPORT
  6
BYLAYER
  62
7
  100
AcDbVertex
  100
AcDb3dPolylineVertex
  10
7116.4538424064885
  20
-23455.244887446541
  30
-1065.9987062773173
  70
32
  0
SEQEND
  5
132
  330

  100
AcDbEntity
  8
100 4W CUT4 LHPS 7EMBR3-R7 RINGS_DXF_RINGDESIGN_100 04W CUT03  LHPS 7E MB RINGS_SURVEYEXPORT
  0
LWPOLYLINE
  5
133
  330
123
  100
AcDbEntity
  8
100 4W CUT4 LHPS 7EMBR3-R7 RINGS_DXF_RINGDESIGN_100 04W CUT03  LHPS 7E MB RINGS_SURVEYEXPORT
  62
7
  100
AcDbPolyline
  90
2
  43
0
  38
-1066.361378305369
  10
7104.6936760483495
  20
-23432.283380851441
  10
7091.8184434661616
  20
-23447.587902600084
  0
LWPOLYLINE
  5
134
  330
123
  100
AcDbEntity
  8
100 4W CUT4 LHPS 7EMBR3-R7 RINGS_DXF_RINGDESIGN_100 04W CUT03  LHPS 7E MB RINGS_SURVEYEXPORT
  62
1
  100
AcDbPolyline
  90
2
  43
0
  38
-1066.361378305369
  10
7102.2602570903155
  20
-23430.236218870872
  10
7089.3850245081276
  20
-23445.540740619515
  0
POLYLINE
  5
135
  330
123
  100
AcDbEntity
  8
100 4W CUT4 LHPS 7EMBR3-R7 RINGS_DXF_RINGDESIGN_100 04W CUT03  LHPS 7E MB RINGS_SURVEYEXPORT_R3
  62
7
  100
AcDb3dPolyline
  10
0
  20
0
  30
0
  70
8
  0
VERTEX
  5
136
  330

  100
AcDbEntity
  8
100 4W CUT4 LHPS 7EMBR3-R7 RINGS_DXF_RINGDESIGN_100 04W CUT03  LHPS 7E MB RINGS_SURVEYEXPORT_R3
  6
BYLAYER
  62
7
  100
AcDbVertex
  100
AcDb3dPolylineVertex
  10
7099.6977769080395
  20
-23438.221902471061
  30
-1067.6322076897075
  70
32
  0
VERTEX
  5
137
  330

  100
AcDbEntity
  8
100 4W CUT4 LHPS 7EMBR3-R7 RINGS_DXF_RINGDESIGN_100 04W CUT03  LHPS 7E MB RINGS_SURVEYEXPORT_R3
  6
BYLAYER
  62
7
  100
AcDbVertex
  100
AcDb3dPolylineVertex
  10
7101.3175520072864
  20
-23436.296509428561
  30
-1068.7412825105721
  70
32
  0
SEQEND
  5
138
  330

  100
AcDbEntity
  8
100 4W CUT4 LHPS 7EMBR3-R7 RINGS_DXF_RINGDESIGN_100 04W CUT03  LHPS 7E MB RINGS_SURVEYEXPORT_R3
  0
POLYLINE
  5
139
  330
123
  100
AcDbEntity
  8
100 4W CUT4 LHPS 7EMBR3-R7 RINGS_DXF_RINGDESIGN_100 04W CUT03  LHPS 7E MB RINGS_SURVEYEXPORT_R3
  62
7
  100
AcDb3dPolyline
  10
0
  20
0
  30
0
  70
8
  0
VERTEX
  5
13A
  330

  100
AcDbEntity
  8
100 4W CUT4 LHPS 7EMBR3-R7 RINGS_DXF_RINGDESIGN_100 04W CUT03  LHPS 7E MB RINGS_SURVEYEXPORT_R3
  6
BYLAYER
  62
7
  100
AcDbVertex
  100
AcDb3dPolylineVertex
  10
7099.6854510864105
  20
-23438.236553919411
  30
-1066.672766017482
  70
32
  0
VERTEX
  5
13B
  330

  100
AcDbEntity
  8
100 4W CUT4 LHPS 7EMBR3-R7 RINGS_DXF_RINGDESIGN_100 04W CUT03  LHPS 7E MB RINGS_SURVEYEXPORT_R3
  6
BYLAYER
  62
7
  100
AcDbVertex
  100
AcDb3dPolylineVertex
  10
7101.9512658492258
  20
-23435.543226937196
  30
-1066.9312712871588
  70
32
  0
SEQEND
  5
13C
  330

  100
AcDbEntity
  8
100 4W CUT4 LHPS 7EMBR3-R7 RINGS_DXF_RINGDESIGN_100 04W CUT03  LHPS 7E MB RINGS_SURVEYEXPORT_R3
  0
POLYLINE
  5
13D
  330
123
  100
AcDbEntity
  8
100 4W CUT4 LHPS 7EMBR3-R7 RINGS_DXF_RINGDESIGN_100 04W CUT03  LHPS 7E MB RINGS_SURVEYEXPORT_R3
  62
7
  100
AcDb3dPolyline
  10
0
  20
0
  30
0
  70
8
  0
VERTEX
  5
13E
  330

  100
AcDbEntity
  8
100 4W CUT4 LHPS 7EMBR3-R7 RINGS_DXF_RINGDESIGN_100 04W CUT03  LHPS 7E MB RINGS_SURVEYEXPORT_R3
  6
BYLAYER
  62
7
  100
AcDbVertex
  100
AcDb3dPolylineVertex
  10
7099.7311381351174
  20
-23438.182246672837
  30
-1065.7705983510798
  70
32
  0
VERTEX
  5
13F
  330

  100
AcDbEntity
  8
100 4W CUT4 LHPS 7EMBR3-R7 RINGS_DXF_RINGDESIGN_100 04W CUT03  LHPS 7E MB RINGS_SURVEYEXPORT_R3
  6
BYLAYER
  62
7
  100
AcDbVertex
  100
AcDb3dPolylineVertex
  10
7101.8583014738024
  20
-23435.653731760813
  30
-1064.7357060248235
  70
32
  0
SEQEND
  5
140
  330

  100
AcDbEntity
  8
100 4W CUT4 LHPS 7EMBR3-R7 RINGS_DXF_RINGDESIGN_100 04W CUT03  LHPS 7E MB RINGS_SURVEYEXPORT_R3
  0
POLYLINE
  5
141
  330
123
  100
AcDbEntity
  8
100 4W CUT4 LHPS 7EMBR3-R7 RINGS_DXF_RINGDESIGN_100 04W CUT03  LHPS 7E MB RINGS_SURVEYEXPORT_R3
  62
7
  100
AcDb3dPolyline
  10
0
  20
0
  30
0
  70
8
  0
VERTEX
  5
142
  330

  100
AcDbEntity
  8
100 4W CUT4 LHPS 7EMBR3-R7 RINGS_DXF_RINGDESIGN_100 04W CUT03  LHPS 7E MB RINGS_SURVEYEXPORT_R3
  6
BYLAYER
  62
7
  100
AcDbVertex
  100
AcDb3dPolylineVertex
  10
7099.6705552476815
  20
-23438.25426029375
  30
-1064.6329693506934
  70
32
  0
VERTEX
  5
143
  330

  100
AcDbEntity
  8
100 4W CUT4 LHPS 7EMBR3-R7 RINGS_DXF_RINGDESIGN_100 04W CUT03  LHPS 7E MB RINGS_SURVEYEXPORT_R3
  6
BYLAYER
  62
7
  100
AcDbVertex
  100
AcDb3dPolylineVertex
  10
7102.0095766081868
  20
-23435.473914148242
  30
-1061.2176056827502
  70
32
  0
SEQEND
  5
144
  330

  100
AcDbEntity
  8
100 4W CUT4 LHPS 7EMBR3-R7 RINGS_DXF_RINGDESIGN_100 04W CUT03  LHPS 7E MB RINGS_SURVEYEXPORT_R3
  0
POLYLINE
  5
145
  330
123
  100
AcDbEntity
  8
100 4W CUT4 LHPS 7EMBR3-R7 RINGS_DXF_RINGDESIGN_100 04W CUT03  LHPS 7E MB RINGS_SURVEYEXPORT_R3
  62
7
  100
AcDb3dPolyline
  10
0
  20
0
  30
0
  70
8
  0
VERTEX
  5
146
  330

  100
AcDbEntity
  8
100 4W CUT4 LHPS 7EMBR3-R7 RINGS_DXF_RINGDESIGN_100 04W CUT03  LHPS 7E MB RINGS_SURVEYEXPORT_R3
  6
BYLAYER
  62
7
  100
AcDbVertex
  100
AcDb3dPolylineVertex
  10
7099.6025219181338
  20
-23438.335130100571
  30
-1063.1339978384487
  70
32
  0
VERTEX
  5
147
  330

  100
AcDbEntity
  8
100 4W CUT4 LHPS 7EMBR3-R7 RINGS_DXF_RINGDESIGN_100 04W CUT03  LHPS 7E MB RINGS_SURVEYEXPORT_R3
  6
BYLAYER
  62
7
  100
AcDbVertex
  100
AcDb3dPolylineVertex
  10
7102.1322309001762
  20
-23435.32811753701
  30
-1056.1114687577488
  70
32
  0
SEQEND
  5
148
  330

  100
AcDbEntity
  8
100 4W CUT4 LHPS 7EMBR3-R7 RINGS_DXF_RINGDESIGN_100 04W CUT03  LHPS 7E MB RINGS_SURVEYEXPORT_R3
  0
POLYLINE
  5
149
  330
123
  100
AcDbEntity
  8
100 4W CUT4 LHPS 7EMBR3-R7 RINGS_DXF_RINGDESIGN_100 04W CUT03  LHPS 7E MB RINGS_SURVEYEXPORT_R3
  62
7
  100
AcDb3dPolyline
  10
0
  20
0
  30
0
  70
8
  0
VERTEX
  5
14A
  330

  100
AcDbEntity
  8
100 4W CUT4 LHPS 7EMBR3-R7 RINGS_DXF_RINGDESIGN_100 04W CUT03  LHPS 7E MB RINGS_SURVEYEXPORT_R3
  6
BYLAYER
  62
7
  100
AcDbVertex
  100
AcDb3dPolylineVertex
  10
7099.4126828439857
  20
-23438.560787867955
  30
-1062.3305909944606
  70
32
  0
VERTEX
  5
14B
  330

  100
AcDbEntity
  8
100 4W CUT4 LHPS 7EMBR3-R7 RINGS_DXF_RINGDESIGN_100 04W CUT03  LHPS 7E MB RINGS_SURVEYEXPORT_R3
  6
BYLAYER
  62
7
  100
AcDbVertex
  100
AcDb3dPolylineVertex
  10
7101.9359840329962
  20
-23435.561392114978
  30
-1052.7581848070033
  70
32
  0
SEQEND
  5
14C
  330

  100
AcDbEntity
  8
100 4W CUT4 LHPS 7EMBR3-R7 RINGS_DXF_RINGDESIGN_100 04W CUT03  LHPS 7E MB RINGS_SURVEYEXPORT_R3
  0
POLYLINE
  5
14D
  330
123
  100
AcDbEntity
  8
100 4W CUT4 LHPS 7EMBR3-R7 RINGS_DXF_RINGDESIGN_100 04W CUT03  LHPS 7E MB RINGS_SURVEYEXPORT_R3
  62
7
  100
AcDb3dPolyline
  10
0
  20
0
  30
0
  70
8
  0
VERTEX
  5
14E
  330

  100
AcDbEntity
  8
100 4W CUT4 LHPS 7EMBR3-R7 RINGS_DXF_RINGDESIGN_100 04W CUT03  LHPS 7E MB RINGS_SURVEYEXPORT_R3
  6
BYLAYER
  62
7
  100
AcDbVertex
  100
AcDb3dPolylineVertex
  10
7099.1830750565377
  20
-23438.83371787945
  30
-1062.1397330377836
  70
32
  0
VERTEX
  5
14F
  330

  100
AcDbEntity
  8
100 4W CUT4 LHPS 7EMBR3-R7 RINGS_DXF_RINGDESIGN_100 04W CUT03  LHPS 7E MB RINGS_SURVEYEXPORT_R3
  6
BYLAYER
  62
7
  100
AcDbVertex
  100
AcDb3dPolylineVertex
  10
7101.3963051482424
  20
-23436.202897204406
  30
-1050.3956438417047
  70
32
  0
SEQEND
  5
150
  330

  100
AcDbEntity
  8
100 4W CUT4 LHPS 7EMBR3-R7 RINGS_DXF_RINGDESIGN_100 04W CUT03  LHPS 7E MB RINGS_SURVEYEXPORT_R3
  0
POLYLINE
  5
151
  330
123
  100
AcDbEntity
  8
100 4W CUT4 LHPS 7EMBR3-R7 RINGS_DXF_RINGDESIGN_100 04W CUT03  LHPS 7E MB RINGS_SURVEYEXPORT_R3
  62
7
  100
AcDb3dPolyline
  10
0
  20
0
  30
0
  70
8
  0
VERTEX
  5
152
  330

  100
AcDbEntity
  8
100 4W CUT4 LHPS 7EMBR3-R7 RINGS_DXF_RINGDESIGN_100 04W CUT03  LHPS 7E MB RINGS_SURVEYEXPORT_R3
  6
BYLAYER
  62
7
  100
AcDbVertex
  100
AcDb3dPolylineVertex
  10
7098.9285981856092
  20
-23439.136209254328
  30
-1061.9515425402453
  70
32
  0
VERTEX
  5
153
  330

  100
AcDbEntity
  8
100 4W CUT4 LHPS 7EMBR3-R7 RINGS_DXF_RINGDESIGN_100 04W CUT03  LHPS 7E MB RINGS_SURVEYEXPORT_R3
  6
BYLAYER
  62
7
  100
AcDbVertex
  100
AcDb3dPolylineVertex
  10
7100.4641325291286
  20
-23437.310951449766
  30
-1050.0526943467421
  70
32
  0
SEQEND
  5
154
  330

  100
AcDbEntity
  8
100 4W CUT4 LHPS 7EMBR3-R7 RINGS_DXF_RINGDESIGN_100 04W CUT03  LHPS 7E MB RINGS_SURVEYEXPORT_R3
  0
POLYLINE
  5
155
  330
123
  100
AcDbEntity
  8
100 4W CUT4 LHPS 7EMBR3-R7 RINGS_DXF_RINGDESIGN_100 04W CUT03  LHPS 7E MB RINGS_SURVEYEXPORT_R3
  62
7
  100
AcDb3dPolyline
  10
0
  20
0
  30
0
  70
8
  0
VERTEX
  5
156
  330

  100
AcDbEntity
  8
100 4W CUT4 LHPS 7EMBR3-R7 RINGS_DXF_RINGDESIGN_100 04W CUT03  LHPS 7E MB RINGS_SURVEYEXPORT_R3
  6
BYLAYER
  62
7
  100
AcDbVertex
  100
AcDb3dPolylineVertex
  10
7098.6798713064318
  20
-23439.43186573335
  30
-1061.8816653156969
  70
32
  0
VERTEX
  5
157
  330

  100
AcDbEntity
  8
100 4W CUT4 LHPS 7EMBR3-R7 RINGS_DXF_RINGDESIGN_100 04W CUT03  LHPS 7E MB RINGS_SURVEYEXPORT_R3
  6
BYLAYER
  62
7
  100
AcDbVertex
  100
AcDb3dPolylineVertex
  10
7099.6055524852136
  20
-23438.331527728384
  30
-1050.0526943467423
  70
32
  0
SEQEND
  5
158
  330

  100
AcDbEntity
  8
100 4W CUT4 LHPS 7EMBR3-R7 RINGS_DXF_RINGDESIGN_100 04W CUT03  LHPS 7E MB RINGS_SURVEYEXPORT_R3
  0
POLYLINE
  5
159
  330
123
  100
AcDbEntity
  8
100 4W CUT4 LHPS 7EMBR3-R7 RINGS_DXF_RINGDESIGN_100 04W CUT03  LHPS 7E MB RINGS_SURVEYEXPORT_R3
  62
7
  100
AcDb3dPolyline
  10
0
  20
0
  30
0
  70
8
  0
VERTEX
  5
15A
  330

  100
AcDbEntity
  8
100 4W CUT4 LHPS 7EMBR3-R7 RINGS_DXF_RINGDESIGN_100 04W CUT03  LHPS 7E MB RINGS_SURVEYEXPORT_R3
  6
BYLAYER
  62
7
  100
AcDbVertex
  100
AcDb3dPolylineVertex
  10
7098.2670509484024
  20
-23439.92257672497
  30
-1061.9227095625663
  70
32
  0
VERTEX
  5
15B
  330

  100
AcDbEntity
  8
100 4W CUT4 LHPS 7EMBR3-R7 RINGS_DXF_RINGDESIGN_100 04W CUT03  LHPS 7E MB RINGS_SURVEYEXPORT_R3
  6
BYLAYER
  62
7
  100
AcDbVertex
  100
AcDb3dPolylineVertex
  10
7098.10917012295
  20
-23440.110246385415
  30
-1050.0145888473019
  70
32
  0
SEQEND
  5
15C
  330

  100
AcDbEntity
  8
100 4W CUT4 LHPS 7EMBR3-R7 RINGS_DXF_RINGDESIGN_100 04W CUT03  LHPS 7E MB RINGS_SURVEYEXPORT_R3
  0
POLYLINE
  5
15D
  330
123
  100
AcDbEntity
  8
100 4W CUT4 LHPS 7EMBR3-R7 RINGS_DXF_RINGDESIGN_100 04W CUT03  LHPS 7E MB RINGS_SURVEYEXPORT_R3
  62
7
  100
AcDb3dPolyline
  10
0
  20
0
  30
0
  70
8
  0
VERTEX
  5
15E
  330

  100
AcDbEntity
  8
100 4W CUT4 LHPS 7EMBR3-R7 RINGS_DXF_RINGDESIGN_100 04W CUT03  LHPS 7E MB RINGS_SURVEYEXPORT_R3
  6
BYLAYER
  62
7
  100
AcDbVertex
  100
AcDb3dPolylineVertex
  10
7097.7869543323022
  20
-23440.493257608257
  30
-1062.029153385377
  70
32
  0
VERTEX
  5
15F
  330

  100
AcDbEntity
  8
100 4W CUT4 LHPS 7EMBR3-R7 RINGS_DXF_RINGDESIGN_100 04W CUT03  LHPS 7E MB RINGS_SURVEYEXPORT_R3
  6
BYLAYER
  62
7
  100
AcDbVertex
  100
AcDb3dPolylineVertex
  10
7096.6127877606905
  20
-23441.888965042439
  30
-1050.0907998461826
  70
32
  0
SEQEND
  5
160
  330

  100
AcDbEntity
  8
100 4W CUT4 LHPS 7EMBR3-R7 RINGS_DXF_RINGDESIGN_100 04W CUT03  LHPS 7E MB RINGS_SURVEYEXPORT_R3
  0
POLYLINE
  5
161
  330
123
  100
AcDbEntity
  8
100 4W CUT4 LHPS 7EMBR3-R7 RINGS_DXF_RINGDESIGN_100 04W CUT03  LHPS 7E MB RINGS_SURVEYEXPORT_R3
  62
7
  100
AcDb3dPolyline
  10
0
  20
0
  30
0
  70
8
  0
VERTEX
  5
162
  330

  100
AcDbEntity
  8
100 4W CUT4 LHPS 7EMBR3-R7 RINGS_DXF_RINGDESIGN_100 04W CUT03  LHPS 7E MB RINGS_SURVEYEXPORT_R3
  6
BYLAYER
  62
7
  100
AcDbVertex
  100
AcDb3dPolylineVertex
  10
7097.4430660620537
  20
-23440.902030457804
  30
-1062.0936135224413
  70
32
  0
VERTEX
  5
163
  330

  100
AcDbEntity
  8
100 4W CUT4 LHPS 7EMBR3-R7 RINGS_DXF_RINGDESIGN_100 04W CUT03  LHPS 7E MB RINGS_SURVEYEXPORT_R3
  6
BYLAYER
  62
7
  100
AcDbVertex
  100
AcDb3dPolylineVertex
  10
7095.2881214072149
  20
-23443.463568443745
  30
-1049.9764833478609
  70
32
  0
SEQEND
  5
164
  330

  100
AcDbEntity
  8
100 4W CUT4 LHPS 7EMBR3-R7 RINGS_DXF_RINGDESIGN_100 04W CUT03  LHPS 7E MB RINGS_SURVEYEXPORT_R3
  0
POLYLINE
  5
165
  330
123
  100
AcDbEntity
  8
100 4W CUT4 LHPS 7EMBR3-R7 RINGS_DXF_RINGDESIGN_100 04W CUT03  LHPS 7E MB RINGS_SURVEYEXPORT_R3
  62
7
  100
AcDb3dPolyline
  10
0
  20
0
  30
0
  70
8
  0
VERTEX
  5
166
  330

  100
AcDbEntity
  8
100 4W CUT4 LHPS 7EMBR3-R7 RINGS_DXF_RINGDESIGN_100 04W CUT03  LHPS 7E MB RINGS_SURVEYEXPORT_R3
  6
BYLAYER
  62
7
  100
AcDbVertex
  100
AcDb3dPolylineVertex
  10
7097.1114218638195
  20
-23441.296249033065
  30
-1062.1840269315321
  70
32
  0
VERTEX
  5
167
  330

  100
AcDbEntity
  8
100 4W CUT4 LHPS 7EMBR3-R7 RINGS_DXF_RINGDESIGN_100 04W CUT03  LHPS 7E MB RINGS_SURVEYEXPORT_R3
  6
BYLAYER
  62
7
  100
AcDbVertex
  100
AcDb3dPolylineVertex
  10
7094.0615784873326
  20
-23444.921534556059
  30
-1050.2432218439424
  70
32
  0
SEQEND
  5
168
  330

  100
AcDbEntity
  8
100 4W CUT4 LHPS 7EMBR3-R7 RINGS_DXF_RINGDESIGN_100 04W CUT03  LHPS 7E MB RINGS_SURVEYEXPORT_R3
  0
POLYLINE
  5
169
  330
123
  100
AcDbEntity
  8
100 4W CUT4 LHPS 7EMBR3-R7 RINGS_DXF_RINGDESIGN_100 04W CUT03  LHPS 7E MB RINGS_SURVEYEXPORT_R3
  62
7
  100
AcDb3dPolyline
  10
0
  20
0
  30
0
  70
8
  0
VERTEX
  5
16A
  330

  100
AcDbEntity
  8
100 4W CUT4 LHPS 7EMBR3-R7 RINGS_DXF_RINGDESIGN_100 04W CUT03  LHPS 7E MB RINGS_SURVEYEXPORT_R3
  6
BYLAYER
  62
7
  100
AcDbVertex
  100
AcDb3dPolylineVertex
  10
7096.868826753117
  20
-23441.584616806158
  30
-1062.4994902252486
  70
32
  0
VERTEX
  5
16B
  330

  100
AcDbEntity
  8
100 4W CUT4 LHPS 7EMBR3-R7 RINGS_DXF_RINGDESIGN_100 04W CUT03  LHPS 7E MB RINGS_SURVEYEXPORT_R3
  6
BYLAYER
  62
7
  100
AcDbVertex
  100
AcDb3dPolylineVertex
  10
7092.8105047090457
  20
-23446.408659990619
  30
-1050.2051163445028
  70
32
  0
SEQEND
  5
16C
  330

  100
AcDbEntity
  8
100 4W CUT4 LHPS 7EMBR3-R7 RINGS_DXF_RINGDESIGN_100 04W CUT03  LHPS 7E MB RINGS_SURVEYEXPORT_R3
  0
POLYLINE
  5
16D
  330
123
  100
AcDbEntity
  8
100 4W CUT4 LHPS 7EMBR3-R7 RINGS_DXF_RINGDESIGN_100 04W CUT03  LHPS 7E MB RINGS_SURVEYEXPORT_R3
  62
7
  100
AcDb3dPolyline
  10
0
  20
0
  30
0
  70
8
  0
VERTEX
  5
16E
  330

  100
AcDbEntity
  8
100 4W CUT4 LHPS 7EMBR3-R7 RINGS_DXF_RINGDESIGN_100 04W CUT03  LHPS 7E MB RINGS_SURVEYEXPORT_R3
  6
BYLAYER
  62
7
  100
AcDbVertex
  100
AcDb3dPolylineVertex
  10
7096.5725341782017
  20
-23441.9368136405
  30
-1062.7641289442327
  70
32
  0
VERTEX
  5
16F
  330

  100
AcDbEntity
  8
100 4W CUT4 LHPS 7EMBR3-R7 RINGS_DXF_RINGDESIGN_100 04W CUT03  LHPS 7E MB RINGS_SURVEYEXPORT_R3
  6
BYLAYER
  62
7
  100
AcDbVertex
  100
AcDb3dPolylineVertex
  10
7092.2708258242983
  20
-23447.050165080043
  30
-1052.6438683086819
  70
32
  0
SEQEND
  5
170
  330

  100
AcDbEntity
  8
100 4W CUT4 LHPS 7EMBR3-R7 RINGS_DXF_RINGDESIGN_100 04W CUT03  LHPS 7E MB RINGS_SURVEYEXPORT_R3
  0
POLYLINE
  5
171
  330
123
  100
AcDbEntity
  8
100 4W CUT4 LHPS 7EMBR3-R7 RINGS_DXF_RINGDESIGN_100 04W CUT03  LHPS 7E MB RINGS_SURVEYEXPORT_R3
  62
7
  100
AcDb3dPolyline
  10
0
  20
0
  30
0
  70
8
  0
VERTEX
  5
172
  330

  100
AcDbEntity
  8
100 4W CUT4 LHPS 7EMBR3-R7 RINGS_DXF_RINGDESIGN_100 04W CUT03  LHPS 7E MB RINGS_SURVEYEXPORT_R3
  6
BYLAYER
  62
7
  100
AcDbVertex
  100
AcDb3dPolylineVertex
  10
7096.302051943203
  20
-23442.25833025945
  30
-1063.1186256679571
  70
32
  0
VERTEX
  5
173
  330

  100
AcDbEntity
  8
100 4W CUT4 LHPS 7EMBR3-R7 RINGS_DXF_RINGDESIGN_100 04W CUT03  LHPS 7E MB RINGS_SURVEYEXPORT_R3
  6
BYLAYER
  62
7
  100
AcDbVertex
  100
AcDb3dPolylineVertex
  10
7092.2462949659011
  20
-23447.079324402279
  30
-1055.7685192627864
  70
32
  0
SEQEND
  5
174
  330

  100
AcDbEntity
  8
100 4W CUT4 LHPS 7EMBR3-R7 RINGS_DXF_RINGDESIGN_100 04W CUT03  LHPS 7E MB RINGS_SURVEYEXPORT_R3
  0
POLYLINE
  5
175
  330
123
  100
AcDbEntity
  8
100 4W CUT4 LHPS 7EMBR3-R7 RINGS_DXF_RINGDESIGN_100 04W CUT03  LHPS 7E MB RINGS_SURVEYEXPORT_R3
  62
7
  100
AcDb3dPolyline
  10
0
  20
0
  30
0
  70
8
  0
VERTEX
  5
176
  330

  100
AcDbEntity
  8
100 4W CUT4 LHPS 7EMBR3-R7 RINGS_DXF_RINGDESIGN_100 04W CUT03  LHPS 7E MB RINGS_SURVEYEXPORT_R3
  6
BYLAYER
  62
7
  100
AcDbVertex
  100
AcDb3dPolylineVertex
  10
7096.15799276951
  20
-23442.429570409313
  30
-1063.9314518895374
  70
32
  0
VERTEX
  5
177
  330

  100
AcDbEntity
  8
100 4W CUT4 LHPS 7EMBR3-R7 RINGS_DXF_RINGDESIGN_100 04W CUT03  LHPS 7E MB RINGS_SURVEYEXPORT_R3
  6
BYLAYER
  62
7
  100
AcDbVertex
  100
AcDb3dPolylineVertex
  10
7092.2217641075022
  20
-23447.108483724533
  30
-1058.8931702168913
  70
32
  0
SEQEND
  5
178
  330

  100
AcDbEntity
  8
100 4W CUT4 LHPS 7EMBR3-R7 RINGS_DXF_RINGDESIGN_100 04W CUT03  LHPS 7E MB RINGS_SURVEYEXPORT_R3
  0
POLYLINE
  5
179
  330
123
  100
AcDbEntity
  8
100 4W CUT4 LHPS 7EMBR3-R7 RINGS_DXF_RINGDESIGN_100 04W CUT03  LHPS 7E MB RINGS_SURVEYEXPORT_R3
  62
7
  100
AcDb3dPolyline
  10
0
  20
0
  30
0
  70
8
  0
VERTEX
  5
17A
  330

  100
AcDbEntity
  8
100 4W CUT4 LHPS 7EMBR3-R7 RINGS_DXF_RINGDESIGN_100 04W CUT03  LHPS 7E MB RINGS_SURVEYEXPORT_R3
  6
BYLAYER
  62
7
  100
AcDbVertex
  100
AcDb3dPolylineVertex
  10
7096.1976659266065
  20
-23442.382411750878
  30
-1064.8515887598533
  70
32
  0
VERTEX
  5
17B
  330

  100
AcDbEntity
  8
100 4W CUT4 LHPS 7EMBR3-R7 RINGS_DXF_RINGDESIGN_100 04W CUT03  LHPS 7E MB RINGS_SURVEYEXPORT_R3
  6
BYLAYER
  62
7
  100
AcDbVertex
  100
AcDb3dPolylineVertex
  10
7092.2708258242965
  20
-23447.05016508004
  30
-1061.40813317995
  70
32
  0
SEQEND
  5
17C
  330

  100
AcDbEntity
  8
100 4W CUT4 LHPS 7EMBR3-R7 RINGS_DXF_RINGDESIGN_100 04W CUT03  LHPS 7E MB RINGS_SURVEYEXPORT_R3
  0
POLYLINE
  5
17D
  330
123
  100
AcDbEntity
  8
100 4W CUT4 LHPS 7EMBR3-R7 RINGS_DXF_RINGDESIGN_100 04W CUT03  LHPS 7E MB RINGS_SURVEYEXPORT_R3
  62
7
  100
AcDb3dPolyline
  10
0
  20
0
  30
0
  70
8
  0
VERTEX
  5
17E
  330

  100
AcDbEntity
  8
100 4W CUT4 LHPS 7EMBR3-R7 RINGS_DXF_RINGDESIGN_100 04W CUT03  LHPS 7E MB RINGS_SURVEYEXPORT_R3
  6
BYLAYER
  62
7
  100
AcDbVertex
  100
AcDb3dPolylineVertex
  10
7096.2562347344719
  20
-23442.312792224548
  30
-1065.6861933670423
  70
32
  0
VERTEX
  5
17F
  330

  100
AcDbEntity
  8
100 4W CUT4 LHPS 7EMBR3-R7 RINGS_DXF_RINGDESIGN_100 04W CUT03  LHPS 7E MB RINGS_SURVEYEXPORT_R3
  6
BYLAYER
  62
7
  100
AcDbVertex
  100
AcDb3dPolylineVertex
  10
7092.1727023907069
  20
-23447.166802369025
  30
-1063.6563576469284
  70
32
  0
SEQEND
  5
180
  330

  100
AcDbEntity
  8
100 4W CUT4 LHPS 7EMBR3-R7 RINGS_DXF_RINGDESIGN_100 04W CUT03  LHPS 7E MB RINGS_SURVEYEXPORT_R3
  0
POLYLINE
  5
181
  330
123
  100
AcDbEntity
  8
100 4W CUT4 LHPS 7EMBR3-R7 RINGS_DXF_RINGDESIGN_100 04W CUT03  LHPS 7E MB RINGS_SURVEYEXPORT_R3
  62
7
  100
AcDb3dPolyline
  10
0
  20
0
  30
0
  70
8
  0
VERTEX
  5
182
  330

  100
AcDbEntity
  8
100 4W CUT4 LHPS 7EMBR3-R7 RINGS_DXF_RINGDESIGN_100 04W CUT03  LHPS 7E MB RINGS_SURVEYEXPORT_R3
  6
BYLAYER
  62
7
  100
AcDbVertex
  100
AcDb3dPolylineVertex
  10
7096.3254997337062
  20
-23442.230458357531
  30
-1066.3457184934343
  70
32
  0
VERTEX
  5
183
  330

  100
AcDbEntity
  8
100 4W CUT4 LHPS 7EMBR3-R7 RINGS_DXF_RINGDESIGN_100 04W CUT03  LHPS 7E MB RINGS_SURVEYEXPORT_R3
  6
BYLAYER
  62
7
  100
AcDbVertex
  100
AcDb3dPolylineVertex
  10
7092.0991098155118
  20
-23447.254280335765
  30
-1065.9045821139055
  70
32
  0
SEQEND
  5
184
  330

  100
AcDbEntity
  8
100 4W CUT4 LHPS 7EMBR3-R7 RINGS_DXF_RINGDESIGN_100 04W CUT03  LHPS 7E MB RINGS_SURVEYEXPORT_R3
  0
POLYLINE
  5
185
  330
123
  100
AcDbEntity
  8
100 4W CUT4 LHPS 7EMBR3-R7 RINGS_DXF_RINGDESIGN_100 04W CUT03  LHPS 7E MB RINGS_SURVEYEXPORT_R3
  62
7
  100
AcDb3dPolyline
  10
0
  20
0
  30
0
  70
8
  0
VERTEX
  5
186
  330

  100
AcDbEntity
  8
100 4W CUT4 LHPS 7EMBR3-R7 RINGS_DXF_RINGDESIGN_100 04W CUT03  LHPS 7E MB RINGS_SURVEYEXPORT_R3
  6
BYLAYER
  62
7
  100
AcDbVertex
  100
AcDb3dPolylineVertex
  10
7096.47273151947
  20
-23442.055446989551
  30
-1067.0120487306344
  70
32
  0
VERTEX
  5
187
  330

  100
AcDbEntity
  8
100 4W CUT4 LHPS 7EMBR3-R7 RINGS_DXF_RINGDESIGN_100 04W CUT03  LHPS 7E MB RINGS_SURVEYEXPORT_R3
  6
BYLAYER
  62
7
  100
AcDbVertex
  100
AcDb3dPolylineVertex
  10
7092.2708258242965
  20
-23447.05016508004
  30
-1068.0384900825622
  70
32
  0
SEQEND
  5
188
  330

  100
AcDbEntity
  8
100 4W CUT4 LHPS 7EMBR3-R7 RINGS_DXF_RINGDESIGN_100 04W CUT03  LHPS 7E MB RINGS_SURVEYEXPORT_R3
  0
POLYLINE
  5
189
  330
123
  100
AcDbEntity
  8
100 4W CUT4 LHPS 7EMBR3-R7 RINGS_DXF_RINGDESIGN_100 04W CUT03  LHPS 7E MB RINGS_SURVEYEXPORT_R3
  62
7
  100
AcDb3dPolyline
  10
0
  20
0
  30
0
  70
8
  0
VERTEX
  5
18A
  330

  100
AcDbEntity
  8
100 4W CUT4 LHPS 7EMBR3-R7 RINGS_DXF_RINGDESIGN_100 04W CUT03  LHPS 7E MB RINGS_SURVEYEXPORT_R3
  6
BYLAYER
  62
7
  100
AcDbVertex
  100
AcDb3dPolylineVertex
  10
7096.6329956828513
  20
-23441.864944304783
  30
-1067.6259952996443
  70
32
  0
VERTEX
  5
18B
  330

  100
AcDbEntity
  8
100 4W CUT4 LHPS 7EMBR3-R7 RINGS_DXF_RINGDESIGN_100 04W CUT03  LHPS 7E MB RINGS_SURVEYEXPORT_R3
  6
BYLAYER
  62
7
  100
AcDbVertex
  100
AcDb3dPolylineVertex
  10
7095.1899979736245
  20
-23443.580205732731
  30
-1068.6100725741667
  70
32
  0
SEQEND
  5
18C
  330

  100
AcDbEntity
  8
100 4W CUT4 LHPS 7EMBR3-R7 RINGS_DXF_RINGDESIGN_100 04W CUT03  LHPS 7E MB RINGS_SURVEYEXPORT_R3
  0
LWPOLYLINE
  5
18D
  330
123
  100
AcDbEntity
  8
100 4W CUT4 LHPS 7EMBR3-R7 RINGS_DXF_RINGDESIGN_100 04W CUT03  LHPS 7E MB RINGS_SURVEYEXPORT
  62
7
  100
AcDbPolyline
  90
2
  43
0
  38
-1066.3843497823029
  10
7103.54103699146
  20
-23431.313700375009
  10
7090.6658044092719
  20
-23446.618222123652
  0
LWPOLYLINE
  5
18E
  330
123
  100
AcDbEntity
  8
100 4W CUT4 LHPS 7EMBR3-R7 RINGS_DXF_RINGDESIGN_100 04W CUT03  LHPS 7E MB RINGS_SURVEYEXPORT
  62
1
  100
AcDbPolyline
  90
2
  43
0
  38
-1066.3843497823029
  10
7101.1076180334258
  20
-23429.26653839444
  10
7088.2323854512379
  20
-23444.571060143084
  0
POLYLINE
  5
18F
  330
123
  100
AcDbEntity
  8
100 4W CUT4 LHPS 7EMBR3-R7 RINGS_DXF_RINGDESIGN_100 04W CUT03  LHPS 7E MB RINGS_SURVEYEXPORT_R4
  62
7
  100
AcDb3dPolyline
  10
0
  20
0
  30
0
  70
8
  0
VERTEX
  5
190
  330

  100
AcDbEntity
  8
100 4W CUT4 LHPS 7EMBR3-R7 RINGS_DXF_RINGDESIGN_100 04W CUT03  LHPS 7E MB RINGS_SURVEYEXPORT_R4
  6
BYLAYER
  62
7
  100
AcDbVertex
  100
AcDb3dPolylineVertex
  10
7098.5429067896539
  20
-23437.254874011123
  30
-1067.6516479899667
  70
32
  0
VERTEX
  5
191
  330

  100
AcDbEntity
  8
100 4W CUT4 LHPS 7EMBR3-R7 RINGS_DXF_RINGDESIGN_100 04W CUT03  LHPS 7E MB RINGS_SURVEYEXPORT_R4
  6
BYLAYER
  62
7
  100
AcDbVertex
  100
AcDb3dPolylineVertex
  10
7099.6032384274558
  20
-23435.994479800152
  30
-1068.3776667575091
  70
32
  0
SEQEND
  5
192
  330

  100
AcDbEntity
  8
100 4W CUT4 LHPS 7EMBR3-R7 RINGS_DXF_RINGDESIGN_100 04W CUT03  LHPS 7E MB RINGS_SURVEYEXPORT_R4
  0
POLYLINE
  5
193
  330
123
  100
AcDbEntity
  8
100 4W CUT4 LHPS 7EMBR3-R7 RINGS_DXF_RINGDESIGN_100 04W CUT03  LHPS 7E MB RINGS_SURVEYEXPORT_R4
  62
7
  100
AcDb3dPolyline
  10
0
  20
0
  30
0
  70
8
  0
VERTEX
  5
194
  330

  100
AcDbEntity
  8
100 4W CUT4 LHPS 7EMBR3-R7 RINGS_DXF_RINGDESIGN_100 04W CUT03  LHPS 7E MB RINGS_SURVEYEXPORT_R4
  6
BYLAYER
  62
7
  100
AcDbVertex
  100
AcDb3dPolylineVertex
  10
7098.551788967211
  20
-23437.244315951008
  30
-1066.7272283454331
  70
32
  0
VERTEX
  5
195
  330

  100
AcDbEntity
  8
100 4W CUT4 LHPS 7EMBR3-R7 RINGS_DXF_RINGDESIGN_100 04W CUT03  LHPS 7E MB RINGS_SURVEYEXPORT_R4
  6
BYLAYER
  62
7
  100
AcDbVertex
  100
AcDb3dPolylineVertex
  10
7100.6294012601957
  20
-23434.774701338596
  30
-1066.9642617229601
  70
32
  0
SEQEND
  5
196
  330

  100
AcDbEntity
  8
100 4W CUT4 LHPS 7EMBR3-R7 RINGS_DXF_RINGDESIGN_100 04W CUT03  LHPS 7E MB RINGS_SURVEYEXPORT_R4
  0
POLYLINE
  5
197
  330
123
  100
AcDbEntity
  8
100 4W CUT4 LHPS 7EMBR3-R7 RINGS_DXF_RINGDESIGN_100 04W CUT03  LHPS 7E MB RINGS_SURVEYEXPORT_R4
  62
7
  100
AcDb3dPolyline
  10
0
  20
0
  30
0
  70
8
  0
VERTEX
  5
198
  330

  100
AcDbEntity
  8
100 4W CUT4 LHPS 7EMBR3-R7 RINGS_DXF_RINGDESIGN_100 04W CUT03  LHPS 7E MB RINGS_SURVEYEXPORT_R4
  6
BYLAYER
  62
7
  100
AcDbVertex
  100
AcDb3dPolylineVertex
  10
7098.560697198548
  20
-23437.233726921313
  30
-1065.8000971334814
  70
32
  0
VERTEX
  5
199
  330

  100
AcDbEntity
  8
100 4W CUT4 LHPS 7EMBR3-R7 RINGS_DXF_RINGDESIGN_100 04W CUT03  LHPS 7E MB RINGS_SURVEYEXPORT_R4
  6
BYLAYER
  62
7
  100
AcDbVertex
  100
AcDb3dPolylineVertex
  10
7100.6820917579889
  20
-23434.712069237452
  30
-1064.7680113925339
  70
32
  0
SEQEND
  5
19A
  330

  100
AcDbEntity
  8
100 4W CUT4 LHPS 7EMBR3-R7 RINGS_DXF_RINGDESIGN_100 04W CUT03  LHPS 7E MB RINGS_SURVEYEXPORT_R4
  0
POLYLINE
  5
19B
  330
123
  100
AcDbEntity
  8
100 4W CUT4 LHPS 7EMBR3-R7 RINGS_DXF_RINGDESIGN_100 04W CUT03  LHPS 7E MB RINGS_SURVEYEXPORT_R4
  62
7
  100
AcDb3dPolyline
  10
0
  20
0
  30
0
  70
8
  0
VERTEX
  5
19C
  330

  100
AcDbEntity
  8
100 4W CUT4 LHPS 7EMBR3-R7 RINGS_DXF_RINGDESIGN_100 04W CUT03  LHPS 7E MB RINGS_SURVEYEXPORT_R4
  6
BYLAYER
  62
7
  100
AcDbVertex
  100
AcDb3dPolylineVertex
  10
7098.5724766651592
  20
-23437.219724913823
  30
-1064.5741398419641
  70
32
  0
VERTEX
  5
19D
  330

  100
AcDbEntity
  8
100 4W CUT4 LHPS 7EMBR3-R7 RINGS_DXF_RINGDESIGN_100 04W CUT03  LHPS 7E MB RINGS_SURVEYEXPORT_R4
  6
BYLAYER
  62
7
  100
AcDbVertex
  100
AcDb3dPolylineVertex
  10
7100.7634966982178
  20
-23434.615304874525
  30
-1061.3748829463248
  70
32
  0
SEQEND
  5
19E
  330

  100
AcDbEntity
  8
100 4W CUT4 LHPS 7EMBR3-R7 RINGS_DXF_RINGDESIGN_100 04W CUT03  LHPS 7E MB RINGS_SURVEYEXPORT_R4
  0
POLYLINE
  5
19F
  330
123
  100
AcDbEntity
  8
100 4W CUT4 LHPS 7EMBR3-R7 RINGS_DXF_RINGDESIGN_100 04W CUT03  LHPS 7E MB RINGS_SURVEYEXPORT_R4
  62
7
  100
AcDb3dPolyline
  10
0
  20
0
  30
0
  70
8
  0
VERTEX
  5
1A0
  330

  100
AcDbEntity
  8
100 4W CUT4 LHPS 7EMBR3-R7 RINGS_DXF_RINGDESIGN_100 04W CUT03  LHPS 7E MB RINGS_SURVEYEXPORT_R4
  6
BYLAYER
  62
7
  100
AcDbVertex
  100
AcDb3dPolylineVertex
  10
7098.4797651696044
  20
-23437.329929144391
  30
-1063.0718818167159
  70
32
  0
VERTEX
  5
1A1
  330

  100
AcDbEntity
  8
100 4W CUT4 LHPS 7EMBR3-R7 RINGS_DXF_RINGDESIGN_100 04W CUT03  LHPS 7E MB RINGS_SURVEYEXPORT_R4
  6
BYLAYER
  62
7
  100
AcDbVertex
  100
AcDb3dPolylineVertex
  10
7100.853458857584
  20
-23434.508368722833
  30
-1056.4824547044173
  70
32
  0
SEQEND
  5
1A2
  330

  100
AcDbEntity
  8
100 4W CUT4 LHPS 7EMBR3-R7 RINGS_DXF_RINGDESIGN_100 04W CUT03  LHPS 7E MB RINGS_SURVEYEXPORT_R4
  0
POLYLINE
  5
1A3
  330
123
  100
AcDbEntity
  8
100 4W CUT4 LHPS 7EMBR3-R7 RINGS_DXF_RINGDESIGN_100 04W CUT03  LHPS 7E MB RINGS_SURVEYEXPORT_R4
  62
7
  100
AcDb3dPolyline
  10
0
  20
0
  30
0
  70
8
  0
VERTEX
  5
1A4
  330

  100
AcDbEntity
  8
100 4W CUT4 LHPS 7EMBR3-R7 RINGS_DXF_RINGDESIGN_100 04W CUT03  LHPS 7E MB RINGS_SURVEYEXPORT_R4
  6
BYLAYER
  62
7
  100
AcDbVertex
  100
AcDb3dPolylineVertex
  10
7098.317448698971
  20
-23437.5228713642
  30
-1062.1336574141046
  70
32
  0
VERTEX
  5
1A5
  330

  100
AcDbEntity
  8
100 4W CUT4 LHPS 7EMBR3-R7 RINGS_DXF_RINGDESIGN_100 04W CUT03  LHPS 7E MB RINGS_SURVEYEXPORT_R4
  6
BYLAYER
  62
7
  100
AcDbVertex
  100
AcDb3dPolylineVertex
  10
7100.7613159553357
  20
-23434.617897078333
  30
-1052.8625921334219
  70
32
  0
SEQEND
  5
1A6
  330

  100
AcDbEntity
  8
100 4W CUT4 LHPS 7EMBR3-R7 RINGS_DXF_RINGDESIGN_100 04W CUT03  LHPS 7E MB RINGS_SURVEYEXPORT_R4
  0
POLYLINE
  5
1A7
  330
123
  100
AcDbEntity
  8
100 4W CUT4 LHPS 7EMBR3-R7 RINGS_DXF_RINGDESIGN_100 04W CUT03  LHPS 7E MB RINGS_SURVEYEXPORT_R4
  62
7
  100
AcDb3dPolyline
  10
0
  20
0
  30
0
  70
8
  0
VERTEX
  5
1A8
  330

  100
AcDbEntity
  8
100 4W CUT4 LHPS 7EMBR3-R7 RINGS_DXF_RINGDESIGN_100 04W CUT03  LHPS 7E MB RINGS_SURVEYEXPORT_R4
  6
BYLAYER
  62
7
  100
AcDbVertex
  100
AcDb3dPolylineVertex
  10
7098.1146603507223
  20
-23437.763921664948
  30
-1061.7136502995031
  70
32
  0
VERTEX
  5
1A9
  330

  100
AcDbEntity
  8
100 4W CUT4 LHPS 7EMBR3-R7 RINGS_DXF_RINGDESIGN_100 04W CUT03  LHPS 7E MB RINGS_SURVEYEXPORT_R4
  6
BYLAYER
  62
7
  100
AcDbVertex
  100
AcDb3dPolylineVertex
  10
7100.2220026930363
  20
-23435.258967559934
  30
-1050.5314345291888
  70
32
  0
SEQEND
  5
1AA
  330

  100
AcDbEntity
  8
100 4W CUT4 LHPS 7EMBR3-R7 RINGS_DXF_RINGDESIGN_100 04W CUT03  LHPS 7E MB RINGS_SURVEYEXPORT_R4
  0
POLYLINE
  5
1AB
  330
123
  100
AcDbEntity
  8
100 4W CUT4 LHPS 7EMBR3-R7 RINGS_DXF_RINGDESIGN_100 04W CUT03  LHPS 7E MB RINGS_SURVEYEXPORT_R4
  62
7
  100
AcDb3dPolyline
  10
0
  20
0
  30
0
  70
8
  0
VERTEX
  5
1AC
  330

  100
AcDbEntity
  8
100 4W CUT4 LHPS 7EMBR3-R7 RINGS_DXF_RINGDESIGN_100 04W CUT03  LHPS 7E MB RINGS_SURVEYEXPORT_R4
  6
BYLAYER
  62
7
  100
AcDbVertex
  100
AcDb3dPolylineVertex
  10
7097.8094209029468
  20
-23438.126753461358
  30
-1061.7130853527437
  70
32
  0
VERTEX
  5
1AD
  330

  100
AcDbEntity
  8
100 4W CUT4 LHPS 7EMBR3-R7 RINGS_DXF_RINGDESIGN_100 04W CUT03  LHPS 7E MB RINGS_SURVEYEXPORT_R4
  6
BYLAYER
  62
7
  100
AcDbVertex
  100
AcDb3dPolylineVertex
  10
7099.2966720766417
  20
-23436.358888858664
  30
-1050.1883832084502
  70
32
  0
SEQEND
  5
1AE
  330

  100
AcDbEntity
  8
100 4W CUT4 LHPS 7EMBR3-R7 RINGS_DXF_RINGDESIGN_100 04W CUT03  LHPS 7E MB RINGS_SURVEYEXPORT_R4
  0
POLYLINE
  5
1AF
  330
123
  100
AcDbEntity
  8
100 4W CUT4 LHPS 7EMBR3-R7 RINGS_DXF_RINGDESIGN_100 04W CUT03  LHPS 7E MB RINGS_SURVEYEXPORT_R4
  62
7
  100
AcDb3dPolyline
  10
0
  20
0
  30
0
  70
8
  0
VERTEX
  5
1B0
  330

  100
AcDbEntity
  8
100 4W CUT4 LHPS 7EMBR3-R7 RINGS_DXF_RINGDESIGN_100 04W CUT03  LHPS 7E MB RINGS_SURVEYEXPORT_R4
  6
BYLAYER
  62
7
  100
AcDbVertex
  100
AcDb3dPolylineVertex
  10
7097.545037190559
  20
-23438.441020893068
  30
-1061.7130853527437
  70
32
  0
VERTEX
  5
1B1
  330

  100
AcDbEntity
  8
100 4W CUT4 LHPS 7EMBR3-R7 RINGS_DXF_RINGDESIGN_100 04W CUT03  LHPS 7E MB RINGS_SURVEYEXPORT_R4
  6
BYLAYER
  62
7
  100
AcDbVertex
  100
AcDb3dPolylineVertex
  10
7098.4492646726649
  20
-23437.366184452072
  30
-1050.1582640164909
  70
32
  0
SEQEND
  5
1B2
  330

  100
AcDbEntity
  8
100 4W CUT4 LHPS 7EMBR3-R7 RINGS_DXF_RINGDESIGN_100 04W CUT03  LHPS 7E MB RINGS_SURVEYEXPORT_R4
  0
POLYLINE
  5
1B3
  330
123
  100
AcDbEntity
  8
100 4W CUT4 LHPS 7EMBR3-R7 RINGS_DXF_RINGDESIGN_100 04W CUT03  LHPS 7E MB RINGS_SURVEYEXPORT_R4
  62
7
  100
AcDb3dPolyline
  10
0
  20
0
  30
0
  70
8
  0
VERTEX
  5
1B4
  330

  100
AcDbEntity
  8
100 4W CUT4 LHPS 7EMBR3-R7 RINGS_DXF_RINGDESIGN_100 04W CUT03  LHPS 7E MB RINGS_SURVEYEXPORT_R4
  6
BYLAYER
  62
7
  100
AcDbVertex
  100
AcDb3dPolylineVertex
  10
7097.1113563670424
  20
-23438.956528287057
  30
-1061.7130853527437
  70
32
  0
VERTEX
  5
1B5
  330

  100
AcDbEntity
  8
100 4W CUT4 LHPS 7EMBR3-R7 RINGS_DXF_RINGDESIGN_100 04W CUT03  LHPS 7E MB RINGS_SURVEYEXPORT_R4
  6
BYLAYER
  62
7
  100
AcDbVertex
  100
AcDb3dPolylineVertex
  10
7096.9558426375588
  20
-23439.141384229653
  30
-1049.9835022430452
  70
32
  0
SEQEND
  5
1B6
  330

  100
AcDbEntity
  8
100 4W CUT4 LHPS 7EMBR3-R7 RINGS_DXF_RINGDESIGN_100 04W CUT03  LHPS 7E MB RINGS_SURVEYEXPORT_R4
  0
POLYLINE
  5
1B7
  330
123
  100
AcDbEntity
  8
100 4W CUT4 LHPS 7EMBR3-R7 RINGS_DXF_RINGDESIGN_100 04W CUT03  LHPS 7E MB RINGS_SURVEYEXPORT_R4
  62
7
  100
AcDb3dPolyline
  10
0
  20
0
  30
0
  70
8
  0
VERTEX
  5
1B8
  330

  100
AcDbEntity
  8
100 4W CUT4 LHPS 7EMBR3-R7 RINGS_DXF_RINGDESIGN_100 04W CUT03  LHPS 7E MB RINGS_SURVEYEXPORT_R4
  6
BYLAYER
  62
7
  100
AcDbVertex
  100
AcDb3dPolylineVertex
  10
7096.6075831068811
  20
-23439.555353105741
  30
-1061.7781916610068
  70
32
  0
VERTEX
  5
1B9
  330

  100
AcDbEntity
  8
100 4W CUT4 LHPS 7EMBR3-R7 RINGS_DXF_RINGDESIGN_100 04W CUT03  LHPS 7E MB RINGS_SURVEYEXPORT_R4
  6
BYLAYER
  62
7
  100
AcDbVertex
  100
AcDb3dPolylineVertex
  10
7095.4625511343
  20
-23440.916428846736
  30
-1050.1360645277043
  70
32
  0
SEQEND
  5
1BA
  330

  100
AcDbEntity
  8
100 4W CUT4 LHPS 7EMBR3-R7 RINGS_DXF_RINGDESIGN_100 04W CUT03  LHPS 7E MB RINGS_SURVEYEXPORT_R4
  0
POLYLINE
  5
1BB
  330
123
  100
AcDbEntity
  8
100 4W CUT4 LHPS 7EMBR3-R7 RINGS_DXF_RINGDESIGN_100 04W CUT03  LHPS 7E MB RINGS_SURVEYEXPORT_R4
  62
7
  100
AcDb3dPolyline
  10
0
  20
0
  30
0
  70
8
  0
VERTEX
  5
1BC
  330

  100
AcDbEntity
  8
100 4W CUT4 LHPS 7EMBR3-R7 RINGS_DXF_RINGDESIGN_100 04W CUT03  LHPS 7E MB RINGS_SURVEYEXPORT_R4
  6
BYLAYER
  62
7
  100
AcDbVertex
  100
AcDb3dPolylineVertex
  10
7096.2394538236776
  20
-23439.992940744272
  30
-1061.8318017532208
  70
32
  0
VERTEX
  5
1BD
  330

  100
AcDbEntity
  8
100 4W CUT4 LHPS 7EMBR3-R7 RINGS_DXF_RINGDESIGN_100 04W CUT03  LHPS 7E MB RINGS_SURVEYEXPORT_R4
  6
BYLAYER
  62
7
  100
AcDbVertex
  100
AcDb3dPolylineVertex
  10
7094.15772608393
  20
-23442.467447302846
  30
-1050.1263660920486
  70
32
  0
SEQEND
  5
1BE
  330

  100
AcDbEntity
  8
100 4W CUT4 LHPS 7EMBR3-R7 RINGS_DXF_RINGDESIGN_100 04W CUT03  LHPS 7E MB RINGS_SURVEYEXPORT_R4
  0
POLYLINE
  5
1BF
  330
123
  100
AcDbEntity
  8
100 4W CUT4 LHPS 7EMBR3-R7 RINGS_DXF_RINGDESIGN_100 04W CUT03  LHPS 7E MB RINGS_SURVEYEXPORT_R4
  62
7
  100
AcDb3dPolyline
  10
0
  20
0
  30
0
  70
8
  0
VERTEX
  5
1C0
  330

  100
AcDbEntity
  8
100 4W CUT4 LHPS 7EMBR3-R7 RINGS_DXF_RINGDESIGN_100 04W CUT03  LHPS 7E MB RINGS_SURVEYEXPORT_R4
  6
BYLAYER
  62
7
  100
AcDbVertex
  100
AcDb3dPolylineVertex
  10
7095.8844021731484
  20
-23440.414983272258
  30
-1061.9171132987353
  70
32
  0
VERTEX
  5
1C1
  330

  100
AcDbEntity
  8
100 4W CUT4 LHPS 7EMBR3-R7 RINGS_DXF_RINGDESIGN_100 04W CUT03  LHPS 7E MB RINGS_SURVEYEXPORT_R4
  6
BYLAYER
  62
7
  100
AcDbVertex
  100
AcDb3dPolylineVertex
  10
7092.8921105562131
  20
-23443.97185821315
  30
-1050.2016359602715
  70
32
  0
SEQEND
  5
1C2
  330

  100
AcDbEntity
  8
100 4W CUT4 LHPS 7EMBR3-R7 RINGS_DXF_RINGDESIGN_100 04W CUT03  LHPS 7E MB RINGS_SURVEYEXPORT_R4
  0
POLYLINE
  5
1C3
  330
123
  100
AcDbEntity
  8
100 4W CUT4 LHPS 7EMBR3-R7 RINGS_DXF_RINGDESIGN_100 04W CUT03  LHPS 7E MB RINGS_SURVEYEXPORT_R4
  62
7
  100
AcDb3dPolyline
  10
0
  20
0
  30
0
  70
8
  0
VERTEX
  5
1C4
  330

  100
AcDbEntity
  8
100 4W CUT4 LHPS 7EMBR3-R7 RINGS_DXF_RINGDESIGN_100 04W CUT03  LHPS 7E MB RINGS_SURVEYEXPORT_R4
  6
BYLAYER
  62
7
  100
AcDbVertex
  100
AcDb3dPolylineVertex
  10
7095.6074418102417
  20
-23440.744200307407
  30
-1062.1908908830123
  70
32
  0
VERTEX
  5
1C5
  330

  100
AcDbEntity
  8
100 4W CUT4 LHPS 7EMBR3-R7 RINGS_DXF_RINGDESIGN_100 04W CUT03  LHPS 7E MB RINGS_SURVEYEXPORT_R4
  6
BYLAYER
  62
7
  100
AcDbVertex
  100
AcDb3dPolylineVertex
  10
7091.6467342239139
  20
-23445.452211211912
  30
-1050.1922324794052
  70
32
  0
SEQEND
  5
1C6
  330

  100
AcDbEntity
  8
100 4W CUT4 LHPS 7EMBR3-R7 RINGS_DXF_RINGDESIGN_100 04W CUT03  LHPS 7E MB RINGS_SURVEYEXPORT_R4
  0
POLYLINE
  5
1C7
  330
123
  100
AcDbEntity
  8
100 4W CUT4 LHPS 7EMBR3-R7 RINGS_DXF_RINGDESIGN_100 04W CUT03  LHPS 7E MB RINGS_SURVEYEXPORT_R4
  62
7
  100
AcDb3dPolyline
  10
0
  20
0
  30
0
  70
8
  0
VERTEX
  5
1C8
  330

  100
AcDbEntity
  8
100 4W CUT4 LHPS 7EMBR3-R7 RINGS_DXF_RINGDESIGN_100 04W CUT03  LHPS 7E MB RINGS_SURVEYEXPORT_R4
  6
BYLAYER
  62
7
  100
AcDbVertex
  100
AcDb3dPolylineVertex
  10
7095.2975755819652
  20
-23441.112531861778
  30
-1062.4971961843837
  70
32
  0
VERTEX
  5
1C9
  330

  100
AcDbEntity
  8
100 4W CUT4 LHPS 7EMBR3-R7 RINGS_DXF_RINGDESIGN_100 04W CUT03  LHPS 7E MB RINGS_SURVEYEXPORT_R4
  6
BYLAYER
  62
7
  100
AcDbVertex
  100
AcDb3dPolylineVertex
  10
7091.111309017132
  20
-23446.088660042624
  30
-1052.6485255538885
  70
32
  0
SEQEND
  5
1CA
  330

  100
AcDbEntity
  8
100 4W CUT4 LHPS 7EMBR3-R7 RINGS_DXF_RINGDESIGN_100 04W CUT03  LHPS 7E MB RINGS_SURVEYEXPORT_R4
  0
POLYLINE
  5
1CB
  330
123
  100
AcDbEntity
  8
100 4W CUT4 LHPS 7EMBR3-R7 RINGS_DXF_RINGDESIGN_100 04W CUT03  LHPS 7E MB RINGS_SURVEYEXPORT_R4
  62
7
  100
AcDb3dPolyline
  10
0
  20
0
  30
0
  70
8
  0
VERTEX
  5
1CC
  330

  100
AcDbEntity
  8
100 4W CUT4 LHPS 7EMBR3-R7 RINGS_DXF_RINGDESIGN_100 04W CUT03  LHPS 7E MB RINGS_SURVEYEXPORT_R4
  6
BYLAYER
  62
7
  100
AcDbVertex
  100
AcDb3dPolylineVertex
  10
7094.91935125896
  20
-23441.562119264592
  30
-1062.6780745565443
  70
32
  0
VERTEX
  5
1CD
  330

  100
AcDbEntity
  8
100 4W CUT4 LHPS 7EMBR3-R7 RINGS_DXF_RINGDESIGN_100 04W CUT03  LHPS 7E MB RINGS_SURVEYEXPORT_R4
  6
BYLAYER
  62
7
  100
AcDbVertex
  100
AcDb3dPolylineVertex
  10
7091.1093377156585
  20
-23446.091003287762
  30
-1055.773320374984
  70
32
  0
SEQEND
  5
1CE
  330

  100
AcDbEntity
  8
100 4W CUT4 LHPS 7EMBR3-R7 RINGS_DXF_RINGDESIGN_100 04W CUT03  LHPS 7E MB RINGS_SURVEYEXPORT_R4
  0
POLYLINE
  5
1CF
  330
123
  100
AcDbEntity
  8
100 4W CUT4 LHPS 7EMBR3-R7 RINGS_DXF_RINGDESIGN_100 04W CUT03  LHPS 7E MB RINGS_SURVEYEXPORT_R4
  62
7
  100
AcDb3dPolyline
  10
0
  20
0
  30
0
  70
8
  0
VERTEX
  5
1D0
  330

  100
AcDbEntity
  8
100 4W CUT4 LHPS 7EMBR3-R7 RINGS_DXF_RINGDESIGN_100 04W CUT03  LHPS 7E MB RINGS_SURVEYEXPORT_R4
  6
BYLAYER
  62
7
  100
AcDbVertex
  100
AcDb3dPolylineVertex
  10
7094.8101592291532
  20
-23441.691913564173
  30
-1063.7024454029868
  70
32
  0
VERTEX
  5
1D1
  330

  100
AcDbEntity
  8
100 4W CUT4 LHPS 7EMBR3-R7 RINGS_DXF_RINGDESIGN_100 04W CUT03  LHPS 7E MB RINGS_SURVEYEXPORT_R4
  6
BYLAYER
  62
7
  100
AcDbVertex
  100
AcDb3dPolylineVertex
  10
7091.1073255417259
  20
-23446.093395117157
  30
-1058.9629039011693
  70
32
  0
SEQEND
  5
1D2
  330

  100
AcDbEntity
  8
100 4W CUT4 LHPS 7EMBR3-R7 RINGS_DXF_RINGDESIGN_100 04W CUT03  LHPS 7E MB RINGS_SURVEYEXPORT_R4
  0
POLYLINE
  5
1D3
  330
123
  100
AcDbEntity
  8
100 4W CUT4 LHPS 7EMBR3-R7 RINGS_DXF_RINGDESIGN_100 04W CUT03  LHPS 7E MB RINGS_SURVEYEXPORT_R4
  62
7
  100
AcDb3dPolyline
  10
0
  20
0
  30
0
  70
8
  0
VERTEX
  5
1D4
  330

  100
AcDbEntity
  8
100 4W CUT4 LHPS 7EMBR3-R7 RINGS_DXF_RINGDESIGN_100 04W CUT03  LHPS 7E MB RINGS_SURVEYEXPORT_R4
  6
BYLAYER
  62
7
  100
AcDbVertex
  100
AcDb3dPolylineVertex
  10
7094.76861472615
  20
-23441.741296652646
  30
-1064.6300402218026
  70
32
  0
VERTEX
  5
1D5
  330

  100
AcDbEntity
  8
100 4W CUT4 LHPS 7EMBR3-R7 RINGS_DXF_RINGDESIGN_100 04W CUT03  LHPS 7E MB RINGS_SURVEYEXPORT_R4
  6
BYLAYER
  62
7
  100
AcDbVertex
  100
AcDb3dPolylineVertex
  10
7091.1057766690392
  20
-23446.095236229969
  30
-1061.4180886736303
  70
32
  0
SEQEND
  5
1D6
  330

  100
AcDbEntity
  8
100 4W CUT4 LHPS 7EMBR3-R7 RINGS_DXF_RINGDESIGN_100 04W CUT03  LHPS 7E MB RINGS_SURVEYEXPORT_R4
  0
POLYLINE
  5
1D7
  330
123
  100
AcDbEntity
  8
100 4W CUT4 LHPS 7EMBR3-R7 RINGS_DXF_RINGDESIGN_100 04W CUT03  LHPS 7E MB RINGS_SURVEYEXPORT_R4
  62
7
  100
AcDb3dPolyline
  10
0
  20
0
  30
0
  70
8
  0
VERTEX
  5
1D8
  330

  100
AcDbEntity
  8
100 4W CUT4 LHPS 7EMBR3-R7 RINGS_DXF_RINGDESIGN_100 04W CUT03  LHPS 7E MB RINGS_SURVEYEXPORT_R4
  6
BYLAYER
  62
7
  100
AcDbVertex
  100
AcDb3dPolylineVertex
  10
7094.9440889671978
  20
-23441.532714064233
  30
-1065.6277439657426
  70
32
  0
VERTEX
  5
1D9
  330

  100
AcDbEntity
  8
100 4W CUT4 LHPS 7EMBR3-R7 RINGS_DXF_RINGDESIGN_100 04W CUT03  LHPS 7E MB RINGS_SURVEYEXPORT_R4
  6
BYLAYER
  62
7
  100
AcDbVertex
  100
AcDb3dPolylineVertex
  10
7091.1043250703333
  20
-23446.096961715226
  30
-1063.7190802749644
  70
32
  0
SEQEND
  5
1DA
  330

  100
AcDbEntity
  8
100 4W CUT4 LHPS 7EMBR3-R7 RINGS_DXF_RINGDESIGN_100 04W CUT03  LHPS 7E MB RINGS_SURVEYEXPORT_R4
  0
POLYLINE
  5
1DB
  330
123
  100
AcDbEntity
  8
100 4W CUT4 LHPS 7EMBR3-R7 RINGS_DXF_RINGDESIGN_100 04W CUT03  LHPS 7E MB RINGS_SURVEYEXPORT_R4
  62
7
  100
AcDb3dPolyline
  10
0
  20
0
  30
0
  70
8
  0
VERTEX
  5
1DC
  330

  100
AcDbEntity
  8
100 4W CUT4 LHPS 7EMBR3-R7 RINGS_DXF_RINGDESIGN_100 04W CUT03  LHPS 7E MB RINGS_SURVEYEXPORT_R4
  6
BYLAYER
  62
7
  100
AcDbVertex
  100
AcDb3dPolylineVertex
  10
7094.9922430194392
  20
-23441.475474341758
  30
-1066.3477041681551
  70
32
  0
VERTEX
  5
1DD
  330

  100
AcDbEntity
  8
100 4W CUT4 LHPS 7EMBR3-R7 RINGS_DXF_RINGDESIGN_100 04W CUT03  LHPS 7E MB RINGS_SURVEYEXPORT_R4
  6
BYLAYER
  62
7
  100
AcDbVertex
  100
AcDb3dPolylineVertex
  10
7091.191643465324
  20
-23445.99316815137
  30
-1065.9510103562272
  70
32
  0
SEQEND
  5
1DE
  330

  100
AcDbEntity
  8
100 4W CUT4 LHPS 7EMBR3-R7 RINGS_DXF_RINGDESIGN_100 04W CUT03  LHPS 7E MB RINGS_SURVEYEXPORT_R4
  0
POLYLINE
  5
1DF
  330
123
  100
AcDbEntity
  8
100 4W CUT4 LHPS 7EMBR3-R7 RINGS_DXF_RINGDESIGN_100 04W CUT03  LHPS 7E MB RINGS_SURVEYEXPORT_R4
  62
7
  100
AcDb3dPolyline
  10
0
  20
0
  30
0
  70
8
  0
VERTEX
  5
1E0
  330

  100
AcDbEntity
  8
100 4W CUT4 LHPS 7EMBR3-R7 RINGS_DXF_RINGDESIGN_100 04W CUT03  LHPS 7E MB RINGS_SURVEYEXPORT_R4
  6
BYLAYER
  62
7
  100
AcDbVertex
  100
AcDb3dPolylineVertex
  10
7095.0426047221272
  20
-23441.415610431013
  30
-1067.100671363507
  70
32
  0
VERTEX
  5
1E1
  330

  100
AcDbEntity
  8
100 4W CUT4 LHPS 7EMBR3-R7 RINGS_DXF_RINGDESIGN_100 04W CUT03  LHPS 7E MB RINGS_SURVEYEXPORT_R4
  6
BYLAYER
  62
7
  100
AcDbVertex
  100
AcDb3dPolylineVertex
  10
7091.5449009088679
  20
-23445.573258359986
  30
-1067.9550903084273
  70
32
  0
SEQEND
  5
1E2
  330

  100
AcDbEntity
  8
100 4W CUT4 LHPS 7EMBR3-R7 RINGS_DXF_RINGDESIGN_100 04W CUT03  LHPS 7E MB RINGS_SURVEYEXPORT_R4
  0
POLYLINE
  5
1E3
  330
123
  100
AcDbEntity
  8
100 4W CUT4 LHPS 7EMBR3-R7 RINGS_DXF_RINGDESIGN_100 04W CUT03  LHPS 7E MB RINGS_SURVEYEXPORT_R4
  62
7
  100
AcDb3dPolyline
  10
0
  20
0
  30
0
  70
8
  0
VERTEX
  5
1E4
  330

  100
AcDbEntity
  8
100 4W CUT4 LHPS 7EMBR3-R7 RINGS_DXF_RINGDESIGN_100 04W CUT03  LHPS 7E MB RINGS_SURVEYEXPORT_R4
  6
BYLAYER
  62
7
  100
AcDbVertex
  100
AcDb3dPolylineVertex
  10
7095.3403804496775
  20
-23441.061650603926
  30
-1067.7590216594697
  70
32
  0
VERTEX
  5
1E5
  330

  100
AcDbEntity
  8
100 4W CUT4 LHPS 7EMBR3-R7 RINGS_DXF_RINGDESIGN_100 04W CUT03  LHPS 7E MB RINGS_SURVEYEXPORT_R4
  6
BYLAYER
  62
7
  100
AcDbVertex
  100
AcDb3dPolylineVertex
  10
7094.161467464558
  20
-23442.463000001335
  30
-1068.5630017835406
  70
32
  0
SEQEND
  5
1E6
  330

  100
AcDbEntity
  8
100 4W CUT4 LHPS 7EMBR3-R7 RINGS_DXF_RINGDESIGN_100 04W CUT03  LHPS 7E MB RINGS_SURVEYEXPORT_R4
  0
LWPOLYLINE
  5
1E7
  330
123
  100
AcDbEntity
  8
100 4W CUT4 LHPS 7EMBR3-R7 RINGS_DXF_RINGDESIGN_100 04W CUT03  LHPS 7E MB RINGS_SURVEYEXPORT
  62
7
  100
AcDbPolyline
  90
2
  43
0
  38
-1066.4148508716276
  10
7102.0105848165958
  20
-23430.02617711679
  10
7089.1353522344079
  20
-23445.330698865433
  0
LWPOLYLINE
  5
1E8
  330
123
  100
AcDbEntity
  8
100 4W CUT4 LHPS 7EMBR3-R7 RINGS_DXF_RINGDESIGN_100 04W CUT03  LHPS 7E MB RINGS_SURVEYEXPORT
  62
1
  100
AcDbPolyline
  90
2
  43
0
  38
-1066.4148508716276
  10
7099.5771658585618
  20
-23427.979015136221
  10
7086.7019332763739
  20
-23443.283536884865
  0
POLYLINE
  5
1E9
  330
123
  100
AcDbEntity
  8
100 4W CUT4 LHPS 7EMBR3-R7 RINGS_DXF_RINGDESIGN_100 04W CUT03  LHPS 7E MB RINGS_SURVEYEXPORT_R5
  62
7
  100
AcDb3dPolyline
  10
0
  20
0
  30
0
  70
8
  0
VERTEX
  5
1EA
  330

  100
AcDbEntity
  8
100 4W CUT4 LHPS 7EMBR3-R7 RINGS_DXF_RINGDESIGN_100 04W CUT03  LHPS 7E MB RINGS_SURVEYEXPORT_R5
  6
BYLAYER
  62
7
  100
AcDbVertex
  100
AcDb3dPolylineVertex
  10
7096.8923588936559
  20
-23436.110106044063
  30
-1067.4626680772124
  70
32
  0
VERTEX
  5
1EB
  330

  100
AcDbEntity
  8
100 4W CUT4 LHPS 7EMBR3-R7 RINGS_DXF_RINGDESIGN_100 04W CUT03  LHPS 7E MB RINGS_SURVEYEXPORT_R5
  6
BYLAYER
  62
7
  100
AcDbVertex
  100
AcDb3dPolylineVertex
  10
7098.3650417239369
  20
-23434.359558528824
  30
-1068.4710274765773
  70
32
  0
SEQEND
  5
1EC
  330

  100
AcDbEntity
  8
100 4W CUT4 LHPS 7EMBR3-R7 RINGS_DXF_RINGDESIGN_100 04W CUT03  LHPS 7E MB RINGS_SURVEYEXPORT_R5
  0
POLYLINE
  5
1ED
  330
123
  100
AcDbEntity
  8
100 4W CUT4 LHPS 7EMBR3-R7 RINGS_DXF_RINGDESIGN_100 04W CUT03  LHPS 7E MB RINGS_SURVEYEXPORT_R5
  62
7
  100
AcDb3dPolyline
  10
0
  20
0
  30
0
  70
8
  0
VERTEX
  5
1EE
  330

  100
AcDbEntity
  8
100 4W CUT4 LHPS 7EMBR3-R7 RINGS_DXF_RINGDESIGN_100 04W CUT03  LHPS 7E MB RINGS_SURVEYEXPORT_R5
  6
BYLAYER
  62
7
  100
AcDbVertex
  100
AcDb3dPolylineVertex
  10
7096.9376780018065
  20
-23436.056236160792
  30
-1066.6109344963565
  70
32
  0
VERTEX
  5
1EF
  330

  100
AcDbEntity
  8
100 4W CUT4 LHPS 7EMBR3-R7 RINGS_DXF_RINGDESIGN_100 04W CUT03  LHPS 7E MB RINGS_SURVEYEXPORT_R5
  6
BYLAYER
  62
7
  100
AcDbVertex
  100
AcDb3dPolylineVertex
  10
7099.1636337287091
  20
-23433.410288787305
  30
-1066.8648922756572
  70
32
  0
SEQEND
  5
1F0
  330

  100
AcDbEntity
  8
100 4W CUT4 LHPS 7EMBR3-R7 RINGS_DXF_RINGDESIGN_100 04W CUT03  LHPS 7E MB RINGS_SURVEYEXPORT_R5
  0
POLYLINE
  5
1F1
  330
123
  100
AcDbEntity
  8
100 4W CUT4 LHPS 7EMBR3-R7 RINGS_DXF_RINGDESIGN_100 04W CUT03  LHPS 7E MB RINGS_SURVEYEXPORT_R5
  62
7
  100
AcDb3dPolyline
  10
0
  20
0
  30
0
  70
8
  0
VERTEX
  5
1F2
  330

  100
AcDbEntity
  8
100 4W CUT4 LHPS 7EMBR3-R7 RINGS_DXF_RINGDESIGN_100 04W CUT03  LHPS 7E MB RINGS_SURVEYEXPORT_R5
  6
BYLAYER
  62
7
  100
AcDbVertex
  100
AcDb3dPolylineVertex
  10
7096.9648313163652
  20
-23436.023959579339
  30
-1065.7251724691182
  70
32
  0
VERTEX
  5
1F3
  330

  100
AcDbEntity
  8
100 4W CUT4 LHPS 7EMBR3-R7 RINGS_DXF_RINGDESIGN_100 04W CUT03  LHPS 7E MB RINGS_SURVEYEXPORT_R5
  6
BYLAYER
  62
7
  100
AcDbVertex
  100
AcDb3dPolylineVertex
  10
7099.1689672100747
  20
-23433.403948988707
  30
-1064.6528320047366
  70
32
  0
SEQEND
  5
1F4
  330

  100
AcDbEntity
  8
100 4W CUT4 LHPS 7EMBR3-R7 RINGS_DXF_RINGDESIGN_100 04W CUT03  LHPS 7E MB RINGS_SURVEYEXPORT_R5
  0
POLYLINE
  5
1F5
  330
123
  100
AcDbEntity
  8
100 4W CUT4 LHPS 7EMBR3-R7 RINGS_DXF_RINGDESIGN_100 04W CUT03  LHPS 7E MB RINGS_SURVEYEXPORT_R5
  62
7
  100
AcDb3dPolyline
  10
0
  20
0
  30
0
  70
8
  0
VERTEX
  5
1F6
  330

  100
AcDbEntity
  8
100 4W CUT4 LHPS 7EMBR3-R7 RINGS_DXF_RINGDESIGN_100 04W CUT03  LHPS 7E MB RINGS_SURVEYEXPORT_R5
  6
BYLAYER
  62
7
  100
AcDbVertex
  100
AcDb3dPolylineVertex
  10
7097.0015785816931
  20
-23435.980278867719
  30
-1064.5264483808417
  70
32
  0
VERTEX
  5
1F7
  330

  100
AcDbEntity
  8
100 4W CUT4 LHPS 7EMBR3-R7 RINGS_DXF_RINGDESIGN_100 04W CUT03  LHPS 7E MB RINGS_SURVEYEXPORT_R5
  6
BYLAYER
  62
7
  100
AcDbVertex
  100
AcDb3dPolylineVertex
  10
7099.1769304748923
  20
-23433.394483221084
  30
-1061.350069598469
  70
32
  0
SEQEND
  5
1F8
  330

  100
AcDbEntity
  8
100 4W CUT4 LHPS 7EMBR3-R7 RINGS_DXF_RINGDESIGN_100 04W CUT03  LHPS 7E MB RINGS_SURVEYEXPORT_R5
  0
POLYLINE
  5
1F9
  330
123
  100
AcDbEntity
  8
100 4W CUT4 LHPS 7EMBR3-R7 RINGS_DXF_RINGDESIGN_100 04W CUT03  LHPS 7E MB RINGS_SURVEYEXPORT_R5
  62
7
  100
AcDb3dPolyline
  10
0
  20
0
  30
0
  70
8
  0
VERTEX
  5
1FA
  330

  100
AcDbEntity
  8
100 4W CUT4 LHPS 7EMBR3-R7 RINGS_DXF_RINGDESIGN_100 04W CUT03  LHPS 7E MB RINGS_SURVEYEXPORT_R5
  6
BYLAYER
  62
7
  100
AcDbVertex
  100
AcDb3dPolylineVertex
  10
7096.7833405321317
  20
-23436.239693907763
  30
-1063.4258758347419
  70
32
  0
VERTEX
  5
1FB
  330

  100
AcDbEntity
  8
100 4W CUT4 LHPS 7EMBR3-R7 RINGS_DXF_RINGDESIGN_100 04W CUT03  LHPS 7E MB RINGS_SURVEYEXPORT_R5
  6
BYLAYER
  62
7
  100
AcDbVertex
  100
AcDb3dPolylineVertex
  10
7099.1880206308624
  20
-23433.38130058286
  30
-1056.7504297486605
  70
32
  0
SEQEND
  5
1FC
  330

  100
AcDbEntity
  8
100 4W CUT4 LHPS 7EMBR3-R7 RINGS_DXF_RINGDESIGN_100 04W CUT03  LHPS 7E MB RINGS_SURVEYEXPORT_R5
  0
POLYLINE
  5
1FD
  330
123
  100
AcDbEntity
  8
100 4W CUT4 LHPS 7EMBR3-R7 RINGS_DXF_RINGDESIGN_100 04W CUT03  LHPS 7E MB RINGS_SURVEYEXPORT_R5
  62
7
  100
AcDb3dPolyline
  10
0
  20
0
  30
0
  70
8
  0
VERTEX
  5
1FE
  330

  100
AcDbEntity
  8
100 4W CUT4 LHPS 7EMBR3-R7 RINGS_DXF_RINGDESIGN_100 04W CUT03  LHPS 7E MB RINGS_SURVEYEXPORT_R5
  6
BYLAYER
  62
7
  100
AcDbVertex
  100
AcDb3dPolylineVertex
  10
7096.6054898508864
  20
-23436.45110132132
  30
-1062.7154726318754
  70
32
  0
VERTEX
  5
1FF
  330

  100
AcDbEntity
  8
100 4W CUT4 LHPS 7EMBR3-R7 RINGS_DXF_RINGDESIGN_100 04W CUT03  LHPS 7E MB RINGS_SURVEYEXPORT_R5
  6
BYLAYER
  62
7
  100
AcDbVertex
  100
AcDb3dPolylineVertex
  10
7099.1973453644323
  20
-23433.370216465595
  30
-1052.8829984655345
  70
32
  0
SEQEND
  5
200
  330

  100
AcDbEntity
  8
100 4W CUT4 LHPS 7EMBR3-R7 RINGS_DXF_RINGDESIGN_100 04W CUT03  LHPS 7E MB RINGS_SURVEYEXPORT_R5
  0
POLYLINE
  5
201
  330
123
  100
AcDbEntity
  8
100 4W CUT4 LHPS 7EMBR3-R7 RINGS_DXF_RINGDESIGN_100 04W CUT03  LHPS 7E MB RINGS_SURVEYEXPORT_R5
  62
7
  100
AcDb3dPolyline
  10
0
  20
0
  30
0
  70
8
  0
VERTEX
  5
202
  330

  100
AcDbEntity
  8
100 4W CUT4 LHPS 7EMBR3-R7 RINGS_DXF_RINGDESIGN_100 04W CUT03  LHPS 7E MB RINGS_SURVEYEXPORT_R5
  6
BYLAYER
  62
7
  100
AcDbVertex
  100
AcDb3dPolylineVertex
  10
7096.4585791957552
  20
-23436.625730967986
  30
-1062.273527578518
  70
32
  0
VERTEX
  5
203
  330

  100
AcDbEntity
  8
100 4W CUT4 LHPS 7EMBR3-R7 RINGS_DXF_RINGDESIGN_100 04W CUT03  LHPS 7E MB RINGS_SURVEYEXPORT_R5
  6
BYLAYER
  62
7
  100
AcDbVertex
  100
AcDb3dPolylineVertex
  10
7098.7218148542806
  20
-23433.935469713513
  30
-1050.2640932476424
  70
32
  0
SEQEND
  5
204
  330

  100
AcDbEntity
  8
100 4W CUT4 LHPS 7EMBR3-R7 RINGS_DXF_RINGDESIGN_100 04W CUT03  LHPS 7E MB RINGS_SURVEYEXPORT_R5
  0
POLYLINE
  5
205
  330
123
  100
AcDbEntity
  8
100 4W CUT4 LHPS 7EMBR3-R7 RINGS_DXF_RINGDESIGN_100 04W CUT03  LHPS 7E MB RINGS_SURVEYEXPORT_R5
  62
7
  100
AcDb3dPolyline
  10
0
  20
0
  30
0
  70
8
  0
VERTEX
  5
206
  330

  100
AcDbEntity
  8
100 4W CUT4 LHPS 7EMBR3-R7 RINGS_DXF_RINGDESIGN_100 04W CUT03  LHPS 7E MB RINGS_SURVEYEXPORT_R5
  6
BYLAYER
  62
7
  100
AcDbVertex
  100
AcDb3dPolylineVertex
  10
7096.2321981357909
  20
-23436.894825435487
  30
-1061.9687611715701
  70
32
  0
VERTEX
  5
207
  330

  100
AcDbEntity
  8
100 4W CUT4 LHPS 7EMBR3-R7 RINGS_DXF_RINGDESIGN_100 04W CUT03  LHPS 7E MB RINGS_SURVEYEXPORT_R5
  6
BYLAYER
  62
7
  100
AcDbVertex
  100
AcDb3dPolylineVertex
  10
7097.7669520870568
  20
-23435.070495267002
  30
-1050.0759602338708
  70
32
  0
SEQEND
  5
208
  330

  100
AcDbEntity
  8
100 4W CUT4 LHPS 7EMBR3-R7 RINGS_DXF_RINGDESIGN_100 04W CUT03  LHPS 7E MB RINGS_SURVEYEXPORT_R5
  0
POLYLINE
  5
209
  330
123
  100
AcDbEntity
  8
100 4W CUT4 LHPS 7EMBR3-R7 RINGS_DXF_RINGDESIGN_100 04W CUT03  LHPS 7E MB RINGS_SURVEYEXPORT_R5
  62
7
  100
AcDb3dPolyline
  10
0
  20
0
  30
0
  70
8
  0
VERTEX
  5
20A
  330

  100
AcDbEntity
  8
100 4W CUT4 LHPS 7EMBR3-R7 RINGS_DXF_RINGDESIGN_100 04W CUT03  LHPS 7E MB RINGS_SURVEYEXPORT_R5
  6
BYLAYER
  62
7
  100
AcDbVertex
  100
AcDb3dPolylineVertex
  10
7096.0096672845884
  20
-23437.159343239746
  30
-1061.6691781235577
  70
32
  0
VERTEX
  5
20B
  330

  100
AcDbEntity
  8
100 4W CUT4 LHPS 7EMBR3-R7 RINGS_DXF_RINGDESIGN_100 04W CUT03  LHPS 7E MB RINGS_SURVEYEXPORT_R5
  6
BYLAYER
  62
7
  100
AcDbVertex
  100
AcDb3dPolylineVertex
  10
7096.9099772259942
  20
-23436.089163498076
  30
-1050.1644177329827
  70
32
  0
SEQEND
  5
20C
  330

  100
AcDbEntity
  8
100 4W CUT4 LHPS 7EMBR3-R7 RINGS_DXF_RINGDESIGN_100 04W CUT03  LHPS 7E MB RINGS_SURVEYEXPORT_R5
  0
POLYLINE
  5
20D
  330
123
  100
AcDbEntity
  8
100 4W CUT4 LHPS 7EMBR3-R7 RINGS_DXF_RINGDESIGN_100 04W CUT03  LHPS 7E MB RINGS_SURVEYEXPORT_R5
  62
7
  100
AcDb3dPolyline
  10
0
  20
0
  30
0
  70
8
  0
VERTEX
  5
20E
  330

  100
AcDbEntity
  8
100 4W CUT4 LHPS 7EMBR3-R7 RINGS_DXF_RINGDESIGN_100 04W CUT03  LHPS 7E MB RINGS_SURVEYEXPORT_R5
  6
BYLAYER
  62
7
  100
AcDbVertex
  100
AcDb3dPolylineVertex
  10
7095.5812688805318
  20
-23437.668571531362
  30
-1061.6338426036812
  70
32
  0
VERTEX
  5
20F
  330

  100
AcDbEntity
  8
100 4W CUT4 LHPS 7EMBR3-R7 RINGS_DXF_RINGDESIGN_100 04W CUT03  LHPS 7E MB RINGS_SURVEYEXPORT_R5
  6
BYLAYER
  62
7
  100
AcDbVertex
  100
AcDb3dPolylineVertex
  10
7095.4289517988482
  20
-23437.849627685064
  30
-1050.1453658332273
  70
32
  0
SEQEND
  5
210
  330

  100
AcDbEntity
  8
100 4W CUT4 LHPS 7EMBR3-R7 RINGS_DXF_RINGDESIGN_100 04W CUT03  LHPS 7E MB RINGS_SURVEYEXPORT_R5
  0
POLYLINE
  5
211
  330
123
  100
AcDbEntity
  8
100 4W CUT4 LHPS 7EMBR3-R7 RINGS_DXF_RINGDESIGN_100 04W CUT03  LHPS 7E MB RINGS_SURVEYEXPORT_R5
  62
7
  100
AcDb3dPolyline
  10
0
  20
0
  30
0
  70
8
  0
VERTEX
  5
212
  330

  100
AcDbEntity
  8
100 4W CUT4 LHPS 7EMBR3-R7 RINGS_DXF_RINGDESIGN_100 04W CUT03  LHPS 7E MB RINGS_SURVEYEXPORT_R5
  6
BYLAYER
  62
7
  100
AcDbVertex
  100
AcDb3dPolylineVertex
  10
7095.0734329004526
  20
-23438.272225620891
  30
-1061.6338426036812
  70
32
  0
VERTEX
  5
213
  330

  100
AcDbEntity
  8
100 4W CUT4 LHPS 7EMBR3-R7 RINGS_DXF_RINGDESIGN_100 04W CUT03  LHPS 7E MB RINGS_SURVEYEXPORT_R5
  6
BYLAYER
  62
7
  100
AcDbVertex
  100
AcDb3dPolylineVertex
  10
7093.9416310544548
  20
-23439.617574985004
  30
-1050.1262329505589
  70
32
  0
SEQEND
  5
214
  330

  100
AcDbEntity
  8
100 4W CUT4 LHPS 7EMBR3-R7 RINGS_DXF_RINGDESIGN_100 04W CUT03  LHPS 7E MB RINGS_SURVEYEXPORT_R5
  0
POLYLINE
  5
215
  330
123
  100
AcDbEntity
  8
100 4W CUT4 LHPS 7EMBR3-R7 RINGS_DXF_RINGDESIGN_100 04W CUT03  LHPS 7E MB RINGS_SURVEYEXPORT_R5
  62
7
  100
AcDb3dPolyline
  10
0
  20
0
  30
0
  70
8
  0
VERTEX
  5
216
  330

  100
AcDbEntity
  8
100 4W CUT4 LHPS 7EMBR3-R7 RINGS_DXF_RINGDESIGN_100 04W CUT03  LHPS 7E MB RINGS_SURVEYEXPORT_R5
  6
BYLAYER
  62
7
  100
AcDbVertex
  100
AcDb3dPolylineVertex
  10
7094.6922922046433
  20
-23438.725279655533
  30
-1061.6310962328137
  70
32
  0
VERTEX
  5
217
  330

  100
AcDbEntity
  8
100 4W CUT4 LHPS 7EMBR3-R7 RINGS_DXF_RINGDESIGN_100 04W CUT03  LHPS 7E MB RINGS_SURVEYEXPORT_R5
  6
BYLAYER
  62
7
  100
AcDbVertex
  100
AcDb3dPolylineVertex
  10
7092.6386922927677
  20
-23441.166351248896
  30
-1050.0838217342075
  70
32
  0
SEQEND
  5
218
  330

  100
AcDbEntity
  8
100 4W CUT4 LHPS 7EMBR3-R7 RINGS_DXF_RINGDESIGN_100 04W CUT03  LHPS 7E MB RINGS_SURVEYEXPORT_R5
  0
POLYLINE
  5
219
  330
123
  100
AcDbEntity
  8
100 4W CUT4 LHPS 7EMBR3-R7 RINGS_DXF_RINGDESIGN_100 04W CUT03  LHPS 7E MB RINGS_SURVEYEXPORT_R5
  62
7
  100
AcDb3dPolyline
  10
0
  20
0
  30
0
  70
8
  0
VERTEX
  5
21A
  330

  100
AcDbEntity
  8
100 4W CUT4 LHPS 7EMBR3-R7 RINGS_DXF_RINGDESIGN_100 04W CUT03  LHPS 7E MB RINGS_SURVEYEXPORT_R5
  6
BYLAYER
  62
7
  100
AcDbVertex
  100
AcDb3dPolylineVertex
  10
7094.2997794488529
  20
-23439.191851421849
  30
-1061.5982744537057
  70
32
  0
VERTEX
  5
21B
  330

  100
AcDbEntity
  8
100 4W CUT4 LHPS 7EMBR3-R7 RINGS_DXF_RINGDESIGN_100 04W CUT03  LHPS 7E MB RINGS_SURVEYEXPORT_R5
  6
BYLAYER
  62
7
  100
AcDbVertex
  100
AcDb3dPolylineVertex
  10
7091.3866769706419
  20
-23442.654595877084
  30
-1050.1928399449455
  70
32
  0
SEQEND
  5
21C
  330

  100
AcDbEntity
  8
100 4W CUT4 LHPS 7EMBR3-R7 RINGS_DXF_RINGDESIGN_100 04W CUT03  LHPS 7E MB RINGS_SURVEYEXPORT_R5
  0
POLYLINE
  5
21D
  330
123
  100
AcDbEntity
  8
100 4W CUT4 LHPS 7EMBR3-R7 RINGS_DXF_RINGDESIGN_100 04W CUT03  LHPS 7E MB RINGS_SURVEYEXPORT_R5
  62
7
  100
AcDb3dPolyline
  10
0
  20
0
  30
0
  70
8
  0
VERTEX
  5
21E
  330

  100
AcDbEntity
  8
100 4W CUT4 LHPS 7EMBR3-R7 RINGS_DXF_RINGDESIGN_100 04W CUT03  LHPS 7E MB RINGS_SURVEYEXPORT_R5
  6
BYLAYER
  62
7
  100
AcDbVertex
  100
AcDb3dPolylineVertex
  10
7093.9986388781581
  20
-23439.549810968147
  30
-1061.8467840276653
  70
32
  0
VERTEX
  5
21F
  330

  100
AcDbEntity
  8
100 4W CUT4 LHPS 7EMBR3-R7 RINGS_DXF_RINGDESIGN_100 04W CUT03  LHPS 7E MB RINGS_SURVEYEXPORT_R5
  6
BYLAYER
  62
7
  100
AcDbVertex
  100
AcDb3dPolylineVertex
  10
7090.123774595736
  20
-23444.15578171895
  30
-1050.1081812977875
  70
32
  0
SEQEND
  5
220
  330

  100
AcDbEntity
  8
100 4W CUT4 LHPS 7EMBR3-R7 RINGS_DXF_RINGDESIGN_100 04W CUT03  LHPS 7E MB RINGS_SURVEYEXPORT_R5
  0
POLYLINE
  5
221
  330
123
  100
AcDbEntity
  8
100 4W CUT4 LHPS 7EMBR3-R7 RINGS_DXF_RINGDESIGN_100 04W CUT03  LHPS 7E MB RINGS_SURVEYEXPORT_R5
  62
7
  100
AcDb3dPolyline
  10
0
  20
0
  30
0
  70
8
  0
VERTEX
  5
222
  330

  100
AcDbEntity
  8
100 4W CUT4 LHPS 7EMBR3-R7 RINGS_DXF_RINGDESIGN_100 04W CUT03  LHPS 7E MB RINGS_SURVEYEXPORT_R5
  6
BYLAYER
  62
7
  100
AcDbVertex
  100
AcDb3dPolylineVertex
  10
7093.6561645037427
  20
-23439.956903149061
  30
-1062.1294034059933
  70
32
  0
VERTEX
  5
223
  330

  100
AcDbEntity
  8
100 4W CUT4 LHPS 7EMBR3-R7 RINGS_DXF_RINGDESIGN_100 04W CUT03  LHPS 7E MB RINGS_SURVEYEXPORT_R5
  6
BYLAYER
  62
7
  100
AcDbVertex
  100
AcDb3dPolylineVertex
  10
7089.52036120032
  20
-23444.873046698423
  30
-1052.3994533664702
  70
32
  0
SEQEND
  5
224
  330

  100
AcDbEntity
  8
100 4W CUT4 LHPS 7EMBR3-R7 RINGS_DXF_RINGDESIGN_100 04W CUT03  LHPS 7E MB RINGS_SURVEYEXPORT_R5
  0
POLYLINE
  5
225
  330
123
  100
AcDbEntity
  8
100 4W CUT4 LHPS 7EMBR3-R7 RINGS_DXF_RINGDESIGN_100 04W CUT03  LHPS 7E MB RINGS_SURVEYEXPORT_R5
  62
7
  100
AcDb3dPolyline
  10
0
  20
0
  30
0
  70
8
  0
VERTEX
  5
226
  330

  100
AcDbEntity
  8
100 4W CUT4 LHPS 7EMBR3-R7 RINGS_DXF_RINGDESIGN_100 04W CUT03  LHPS 7E MB RINGS_SURVEYEXPORT_R5
  6
BYLAYER
  62
7
  100
AcDbVertex
  100
AcDb3dPolylineVertex
  10
7093.304968231927
  20
-23440.374362868384
  30
-1062.4192203366147
  70
32
  0
VERTEX
  5
227
  330

  100
AcDbEntity
  8
100 4W CUT4 LHPS 7EMBR3-R7 RINGS_DXF_RINGDESIGN_100 04W CUT03  LHPS 7E MB RINGS_SURVEYEXPORT_R5
  6
BYLAYER
  62
7
  100
AcDbVertex
  100
AcDb3dPolylineVertex
  10
7089.5363426136983
  20
-23444.854049924019
  30
-1055.5894720429492
  70
32
  0
SEQEND
  5
228
  330

  100
AcDbEntity
  8
100 4W CUT4 LHPS 7EMBR3-R7 RINGS_DXF_RINGDESIGN_100 04W CUT03  LHPS 7E MB RINGS_SURVEYEXPORT_R5
  0
POLYLINE
  5
229
  330
123
  100
AcDbEntity
  8
100 4W CUT4 LHPS 7EMBR3-R7 RINGS_DXF_RINGDESIGN_100 04W CUT03  LHPS 7E MB RINGS_SURVEYEXPORT_R5
  62
7
  100
AcDb3dPolyline
  10
0
  20
0
  30
0
  70
8
  0
VERTEX
  5
22A
  330

  100
AcDbEntity
  8
100 4W CUT4 LHPS 7EMBR3-R7 RINGS_DXF_RINGDESIGN_100 04W CUT03  LHPS 7E MB RINGS_SURVEYEXPORT_R5
  6
BYLAYER
  62
7
  100
AcDbVertex
  100
AcDb3dPolylineVertex
  10
7093.2421864355638
  20
-23440.448990286703
  30
-1063.5476706041827
  70
32
  0
VERTEX
  5
22B
  330

  100
AcDbEntity
  8
100 4W CUT4 LHPS 7EMBR3-R7 RINGS_DXF_RINGDESIGN_100 04W CUT03  LHPS 7E MB RINGS_SURVEYEXPORT_R5
  6
BYLAYER
  62
7
  100
AcDbVertex
  100
AcDb3dPolylineVertex
  10
7089.5525521406362
  20
-23444.834781995771
  30
-1058.8250240195641
  70
32
  0
SEQEND
  5
22C
  330

  100
AcDbEntity
  8
100 4W CUT4 LHPS 7EMBR3-R7 RINGS_DXF_RINGDESIGN_100 04W CUT03  LHPS 7E MB RINGS_SURVEYEXPORT_R5
  0
POLYLINE
  5
22D
  330
123
  100
AcDbEntity
  8
100 4W CUT4 LHPS 7EMBR3-R7 RINGS_DXF_RINGDESIGN_100 04W CUT03  LHPS 7E MB RINGS_SURVEYEXPORT_R5
  62
7
  100
AcDb3dPolyline
  10
0
  20
0
  30
0
  70
8
  0
VERTEX
  5
22E
  330

  100
AcDbEntity
  8
100 4W CUT4 LHPS 7EMBR3-R7 RINGS_DXF_RINGDESIGN_100 04W CUT03  LHPS 7E MB RINGS_SURVEYEXPORT_R5
  6
BYLAYER
  62
7
  100
AcDbVertex
  100
AcDb3dPolylineVertex
  10
7093.28083138955
  20
-23440.403053831964
  30
-1064.5607073548404
  70
32
  0
VERTEX
  5
22F
  330

  100
AcDbEntity
  8
100 4W CUT4 LHPS 7EMBR3-R7 RINGS_DXF_RINGDESIGN_100 04W CUT03  LHPS 7E MB RINGS_SURVEYEXPORT_R5
  6
BYLAYER
  62
7
  100
AcDbVertex
  100
AcDb3dPolylineVertex
  10
7089.5596932633
  20
-23444.826293491471
  30
-1061.2976323350838
  70
32
  0
SEQEND
  5
230
  330

  100
AcDbEntity
  8
100 4W CUT4 LHPS 7EMBR3-R7 RINGS_DXF_RINGDESIGN_100 04W CUT03  LHPS 7E MB RINGS_SURVEYEXPORT_R5
  0
POLYLINE
  5
231
  330
123
  100
AcDbEntity
  8
100 4W CUT4 LHPS 7EMBR3-R7 RINGS_DXF_RINGDESIGN_100 04W CUT03  LHPS 7E MB RINGS_SURVEYEXPORT_R5
  62
7
  100
AcDb3dPolyline
  10
0
  20
0
  30
0
  70
8
  0
VERTEX
  5
232
  330

  100
AcDbEntity
  8
100 4W CUT4 LHPS 7EMBR3-R7 RINGS_DXF_RINGDESIGN_100 04W CUT03  LHPS 7E MB RINGS_SURVEYEXPORT_R5
  6
BYLAYER
  62
7
  100
AcDbVertex
  100
AcDb3dPolylineVertex
  10
7093.2697846629271
  20
-23440.416184846628
  30
-1065.4494889051507
  70
32
  0
VERTEX
  5
233
  330

  100
AcDbEntity
  8
100 4W CUT4 LHPS 7EMBR3-R7 RINGS_DXF_RINGDESIGN_100 04W CUT03  LHPS 7E MB RINGS_SURVEYEXPORT_R5
  6
BYLAYER
  62
7
  100
AcDbVertex
  100
AcDb3dPolylineVertex
  10
7089.5596932632989
  20
-23444.826293491471
  30
-1063.6052826117068
  70
32
  0
SEQEND
  5
234
  330

  100
AcDbEntity
  8
100 4W CUT4 LHPS 7EMBR3-R7 RINGS_DXF_RINGDESIGN_100 04W CUT03  LHPS 7E MB RINGS_SURVEYEXPORT_R5
  0
POLYLINE
  5
235
  330
123
  100
AcDbEntity
  8
100 4W CUT4 LHPS 7EMBR3-R7 RINGS_DXF_RINGDESIGN_100 04W CUT03  LHPS 7E MB RINGS_SURVEYEXPORT_R5
  62
7
  100
AcDb3dPolyline
  10
0
  20
0
  30
0
  70
8
  0
VERTEX
  5
236
  330

  100
AcDbEntity
  8
100 4W CUT4 LHPS 7EMBR3-R7 RINGS_DXF_RINGDESIGN_100 04W CUT03  LHPS 7E MB RINGS_SURVEYEXPORT_R5
  6
BYLAYER
  62
7
  100
AcDbVertex
  100
AcDb3dPolylineVertex
  10
7093.1969374098362
  20
-23440.502776864454
  30
-1066.213310382112
  70
32
  0
VERTEX
  5
237
  330

  100
AcDbEntity
  8
100 4W CUT4 LHPS 7EMBR3-R7 RINGS_DXF_RINGDESIGN_100 04W CUT03  LHPS 7E MB RINGS_SURVEYEXPORT_R5
  6
BYLAYER
  62
7
  100
AcDbVertex
  100
AcDb3dPolylineVertex
  10
7089.5800745885126
  20
-23444.8020666332
  30
-1065.8357943930212
  70
32
  0
SEQEND
  5
238
  330

  100
AcDbEntity
  8
100 4W CUT4 LHPS 7EMBR3-R7 RINGS_DXF_RINGDESIGN_100 04W CUT03  LHPS 7E MB RINGS_SURVEYEXPORT_R5
  0
POLYLINE
  5
239
  330
123
  100
AcDbEntity
  8
100 4W CUT4 LHPS 7EMBR3-R7 RINGS_DXF_RINGDESIGN_100 04W CUT03  LHPS 7E MB RINGS_SURVEYEXPORT_R5
  62
7
  100
AcDb3dPolyline
  10
0
  20
0
  30
0
  70
8
  0
VERTEX
  5
23A
  330

  100
AcDbEntity
  8
100 4W CUT4 LHPS 7EMBR3-R7 RINGS_DXF_RINGDESIGN_100 04W CUT03  LHPS 7E MB RINGS_SURVEYEXPORT_R5
  6
BYLAYER
  62
7
  100
AcDbVertex
  100
AcDb3dPolylineVertex
  10
7093.2608202967795
  20
-23440.426840602617
  30
-1067.0553175210109
  70
32
  0
VERTEX
  5
23B
  330

  100
AcDbEntity
  8
100 4W CUT4 LHPS 7EMBR3-R7 RINGS_DXF_RINGDESIGN_100 04W CUT03  LHPS 7E MB RINGS_SURVEYEXPORT_R5
  6
BYLAYER
  62
7
  100
AcDbVertex
  100
AcDb3dPolylineVertex
  10
7089.8607012311895
  20
-23444.468491567375
  30
-1067.885898467749
  70
32
  0
SEQEND
  5
23C
  330

  100
AcDbEntity
  8
100 4W CUT4 LHPS 7EMBR3-R7 RINGS_DXF_RINGDESIGN_100 04W CUT03  LHPS 7E MB RINGS_SURVEYEXPORT_R5
  0
POLYLINE
  5
23D
  330
123
  100
AcDbEntity
  8
100 4W CUT4 LHPS 7EMBR3-R7 RINGS_DXF_RINGDESIGN_100 04W CUT03  LHPS 7E MB RINGS_SURVEYEXPORT_R5
  62
7
  100
AcDb3dPolyline
  10
0
  20
0
  30
0
  70
8
  0
VERTEX
  5
23E
  330

  100
AcDbEntity
  8
100 4W CUT4 LHPS 7EMBR3-R7 RINGS_DXF_RINGDESIGN_100 04W CUT03  LHPS 7E MB RINGS_SURVEYEXPORT_R5
  6
BYLAYER
  62
7
  100
AcDbVertex
  100
AcDb3dPolylineVertex
  10
7093.6164474098377
  20
-23440.004114034262
  30
-1067.7842200112245
  70
32
  0
VERTEX
  5
23F
  330

  100
AcDbEntity
  8
100 4W CUT4 LHPS 7EMBR3-R7 RINGS_DXF_RINGDESIGN_100 04W CUT03  LHPS 7E MB RINGS_SURVEYEXPORT_R5
  6
BYLAYER
  62
7
  100
AcDbVertex
  100
AcDb3dPolylineVertex
  10
7092.4375344247173
  20
-23441.405463431671
  30
-1068.5882001352959
  70
32
  0
SEQEND
  5
240
  330

  100
AcDbEntity
  8
100 4W CUT4 LHPS 7EMBR3-R7 RINGS_DXF_RINGDESIGN_100 04W CUT03  LHPS 7E MB RINGS_SURVEYEXPORT_R5
  0
LWPOLYLINE
  5
241
  330
123
  100
AcDbEntity
  8
100 4W CUT4 LHPS 7EMBR3-R7 RINGS_DXF_RINGDESIGN_100 04W CUT03  LHPS 7E MB RINGS_SURVEYEXPORT
  62
7
  100
AcDbPolyline
  90
2
  43
0
  38
-1066.4453519609522
  10
7100.4801326417319
  20
-23428.738653858571
  10
7087.604900059544
  20
-23444.043175607214
  0
LWPOLYLINE
  5
242
  330
123
  100
AcDbEntity
  8
100 4W CUT4 LHPS 7EMBR3-R7 RINGS_DXF_RINGDESIGN_100 04W CUT03  LHPS 7E MB RINGS_SURVEYEXPORT
  62
1
  100
AcDbPolyline
  90
2
  43
0
  38
-1066.4453519609522
  10
7098.0467136836978
  20
-23426.691491878002
  10
7085.17148110151
  20
-23441.996013626645
  0
POLYLINE
  5
243
  330
123
  100
AcDbEntity
  8
100 4W CUT4 LHPS 7EMBR3-R7 RINGS_DXF_RINGDESIGN_100 04W CUT03  LHPS 7E MB RINGS_SURVEYEXPORT_R6
  62
7
  100
AcDb3dPolyline
  10
0
  20
0
  30
0
  70
8
  0
VERTEX
  5
244
  330

  100
AcDbEntity
  8
100 4W CUT4 LHPS 7EMBR3-R7 RINGS_DXF_RINGDESIGN_100 04W CUT03  LHPS 7E MB RINGS_SURVEYEXPORT_R6
  6
BYLAYER
  62
7
  100
AcDbVertex
  100
AcDb3dPolylineVertex
  10
7095.357599836103
  20
-23434.827702287923
  30
-1067.2707325278002
  70
32
  0
VERTEX
  5
245
  330

  100
AcDbEntity
  8
100 4W CUT4 LHPS 7EMBR3-R7 RINGS_DXF_RINGDESIGN_100 04W CUT03  LHPS 7E MB RINGS_SURVEYEXPORT_R6
  6
BYLAYER
  62
7
  100
AcDbVertex
  100
AcDb3dPolylineVertex
  10
7096.53574610033
  20
-23433.427264275735
  30
-1068.077420047292
  70
32
  0
SEQEND
  5
246
  330

  100
AcDbEntity
  8
100 4W CUT4 LHPS 7EMBR3-R7 RINGS_DXF_RINGDESIGN_100 04W CUT03  LHPS 7E MB RINGS_SURVEYEXPORT_R6
  0
POLYLINE
  5
247
  330
123
  100
AcDbEntity
  8
100 4W CUT4 LHPS 7EMBR3-R7 RINGS_DXF_RINGDESIGN_100 04W CUT03  LHPS 7E MB RINGS_SURVEYEXPORT_R6
  62
7
  100
AcDb3dPolyline
  10
0
  20
0
  30
0
  70
8
  0
VERTEX
  5
248
  330

  100
AcDbEntity
  8
100 4W CUT4 LHPS 7EMBR3-R7 RINGS_DXF_RINGDESIGN_100 04W CUT03  LHPS 7E MB RINGS_SURVEYEXPORT_R6
  6
BYLAYER
  62
7
  100
AcDbVertex
  100
AcDb3dPolylineVertex
  10
7095.4266080009866
  20
-23434.745673714566
  30
-1066.4241592079959
  70
32
  0
VERTEX
  5
249
  330

  100
AcDbEntity
  8
100 4W CUT4 LHPS 7EMBR3-R7 RINGS_DXF_RINGDESIGN_100 04W CUT03  LHPS 7E MB RINGS_SURVEYEXPORT_R6
  6
BYLAYER
  62
7
  100
AcDbVertex
  100
AcDb3dPolylineVertex
  10
7097.6733541218164
  20
-23432.075013231322
  30
-1066.6804889492398
  70
32
  0
SEQEND
  5
24A
  330

  100
AcDbEntity
  8
100 4W CUT4 LHPS 7EMBR3-R7 RINGS_DXF_RINGDESIGN_100 04W CUT03  LHPS 7E MB RINGS_SURVEYEXPORT_R6
  0
POLYLINE
  5
24B
  330
123
  100
AcDbEntity
  8
100 4W CUT4 LHPS 7EMBR3-R7 RINGS_DXF_RINGDESIGN_100 04W CUT03  LHPS 7E MB RINGS_SURVEYEXPORT_R6
  62
7
  100
AcDb3dPolyline
  10
0
  20
0
  30
0
  70
8
  0
VERTEX
  5
24C
  330

  100
AcDbEntity
  8
100 4W CUT4 LHPS 7EMBR3-R7 RINGS_DXF_RINGDESIGN_100 04W CUT03  LHPS 7E MB RINGS_SURVEYEXPORT_R6
  6
BYLAYER
  62
7
  100
AcDbVertex
  100
AcDb3dPolylineVertex
  10
7095.430818331386
  20
-23434.740668982206
  30
-1065.5379182615884
  70
32
  0
VERTEX
  5
24D
  330

  100
AcDbEntity
  8
100 4W CUT4 LHPS 7EMBR3-R7 RINGS_DXF_RINGDESIGN_100 04W CUT03  LHPS 7E MB RINGS_SURVEYEXPORT_R6
  6
BYLAYER
  62
7
  100
AcDbVertex
  100
AcDb3dPolylineVertex
  10
7097.698388621513
  20
-23432.045255241115
  30
-1064.4347161473831
  70
32
  0
SEQEND
  5
24E
  330

  100
AcDbEntity
  8
100 4W CUT4 LHPS 7EMBR3-R7 RINGS_DXF_RINGDESIGN_100 04W CUT03  LHPS 7E MB RINGS_SURVEYEXPORT_R6
  0
POLYLINE
  5
24F
  330
123
  100
AcDbEntity
  8
100 4W CUT4 LHPS 7EMBR3-R7 RINGS_DXF_RINGDESIGN_100 04W CUT03  LHPS 7E MB RINGS_SURVEYEXPORT_R6
  62
7
  100
AcDb3dPolyline
  10
0
  20
0
  30
0
  70
8
  0
VERTEX
  5
250
  330

  100
AcDbEntity
  8
100 4W CUT4 LHPS 7EMBR3-R7 RINGS_DXF_RINGDESIGN_100 04W CUT03  LHPS 7E MB RINGS_SURVEYEXPORT_R6
  6
BYLAYER
  62
7
  100
AcDbVertex
  100
AcDb3dPolylineVertex
  10
7095.4004890265278
  20
-23434.776720797414
  30
-1064.4406042213998
  70
32
  0
VERTEX
  5
251
  330

  100
AcDbEntity
  8
100 4W CUT4 LHPS 7EMBR3-R7 RINGS_DXF_RINGDESIGN_100 04W CUT03  LHPS 7E MB RINGS_SURVEYEXPORT_R6
  6
BYLAYER
  62
7
  100
AcDbVertex
  100
AcDb3dPolylineVertex
  10
7097.7363438248813
  20
-23432.000138678624
  30
-1061.029864265543
  70
32
  0
SEQEND
  5
252
  330

  100
AcDbEntity
  8
100 4W CUT4 LHPS 7EMBR3-R7 RINGS_DXF_RINGDESIGN_100 04W CUT03  LHPS 7E MB RINGS_SURVEYEXPORT_R6
  0
POLYLINE
  5
253
  330
123
  100
AcDbEntity
  8
100 4W CUT4 LHPS 7EMBR3-R7 RINGS_DXF_RINGDESIGN_100 04W CUT03  LHPS 7E MB RINGS_SURVEYEXPORT_R6
  62
7
  100
AcDb3dPolyline
  10
0
  20
0
  30
0
  70
8
  0
VERTEX
  5
254
  330

  100
AcDbEntity
  8
100 4W CUT4 LHPS 7EMBR3-R7 RINGS_DXF_RINGDESIGN_100 04W CUT03  LHPS 7E MB RINGS_SURVEYEXPORT_R6
  6
BYLAYER
  62
7
  100
AcDbVertex
  100
AcDb3dPolylineVertex
  10
7095.313131568626
  20
-23434.880560794543
  30
-1063.0696527364262
  70
32
  0
VERTEX
  5
255
  330

  100
AcDbEntity
  8
100 4W CUT4 LHPS 7EMBR3-R7 RINGS_DXF_RINGDESIGN_100 04W CUT03  LHPS 7E MB RINGS_SURVEYEXPORT_R6
  6
BYLAYER
  62
7
  100
AcDbVertex
  100
AcDb3dPolylineVertex
  10
7097.7902612788275
  20
-23431.936048120158
  30
-1056.1930848979905
  70
32
  0
SEQEND
  5
256
  330

  100
AcDbEntity
  8
100 4W CUT4 LHPS 7EMBR3-R7 RINGS_DXF_RINGDESIGN_100 04W CUT03  LHPS 7E MB RINGS_SURVEYEXPORT_R6
  0
POLYLINE
  5
257
  330
123
  100
AcDbEntity
  8
100 4W CUT4 LHPS 7EMBR3-R7 RINGS_DXF_RINGDESIGN_100 04W CUT03  LHPS 7E MB RINGS_SURVEYEXPORT_R6
  62
7
  100
AcDb3dPolyline
  10
0
  20
0
  30
0
  70
8
  0
VERTEX
  5
258
  330

  100
AcDbEntity
  8
100 4W CUT4 LHPS 7EMBR3-R7 RINGS_DXF_RINGDESIGN_100 04W CUT03  LHPS 7E MB RINGS_SURVEYEXPORT_R6
  6
BYLAYER
  62
7
  100
AcDbVertex
  100
AcDb3dPolylineVertex
  10
7095.192664045052
  20
-23435.023758039548
  30
-1062.08025814758
  70
32
  0
VERTEX
  5
259
  330

  100
AcDbEntity
  8
100 4W CUT4 LHPS 7EMBR3-R7 RINGS_DXF_RINGDESIGN_100 04W CUT03  LHPS 7E MB RINGS_SURVEYEXPORT_R6
  6
BYLAYER
  62
7
  100
AcDbVertex
  100
AcDb3dPolylineVertex
  10
7097.6998948780338
  20
-23432.04346478526
  30
-1052.5688165315348
  70
32
  0
SEQEND
  5
25A
  330

  100
AcDbEntity
  8
100 4W CUT4 LHPS 7EMBR3-R7 RINGS_DXF_RINGDESIGN_100 04W CUT03  LHPS 7E MB RINGS_SURVEYEXPORT_R6
  0
POLYLINE
  5
25B
  330
123
  100
AcDbEntity
  8
100 4W CUT4 LHPS 7EMBR3-R7 RINGS_DXF_RINGDESIGN_100 04W CUT03  LHPS 7E MB RINGS_SURVEYEXPORT_R6
  62
7
  100
AcDb3dPolyline
  10
0
  20
0
  30
0
  70
8
  0
VERTEX
  5
25C
  330

  100
AcDbEntity
  8
100 4W CUT4 LHPS 7EMBR3-R7 RINGS_DXF_RINGDESIGN_100 04W CUT03  LHPS 7E MB RINGS_SURVEYEXPORT_R6
  6
BYLAYER
  62
7
  100
AcDbVertex
  100
AcDb3dPolylineVertex
  10
7094.96712455188
  20
-23435.291852154071
  30
-1061.8776079279153
  70
32
  0
VERTEX
  5
25D
  330

  100
AcDbEntity
  8
100 4W CUT4 LHPS 7EMBR3-R7 RINGS_DXF_RINGDESIGN_100 04W CUT03  LHPS 7E MB RINGS_SURVEYEXPORT_R6
  6
BYLAYER
  62
7
  100
AcDbVertex
  100
AcDb3dPolylineVertex
  10
7097.1945217687689
  20
-23432.644191311363
  30
-1050.0583435467615
  70
32
  0
SEQEND
  5
25E
  330

  100
AcDbEntity
  8
100 4W CUT4 LHPS 7EMBR3-R7 RINGS_DXF_RINGDESIGN_100 04W CUT03  LHPS 7E MB RINGS_SURVEYEXPORT_R6
  0
POLYLINE
  5
25F
  330
123
  100
AcDbEntity
  8
100 4W CUT4 LHPS 7EMBR3-R7 RINGS_DXF_RINGDESIGN_100 04W CUT03  LHPS 7E MB RINGS_SURVEYEXPORT_R6
  62
7
  100
AcDb3dPolyline
  10
0
  20
0
  30
0
  70
8
  0
VERTEX
  5
260
  330

  100
AcDbEntity
  8
100 4W CUT4 LHPS 7EMBR3-R7 RINGS_DXF_RINGDESIGN_100 04W CUT03  LHPS 7E MB RINGS_SURVEYEXPORT_R6
  6
BYLAYER
  62
7
  100
AcDbVertex
  100
AcDb3dPolylineVertex
  10
7094.70119070148
  20
-23435.607962202659
  30
-1061.7840772869079
  70
32
  0
VERTEX
  5
261
  330

  100
AcDbEntity
  8
100 4W CUT4 LHPS 7EMBR3-R7 RINGS_DXF_RINGDESIGN_100 04W CUT03  LHPS 7E MB RINGS_SURVEYEXPORT_R6
  6
BYLAYER
  62
7
  100
AcDbVertex
  100
AcDb3dPolylineVertex
  10
7096.2101793118209
  20
-23433.814258760187
  30
-1050.0909318513191
  70
32
  0
SEQEND
  5
262
  330

  100
AcDbEntity
  8
100 4W CUT4 LHPS 7EMBR3-R7 RINGS_DXF_RINGDESIGN_100 04W CUT03  LHPS 7E MB RINGS_SURVEYEXPORT_R6
  0
POLYLINE
  5
263
  330
123
  100
AcDbEntity
  8
100 4W CUT4 LHPS 7EMBR3-R7 RINGS_DXF_RINGDESIGN_100 04W CUT03  LHPS 7E MB RINGS_SURVEYEXPORT_R6
  62
7
  100
AcDb3dPolyline
  10
0
  20
0
  30
0
  70
8
  0
VERTEX
  5
264
  330

  100
AcDbEntity
  8
100 4W CUT4 LHPS 7EMBR3-R7 RINGS_DXF_RINGDESIGN_100 04W CUT03  LHPS 7E MB RINGS_SURVEYEXPORT_R6
  6
BYLAYER
  62
7
  100
AcDbVertex
  100
AcDb3dPolylineVertex
  10
7094.4620171584811
  20
-23435.892262829242
  30
-1061.6999584176663
  70
32
  0
VERTEX
  5
265
  330

  100
AcDbEntity
  8
100 4W CUT4 LHPS 7EMBR3-R7 RINGS_DXF_RINGDESIGN_100 04W CUT03  LHPS 7E MB RINGS_SURVEYEXPORT_R6
  6
BYLAYER
  62
7
  100
AcDbVertex
  100
AcDb3dPolylineVertex
  10
7095.3662347880527
  20
-23434.817438099759
  30
-1050.1452629836608
  70
32
  0
SEQEND
  5
266
  330

  100
AcDbEntity
  8
100 4W CUT4 LHPS 7EMBR3-R7 RINGS_DXF_RINGDESIGN_100 04W CUT03  LHPS 7E MB RINGS_SURVEYEXPORT_R6
  0
POLYLINE
  5
267
  330
123
  100
AcDbEntity
  8
100 4W CUT4 LHPS 7EMBR3-R7 RINGS_DXF_RINGDESIGN_100 04W CUT03  LHPS 7E MB RINGS_SURVEYEXPORT_R6
  62
7
  100
AcDb3dPolyline
  10
0
  20
0
  30
0
  70
8
  0
VERTEX
  5
268
  330

  100
AcDbEntity
  8
100 4W CUT4 LHPS 7EMBR3-R7 RINGS_DXF_RINGDESIGN_100 04W CUT03  LHPS 7E MB RINGS_SURVEYEXPORT_R6
  6
BYLAYER
  62
7
  100
AcDbVertex
  100
AcDb3dPolylineVertex
  10
7094.053200234388
  20
-23436.378215022032
  30
-1061.6246330576635
  70
32
  0
VERTEX
  5
269
  330

  100
AcDbEntity
  8
100 4W CUT4 LHPS 7EMBR3-R7 RINGS_DXF_RINGDESIGN_100 04W CUT03  LHPS 7E MB RINGS_SURVEYEXPORT_R6
  6
BYLAYER
  62
7
  100
AcDbVertex
  100
AcDb3dPolylineVertex
  10
7093.9007539479189
  20
-23436.559424758787
  30
-1050.1264110493539
  70
32
  0
SEQEND
  5
26A
  330

  100
AcDbEntity
  8
100 4W CUT4 LHPS 7EMBR3-R7 RINGS_DXF_RINGDESIGN_100 04W CUT03  LHPS 7E MB RINGS_SURVEYEXPORT_R6
  0
POLYLINE
  5
26B
  330
123
  100
AcDbEntity
  8
100 4W CUT4 LHPS 7EMBR3-R7 RINGS_DXF_RINGDESIGN_100 04W CUT03  LHPS 7E MB RINGS_SURVEYEXPORT_R6
  62
7
  100
AcDb3dPolyline
  10
0
  20
0
  30
0
  70
8
  0
VERTEX
  5
26C
  330

  100
AcDbEntity
  8
100 4W CUT4 LHPS 7EMBR3-R7 RINGS_DXF_RINGDESIGN_100 04W CUT03  LHPS 7E MB RINGS_SURVEYEXPORT_R6
  6
BYLAYER
  62
7
  100
AcDbVertex
  100
AcDb3dPolylineVertex
  10
7093.5682610047252
  20
-23436.954652219556
  30
-1061.7018935755939
  70
32
  0
VERTEX
  5
26D
  330

  100
AcDbEntity
  8
100 4W CUT4 LHPS 7EMBR3-R7 RINGS_DXF_RINGDESIGN_100 04W CUT03  LHPS 7E MB RINGS_SURVEYEXPORT_R6
  6
BYLAYER
  62
7
  100
AcDbVertex
  100
AcDb3dPolylineVertex
  10
7092.4259195178729
  20
-23438.312529836014
  30
-1050.0871219901076
  70
32
  0
SEQEND
  5
26E
  330

  100
AcDbEntity
  8
100 4W CUT4 LHPS 7EMBR3-R7 RINGS_DXF_RINGDESIGN_100 04W CUT03  LHPS 7E MB RINGS_SURVEYEXPORT_R6
  0
POLYLINE
  5
26F
  330
123
  100
AcDbEntity
  8
100 4W CUT4 LHPS 7EMBR3-R7 RINGS_DXF_RINGDESIGN_100 04W CUT03  LHPS 7E MB RINGS_SURVEYEXPORT_R6
  62
7
  100
AcDb3dPolyline
  10
0
  20
0
  30
0
  70
8
  0
VERTEX
  5
270
  330

  100
AcDbEntity
  8
100 4W CUT4 LHPS 7EMBR3-R7 RINGS_DXF_RINGDESIGN_100 04W CUT03  LHPS 7E MB RINGS_SURVEYEXPORT_R6
  6
BYLAYER
  62
7
  100
AcDbVertex
  100
AcDb3dPolylineVertex
  10
7093.2137451498766
  20
-23437.376057858339
  30
-1061.7339691581005
  70
32
  0
VERTEX
  5
271
  330

  100
AcDbEntity
  8
100 4W CUT4 LHPS 7EMBR3-R7 RINGS_DXF_RINGDESIGN_100 04W CUT03  LHPS 7E MB RINGS_SURVEYEXPORT_R6
  6
BYLAYER
  62
7
  100
AcDbVertex
  100
AcDb3dPolylineVertex
  10
7091.1351849451466
  20
-23439.846799233779
  30
-1050.0463443646418
  70
32
  0
SEQEND
  5
272
  330

  100
AcDbEntity
  8
100 4W CUT4 LHPS 7EMBR3-R7 RINGS_DXF_RINGDESIGN_100 04W CUT03  LHPS 7E MB RINGS_SURVEYEXPORT_R6
  0
POLYLINE
  5
273
  330
123
  100
AcDbEntity
  8
100 4W CUT4 LHPS 7EMBR3-R7 RINGS_DXF_RINGDESIGN_100 04W CUT03  LHPS 7E MB RINGS_SURVEYEXPORT_R6
  62
7
  100
AcDb3dPolyline
  10
0
  20
0
  30
0
  70
8
  0
VERTEX
  5
274
  330

  100
AcDbEntity
  8
100 4W CUT4 LHPS 7EMBR3-R7 RINGS_DXF_RINGDESIGN_100 04W CUT03  LHPS 7E MB RINGS_SURVEYEXPORT_R6
  6
BYLAYER
  62
7
  100
AcDbVertex
  100
AcDb3dPolylineVertex
  10
7092.8595244642538
  20
-23437.797112635588
  30
-1061.7624296297606
  70
32
  0
VERTEX
  5
275
  330

  100
AcDbEntity
  8
100 4W CUT4 LHPS 7EMBR3-R7 RINGS_DXF_RINGDESIGN_100 04W CUT03  LHPS 7E MB RINGS_SURVEYEXPORT_R6
  6
BYLAYER
  62
7
  100
AcDbVertex
  100
AcDb3dPolylineVertex
  10
7089.8790604437354
  20
-23441.3399283581
  30
-1050.0932599228936
  70
32
  0
SEQEND
  5
276
  330

  100
AcDbEntity
  8
100 4W CUT4 LHPS 7EMBR3-R7 RINGS_DXF_RINGDESIGN_100 04W CUT03  LHPS 7E MB RINGS_SURVEYEXPORT_R6
  0
POLYLINE
  5
277
  330
123
  100
AcDbEntity
  8
100 4W CUT4 LHPS 7EMBR3-R7 RINGS_DXF_RINGDESIGN_100 04W CUT03  LHPS 7E MB RINGS_SURVEYEXPORT_R6
  62
7
  100
AcDb3dPolyline
  10
0
  20
0
  30
0
  70
8
  0
VERTEX
  5
278
  330

  100
AcDbEntity
  8
100 4W CUT4 LHPS 7EMBR3-R7 RINGS_DXF_RINGDESIGN_100 04W CUT03  LHPS 7E MB RINGS_SURVEYEXPORT_R6
  6
BYLAYER
  62
7
  100
AcDbVertex
  100
AcDb3dPolylineVertex
  10
7092.5167801110993
  20
-23438.204525734622
  30
-1061.80500742433
  70
32
  0
VERTEX
  5
279
  330

  100
AcDbEntity
  8
100 4W CUT4 LHPS 7EMBR3-R7 RINGS_DXF_RINGDESIGN_100 04W CUT03  LHPS 7E MB RINGS_SURVEYEXPORT_R6
  6
BYLAYER
  62
7
  100
AcDbVertex
  100
AcDb3dPolylineVertex
  10
7088.6839289329064
  20
-23442.760556380406
  30
-1050.1936801559948
  70
32
  0
SEQEND
  5
27A
  330

  100
AcDbEntity
  8
100 4W CUT4 LHPS 7EMBR3-R7 RINGS_DXF_RINGDESIGN_100 04W CUT03  LHPS 7E MB RINGS_SURVEYEXPORT_R6
  0
POLYLINE
  5
27B
  330
123
  100
AcDbEntity
  8
100 4W CUT4 LHPS 7EMBR3-R7 RINGS_DXF_RINGDESIGN_100 04W CUT03  LHPS 7E MB RINGS_SURVEYEXPORT_R6
  62
7
  100
AcDb3dPolyline
  10
0
  20
0
  30
0
  70
8
  0
VERTEX
  5
27C
  330

  100
AcDbEntity
  8
100 4W CUT4 LHPS 7EMBR3-R7 RINGS_DXF_RINGDESIGN_100 04W CUT03  LHPS 7E MB RINGS_SURVEYEXPORT_R6
  6
BYLAYER
  62
7
  100
AcDbVertex
  100
AcDb3dPolylineVertex
  10
7092.1940660640921
  20
-23438.588129224463
  30
-1062.1012267942294
  70
32
  0
VERTEX
  5
27D
  330

  100
AcDbEntity
  8
100 4W CUT4 LHPS 7EMBR3-R7 RINGS_DXF_RINGDESIGN_100 04W CUT03  LHPS 7E MB RINGS_SURVEYEXPORT_R6
  6
BYLAYER
  62
7
  100
AcDbVertex
  100
AcDb3dPolylineVertex
  10
7088.0674320373882
  20
-23443.493373444893
  30
-1052.3928485263473
  70
32
  0
SEQEND
  5
27E
  330

  100
AcDbEntity
  8
100 4W CUT4 LHPS 7EMBR3-R7 RINGS_DXF_RINGDESIGN_100 04W CUT03  LHPS 7E MB RINGS_SURVEYEXPORT_R6
  0
POLYLINE
  5
27F
  330
123
  100
AcDbEntity
  8
100 4W CUT4 LHPS 7EMBR3-R7 RINGS_DXF_RINGDESIGN_100 04W CUT03  LHPS 7E MB RINGS_SURVEYEXPORT_R6
  62
7
  100
AcDb3dPolyline
  10
0
  20
0
  30
0
  70
8
  0
VERTEX
  5
280
  330

  100
AcDbEntity
  8
100 4W CUT4 LHPS 7EMBR3-R7 RINGS_DXF_RINGDESIGN_100 04W CUT03  LHPS 7E MB RINGS_SURVEYEXPORT_R6
  6
BYLAYER
  62
7
  100
AcDbVertex
  100
AcDb3dPolylineVertex
  10
7091.8683192317249
  20
-23438.975337723314
  30
-1062.4002299591846
  70
32
  0
VERTEX
  5
281
  330

  100
AcDbEntity
  8
100 4W CUT4 LHPS 7EMBR3-R7 RINGS_DXF_RINGDESIGN_100 04W CUT03  LHPS 7E MB RINGS_SURVEYEXPORT_R6
  6
BYLAYER
  62
7
  100
AcDbVertex
  100
AcDb3dPolylineVertex
  10
7088.0251379281517
  20
-23443.543647574737
  30
-1055.4353670066662
  70
32
  0
SEQEND
  5
282
  330

  100
AcDbEntity
  8
100 4W CUT4 LHPS 7EMBR3-R7 RINGS_DXF_RINGDESIGN_100 04W CUT03  LHPS 7E MB RINGS_SURVEYEXPORT_R6
  0
POLYLINE
  5
283
  330
123
  100
AcDbEntity
  8
100 4W CUT4 LHPS 7EMBR3-R7 RINGS_DXF_RINGDESIGN_100 04W CUT03  LHPS 7E MB RINGS_SURVEYEXPORT_R6
  62
7
  100
AcDb3dPolyline
  10
0
  20
0
  30
0
  70
8
  0
VERTEX
  5
284
  330

  100
AcDbEntity
  8
100 4W CUT4 LHPS 7EMBR3-R7 RINGS_DXF_RINGDESIGN_100 04W CUT03  LHPS 7E MB RINGS_SURVEYEXPORT_R6
  6
BYLAYER
  62
7
  100
AcDbVertex
  100
AcDb3dPolylineVertex
  10
7091.7610588893131
  20
-23439.102835866182
  30
-1063.4218184008537
  70
32
  0
VERTEX
  5
285
  330

  100
AcDbEntity
  8
100 4W CUT4 LHPS 7EMBR3-R7 RINGS_DXF_RINGDESIGN_100 04W CUT03  LHPS 7E MB RINGS_SURVEYEXPORT_R6
  6
BYLAYER
  62
7
  100
AcDbVertex
  100
AcDb3dPolylineVertex
  10
7088.0541220251571
  20
-23443.509194780188
  30
-1058.6770249276965
  70
32
  0
SEQEND
  5
286
  330

  100
AcDbEntity
  8
100 4W CUT4 LHPS 7EMBR3-R7 RINGS_DXF_RINGDESIGN_100 04W CUT03  LHPS 7E MB RINGS_SURVEYEXPORT_R6
  0
POLYLINE
  5
287
  330
123
  100
AcDbEntity
  8
100 4W CUT4 LHPS 7EMBR3-R7 RINGS_DXF_RINGDESIGN_100 04W CUT03  LHPS 7E MB RINGS_SURVEYEXPORT_R6
  62
7
  100
AcDb3dPolyline
  10
0
  20
0
  30
0
  70
8
  0
VERTEX
  5
288
  330

  100
AcDbEntity
  8
100 4W CUT4 LHPS 7EMBR3-R7 RINGS_DXF_RINGDESIGN_100 04W CUT03  LHPS 7E MB RINGS_SURVEYEXPORT_R6
  6
BYLAYER
  62
7
  100
AcDbVertex
  100
AcDb3dPolylineVertex
  10
7091.7964838476164
  20
-23439.060726953481
  30
-1064.4121500314729
  70
32
  0
VERTEX
  5
289
  330

  100
AcDbEntity
  8
100 4W CUT4 LHPS 7EMBR3-R7 RINGS_DXF_RINGDESIGN_100 04W CUT03  LHPS 7E MB RINGS_SURVEYEXPORT_R6
  6
BYLAYER
  62
7
  100
AcDbVertex
  100
AcDb3dPolylineVertex
  10
7088.0684076557809
  20
-23443.492213747559
  30
-1061.1429910052289
  70
32
  0
SEQEND
  5
28A
  330

  100
AcDbEntity
  8
100 4W CUT4 LHPS 7EMBR3-R7 RINGS_DXF_RINGDESIGN_100 04W CUT03  LHPS 7E MB RINGS_SURVEYEXPORT_R6
  0
POLYLINE
  5
28B
  330
123
  100
AcDbEntity
  8
100 4W CUT4 LHPS 7EMBR3-R7 RINGS_DXF_RINGDESIGN_100 04W CUT03  LHPS 7E MB RINGS_SURVEYEXPORT_R6
  62
7
  100
AcDb3dPolyline
  10
0
  20
0
  30
0
  70
8
  0
VERTEX
  5
28C
  330

  100
AcDbEntity
  8
100 4W CUT4 LHPS 7EMBR3-R7 RINGS_DXF_RINGDESIGN_100 04W CUT03  LHPS 7E MB RINGS_SURVEYEXPORT_R6
  6
BYLAYER
  62
7
  100
AcDbVertex
  100
AcDb3dPolylineVertex
  10
7091.891665143552
  20
-23438.947586922463
  30
-1065.3362235902196
  70
32
  0
VERTEX
  5
28D
  330

  100
AcDbEntity
  8
100 4W CUT4 LHPS 7EMBR3-R7 RINGS_DXF_RINGDESIGN_100 04W CUT03  LHPS 7E MB RINGS_SURVEYEXPORT_R6
  6
BYLAYER
  62
7
  100
AcDbVertex
  100
AcDb3dPolylineVertex
  10
7088.0795321647056
  20
-23443.478990274685
  30
-1063.4412946319358
  70
32
  0
SEQEND
  5
28E
  330

  100
AcDbEntity
  8
100 4W CUT4 LHPS 7EMBR3-R7 RINGS_DXF_RINGDESIGN_100 04W CUT03  LHPS 7E MB RINGS_SURVEYEXPORT_R6
  0
POLYLINE
  5
28F
  330
123
  100
AcDbEntity
  8
100 4W CUT4 LHPS 7EMBR3-R7 RINGS_DXF_RINGDESIGN_100 04W CUT03  LHPS 7E MB RINGS_SURVEYEXPORT_R6
  62
7
  100
AcDb3dPolyline
  10
0
  20
0
  30
0
  70
8
  0
VERTEX
  5
290
  330

  100
AcDbEntity
  8
100 4W CUT4 LHPS 7EMBR3-R7 RINGS_DXF_RINGDESIGN_100 04W CUT03  LHPS 7E MB RINGS_SURVEYEXPORT_R6
  6
BYLAYER
  62
7
  100
AcDbVertex
  100
AcDb3dPolylineVertex
  10
7091.9312691161476
  20
-23438.900510502208
  30
-1066.0519610465365
  70
32
  0
VERTEX
  5
291
  330

  100
AcDbEntity
  8
100 4W CUT4 LHPS 7EMBR3-R7 RINGS_DXF_RINGDESIGN_100 04W CUT03  LHPS 7E MB RINGS_SURVEYEXPORT_R6
  6
BYLAYER
  62
7
  100
AcDbVertex
  100
AcDb3dPolylineVertex
  10
7088.0902280533955
  20
-23443.466276293788
  30
-1065.6510460858153
  70
32
  0
SEQEND
  5
292
  330

  100
AcDbEntity
  8
100 4W CUT4 LHPS 7EMBR3-R7 RINGS_DXF_RINGDESIGN_100 04W CUT03  LHPS 7E MB RINGS_SURVEYEXPORT_R6
  0
POLYLINE
  5
293
  330
123
  100
AcDbEntity
  8
100 4W CUT4 LHPS 7EMBR3-R7 RINGS_DXF_RINGDESIGN_100 04W CUT03  LHPS 7E MB RINGS_SURVEYEXPORT_R6
  62
7
  100
AcDb3dPolyline
  10
0
  20
0
  30
0
  70
8
  0
VERTEX
  5
294
  330

  100
AcDbEntity
  8
100 4W CUT4 LHPS 7EMBR3-R7 RINGS_DXF_RINGDESIGN_100 04W CUT03  LHPS 7E MB RINGS_SURVEYEXPORT_R6
  6
BYLAYER
  62
7
  100
AcDbVertex
  100
AcDb3dPolylineVertex
  10
7092.0209168107667
  20
-23438.793948148224
  30
-1066.7953557116903
  70
32
  0
VERTEX
  5
295
  330

  100
AcDbEntity
  8
100 4W CUT4 LHPS 7EMBR3-R7 RINGS_DXF_RINGDESIGN_100 04W CUT03  LHPS 7E MB RINGS_SURVEYEXPORT_R6
  6
BYLAYER
  62
7
  100
AcDbVertex
  100
AcDb3dPolylineVertex
  10
7088.2997663966044
  20
-23443.217202414125
  30
-1067.7043581831711
  70
32
  0
SEQEND
  5
296
  330

  100
AcDbEntity
  8
100 4W CUT4 LHPS 7EMBR3-R7 RINGS_DXF_RINGDESIGN_100 04W CUT03  LHPS 7E MB RINGS_SURVEYEXPORT_R6
  0
POLYLINE
  5
297
  330
123
  100
AcDbEntity
  8
100 4W CUT4 LHPS 7EMBR3-R7 RINGS_DXF_RINGDESIGN_100 04W CUT03  LHPS 7E MB RINGS_SURVEYEXPORT_R6
  62
7
  100
AcDb3dPolyline
  10
0
  20
0
  30
0
  70
8
  0
VERTEX
  5
298
  330

  100
AcDbEntity
  8
100 4W CUT4 LHPS 7EMBR3-R7 RINGS_DXF_RINGDESIGN_100 04W CUT03  LHPS 7E MB RINGS_SURVEYEXPORT_R6
  6
BYLAYER
  62
7
  100
AcDbVertex
  100
AcDb3dPolylineVertex
  10
7092.1643578495532
  20
-23438.6234427625
  30
-1067.5417926818477
  70
32
  0
VERTEX
  5
299
  330

  100
AcDbEntity
  8
100 4W CUT4 LHPS 7EMBR3-R7 RINGS_DXF_RINGDESIGN_100 04W CUT03  LHPS 7E MB RINGS_SURVEYEXPORT_R6
  6
BYLAYER
  62
7
  100
AcDbVertex
  100
AcDb3dPolylineVertex
  10
7090.9854448644355
  20
-23440.024792159908
  30
-1068.3457728059186
  70
32
  0
SEQEND
  5
29A
  330

  100
AcDbEntity
  8
100 4W CUT4 LHPS 7EMBR3-R7 RINGS_DXF_RINGDESIGN_100 04W CUT03  LHPS 7E MB RINGS_SURVEYEXPORT_R6
  0
LWPOLYLINE
  5
29B
  330
123
  100
AcDbEntity
  8
100 4W CUT4 LHPS 7EMBR3-R7 RINGS_DXF_RINGDESIGN_100 04W CUT03  LHPS 7E MB RINGS_SURVEYEXPORT
  62
7
  100
AcDbPolyline
  90
2
  43
0
  38
-1066.4758530502768
  10
7098.949680466867
  20
-23427.451130600351
  10
7086.0744478846791
  20
-23442.755652348995
  0
LWPOLYLINE
  5
29C
  330
123
  100
AcDbEntity
  8
100 4W CUT4 LHPS 7EMBR3-R7 RINGS_DXF_RINGDESIGN_100 04W CUT03  LHPS 7E MB RINGS_SURVEYEXPORT
  62
1
  100
AcDbPolyline
  90
2
  43
0
  38
-1066.4758530502768
  10
7096.5162615088329
  20
-23425.403968619783
  10
7083.641028926645
  20
-23440.708490368426
  0
POLYLINE
  5
29D
  330
123
  100
AcDbEntity
  8
100 4W CUT4 LHPS 7EMBR3-R7 RINGS_DXF_RINGDESIGN_100 04W CUT03  LHPS 7E MB RINGS_SURVEYEXPORT_R7
  62
7
  100
AcDb3dPolyline
  10
0
  20
0
  30
0
  70
8
  0
VERTEX
  5
29E
  330

  100
AcDbEntity
  8
100 4W CUT4 LHPS 7EMBR3-R7 RINGS_DXF_RINGDESIGN_100 04W CUT03  LHPS 7E MB RINGS_SURVEYEXPORT_R7
  6
BYLAYER
  62
7
  100
AcDbVertex
  100
AcDb3dPolylineVertex
  10
7093.8374140365468
  20
-23433.527975602439
  30
-1067.2442458591127
  70
32
  0
VERTEX
  5
29F
  330

  100
AcDbEntity
  8
100 4W CUT4 LHPS 7EMBR3-R7 RINGS_DXF_RINGDESIGN_100 04W CUT03  LHPS 7E MB RINGS_SURVEYEXPORT_R7
  6
BYLAYER
  62
7
  100
AcDbVertex
  100
AcDb3dPolylineVertex
  10
7095.3100968668286
  20
-23431.7774280872
  30
-1068.2526052584785
  70
32
  0
SEQEND
  5
2A0
  330

  100
AcDbEntity
  8
100 4W CUT4 LHPS 7EMBR3-R7 RINGS_DXF_RINGDESIGN_100 04W CUT03  LHPS 7E MB RINGS_SURVEYEXPORT_R7
  0
POLYLINE
  5
2A1
  330
123
  100
AcDbEntity
  8
100 4W CUT4 LHPS 7EMBR3-R7 RINGS_DXF_RINGDESIGN_100 04W CUT03  LHPS 7E MB RINGS_SURVEYEXPORT_R7
  62
7
  100
AcDb3dPolyline
  10
0
  20
0
  30
0
  70
8
  0
VERTEX
  5
2A2
  330

  100
AcDbEntity
  8
100 4W CUT4 LHPS 7EMBR3-R7 RINGS_DXF_RINGDESIGN_100 04W CUT03  LHPS 7E MB RINGS_SURVEYEXPORT_R7
  6
BYLAYER
  62
7
  100
AcDbVertex
  100
AcDb3dPolylineVertex
  10
7093.9314182950575
  20
-23433.416234691376
  30
-1066.3946661294276
  70
32
  0
VERTEX
  5
2A3
  330

  100
AcDbEntity
  8
100 4W CUT4 LHPS 7EMBR3-R7 RINGS_DXF_RINGDESIGN_100 04W CUT03  LHPS 7E MB RINGS_SURVEYEXPORT_R7
  6
BYLAYER
  62
7
  100
AcDbVertex
  100
AcDb3dPolylineVertex
  10
7096.1370393287107
  20
-23430.794458745713
  30
-1066.6463039373655
  70
32
  0
SEQEND
  5
2A4
  330

  100
AcDbEntity
  8
100 4W CUT4 LHPS 7EMBR3-R7 RINGS_DXF_RINGDESIGN_100 04W CUT03  LHPS 7E MB RINGS_SURVEYEXPORT_R7
  0
POLYLINE
  5
2A5
  330
123
  100
AcDbEntity
  8
100 4W CUT4 LHPS 7EMBR3-R7 RINGS_DXF_RINGDESIGN_100 04W CUT03  LHPS 7E MB RINGS_SURVEYEXPORT_R7
  62
7
  100
AcDb3dPolyline
  10
0
  20
0
  30
0
  70
8
  0
VERTEX
  5
2A6
  330

  100
AcDbEntity
  8
100 4W CUT4 LHPS 7EMBR3-R7 RINGS_DXF_RINGDESIGN_100 04W CUT03  LHPS 7E MB RINGS_SURVEYEXPORT_R7
  6
BYLAYER
  62
7
  100
AcDbVertex
  100
AcDb3dPolylineVertex
  10
7093.9228863670251
  20
-23433.426376417152
  30
-1065.4934457397626
  70
32
  0
VERTEX
  5
2A7
  330

  100
AcDbEntity
  8
100 4W CUT4 LHPS 7EMBR3-R7 RINGS_DXF_RINGDESIGN_100 04W CUT03  LHPS 7E MB RINGS_SURVEYEXPORT_R7
  6
BYLAYER
  62
7
  100
AcDbVertex
  100
AcDb3dPolylineVertex
  10
7096.1370393287079
  20
-23430.794458745717
  30
-1064.416231842959
  70
32
  0
SEQEND
  5
2A8
  330

  100
AcDbEntity
  8
100 4W CUT4 LHPS 7EMBR3-R7 RINGS_DXF_RINGDESIGN_100 04W CUT03  LHPS 7E MB RINGS_SURVEYEXPORT_R7
  0
POLYLINE
  5
2A9
  330
123
  100
AcDbEntity
  8
100 4W CUT4 LHPS 7EMBR3-R7 RINGS_DXF_RINGDESIGN_100 04W CUT03  LHPS 7E MB RINGS_SURVEYEXPORT_R7
  62
7
  100
AcDb3dPolyline
  10
0
  20
0
  30
0
  70
8
  0
VERTEX
  5
2AA
  330

  100
AcDbEntity
  8
100 4W CUT4 LHPS 7EMBR3-R7 RINGS_DXF_RINGDESIGN_100 04W CUT03  LHPS 7E MB RINGS_SURVEYEXPORT_R7
  6
BYLAYER
  62
7
  100
AcDbVertex
  100
AcDb3dPolylineVertex
  10
7093.9120213550341
  20
-23433.439291431405
  30
-1064.3457836518546
  70
32
  0
VERTEX
  5
2AB
  330

  100
AcDbEntity
  8
100 4W CUT4 LHPS 7EMBR3-R7 RINGS_DXF_RINGDESIGN_100 04W CUT03  LHPS 7E MB RINGS_SURVEYEXPORT_R7
  6
BYLAYER
  62
7
  100
AcDbVertex
  100
AcDb3dPolylineVertex
  10
7096.1282984909658
  20
-23430.804848798129
  30
-1061.1096471479493
  70
32
  0
SEQEND
  5
2AC
  330

  100
AcDbEntity
  8
100 4W CUT4 LHPS 7EMBR3-R7 RINGS_DXF_RINGDESIGN_100 04W CUT03  LHPS 7E MB RINGS_SURVEYEXPORT_R7
  0
POLYLINE
  5
2AD
  330
123
  100
AcDbEntity
  8
100 4W CUT4 LHPS 7EMBR3-R7 RINGS_DXF_RINGDESIGN_100 04W CUT03  LHPS 7E MB RINGS_SURVEYEXPORT_R7
  62
7
  100
AcDb3dPolyline
  10
0
  20
0
  30
0
  70
8
  0
VERTEX
  5
2AE
  330

  100
AcDbEntity
  8
100 4W CUT4 LHPS 7EMBR3-R7 RINGS_DXF_RINGDESIGN_100 04W CUT03  LHPS 7E MB RINGS_SURVEYEXPORT_R7
  6
BYLAYER
  62
7
  100
AcDbVertex
  100
AcDb3dPolylineVertex
  10
7093.8123047805666
  20
-23433.557822453888
  30
-1062.95389584602
  70
32
  0
VERTEX
  5
2AF
  330

  100
AcDbEntity
  8
100 4W CUT4 LHPS 7EMBR3-R7 RINGS_DXF_RINGDESIGN_100 04W CUT03  LHPS 7E MB RINGS_SURVEYEXPORT_R7
  6
BYLAYER
  62
7
  100
AcDbVertex
  100
AcDb3dPolylineVertex
  10
7096.11550900497
  20
-23430.820051394694
  30
-1056.5601490714112
  70
32
  0
SEQEND
  5
2B0
  330

  100
AcDbEntity
  8
100 4W CUT4 LHPS 7EMBR3-R7 RINGS_DXF_RINGDESIGN_100 04W CUT03  LHPS 7E MB RINGS_SURVEYEXPORT_R7
  0
POLYLINE
  5
2B1
  330
123
  100
AcDbEntity
  8
100 4W CUT4 LHPS 7EMBR3-R7 RINGS_DXF_RINGDESIGN_100 04W CUT03  LHPS 7E MB RINGS_SURVEYEXPORT_R7
  62
7
  100
AcDb3dPolyline
  10
0
  20
0
  30
0
  70
8
  0
VERTEX
  5
2B2
  330

  100
AcDbEntity
  8
100 4W CUT4 LHPS 7EMBR3-R7 RINGS_DXF_RINGDESIGN_100 04W CUT03  LHPS 7E MB RINGS_SURVEYEXPORT_R7
  6
BYLAYER
  62
7
  100
AcDbVertex
  100
AcDb3dPolylineVertex
  10
7093.6679043444656
  20
-23433.729468255289
  30
-1062.025147003068
  70
32
  0
VERTEX
  5
2B3
  330

  100
AcDbEntity
  8
100 4W CUT4 LHPS 7EMBR3-R7 RINGS_DXF_RINGDESIGN_100 04W CUT03  LHPS 7E MB RINGS_SURVEYEXPORT_R7
  6
BYLAYER
  62
7
  100
AcDbVertex
  100
AcDb3dPolylineVertex
  10
7096.1048829058182
  20
-23430.832682418211
  30
-1052.7802147052741
  70
32
  0
SEQEND
  5
2B4
  330

  100
AcDbEntity
  8
100 4W CUT4 LHPS 7EMBR3-R7 RINGS_DXF_RINGDESIGN_100 04W CUT03  LHPS 7E MB RINGS_SURVEYEXPORT_R7
  0
POLYLINE
  5
2B5
  330
123
  100
AcDbEntity
  8
100 4W CUT4 LHPS 7EMBR3-R7 RINGS_DXF_RINGDESIGN_100 04W CUT03  LHPS 7E MB RINGS_SURVEYEXPORT_R7
  62
7
  100
AcDb3dPolyline
  10
0
  20
0
  30
0
  70
8
  0
VERTEX
  5
2B6
  330

  100
AcDbEntity
  8
100 4W CUT4 LHPS 7EMBR3-R7 RINGS_DXF_RINGDESIGN_100 04W CUT03  LHPS 7E MB RINGS_SURVEYEXPORT_R7
  6
BYLAYER
  62
7
  100
AcDbVertex
  100
AcDb3dPolylineVertex
  10
7093.4667809605553
  20
-23433.968539447484
  30
-1061.6843262427444
  70
32
  0
VERTEX
  5
2B7
  330

  100
AcDbEntity
  8
100 4W CUT4 LHPS 7EMBR3-R7 RINGS_DXF_RINGDESIGN_100 04W CUT03  LHPS 7E MB RINGS_SURVEYEXPORT_R7
  6
BYLAYER
  62
7
  100
AcDbVertex
  100
AcDb3dPolylineVertex
  10
7095.6647335894377
  20
-23431.355878775419
  30
-1050.0213040296305
  70
32
  0
SEQEND
  5
2B8
  330

  100
AcDbEntity
  8
100 4W CUT4 LHPS 7EMBR3-R7 RINGS_DXF_RINGDESIGN_100 04W CUT03  LHPS 7E MB RINGS_SURVEYEXPORT_R7
  0
POLYLINE
  5
2B9
  330
123
  100
AcDbEntity
  8
100 4W CUT4 LHPS 7EMBR3-R7 RINGS_DXF_RINGDESIGN_100 04W CUT03  LHPS 7E MB RINGS_SURVEYEXPORT_R7
  62
7
  100
AcDb3dPolyline
  10
0
  20
0
  30
0
  70
8
  0
VERTEX
  5
2BA
  330

  100
AcDbEntity
  8
100 4W CUT4 LHPS 7EMBR3-R7 RINGS_DXF_RINGDESIGN_100 04W CUT03  LHPS 7E MB RINGS_SURVEYEXPORT_R7
  6
BYLAYER
  62
7
  100
AcDbVertex
  100
AcDb3dPolylineVertex
  10
7093.2034909650665
  20
-23434.281506800613
  30
-1061.4967626501991
  70
32
  0
VERTEX
  5
2BB
  330

  100
AcDbEntity
  8
100 4W CUT4 LHPS 7EMBR3-R7 RINGS_DXF_RINGDESIGN_100 04W CUT03  LHPS 7E MB RINGS_SURVEYEXPORT_R7
  6
BYLAYER
  62
7
  100
AcDbVertex
  100
AcDb3dPolylineVertex
  10
7094.6761784750106
  20
-23432.530953722755
  30
-1050.0849142658274
  70
32
  0
SEQEND
  5
2BC
  330

  100
AcDbEntity
  8
100 4W CUT4 LHPS 7EMBR3-R7 RINGS_DXF_RINGDESIGN_100 04W CUT03  LHPS 7E MB RINGS_SURVEYEXPORT_R7
  0
POLYLINE
  5
2BD
  330
123
  100
AcDbEntity
  8
100 4W CUT4 LHPS 7EMBR3-R7 RINGS_DXF_RINGDESIGN_100 04W CUT03  LHPS 7E MB RINGS_SURVEYEXPORT_R7
  62
7
  100
AcDb3dPolyline
  10
0
  20
0
  30
0
  70
8
  0
VERTEX
  5
2BE
  330

  100
AcDbEntity
  8
100 4W CUT4 LHPS 7EMBR3-R7 RINGS_DXF_RINGDESIGN_100 04W CUT03  LHPS 7E MB RINGS_SURVEYEXPORT_R7
  6
BYLAYER
  62
7
  100
AcDbVertex
  100
AcDb3dPolylineVertex
  10
7092.9487146490565
  20
-23434.584354119641
  30
-1061.4472924145384
  70
32
  0
VERTEX
  5
2BF
  330

  100
AcDbEntity
  8
100 4W CUT4 LHPS 7EMBR3-R7 RINGS_DXF_RINGDESIGN_100 04W CUT03  LHPS 7E MB RINGS_SURVEYEXPORT_R7
  6
BYLAYER
  62
7
  100
AcDbVertex
  100
AcDb3dPolylineVertex
  10
7093.8346465203331
  20
-23433.53126529152
  30
-1050.1262645854922
  70
32
  0
SEQEND
  5
2C0
  330

  100
AcDbEntity
  8
100 4W CUT4 LHPS 7EMBR3-R7 RINGS_DXF_RINGDESIGN_100 04W CUT03  LHPS 7E MB RINGS_SURVEYEXPORT_R7
  0
POLYLINE
  5
2C1
  330
123
  100
AcDbEntity
  8
100 4W CUT4 LHPS 7EMBR3-R7 RINGS_DXF_RINGDESIGN_100 04W CUT03  LHPS 7E MB RINGS_SURVEYEXPORT_R7
  62
7
  100
AcDb3dPolyline
  10
0
  20
0
  30
0
  70
8
  0
VERTEX
  5
2C2
  330

  100
AcDbEntity
  8
100 4W CUT4 LHPS 7EMBR3-R7 RINGS_DXF_RINGDESIGN_100 04W CUT03  LHPS 7E MB RINGS_SURVEYEXPORT_R7
  6
BYLAYER
  62
7
  100
AcDbVertex
  100
AcDb3dPolylineVertex
  10
7092.5210090298142
  20
-23435.092758912328
  30
-1061.4599510386718
  70
32
  0
VERTEX
  5
2C3
  330

  100
AcDbEntity
  8
100 4W CUT4 LHPS 7EMBR3-R7 RINGS_DXF_RINGDESIGN_100 04W CUT03  LHPS 7E MB RINGS_SURVEYEXPORT_R7
  6
BYLAYER
  62
7
  100
AcDbVertex
  100
AcDb3dPolylineVertex
  10
7092.3703556539785
  20
-23435.271837453416
  30
-1050.0969588544706
  70
32
  0
SEQEND
  5
2C4
  330

  100
AcDbEntity
  8
100 4W CUT4 LHPS 7EMBR3-R7 RINGS_DXF_RINGDESIGN_100 04W CUT03  LHPS 7E MB RINGS_SURVEYEXPORT_R7
  0
POLYLINE
  5
2C5
  330
123
  100
AcDbEntity
  8
100 4W CUT4 LHPS 7EMBR3-R7 RINGS_DXF_RINGDESIGN_100 04W CUT03  LHPS 7E MB RINGS_SURVEYEXPORT_R7
  62
7
  100
AcDb3dPolyline
  10
0
  20
0
  30
0
  70
8
  0
VERTEX
  5
2C6
  330

  100
AcDbEntity
  8
100 4W CUT4 LHPS 7EMBR3-R7 RINGS_DXF_RINGDESIGN_100 04W CUT03  LHPS 7E MB RINGS_SURVEYEXPORT_R7
  6
BYLAYER
  62
7
  100
AcDbVertex
  100
AcDb3dPolylineVertex
  10
7092.0387022203722
  20
-23435.666067006568
  30
-1061.6774609852864
  70
32
  0
VERTEX
  5
2C7
  330

  100
AcDbEntity
  8
100 4W CUT4 LHPS 7EMBR3-R7 RINGS_DXF_RINGDESIGN_100 04W CUT03  LHPS 7E MB RINGS_SURVEYEXPORT_R7
  6
BYLAYER
  62
7
  100
AcDbVertex
  100
AcDb3dPolylineVertex
  10
7090.8936925390763
  20
-23437.027116250374
  30
-1050.0355604989345
  70
32
  0
SEQEND
  5
2C8
  330

  100
AcDbEntity
  8
100 4W CUT4 LHPS 7EMBR3-R7 RINGS_DXF_RINGDESIGN_100 04W CUT03  LHPS 7E MB RINGS_SURVEYEXPORT_R7
  0
POLYLINE
  5
2C9
  330
123
  100
AcDbEntity
  8
100 4W CUT4 LHPS 7EMBR3-R7 RINGS_DXF_RINGDESIGN_100 04W CUT03  LHPS 7E MB RINGS_SURVEYEXPORT_R7
  62
7
  100
AcDb3dPolyline
  10
0
  20
0
  30
0
  70
8
  0
VERTEX
  5
2CA
  330

  100
AcDbEntity
  8
100 4W CUT4 LHPS 7EMBR3-R7 RINGS_DXF_RINGDESIGN_100 04W CUT03  LHPS 7E MB RINGS_SURVEYEXPORT_R7
  6
BYLAYER
  62
7
  100
AcDbVertex
  100
AcDb3dPolylineVertex
  10
7091.7033407779718
  20
-23436.06470419282
  30
-1061.8131806543636
  70
32
  0
VERTEX
  5
2CB
  330

  100
AcDbEntity
  8
100 4W CUT4 LHPS 7EMBR3-R7 RINGS_DXF_RINGDESIGN_100 04W CUT03  LHPS 7E MB RINGS_SURVEYEXPORT_R7
  6
BYLAYER
  62
7
  100
AcDbVertex
  100
AcDb3dPolylineVertex
  10
7089.6119637803558
  20
-23438.55068062395
  30
-1050.0534877697492
  70
32
  0
SEQEND
  5
2CC
  330

  100
AcDbEntity
  8
100 4W CUT4 LHPS 7EMBR3-R7 RINGS_DXF_RINGDESIGN_100 04W CUT03  LHPS 7E MB RINGS_SURVEYEXPORT_R7
  0
POLYLINE
  5
2CD
  330
123
  100
AcDbEntity
  8
100 4W CUT4 LHPS 7EMBR3-R7 RINGS_DXF_RINGDESIGN_100 04W CUT03  LHPS 7E MB RINGS_SURVEYEXPORT_R7
  62
7
  100
AcDb3dPolyline
  10
0
  20
0
  30
0
  70
8
  0
VERTEX
  5
2CE
  330

  100
AcDbEntity
  8
100 4W CUT4 LHPS 7EMBR3-R7 RINGS_DXF_RINGDESIGN_100 04W CUT03  LHPS 7E MB RINGS_SURVEYEXPORT_R7
  6
BYLAYER
  62
7
  100
AcDbVertex
  100
AcDb3dPolylineVertex
  10
7091.3645023105146
  20
-23436.467474446588
  30
-1061.8676297760092
  70
32
  0
VERTEX
  5
2CF
  330

  100
AcDbEntity
  8
100 4W CUT4 LHPS 7EMBR3-R7 RINGS_DXF_RINGDESIGN_100 04W CUT03  LHPS 7E MB RINGS_SURVEYEXPORT_R7
  6
BYLAYER
  62
7
  100
AcDbVertex
  100
AcDb3dPolylineVertex
  10
7088.3877608501534
  20
-23440.005865239094
  30
-1050.2130347078321
  70
32
  0
SEQEND
  5
2D0
  330

  100
AcDbEntity
  8
100 4W CUT4 LHPS 7EMBR3-R7 RINGS_DXF_RINGDESIGN_100 04W CUT03  LHPS 7E MB RINGS_SURVEYEXPORT_R7
  0
POLYLINE
  5
2D1
  330
123
  100
AcDbEntity
  8
100 4W CUT4 LHPS 7EMBR3-R7 RINGS_DXF_RINGDESIGN_100 04W CUT03  LHPS 7E MB RINGS_SURVEYEXPORT_R7
  62
7
  100
AcDb3dPolyline
  10
0
  20
0
  30
0
  70
8
  0
VERTEX
  5
2D2
  330

  100
AcDbEntity
  8
100 4W CUT4 LHPS 7EMBR3-R7 RINGS_DXF_RINGDESIGN_100 04W CUT03  LHPS 7E MB RINGS_SURVEYEXPORT_R7
  6
BYLAYER
  62
7
  100
AcDbVertex
  100
AcDb3dPolylineVertex
  10
7091.0355138049217
  20
-23436.858536255124
  30
-1061.9204960733202
  70
32
  0
VERTEX
  5
2D3
  330

  100
AcDbEntity
  8
100 4W CUT4 LHPS 7EMBR3-R7 RINGS_DXF_RINGDESIGN_100 04W CUT03  LHPS 7E MB RINGS_SURVEYEXPORT_R7
  6
BYLAYER
  62
7
  100
AcDbVertex
  100
AcDb3dPolylineVertex
  10
7087.22111865381
  20
-23441.392628604561
  30
-1050.3650799167362
  70
32
  0
SEQEND
  5
2D4
  330

  100
AcDbEntity
  8
100 4W CUT4 LHPS 7EMBR3-R7 RINGS_DXF_RINGDESIGN_100 04W CUT03  LHPS 7E MB RINGS_SURVEYEXPORT_R7
  0
POLYLINE
  5
2D5
  330
123
  100
AcDbEntity
  8
100 4W CUT4 LHPS 7EMBR3-R7 RINGS_DXF_RINGDESIGN_100 04W CUT03  LHPS 7E MB RINGS_SURVEYEXPORT_R7
  62
7
  100
AcDb3dPolyline
  10
0
  20
0
  30
0
  70
8
  0
VERTEX
  5
2D6
  330

  100
AcDbEntity
  8
100 4W CUT4 LHPS 7EMBR3-R7 RINGS_DXF_RINGDESIGN_100 04W CUT03  LHPS 7E MB RINGS_SURVEYEXPORT_R7
  6
BYLAYER
  62
7
  100
AcDbVertex
  100
AcDb3dPolylineVertex
  10
7090.6974054932089
  20
-23437.26043858792
  30
-1062.1472092556094
  70
32
  0
VERTEX
  5
2D7
  330

  100
AcDbEntity
  8
100 4W CUT4 LHPS 7EMBR3-R7 RINGS_DXF_RINGDESIGN_100 04W CUT03  LHPS 7E MB RINGS_SURVEYEXPORT_R7
  6
BYLAYER
  62
7
  100
AcDbVertex
  100
AcDb3dPolylineVertex
  10
7086.45814383931
  20
-23442.299560931242
  30
-1052.1738616201587
  70
32
  0
SEQEND
  5
2D8
  330

  100
AcDbEntity
  8
100 4W CUT4 LHPS 7EMBR3-R7 RINGS_DXF_RINGDESIGN_100 04W CUT03  LHPS 7E MB RINGS_SURVEYEXPORT_R7
  0
POLYLINE
  5
2D9
  330
123
  100
AcDbEntity
  8
100 4W CUT4 LHPS 7EMBR3-R7 RINGS_DXF_RINGDESIGN_100 04W CUT03  LHPS 7E MB RINGS_SURVEYEXPORT_R7
  62
7
  100
AcDb3dPolyline
  10
0
  20
0
  30
0
  70
8
  0
VERTEX
  5
2DA
  330

  100
AcDbEntity
  8
100 4W CUT4 LHPS 7EMBR3-R7 RINGS_DXF_RINGDESIGN_100 04W CUT03  LHPS 7E MB RINGS_SURVEYEXPORT_R7
  6
BYLAYER
  62
7
  100
AcDbVertex
  100
AcDb3dPolylineVertex
  10
7090.4786671695738
  20
-23437.52044829337
  30
-1062.6218809252537
  70
32
  0
VERTEX
  5
2DB
  330

  100
AcDbEntity
  8
100 4W CUT4 LHPS 7EMBR3-R7 RINGS_DXF_RINGDESIGN_100 04W CUT03  LHPS 7E MB RINGS_SURVEYEXPORT_R7
  6
BYLAYER
  62
7
  100
AcDbVertex
  100
AcDb3dPolylineVertex
  10
7086.458143839307
  20
-23442.299560931235
  30
-1055.3356272253091
  70
32
  0
SEQEND
  5
2DC
  330

  100
AcDbEntity
  8
100 4W CUT4 LHPS 7EMBR3-R7 RINGS_DXF_RINGDESIGN_100 04W CUT03  LHPS 7E MB RINGS_SURVEYEXPORT_R7
  0
POLYLINE
  5
2DD
  330
123
  100
AcDbEntity
  8
100 4W CUT4 LHPS 7EMBR3-R7 RINGS_DXF_RINGDESIGN_100 04W CUT03  LHPS 7E MB RINGS_SURVEYEXPORT_R7
  62
7
  100
AcDb3dPolyline
  10
0
  20
0
  30
0
  70
8
  0
VERTEX
  5
2DE
  330

  100
AcDbEntity
  8
100 4W CUT4 LHPS 7EMBR3-R7 RINGS_DXF_RINGDESIGN_100 04W CUT03  LHPS 7E MB RINGS_SURVEYEXPORT_R7
  6
BYLAYER
  62
7
  100
AcDbVertex
  100
AcDb3dPolylineVertex
  10
7090.4908691505761
  20
-23437.505944051798
  30
-1063.7214321514912
  70
32
  0
VERTEX
  5
2DF
  330

  100
AcDbEntity
  8
100 4W CUT4 LHPS 7EMBR3-R7 RINGS_DXF_RINGDESIGN_100 04W CUT03  LHPS 7E MB RINGS_SURVEYEXPORT_R7
  6
BYLAYER
  62
7
  100
AcDbVertex
  100
AcDb3dPolylineVertex
  10
7086.4804960182319
  20
-23442.272991360056
  30
-1058.5882472712024
  70
32
  0
SEQEND
  5
2E0
  330

  100
AcDbEntity
  8
100 4W CUT4 LHPS 7EMBR3-R7 RINGS_DXF_RINGDESIGN_100 04W CUT03  LHPS 7E MB RINGS_SURVEYEXPORT_R7
  0
POLYLINE
  5
2E1
  330
123
  100
AcDbEntity
  8
100 4W CUT4 LHPS 7EMBR3-R7 RINGS_DXF_RINGDESIGN_100 04W CUT03  LHPS 7E MB RINGS_SURVEYEXPORT_R7
  62
7
  100
AcDb3dPolyline
  10
0
  20
0
  30
0
  70
8
  0
VERTEX
  5
2E2
  330

  100
AcDbEntity
  8
100 4W CUT4 LHPS 7EMBR3-R7 RINGS_DXF_RINGDESIGN_100 04W CUT03  LHPS 7E MB RINGS_SURVEYEXPORT_R7
  6
BYLAYER
  62
7
  100
AcDbVertex
  100
AcDb3dPolylineVertex
  10
7090.526501699821
  20
-23437.463588380055
  30
-1064.6070406782308
  70
32
  0
VERTEX
  5
2E3
  330

  100
AcDbEntity
  8
100 4W CUT4 LHPS 7EMBR3-R7 RINGS_DXF_RINGDESIGN_100 04W CUT03  LHPS 7E MB RINGS_SURVEYEXPORT_R7
  6
BYLAYER
  62
7
  100
AcDbVertex
  100
AcDb3dPolylineVertex
  10
7086.5076786704085
  20
-23442.240679905586
  30
-1061.0829250471561
  70
32
  0
SEQEND
  5
2E4
  330

  100
AcDbEntity
  8
100 4W CUT4 LHPS 7EMBR3-R7 RINGS_DXF_RINGDESIGN_100 04W CUT03  LHPS 7E MB RINGS_SURVEYEXPORT_R7
  0
POLYLINE
  5
2E5
  330
123
  100
AcDbEntity
  8
100 4W CUT4 LHPS 7EMBR3-R7 RINGS_DXF_RINGDESIGN_100 04W CUT03  LHPS 7E MB RINGS_SURVEYEXPORT_R7
  62
7
  100
AcDb3dPolyline
  10
0
  20
0
  30
0
  70
8
  0
VERTEX
  5
2E6
  330

  100
AcDbEntity
  8
100 4W CUT4 LHPS 7EMBR3-R7 RINGS_DXF_RINGDESIGN_100 04W CUT03  LHPS 7E MB RINGS_SURVEYEXPORT_R7
  6
BYLAYER
  62
7
  100
AcDbVertex
  100
AcDb3dPolylineVertex
  10
7090.5584363912849
  20
-23437.425628275108
  30
-1065.4007429436544
  70
32
  0
VERTEX
  5
2E7
  330

  100
AcDbEntity
  8
100 4W CUT4 LHPS 7EMBR3-R7 RINGS_DXF_RINGDESIGN_100 04W CUT03  LHPS 7E MB RINGS_SURVEYEXPORT_R7
  6
BYLAYER
  62
7
  100
AcDbVertex
  100
AcDb3dPolylineVertex
  10
7086.5329233637394
  20
-23442.210672062574
  30
-1063.3997473723634
  70
32
  0
SEQEND
  5
2E8
  330

  100
AcDbEntity
  8
100 4W CUT4 LHPS 7EMBR3-R7 RINGS_DXF_RINGDESIGN_100 04W CUT03  LHPS 7E MB RINGS_SURVEYEXPORT_R7
  0
POLYLINE
  5
2E9
  330
123
  100
AcDbEntity
  8
100 4W CUT4 LHPS 7EMBR3-R7 RINGS_DXF_RINGDESIGN_100 04W CUT03  LHPS 7E MB RINGS_SURVEYEXPORT_R7
  62
7
  100
AcDb3dPolyline
  10
0
  20
0
  30
0
  70
8
  0
VERTEX
  5
2EA
  330

  100
AcDbEntity
  8
100 4W CUT4 LHPS 7EMBR3-R7 RINGS_DXF_RINGDESIGN_100 04W CUT03  LHPS 7E MB RINGS_SURVEYEXPORT_R7
  6
BYLAYER
  62
7
  100
AcDbVertex
  100
AcDb3dPolylineVertex
  10
7090.5843760692424
  20
-23437.39479431829
  30
-1066.0376041818424
  70
32
  0
VERTEX
  5
2EB
  330

  100
AcDbEntity
  8
100 4W CUT4 LHPS 7EMBR3-R7 RINGS_DXF_RINGDESIGN_100 04W CUT03  LHPS 7E MB RINGS_SURVEYEXPORT_R7
  6
BYLAYER
  62
7
  100
AcDbVertex
  100
AcDb3dPolylineVertex
  10
7086.557085834871
  20
-23442.181950634618
  30
-1065.6172491583613
  70
32
  0
SEQEND
  5
2EC
  330

  100
AcDbEntity
  8
100 4W CUT4 LHPS 7EMBR3-R7 RINGS_DXF_RINGDESIGN_100 04W CUT03  LHPS 7E MB RINGS_SURVEYEXPORT_R7
  0
POLYLINE
  5
2ED
  330
123
  100
AcDbEntity
  8
100 4W CUT4 LHPS 7EMBR3-R7 RINGS_DXF_RINGDESIGN_100 04W CUT03  LHPS 7E MB RINGS_SURVEYEXPORT_R7
  62
7
  100
AcDb3dPolyline
  10
0
  20
0
  30
0
  70
8
  0
VERTEX
  5
2EE
  330

  100
AcDbEntity
  8
100 4W CUT4 LHPS 7EMBR3-R7 RINGS_DXF_RINGDESIGN_100 04W CUT03  LHPS 7E MB RINGS_SURVEYEXPORT_R7
  6
BYLAYER
  62
7
  100
AcDbVertex
  100
AcDb3dPolylineVertex
  10
7090.6141615763563
  20
-23437.359388904173
  30
-1066.7316228783836
  70
32
  0
VERTEX
  5
2EF
  330

  100
AcDbEntity
  8
100 4W CUT4 LHPS 7EMBR3-R7 RINGS_DXF_RINGDESIGN_100 04W CUT03  LHPS 7E MB RINGS_SURVEYEXPORT_R7
  6
BYLAYER
  62
7
  100
AcDbVertex
  100
AcDb3dPolylineVertex
  10
7086.7389175579838
  20
-23441.965811039223
  30
-1067.6782673292191
  70
32
  0
SEQEND
  5
2F0
  330

  100
AcDbEntity
  8
100 4W CUT4 LHPS 7EMBR3-R7 RINGS_DXF_RINGDESIGN_100 04W CUT03  LHPS 7E MB RINGS_SURVEYEXPORT_R7
  0
POLYLINE
  5
2F1
  330
123
  100
AcDbEntity
  8
100 4W CUT4 LHPS 7EMBR3-R7 RINGS_DXF_RINGDESIGN_100 04W CUT03  LHPS 7E MB RINGS_SURVEYEXPORT_R7
  62
7
  100
AcDb3dPolyline
  10
0
  20
0
  30
0
  70
8
  0
VERTEX
  5
2F2
  330

  100
AcDbEntity
  8
100 4W CUT4 LHPS 7EMBR3-R7 RINGS_DXF_RINGDESIGN_100 04W CUT03  LHPS 7E MB RINGS_SURVEYEXPORT_R7
  6
BYLAYER
  62
7
  100
AcDbVertex
  100
AcDb3dPolylineVertex
  10
7090.6471071789574
  20
-23437.32022715014
  30
-1067.4992735376777
  70
32
  0
VERTEX
  5
2F3
  330

  100
AcDbEntity
  8
100 4W CUT4 LHPS 7EMBR3-R7 RINGS_DXF_RINGDESIGN_100 04W CUT03  LHPS 7E MB RINGS_SURVEYEXPORT_R7
  6
BYLAYER
  62
7
  100
AcDbVertex
  100
AcDb3dPolylineVertex
  10
7089.1734659475578
  20
-23439.0719138969
  30
-1068.5042486927655
  70
32
  0
SEQEND
  5
2F4
  330

  100
AcDbEntity
  8
100 4W CUT4 LHPS 7EMBR3-R7 RINGS_DXF_RINGDESIGN_100 04W CUT03  LHPS 7E MB RINGS_SURVEYEXPORT_R7
  0
LWPOLYLINE
  5
2F5
  330
123
  100
AcDbEntity
  8
100 4W CUT4 LHPS 7EMBR3-R7 RINGS_DXF_RINGDESIGN_100 04W CUT03  LHPS 7E MB RINGS_SURVEYEXPORT
  62
7
  100
AcDbPolyline
  90
2
  43
0
  38
-1066.5063541396014
  10
7097.419228292003
  20
-23426.163607342132
  10
7084.5439957098151
  20
-23441.468129090776
  0
LWPOLYLINE
  5
2F6
  330
123
  100
AcDbEntity
  8
100 4W CUT4 LHPS 7EMBR3-R7 RINGS_DXF_RINGDESIGN_100 04W CUT03  LHPS 7E MB RINGS_SURVEYEXPORT
  62
1
  100
AcDbPolyline
  90
2
  43
0
  38
-1066.5063541396014
  10
7094.985809333969
  20
-23424.116445361564
  10
7082.1105767517811
  20
-23439.420967110207
  0
LWPOLYLINE
  5
2F7
  330
123
  100
AcDbEntity
  8
100 4W CUT4 LHPS 7EMBR3-R7 RINGS_DXF_RINGDESIGN_100 04W CUT03  LHPS 7E MB RINGS_SURVEYEXPORT
  62
7
  100
AcDbPolyline
  90
2
  43
0
  38
-1066.536855228926
  10
7095.8887761171391
  20
-23424.876084083917
  10
7083.0135435349512
  20
-23440.18060583256
  0
LWPOLYLINE
  5
2F8
  330
123
  100
AcDbEntity
  8
100 4W CUT4 LHPS 7EMBR3-R7 RINGS_DXF_RINGDESIGN_100 04W CUT03  LHPS 7E MB RINGS_SURVEYEXPORT
  62
1
  100
AcDbPolyline
  90
2
  43
0
  38
-1066.536855228926
  10
7093.455357159105
  20
-23422.828922103348
  10
7080.5801245769171
  20
-23438.133443851992
  0
LWPOLYLINE
  5
2F9
  330
123
  100
AcDbEntity
  8
100 4W CUT4 LHPS 7EMBR3-R7 RINGS_DXF_RINGDESIGN_100 04W CUT03  LHPS 7E MB RINGS_SURVEYEXPORT
  62
7
  100
AcDbPolyline
  90
2
  43
0
  38
-1066.5673563182506
  10
7094.3583239422751
  20
-23423.588560825698
  10
7081.4830913600872
  20
-23438.893082574341
  0
LWPOLYLINE
  5
2FA
  330
123
  100
AcDbEntity
  8
100 4W CUT4 LHPS 7EMBR3-R7 RINGS_DXF_RINGDESIGN_100 04W CUT03  LHPS 7E MB RINGS_SURVEYEXPORT
  62
1
  100
AcDbPolyline
  90
2
  43
0
  38
-1066.5673563182506
  10
7091.924904984241
  20
-23421.541398845129
  10
7079.0496724020531
  20
-23436.845920593772
  0
LWPOLYLINE
  5
2FB
  330
123
  100
AcDbEntity
  8
100 4W CUT4 LHPS 7EMBR3-R7 RINGS_DXF_RINGDESIGN_100 04W CUT03  LHPS 7E MB RINGS_SURVEYEXPORT
  62
7
  100
AcDbPolyline
  90
2
  43
0
  38
-1066.5978574075752
  10
7092.8278717674111
  20
-23422.301037567478
  10
7079.9526391852232
  20
-23437.605559316122
  0
LWPOLYLINE
  5
2FC
  330
123
  100
AcDbEntity
  8
100 4W CUT4 LHPS 7EMBR3-R7 RINGS_DXF_RINGDESIGN_100 04W CUT03  LHPS 7E MB RINGS_SURVEYEXPORT
  62
1
  100
AcDbPolyline
  90
2
  43
0
  38
-1066.5978574075752
  10
7090.3944528093771
  20
-23420.25387558691
  10
7077.5192202271892
  20
-23435.558397335553
  0
LWPOLYLINE
  5
2FD
  330
123
  100
AcDbEntity
  8
100 4W CUT4 LHPS 7EMBR3-R7 RINGS_DXF_RINGDESIGN_100 04W CUT03  LHPS 7E MB RINGS_SURVEYEXPORT
  62
7
  100
AcDbPolyline
  90
2
  43
0
  38
-1066.6283584968999
  10
7091.2974195925472
  20
-23421.013514309259
  10
7078.4221870103593
  20
-23436.318036057903
  0
LWPOLYLINE
  5
2FE
  330
123
  100
AcDbEntity
  8
100 4W CUT4 LHPS 7EMBR3-R7 RINGS_DXF_RINGDESIGN_100 04W CUT03  LHPS 7E MB RINGS_SURVEYEXPORT
  62
1
  100
AcDbPolyline
  90
2
  43
0
  38
-1066.6283584968999
  10
7088.8640006345131
  20
-23418.966352328691
  10
7075.9887680523252
  20
-23434.270874077334
  0
LWPOLYLINE
  5
2FF
  330
123
  100
AcDbEntity
  8
100 4W CUT4 LHPS 7EMBR3-R7 RINGS_DXF_RINGDESIGN_100 04W CUT03  LHPS 7E MB RINGS_SURVEYEXPORT
  62
7
  100
AcDbPolyline
  90
2
  43
0
  38
-1066.6588595862245
  10
7089.7669674176832
  20
-23419.72599105104
  10
7076.8917348354953
  20
-23435.030512799683
  0
LWPOLYLINE
  5
300
  330
123
  100
AcDbEntity
  8
100 4W CUT4 LHPS 7EMBR3-R7 RINGS_DXF_RINGDESIGN_100 04W CUT03  LHPS 7E MB RINGS_SURVEYEXPORT
  62
1
  100
AcDbPolyline
  90
2
  43
0
  38
-1066.6588595862245
  10
7087.3335484596491
  20
-23417.678829070472
  10
7074.4583158774612
  20
-23432.983350819115
  0
LWPOLYLINE
  5
301
  330
123
  100
AcDbEntity
  8
100 4W CUT4 LHPS 7EMBR3-R7 RINGS_DXF_RINGDESIGN_100 04W CUT03  LHPS 7E MB RINGS_SURVEYEXPORT
  62
7
  100
AcDbPolyline
  90
2
  43
0
  38
-1066.6893606755491
  10
7088.2365152428192
  20
-23418.438467792821
  10
7075.3612826606313
  20
-23433.742989541464
  0
LWPOLYLINE
  5
302
  330
123
  100
AcDbEntity
  8
100 4W CUT4 LHPS 7EMBR3-R7 RINGS_DXF_RINGDESIGN_100 04W CUT03  LHPS 7E MB RINGS_SURVEYEXPORT
  62
1
  100
AcDbPolyline
  90
2
  43
0
  38
-1066.6893606755491
  10
7085.8030962847852
  20
-23416.391305812253
  10
7072.9278637025973
  20
-23431.695827560896
  0
LWPOLYLINE
  5
303
  330
123
  100
AcDbEntity
  8
100 4W CUT4 LHPS 7EMBR3-R7 RINGS_DXF_RINGDESIGN_100 04W CUT03  LHPS 7E MB RINGS_SURVEYEXPORT
  62
7
  100
AcDbPolyline
  90
2
  43
0
  38
-1066.7198617648737
  10
7086.7060630679553
  20
-23417.150944534602
  10
7073.8308304857674
  20
-23432.455466283245
  0
LWPOLYLINE
  5
304
  330
123
  100
AcDbEntity
  8
100 4W CUT4 LHPS 7EMBR3-R7 RINGS_DXF_RINGDESIGN_100 04W CUT03  LHPS 7E MB RINGS_SURVEYEXPORT
  62
1
  100
AcDbPolyline
  90
2
  43
0
  38
-1066.7198617648737
  10
7084.2726441099212
  20
-23415.103782554033
  10
7071.3974115277333
  20
-23430.408304302677
  0
LWPOLYLINE
  5
305
  330
123
  100
AcDbEntity
  8
100 4W CUT4 LHPS 7EMBR3-R7 RINGS_DXF_RINGDESIGN_100 04W CUT03  LHPS 7E MB RINGS_SURVEYEXPORT
  62
7
  100
AcDbPolyline
  90
2
  43
0
  38
-1066.8455856165181
  10
7085.1756108930922
  20
-23415.863421276386
  10
7072.3003783109043
  20
-23431.16794302503
  0
LWPOLYLINE
  5
306
  330
123
  100
AcDbEntity
  8
100 4W CUT4 LHPS 7EMBR3-R7 RINGS_DXF_RINGDESIGN_100 04W CUT03  LHPS 7E MB RINGS_SURVEYEXPORT
  62
1
  100
AcDbPolyline
  90
2
  43
0
  38
-1066.8455856165181
  10
7082.7421919350581
  20
-23413.816259295818
  10
7069.86695935287
  20
-23429.120781044461
  0
LWPOLYLINE
  5
307
  330
123
  100
AcDbEntity
  8
100 4W CUT4 LHPS 7EMBR3-R7 RINGS_DXF_RINGDESIGN_100 04W CUT03  LHPS 7E MB RINGS_SURVEYEXPORT
  62
7
  100
AcDbPolyline
  90
2
  43
0
  38
-1067.0426846843136
  10
7083.6451587182282
  20
-23414.575898018167
  10
7070.76992613604
  20
-23429.880419766811
  0
LWPOLYLINE
  5
308
  330
123
  100
AcDbEntity
  8
100 4W CUT4 LHPS 7EMBR3-R7 RINGS_DXF_RINGDESIGN_100 04W CUT03  LHPS 7E MB RINGS_SURVEYEXPORT
  62
1
  100
AcDbPolyline
  90
2
  43
0
  38
-1067.0426846843136
  10
7081.2117397601942
  20
-23412.5287360376
  10
7068.3365071780063
  20
-23427.833257786242
  0
LWPOLYLINE
  5
309
  330
123
  100
AcDbEntity
  8
100 4W CUT4 LHPS 7EMBR3-R7 RINGS_DXF_RINGDESIGN_100 04W CUT03  LHPS 7E MB RINGS_SURVEYEXPORT
  62
7
  100
AcDbPolyline
  90
2
  43
0
  38
-1066.3010814008737
  10
7107.4482102045567
  20
-23434.608648056612
  10
7095.1149409724821
  20
-23450.353185841162
  0
LWPOLYLINE
  5
30A
  330
123
  100
AcDbEntity
  8
100 4W CUT4 LHPS 7EMBR3-R7 RINGS_DXF_RINGDESIGN_100 04W CUT03  LHPS 7E MB RINGS_SURVEYEXPORT
  62
1
  100
AcDbPolyline
  90
2
  43
0
  38
-1066.3010814008737
  10
7104.9448286968127
  20
-23432.647658248712
  10
7092.6115594647381
  20
-23448.392196033263
  0
LWPOLYLINE
  5
30B
  330
123
  100
AcDbEntity
  8
100 4W CUT4 LHPS 7EMBR3-R7 RINGS_DXF_RINGDESIGN_100 04W CUT03  LHPS 7E MB RINGS_SURVEYEXPORT
  62
7
  100
AcDbPolyline
  90
2
  43
0
  38
-1066.3087104340209
  10
7107.0654084544985
  20
-23434.286608489103
  10
7094.7321392224239
  20
-23450.031146273654
  0
LWPOLYLINE
  5
30C
  330
123
  100
AcDbEntity
  8
100 4W CUT4 LHPS 7EMBR3-R7 RINGS_DXF_RINGDESIGN_100 04W CUT03  LHPS 7E MB RINGS_SURVEYEXPORT
  62
1
  100
AcDbPolyline
  90
2
  43
0
  38
-1066.3087104340209
  10
7104.5620269467545
  20
-23432.325618681203
  10
7092.22875771468
  20
-23448.070156465754
  0
LWPOLYLINE
  5
30D
  330
123
  100
AcDbEntity
  8
100 4W CUT4 LHPS 7EMBR3-R7 RINGS_DXF_RINGDESIGN_100 04W CUT03  LHPS 7E MB RINGS_SURVEYEXPORT
  62
7
  100
AcDbPolyline
  90
2
  43
0
  38
-1066.3125249505945
  10
7106.8740075794694
  20
-23434.125588705348
  10
7094.5407383473948
  20
-23449.8701264899
  0
LWPOLYLINE
  5
30E
  330
123
  100
AcDbEntity
  8
100 4W CUT4 LHPS 7EMBR3-R7 RINGS_DXF_RINGDESIGN_100 04W CUT03  LHPS 7E MB RINGS_SURVEYEXPORT
  62
1
  100
AcDbPolyline
  90
2
  43
0
  38
-1066.3125249505945
  10
7104.3706260717254
  20
-23432.164598897449
  10
7092.0373568396508
  20
-23447.909136682
  0
LWPOLYLINE
  5
30F
  330
123
  100
AcDbEntity
  8
100 4W CUT4 LHPS 7EMBR3-R7 RINGS_DXF_RINGDESIGN_100 04W CUT03  LHPS 7E MB RINGS_SURVEYEXPORT
  62
7
  100
AcDbPolyline
  90
2
  43
0
  38
-1066.3163394671681
  10
7106.6826067044412
  20
-23433.964568921594
  10
7094.3493374723666
  20
-23449.709106706145
  0
LWPOLYLINE
  5
310
  330
123
  100
AcDbEntity
  8
100 4W CUT4 LHPS 7EMBR3-R7 RINGS_DXF_RINGDESIGN_100 04W CUT03  LHPS 7E MB RINGS_SURVEYEXPORT
  62
1
  100
AcDbPolyline
  90
2
  43
0
  38
-1066.3163394671681
  10
7104.1792251966972
  20
-23432.003579113694
  10
7091.8459559646226
  20
-23447.748116898245
  0
LWPOLYLINE
  5
311
  330
123
  100
AcDbEntity
  8
100 4W CUT4 LHPS 7EMBR3-R7 RINGS_DXF_RINGDESIGN_100 04W CUT03  LHPS 7E MB RINGS_SURVEYEXPORT
  62
7
  100
AcDbPolyline
  90
2
  43
0
  38
-1066.3201539837416
  10
7106.4912058294121
  20
-23433.80354913784
  10
7094.1579365973375
  20
-23449.54808692239
  0
LWPOLYLINE
  5
312
  330
123
  100
AcDbEntity
  8
100 4W CUT4 LHPS 7EMBR3-R7 RINGS_DXF_RINGDESIGN_100 04W CUT03  LHPS 7E MB RINGS_SURVEYEXPORT
  62
1
  100
AcDbPolyline
  90
2
  43
0
  38
-1066.3201539837416
  10
7103.9878243216681
  20
-23431.84255932994
  10
7091.6545550895935
  20
-23447.58709711449
  0
LWPOLYLINE
  5
313
  330
123
  100
AcDbEntity
  8
100 4W CUT4 LHPS 7EMBR3-R7 RINGS_DXF_RINGDESIGN_100 04W CUT03  LHPS 7E MB RINGS_SURVEYEXPORT
  62
7
  100
AcDbPolyline
  90
2
  43
0
  38
-1066.3239685003152
  10
7106.299804954383
  20
-23433.642529354085
  10
7093.9665357223084
  20
-23449.387067138636
  0
LWPOLYLINE
  5
314
  330
123
  100
AcDbEntity
  8
100 4W CUT4 LHPS 7EMBR3-R7 RINGS_DXF_RINGDESIGN_100 04W CUT03  LHPS 7E MB RINGS_SURVEYEXPORT
  62
1
  100
AcDbPolyline
  90
2
  43
0
  38
-1066.3239685003152
  10
7103.796423446639
  20
-23431.681539546185
  10
7091.4631542145644
  20
-23447.426077330736
  0
LWPOLYLINE
  5
315
  330
123
  100
AcDbEntity
  8
100 4W CUT4 LHPS 7EMBR3-R7 RINGS_DXF_RINGDESIGN_100 04W CUT03  LHPS 7E MB RINGS_SURVEYEXPORT
  62
7
  100
AcDbPolyline
  90
2
  43
0
  38
-1066.3315975334624
  10
7105.9170032043248
  20
-23433.320489786576
  10
7093.58373397225
  20
-23449.065027571127
  0
LWPOLYLINE
  5
316
  330
123
  100
AcDbEntity
  8
100 4W CUT4 LHPS 7EMBR3-R7 RINGS_DXF_RINGDESIGN_100 04W CUT03  LHPS 7E MB RINGS_SURVEYEXPORT
  62
1
  100
AcDbPolyline
  90
2
  43
0
  38
-1066.3315975334624
  10
7103.4136216965808
  20
-23431.359499978676
  10
7091.0803524645062
  20
-23447.104037763227
  0
VIEWPORT
  5
317
  330
124
  100
AcDbEntity
  67
1
  8
0
  100
AcDbViewport
  10
105.029
  20
148.463
  40
24.97
  41
312.78718378906251
  68
1
  69
1
  12
105.029
  22
148.463
  13
0
  23
0
  14
1
  24
1
  15
1
  25
1
  16
0
  26
0
  36
1
  17
0
  27
0
  37
0
  42
50
  43
0
  44
0
  45
312.78718378906251
  50
0
  51
0
  72
1000
  90
32800
  1

  281
0
  71
1
  74
0
  110
0
  120
0
  130
0
  111
1
  121
0
  131
0
  112
0
  122
1
  132
0
  79
0
  146
0
  0
ENDSEC
  0
SECTION
  2
OBJECTS
  0
DICTIONARY
  5
318
  330
0
  100
AcDbDictionary
  281
1
  3
ACAD_GROUP
  350
319
  3
ACAD_LAYOUT
  350
31A
  3
ACAD_MLINESTYLE
  350
31B
  3
ACAD_PLOTSETTINGS
  350
31C
  3
ACAD_PLOTSTYLENAME
  350
31D
  3
VECTORDRAW_OBJECTS
  350
31E
  3
DWGPROPS
  350
31F
  0
DICTIONARY
  5
117
  330
116
  100
AcDbDictionary
  280
1
  281
1
  3
ACAD_LAYERFILTERS
  360
320
  3
ACAD_LAYERSTATES
  360
321
  3
ACLYDICTIONARY
  360
322
  0
DICTIONARY
  5
320
  102
{ACAD_REACTORS
  330
117
  102
}
  330
117
  100
AcDbDictionary
  281
1
  0
DICTIONARY
  5
321
  102
{ACAD_REACTORS
  330
117
  102
}
  330
117
  100
AcDbDictionary
  281
1
  0
DICTIONARY
  5
322
  102
{ACAD_REACTORS
  330
117
  102
}
  330
117
  100
AcDbDictionary
  281
1
  1001
ACAD
  1000
<All
  0
DICTIONARY
  5
319
  102
{ACAD_REACTORS
  330
318
  102
}
  330
318
  100
AcDbDictionary
  281
1
  0
DICTIONARY
  5
31A
  102
{ACAD_REACTORS
  330
318
  102
}
  330
318
  100
AcDbDictionary
  281
1
  3
Layout1
  350
111
  3
Model
  350
1
  0
DICTIONARY
  5
31B
  102
{ACAD_REACTORS
  330
318
  102
}
  330
318
  100
AcDbDictionary
  281
1
  3
Standard
  350
63
  0
DICTIONARY
  5
31C
  102
{ACAD_REACTORS
  330
318
  102
}
  330
318
  100
AcDbDictionary
  281
1
  0
ACDBDICTIONARYWDFLT
  5
31D
  102
{ACAD_REACTORS
  330
318
  102
}
  330
318
  100
AcDbDictionary
  281
1
  3
Normal
  350
115
  100
AcDbDictionaryWithDefault
  340
115
  0
DICTIONARY
  5
31E
  102
{ACAD_REACTORS
  330
318
  102
}
  330
318
  100
AcDbDictionary
  281
1
  3
SERIALNO
  350
323
  0
LAYOUT
  5
111
  102
{ACAD_REACTORS
  330
31A
  102
}
  330
31A
  100
AcDbPlotSettings
  1

  2

  4

  6

  40
0
  41
0
  42
0
  43
0
  44
210.058
  45
296.926
  46
0
  47
0
  48
0
  49
0
  140
210.058
  141
296.926
  142
1
  143
1
  70
688
  72
1
  73
0
  74
4
  75
16
  147
1
  148
0
  149
0
  100
AcDbLayout
  1
Layout1
  70
0
  71
1
  10
0
  20
0
  11
12
  21
9
  12
0
  22
0
  32
0
  14
0
  24
0
  34
0
  15
0
  25
0
  35
0
  146
0
  13
0
  23
0
  33
0
  16
1
  26
0
  36
0
  17
0
  27
1
  37
0
  76
0
  330
124
  0
LAYOUT
  5
1
  102
{ACAD_REACTORS
  330
31A
  102
}
  330
31A
  100
AcDbPlotSettings
  1
VectorDraw Printer Drawing
  2

  4

  6

  40
0
  41
0
  42
0
  43
0
  44
210.058
  45
296.926
  46
0
  47
0
  48
-254.49440115113936
  49
-126.2093796282725
  140
-68.826810569028837
  141
57.180081008045256
  142
1
  143
0.88388726248041261
  72
1
  73
0
  74
4
  75
0
  147
1
  148
254.49440115113936
  149
126.2093796282725
  100
AcDbLayout
  1
Model
  70
1
  71
0
  10
10
  20
0
  11
0
  21
10
  12
0
  22
0
  32
0
  14
7116.4538424064885
  24
-23455.244887446541
  34
7046.7642398239877
  15
-23396.61712654381
  25
-1070.9633211225157
  35
-1070.9633211225157
  146
0
  13
0
  23
0
  33
0
  16
1
  26
0
  36
0
  17
0
  27
1
  37
0
  76
0
  330
123
  0
MLINESTYLE
  5
63
  102
{ACAD_REACTORS
  330
31B
  102
}
  330
31B
  100
AcDbMlineStyle
  2
Standard
  70
0
  3

  62
0
  51
90
  52
90
  71
2
  49
0.5
  62
7
  6
Continuous
  49
-0.5
  62
7
  6
Continuous
  0
ACDBPLACEHOLDER
  5
115
  102
{ACAD_REACTORS
  330
31D
  102
}
  330
31D
  0
XRECORD
  5
323
  102
{ACAD_REACTORS
  330
31E
  102
}
  330
31E
  100
AcDbXrecord
  280
1
  1000
udnjVM6OT3ptXXPNDrqErnGX8
  1070
5
  1070
1
  0
XRECORD
  5
31F
  102
{ACAD_REACTORS
  330
318
  102
}
  330
318
  100
AcDbXrecord
  280
1
  1
DWGPROPS COOKIE
  2

  3

  4

  6

  7

  8

  9

  40
0
  41
0
  42
0
  1

  90
0
  0
ENDSEC
  999
Created By VectorDraw :7.7012.0.1
  0
EOF
