  0
SECTION
  2
HEADER
  9
$ACADVER
  1
AC1015
  9
$ACADMAINTVER
  70
6
  9
$DWGCODEPAGE
  3

  9
$INSBASE
  10
0
  20
0
  30
0
  9
$EXTMIN
  10
7093.2923891649261
  20
-23461.085669114229
  30
-1066.4026723073657
  9
$EXTMAX
  10
7109.88352716377
  20
-23436.802258790278
  30
-1066.4026723073657
  9
$LIMMIN
  10
0
  20
0
  9
$LIMMAX
  10
10
  20
10
  9
$ORTHOMODE
  70
0
  9
$REGENMODE
  70
1
  9
$FILLMODE
  70
1
  9
$QTEXTMODE
  70
0
  9
$MIRRTEXT
  70
1
  9
$LTSCALE
  40
1
  9
$ATTMODE
  70
1
  9
$TEXTSIZE
  40
0.2
  9
$TRACEWID
  40
0.05
  9
$TEXTSTYLE
  7
STANDARD
  9
$CLAYER
  8
0
  9
$CELTYPE
  6
BYLAYER
  9
$CECOLOR
  62
256
  9
$CELTSCALE
  40
1
  9
$DISPSILH
  70
0
  9
$DIMSCALE
  40
1
  9
$DIMASZ
  40
0.2
  9
$DIMEXO
  40
0.2
  9
$DIMRND
  40
0
  9
$DIMDLE
  40
0
  9
$DIMEXE
  40
0.05
  9
$DIMTP
  40
1
  9
$DIMTM
  40
1
  9
$DIMTXT
  40
1
  9
$DIMTSZ
  40
0.0
  9
$DIMTOL
  70
0
  9
$DIMLIM
  70
0
  9
$DIMTIH
  70
0
  9
$DIMTOH
  70
1
  9
$DIMSE1
  70
0
  9
$DIMSE2
  70
0
  9
$DIMTAD
  70
0
  9
$DIMZIN
  70
1
  9
$DIMBLK
  1
VDDIM_DEFAULT
  9
$DIMASO
  70
1
  9
$DIMSHO
  70
1
  9
$DIMPOST
  1

  9
$DIMAPOST
  1

  9
$DIMALT
  70
0
  9
$DIMBLK1
  1

  9
$DIMBLK2
  1

  9
$DIMSTYLE
  2
STANDARD
  9
$DIMCLRD
  70
0
  9
$DIMCLRE
  70
0
  9
$DIMCLRT
  70
0
  9
$DIMTFAC
  40
1
  9
$DIMSD1
  70
0
  9
$DIMSD2
  70
0
  9
$DIMTOLJ
  70
1
  9
$DIMTXSTY
  7
STANDARD
  9
$DIMAUNIT
  70
1
  9
$DIMADEC
  70
4
  9
$DIMAZIN
  70
0
  9
$DIMLUNIT
  70
2
  9
$LUNITS
  70
2
  9
$LUPREC
  70
4
  9
$FILLETRAD
  40
0
  9
$AUNITS
  70
1
  9
$AUPREC
  70
4
  9
$MENU
  1

  9
$ELEVATION
  40
0
  9
$PELEVATION
  40
0
  9
$THICKNESS
  40
0
  9
$ANGBASE
  50
0
  9
$ANGDIR
  70
0
  9
$PDMODE
  70
2
  9
$PDSIZE
  40
1
  9
$PLINEWID
  40
0
  9
$SPLFRAME
  70
0
  9
$SPLINETYPE
  70
6
  9
$SPLINESEGS
  70
8
  9
$HANDSEED
  5
              244
  9
$SURFTAB1
  70
6
  9
$SURFTAB2
  70
6
  9
$SURFTYPE
  70
6
  9
$SURFU
  70
6
  9
$SURFV
  70
6
  9
$UCSBASE
  2

  9
$UCSNAME
  2

  9
$UCSORG
  10
0
  20
0
  30
0
  9
$UCSXDIR
  10
1
  20
0
  30
0
  9
$UCSYDIR
  10
0
  20
1
  30
0
  9
$UCSORGTOP
  10
0
  20
0
  30
0
  9
$UCSORGBOTTOM
  10
0
  20
0
  30
0
  9
$UCSORGLEFT
  10
0
  20
0
  30
0
  9
$UCSORGRIGHT
  10
0
  20
0
  30
0
  9
$UCSORGFRONT
  10
0
  20
0
  30
0
  9
$UCSORGBACK
  10
0
  20
0
  30
0
  9
$PUCSBASE
  2

  9
$PUCSNAME
  2

  9
$PUCSXDIR
  10
1
  20
0
  30
0
  9
$PUCSYDIR
  10
0
  20
1
  30
0
  9
$PUCSORGTOP
  10
0
  20
0
  30
0
  9
$PUCSORGBOTTOM
  10
0
  20
0
  30
0
  9
$PUCSORGLEFT
  10
0
  20
0
  30
0
  9
$PUCSORGRIGHT
  10
0
  20
0
  30
0
  9
$PUCSORGFRONT
  10
0
  20
0
  30
0
  9
$PUCSORGBACK
  10
0
  20
0
  30
0
  9
$USERI1
  70
0
  9
$USERI2
  70
0
  9
$USERI3
  70
0
  9
$USERI4
  70
0
  9
$USERI5
  70
0
  9
$USERR1
  40
0
  9
$USERR2
  40
0
  9
$USERR3
  40
0
  9
$USERR4
  40
0
  9
$USERR5
  40
0
  9
$TILEMODE
  70
1
  9
$PINSBASE
  10
0
  20
0
  30
0
  9
$LWDISPLAY
  290
1
  9
$INSUNITS
  70
0
  9
$MEASUREMENT
  70
1
  0
ENDSEC
  0
SECTION
  2
CLASSES
  0
CLASS
  1
ACDBDICTIONARYWDFLT
  2
AcDbDictionaryWithDefault
  3
ObjectDBX Classes
  90
0
  280
0
  281
0
  0
CLASS
  1
IMAGEDEF
  2
AcDbRasterImageDef
  3
ISM
  90
0
  280
0
  281
0
  0
CLASS
  1
IMAGE
  2
AcDbRasterImage
  3
ISM
  90
127
  280
0
  281
1
  0
CLASS
  1
IMAGEDEF_REACTOR
  2
AcDbRasterImageDefReactor
  3
ObjectDBX Classes
  90
1
  280
0
  281
0
  0
CLASS
  1
ACDBPLACEHOLDER
  2
AcDbPlaceHolder
  3
ObjectDBX Classes
  90
0
  280
0
  281
0
  0
CLASS
  1
LAYOUT
  2
AcDbLayout
  3
ObjectDBX Classes
  90
0
  280
0
  281
0
  0
CLASS
  1
ARCALIGNEDTEXT
  2
AcDbArcAlignedText
  3
ATEXT|AutoCAD Express Tool|expresstools@autodesk.com
  90
0
  280
0
  281
1
  0
ENDSEC
  0
SECTION
  2
TABLES
  0
TABLE
  2
VPORT
  5
E3
  330
0
  100
AcDbSymbolTable
  70
2
  0
VPORT
  5
E4
  330
E3
  100
AcDbSymbolTableRecord
  100
AcDbViewportTableRecord
  2
*Active
  70
0
  10
0
  20
0
  11
1
  21
1
  12
0.34764373014898764
  22
-2.3863020947518865
  13
0
  23
0
  14
1
  24
1
  15
1
  25
1
  16
0
  26
0
  36
1
  17
0
  27
0
  37
0
  40
44.281337471299629
  41
1
  42
50
  43
0
  44
0
  50
0
  51
0
  71
0
  72
100
  73
1
  74
3
  75
0
  76
0
  77
0
  78
0
  281
0
  65
1
  110
0
  120
0
  130
0
  111
1
  121
0
  131
0
  112
0
  122
1
  132
0
  79
0
  146
0
  0
ENDTAB
  0
TABLE
  2
LTYPE
  5
E5
  330
0
  100
AcDbSymbolTable
  70
8
  0
LTYPE
  5
1C
  330
E5
  100
AcDbSymbolTableRecord
  100
AcDbLinetypeTableRecord
  2
BYLAYER
  70
0
  3
BYLAYER________________________________________
  72
65
  73
0
  40
0
  0
LTYPE
  5
1D
  330
E5
  100
AcDbSymbolTableRecord
  100
AcDbLinetypeTableRecord
  2
BYBLOCK
  70
0
  3
BYBLOCK________________________________________
  72
65
  73
0
  40
0
  0
LTYPE
  5
1E
  330
E5
  100
AcDbSymbolTableRecord
  100
AcDbLinetypeTableRecord
  2
DASHED0
  70
0
  3
Dashed0 __ __ __ __ __ __ __ __ __ __ __ __ __ _
  72
65
  73
2
  40
1
  49
0.5
  74
0
  49
-0.5
  74
0
  0
LTYPE
  5
1F
  330
E5
  100
AcDbSymbolTableRecord
  100
AcDbLinetypeTableRecord
  2
DOT0
  70
0
  3
Dot0 ........................................
  72
65
  73
8
  40
1
  49
0
  74
0
  49
-0.25
  74
0
  49
0
  74
0
  49
-0.25
  74
0
  49
0
  74
0
  49
-0.25
  74
0
  49
0
  74
0
  49
-0.25
  74
0
  0
LTYPE
  5
20
  330
E5
  100
AcDbSymbolTableRecord
  100
AcDbLinetypeTableRecord
  2
DASHDOT0
  70
0
  3
Dashdot __ . __ . __ . __ . __ . __ . __ . __
  72
65
  73
4
  40
1
  49
0.4
  74
0
  49
-0.3
  74
0
  49
0
  74
0
  49
-0.3
  74
0
  0
LTYPE
  5
21
  330
E5
  100
AcDbSymbolTableRecord
  100
AcDbLinetypeTableRecord
  2
DASHDOTDOT0
  70
0
  3
Dashdot __ . . __ . . __ . . __ . . __ . . __ . . __ . . __
  72
65
  73
6
  40
1
  49
0.3
  74
0
  49
-0.23
  74
0
  49
0
  74
0
  49
-0.24
  74
0
  49
0
  74
0
  49
-0.23
  74
0
  0
LTYPE
  5
22
  330
E5
  100
AcDbSymbolTableRecord
  100
AcDbLinetypeTableRecord
  2
INVISIBLE
  70
0
  3
Invisible(                        )
  72
65
  73
2
  40
2
  49
-1
  74
0
  49
-1
  74
0
  0
ENDTAB
  0
TABLE
  2
LAYER
  5
E7
  102
{ACAD_XDICTIONARY
  360
E8
  102
}
  330
0
  100
AcDbSymbolTable
  70
16
  0
LAYER
  5
62
  330
E7
  100
AcDbSymbolTableRecord
  100
AcDbLayerTableRecord
  2
0
  70
0
  62
7
  6
Continuous
  370
-3
  390
E6
  0
LAYER
  5
6C
  330
E7
  100
AcDbSymbolTableRecord
  100
AcDbLayerTableRecord
  2
100 4W CUT4 LHPS 7EMB SLOT2 RINGS_DXF_RINGDESIGN_100 4W CUT4  LHPS 7EMB SLOT_SURVEYEXPORT
  70
0
  62
7
  6
Continuous
  370
25
  390
E6
  0
LAYER
  5
6D
  330
E7
  100
AcDbSymbolTableRecord
  100
AcDbLayerTableRecord
  2
100 4W CUT4 LHPS 7EMB SLOT2 RINGS_DXF_RINGDESIGN_100 4W CUT4  LHPS 7EMB SLOT_SURVEYEXPORT_S8A
  70
0
  62
7
  6
Continuous
  370
25
  390
E6
  0
LAYER
  5
6E
  330
E7
  100
AcDbSymbolTableRecord
  100
AcDbLayerTableRecord
  2
100 4W CUT4 LHPS 7EMB SLOT2 RINGS_DXF_RINGDESIGN_100 4W CUT4  LHPS 7EMB SLOT_SURVEYEXPORT_S8B
  70
0
  62
7
  6
Continuous
  370
25
  390
E6
  0
LAYER
  5
6F
  330
E7
  100
AcDbSymbolTableRecord
  100
AcDbLayerTableRecord
  2
100 4W CUT4 LHPS 7EMB SLOT2 RINGS_DXF_RINGDESIGN_100 4W CUT4  LHPS 7EMB SLOT_SURVEYEXPORT_S9
  70
0
  62
7
  6
Continuous
  370
25
  390
E6
  0
LAYER
  5
70
  330
E7
  100
AcDbSymbolTableRecord
  100
AcDbLayerTableRecord
  2
100 4W CUT4 LHPS 7EMB SLOT2 RINGS_DXF_RINGDESIGN_100 4W CUT4  LHPS 7EMB SLOT_SURVEYEXPORT_S10
  70
0
  62
7
  6
Continuous
  370
25
  390
E6
  0
LAYER
  5
71
  330
E7
  100
AcDbSymbolTableRecord
  100
AcDbLayerTableRecord
  2
100 4W CUT4 LHPS 7EMB SLOT2 RINGS_DXF_RINGDESIGN_100 4W CUT4  LHPS 7EMB SLOT_SURVEYEXPORT_S11
  70
0
  62
7
  6
Continuous
  370
25
  390
E6
  0
LAYER
  5
72
  330
E7
  100
AcDbSymbolTableRecord
  100
AcDbLayerTableRecord
  2
100 4W CUT4 LHPS 7EMB SLOT2 RINGS_DXF_RINGDESIGN_100 4W CUT4  LHPS 7EMB SLOT_SURVEYEXPORT_S12
  70
0
  62
7
  6
Continuous
  370
25
  390
E6
  0
LAYER
  5
73
  330
E7
  100
AcDbSymbolTableRecord
  100
AcDbLayerTableRecord
  2
100 4W CUT4 LHPS 7EMB SLOT2 RINGS_DXF_RINGDESIGN_100 4W CUT4  LHPS 7EMB SLOT_SURVEYEXPORT_SL1
  70
0
  62
7
  6
Continuous
  370
25
  390
E6
  0
LAYER
  5
74
  330
E7
  100
AcDbSymbolTableRecord
  100
AcDbLayerTableRecord
  2
100 4W CUT4 LHPS 7EMB SLOT2 RINGS_DXF_RINGDESIGN_100 4W CUT4  LHPS 7EMB SLOT_SURVEYEXPORT_SL2
  70
0
  62
7
  6
Continuous
  370
25
  390
E6
  0
LAYER
  5
75
  330
E7
  100
AcDbSymbolTableRecord
  100
AcDbLayerTableRecord
  2
100 4W CUT4 LHPS 7EMB SLOT2 RINGS_DXF_RINGDESIGN_100 4W CUT4  LHPS 7EMB SLOT_SURVEYEXPORT_SL3
  70
0
  62
7
  6
Continuous
  370
25
  390
E6
  0
LAYER
  5
76
  330
E7
  100
AcDbSymbolTableRecord
  100
AcDbLayerTableRecord
  2
100 4W CUT4 LHPS 7EMB SLOT2 RINGS_DXF_RINGDESIGN_100 4W CUT4  LHPS 7EMB SLOT_SURVEYEXPORT_SL4
  70
0
  62
7
  6
Continuous
  370
25
  390
E6
  0
LAYER
  5
77
  330
E7
  100
AcDbSymbolTableRecord
  100
AcDbLayerTableRecord
  2
100 4W CUT4 LHPS 7EMB SLOT2 RINGS_DXF_RINGDESIGN_100 4W CUT4  LHPS 7EMB SLOT_SURVEYEXPORT_SL5
  70
0
  62
7
  6
Continuous
  370
25
  390
E6
  0
LAYER
  5
78
  330
E7
  100
AcDbSymbolTableRecord
  100
AcDbLayerTableRecord
  2
100 4W CUT4 LHPS 7EMB SLOT2 RINGS_DXF_RINGDESIGN_100 4W CUT4  LHPS 7EMB SLOT_SURVEYEXPORT_SL6
  70
0
  62
7
  6
Continuous
  370
25
  390
E6
  0
LAYER
  5
79
  330
E7
  100
AcDbSymbolTableRecord
  100
AcDbLayerTableRecord
  2
100 4W CUT4 LHPS 7EMB SLOT2 RINGS_DXF_RINGDESIGN_100 4W CUT4  LHPS 7EMB SLOT_SURVEYEXPORT_SL7
  70
0
  62
7
  6
Continuous
  370
25
  390
E6
  0
LAYER
  5
7A
  330
E7
  100
AcDbSymbolTableRecord
  100
AcDbLayerTableRecord
  2
100 4W CUT4 LHPS 7EMB SLOT2 RINGS_DXF_RINGDESIGN_100 4W CUT4  LHPS 7EMB SLOT_SURVEYEXPORT_SL8
  70
0
  62
7
  6
Continuous
  370
25
  390
E6
  0
ENDTAB
  0
TABLE
  2
STYLE
  5
E9
  330
0
  100
AcDbSymbolTable
  70
1
  0
STYLE
  5
64
  330
E9
  100
AcDbSymbolTableRecord
  100
AcDbTextStyleTableRecord
  2
STANDARD
  70
0
  40
1
  41
1
  50
0
  71
0
  42
0.2
  3
Arial
  4

  0
ENDTAB
  0
TABLE
  2
VIEW
  5
EA
  330
0
  100
AcDbSymbolTable
  70
0
  0
ENDTAB
  0
TABLE
  2
UCS
  5
EB
  330
0
  100
AcDbSymbolTable
  70
0
  0
ENDTAB
  0
TABLE
  2
APPID
  5
EC
  330
0
  100
AcDbSymbolTable
  70
6
  0
APPID
  5
ED
  330
EC
  100
AcDbSymbolTableRecord
  100
AcDbRegAppTableRecord
  2
AcAecLayerStandard
  70
0
  0
APPID
  5
EE
  330
EC
  100
AcDbSymbolTableRecord
  100
AcDbRegAppTableRecord
  2
VDEXTRAPARAM
  70
0
  0
APPID
  5
EF
  330
EC
  100
AcDbSymbolTableRecord
  100
AcDbRegAppTableRecord
  2
VDEXTRASOLID2D
  70
0
  0
APPID
  5
F0
  330
EC
  100
AcDbSymbolTableRecord
  100
AcDbRegAppTableRecord
  2
VD_TEMPHATCH
  70
0
  0
APPID
  5
F1
  330
EC
  100
AcDbSymbolTableRecord
  100
AcDbRegAppTableRecord
  2
ACAD
  70
0
  0
APPID
  5
F2
  330
EC
  100
AcDbSymbolTableRecord
  100
AcDbRegAppTableRecord
  2
PE_URL
  70
0
  0
ENDTAB
  0
TABLE
  2
BLOCK_RECORD
  5
F3
  330
0
  100
AcDbSymbolTable
  70
4
  0
BLOCK_RECORD
  5
F4
  330
F3
  100
AcDbSymbolTableRecord
  100
AcDbBlockTableRecord
  2
*Model_Space
  340
1
  0
BLOCK_RECORD
  5
F5
  330
F3
  100
AcDbSymbolTableRecord
  100
AcDbBlockTableRecord
  2
*Paper_Space
  340
E2
  0
BLOCK_RECORD
  5
F6
  330
F3
  100
AcDbSymbolTableRecord
  100
AcDbBlockTableRecord
  2
VDDIM_DEFAULT
  340
0
  0
BLOCK_RECORD
  5
F7
  330
F3
  100
AcDbSymbolTableRecord
  100
AcDbBlockTableRecord
  2
VDDIM_NONE
  340
0
  0
ENDTAB
  0
TABLE
  2
DIMSTYLE
  5
F8
  330
0
  100
AcDbSymbolTable
  70
1
  100
AcDbDimStyleTable
  71
1
  340
69
  0
DIMSTYLE
  105
69
  330
F8
  100
AcDbSymbolTableRecord
  100
AcDbDimStyleTableRecord
  2
STANDARD
  70
0
  41
0.2
  3

  177
0
  42
0.05
  44
0.2
  75
0
  76
0
  40
1
  172
1
  281
0
  282
0
  275
1
  277
2
  179
4
  71
0
  47
1
  48
1
  78
1
  176
0
  178
0
  140
1
  147
0.09
  280
0
  77
1
  73
0
  271
4
  173
1
  340
64
  0
ENDTAB
  0
ENDSEC
  0
SECTION
  2
BLOCKS
  0
BLOCK
  5
F9
  330
F4
  100
AcDbEntity
  8
0
  100
AcDbBlockBegin
  2
*Model_Space
  70
0
  71
0
  10
0
  20
0
  30
0
  3
*Model_Space
  1

  0
ENDBLK
  5
FA
  330
F4
  100
AcDbEntity
  67
1
  8
0
  100
AcDbBlockEnd
  0
BLOCK
  5
FB
  330
F5
  100
AcDbEntity
  8
0
  100
AcDbBlockBegin
  2
*Paper_Space
  70
0
  71
0
  10
0
  20
0
  30
0
  3
*Paper_Space
  1

  0
ENDBLK
  5
FC
  330
F5
  100
AcDbEntity
  67
1
  8
0
  100
AcDbBlockEnd
  0
BLOCK
  5
65
  330
F6
  100
AcDbEntity
  8
0
  100
AcDbBlockBegin
  2
VDDIM_DEFAULT
  70
0
  71
0
  10
0
  20
0
  30
0
  3
VDDIM_DEFAULT
  1

  0
HATCH
  5
66
  330
F6
  100
AcDbEntity
  8
0
  62
0
  370
-2
  100
AcDbHatch
  10
0
  20
0
  30
0
  210
0
  220
0
  230
-1
  2
SOLID
  70
1
  71
0
  91
1
  92
2
  72
0
  73
1
  93
3
  10
0
  20
0
  10
1
  20
-0.1665
  10
1
  20
0.1665
  97
0
  75
0
  76
1
  98
1
  10
0
  20
0
  0
ENDBLK
  5
FD
  330
F6
  100
AcDbEntity
  8
0
  100
AcDbBlockEnd
  0
BLOCK
  5
68
  330
F7
  100
AcDbEntity
  8
0
  100
AcDbBlockBegin
  2
VDDIM_NONE
  70
0
  71
0
  10
0
  20
0
  30
0
  3
VDDIM_NONE
  1

  0
ENDBLK
  5
FE
  330
F7
  100
AcDbEntity
  8
0
  100
AcDbBlockEnd
  0
ENDSEC
  0
SECTION
  2
ENTITIES
  0
POLYLINE
  5
FF
  330
F4
  100
AcDbEntity
  8
100 4W CUT4 LHPS 7EMB SLOT2 RINGS_DXF_RINGDESIGN_100 4W CUT4  LHPS 7EMB SLOT_SURVEYEXPORT
  62
7
  100
AcDb3dPolyline
  10
0
  20
0
  30
0
  70
8
  0
VERTEX
  5
100
  330

  100
AcDbEntity
  8
100 4W CUT4 LHPS 7EMB SLOT2 RINGS_DXF_RINGDESIGN_100 4W CUT4  LHPS 7EMB SLOT_SURVEYEXPORT
  6
BYLAYER
  62
7
  100
AcDbVertex
  100
AcDb3dPolylineVertex
  10
7109.7164384711732
  20
-23436.802258790278
  30
-1066.4026723073657
  70
32
  0
VERTEX
  5
101
  330

  100
AcDbEntity
  8
100 4W CUT4 LHPS 7EMB SLOT2 RINGS_DXF_RINGDESIGN_100 4W CUT4  LHPS 7EMB SLOT_SURVEYEXPORT
  6
BYLAYER
  62
7
  100
AcDbVertex
  100
AcDb3dPolylineVertex
  10
7093.2923891649261
  20
-23461.085669114229
  30
-1066.3196723355632
  70
32
  0
SEQEND
  5
102
  330

  100
AcDbEntity
  8
100 4W CUT4 LHPS 7EMB SLOT2 RINGS_DXF_RINGDESIGN_100 4W CUT4  LHPS 7EMB SLOT_SURVEYEXPORT
  0
LWPOLYLINE
  5
103
  330
F4
  100
AcDbEntity
  8
100 4W CUT4 LHPS 7EMB SLOT2 RINGS_DXF_RINGDESIGN_100 4W CUT4  LHPS 7EMB SLOT_SURVEYEXPORT
  62
7
  100
AcDbPolyline
  90
2
  43
0
  38
-1066.3631078257235
  10
7104.37240272451
  20
-23450.058410977421
  10
7099.4024207713956
  20
-23446.696970901241
  0
LWPOLYLINE
  5
104
  330
F4
  100
AcDbEntity
  8
100 4W CUT4 LHPS 7EMB SLOT2 RINGS_DXF_RINGDESIGN_100 4W CUT4  LHPS 7EMB SLOT_SURVEYEXPORT
  62
1
  100
AcDbPolyline
  90
2
  43
0
  38
-1066.3631078257235
  10
7106.1539659648824
  20
-23447.424320542272
  10
7101.1839840117682
  20
-23444.062880466092
  0
POLYLINE
  5
105
  330
F4
  100
AcDbEntity
  8
100 4W CUT4 LHPS 7EMB SLOT2 RINGS_DXF_RINGDESIGN_100 4W CUT4  LHPS 7EMB SLOT_SURVEYEXPORT_S8A
  62
7
  100
AcDb3dPolyline
  10
0
  20
0
  30
0
  70
8
  0
VERTEX
  5
106
  330

  100
AcDbEntity
  8
100 4W CUT4 LHPS 7EMB SLOT2 RINGS_DXF_RINGDESIGN_100 4W CUT4  LHPS 7EMB SLOT_SURVEYEXPORT_S8A
  6
BYLAYER
  62
7
  100
AcDbVertex
  100
AcDb3dPolylineVertex
  10
7103.2239342524254
  20
-23449.651470047593
  30
-1063.4485109235047
  70
32
  0
VERTEX
  5
107
  330

  100
AcDbEntity
  8
100 4W CUT4 LHPS 7EMB SLOT2 RINGS_DXF_RINGDESIGN_100 4W CUT4  LHPS 7EMB SLOT_SURVEYEXPORT_S8A
  6
BYLAYER
  62
7
  100
AcDbVertex
  100
AcDb3dPolylineVertex
  10
7103.7733787416391
  20
-23451.734563569316
  30
-1049.9602937861039
  70
32
  0
SEQEND
  5
108
  330

  100
AcDbEntity
  8
100 4W CUT4 LHPS 7EMB SLOT2 RINGS_DXF_RINGDESIGN_100 4W CUT4  LHPS 7EMB SLOT_SURVEYEXPORT_S8A
  0
POLYLINE
  5
109
  330
F4
  100
AcDbEntity
  8
100 4W CUT4 LHPS 7EMB SLOT2 RINGS_DXF_RINGDESIGN_100 4W CUT4  LHPS 7EMB SLOT_SURVEYEXPORT_S8A
  62
7
  100
AcDb3dPolyline
  10
0
  20
0
  30
0
  70
8
  0
VERTEX
  5
10A
  330

  100
AcDbEntity
  8
100 4W CUT4 LHPS 7EMB SLOT2 RINGS_DXF_RINGDESIGN_100 4W CUT4  LHPS 7EMB SLOT_SURVEYEXPORT_S8A
  6
BYLAYER
  62
7
  100
AcDbVertex
  100
AcDb3dPolylineVertex
  10
7102.6595336313294
  20
-23449.355706228933
  30
-1062.7709961615051
  70
32
  0
VERTEX
  5
10B
  330

  100
AcDbEntity
  8
100 4W CUT4 LHPS 7EMB SLOT2 RINGS_DXF_RINGDESIGN_100 4W CUT4  LHPS 7EMB SLOT_SURVEYEXPORT_S8A
  6
BYLAYER
  62
7
  100
AcDbVertex
  100
AcDb3dPolylineVertex
  10
7102.5011626724008
  20
-23450.863677059147
  30
-1050.042453745237
  70
32
  0
SEQEND
  5
10C
  330

  100
AcDbEntity
  8
100 4W CUT4 LHPS 7EMB SLOT2 RINGS_DXF_RINGDESIGN_100 4W CUT4  LHPS 7EMB SLOT_SURVEYEXPORT_S8A
  0
POLYLINE
  5
10D
  330
F4
  100
AcDbEntity
  8
100 4W CUT4 LHPS 7EMB SLOT2 RINGS_DXF_RINGDESIGN_100 4W CUT4  LHPS 7EMB SLOT_SURVEYEXPORT_S8A
  62
7
  100
AcDb3dPolyline
  10
0
  20
0
  30
0
  70
8
  0
VERTEX
  5
10E
  330

  100
AcDbEntity
  8
100 4W CUT4 LHPS 7EMB SLOT2 RINGS_DXF_RINGDESIGN_100 4W CUT4  LHPS 7EMB SLOT_SURVEYEXPORT_S8A
  6
BYLAYER
  62
7
  100
AcDbVertex
  100
AcDb3dPolylineVertex
  10
7101.8953632511884
  20
-23448.906612969484
  30
-1062.2370380622679
  70
32
  0
VERTEX
  5
10F
  330

  100
AcDbEntity
  8
100 4W CUT4 LHPS 7EMB SLOT2 RINGS_DXF_RINGDESIGN_100 4W CUT4  LHPS 7EMB SLOT_SURVEYEXPORT_S8A
  6
BYLAYER
  62
7
  100
AcDbVertex
  100
AcDb3dPolylineVertex
  10
7101.29872319716
  20
-23450.094115778313
  30
-1049.6979979721459
  70
32
  0
SEQEND
  5
110
  330

  100
AcDbEntity
  8
100 4W CUT4 LHPS 7EMB SLOT2 RINGS_DXF_RINGDESIGN_100 4W CUT4  LHPS 7EMB SLOT_SURVEYEXPORT_S8A
  0
POLYLINE
  5
111
  330
F4
  100
AcDbEntity
  8
100 4W CUT4 LHPS 7EMB SLOT2 RINGS_DXF_RINGDESIGN_100 4W CUT4  LHPS 7EMB SLOT_SURVEYEXPORT_S8A
  62
7
  100
AcDb3dPolyline
  10
0
  20
0
  30
0
  70
8
  0
VERTEX
  5
112
  330

  100
AcDbEntity
  8
100 4W CUT4 LHPS 7EMB SLOT2 RINGS_DXF_RINGDESIGN_100 4W CUT4  LHPS 7EMB SLOT_SURVEYEXPORT_S8A
  6
BYLAYER
  62
7
  100
AcDbVertex
  100
AcDb3dPolylineVertex
  10
7101.3249672857746
  20
-23448.506584547595
  30
-1062.3492793052715
  70
32
  0
VERTEX
  5
113
  330

  100
AcDbEntity
  8
100 4W CUT4 LHPS 7EMB SLOT2 RINGS_DXF_RINGDESIGN_100 4W CUT4  LHPS 7EMB SLOT_SURVEYEXPORT_S8A
  6
BYLAYER
  62
7
  100
AcDbVertex
  100
AcDb3dPolylineVertex
  10
7100.1827843374131
  20
-23449.335723111304
  30
-1049.7265985681963
  70
32
  0
SEQEND
  5
114
  330

  100
AcDbEntity
  8
100 4W CUT4 LHPS 7EMB SLOT2 RINGS_DXF_RINGDESIGN_100 4W CUT4  LHPS 7EMB SLOT_SURVEYEXPORT_S8A
  0
POLYLINE
  5
115
  330
F4
  100
AcDbEntity
  8
100 4W CUT4 LHPS 7EMB SLOT2 RINGS_DXF_RINGDESIGN_100 4W CUT4  LHPS 7EMB SLOT_SURVEYEXPORT_S8A
  62
7
  100
AcDb3dPolyline
  10
0
  20
0
  30
0
  70
8
  0
VERTEX
  5
116
  330

  100
AcDbEntity
  8
100 4W CUT4 LHPS 7EMB SLOT2 RINGS_DXF_RINGDESIGN_100 4W CUT4  LHPS 7EMB SLOT_SURVEYEXPORT_S8A
  6
BYLAYER
  62
7
  100
AcDbVertex
  100
AcDb3dPolylineVertex
  10
7100.6137297070636
  20
-23447.974842952764
  30
-1062.7488249382814
  70
32
  0
VERTEX
  5
117
  330

  100
AcDbEntity
  8
100 4W CUT4 LHPS 7EMB SLOT2 RINGS_DXF_RINGDESIGN_100 4W CUT4  LHPS 7EMB SLOT_SURVEYEXPORT_S8A
  6
BYLAYER
  62
7
  100
AcDbVertex
  100
AcDb3dPolylineVertex
  10
7098.9812331930416
  20
-23448.489530995008
  30
-1049.9908083091248
  70
32
  0
SEQEND
  5
118
  330

  100
AcDbEntity
  8
100 4W CUT4 LHPS 7EMB SLOT2 RINGS_DXF_RINGDESIGN_100 4W CUT4  LHPS 7EMB SLOT_SURVEYEXPORT_S8A
  0
LWPOLYLINE
  5
119
  330
F4
  100
AcDbEntity
  8
100 4W CUT4 LHPS 7EMB SLOT2 RINGS_DXF_RINGDESIGN_100 4W CUT4  LHPS 7EMB SLOT_SURVEYEXPORT
  62
7
  100
AcDbPolyline
  90
2
  43
0
  38
-1066.3639571882234
  10
7104.5404747283173
  20
-23449.809911879762
  10
7099.5704927752031
  20
-23446.448471803589
  0
LWPOLYLINE
  5
11A
  330
F4
  100
AcDbEntity
  8
100 4W CUT4 LHPS 7EMB SLOT2 RINGS_DXF_RINGDESIGN_100 4W CUT4  LHPS 7EMB SLOT_SURVEYEXPORT
  62
1
  100
AcDbPolyline
  90
2
  43
0
  38
-1066.3639571882234
  10
7106.32203796869
  20
-23447.175821444613
  10
7101.3520560155757
  20
-23443.81438136844
  0
POLYLINE
  5
11B
  330
F4
  100
AcDbEntity
  8
100 4W CUT4 LHPS 7EMB SLOT2 RINGS_DXF_RINGDESIGN_100 4W CUT4  LHPS 7EMB SLOT_SURVEYEXPORT_S8B
  62
7
  100
AcDb3dPolyline
  10
0
  20
0
  30
0
  70
8
  0
VERTEX
  5
11C
  330

  100
AcDbEntity
  8
100 4W CUT4 LHPS 7EMB SLOT2 RINGS_DXF_RINGDESIGN_100 4W CUT4  LHPS 7EMB SLOT_SURVEYEXPORT_S8B
  6
BYLAYER
  62
7
  100
AcDbVertex
  100
AcDb3dPolylineVertex
  10
7103.4984653245419
  20
-23449.230985409253
  30
-1063.379114318288
  70
32
  0
VERTEX
  5
11D
  330

  100
AcDbEntity
  8
100 4W CUT4 LHPS 7EMB SLOT2 RINGS_DXF_RINGDESIGN_100 4W CUT4  LHPS 7EMB SLOT_SURVEYEXPORT_S8B
  6
BYLAYER
  62
7
  100
AcDbVertex
  100
AcDb3dPolylineVertex
  10
7104.4978246427
  20
-23450.474354334438
  30
-1049.9189553273754
  70
32
  0
SEQEND
  5
11E
  330

  100
AcDbEntity
  8
100 4W CUT4 LHPS 7EMB SLOT2 RINGS_DXF_RINGDESIGN_100 4W CUT4  LHPS 7EMB SLOT_SURVEYEXPORT_S8B
  0
POLYLINE
  5
11F
  330
F4
  100
AcDbEntity
  8
100 4W CUT4 LHPS 7EMB SLOT2 RINGS_DXF_RINGDESIGN_100 4W CUT4  LHPS 7EMB SLOT_SURVEYEXPORT_S8B
  62
7
  100
AcDb3dPolyline
  10
0
  20
0
  30
0
  70
8
  0
VERTEX
  5
120
  330

  100
AcDbEntity
  8
100 4W CUT4 LHPS 7EMB SLOT2 RINGS_DXF_RINGDESIGN_100 4W CUT4  LHPS 7EMB SLOT_SURVEYEXPORT_S8B
  6
BYLAYER
  62
7
  100
AcDbVertex
  100
AcDb3dPolylineVertex
  10
7102.9594201627133
  20
-23448.892946006086
  30
-1062.7495067878167
  70
32
  0
VERTEX
  5
121
  330

  100
AcDbEntity
  8
100 4W CUT4 LHPS 7EMB SLOT2 RINGS_DXF_RINGDESIGN_100 4W CUT4  LHPS 7EMB SLOT_SURVEYEXPORT_S8B
  6
BYLAYER
  62
7
  100
AcDbVertex
  100
AcDb3dPolylineVertex
  10
7103.2625103503042
  20
-23449.639195331751
  30
-1049.9107949602676
  70
32
  0
SEQEND
  5
122
  330

  100
AcDbEntity
  8
100 4W CUT4 LHPS 7EMB SLOT2 RINGS_DXF_RINGDESIGN_100 4W CUT4  LHPS 7EMB SLOT_SURVEYEXPORT_S8B
  0
POLYLINE
  5
123
  330
F4
  100
AcDbEntity
  8
100 4W CUT4 LHPS 7EMB SLOT2 RINGS_DXF_RINGDESIGN_100 4W CUT4  LHPS 7EMB SLOT_SURVEYEXPORT_S8B
  62
7
  100
AcDb3dPolyline
  10
0
  20
0
  30
0
  70
8
  0
VERTEX
  5
124
  330

  100
AcDbEntity
  8
100 4W CUT4 LHPS 7EMB SLOT2 RINGS_DXF_RINGDESIGN_100 4W CUT4  LHPS 7EMB SLOT_SURVEYEXPORT_S8B
  6
BYLAYER
  62
7
  100
AcDbVertex
  100
AcDb3dPolylineVertex
  10
7102.383514017848
  20
-23448.519670249108
  30
-1062.3643481323763
  70
32
  0
VERTEX
  5
125
  330

  100
AcDbEntity
  8
100 4W CUT4 LHPS 7EMB SLOT2 RINGS_DXF_RINGDESIGN_100 4W CUT4  LHPS 7EMB SLOT_SURVEYEXPORT_S8B
  6
BYLAYER
  62
7
  100
AcDbVertex
  100
AcDb3dPolylineVertex
  10
7102.1110238211495
  20
-23448.865894024162
  30
-1049.7802163980343
  70
32
  0
SEQEND
  5
126
  330

  100
AcDbEntity
  8
100 4W CUT4 LHPS 7EMB SLOT2 RINGS_DXF_RINGDESIGN_100 4W CUT4  LHPS 7EMB SLOT_SURVEYEXPORT_S8B
  0
POLYLINE
  5
127
  330
F4
  100
AcDbEntity
  8
100 4W CUT4 LHPS 7EMB SLOT2 RINGS_DXF_RINGDESIGN_100 4W CUT4  LHPS 7EMB SLOT_SURVEYEXPORT_S8B
  62
7
  100
AcDb3dPolyline
  10
0
  20
0
  30
0
  70
8
  0
VERTEX
  5
128
  330

  100
AcDbEntity
  8
100 4W CUT4 LHPS 7EMB SLOT2 RINGS_DXF_RINGDESIGN_100 4W CUT4  LHPS 7EMB SLOT_SURVEYEXPORT_S8B
  6
BYLAYER
  62
7
  100
AcDbVertex
  100
AcDb3dPolylineVertex
  10
7101.8341943529958
  20
-23448.146745608028
  30
-1062.397392459611
  70
32
  0
VERTEX
  5
129
  330

  100
AcDbEntity
  8
100 4W CUT4 LHPS 7EMB SLOT2 RINGS_DXF_RINGDESIGN_100 4W CUT4  LHPS 7EMB SLOT_SURVEYEXPORT_S8B
  6
BYLAYER
  62
7
  100
AcDbVertex
  100
AcDb3dPolylineVertex
  10
7101.0983673592145
  20
-23448.184200329993
  30
-1049.7039549200736
  70
32
  0
SEQEND
  5
12A
  330

  100
AcDbEntity
  8
100 4W CUT4 LHPS 7EMB SLOT2 RINGS_DXF_RINGDESIGN_100 4W CUT4  LHPS 7EMB SLOT_SURVEYEXPORT_S8B
  0
POLYLINE
  5
12B
  330
F4
  100
AcDbEntity
  8
100 4W CUT4 LHPS 7EMB SLOT2 RINGS_DXF_RINGDESIGN_100 4W CUT4  LHPS 7EMB SLOT_SURVEYEXPORT_S8B
  62
7
  100
AcDb3dPolyline
  10
0
  20
0
  30
0
  70
8
  0
VERTEX
  5
12C
  330

  100
AcDbEntity
  8
100 4W CUT4 LHPS 7EMB SLOT2 RINGS_DXF_RINGDESIGN_100 4W CUT4  LHPS 7EMB SLOT_SURVEYEXPORT_S8B
  6
BYLAYER
  62
7
  100
AcDbVertex
  100
AcDb3dPolylineVertex
  10
7100.9610858340029
  20
-23447.536653314306
  30
-1062.861517984918
  70
32
  0
VERTEX
  5
12D
  330

  100
AcDbEntity
  8
100 4W CUT4 LHPS 7EMB SLOT2 RINGS_DXF_RINGDESIGN_100 4W CUT4  LHPS 7EMB SLOT_SURVEYEXPORT_S8B
  6
BYLAYER
  62
7
  100
AcDbVertex
  100
AcDb3dPolylineVertex
  10
7099.9217235966707
  20
-23447.3824836237
  30
-1049.8437955907746
  70
32
  0
SEQEND
  5
12E
  330

  100
AcDbEntity
  8
100 4W CUT4 LHPS 7EMB SLOT2 RINGS_DXF_RINGDESIGN_100 4W CUT4  LHPS 7EMB SLOT_SURVEYEXPORT_S8B
  0
LWPOLYLINE
  5
12F
  330
F4
  100
AcDbEntity
  8
100 4W CUT4 LHPS 7EMB SLOT2 RINGS_DXF_RINGDESIGN_100 4W CUT4  LHPS 7EMB SLOT_SURVEYEXPORT
  62
7
  100
AcDbPolyline
  90
2
  43
0
  38
-1066.365655913223
  10
7104.8766187359352
  20
-23449.312913684451
  10
7099.9066367828209
  20
-23445.951473608278
  0
LWPOLYLINE
  5
130
  330
F4
  100
AcDbEntity
  8
100 4W CUT4 LHPS 7EMB SLOT2 RINGS_DXF_RINGDESIGN_100 4W CUT4  LHPS 7EMB SLOT_SURVEYEXPORT
  62
1
  100
AcDbPolyline
  90
2
  43
0
  38
-1066.365655913223
  10
7106.6581819763078
  20
-23446.6788232493
  10
7101.6882000231935
  20
-23443.317383173129
  0
POLYLINE
  5
131
  330
F4
  100
AcDbEntity
  8
100 4W CUT4 LHPS 7EMB SLOT2 RINGS_DXF_RINGDESIGN_100 4W CUT4  LHPS 7EMB SLOT_SURVEYEXPORT_S9
  62
7
  100
AcDb3dPolyline
  10
0
  20
0
  30
0
  70
8
  0
VERTEX
  5
132
  330

  100
AcDbEntity
  8
100 4W CUT4 LHPS 7EMB SLOT2 RINGS_DXF_RINGDESIGN_100 4W CUT4  LHPS 7EMB SLOT_SURVEYEXPORT_S9
  6
BYLAYER
  62
7
  100
AcDbVertex
  100
AcDb3dPolylineVertex
  10
7103.8732585558009
  20
-23448.634292483781
  30
-1063.1994287326793
  70
32
  0
VERTEX
  5
133
  330

  100
AcDbEntity
  8
100 4W CUT4 LHPS 7EMB SLOT2 RINGS_DXF_RINGDESIGN_100 4W CUT4  LHPS 7EMB SLOT_SURVEYEXPORT_S9
  6
BYLAYER
  62
7
  100
AcDbVertex
  100
AcDb3dPolylineVertex
  10
7105.2538180058509
  20
-23449.568031862858
  30
-1049.8372735530374
  70
32
  0
SEQEND
  5
134
  330

  100
AcDbEntity
  8
100 4W CUT4 LHPS 7EMB SLOT2 RINGS_DXF_RINGDESIGN_100 4W CUT4  LHPS 7EMB SLOT_SURVEYEXPORT_S9
  0
POLYLINE
  5
135
  330
F4
  100
AcDbEntity
  8
100 4W CUT4 LHPS 7EMB SLOT2 RINGS_DXF_RINGDESIGN_100 4W CUT4  LHPS 7EMB SLOT_SURVEYEXPORT_S9
  62
7
  100
AcDb3dPolyline
  10
0
  20
0
  30
0
  70
8
  0
VERTEX
  5
136
  330

  100
AcDbEntity
  8
100 4W CUT4 LHPS 7EMB SLOT2 RINGS_DXF_RINGDESIGN_100 4W CUT4  LHPS 7EMB SLOT_SURVEYEXPORT_S9
  6
BYLAYER
  62
7
  100
AcDbVertex
  100
AcDb3dPolylineVertex
  10
7103.3142822262007
  20
-23448.256229655046
  30
-1062.7979268079478
  70
32
  0
VERTEX
  5
137
  330

  100
AcDbEntity
  8
100 4W CUT4 LHPS 7EMB SLOT2 RINGS_DXF_RINGDESIGN_100 4W CUT4  LHPS 7EMB SLOT_SURVEYEXPORT_S9
  6
BYLAYER
  62
7
  100
AcDbVertex
  100
AcDb3dPolylineVertex
  10
7103.9506154494957
  20
-23448.686612706486
  30
-1049.7657604404421
  70
32
  0
SEQEND
  5
138
  330

  100
AcDbEntity
  8
100 4W CUT4 LHPS 7EMB SLOT2 RINGS_DXF_RINGDESIGN_100 4W CUT4  LHPS 7EMB SLOT_SURVEYEXPORT_S9
  0
POLYLINE
  5
139
  330
F4
  100
AcDbEntity
  8
100 4W CUT4 LHPS 7EMB SLOT2 RINGS_DXF_RINGDESIGN_100 4W CUT4  LHPS 7EMB SLOT_SURVEYEXPORT_S9
  62
7
  100
AcDb3dPolyline
  10
0
  20
0
  30
0
  70
8
  0
VERTEX
  5
13A
  330

  100
AcDbEntity
  8
100 4W CUT4 LHPS 7EMB SLOT2 RINGS_DXF_RINGDESIGN_100 4W CUT4  LHPS 7EMB SLOT_SURVEYEXPORT_S9
  6
BYLAYER
  62
7
  100
AcDbVertex
  100
AcDb3dPolylineVertex
  10
7102.7010162159568
  20
-23447.84144807966
  30
-1062.5131148510025
  70
32
  0
VERTEX
  5
13B
  330

  100
AcDbEntity
  8
100 4W CUT4 LHPS 7EMB SLOT2 RINGS_DXF_RINGDESIGN_100 4W CUT4  LHPS 7EMB SLOT_SURVEYEXPORT_S9
  6
BYLAYER
  62
7
  100
AcDbVertex
  100
AcDb3dPolylineVertex
  10
7102.7955040927181
  20
-23447.905354817882
  30
-1049.7657604404424
  70
32
  0
SEQEND
  5
13C
  330

  100
AcDbEntity
  8
100 4W CUT4 LHPS 7EMB SLOT2 RINGS_DXF_RINGDESIGN_100 4W CUT4  LHPS 7EMB SLOT_SURVEYEXPORT_S9
  0
POLYLINE
  5
13D
  330
F4
  100
AcDbEntity
  8
100 4W CUT4 LHPS 7EMB SLOT2 RINGS_DXF_RINGDESIGN_100 4W CUT4  LHPS 7EMB SLOT_SURVEYEXPORT_S9
  62
7
  100
AcDb3dPolyline
  10
0
  20
0
  30
0
  70
8
  0
VERTEX
  5
13E
  330

  100
AcDbEntity
  8
100 4W CUT4 LHPS 7EMB SLOT2 RINGS_DXF_RINGDESIGN_100 4W CUT4  LHPS 7EMB SLOT_SURVEYEXPORT_S9
  6
BYLAYER
  62
7
  100
AcDbVertex
  100
AcDb3dPolylineVertex
  10
7102.1182701364578
  20
-23447.4473086151
  30
-1062.6504167644973
  70
32
  0
VERTEX
  5
13F
  330

  100
AcDbEntity
  8
100 4W CUT4 LHPS 7EMB SLOT2 RINGS_DXF_RINGDESIGN_100 4W CUT4  LHPS 7EMB SLOT_SURVEYEXPORT_S9
  6
BYLAYER
  62
7
  100
AcDbVertex
  100
AcDb3dPolylineVertex
  10
7101.6700109758594
  20
-23447.144129182827
  30
-1049.8730301093346
  70
32
  0
SEQEND
  5
140
  330

  100
AcDbEntity
  8
100 4W CUT4 LHPS 7EMB SLOT2 RINGS_DXF_RINGDESIGN_100 4W CUT4  LHPS 7EMB SLOT_SURVEYEXPORT_S9
  0
POLYLINE
  5
141
  330
F4
  100
AcDbEntity
  8
100 4W CUT4 LHPS 7EMB SLOT2 RINGS_DXF_RINGDESIGN_100 4W CUT4  LHPS 7EMB SLOT_SURVEYEXPORT_S9
  62
7
  100
AcDb3dPolyline
  10
0
  20
0
  30
0
  70
8
  0
VERTEX
  5
142
  330

  100
AcDbEntity
  8
100 4W CUT4 LHPS 7EMB SLOT2 RINGS_DXF_RINGDESIGN_100 4W CUT4  LHPS 7EMB SLOT_SURVEYEXPORT_S9
  6
BYLAYER
  62
7
  100
AcDbVertex
  100
AcDb3dPolylineVertex
  10
7101.4353828402718
  20
-23446.985438784068
  30
-1062.9681121304723
  70
32
  0
VERTEX
  5
143
  330

  100
AcDbEntity
  8
100 4W CUT4 LHPS 7EMB SLOT2 RINGS_DXF_RINGDESIGN_100 4W CUT4  LHPS 7EMB SLOT_SURVEYEXPORT_S9
  6
BYLAYER
  62
7
  100
AcDbVertex
  100
AcDb3dPolylineVertex
  10
7100.5741360989205
  20
-23446.402935801329
  30
-1049.8730301093346
  70
32
  0
SEQEND
  5
144
  330

  100
AcDbEntity
  8
100 4W CUT4 LHPS 7EMB SLOT2 RINGS_DXF_RINGDESIGN_100 4W CUT4  LHPS 7EMB SLOT_SURVEYEXPORT_S9
  0
LWPOLYLINE
  5
145
  330
F4
  100
AcDbEntity
  8
100 4W CUT4 LHPS 7EMB SLOT2 RINGS_DXF_RINGDESIGN_100 4W CUT4  LHPS 7EMB SLOT_SURVEYEXPORT
  62
7
  100
AcDbPolyline
  90
2
  43
0
  38
-1066.3699027257226
  10
7105.7169787549774
  20
-23448.070418196174
  10
7100.7469968018631
  20
-23444.70897812
  0
LWPOLYLINE
  5
146
  330
F4
  100
AcDbEntity
  8
100 4W CUT4 LHPS 7EMB SLOT2 RINGS_DXF_RINGDESIGN_100 4W CUT4  LHPS 7EMB SLOT_SURVEYEXPORT
  62
1
  100
AcDbPolyline
  90
2
  43
0
  38
-1066.3699027257226
  10
7107.49854199535
  20
-23445.436327761025
  10
7102.5285600422358
  20
-23442.074887684852
  0
POLYLINE
  5
147
  330
F4
  100
AcDbEntity
  8
100 4W CUT4 LHPS 7EMB SLOT2 RINGS_DXF_RINGDESIGN_100 4W CUT4  LHPS 7EMB SLOT_SURVEYEXPORT_S10
  62
7
  100
AcDb3dPolyline
  10
0
  20
0
  30
0
  70
8
  0
VERTEX
  5
148
  330

  100
AcDbEntity
  8
100 4W CUT4 LHPS 7EMB SLOT2 RINGS_DXF_RINGDESIGN_100 4W CUT4  LHPS 7EMB SLOT_SURVEYEXPORT_S10
  6
BYLAYER
  62
7
  100
AcDbVertex
  100
AcDb3dPolylineVertex
  10
7104.721514655087
  20
-23447.397137497916
  30
-1063.4057885828136
  70
32
  0
VERTEX
  5
149
  330

  100
AcDbEntity
  8
100 4W CUT4 LHPS 7EMB SLOT2 RINGS_DXF_RINGDESIGN_100 4W CUT4  LHPS 7EMB SLOT_SURVEYEXPORT_S10
  6
BYLAYER
  62
7
  100
AcDbVertex
  100
AcDb3dPolylineVertex
  10
7105.8599358951
  20
-23448.167107050289
  30
-1049.7142738788605
  70
32
  0
SEQEND
  5
14A
  330

  100
AcDbEntity
  8
100 4W CUT4 LHPS 7EMB SLOT2 RINGS_DXF_RINGDESIGN_100 4W CUT4  LHPS 7EMB SLOT_SURVEYEXPORT_S10
  0
POLYLINE
  5
14B
  330
F4
  100
AcDbEntity
  8
100 4W CUT4 LHPS 7EMB SLOT2 RINGS_DXF_RINGDESIGN_100 4W CUT4  LHPS 7EMB SLOT_SURVEYEXPORT_S10
  62
7
  100
AcDb3dPolyline
  10
0
  20
0
  30
0
  70
8
  0
VERTEX
  5
14C
  330

  100
AcDbEntity
  8
100 4W CUT4 LHPS 7EMB SLOT2 RINGS_DXF_RINGDESIGN_100 4W CUT4  LHPS 7EMB SLOT_SURVEYEXPORT_S10
  6
BYLAYER
  62
7
  100
AcDbVertex
  100
AcDb3dPolylineVertex
  10
7104.320313980139
  20
-23447.125786004064
  30
-1062.6013817686323
  70
32
  0
VERTEX
  5
14D
  330

  100
AcDbEntity
  8
100 4W CUT4 LHPS 7EMB SLOT2 RINGS_DXF_RINGDESIGN_100 4W CUT4  LHPS 7EMB SLOT_SURVEYEXPORT_S10
  6
BYLAYER
  62
7
  100
AcDbVertex
  100
AcDb3dPolylineVertex
  10
7104.640012005917
  20
-23447.342013299512
  30
-1049.8060023951443
  70
32
  0
SEQEND
  5
14E
  330

  100
AcDbEntity
  8
100 4W CUT4 LHPS 7EMB SLOT2 RINGS_DXF_RINGDESIGN_100 4W CUT4  LHPS 7EMB SLOT_SURVEYEXPORT_S10
  0
POLYLINE
  5
14F
  330
F4
  100
AcDbEntity
  8
100 4W CUT4 LHPS 7EMB SLOT2 RINGS_DXF_RINGDESIGN_100 4W CUT4  LHPS 7EMB SLOT_SURVEYEXPORT_S10
  62
7
  100
AcDb3dPolyline
  10
0
  20
0
  30
0
  70
8
  0
VERTEX
  5
150
  330

  100
AcDbEntity
  8
100 4W CUT4 LHPS 7EMB SLOT2 RINGS_DXF_RINGDESIGN_100 4W CUT4  LHPS 7EMB SLOT_SURVEYEXPORT_S10
  6
BYLAYER
  62
7
  100
AcDbVertex
  100
AcDb3dPolylineVertex
  10
7103.6359418215725
  20
-23446.662911888521
  30
-1062.7143557486172
  70
32
  0
VERTEX
  5
151
  330

  100
AcDbEntity
  8
100 4W CUT4 LHPS 7EMB SLOT2 RINGS_DXF_RINGDESIGN_100 4W CUT4  LHPS 7EMB SLOT_SURVEYEXPORT_S10
  6
BYLAYER
  62
7
  100
AcDbVertex
  100
AcDb3dPolylineVertex
  10
7103.5996968434474
  20
-23446.638397650207
  30
-1049.71438064122
  70
32
  0
SEQEND
  5
152
  330

  100
AcDbEntity
  8
100 4W CUT4 LHPS 7EMB SLOT2 RINGS_DXF_RINGDESIGN_100 4W CUT4  LHPS 7EMB SLOT_SURVEYEXPORT_S10
  0
POLYLINE
  5
153
  330
F4
  100
AcDbEntity
  8
100 4W CUT4 LHPS 7EMB SLOT2 RINGS_DXF_RINGDESIGN_100 4W CUT4  LHPS 7EMB SLOT_SURVEYEXPORT_S10
  62
7
  100
AcDb3dPolyline
  10
0
  20
0
  30
0
  70
8
  0
VERTEX
  5
154
  330

  100
AcDbEntity
  8
100 4W CUT4 LHPS 7EMB SLOT2 RINGS_DXF_RINGDESIGN_100 4W CUT4  LHPS 7EMB SLOT_SURVEYEXPORT_S10
  6
BYLAYER
  62
7
  100
AcDbVertex
  100
AcDb3dPolylineVertex
  10
7103.0844817392826
  20
-23446.289932662741
  30
-1062.7143557486172
  70
32
  0
VERTEX
  5
155
  330

  100
AcDbEntity
  8
100 4W CUT4 LHPS 7EMB SLOT2 RINGS_DXF_RINGDESIGN_100 4W CUT4  LHPS 7EMB SLOT_SURVEYEXPORT_S10
  6
BYLAYER
  62
7
  100
AcDbVertex
  100
AcDb3dPolylineVertex
  10
7102.5613873576312
  20
-23445.936138537381
  30
-1049.7264748878822
  70
32
  0
SEQEND
  5
156
  330

  100
AcDbEntity
  8
100 4W CUT4 LHPS 7EMB SLOT2 RINGS_DXF_RINGDESIGN_100 4W CUT4  LHPS 7EMB SLOT_SURVEYEXPORT_S10
  0
POLYLINE
  5
157
  330
F4
  100
AcDbEntity
  8
100 4W CUT4 LHPS 7EMB SLOT2 RINGS_DXF_RINGDESIGN_100 4W CUT4  LHPS 7EMB SLOT_SURVEYEXPORT_S10
  62
7
  100
AcDb3dPolyline
  10
0
  20
0
  30
0
  70
8
  0
VERTEX
  5
158
  330

  100
AcDbEntity
  8
100 4W CUT4 LHPS 7EMB SLOT2 RINGS_DXF_RINGDESIGN_100 4W CUT4  LHPS 7EMB SLOT_SURVEYEXPORT_S10
  6
BYLAYER
  62
7
  100
AcDbVertex
  100
AcDb3dPolylineVertex
  10
7102.2371230402932
  20
-23445.716822837287
  30
-1063.0095989266638
  70
32
  0
VERTEX
  5
159
  330

  100
AcDbEntity
  8
100 4W CUT4 LHPS 7EMB SLOT2 RINGS_DXF_RINGDESIGN_100 4W CUT4  LHPS 7EMB SLOT_SURVEYEXPORT_S10
  6
BYLAYER
  62
7
  100
AcDbVertex
  100
AcDb3dPolylineVertex
  10
7101.5934844584117
  20
-23445.28149881717
  30
-1049.9958060929594
  70
32
  0
SEQEND
  5
15A
  330

  100
AcDbEntity
  8
100 4W CUT4 LHPS 7EMB SLOT2 RINGS_DXF_RINGDESIGN_100 4W CUT4  LHPS 7EMB SLOT_SURVEYEXPORT_S10
  0
LWPOLYLINE
  5
15B
  330
F4
  100
AcDbEntity
  8
100 4W CUT4 LHPS 7EMB SLOT2 RINGS_DXF_RINGDESIGN_100 4W CUT4  LHPS 7EMB SLOT_SURVEYEXPORT
  62
7
  100
AcDbPolyline
  90
2
  43
0
  38
-1066.3741495382219
  10
7106.5573387740205
  20
-23446.827922707897
  10
7101.5873568209063
  20
-23443.466482631724
  0
LWPOLYLINE
  5
15C
  330
F4
  100
AcDbEntity
  8
100 4W CUT4 LHPS 7EMB SLOT2 RINGS_DXF_RINGDESIGN_100 4W CUT4  LHPS 7EMB SLOT_SURVEYEXPORT
  62
1
  100
AcDbPolyline
  90
2
  43
0
  38
-1066.3741495382219
  10
7108.3389020143932
  20
-23444.193832272747
  10
7103.3689200612789
  20
-23440.832392196575
  0
POLYLINE
  5
15D
  330
F4
  100
AcDbEntity
  8
100 4W CUT4 LHPS 7EMB SLOT2 RINGS_DXF_RINGDESIGN_100 4W CUT4  LHPS 7EMB SLOT_SURVEYEXPORT_S11
  62
7
  100
AcDb3dPolyline
  10
0
  20
0
  30
0
  70
8
  0
VERTEX
  5
15E
  330

  100
AcDbEntity
  8
100 4W CUT4 LHPS 7EMB SLOT2 RINGS_DXF_RINGDESIGN_100 4W CUT4  LHPS 7EMB SLOT_SURVEYEXPORT_S11
  6
BYLAYER
  62
7
  100
AcDbVertex
  100
AcDb3dPolylineVertex
  10
7105.7370221898436
  20
-23446.273102777519
  30
-1063.1576076034762
  70
32
  0
VERTEX
  5
15F
  330

  100
AcDbEntity
  8
100 4W CUT4 LHPS 7EMB SLOT2 RINGS_DXF_RINGDESIGN_100 4W CUT4  LHPS 7EMB SLOT_SURVEYEXPORT_S11
  6
BYLAYER
  62
7
  100
AcDbVertex
  100
AcDb3dPolylineVertex
  10
7106.7128990570427
  20
-23446.933135679403
  30
-1049.8066951658323
  70
32
  0
SEQEND
  5
160
  330

  100
AcDbEntity
  8
100 4W CUT4 LHPS 7EMB SLOT2 RINGS_DXF_RINGDESIGN_100 4W CUT4  LHPS 7EMB SLOT_SURVEYEXPORT_S11
  0
POLYLINE
  5
161
  330
F4
  100
AcDbEntity
  8
100 4W CUT4 LHPS 7EMB SLOT2 RINGS_DXF_RINGDESIGN_100 4W CUT4  LHPS 7EMB SLOT_SURVEYEXPORT_S11
  62
7
  100
AcDb3dPolyline
  10
0
  20
0
  30
0
  70
8
  0
VERTEX
  5
162
  330

  100
AcDbEntity
  8
100 4W CUT4 LHPS 7EMB SLOT2 RINGS_DXF_RINGDESIGN_100 4W CUT4  LHPS 7EMB SLOT_SURVEYEXPORT_S11
  6
BYLAYER
  62
7
  100
AcDbVertex
  100
AcDb3dPolylineVertex
  10
7105.1633434434752
  20
-23445.885095990558
  30
-1062.5024715210634
  70
32
  0
VERTEX
  5
163
  330

  100
AcDbEntity
  8
100 4W CUT4 LHPS 7EMB SLOT2 RINGS_DXF_RINGDESIGN_100 4W CUT4  LHPS 7EMB SLOT_SURVEYEXPORT_S11
  6
BYLAYER
  62
7
  100
AcDbVertex
  100
AcDb3dPolylineVertex
  10
7105.4601824002093
  20
-23446.08586258785
  30
-1049.7582732761825
  70
32
  0
SEQEND
  5
164
  330

  100
AcDbEntity
  8
100 4W CUT4 LHPS 7EMB SLOT2 RINGS_DXF_RINGDESIGN_100 4W CUT4  LHPS 7EMB SLOT_SURVEYEXPORT_S11
  0
POLYLINE
  5
165
  330
F4
  100
AcDbEntity
  8
100 4W CUT4 LHPS 7EMB SLOT2 RINGS_DXF_RINGDESIGN_100 4W CUT4  LHPS 7EMB SLOT_SURVEYEXPORT_S11
  62
7
  100
AcDb3dPolyline
  10
0
  20
0
  30
0
  70
8
  0
VERTEX
  5
166
  330

  100
AcDbEntity
  8
100 4W CUT4 LHPS 7EMB SLOT2 RINGS_DXF_RINGDESIGN_100 4W CUT4  LHPS 7EMB SLOT_SURVEYEXPORT_S11
  6
BYLAYER
  62
7
  100
AcDbVertex
  100
AcDb3dPolylineVertex
  10
7104.477778223024
  20
-23445.421414949338
  30
-1062.2879322641579
  70
32
  0
VERTEX
  5
167
  330

  100
AcDbEntity
  8
100 4W CUT4 LHPS 7EMB SLOT2 RINGS_DXF_RINGDESIGN_100 4W CUT4  LHPS 7EMB SLOT_SURVEYEXPORT_S11
  6
BYLAYER
  62
7
  100
AcDbVertex
  100
AcDb3dPolylineVertex
  10
7104.4527855354445
  20
-23445.404511181383
  30
-1049.758273276183
  70
32
  0
SEQEND
  5
168
  330

  100
AcDbEntity
  8
100 4W CUT4 LHPS 7EMB SLOT2 RINGS_DXF_RINGDESIGN_100 4W CUT4  LHPS 7EMB SLOT_SURVEYEXPORT_S11
  0
POLYLINE
  5
169
  330
F4
  100
AcDbEntity
  8
100 4W CUT4 LHPS 7EMB SLOT2 RINGS_DXF_RINGDESIGN_100 4W CUT4  LHPS 7EMB SLOT_SURVEYEXPORT_S11
  62
7
  100
AcDb3dPolyline
  10
0
  20
0
  30
0
  70
8
  0
VERTEX
  5
16A
  330

  100
AcDbEntity
  8
100 4W CUT4 LHPS 7EMB SLOT2 RINGS_DXF_RINGDESIGN_100 4W CUT4  LHPS 7EMB SLOT_SURVEYEXPORT_S11
  6
BYLAYER
  62
7
  100
AcDbVertex
  100
AcDb3dPolylineVertex
  10
7103.9141981594958
  20
-23445.040238391844
  30
-1062.4119795954136
  70
32
  0
VERTEX
  5
16B
  330

  100
AcDbEntity
  8
100 4W CUT4 LHPS 7EMB SLOT2 RINGS_DXF_RINGDESIGN_100 4W CUT4  LHPS 7EMB SLOT_SURVEYEXPORT_S11
  6
BYLAYER
  62
7
  100
AcDbVertex
  100
AcDb3dPolylineVertex
  10
7103.445388670676
  20
-23444.723159774927
  30
-1049.798812532634
  70
32
  0
SEQEND
  5
16C
  330

  100
AcDbEntity
  8
100 4W CUT4 LHPS 7EMB SLOT2 RINGS_DXF_RINGDESIGN_100 4W CUT4  LHPS 7EMB SLOT_SURVEYEXPORT_S11
  0
POLYLINE
  5
16D
  330
F4
  100
AcDbEntity
  8
100 4W CUT4 LHPS 7EMB SLOT2 RINGS_DXF_RINGDESIGN_100 4W CUT4  LHPS 7EMB SLOT_SURVEYEXPORT_S11
  62
7
  100
AcDb3dPolyline
  10
0
  20
0
  30
0
  70
8
  0
VERTEX
  5
16E
  330

  100
AcDbEntity
  8
100 4W CUT4 LHPS 7EMB SLOT2 RINGS_DXF_RINGDESIGN_100 4W CUT4  LHPS 7EMB SLOT_SURVEYEXPORT_S11
  6
BYLAYER
  62
7
  100
AcDbVertex
  100
AcDb3dPolylineVertex
  10
7103.0422655460789
  20
-23444.450508035057
  30
-1062.6038971608637
  70
32
  0
VERTEX
  5
16F
  330

  100
AcDbEntity
  8
100 4W CUT4 LHPS 7EMB SLOT2 RINGS_DXF_RINGDESIGN_100 4W CUT4  LHPS 7EMB SLOT_SURVEYEXPORT_S11
  6
BYLAYER
  62
7
  100
AcDbVertex
  100
AcDb3dPolylineVertex
  10
7102.4044119104192
  20
-23444.01909665492
  30
-1049.7582732761825
  70
32
  0
SEQEND
  5
170
  330

  100
AcDbEntity
  8
100 4W CUT4 LHPS 7EMB SLOT2 RINGS_DXF_RINGDESIGN_100 4W CUT4  LHPS 7EMB SLOT_SURVEYEXPORT_S11
  0
LWPOLYLINE
  5
171
  330
F4
  100
AcDbEntity
  8
100 4W CUT4 LHPS 7EMB SLOT2 RINGS_DXF_RINGDESIGN_100 4W CUT4  LHPS 7EMB SLOT_SURVEYEXPORT
  62
7
  100
AcDbPolyline
  90
2
  43
0
  38
-1066.3783963507212
  10
7107.3976987930628
  20
-23445.585427219619
  10
7102.4277168399485
  20
-23442.223987143447
  0
LWPOLYLINE
  5
172
  330
F4
  100
AcDbEntity
  8
100 4W CUT4 LHPS 7EMB SLOT2 RINGS_DXF_RINGDESIGN_100 4W CUT4  LHPS 7EMB SLOT_SURVEYEXPORT
  62
1
  100
AcDbPolyline
  90
2
  43
0
  38
-1066.3783963507212
  10
7109.1792620334354
  20
-23442.95133678447
  10
7104.2092800803212
  20
-23439.589896708298
  0
POLYLINE
  5
173
  330
F4
  100
AcDbEntity
  8
100 4W CUT4 LHPS 7EMB SLOT2 RINGS_DXF_RINGDESIGN_100 4W CUT4  LHPS 7EMB SLOT_SURVEYEXPORT_S12
  62
7
  100
AcDb3dPolyline
  10
0
  20
0
  30
0
  70
8
  0
VERTEX
  5
174
  330

  100
AcDbEntity
  8
100 4W CUT4 LHPS 7EMB SLOT2 RINGS_DXF_RINGDESIGN_100 4W CUT4  LHPS 7EMB SLOT_SURVEYEXPORT_S12
  6
BYLAYER
  62
7
  100
AcDbVertex
  100
AcDb3dPolylineVertex
  10
7106.7667020805047
  20
-23445.158653509468
  30
-1063.0062864766712
  70
32
  0
VERTEX
  5
175
  330

  100
AcDbEntity
  8
100 4W CUT4 LHPS 7EMB SLOT2 RINGS_DXF_RINGDESIGN_100 4W CUT4  LHPS 7EMB SLOT_SURVEYEXPORT_S12
  6
BYLAYER
  62
7
  100
AcDbVertex
  100
AcDb3dPolylineVertex
  10
7107.4342350924107
  20
-23445.610138492626
  30
-1050.127995943066
  70
32
  0
SEQEND
  5
176
  330

  100
AcDbEntity
  8
100 4W CUT4 LHPS 7EMB SLOT2 RINGS_DXF_RINGDESIGN_100 4W CUT4  LHPS 7EMB SLOT_SURVEYEXPORT_S12
  0
POLYLINE
  5
177
  330
F4
  100
AcDbEntity
  8
100 4W CUT4 LHPS 7EMB SLOT2 RINGS_DXF_RINGDESIGN_100 4W CUT4  LHPS 7EMB SLOT_SURVEYEXPORT_S12
  62
7
  100
AcDb3dPolyline
  10
0
  20
0
  30
0
  70
8
  0
VERTEX
  5
178
  330

  100
AcDbEntity
  8
100 4W CUT4 LHPS 7EMB SLOT2 RINGS_DXF_RINGDESIGN_100 4W CUT4  LHPS 7EMB SLOT_SURVEYEXPORT_S12
  6
BYLAYER
  62
7
  100
AcDbVertex
  100
AcDb3dPolylineVertex
  10
7105.9079502240184
  20
-23444.57783793849
  30
-1062.6229182002883
  70
32
  0
VERTEX
  5
179
  330

  100
AcDbEntity
  8
100 4W CUT4 LHPS 7EMB SLOT2 RINGS_DXF_RINGDESIGN_100 4W CUT4  LHPS 7EMB SLOT_SURVEYEXPORT_S12
  6
BYLAYER
  62
7
  100
AcDbVertex
  100
AcDb3dPolylineVertex
  10
7106.407020235205
  20
-23444.915383215761
  30
-1050.0935486396722
  70
32
  0
SEQEND
  5
17A
  330

  100
AcDbEntity
  8
100 4W CUT4 LHPS 7EMB SLOT2 RINGS_DXF_RINGDESIGN_100 4W CUT4  LHPS 7EMB SLOT_SURVEYEXPORT_S12
  0
POLYLINE
  5
17B
  330
F4
  100
AcDbEntity
  8
100 4W CUT4 LHPS 7EMB SLOT2 RINGS_DXF_RINGDESIGN_100 4W CUT4  LHPS 7EMB SLOT_SURVEYEXPORT_S12
  62
7
  100
AcDb3dPolyline
  10
0
  20
0
  30
0
  70
8
  0
VERTEX
  5
17C
  330

  100
AcDbEntity
  8
100 4W CUT4 LHPS 7EMB SLOT2 RINGS_DXF_RINGDESIGN_100 4W CUT4  LHPS 7EMB SLOT_SURVEYEXPORT_S12
  6
BYLAYER
  62
7
  100
AcDbVertex
  100
AcDb3dPolylineVertex
  10
7105.3115735838119
  20
-23444.174479463985
  30
-1062.633717816489
  70
32
  0
VERTEX
  5
17D
  330

  100
AcDbEntity
  8
100 4W CUT4 LHPS 7EMB SLOT2 RINGS_DXF_RINGDESIGN_100 4W CUT4  LHPS 7EMB SLOT_SURVEYEXPORT_S12
  6
BYLAYER
  62
7
  100
AcDbVertex
  100
AcDb3dPolylineVertex
  10
7105.2656703938619
  20
-23444.143432908128
  30
-1050.093548639672
  70
32
  0
SEQEND
  5
17E
  330

  100
AcDbEntity
  8
100 4W CUT4 LHPS 7EMB SLOT2 RINGS_DXF_RINGDESIGN_100 4W CUT4  LHPS 7EMB SLOT_SURVEYEXPORT_S12
  0
POLYLINE
  5
17F
  330
F4
  100
AcDbEntity
  8
100 4W CUT4 LHPS 7EMB SLOT2 RINGS_DXF_RINGDESIGN_100 4W CUT4  LHPS 7EMB SLOT_SURVEYEXPORT_S12
  62
7
  100
AcDb3dPolyline
  10
0
  20
0
  30
0
  70
8
  0
VERTEX
  5
180
  330

  100
AcDbEntity
  8
100 4W CUT4 LHPS 7EMB SLOT2 RINGS_DXF_RINGDESIGN_100 4W CUT4  LHPS 7EMB SLOT_SURVEYEXPORT_S12
  6
BYLAYER
  62
7
  100
AcDbVertex
  100
AcDb3dPolylineVertex
  10
7104.7356400154786
  20
-23443.784947631459
  30
-1062.6441472348731
  70
32
  0
VERTEX
  5
181
  330

  100
AcDbEntity
  8
100 4W CUT4 LHPS 7EMB SLOT2 RINGS_DXF_RINGDESIGN_100 4W CUT4  LHPS 7EMB SLOT_SURVEYEXPORT_S12
  6
BYLAYER
  62
7
  100
AcDbVertex
  100
AcDb3dPolylineVertex
  10
7104.20992179062
  20
-23443.42937887357
  30
-1050.2657851566419
  70
32
  0
SEQEND
  5
182
  330

  100
AcDbEntity
  8
100 4W CUT4 LHPS 7EMB SLOT2 RINGS_DXF_RINGDESIGN_100 4W CUT4  LHPS 7EMB SLOT_SURVEYEXPORT_S12
  0
POLYLINE
  5
183
  330
F4
  100
AcDbEntity
  8
100 4W CUT4 LHPS 7EMB SLOT2 RINGS_DXF_RINGDESIGN_100 4W CUT4  LHPS 7EMB SLOT_SURVEYEXPORT_S12
  62
7
  100
AcDb3dPolyline
  10
0
  20
0
  30
0
  70
8
  0
VERTEX
  5
184
  330

  100
AcDbEntity
  8
100 4W CUT4 LHPS 7EMB SLOT2 RINGS_DXF_RINGDESIGN_100 4W CUT4  LHPS 7EMB SLOT_SURVEYEXPORT_S12
  6
BYLAYER
  62
7
  100
AcDbVertex
  100
AcDb3dPolylineVertex
  10
7103.8870989191764
  20
-23443.2110380933
  30
-1062.6595132260152
  70
32
  0
VERTEX
  5
185
  330

  100
AcDbEntity
  8
100 4W CUT4 LHPS 7EMB SLOT2 RINGS_DXF_RINGDESIGN_100 4W CUT4  LHPS 7EMB SLOT_SURVEYEXPORT_S12
  6
BYLAYER
  62
7
  100
AcDbVertex
  100
AcDb3dPolylineVertex
  10
7103.2968419175477
  20
-23442.811818627466
  30
-1050.2313378532476
  70
32
  0
SEQEND
  5
186
  330

  100
AcDbEntity
  8
100 4W CUT4 LHPS 7EMB SLOT2 RINGS_DXF_RINGDESIGN_100 4W CUT4  LHPS 7EMB SLOT_SURVEYEXPORT_S12
  0
LWPOLYLINE
  5
187
  330
F4
  100
AcDbEntity
  8
100 4W CUT4 LHPS 7EMB SLOT2 RINGS_DXF_RINGDESIGN_100 4W CUT4  LHPS 7EMB SLOT_SURVEYEXPORT
  62
7
  100
AcDbPolyline
  90
2
  43
0
  38
-1066.3827893686594
  10
7103.2970080174027
  20
-23440.938716138746
  10
7108.266989970517
  20
-23444.300156214918
  0
LWPOLYLINE
  5
188
  330
F4
  100
AcDbEntity
  8
100 4W CUT4 LHPS 7EMB SLOT2 RINGS_DXF_RINGDESIGN_100 4W CUT4  LHPS 7EMB SLOT_SURVEYEXPORT
  62
1
  100
AcDbPolyline
  90
2
  43
0
  38
-1066.3827893686594
  10
7101.51544477703
  20
-23443.572806573895
  10
7106.4854267301444
  20
-23446.934246650068
  0
POLYLINE
  5
189
  330
F4
  100
AcDbEntity
  8
100 4W CUT4 LHPS 7EMB SLOT2 RINGS_DXF_RINGDESIGN_100 4W CUT4  LHPS 7EMB SLOT_SURVEYEXPORT_SL1
  62
7
  100
AcDb3dPolyline
  10
0
  20
0
  30
0
  70
8
  0
VERTEX
  5
18A
  330

  100
AcDbEntity
  8
100 4W CUT4 LHPS 7EMB SLOT2 RINGS_DXF_RINGDESIGN_100 4W CUT4  LHPS 7EMB SLOT_SURVEYEXPORT_SL1
  6
BYLAYER
  62
7
  100
AcDbVertex
  100
AcDb3dPolylineVertex
  10
7104.7388095228662
  20
-23441.913876493058
  30
-1062.520436875717
  70
32
  0
VERTEX
  5
18B
  330

  100
AcDbEntity
  8
100 4W CUT4 LHPS 7EMB SLOT2 RINGS_DXF_RINGDESIGN_100 4W CUT4  LHPS 7EMB SLOT_SURVEYEXPORT_SL1
  6
BYLAYER
  62
7
  100
AcDbVertex
  100
AcDb3dPolylineVertex
  10
7104.1009954139836
  20
-23441.482491846804
  30
-1050.0856085654943
  70
32
  0
SEQEND
  5
18C
  330

  100
AcDbEntity
  8
100 4W CUT4 LHPS 7EMB SLOT2 RINGS_DXF_RINGDESIGN_100 4W CUT4  LHPS 7EMB SLOT_SURVEYEXPORT_SL1
  0
POLYLINE
  5
18D
  330
F4
  100
AcDbEntity
  8
100 4W CUT4 LHPS 7EMB SLOT2 RINGS_DXF_RINGDESIGN_100 4W CUT4  LHPS 7EMB SLOT_SURVEYEXPORT_SL1
  62
7
  100
AcDb3dPolyline
  10
0
  20
0
  30
0
  70
8
  0
VERTEX
  5
18E
  330

  100
AcDbEntity
  8
100 4W CUT4 LHPS 7EMB SLOT2 RINGS_DXF_RINGDESIGN_100 4W CUT4  LHPS 7EMB SLOT_SURVEYEXPORT_SL1
  6
BYLAYER
  62
7
  100
AcDbVertex
  100
AcDb3dPolylineVertex
  10
7105.5061614211018
  20
-23442.43287383502
  30
-1062.520436875717
  70
32
  0
VERTEX
  5
18F
  330

  100
AcDbEntity
  8
100 4W CUT4 LHPS 7EMB SLOT2 RINGS_DXF_RINGDESIGN_100 4W CUT4  LHPS 7EMB SLOT_SURVEYEXPORT_SL1
  6
BYLAYER
  62
7
  100
AcDbVertex
  100
AcDb3dPolylineVertex
  10
7105.4356761327281
  20
-23442.385201212594
  30
-1050.2446505122571
  70
32
  0
SEQEND
  5
190
  330

  100
AcDbEntity
  8
100 4W CUT4 LHPS 7EMB SLOT2 RINGS_DXF_RINGDESIGN_100 4W CUT4  LHPS 7EMB SLOT_SURVEYEXPORT_SL1
  0
POLYLINE
  5
191
  330
F4
  100
AcDbEntity
  8
100 4W CUT4 LHPS 7EMB SLOT2 RINGS_DXF_RINGDESIGN_100 4W CUT4  LHPS 7EMB SLOT_SURVEYEXPORT_SL1
  62
7
  100
AcDb3dPolyline
  10
0
  20
0
  30
0
  70
8
  0
VERTEX
  5
192
  330

  100
AcDbEntity
  8
100 4W CUT4 LHPS 7EMB SLOT2 RINGS_DXF_RINGDESIGN_100 4W CUT4  LHPS 7EMB SLOT_SURVEYEXPORT_SL1
  6
BYLAYER
  62
7
  100
AcDbVertex
  100
AcDb3dPolylineVertex
  10
7105.8487742838661
  20
-23442.664599547181
  30
-1062.6024415514528
  70
32
  0
VERTEX
  5
193
  330

  100
AcDbEntity
  8
100 4W CUT4 LHPS 7EMB SLOT2 RINGS_DXF_RINGDESIGN_100 4W CUT4  LHPS 7EMB SLOT_SURVEYEXPORT_SL1
  6
BYLAYER
  62
7
  100
AcDbVertex
  100
AcDb3dPolylineVertex
  10
7106.0501675998958
  20
-23442.800811623998
  30
-1050.2161180699804
  70
32
  0
SEQEND
  5
194
  330

  100
AcDbEntity
  8
100 4W CUT4 LHPS 7EMB SLOT2 RINGS_DXF_RINGDESIGN_100 4W CUT4  LHPS 7EMB SLOT_SURVEYEXPORT_SL1
  0
POLYLINE
  5
195
  330
F4
  100
AcDbEntity
  8
100 4W CUT4 LHPS 7EMB SLOT2 RINGS_DXF_RINGDESIGN_100 4W CUT4  LHPS 7EMB SLOT_SURVEYEXPORT_SL1
  62
7
  100
AcDb3dPolyline
  10
0
  20
0
  30
0
  70
8
  0
VERTEX
  5
196
  330

  100
AcDbEntity
  8
100 4W CUT4 LHPS 7EMB SLOT2 RINGS_DXF_RINGDESIGN_100 4W CUT4  LHPS 7EMB SLOT_SURVEYEXPORT_SL1
  6
BYLAYER
  62
7
  100
AcDbVertex
  100
AcDb3dPolylineVertex
  10
7106.4575266532875
  20
-23443.076328328156
  30
-1062.8272196379203
  70
32
  0
VERTEX
  5
197
  330

  100
AcDbEntity
  8
100 4W CUT4 LHPS 7EMB SLOT2 RINGS_DXF_RINGDESIGN_100 4W CUT4  LHPS 7EMB SLOT_SURVEYEXPORT_SL1
  6
BYLAYER
  62
7
  100
AcDbVertex
  100
AcDb3dPolylineVertex
  10
7106.4992190566654
  20
-23443.104526924632
  30
-1050.2446505122571
  70
32
  0
SEQEND
  5
198
  330

  100
AcDbEntity
  8
100 4W CUT4 LHPS 7EMB SLOT2 RINGS_DXF_RINGDESIGN_100 4W CUT4  LHPS 7EMB SLOT_SURVEYEXPORT_SL1
  0
POLYLINE
  5
199
  330
F4
  100
AcDbEntity
  8
100 4W CUT4 LHPS 7EMB SLOT2 RINGS_DXF_RINGDESIGN_100 4W CUT4  LHPS 7EMB SLOT_SURVEYEXPORT_SL1
  62
7
  100
AcDb3dPolyline
  10
0
  20
0
  30
0
  70
8
  0
VERTEX
  5
19A
  330

  100
AcDbEntity
  8
100 4W CUT4 LHPS 7EMB SLOT2 RINGS_DXF_RINGDESIGN_100 4W CUT4  LHPS 7EMB SLOT_SURVEYEXPORT_SL1
  6
BYLAYER
  62
7
  100
AcDbVertex
  100
AcDb3dPolylineVertex
  10
7107.0450738202644
  20
-23443.473715001262
  30
-1062.8917028243629
  70
32
  0
VERTEX
  5
19B
  330

  100
AcDbEntity
  8
100 4W CUT4 LHPS 7EMB SLOT2 RINGS_DXF_RINGDESIGN_100 4W CUT4  LHPS 7EMB SLOT_SURVEYEXPORT_SL1
  6
BYLAYER
  62
7
  100
AcDbVertex
  100
AcDb3dPolylineVertex
  10
7107.11371052383
  20
-23443.520137336036
  30
-1050.1590531854281
  70
32
  0
SEQEND
  5
19C
  330

  100
AcDbEntity
  8
100 4W CUT4 LHPS 7EMB SLOT2 RINGS_DXF_RINGDESIGN_100 4W CUT4  LHPS 7EMB SLOT_SURVEYEXPORT_SL1
  0
POLYLINE
  5
19D
  330
F4
  100
AcDbEntity
  8
100 4W CUT4 LHPS 7EMB SLOT2 RINGS_DXF_RINGDESIGN_100 4W CUT4  LHPS 7EMB SLOT_SURVEYEXPORT_SL1
  62
7
  100
AcDb3dPolyline
  10
0
  20
0
  30
0
  70
8
  0
VERTEX
  5
19E
  330

  100
AcDbEntity
  8
100 4W CUT4 LHPS 7EMB SLOT2 RINGS_DXF_RINGDESIGN_100 4W CUT4  LHPS 7EMB SLOT_SURVEYEXPORT_SL1
  6
BYLAYER
  62
7
  100
AcDbVertex
  100
AcDb3dPolylineVertex
  10
7107.6301174266337
  20
-23443.869408394774
  30
-1062.9654033280426
  70
32
  0
VERTEX
  5
19F
  330

  100
AcDbEntity
  8
100 4W CUT4 LHPS 7EMB SLOT2 RINGS_DXF_RINGDESIGN_100 4W CUT4  LHPS 7EMB SLOT_SURVEYEXPORT_SL1
  6
BYLAYER
  62
7
  100
AcDbVertex
  100
AcDb3dPolylineVertex
  10
7108.2862337720744
  20
-23444.313171732152
  30
-1050.1351440555577
  70
32
  0
SEQEND
  5
1A0
  330

  100
AcDbEntity
  8
100 4W CUT4 LHPS 7EMB SLOT2 RINGS_DXF_RINGDESIGN_100 4W CUT4  LHPS 7EMB SLOT_SURVEYEXPORT_SL1
  0
LWPOLYLINE
  5
1A1
  330
F4
  100
AcDbEntity
  8
100 4W CUT4 LHPS 7EMB SLOT2 RINGS_DXF_RINGDESIGN_100 4W CUT4  LHPS 7EMB SLOT_SURVEYEXPORT
  62
7
  100
AcDbPolyline
  90
2
  43
0
  38
-1066.3842049671523
  10
7103.577126901072
  20
-23440.524552635896
  10
7108.5471088541863
  20
-23443.885992712068
  0
LWPOLYLINE
  5
1A2
  330
F4
  100
AcDbEntity
  8
100 4W CUT4 LHPS 7EMB SLOT2 RINGS_DXF_RINGDESIGN_100 4W CUT4  LHPS 7EMB SLOT_SURVEYEXPORT
  62
1
  100
AcDbPolyline
  90
2
  43
0
  38
-1066.3842049671523
  10
7101.7955636606994
  20
-23443.158643071045
  10
7106.7655456138136
  20
-23446.520083147218
  0
POLYLINE
  5
1A3
  330
F4
  100
AcDbEntity
  8
100 4W CUT4 LHPS 7EMB SLOT2 RINGS_DXF_RINGDESIGN_100 4W CUT4  LHPS 7EMB SLOT_SURVEYEXPORT_SL2
  62
7
  100
AcDb3dPolyline
  10
0
  20
0
  30
0
  70
8
  0
VERTEX
  5
1A4
  330

  100
AcDbEntity
  8
100 4W CUT4 LHPS 7EMB SLOT2 RINGS_DXF_RINGDESIGN_100 4W CUT4  LHPS 7EMB SLOT_SURVEYEXPORT_SL2
  6
BYLAYER
  62
7
  100
AcDbVertex
  100
AcDb3dPolylineVertex
  10
7105.206157499334
  20
-23441.626345115215
  30
-1062.7800718879546
  70
32
  0
VERTEX
  5
1A5
  330

  100
AcDbEntity
  8
100 4W CUT4 LHPS 7EMB SLOT2 RINGS_DXF_RINGDESIGN_100 4W CUT4  LHPS 7EMB SLOT_SURVEYEXPORT_SL2
  6
BYLAYER
  62
7
  100
AcDbVertex
  100
AcDb3dPolylineVertex
  10
7104.4658605395089
  20
-23441.125646341556
  30
-1050.5019023247175
  70
32
  0
SEQEND
  5
1A6
  330

  100
AcDbEntity
  8
100 4W CUT4 LHPS 7EMB SLOT2 RINGS_DXF_RINGDESIGN_100 4W CUT4  LHPS 7EMB SLOT_SURVEYEXPORT_SL2
  0
POLYLINE
  5
1A7
  330
F4
  100
AcDbEntity
  8
100 4W CUT4 LHPS 7EMB SLOT2 RINGS_DXF_RINGDESIGN_100 4W CUT4  LHPS 7EMB SLOT_SURVEYEXPORT_SL2
  62
7
  100
AcDb3dPolyline
  10
0
  20
0
  30
0
  70
8
  0
VERTEX
  5
1A8
  330

  100
AcDbEntity
  8
100 4W CUT4 LHPS 7EMB SLOT2 RINGS_DXF_RINGDESIGN_100 4W CUT4  LHPS 7EMB SLOT_SURVEYEXPORT_SL2
  6
BYLAYER
  62
7
  100
AcDbVertex
  100
AcDb3dPolylineVertex
  10
7106.0801543761736
  20
-23442.217471633579
  30
-1062.6505219839103
  70
32
  0
VERTEX
  5
1A9
  330

  100
AcDbEntity
  8
100 4W CUT4 LHPS 7EMB SLOT2 RINGS_DXF_RINGDESIGN_100 4W CUT4  LHPS 7EMB SLOT_SURVEYEXPORT_SL2
  6
BYLAYER
  62
7
  100
AcDbVertex
  100
AcDb3dPolylineVertex
  10
7106.1384461675243
  20
-23442.256897202005
  30
-1049.6507124587051
  70
32
  0
SEQEND
  5
1AA
  330

  100
AcDbEntity
  8
100 4W CUT4 LHPS 7EMB SLOT2 RINGS_DXF_RINGDESIGN_100 4W CUT4  LHPS 7EMB SLOT_SURVEYEXPORT_SL2
  0
POLYLINE
  5
1AB
  330
F4
  100
AcDbEntity
  8
100 4W CUT4 LHPS 7EMB SLOT2 RINGS_DXF_RINGDESIGN_100 4W CUT4  LHPS 7EMB SLOT_SURVEYEXPORT_SL2
  62
7
  100
AcDb3dPolyline
  10
0
  20
0
  30
0
  70
8
  0
VERTEX
  5
1AC
  330

  100
AcDbEntity
  8
100 4W CUT4 LHPS 7EMB SLOT2 RINGS_DXF_RINGDESIGN_100 4W CUT4  LHPS 7EMB SLOT_SURVEYEXPORT_SL2
  6
BYLAYER
  62
7
  100
AcDbVertex
  100
AcDb3dPolylineVertex
  10
7107.6160729429466
  20
-23443.256287925626
  30
-1062.5924302213166
  70
32
  0
VERTEX
  5
1AD
  330

  100
AcDbEntity
  8
100 4W CUT4 LHPS 7EMB SLOT2 RINGS_DXF_RINGDESIGN_100 4W CUT4  LHPS 7EMB SLOT_SURVEYEXPORT_SL2
  6
BYLAYER
  62
7
  100
AcDbVertex
  100
AcDb3dPolylineVertex
  10
7108.5488387433061
  20
-23443.887162720061
  30
-1050.3721816012483
  70
32
  0
SEQEND
  5
1AE
  330

  100
AcDbEntity
  8
100 4W CUT4 LHPS 7EMB SLOT2 RINGS_DXF_RINGDESIGN_100 4W CUT4  LHPS 7EMB SLOT_SURVEYEXPORT_SL2
  0
POLYLINE
  5
1AF
  330
F4
  100
AcDbEntity
  8
100 4W CUT4 LHPS 7EMB SLOT2 RINGS_DXF_RINGDESIGN_100 4W CUT4  LHPS 7EMB SLOT_SURVEYEXPORT_SL2
  62
7
  100
AcDb3dPolyline
  10
0
  20
0
  30
0
  70
8
  0
VERTEX
  5
1B0
  330

  100
AcDbEntity
  8
100 4W CUT4 LHPS 7EMB SLOT2 RINGS_DXF_RINGDESIGN_100 4W CUT4  LHPS 7EMB SLOT_SURVEYEXPORT_SL2
  6
BYLAYER
  62
7
  100
AcDbVertex
  100
AcDb3dPolylineVertex
  10
7106.4937279125215
  20
-23442.497191494258
  30
-1062.7827351243664
  70
32
  0
VERTEX
  5
1B1
  330

  100
AcDbEntity
  8
100 4W CUT4 LHPS 7EMB SLOT2 RINGS_DXF_RINGDESIGN_100 4W CUT4  LHPS 7EMB SLOT_SURVEYEXPORT_SL2
  6
BYLAYER
  62
7
  100
AcDbVertex
  100
AcDb3dPolylineVertex
  10
7106.5520237935962
  20
-23442.536619828759
  30
-1049.7829256258897
  70
32
  0
SEQEND
  5
1B2
  330

  100
AcDbEntity
  8
100 4W CUT4 LHPS 7EMB SLOT2 RINGS_DXF_RINGDESIGN_100 4W CUT4  LHPS 7EMB SLOT_SURVEYEXPORT_SL2
  0
POLYLINE
  5
1B3
  330
F4
  100
AcDbEntity
  8
100 4W CUT4 LHPS 7EMB SLOT2 RINGS_DXF_RINGDESIGN_100 4W CUT4  LHPS 7EMB SLOT_SURVEYEXPORT_SL2
  62
7
  100
AcDb3dPolyline
  10
0
  20
0
  30
0
  70
8
  0
VERTEX
  5
1B4
  330

  100
AcDbEntity
  8
100 4W CUT4 LHPS 7EMB SLOT2 RINGS_DXF_RINGDESIGN_100 4W CUT4  LHPS 7EMB SLOT_SURVEYEXPORT_SL2
  6
BYLAYER
  62
7
  100
AcDbVertex
  100
AcDb3dPolylineVertex
  10
7106.908078647205
  20
-23442.777437011911
  30
-1062.7415884540819
  70
32
  0
VERTEX
  5
1B5
  330

  100
AcDbEntity
  8
100 4W CUT4 LHPS 7EMB SLOT2 RINGS_DXF_RINGDESIGN_100 4W CUT4  LHPS 7EMB SLOT_SURVEYEXPORT_SL2
  6
BYLAYER
  62
7
  100
AcDbVertex
  100
AcDb3dPolylineVertex
  10
7106.9663780176752
  20
-23442.81686770646
  30
-1049.7417789784115
  70
32
  0
SEQEND
  5
1B6
  330

  100
AcDbEntity
  8
100 4W CUT4 LHPS 7EMB SLOT2 RINGS_DXF_RINGDESIGN_100 4W CUT4  LHPS 7EMB SLOT_SURVEYEXPORT_SL2
  0
LWPOLYLINE
  5
1B7
  330
F4
  100
AcDbEntity
  8
100 4W CUT4 LHPS 7EMB SLOT2 RINGS_DXF_RINGDESIGN_100 4W CUT4  LHPS 7EMB SLOT_SURVEYEXPORT
  62
7
  100
AcDbPolyline
  90
2
  43
0
  38
-1066.3849127663987
  10
7103.7171863429076
  20
-23440.317470884471
  10
7108.6871682960218
  20
-23443.678910960643
  0
LWPOLYLINE
  5
1B8
  330
F4
  100
AcDbEntity
  8
100 4W CUT4 LHPS 7EMB SLOT2 RINGS_DXF_RINGDESIGN_100 4W CUT4  LHPS 7EMB SLOT_SURVEYEXPORT
  62
1
  100
AcDbPolyline
  90
2
  43
0
  38
-1066.3849127663987
  10
7101.9356231025349
  20
-23442.95156131962
  10
7106.9056050556492
  20
-23446.313001395793
  0
POLYLINE
  5
1B9
  330
F4
  100
AcDbEntity
  8
100 4W CUT4 LHPS 7EMB SLOT2 RINGS_DXF_RINGDESIGN_100 4W CUT4  LHPS 7EMB SLOT_SURVEYEXPORT_SL3
  62
7
  100
AcDb3dPolyline
  10
0
  20
0
  30
0
  70
8
  0
VERTEX
  5
1BA
  330

  100
AcDbEntity
  8
100 4W CUT4 LHPS 7EMB SLOT2 RINGS_DXF_RINGDESIGN_100 4W CUT4  LHPS 7EMB SLOT_SURVEYEXPORT_SL3
  6
BYLAYER
  62
7
  100
AcDbVertex
  100
AcDb3dPolylineVertex
  10
7105.8058764796642
  20
-23441.730153425091
  30
-1062.6980854957847
  70
32
  0
VERTEX
  5
1BB
  330

  100
AcDbEntity
  8
100 4W CUT4 LHPS 7EMB SLOT2 RINGS_DXF_RINGDESIGN_100 4W CUT4  LHPS 7EMB SLOT_SURVEYEXPORT_SL3
  6
BYLAYER
  62
7
  100
AcDbVertex
  100
AcDb3dPolylineVertex
  10
7105.8619080779372
  20
-23441.768050315204
  30
-1050.2037896704546
  70
32
  0
SEQEND
  5
1BC
  330

  100
AcDbEntity
  8
100 4W CUT4 LHPS 7EMB SLOT2 RINGS_DXF_RINGDESIGN_100 4W CUT4  LHPS 7EMB SLOT_SURVEYEXPORT_SL3
  0
POLYLINE
  5
1BD
  330
F4
  100
AcDbEntity
  8
100 4W CUT4 LHPS 7EMB SLOT2 RINGS_DXF_RINGDESIGN_100 4W CUT4  LHPS 7EMB SLOT_SURVEYEXPORT_SL3
  62
7
  100
AcDb3dPolyline
  10
0
  20
0
  30
0
  70
8
  0
VERTEX
  5
1BE
  330

  100
AcDbEntity
  8
100 4W CUT4 LHPS 7EMB SLOT2 RINGS_DXF_RINGDESIGN_100 4W CUT4  LHPS 7EMB SLOT_SURVEYEXPORT_SL3
  6
BYLAYER
  62
7
  100
AcDbVertex
  100
AcDb3dPolylineVertex
  10
7106.42685139934
  20
-23442.150148910187
  30
-1062.7593916550907
  70
32
  0
VERTEX
  5
1BF
  330

  100
AcDbEntity
  8
100 4W CUT4 LHPS 7EMB SLOT2 RINGS_DXF_RINGDESIGN_100 4W CUT4  LHPS 7EMB SLOT_SURVEYEXPORT_SL3
  6
BYLAYER
  62
7
  100
AcDbVertex
  100
AcDb3dPolylineVertex
  10
7106.4831423188962
  20
-23442.188221191871
  30
-1050.2087744770351
  70
32
  0
SEQEND
  5
1C0
  330

  100
AcDbEntity
  8
100 4W CUT4 LHPS 7EMB SLOT2 RINGS_DXF_RINGDESIGN_100 4W CUT4  LHPS 7EMB SLOT_SURVEYEXPORT_SL3
  0
POLYLINE
  5
1C1
  330
F4
  100
AcDbEntity
  8
100 4W CUT4 LHPS 7EMB SLOT2 RINGS_DXF_RINGDESIGN_100 4W CUT4  LHPS 7EMB SLOT_SURVEYEXPORT_SL3
  62
7
  100
AcDb3dPolyline
  10
0
  20
0
  30
0
  70
8
  0
VERTEX
  5
1C2
  330

  100
AcDbEntity
  8
100 4W CUT4 LHPS 7EMB SLOT2 RINGS_DXF_RINGDESIGN_100 4W CUT4  LHPS 7EMB SLOT_SURVEYEXPORT_SL3
  6
BYLAYER
  62
7
  100
AcDbVertex
  100
AcDb3dPolylineVertex
  10
7106.8726682360257
  20
-23442.451676480228
  30
-1062.7097064660477
  70
32
  0
VERTEX
  5
1C3
  330

  100
AcDbEntity
  8
100 4W CUT4 LHPS 7EMB SLOT2 RINGS_DXF_RINGDESIGN_100 4W CUT4  LHPS 7EMB SLOT_SURVEYEXPORT_SL3
  6
BYLAYER
  62
7
  100
AcDbVertex
  100
AcDb3dPolylineVertex
  10
7106.8972933212362
  20
-23442.468331620836
  30
-1050.2129295836428
  70
32
  0
SEQEND
  5
1C4
  330

  100
AcDbEntity
  8
100 4W CUT4 LHPS 7EMB SLOT2 RINGS_DXF_RINGDESIGN_100 4W CUT4  LHPS 7EMB SLOT_SURVEYEXPORT_SL3
  0
POLYLINE
  5
1C5
  330
F4
  100
AcDbEntity
  8
100 4W CUT4 LHPS 7EMB SLOT2 RINGS_DXF_RINGDESIGN_100 4W CUT4  LHPS 7EMB SLOT_SURVEYEXPORT_SL3
  62
7
  100
AcDb3dPolyline
  10
0
  20
0
  30
0
  70
8
  0
VERTEX
  5
1C6
  330

  100
AcDbEntity
  8
100 4W CUT4 LHPS 7EMB SLOT2 RINGS_DXF_RINGDESIGN_100 4W CUT4  LHPS 7EMB SLOT_SURVEYEXPORT_SL3
  6
BYLAYER
  62
7
  100
AcDbVertex
  100
AcDb3dPolylineVertex
  10
7107.4637381763705
  20
-23442.851445775977
  30
-1062.4314425414566
  70
32
  0
VERTEX
  5
1C7
  330

  100
AcDbEntity
  8
100 4W CUT4 LHPS 7EMB SLOT2 RINGS_DXF_RINGDESIGN_100 4W CUT4  LHPS 7EMB SLOT_SURVEYEXPORT_SL3
  6
BYLAYER
  62
7
  100
AcDbVertex
  100
AcDb3dPolylineVertex
  10
7107.5185211269454
  20
-23442.888498145032
  30
-1050.2189522327894
  70
32
  0
SEQEND
  5
1C8
  330

  100
AcDbEntity
  8
100 4W CUT4 LHPS 7EMB SLOT2 RINGS_DXF_RINGDESIGN_100 4W CUT4  LHPS 7EMB SLOT_SURVEYEXPORT_SL3
  0
LWPOLYLINE
  5
1C9
  330
F4
  100
AcDbEntity
  8
100 4W CUT4 LHPS 7EMB SLOT2 RINGS_DXF_RINGDESIGN_100 4W CUT4  LHPS 7EMB SLOT_SURVEYEXPORT
  62
7
  100
AcDbPolyline
  90
2
  43
0
  38
-1066.3856205656452
  10
7103.8572457847422
  20
-23440.110389133046
  10
7108.8272277378564
  20
-23443.471829209218
  0
LWPOLYLINE
  5
1CA
  330
F4
  100
AcDbEntity
  8
100 4W CUT4 LHPS 7EMB SLOT2 RINGS_DXF_RINGDESIGN_100 4W CUT4  LHPS 7EMB SLOT_SURVEYEXPORT
  62
1
  100
AcDbPolyline
  90
2
  43
0
  38
-1066.3856205656452
  10
7102.07568254437
  20
-23442.744479568195
  10
7107.0456644974838
  20
-23446.105919644368
  0
POLYLINE
  5
1CB
  330
F4
  100
AcDbEntity
  8
100 4W CUT4 LHPS 7EMB SLOT2 RINGS_DXF_RINGDESIGN_100 4W CUT4  LHPS 7EMB SLOT_SURVEYEXPORT_SL4
  62
7
  100
AcDb3dPolyline
  10
0
  20
0
  30
0
  70
8
  0
VERTEX
  5
1CC
  330

  100
AcDbEntity
  8
100 4W CUT4 LHPS 7EMB SLOT2 RINGS_DXF_RINGDESIGN_100 4W CUT4  LHPS 7EMB SLOT_SURVEYEXPORT_SL4
  6
BYLAYER
  62
7
  100
AcDbVertex
  100
AcDb3dPolylineVertex
  10
7105.50048820797
  20
-23441.221793759534
  30
-1063.024900858504
  70
32
  0
VERTEX
  5
1CD
  330

  100
AcDbEntity
  8
100 4W CUT4 LHPS 7EMB SLOT2 RINGS_DXF_RINGDESIGN_100 4W CUT4  LHPS 7EMB SLOT_SURVEYEXPORT_SL4
  6
BYLAYER
  62
7
  100
AcDbVertex
  100
AcDb3dPolylineVertex
  10
7104.8765921711747
  20
-23440.799822581121
  30
-1050.2582068606127
  70
32
  0
SEQEND
  5
1CE
  330

  100
AcDbEntity
  8
100 4W CUT4 LHPS 7EMB SLOT2 RINGS_DXF_RINGDESIGN_100 4W CUT4  LHPS 7EMB SLOT_SURVEYEXPORT_SL4
  0
POLYLINE
  5
1CF
  330
F4
  100
AcDbEntity
  8
100 4W CUT4 LHPS 7EMB SLOT2 RINGS_DXF_RINGDESIGN_100 4W CUT4  LHPS 7EMB SLOT_SURVEYEXPORT_SL4
  62
7
  100
AcDb3dPolyline
  10
0
  20
0
  30
0
  70
8
  0
VERTEX
  5
1D0
  330

  100
AcDbEntity
  8
100 4W CUT4 LHPS 7EMB SLOT2 RINGS_DXF_RINGDESIGN_100 4W CUT4  LHPS 7EMB SLOT_SURVEYEXPORT_SL4
  6
BYLAYER
  62
7
  100
AcDbVertex
  100
AcDb3dPolylineVertex
  10
7107.8868876268471
  20
-23442.835831540771
  30
-1062.6710219068946
  70
32
  0
VERTEX
  5
1D1
  330

  100
AcDbEntity
  8
100 4W CUT4 LHPS 7EMB SLOT2 RINGS_DXF_RINGDESIGN_100 4W CUT4  LHPS 7EMB SLOT_SURVEYEXPORT_SL4
  6
BYLAYER
  62
7
  100
AcDbVertex
  100
AcDb3dPolylineVertex
  10
7108.82333389951
  20
-23443.4691956173
  30
-1050.2169425454088
  70
32
  0
SEQEND
  5
1D2
  330

  100
AcDbEntity
  8
100 4W CUT4 LHPS 7EMB SLOT2 RINGS_DXF_RINGDESIGN_100 4W CUT4  LHPS 7EMB SLOT_SURVEYEXPORT_SL4
  0
POLYLINE
  5
1D3
  330
F4
  100
AcDbEntity
  8
100 4W CUT4 LHPS 7EMB SLOT2 RINGS_DXF_RINGDESIGN_100 4W CUT4  LHPS 7EMB SLOT_SURVEYEXPORT_SL4
  62
7
  100
AcDb3dPolyline
  10
0
  20
0
  30
0
  70
8
  0
VERTEX
  5
1D4
  330

  100
AcDbEntity
  8
100 4W CUT4 LHPS 7EMB SLOT2 RINGS_DXF_RINGDESIGN_100 4W CUT4  LHPS 7EMB SLOT_SURVEYEXPORT_SL4
  6
BYLAYER
  62
7
  100
AcDbVertex
  100
AcDb3dPolylineVertex
  10
7106.3601666703271
  20
-23441.803236039064
  30
-1062.7349662232484
  70
32
  0
VERTEX
  5
1D5
  330

  100
AcDbEntity
  8
100 4W CUT4 LHPS 7EMB SLOT2 RINGS_DXF_RINGDESIGN_100 4W CUT4  LHPS 7EMB SLOT_SURVEYEXPORT_SL4
  6
BYLAYER
  62
7
  100
AcDbVertex
  100
AcDb3dPolylineVertex
  10
7106.4191337201255
  20
-23441.843118317574
  30
-1049.7295562087411
  70
32
  0
SEQEND
  5
1D6
  330

  100
AcDbEntity
  8
100 4W CUT4 LHPS 7EMB SLOT2 RINGS_DXF_RINGDESIGN_100 4W CUT4  LHPS 7EMB SLOT_SURVEYEXPORT_SL4
  0
POLYLINE
  5
1D7
  330
F4
  100
AcDbEntity
  8
100 4W CUT4 LHPS 7EMB SLOT2 RINGS_DXF_RINGDESIGN_100 4W CUT4  LHPS 7EMB SLOT_SURVEYEXPORT_SL4
  62
7
  100
AcDb3dPolyline
  10
0
  20
0
  30
0
  70
8
  0
VERTEX
  5
1D8
  330

  100
AcDbEntity
  8
100 4W CUT4 LHPS 7EMB SLOT2 RINGS_DXF_RINGDESIGN_100 4W CUT4  LHPS 7EMB SLOT_SURVEYEXPORT_SL4
  6
BYLAYER
  62
7
  100
AcDbVertex
  100
AcDb3dPolylineVertex
  10
7106.774524343271
  20
-23442.083486249398
  30
-1062.6954942679151
  70
32
  0
VERTEX
  5
1D9
  330

  100
AcDbEntity
  8
100 4W CUT4 LHPS 7EMB SLOT2 RINGS_DXF_RINGDESIGN_100 4W CUT4  LHPS 7EMB SLOT_SURVEYEXPORT_SL4
  6
BYLAYER
  62
7
  100
AcDbVertex
  100
AcDb3dPolylineVertex
  10
7106.8334816243259
  20
-23442.123361920829
  30
-1049.701956030681
  70
32
  0
SEQEND
  5
1DA
  330

  100
AcDbEntity
  8
100 4W CUT4 LHPS 7EMB SLOT2 RINGS_DXF_RINGDESIGN_100 4W CUT4  LHPS 7EMB SLOT_SURVEYEXPORT_SL4
  0
POLYLINE
  5
1DB
  330
F4
  100
AcDbEntity
  8
100 4W CUT4 LHPS 7EMB SLOT2 RINGS_DXF_RINGDESIGN_100 4W CUT4  LHPS 7EMB SLOT_SURVEYEXPORT_SL4
  62
7
  100
AcDb3dPolyline
  10
0
  20
0
  30
0
  70
8
  0
VERTEX
  5
1DC
  330

  100
AcDbEntity
  8
100 4W CUT4 LHPS 7EMB SLOT2 RINGS_DXF_RINGDESIGN_100 4W CUT4  LHPS 7EMB SLOT_SURVEYEXPORT_SL4
  6
BYLAYER
  62
7
  100
AcDbVertex
  100
AcDb3dPolylineVertex
  10
7107.1892690646609
  20
-23442.36399823938
  30
-1062.5786754351789
  70
32
  0
VERTEX
  5
1DD
  330

  100
AcDbEntity
  8
100 4W CUT4 LHPS 7EMB SLOT2 RINGS_DXF_RINGDESIGN_100 4W CUT4  LHPS 7EMB SLOT_SURVEYEXPORT_SL4
  6
BYLAYER
  62
7
  100
AcDbVertex
  100
AcDb3dPolylineVertex
  10
7107.2483830114516
  20
-23442.403979871458
  30
-1049.5850930707802
  70
32
  0
SEQEND
  5
1DE
  330

  100
AcDbEntity
  8
100 4W CUT4 LHPS 7EMB SLOT2 RINGS_DXF_RINGDESIGN_100 4W CUT4  LHPS 7EMB SLOT_SURVEYEXPORT_SL4
  0
LWPOLYLINE
  5
1DF
  330
F4
  100
AcDbEntity
  8
100 4W CUT4 LHPS 7EMB SLOT2 RINGS_DXF_RINGDESIGN_100 4W CUT4  LHPS 7EMB SLOT_SURVEYEXPORT
  62
7
  100
AcDbPolyline
  90
2
  43
0
  38
-1066.3863283648916
  10
7103.9973052265777
  20
-23439.903307381621
  10
7108.967287179692
  20
-23443.264747457793
  0
LWPOLYLINE
  5
1E0
  330
F4
  100
AcDbEntity
  8
100 4W CUT4 LHPS 7EMB SLOT2 RINGS_DXF_RINGDESIGN_100 4W CUT4  LHPS 7EMB SLOT_SURVEYEXPORT
  62
1
  100
AcDbPolyline
  90
2
  43
0
  38
-1066.3863283648916
  10
7102.2157419862051
  20
-23442.53739781677
  10
7107.1857239393194
  20
-23445.898837892943
  0
POLYLINE
  5
1E1
  330
F4
  100
AcDbEntity
  8
100 4W CUT4 LHPS 7EMB SLOT2 RINGS_DXF_RINGDESIGN_100 4W CUT4  LHPS 7EMB SLOT_SURVEYEXPORT_SL5
  62
7
  100
AcDb3dPolyline
  10
0
  20
0
  30
0
  70
8
  0
VERTEX
  5
1E2
  330

  100
AcDbEntity
  8
100 4W CUT4 LHPS 7EMB SLOT2 RINGS_DXF_RINGDESIGN_100 4W CUT4  LHPS 7EMB SLOT_SURVEYEXPORT_SL5
  6
BYLAYER
  62
7
  100
AcDbVertex
  100
AcDb3dPolylineVertex
  10
7106.0851667132356
  20
-23441.315429465954
  30
-1062.8964776934731
  70
32
  0
VERTEX
  5
1E3
  330

  100
AcDbEntity
  8
100 4W CUT4 LHPS 7EMB SLOT2 RINGS_DXF_RINGDESIGN_100 4W CUT4  LHPS 7EMB SLOT_SURVEYEXPORT_SL5
  6
BYLAYER
  62
7
  100
AcDbVertex
  100
AcDb3dPolylineVertex
  10
7106.14210481043
  20
-23441.353939465309
  30
-1050.2037425772853
  70
32
  0
SEQEND
  5
1E4
  330

  100
AcDbEntity
  8
100 4W CUT4 LHPS 7EMB SLOT2 RINGS_DXF_RINGDESIGN_100 4W CUT4  LHPS 7EMB SLOT_SURVEYEXPORT_SL5
  0
POLYLINE
  5
1E5
  330
F4
  100
AcDbEntity
  8
100 4W CUT4 LHPS 7EMB SLOT2 RINGS_DXF_RINGDESIGN_100 4W CUT4  LHPS 7EMB SLOT_SURVEYEXPORT_SL5
  62
7
  100
AcDb3dPolyline
  10
0
  20
0
  30
0
  70
8
  0
VERTEX
  5
1E6
  330

  100
AcDbEntity
  8
100 4W CUT4 LHPS 7EMB SLOT2 RINGS_DXF_RINGDESIGN_100 4W CUT4  LHPS 7EMB SLOT_SURVEYEXPORT_SL5
  6
BYLAYER
  62
7
  100
AcDbVertex
  100
AcDb3dPolylineVertex
  10
7106.707420997066
  20
-23441.73629024714
  30
-1062.6725390521447
  70
32
  0
VERTEX
  5
1E7
  330

  100
AcDbEntity
  8
100 4W CUT4 LHPS 7EMB SLOT2 RINGS_DXF_RINGDESIGN_100 4W CUT4  LHPS 7EMB SLOT_SURVEYEXPORT_SL5
  6
BYLAYER
  62
7
  100
AcDbVertex
  100
AcDb3dPolylineVertex
  10
7106.76333633401
  20
-23441.774108504083
  30
-1050.2091656268676
  70
32
  0
SEQEND
  5
1E8
  330

  100
AcDbEntity
  8
100 4W CUT4 LHPS 7EMB SLOT2 RINGS_DXF_RINGDESIGN_100 4W CUT4  LHPS 7EMB SLOT_SURVEYEXPORT_SL5
  0
POLYLINE
  5
1E9
  330
F4
  100
AcDbEntity
  8
100 4W CUT4 LHPS 7EMB SLOT2 RINGS_DXF_RINGDESIGN_100 4W CUT4  LHPS 7EMB SLOT_SURVEYEXPORT_SL5
  62
7
  100
AcDb3dPolyline
  10
0
  20
0
  30
0
  70
8
  0
VERTEX
  5
1EA
  330

  100
AcDbEntity
  8
100 4W CUT4 LHPS 7EMB SLOT2 RINGS_DXF_RINGDESIGN_100 4W CUT4  LHPS 7EMB SLOT_SURVEYEXPORT_SL5
  6
BYLAYER
  62
7
  100
AcDbVertex
  100
AcDb3dPolylineVertex
  10
7107.1530630378174
  20
-23442.037699594206
  30
-1062.5889251229819
  70
32
  0
VERTEX
  5
1EB
  330

  100
AcDbEntity
  8
100 4W CUT4 LHPS 7EMB SLOT2 RINGS_DXF_RINGDESIGN_100 4W CUT4  LHPS 7EMB SLOT_SURVEYEXPORT_SL5
  6
BYLAYER
  62
7
  100
AcDbVertex
  100
AcDb3dPolylineVertex
  10
7107.177490295835
  20
-23442.054220934693
  30
-1050.2128434438691
  70
32
  0
SEQEND
  5
1EC
  330

  100
AcDbEntity
  8
100 4W CUT4 LHPS 7EMB SLOT2 RINGS_DXF_RINGDESIGN_100 4W CUT4  LHPS 7EMB SLOT_SURVEYEXPORT_SL5
  0
POLYLINE
  5
1ED
  330
F4
  100
AcDbEntity
  8
100 4W CUT4 LHPS 7EMB SLOT2 RINGS_DXF_RINGDESIGN_100 4W CUT4  LHPS 7EMB SLOT_SURVEYEXPORT_SL5
  62
7
  100
AcDb3dPolyline
  10
0
  20
0
  30
0
  70
8
  0
VERTEX
  5
1EE
  330

  100
AcDbEntity
  8
100 4W CUT4 LHPS 7EMB SLOT2 RINGS_DXF_RINGDESIGN_100 4W CUT4  LHPS 7EMB SLOT_SURVEYEXPORT_SL5
  6
BYLAYER
  62
7
  100
AcDbVertex
  100
AcDb3dPolylineVertex
  10
7107.7433137044036
  20
-23442.436914775339
  30
-1062.5663693262811
  70
32
  0
VERTEX
  5
1EF
  330

  100
AcDbEntity
  8
100 4W CUT4 LHPS 7EMB SLOT2 RINGS_DXF_RINGDESIGN_100 4W CUT4  LHPS 7EMB SLOT_SURVEYEXPORT_SL5
  6
BYLAYER
  62
7
  100
AcDbVertex
  100
AcDb3dPolylineVertex
  10
7107.79872361426
  20
-23442.474391187407
  30
-1050.2179770296568
  70
32
  0
SEQEND
  5
1F0
  330

  100
AcDbEntity
  8
100 4W CUT4 LHPS 7EMB SLOT2 RINGS_DXF_RINGDESIGN_100 4W CUT4  LHPS 7EMB SLOT_SURVEYEXPORT_SL5
  0
LWPOLYLINE
  5
1F1
  330
F4
  100
AcDbEntity
  8
100 4W CUT4 LHPS 7EMB SLOT2 RINGS_DXF_RINGDESIGN_100 4W CUT4  LHPS 7EMB SLOT_SURVEYEXPORT
  62
7
  100
AcDbPolyline
  90
2
  43
0
  38
-1066.3870361641382
  10
7104.1373646684124
  20
-23439.696225630196
  10
7109.1073466215266
  20
-23443.057665706368
  0
LWPOLYLINE
  5
1F2
  330
F4
  100
AcDbEntity
  8
100 4W CUT4 LHPS 7EMB SLOT2 RINGS_DXF_RINGDESIGN_100 4W CUT4  LHPS 7EMB SLOT_SURVEYEXPORT
  62
1
  100
AcDbPolyline
  90
2
  43
0
  38
-1066.3870361641382
  10
7102.35580142804
  20
-23442.330316065345
  10
7107.325783381154
  20
-23445.691756141518
  0
POLYLINE
  5
1F3
  330
F4
  100
AcDbEntity
  8
100 4W CUT4 LHPS 7EMB SLOT2 RINGS_DXF_RINGDESIGN_100 4W CUT4  LHPS 7EMB SLOT_SURVEYEXPORT_SL6
  62
7
  100
AcDb3dPolyline
  10
0
  20
0
  30
0
  70
8
  0
VERTEX
  5
1F4
  330

  100
AcDbEntity
  8
100 4W CUT4 LHPS 7EMB SLOT2 RINGS_DXF_RINGDESIGN_100 4W CUT4  LHPS 7EMB SLOT_SURVEYEXPORT_SL6
  6
BYLAYER
  62
7
  100
AcDbVertex
  100
AcDb3dPolylineVertex
  10
7105.9020022263467
  20
-23440.889735679753
  30
-1063.1876624216638
  70
32
  0
VERTEX
  5
1F5
  330

  100
AcDbEntity
  8
100 4W CUT4 LHPS 7EMB SLOT2 RINGS_DXF_RINGDESIGN_100 4W CUT4  LHPS 7EMB SLOT_SURVEYEXPORT_SL6
  6
BYLAYER
  62
7
  100
AcDbVertex
  100
AcDb3dPolylineVertex
  10
7105.6873894800156
  20
-23440.744582660453
  30
-1050.1259773043057
  70
32
  0
SEQEND
  5
1F6
  330

  100
AcDbEntity
  8
100 4W CUT4 LHPS 7EMB SLOT2 RINGS_DXF_RINGDESIGN_100 4W CUT4  LHPS 7EMB SLOT_SURVEYEXPORT_SL6
  0
POLYLINE
  5
1F7
  330
F4
  100
AcDbEntity
  8
100 4W CUT4 LHPS 7EMB SLOT2 RINGS_DXF_RINGDESIGN_100 4W CUT4  LHPS 7EMB SLOT_SURVEYEXPORT_SL6
  62
7
  100
AcDb3dPolyline
  10
0
  20
0
  30
0
  70
8
  0
VERTEX
  5
1F8
  330

  100
AcDbEntity
  8
100 4W CUT4 LHPS 7EMB SLOT2 RINGS_DXF_RINGDESIGN_100 4W CUT4  LHPS 7EMB SLOT_SURVEYEXPORT_SL6
  6
BYLAYER
  62
7
  100
AcDbVertex
  100
AcDb3dPolylineVertex
  10
7108.0370962528759
  20
-23442.333803423844
  30
-1062.7304696934818
  70
32
  0
VERTEX
  5
1F9
  330

  100
AcDbEntity
  8
100 4W CUT4 LHPS 7EMB SLOT2 RINGS_DXF_RINGDESIGN_100 4W CUT4  LHPS 7EMB SLOT_SURVEYEXPORT_SL6
  6
BYLAYER
  62
7
  100
AcDbVertex
  100
AcDb3dPolylineVertex
  10
7108.5854292074846
  20
-23442.704667621358
  30
-1050.0977623670944
  70
32
  0
SEQEND
  5
1FA
  330

  100
AcDbEntity
  8
100 4W CUT4 LHPS 7EMB SLOT2 RINGS_DXF_RINGDESIGN_100 4W CUT4  LHPS 7EMB SLOT_SURVEYEXPORT_SL6
  0
POLYLINE
  5
1FB
  330
F4
  100
AcDbEntity
  8
100 4W CUT4 LHPS 7EMB SLOT2 RINGS_DXF_RINGDESIGN_100 4W CUT4  LHPS 7EMB SLOT_SURVEYEXPORT_SL6
  62
7
  100
AcDb3dPolyline
  10
0
  20
0
  30
0
  70
8
  0
VERTEX
  5
1FC
  330

  100
AcDbEntity
  8
100 4W CUT4 LHPS 7EMB SLOT2 RINGS_DXF_RINGDESIGN_100 4W CUT4  LHPS 7EMB SLOT_SURVEYEXPORT_SL6
  6
BYLAYER
  62
7
  100
AcDbVertex
  100
AcDb3dPolylineVertex
  10
7106.6187385349413
  20
-23441.374499241167
  30
-1062.7236798428196
  70
32
  0
VERTEX
  5
1FD
  330

  100
AcDbEntity
  8
100 4W CUT4 LHPS 7EMB SLOT2 RINGS_DXF_RINGDESIGN_100 4W CUT4  LHPS 7EMB SLOT_SURVEYEXPORT_SL6
  6
BYLAYER
  62
7
  100
AcDbVertex
  100
AcDb3dPolylineVertex
  10
7106.6963462015037
  20
-23441.426989073738
  30
-1050.2075281545667
  70
32
  0
SEQEND
  5
1FE
  330

  100
AcDbEntity
  8
100 4W CUT4 LHPS 7EMB SLOT2 RINGS_DXF_RINGDESIGN_100 4W CUT4  LHPS 7EMB SLOT_SURVEYEXPORT_SL6
  0
POLYLINE
  5
1FF
  330
F4
  100
AcDbEntity
  8
100 4W CUT4 LHPS 7EMB SLOT2 RINGS_DXF_RINGDESIGN_100 4W CUT4  LHPS 7EMB SLOT_SURVEYEXPORT_SL6
  62
7
  100
AcDb3dPolyline
  10
0
  20
0
  30
0
  70
8
  0
VERTEX
  5
200
  330

  100
AcDbEntity
  8
100 4W CUT4 LHPS 7EMB SLOT2 RINGS_DXF_RINGDESIGN_100 4W CUT4  LHPS 7EMB SLOT_SURVEYEXPORT_SL6
  6
BYLAYER
  62
7
  100
AcDbVertex
  100
AcDb3dPolylineVertex
  10
7107.0546489839389
  20
-23441.669326640284
  30
-1062.6585803468827
  70
32
  0
VERTEX
  5
201
  330

  100
AcDbEntity
  8
100 4W CUT4 LHPS 7EMB SLOT2 RINGS_DXF_RINGDESIGN_100 4W CUT4  LHPS 7EMB SLOT_SURVEYEXPORT_SL6
  6
BYLAYER
  62
7
  100
AcDbVertex
  100
AcDb3dPolylineVertex
  10
7107.1105016456049
  20
-23441.707102506887
  30
-1050.2109669170261
  70
32
  0
SEQEND
  5
202
  330

  100
AcDbEntity
  8
100 4W CUT4 LHPS 7EMB SLOT2 RINGS_DXF_RINGDESIGN_100 4W CUT4  LHPS 7EMB SLOT_SURVEYEXPORT_SL6
  0
POLYLINE
  5
203
  330
F4
  100
AcDbEntity
  8
100 4W CUT4 LHPS 7EMB SLOT2 RINGS_DXF_RINGDESIGN_100 4W CUT4  LHPS 7EMB SLOT_SURVEYEXPORT_SL6
  62
7
  100
AcDb3dPolyline
  10
0
  20
0
  30
0
  70
8
  0
VERTEX
  5
204
  330

  100
AcDbEntity
  8
100 4W CUT4 LHPS 7EMB SLOT2 RINGS_DXF_RINGDESIGN_100 4W CUT4  LHPS 7EMB SLOT_SURVEYEXPORT_SL6
  6
BYLAYER
  62
7
  100
AcDbVertex
  100
AcDb3dPolylineVertex
  10
7107.46914301948
  20
-23441.949669079262
  30
-1062.5855746877182
  70
32
  0
VERTEX
  5
205
  330

  100
AcDbEntity
  8
100 4W CUT4 LHPS 7EMB SLOT2 RINGS_DXF_RINGDESIGN_100 4W CUT4  LHPS 7EMB SLOT_SURVEYEXPORT_SL6
  6
BYLAYER
  62
7
  100
AcDbVertex
  100
AcDb3dPolylineVertex
  10
7107.5246552049593
  20
-23441.987214665296
  30
-1050.2147096434469
  70
32
  0
SEQEND
  5
206
  330

  100
AcDbEntity
  8
100 4W CUT4 LHPS 7EMB SLOT2 RINGS_DXF_RINGDESIGN_100 4W CUT4  LHPS 7EMB SLOT_SURVEYEXPORT_SL6
  0
LWPOLYLINE
  5
207
  330
F4
  100
AcDbEntity
  8
100 4W CUT4 LHPS 7EMB SLOT2 RINGS_DXF_RINGDESIGN_100 4W CUT4  LHPS 7EMB SLOT_SURVEYEXPORT
  62
7
  100
AcDbPolyline
  90
2
  43
0
  38
-1066.3884517626311
  10
7104.4174835520826
  20
-23439.282062127346
  10
7109.3874655051968
  20
-23442.643502203518
  0
LWPOLYLINE
  5
208
  330
F4
  100
AcDbEntity
  8
100 4W CUT4 LHPS 7EMB SLOT2 RINGS_DXF_RINGDESIGN_100 4W CUT4  LHPS 7EMB SLOT_SURVEYEXPORT
  62
1
  100
AcDbPolyline
  90
2
  43
0
  38
-1066.3884517626311
  10
7102.63592031171
  20
-23441.916152562495
  10
7107.6059022648242
  20
-23445.277592638668
  0
POLYLINE
  5
209
  330
F4
  100
AcDbEntity
  8
100 4W CUT4 LHPS 7EMB SLOT2 RINGS_DXF_RINGDESIGN_100 4W CUT4  LHPS 7EMB SLOT_SURVEYEXPORT_SL7
  62
7
  100
AcDb3dPolyline
  10
0
  20
0
  30
0
  70
8
  0
VERTEX
  5
20A
  330

  100
AcDbEntity
  8
100 4W CUT4 LHPS 7EMB SLOT2 RINGS_DXF_RINGDESIGN_100 4W CUT4  LHPS 7EMB SLOT_SURVEYEXPORT_SL7
  6
BYLAYER
  62
7
  100
AcDbVertex
  100
AcDb3dPolylineVertex
  10
7105.927119933318
  20
-23440.303102501373
  30
-1063.6035641337637
  70
32
  0
VERTEX
  5
20B
  330

  100
AcDbEntity
  8
100 4W CUT4 LHPS 7EMB SLOT2 RINGS_DXF_RINGDESIGN_100 4W CUT4  LHPS 7EMB SLOT_SURVEYEXPORT_SL7
  6
BYLAYER
  62
7
  100
AcDbVertex
  100
AcDb3dPolylineVertex
  10
7105.2300975521812
  20
-23439.831672426168
  30
-1050.040712348065
  70
32
  0
SEQEND
  5
20C
  330

  100
AcDbEntity
  8
100 4W CUT4 LHPS 7EMB SLOT2 RINGS_DXF_RINGDESIGN_100 4W CUT4  LHPS 7EMB SLOT_SURVEYEXPORT_SL7
  0
POLYLINE
  5
20D
  330
F4
  100
AcDbEntity
  8
100 4W CUT4 LHPS 7EMB SLOT2 RINGS_DXF_RINGDESIGN_100 4W CUT4  LHPS 7EMB SLOT_SURVEYEXPORT_SL7
  62
7
  100
AcDb3dPolyline
  10
0
  20
0
  30
0
  70
8
  0
VERTEX
  5
20E
  330

  100
AcDbEntity
  8
100 4W CUT4 LHPS 7EMB SLOT2 RINGS_DXF_RINGDESIGN_100 4W CUT4  LHPS 7EMB SLOT_SURVEYEXPORT_SL7
  6
BYLAYER
  62
7
  100
AcDbVertex
  100
AcDb3dPolylineVertex
  10
7108.7438190371367
  20
-23442.2081728496
  30
-1063.0138807824248
  70
32
  0
VERTEX
  5
20F
  330

  100
AcDbEntity
  8
100 4W CUT4 LHPS 7EMB SLOT2 RINGS_DXF_RINGDESIGN_100 4W CUT4  LHPS 7EMB SLOT_SURVEYEXPORT_SL7
  6
BYLAYER
  62
7
  100
AcDbVertex
  100
AcDb3dPolylineVertex
  10
7109.4369294146409
  20
-23442.676957046839
  30
-1050.0642247957487
  70
32
  0
SEQEND
  5
210
  330

  100
AcDbEntity
  8
100 4W CUT4 LHPS 7EMB SLOT2 RINGS_DXF_RINGDESIGN_100 4W CUT4  LHPS 7EMB SLOT_SURVEYEXPORT_SL7
  0
POLYLINE
  5
211
  330
F4
  100
AcDbEntity
  8
100 4W CUT4 LHPS 7EMB SLOT2 RINGS_DXF_RINGDESIGN_100 4W CUT4  LHPS 7EMB SLOT_SURVEYEXPORT_SL7
  62
7
  100
AcDb3dPolyline
  10
0
  20
0
  30
0
  70
8
  0
VERTEX
  5
212
  330

  100
AcDbEntity
  8
100 4W CUT4 LHPS 7EMB SLOT2 RINGS_DXF_RINGDESIGN_100 4W CUT4  LHPS 7EMB SLOT_SURVEYEXPORT_SL7
  6
BYLAYER
  62
7
  100
AcDbVertex
  100
AcDb3dPolylineVertex
  10
7106.5033084699207
  20
-23440.692806781321
  30
-1063.1025397483622
  70
32
  0
VERTEX
  5
213
  330

  100
AcDbEntity
  8
100 4W CUT4 LHPS 7EMB SLOT2 RINGS_DXF_RINGDESIGN_100 4W CUT4  LHPS 7EMB SLOT_SURVEYEXPORT_SL7
  6
BYLAYER
  62
7
  100
AcDbVertex
  100
AcDb3dPolylineVertex
  10
7106.5608523132078
  20
-23440.731726476159
  30
-1050.2048024135524
  70
32
  0
SEQEND
  5
214
  330

  100
AcDbEntity
  8
100 4W CUT4 LHPS 7EMB SLOT2 RINGS_DXF_RINGDESIGN_100 4W CUT4  LHPS 7EMB SLOT_SURVEYEXPORT_SL7
  0
POLYLINE
  5
215
  330
F4
  100
AcDbEntity
  8
100 4W CUT4 LHPS 7EMB SLOT2 RINGS_DXF_RINGDESIGN_100 4W CUT4  LHPS 7EMB SLOT_SURVEYEXPORT_SL7
  62
7
  100
AcDb3dPolyline
  10
0
  20
0
  30
0
  70
8
  0
VERTEX
  5
216
  330

  100
AcDbEntity
  8
100 4W CUT4 LHPS 7EMB SLOT2 RINGS_DXF_RINGDESIGN_100 4W CUT4  LHPS 7EMB SLOT_SURVEYEXPORT_SL7
  6
BYLAYER
  62
7
  100
AcDbVertex
  100
AcDb3dPolylineVertex
  10
7107.126496549
  20
-23441.114299133558
  30
-1062.668037870503
  70
32
  0
VERTEX
  5
217
  330

  100
AcDbEntity
  8
100 4W CUT4 LHPS 7EMB SLOT2 RINGS_DXF_RINGDESIGN_100 4W CUT4  LHPS 7EMB SLOT_SURVEYEXPORT_SL7
  6
BYLAYER
  62
7
  100
AcDbVertex
  100
AcDb3dPolylineVertex
  10
7107.1820826522262
  20
-23441.151894713748
  30
-1050.2104165031822
  70
32
  0
SEQEND
  5
218
  330

  100
AcDbEntity
  8
100 4W CUT4 LHPS 7EMB SLOT2 RINGS_DXF_RINGDESIGN_100 4W CUT4  LHPS 7EMB SLOT_SURVEYEXPORT_SL7
  0
POLYLINE
  5
219
  330
F4
  100
AcDbEntity
  8
100 4W CUT4 LHPS 7EMB SLOT2 RINGS_DXF_RINGDESIGN_100 4W CUT4  LHPS 7EMB SLOT_SURVEYEXPORT_SL7
  62
7
  100
AcDb3dPolyline
  10
0
  20
0
  30
0
  70
8
  0
VERTEX
  5
21A
  330

  100
AcDbEntity
  8
100 4W CUT4 LHPS 7EMB SLOT2 RINGS_DXF_RINGDESIGN_100 4W CUT4  LHPS 7EMB SLOT_SURVEYEXPORT_SL7
  6
BYLAYER
  62
7
  100
AcDbVertex
  100
AcDb3dPolylineVertex
  10
7107.5725138870757
  20
-23441.415962312425
  30
-1062.6111057997623
  70
32
  0
VERTEX
  5
21B
  330

  100
AcDbEntity
  8
100 4W CUT4 LHPS 7EMB SLOT2 RINGS_DXF_RINGDESIGN_100 4W CUT4  LHPS 7EMB SLOT_SURVEYEXPORT_SL7
  6
BYLAYER
  62
7
  100
AcDbVertex
  100
AcDb3dPolylineVertex
  10
7107.5962435471447
  20
-23441.432011833549
  30
-1050.2129761873509
  70
32
  0
SEQEND
  5
21C
  330

  100
AcDbEntity
  8
100 4W CUT4 LHPS 7EMB SLOT2 RINGS_DXF_RINGDESIGN_100 4W CUT4  LHPS 7EMB SLOT_SURVEYEXPORT_SL7
  0
POLYLINE
  5
21D
  330
F4
  100
AcDbEntity
  8
100 4W CUT4 LHPS 7EMB SLOT2 RINGS_DXF_RINGDESIGN_100 4W CUT4  LHPS 7EMB SLOT_SURVEYEXPORT_SL7
  62
7
  100
AcDb3dPolyline
  10
0
  20
0
  30
0
  70
8
  0
VERTEX
  5
21E
  330

  100
AcDbEntity
  8
100 4W CUT4 LHPS 7EMB SLOT2 RINGS_DXF_RINGDESIGN_100 4W CUT4  LHPS 7EMB SLOT_SURVEYEXPORT_SL7
  6
BYLAYER
  62
7
  100
AcDbVertex
  100
AcDb3dPolylineVertex
  10
7108.1618252323233
  20
-23441.814542184933
  30
-1062.6878051791318
  70
32
  0
VERTEX
  5
21F
  330

  100
AcDbEntity
  8
100 4W CUT4 LHPS 7EMB SLOT2 RINGS_DXF_RINGDESIGN_100 4W CUT4  LHPS 7EMB SLOT_SURVEYEXPORT_SL7
  6
BYLAYER
  62
7
  100
AcDbVertex
  100
AcDb3dPolylineVertex
  10
7108.2174821498647
  20
-23441.852185660289
  30
-1050.2172575506147
  70
32
  0
SEQEND
  5
220
  330

  100
AcDbEntity
  8
100 4W CUT4 LHPS 7EMB SLOT2 RINGS_DXF_RINGDESIGN_100 4W CUT4  LHPS 7EMB SLOT_SURVEYEXPORT_SL7
  0
LWPOLYLINE
  5
221
  330
F4
  100
AcDbEntity
  8
100 4W CUT4 LHPS 7EMB SLOT2 RINGS_DXF_RINGDESIGN_100 4W CUT4  LHPS 7EMB SLOT_SURVEYEXPORT
  62
7
  100
AcDbPolyline
  90
2
  43
0
  38
-1066.3907167292973
  10
7104.8656755622405
  20
-23438.619397866929
  10
7109.8356575153548
  20
-23441.9808379431
  0
LWPOLYLINE
  5
222
  330
F4
  100
AcDbEntity
  8
100 4W CUT4 LHPS 7EMB SLOT2 RINGS_DXF_RINGDESIGN_100 4W CUT4  LHPS 7EMB SLOT_SURVEYEXPORT
  62
1
  100
AcDbPolyline
  90
2
  43
0
  38
-1066.3907167292973
  10
7103.0841123218679
  20
-23441.253488302078
  10
7108.0540942749822
  20
-23444.614928378251
  0
POLYLINE
  5
223
  330
F4
  100
AcDbEntity
  8
100 4W CUT4 LHPS 7EMB SLOT2 RINGS_DXF_RINGDESIGN_100 4W CUT4  LHPS 7EMB SLOT_SURVEYEXPORT_SL8
  62
7
  100
AcDb3dPolyline
  10
0
  20
0
  30
0
  70
8
  0
VERTEX
  5
224
  330

  100
AcDbEntity
  8
100 4W CUT4 LHPS 7EMB SLOT2 RINGS_DXF_RINGDESIGN_100 4W CUT4  LHPS 7EMB SLOT_SURVEYEXPORT_SL8
  6
BYLAYER
  62
7
  100
AcDbVertex
  100
AcDb3dPolylineVertex
  10
7106.7686359952058
  20
-23439.906462392122
  30
-1063.9625735743559
  70
32
  0
VERTEX
  5
225
  330

  100
AcDbEntity
  8
100 4W CUT4 LHPS 7EMB SLOT2 RINGS_DXF_RINGDESIGN_100 4W CUT4  LHPS 7EMB SLOT_SURVEYEXPORT_SL8
  6
BYLAYER
  62
7
  100
AcDbVertex
  100
AcDb3dPolylineVertex
  10
7105.7238118181795
  20
-23439.19979707737
  30
-1050.1185926175217
  70
32
  0
SEQEND
  5
226
  330

  100
AcDbEntity
  8
100 4W CUT4 LHPS 7EMB SLOT2 RINGS_DXF_RINGDESIGN_100 4W CUT4  LHPS 7EMB SLOT_SURVEYEXPORT_SL8
  0
POLYLINE
  5
227
  330
F4
  100
AcDbEntity
  8
100 4W CUT4 LHPS 7EMB SLOT2 RINGS_DXF_RINGDESIGN_100 4W CUT4  LHPS 7EMB SLOT_SURVEYEXPORT_SL8
  62
7
  100
AcDb3dPolyline
  10
0
  20
0
  30
0
  70
8
  0
VERTEX
  5
228
  330

  100
AcDbEntity
  8
100 4W CUT4 LHPS 7EMB SLOT2 RINGS_DXF_RINGDESIGN_100 4W CUT4  LHPS 7EMB SLOT_SURVEYEXPORT_SL8
  6
BYLAYER
  62
7
  100
AcDbVertex
  100
AcDb3dPolylineVertex
  10
7107.19827131419
  20
-23440.197045616165
  30
-1063.0491886160876
  70
32
  0
VERTEX
  5
229
  330

  100
AcDbEntity
  8
100 4W CUT4 LHPS 7EMB SLOT2 RINGS_DXF_RINGDESIGN_100 4W CUT4  LHPS 7EMB SLOT_SURVEYEXPORT_SL8
  6
BYLAYER
  62
7
  100
AcDbVertex
  100
AcDb3dPolylineVertex
  10
7106.571909121647
  20
-23439.773406456894
  30
-1050.1532405604166
  70
32
  0
SEQEND
  5
22A
  330

  100
AcDbEntity
  8
100 4W CUT4 LHPS 7EMB SLOT2 RINGS_DXF_RINGDESIGN_100 4W CUT4  LHPS 7EMB SLOT_SURVEYEXPORT_SL8
  0
POLYLINE
  5
22B
  330
F4
  100
AcDbEntity
  8
100 4W CUT4 LHPS 7EMB SLOT2 RINGS_DXF_RINGDESIGN_100 4W CUT4  LHPS 7EMB SLOT_SURVEYEXPORT_SL8
  62
7
  100
AcDb3dPolyline
  10
0
  20
0
  30
0
  70
8
  0
VERTEX
  5
22C
  330

  100
AcDbEntity
  8
100 4W CUT4 LHPS 7EMB SLOT2 RINGS_DXF_RINGDESIGN_100 4W CUT4  LHPS 7EMB SLOT_SURVEYEXPORT_SL8
  6
BYLAYER
  62
7
  100
AcDbVertex
  100
AcDb3dPolylineVertex
  10
7107.7441604372389
  20
-23440.566256931761
  30
-1062.7057184655473
  70
32
  0
VERTEX
  5
22D
  330

  100
AcDbEntity
  8
100 4W CUT4 LHPS 7EMB SLOT2 RINGS_DXF_RINGDESIGN_100 4W CUT4  LHPS 7EMB SLOT_SURVEYEXPORT_SL8
  6
BYLAYER
  62
7
  100
AcDbVertex
  100
AcDb3dPolylineVertex
  10
7107.6699670258731
  20
-23440.51607632573
  30
-1050.2138462455471
  70
32
  0
SEQEND
  5
22E
  330

  100
AcDbEntity
  8
100 4W CUT4 LHPS 7EMB SLOT2 RINGS_DXF_RINGDESIGN_100 4W CUT4  LHPS 7EMB SLOT_SURVEYEXPORT_SL8
  0
POLYLINE
  5
22F
  330
F4
  100
AcDbEntity
  8
100 4W CUT4 LHPS 7EMB SLOT2 RINGS_DXF_RINGDESIGN_100 4W CUT4  LHPS 7EMB SLOT_SURVEYEXPORT_SL8
  62
7
  100
AcDb3dPolyline
  10
0
  20
0
  30
0
  70
8
  0
VERTEX
  5
230
  330

  100
AcDbEntity
  8
100 4W CUT4 LHPS 7EMB SLOT2 RINGS_DXF_RINGDESIGN_100 4W CUT4  LHPS 7EMB SLOT_SURVEYEXPORT_SL8
  6
BYLAYER
  62
7
  100
AcDbVertex
  100
AcDb3dPolylineVertex
  10
7108.6450435129691
  20
-23441.175567891689
  30
-1062.7362058821111
  70
32
  0
VERTEX
  5
231
  330

  100
AcDbEntity
  8
100 4W CUT4 LHPS 7EMB SLOT2 RINGS_DXF_RINGDESIGN_100 4W CUT4  LHPS 7EMB SLOT_SURVEYEXPORT_SL8
  6
BYLAYER
  62
7
  100
AcDbVertex
  100
AcDb3dPolylineVertex
  10
7108.8335019309025
  20
-23441.30303146896
  30
-1050.201995971918
  70
32
  0
SEQEND
  5
232
  330

  100
AcDbEntity
  8
100 4W CUT4 LHPS 7EMB SLOT2 RINGS_DXF_RINGDESIGN_100 4W CUT4  LHPS 7EMB SLOT_SURVEYEXPORT_SL8
  0
POLYLINE
  5
233
  330
F4
  100
AcDbEntity
  8
100 4W CUT4 LHPS 7EMB SLOT2 RINGS_DXF_RINGDESIGN_100 4W CUT4  LHPS 7EMB SLOT_SURVEYEXPORT_SL8
  62
7
  100
AcDb3dPolyline
  10
0
  20
0
  30
0
  70
8
  0
VERTEX
  5
234
  330

  100
AcDbEntity
  8
100 4W CUT4 LHPS 7EMB SLOT2 RINGS_DXF_RINGDESIGN_100 4W CUT4  LHPS 7EMB SLOT_SURVEYEXPORT_SL8
  6
BYLAYER
  62
7
  100
AcDbVertex
  100
AcDb3dPolylineVertex
  10
7109.162586929855
  20
-23441.525607630083
  30
-1063.3370666295164
  70
32
  0
VERTEX
  5
235
  330

  100
AcDbEntity
  8
100 4W CUT4 LHPS 7EMB SLOT2 RINGS_DXF_RINGDESIGN_100 4W CUT4  LHPS 7EMB SLOT_SURVEYEXPORT_SL8
  6
BYLAYER
  62
7
  100
AcDbVertex
  100
AcDb3dPolylineVertex
  10
7109.88352716377
  20
-23442.013214510283
  30
-1050.104485148916
  70
32
  0
SEQEND
  5
236
  330

  100
AcDbEntity
  8
100 4W CUT4 LHPS 7EMB SLOT2 RINGS_DXF_RINGDESIGN_100 4W CUT4  LHPS 7EMB SLOT_SURVEYEXPORT_SL8
  0
VIEWPORT
  5
237
  330
F5
  100
AcDbEntity
  67
1
  8
0
  100
AcDbViewport
  10
105.029
  20
148.463
  40
24.97
  41
312.78718378906251
  68
1
  69
1
  12
105.029
  22
148.463
  13
0
  23
0
  14
1
  24
1
  15
1
  25
1
  16
0
  26
0
  36
1
  17
0
  27
0
  37
0
  42
50
  43
0
  44
0
  45
312.78718378906251
  50
0
  51
0
  72
1000
  90
32800
  1

  281
0
  71
1
  74
0
  110
0
  120
0
  130
0
  111
1
  121
0
  131
0
  112
0
  122
1
  132
0
  79
0
  146
0
  0
ENDSEC
  0
SECTION
  2
OBJECTS
  0
DICTIONARY
  5
238
  330
0
  100
AcDbDictionary
  281
1
  3
ACAD_GROUP
  350
239
  3
ACAD_LAYOUT
  350
23A
  3
ACAD_MLINESTYLE
  350
23B
  3
ACAD_PLOTSETTINGS
  350
23C
  3
ACAD_PLOTSTYLENAME
  350
23D
  3
VECTORDRAW_OBJECTS
  350
23E
  3
DWGPROPS
  350
23F
  0
DICTIONARY
  5
E8
  330
E7
  100
AcDbDictionary
  280
1
  281
1
  3
ACAD_LAYERFILTERS
  360
240
  3
ACAD_LAYERSTATES
  360
241
  3
ACLYDICTIONARY
  360
242
  0
DICTIONARY
  5
240
  102
{ACAD_REACTORS
  330
E8
  102
}
  330
E8
  100
AcDbDictionary
  281
1
  0
DICTIONARY
  5
241
  102
{ACAD_REACTORS
  330
E8
  102
}
  330
E8
  100
AcDbDictionary
  281
1
  0
DICTIONARY
  5
242
  102
{ACAD_REACTORS
  330
E8
  102
}
  330
E8
  100
AcDbDictionary
  281
1
  1001
ACAD
  1000
<All
  0
DICTIONARY
  5
239
  102
{ACAD_REACTORS
  330
238
  102
}
  330
238
  100
AcDbDictionary
  281
1
  0
DICTIONARY
  5
23A
  102
{ACAD_REACTORS
  330
238
  102
}
  330
238
  100
AcDbDictionary
  281
1
  3
Layout1
  350
E2
  3
Model
  350
1
  0
DICTIONARY
  5
23B
  102
{ACAD_REACTORS
  330
238
  102
}
  330
238
  100
AcDbDictionary
  281
1
  3
Standard
  350
63
  0
DICTIONARY
  5
23C
  102
{ACAD_REACTORS
  330
238
  102
}
  330
238
  100
AcDbDictionary
  281
1
  0
ACDBDICTIONARYWDFLT
  5
23D
  102
{ACAD_REACTORS
  330
238
  102
}
  330
238
  100
AcDbDictionary
  281
1
  3
Normal
  350
E6
  100
AcDbDictionaryWithDefault
  340
E6
  0
DICTIONARY
  5
23E
  102
{ACAD_REACTORS
  330
238
  102
}
  330
238
  100
AcDbDictionary
  281
1
  3
SERIALNO
  350
243
  0
LAYOUT
  5
E2
  102
{ACAD_REACTORS
  330
23A
  102
}
  330
23A
  100
AcDbPlotSettings
  1

  2

  4

  6

  40
0
  41
0
  42
0
  43
0
  44
210.058
  45
296.926
  46
0
  47
0
  48
0
  49
0
  140
210.058
  141
296.926
  142
1
  143
1
  70
688
  72
1
  73
0
  74
4
  75
16
  147
1
  148
0
  149
0
  100
AcDbLayout
  1
Layout1
  70
0
  71
1
  10
0
  20
0
  11
12
  21
9
  12
0
  22
0
  32
0
  14
0
  24
0
  34
0
  15
0
  25
0
  35
0
  146
0
  13
0
  23
0
  33
0
  16
1
  26
0
  36
0
  17
0
  27
1
  37
0
  76
0
  330
F5
  0
LAYOUT
  5
1
  102
{ACAD_REACTORS
  330
23A
  102
}
  330
23A
  100
AcDbPlotSettings
  1
VectorDraw Printer Drawing
  2

  4

  6

  40
0
  41
0
  42
0
  43
0
  44
210.058
  45
296.926
  46
0
  47
0
  48
-22.068064368676602
  49
-24.5269708304017
  140
22.763351828974578
  141
19.754366640897928
  142
1
  143
0.21342398860148712
  72
1
  73
0
  74
4
  75
0
  147
1
  148
22.068064368676602
  149
24.5269708304017
  100
AcDbLayout
  1
Model
  70
1
  71
0
  10
10
  20
0
  11
0
  21
10
  12
0
  22
0
  32
0
  14
7109.88352716377
  24
-23461.085669114229
  34
7093.2923891649261
  15
-23436.802258790278
  25
-1066.4026723073657
  35
-1066.4026723073657
  146
0
  13
0
  23
0
  33
0
  16
1
  26
0
  36
0
  17
0
  27
1
  37
0
  76
0
  330
F4
  0
MLINESTYLE
  5
63
  102
{ACAD_REACTORS
  330
23B
  102
}
  330
23B
  100
AcDbMlineStyle
  2
Standard
  70
0
  3

  62
0
  51
90
  52
90
  71
2
  49
0.5
  62
7
  6
Continuous
  49
-0.5
  62
7
  6
Continuous
  0
ACDBPLACEHOLDER
  5
E6
  102
{ACAD_REACTORS
  330
23D
  102
}
  330
23D
  0
XRECORD
  5
243
  102
{ACAD_REACTORS
  330
23E
  102
}
  330
23E
  100
AcDbXrecord
  280
1
  1000
udnjVM6OT3ptXXPNDrqErnGX8
  1070
5
  1070
1
  0
XRECORD
  5
23F
  102
{ACAD_REACTORS
  330
238
  102
}
  330
238
  100
AcDbXrecord
  280
1
  1
DWGPROPS COOKIE
  2

  3

  4

  6

  7

  8

  9

  40
0
  41
0
  42
0
  1

  90
0
  0
ENDSEC
  999
Created By VectorDraw :7.7012.0.1
  0
EOF
